<?xml version="1.0" encoding="utf-8"?>
<!-- Generator: Adobe Illustrator 18.0.0, SVG Export Plug-In . SVG Version: 6.00 Build 0)  -->
<!DOCTYPE svg PUBLIC "-//W3C//DTD SVG 1.1//EN" "http://www.w3.org/Graphics/SVG/1.1/DTD/svg11.dtd">
<svg version="1.1" id="Layer_1" xmlns="http://www.w3.org/2000/svg" xmlns:xlink="http://www.w3.org/1999/xlink" x="0px" y="0px"
	 viewBox="0 0 64 64" enable-background="new 0 0 64 64" xml:space="preserve">
<g>
	<g id="XMLID_8_">
		<g>
			<g>
				<path fill="#F25151" d="M31,22c0.2,0,0.4,0,0.5,0c2.4,0,4.4-0.8,5.2-2l1.3-2.6c0.9,0.5,1.8,1,2.9,1.2c3.6,0.9,7.2-0.2,9.4-1.2
					c4.7,3.1,7.6,8.8,7.6,16.5c0,12.2-7.4,29-17.4,29c-1.5,0-2.9-0.4-4.2-1c-2.8-1.4-6.1-1.4-8.9,0c-1.4,0.7-2.8,1-4.2,1
					C13,63,5.6,46.2,5.6,34S13,14.6,23,14.6c2,0,3.9,0.3,5.7,0.9c0.8,0.2,1.6,0.4,2.4,0.4C30.9,18.9,31,21,31,21L31,22z"/>
			</g>
			<g>
				<path fill="#6DE283" d="M52.2,16.4c0,0-0.8,0.5-2,1c-2.8-1.8-6.1-2.8-9.8-2.8c-1.8,0-3.5,0.2-5.1,0.7c-2.1-2-3.3-4.2-3.3-4.2
					s5.8-3.7,11.4-2.2C49,10.4,52.2,16.4,52.2,16.4z"/>
			</g>
			<g>
				<path fill="#6DE283" d="M50.2,17.5c-2.2,1-5.8,2.1-9.4,1.2c-1-0.3-2-0.7-2.9-1.2c-1-0.6-1.9-1.3-2.7-2.1
					c1.6-0.4,3.3-0.7,5.1-0.7C44.1,14.6,47.5,15.6,50.2,17.5z"/>
			</g>
			<g>
				<path fill="#F25151" d="M38,17.4L36.7,20c-0.8,1.2-2.8,2-5.2,2c-0.2,0-0.4,0-0.5,0l0-0.9c0,0-0.1-2.1,0.1-5.1
					c1.2,0.1,2.4-0.1,3.6-0.4c0.2-0.1,0.4-0.1,0.6-0.2C36,16.1,36.9,16.8,38,17.4z"/>
			</g>
		</g>
		<g>
			<g>
				<path fill="#2C2C3D" d="M40.4,64c-1.6,0-3.2-0.4-4.7-1.1c-2.5-1.2-5.5-1.2-8.1,0C26.1,63.6,24.6,64,23,64
					C11.9,64,4.6,45.9,4.6,34C4.6,21.8,12,13.6,23,13.6c2.1,0,4.1,0.3,6,0.9c0.7,0.2,1.5,0.4,2.2,0.4c1.1,0.1,2.2-0.1,3.2-0.4
					c0.1,0,0.2-0.1,0.3-0.1l0.2-0.1c0.5-0.2,1.1,0.1,1.3,0.7c0.2,0.5-0.1,1.1-0.7,1.3L35,16.5c-1.3,0.4-2.7,0.6-4,0.5
					c-0.9,0-1.8-0.2-2.7-0.5c-1.7-0.5-3.5-0.8-5.4-0.8C13,15.6,6.6,22.8,6.6,34c0,11.3,6.9,28,16.4,28c1.3,0,2.6-0.3,3.8-0.9
					c3.1-1.5,6.7-1.5,9.8,0c1.3,0.6,2.5,0.9,3.8,0.9c9.5,0,16.4-16.7,16.4-28c0-7-2.6-12.6-7.2-15.7c-0.5-0.3-0.6-0.9-0.3-1.4
					c0.3-0.5,0.9-0.6,1.4-0.3c5.2,3.5,8.1,9.7,8.1,17.4C58.8,45.9,51.5,64,40.4,64z"/>
			</g>
			<g>
				<path fill="#2C2C3D" d="M43.6,20c-1,0-2-0.1-3-0.4c-1.1-0.3-2.1-0.7-3.2-1.3c-1-0.6-2-1.3-2.9-2.2c-2.2-2.1-3.4-4.3-3.5-4.4
					c-0.3-0.5-0.1-1,0.3-1.3c0.2-0.1,4.3-2.7,9.2-2.7c1,0,2,0.1,3,0.4c6,1.6,9.3,7.7,9.5,8c0.2,0.5,0.1,1-0.3,1.3
					c0,0-0.8,0.5-2.2,1.1C49,19.1,46.4,20,43.6,20z M33.4,11.5c0.5,0.8,1.4,2,2.6,3.1c0.8,0.8,1.6,1.4,2.5,2
					c0.9,0.5,1.7,0.9,2.6,1.1c0.8,0.2,1.6,0.3,2.5,0.3c2.4,0,4.7-0.8,6.2-1.5c0.4-0.2,0.7-0.3,1-0.5c-1.1-1.6-3.8-5.1-7.7-6.2
					c-0.8-0.2-1.6-0.3-2.5-0.3C37.6,9.6,34.8,10.8,33.4,11.5z"/>
			</g>
			<g>
				<path fill="#2C2C3D" d="M31,22c-0.5,0-1-0.4-1-0.9c0-0.1-0.2-2.2,0.1-5.2c0.2-1.8,0.5-3.4,0.9-4.9c1.2-4.7,3.4-8.3,6.4-10.7
					c0.4-0.3,1.1-0.3,1.4,0.2c0.3,0.4,0.3,1.1-0.2,1.4c-2.7,2.1-4.6,5.3-5.7,9.6c-0.4,1.4-0.6,3-0.8,4.7C31.9,18.9,32,20.9,32,21
					C32,21.5,31.6,22,31,22C31,22,31,22,31,22z"/>
			</g>
			<g>
				<path fill="#2C2C3D" d="M31.5,23c-0.2,0-0.4,0-0.7,0c-2.4-0.1-4.5-1.1-5.4-2.4c-0.3-0.5-0.2-1.1,0.3-1.4
					c0.5-0.3,1.1-0.2,1.4,0.3c0.4,0.7,1.8,1.4,3.9,1.5c0.2,0,0.3,0,0.5,0c2.2,0,3.9-0.8,4.4-1.5c0.3-0.5,0.9-0.6,1.4-0.3
					c0.5,0.3,0.6,0.9,0.3,1.4C36.6,22,34.2,23,31.5,23z"/>
			</g>
		</g>
	</g>
</g>
</svg>
