<?xml version="1.0" encoding="utf-8"?>
<!-- Generator: Adobe Illustrator 18.0.0, SVG Export Plug-In . SVG Version: 6.00 Build 0)  -->
<!DOCTYPE svg PUBLIC "-//W3C//DTD SVG 1.1//EN" "http://www.w3.org/Graphics/SVG/1.1/DTD/svg11.dtd">
<svg version="1.1" id="Layer_1" xmlns="http://www.w3.org/2000/svg" xmlns:xlink="http://www.w3.org/1999/xlink" x="0px" y="0px"
	 viewBox="0 0 64 64" enable-background="new 0 0 64 64" xml:space="preserve">
<g id="XMLID_9_">
	<g>
		<g>
			<polygon fill="#F4F0DF" points="53,56 60,56 60,63 4,63 4,56 11,56 17,56 29.5,56 35.5,56 47,56 			"/>
		</g>
		<g>
			<path fill="#EAE4CA" d="M53,33h-6c-0.2,0-0.3,0-0.5,0c-1.4-0.2-2.5-1.5-2.5-3c0-0.8,0.3-1.6,0.9-2.1c0.5-0.5,1.3-0.9,2.1-0.9h6
				c1.7,0,3,1.3,3,3c0,0.8-0.3,1.6-0.9,2.1c-0.4,0.4-1,0.7-1.6,0.8C53.3,33,53.2,33,53,33z"/>
		</g>
		<g>
			<path fill="#EAE4CA" d="M53,56h-6c-1.7,0-3-1.3-3-3c0-0.8,0.3-1.6,0.9-2.1c0.4-0.4,1-0.7,1.6-0.8c0.2,0,0.3,0,0.5,0h6
				c0.2,0,0.3,0,0.5,0c1.4,0.2,2.5,1.5,2.5,3c0,0.8-0.3,1.6-0.9,2.1C54.6,55.7,53.8,56,53,56z"/>
		</g>
		<g>
			<polygon fill="#95DB5D" points="60,21 60,27 53,27 47,27 35.5,27 29.5,27 17,27 11,27 5,27 5,21 			"/>
		</g>
		<g>
			<path fill="#EADDA9" d="M46.5,33L46.5,33c0.2,0,0.3,0,0.5,0h6c0.2,0,0.3,0,0.5,0l0,0v17l0,0c-0.2,0-0.3,0-0.5,0h-6
				c-0.2,0-0.3,0-0.5,0l0,0V33z"/>
		</g>
		<g>
			<path fill="#EAE4CA" d="M17,56h-6c-1.7,0-3-1.3-3-3c0-0.8,0.3-1.6,0.9-2.1c0.4-0.4,1-0.7,1.6-0.8c0.2,0,0.3,0,0.5,0h6
				c0.2,0,0.3,0,0.5,0c1.4,0.2,2.5,1.5,2.5,3c0,0.8-0.3,1.6-0.9,2.1C18.6,55.7,17.8,56,17,56z"/>
		</g>
		<g>
			<path fill="#EADDA9" d="M17,50h-6c-0.2,0-0.3,0-0.5,0l0,0V33l0,0c0.2,0,0.3,0,0.5,0h6c0.2,0,0.3,0,0.5,0l0,0v17l0,0
				C17.3,50,17.2,50,17,50z"/>
		</g>
		<g>
			<path fill="#EAE4CA" d="M17,33h-6c-0.2,0-0.3,0-0.5,0C9.1,32.7,8,31.5,8,30c0-0.8,0.3-1.6,0.9-2.1C9.4,27.3,10.2,27,11,27h6
				c1.7,0,3,1.3,3,3c0,0.8-0.3,1.6-0.9,2.1c-0.4,0.4-1,0.7-1.6,0.8C17.3,33,17.2,33,17,33z"/>
		</g>
		<g>
			<path fill="#EAE4CA" d="M29.5,50h6c0.2,0,0.3,0,0.5,0c1.4,0.2,2.5,1.5,2.5,3c0,0.8-0.3,1.6-0.9,2.1c-0.5,0.5-1.3,0.9-2.1,0.9h-6
				c-1.7,0-3-1.3-3-3c0-0.8,0.3-1.6,0.9-2.1c0.4-0.4,1-0.7,1.6-0.8C29.2,50,29.3,50,29.5,50z"/>
		</g>
		<g>
			<path fill="#EADDA9" d="M29.5,33h6c0.2,0,0.3,0,0.5,0l0,0v17l0,0c-0.2,0-0.3,0-0.5,0h-6c-0.2,0-0.3,0-0.5,0l0,0V33l0,0
				C29.2,33,29.3,33,29.5,33z"/>
		</g>
		<g>
			<path fill="#EAE4CA" d="M35.5,33h-6c-0.2,0-0.3,0-0.5,0c-1.4-0.2-2.5-1.5-2.5-3c0-0.8,0.3-1.6,0.9-2.1c0.5-0.5,1.3-0.9,2.1-0.9h6
				c1.7,0,3,1.3,3,3c0,0.8-0.3,1.6-0.9,2.1c-0.4,0.4-1,0.7-1.6,0.8C35.8,33,35.7,33,35.5,33z"/>
		</g>
		<g>
			<circle fill="#95DB5D" cx="32" cy="12" r="4"/>
		</g>
		<g>
			<path fill="#F4F0DF" d="M63,21h-3H5H1L32,1L63,21z M36,12c0-2.2-1.8-4-4-4s-4,1.8-4,4s1.8,4,4,4S36,14.2,36,12z"/>
		</g>
	</g>
	<g>
		<g>
			<path fill="#2C2C3D" d="M63,22h-3c-0.6,0-1-0.4-1-1c0-0.4,0.3-0.8,0.7-0.9L32,2.2L4.4,20H5c0.6,0,1,0.4,1,1s-0.4,1-1,1H1
				c-0.4,0-0.8-0.3-1-0.7c-0.1-0.4,0-0.9,0.4-1.1l31-20c0.3-0.2,0.8-0.2,1.1,0l31,20c0.4,0.2,0.5,0.7,0.4,1.1
				C63.8,21.7,63.4,22,63,22z"/>
		</g>
		<g>
			<path fill="#2C2C3D" d="M47,57H35.5c-0.6,0-1-0.4-1-1s0.4-1,1-1H47c0.6,0,1,0.4,1,1S47.6,57,47,57z"/>
		</g>
		<g>
			<path fill="#2C2C3D" d="M29.5,57H17c-0.6,0-1-0.4-1-1s0.4-1,1-1h12.5c0.6,0,1,0.4,1,1S30.1,57,29.5,57z"/>
		</g>
		<g>
			<path fill="#2C2C3D" d="M60,64H4c-0.6,0-1-0.4-1-1v-7c0-0.6,0.4-1,1-1h7c0.6,0,1,0.4,1,1s-0.4,1-1,1H5v5h54v-5h-6
				c-0.6,0-1-0.4-1-1s0.4-1,1-1h7c0.6,0,1,0.4,1,1v7C61,63.6,60.6,64,60,64z"/>
		</g>
		<g>
			<path fill="#2C2C3D" d="M17,34h-6c-0.2,0-0.5,0-0.7-0.1C8.4,33.6,7,32,7,30c0-1.1,0.4-2.1,1.2-2.8C8.9,26.4,9.9,26,11,26
				c0.6,0,1,0.4,1,1s-0.4,1-1,1c-0.5,0-1,0.2-1.4,0.6S9,29.5,9,30c0,1,0.7,1.8,1.7,2c0.1,0,0.2,0,0.3,0h6c0.1,0,0.2,0,0.3,0
				c0.4-0.1,0.8-0.3,1.1-0.6C18.8,31,19,30.5,19,30c0-1.1-0.9-2-2-2c-0.6,0-1-0.4-1-1s0.4-1,1-1c2.2,0,4,1.8,4,4
				c0,1.1-0.4,2.1-1.2,2.8c-0.6,0.6-1.4,1-2.2,1.1C17.5,34,17.2,34,17,34z"/>
		</g>
		<g>
			<path fill="#2C2C3D" d="M35.5,34h-6c-0.2,0-0.5,0-0.7-0.1c-1.9-0.3-3.3-2-3.3-3.9c0-1.1,0.4-2.1,1.2-2.8c0.8-0.8,1.8-1.2,2.8-1.2
				c0.6,0,1,0.4,1,1s-0.4,1-1,1c-0.5,0-1,0.2-1.4,0.6s-0.6,0.9-0.6,1.4c0,1,0.7,1.8,1.7,2c0.1,0,0.2,0,0.3,0h6c0.1,0,0.2,0,0.3,0
				c0.4-0.1,0.8-0.3,1.1-0.6c0.4-0.4,0.6-0.9,0.6-1.4c0-1.1-0.9-2-2-2c-0.6,0-1-0.4-1-1s0.4-1,1-1c2.2,0,4,1.8,4,4
				c0,1.1-0.4,2.1-1.2,2.8c-0.6,0.6-1.4,1-2.2,1.1C36,34,35.7,34,35.5,34z"/>
		</g>
		<g>
			<path fill="#2C2C3D" d="M53,34h-6c-0.2,0-0.5,0-0.7-0.1C44.4,33.6,43,32,43,30c0-1.1,0.4-2.1,1.2-2.8c0.8-0.8,1.8-1.2,2.8-1.2
				c0.6,0,1,0.4,1,1s-0.4,1-1,1c-0.5,0-1,0.2-1.4,0.6S45,29.5,45,30c0,1,0.7,1.8,1.7,2c0.1,0,0.2,0,0.3,0h6c0.1,0,0.2,0,0.3,0
				c0.4-0.1,0.8-0.3,1.1-0.6C54.8,31,55,30.5,55,30c0-1.1-0.9-2-2-2c-0.6,0-1-0.4-1-1s0.4-1,1-1c2.2,0,4,1.8,4,4
				c0,1.1-0.4,2.1-1.2,2.8c-0.6,0.6-1.4,1-2.2,1.1C53.5,34,53.2,34,53,34z"/>
		</g>
		<g>
			<path fill="#2C2C3D" d="M17,57h-6c-2.2,0-4-1.8-4-4c0-1.1,0.4-2.1,1.2-2.8c0.6-0.6,1.4-1,2.2-1.1c0.2,0,0.4-0.1,0.6-0.1h6
				c0.2,0,0.5,0,0.7,0.1c1.9,0.3,3.3,2,3.3,3.9c0,1.1-0.4,2.1-1.2,2.8C19.1,56.6,18.1,57,17,57z M11,51c-0.1,0-0.2,0-0.3,0
				c-0.4,0.1-0.8,0.3-1.1,0.6C9.2,52,9,52.5,9,53c0,1.1,0.9,2,2,2h6c0.5,0,1-0.2,1.4-0.6S19,53.5,19,53c0-1-0.7-1.8-1.7-2
				c-0.1,0-0.2,0-0.3,0H11z"/>
		</g>
		<g>
			<path fill="#2C2C3D" d="M35.5,57h-6c-2.2,0-4-1.8-4-4c0-1.1,0.4-2.1,1.2-2.8c0.6-0.6,1.4-1,2.2-1.1c0.2,0,0.4-0.1,0.6-0.1h6
				c0.2,0,0.5,0,0.7,0.1c1.9,0.3,3.3,2,3.3,3.9c0,1.1-0.4,2.1-1.2,2.8C37.6,56.6,36.6,57,35.5,57z M29.5,51c-0.1,0-0.2,0-0.3,0
				c-0.4,0.1-0.8,0.3-1.1,0.6c-0.4,0.4-0.6,0.9-0.6,1.4c0,1.1,0.9,2,2,2h6c0.5,0,1-0.2,1.4-0.6s0.6-0.9,0.6-1.4c0-1-0.7-1.8-1.7-2
				c-0.1,0-0.2,0-0.3,0H29.5z"/>
		</g>
		<g>
			<path fill="#2C2C3D" d="M53,57h-6c-2.2,0-4-1.8-4-4c0-1.1,0.4-2.1,1.2-2.8c0.6-0.6,1.4-1,2.2-1.1c0.2,0,0.4-0.1,0.6-0.1h6
				c0.2,0,0.5,0,0.7,0.1c1.9,0.3,3.3,2,3.3,3.9c0,1.1-0.4,2.1-1.2,2.8C55.1,56.6,54.1,57,53,57z M47,51c-0.1,0-0.2,0-0.3,0
				c-0.4,0.1-0.8,0.3-1.1,0.6C45.2,52,45,52.5,45,53c0,1.1,0.9,2,2,2h6c0.5,0,1-0.2,1.4-0.6S55,53.5,55,53c0-1-0.7-1.8-1.7-2
				c-0.1,0-0.2,0-0.3,0H47z"/>
		</g>
		<g>
			<path fill="#2C2C3D" d="M10.5,51c-0.6,0-1-0.4-1-1V33c0-0.6,0.4-1,1-1s1,0.4,1,1v17C11.5,50.6,11.1,51,10.5,51z"/>
		</g>
		<g>
			<path fill="#2C2C3D" d="M17.5,51c-0.6,0-1-0.4-1-1V33c0-0.6,0.4-1,1-1s1,0.4,1,1v17C18.5,50.6,18.1,51,17.5,51z"/>
		</g>
		<g>
			<path fill="#2C2C3D" d="M29,51c-0.6,0-1-0.4-1-1V33c0-0.6,0.4-1,1-1s1,0.4,1,1v17C30,50.6,29.6,51,29,51z"/>
		</g>
		<g>
			<path fill="#2C2C3D" d="M36,51c-0.6,0-1-0.4-1-1V33c0-0.6,0.4-1,1-1s1,0.4,1,1v17C37,50.6,36.6,51,36,51z"/>
		</g>
		<g>
			<path fill="#2C2C3D" d="M46.5,51c-0.6,0-1-0.4-1-1V33c0-0.6,0.4-1,1-1s1,0.4,1,1v17C47.5,50.6,47.1,51,46.5,51z"/>
		</g>
		<g>
			<path fill="#2C2C3D" d="M53.5,51c-0.6,0-1-0.4-1-1V33c0-0.6,0.4-1,1-1s1,0.4,1,1v17C54.5,50.6,54.1,51,53.5,51z"/>
		</g>
		<g>
			<path fill="#2C2C3D" d="M60,28H5c-0.6,0-1-0.4-1-1v-6c0-0.6,0.4-1,1-1h55c0.6,0,1,0.4,1,1v6C61,27.6,60.6,28,60,28z M6,26h53v-4
				H6V26z"/>
		</g>
		<g>
			<path fill="#2C2C3D" d="M32,17c-2.8,0-5-2.2-5-5s2.2-5,5-5s5,2.2,5,5S34.8,17,32,17z M32,9c-1.7,0-3,1.3-3,3s1.3,3,3,3s3-1.3,3-3
				S33.7,9,32,9z"/>
		</g>
	</g>
</g>
</svg>
