<?xml version="1.0" encoding="utf-8"?>
<!-- Generator: Adobe Illustrator 18.0.0, SVG Export Plug-In . SVG Version: 6.00 Build 0)  -->
<!DOCTYPE svg PUBLIC "-//W3C//DTD SVG 1.1//EN" "http://www.w3.org/Graphics/SVG/1.1/DTD/svg11.dtd">
<svg version="1.1" id="Layer_1" xmlns="http://www.w3.org/2000/svg" xmlns:xlink="http://www.w3.org/1999/xlink" x="0px" y="0px"
	 viewBox="0 0 64 64" enable-background="new 0 0 64 64" xml:space="preserve">
<g>
	<g id="XMLID_3_">
		<g>
			<g>
				<path fill="#73758C" d="M42,58.9c0-2.3,1.8-4.1,4.1-4.1c2.3,0,4.1,1.8,4.1,4.1c0,2.3-1.8,4.1-4.1,4.1C43.8,63,42,61.2,42,58.9z"
					/>
			</g>
			<g>
				<path fill="#73758C" d="M51.1,21.7V25c0,7.2-4,13.4-10,16.7c-2.7,1.5-5.8,2.3-9,2.3c-3.1,0-6-0.8-8.6-2.1l-4.8-3.5
					c-3.4-3.4-5.6-8.2-5.6-13.4v-3.5v-0.3h37.9V21.7z"/>
			</g>
		</g>
		<g>
			<g>
				<path fill="#2C2C3D" d="M57,22.2H8.2c-0.6,0-1-0.4-1-1s0.4-1,1-1H57c0.6,0,1,0.4,1,1S57.6,22.2,57,22.2z"/>
			</g>
			<g>
				<path fill="#2C2C3D" d="M32.2,45c-3.2,0-6.3-0.8-9.1-2.2c0,0-0.1-0.1-0.1-0.1l-4.8-3.5c0,0-0.1-0.1-0.1-0.1
					c-3.8-3.8-5.9-8.8-5.9-14.1v-3.5c0-0.6,0.4-1,1-1s1,0.4,1,1V25c0,4.8,1.9,9.2,5.2,12.6l4.7,3.4c5.1,2.6,11.5,2.5,16.6-0.2
					c5.8-3.2,9.4-9.2,9.4-15.8v-3.4c0-0.6,0.4-1,1-1s1,0.4,1,1V25c0,7.3-4,14-10.5,17.5C38.8,44.2,35.5,45,32.2,45z"/>
			</g>
			<g>
				<path fill="#2C2C3D" d="M38.6,30.8H27.2c-0.6,0-1-0.4-1-1s0.4-1,1-1h11.4c0.6,0,1,0.4,1,1S39.1,30.8,38.6,30.8z"/>
			</g>
			<g>
				<path fill="#2C2C3D" d="M18,64c-0.1,0-0.2,0-0.3,0c-0.5-0.1-0.9-0.7-0.7-1.2l5.5-21.1c0.1-0.5,0.7-0.8,1.2-0.7
					c0.5,0.1,0.9,0.7,0.7,1.2L19,63.3C18.8,63.7,18.4,64,18,64z"/>
			</g>
			<g>
				<path fill="#2C2C3D" d="M46.1,64c-2.8,0-5.1-2.3-5.1-5.1c0-2.8,2.3-5.1,5.1-5.1c2.8,0,5.1,2.3,5.1,5.1
					C51.2,61.7,48.9,64,46.1,64z M46.1,55.8c-1.7,0-3.1,1.4-3.1,3.1c0,1.7,1.4,3.1,3.1,3.1c1.7,0,3.1-1.4,3.1-3.1
					C49.2,57.2,47.8,55.8,46.1,55.8z"/>
			</g>
			<g>
				<path fill="#2C2C3D" d="M44,52H22c-0.6,0-1-0.4-1-1s0.4-1,1-1h22c0.6,0,1,0.4,1,1S44.6,52,44,52z"/>
			</g>
			<g>
				<path fill="#2C2C3D" d="M23,13c-0.6,0-1-0.4-1-1V5c0-0.6,0.4-1,1-1s1,0.4,1,1v7C24,12.6,23.6,13,23,13z"/>
			</g>
			<g>
				<path fill="#2C2C3D" d="M33,13c-0.6,0-1-0.4-1-1V1c0-0.6,0.4-1,1-1s1,0.4,1,1v11C34,12.6,33.6,13,33,13z"/>
			</g>
			<g>
				<path fill="#2C2C3D" d="M43,13c-0.6,0-1-0.4-1-1V5c0-0.6,0.4-1,1-1s1,0.4,1,1v7C44,12.6,43.6,13,43,13z"/>
			</g>
			<g>
				<path fill="#2C2C3D" d="M45.3,55.8c-0.4,0-0.8-0.3-1-0.7L41,42.2c-0.1-0.5,0.2-1.1,0.7-1.2c0.5-0.1,1.1,0.2,1.2,0.7l3.3,12.9
					c0.1,0.5-0.2,1.1-0.7,1.2C45.5,55.8,45.4,55.8,45.3,55.8z"/>
			</g>
		</g>
	</g>
</g>
</svg>
