<?xml version="1.0" encoding="utf-8"?>
<!-- Generator: Adobe Illustrator 18.0.0, SVG Export Plug-In . SVG Version: 6.00 Build 0)  -->
<!DOCTYPE svg PUBLIC "-//W3C//DTD SVG 1.1//EN" "http://www.w3.org/Graphics/SVG/1.1/DTD/svg11.dtd">
<svg version="1.1" id="Layer_1" xmlns="http://www.w3.org/2000/svg" xmlns:xlink="http://www.w3.org/1999/xlink" x="0px" y="0px"
	 viewBox="0 0 64 64" enable-background="new 0 0 64 64" xml:space="preserve">
<g>
	<g id="XMLID_4_">
		<g>
			<g>
				<path fill="#FFF5EB" d="M49.7,9.1c0,3.5-2.6,6.5-6,7c-0.2,0.1-0.5,0.1-0.8,0.1H21.1v5.5c0,1.8-1.5,3.3-3.3,3.3s-3.3-1.5-3.3-3.3
					v-5.5h-4.2c-0.1,0-0.2,0-0.3,0c-1.7-0.2-3-1.6-3-3.3c0-1.4,0.8-2.5,2-3c0.2-5,4.3-9,9.3-9c4.2,0,7.7,2.7,8.9,6.5
					C28,6.1,29.4,5.2,31,5.2c2.4,0,4.4,2,4.4,4.4h0c0-0.2,0-0.4,0-0.6c0-3.9,3.2-7.1,7.1-7.1S49.7,5.1,49.7,9.1z"/>
			</g>
			<g>
				<path fill="#F9C553" d="M43.7,56v3c0,2.2-1.8,4-4,4H13.9c-2.2,0-4-1.8-4-4v-3h33H43.7z"/>
			</g>
			<g>
				<path fill="#F9C553" d="M43.7,51v5h-0.8h-33V17l0-0.8c0.1,0,0.2,0,0.3,0h4.2v5.5c0,1.8,1.5,3.3,3.3,3.3s3.3-1.5,3.3-3.3v-5.5
					h21.8l0.8,0.8v7V51z"/>
			</g>
		</g>
		<g>
			<g>
				<path fill="#2C2C3D" d="M39.7,64H13.9c-2.8,0-5-2.2-5-5V17c0-0.6,0.4-1,1-1s1,0.4,1,1v42c0,1.7,1.3,3,3,3h25.8c1.7,0,3-1.3,3-3
					V17c0-0.6,0.4-1,1-1s1,0.4,1,1v42C44.7,61.8,42.5,64,39.7,64z"/>
			</g>
			<g>
				<path fill="#2C2C3D" d="M51.9,52h-8c-0.6,0-1-0.4-1-1s0.4-1,1-1h8c1.7,0,3-1.3,3-3V28c0-1.7-1.3-3-3-3h-8c-0.6,0-1-0.4-1-1
					s0.4-1,1-1h8c2.8,0,5,2.2,5,5v19C56.9,49.8,54.7,52,51.9,52z"/>
			</g>
			<g>
				<path fill="#2C2C3D" d="M42.9,57h-33c-0.6,0-1-0.4-1-1s0.4-1,1-1h33c0.6,0,1,0.4,1,1S43.5,57,42.9,57z"/>
			</g>
			<g>
				<path fill="#2C2C3D" d="M17.9,47c-0.6,0-1-0.4-1-1V32c0-0.6,0.4-1,1-1s1,0.4,1,1v14C18.9,46.6,18.5,47,17.9,47z"/>
			</g>
			<g>
				<path fill="#2C2C3D" d="M26.9,47c-0.6,0-1-0.4-1-1V32c0-0.6,0.4-1,1-1s1,0.4,1,1v14C27.9,46.6,27.5,47,26.9,47z"/>
			</g>
			<g>
				<path fill="#2C2C3D" d="M35.9,47c-0.6,0-1-0.4-1-1V32c0-0.6,0.4-1,1-1s1,0.4,1,1v14C36.9,46.6,36.5,47,35.9,47z"/>
			</g>
			<g>
				<path fill="#2C2C3D" d="M17.8,26c-2.4,0-4.3-1.9-4.3-4.3v-4.5h-3.2c-0.1,0-0.3,0-0.4,0C7.7,17,6,15.1,6,12.9
					c0-1.5,0.8-2.9,2.1-3.7C8.5,3.9,13-0.2,18.4-0.2c3.9,0,7.5,2.2,9.2,5.6c0.9-0.8,2.1-1.2,3.4-1.2c1.6,0,3,0.7,4,1.8
					c1.2-3,4.1-5.1,7.5-5.1c4.5,0,8.1,3.7,8.1,8.1c0,4-2.9,7.4-6.8,8c-0.3,0.1-0.6,0.1-0.9,0.1H22.1v4.5C22.1,24.1,20.2,26,17.8,26z
					 M18.4,1.8c-4.5,0-8.2,3.5-8.3,8.1c0,0.4-0.3,0.7-0.6,0.9C8.6,11.2,8,12,8,12.9c0,1.2,0.9,2.2,2.1,2.3c0.1,0,0.2,0,0.2,0h4.2
					c0.6,0,1,0.4,1,1v5.5c0,1.3,1,2.3,2.3,2.3s2.3-1,2.3-2.3v-5.5c0-0.6,0.4-1,1-1h21.8c0.2,0,0.3,0,0.5-0.1c3-0.5,5.2-3.1,5.2-6.1
					c0-3.4-2.8-6.1-6.1-6.1s-6.1,2.8-6.1,6.1c0,0.1,0,0.3,0,0.4c0,0.3-0.1,0.6-0.2,0.8s-0.5,0.3-0.7,0.3c-0.6,0-1-0.4-1-1
					c0-1.9-1.5-3.4-3.4-3.4c-1.2,0-2.3,0.6-2.9,1.6c-0.2,0.3-0.6,0.5-1,0.5c-0.4,0-0.7-0.3-0.8-0.7C25.2,4.2,22,1.8,18.4,1.8z"/>
			</g>
		</g>
	</g>
</g>
</svg>
