<?xml version="1.0" encoding="utf-8"?>
<!-- Generator: Adobe Illustrator 18.0.0, SVG Export Plug-In . SVG Version: 6.00 Build 0)  -->
<!DOCTYPE svg PUBLIC "-//W3C//DTD SVG 1.1//EN" "http://www.w3.org/Graphics/SVG/1.1/DTD/svg11.dtd">
<svg version="1.1" id="Layer_1" xmlns="http://www.w3.org/2000/svg" xmlns:xlink="http://www.w3.org/1999/xlink" x="0px" y="0px"
	 viewBox="0 0 64 64" enable-background="new 0 0 64 64" xml:space="preserve">
<g id="XMLID_8_">
	<g>
		<g>
			<path fill="#68B2EA" d="M62.9,45.7c0.1,0.6,0.1,1.3,0.1,1.9C63,54.4,57.5,60,50.6,60s-12.4-5.6-12.4-12.4c0-0.7,0.1-1.5,0.2-2.2
				c1-5.8,6.1-10.3,12.2-10.3C56.8,35.1,61.9,39.7,62.9,45.7z"/>
		</g>
		<g>
			<path fill="#55607C" d="M53.4,13.9c3.2,1.4,5.7,4.5,6.5,9.5l3,22.3l0,0c-0.9-6-6-10.5-12.3-10.5c-6.1,0-11.2,4.4-12.2,10.3
				l-0.2,0l0-0.5c0-0.2,0-0.3,0-0.5c0-0.4,0-0.7-0.1-1.1l-0.9-19.9c0-0.4,0-0.7,0.1-1.1c0.7-5.3,6-9.4,11.3-9.4
				C50.3,12.9,51.9,13.2,53.4,13.9z"/>
		</g>
		<g>
			<path fill="#38445E" d="M53.1,11.1l0.4,2.8c-1.5-0.7-3.2-1-4.9-1c-5.3,0-10.6,4.1-11.3,9.4h-0.1c0-0.9-0.2-1.7-0.6-2.5l0.4-0.3
				v-8.4C37,7.2,41,4,45,4C48.8,4,52.3,6.2,53.1,11.1z"/>
		</g>
		<g>
			<path fill="#38445E" d="M38.1,43.2l0.1,1.6c-0.3,3.2-2.9,5.8-6.2,5.8c-3.3,0-5.9-2.5-6.2-5.8l0.1-1.7C26.4,40.2,29,38,32,38
				C35.1,38,37.6,40.3,38.1,43.2z"/>
		</g>
		<g>
			<path fill="#55607C" d="M37.2,22.3L37.2,22.3c0,0.3,0,0.7,0,1.1l0.9,19.9c-0.5-3-3-5.2-6.1-5.2c-3,0-5.6,2.2-6.1,5.2l0.9-19.8
				c0-0.4,0-0.7-0.1-1.1h0.1c0-1.1,0.3-2.1,0.9-2.9c0.9-1.4,2.5-2.3,4.3-2.3c2,0,3.7,1.1,4.5,2.7C36.9,20.6,37.2,21.4,37.2,22.3z"/>
		</g>
		<g>
			<path fill="#38445E" d="M27,19.4h0.7c-0.6,0.8-0.9,1.8-0.9,2.9h-0.1c-0.7-5.3-6-9.4-11.3-9.4c-1.4,0-2.8,0.2-4.1,0.7
				c-0.3,0.1-0.5,0.2-0.8,0.3l0.4-2.8C11.7,6.2,15.2,4,19,4c4,0,8,3.2,8,7.1V19.4z"/>
		</g>
		<g>
			<path fill="#55607C" d="M10.5,13.9c0.3-0.1,0.5-0.2,0.8-0.3c1.3-0.5,2.7-0.7,4.1-0.7c5.3,0,10.6,4.1,11.3,9.4
				c0,0.3,0.1,0.7,0.1,1.1l-0.9,19.8c-0.1,0.4-0.1,0.7-0.1,1.1c0,0.2,0,0.4,0,0.5l0,0.5l-0.2,0c-1-5.8-6.1-10.3-12.2-10.3
				c-6.2,0-11.3,4.6-12.2,10.5l0,0l3-22.3C4.8,18.4,7.3,15.4,10.5,13.9z"/>
		</g>
		<g>
			<path fill="#68B2EA" d="M25.6,45.4c0.1,0.7,0.2,1.4,0.2,2.2c0,6.9-5.5,12.4-12.4,12.4S1,54.4,1,47.6c0-0.6,0.1-1.3,0.1-1.9
				c0.9-6,6-10.5,12.2-10.5C19.5,35.1,24.6,39.5,25.6,45.4z"/>
		</g>
	</g>
	<g>
		<path fill="#2C2C3D" d="M63.9,46.3L63.9,46.3l-3-23c-0.7-4.7-3-8.1-6.5-9.9L54,11c-0.9-5.9-5.2-8-9-8c-4.8,0-9,3.8-9,8.1v6.5
			c-1.1-0.9-2.5-1.5-4-1.5c-1.5,0-2.9,0.6-4,1.5v-6.5C28,6.8,23.8,3,19,3c-3.8,0-8.1,2.1-9,8l-0.3,2.3c-3.5,1.8-5.8,5.3-6.5,9.9
			L0,46.3l0.1,0c0,0.4-0.1,0.9-0.1,1.3C0,55,6,61,13.4,61c6.8,0,12.5-5.2,13.3-11.8c1.3,1.5,3.2,2.4,5.3,2.4c2.1,0,4-0.9,5.3-2.4
			C38.1,55.8,43.8,61,50.6,61C58,61,64,55,64,47.6C64,47.1,64,46.7,63.9,46.3z M58.9,23.5L61,39c-2.5-3-6.2-4.9-10.4-4.9
			c-4.9,0-9.3,2.7-11.6,6.7l-0.8-17.5c0-0.3,0-0.6,0.1-0.9c0.6-4.6,5.3-8.5,10.3-8.5c1.6,0,3.1,0.3,4.5,0.9
			C56.3,16.3,58.3,19.3,58.9,23.5z M45,5c3.8,0,6.5,2.3,7,6.2l0.2,1.2c-1.2-0.3-2.4-0.5-3.7-0.5c-4.2,0-8.3,2.4-10.5,5.7v-6.5
			C38,7.9,41.3,5,45,5z M32,18.1c1.5,0,2.9,0.8,3.7,2.2c0.3,0.6,0.5,1.3,0.5,2v0l0.1,0c0,0.3-0.1,0.7-0.1,1.1L36.9,39
			c-1.3-1.2-3-1.9-4.9-1.9c-1.9,0-3.6,0.7-4.9,2l0.7-15.6c0-0.4,0-0.7-0.1-1.1l0.1,0c0-0.8,0.2-1.6,0.7-2.3
			C29.3,18.8,30.6,18.1,32,18.1z M19,5c3.7,0,7,2.9,7,6.1v6.5c-2.3-3.3-6.3-5.7-10.5-5.7c-1.3,0-2.5,0.2-3.7,0.5l0.2-1.2
			C12.5,7.3,15.2,5,19,5z M5.1,23.5c0.6-4.2,2.6-7.2,5.9-8.7c0.2-0.1,0.5-0.2,0.7-0.3c1.2-0.4,2.5-0.6,3.8-0.6c5,0,9.7,3.9,10.3,8.5
			c0,0.3,0.1,0.6,0.1,0.9L25,40.8c-2.3-4.1-6.7-6.7-11.6-6.7C9.2,34.1,5.5,36,3,39L5.1,23.5z M13.4,59C7.1,59,2,53.9,2,47.6
			c0-0.6,0-1.2,0.1-1.8c0.9-5.6,5.6-9.7,11.3-9.7c5.5,0,10.3,4,11.2,9.5c0.1,0.6,0.2,1.3,0.2,2C24.8,53.9,19.7,59,13.4,59z M32,49.6
			c-2.7,0-4.9-2.1-5.2-4.8l0.1-1.5c0.5-2.5,2.6-4.3,5.1-4.3c2.5,0,4.6,1.8,5.1,4.4l0.1,1.4C36.9,47.5,34.7,49.6,32,49.6z M50.6,59
			c-6.3,0-11.4-5.1-11.4-11.4c0-0.7,0.1-1.4,0.2-2c1-5.5,5.7-9.4,11.2-9.4c5.7,0,10.4,4.1,11.3,9.7C62,46.4,62,47,62,47.6
			C62,53.9,56.9,59,50.6,59z"/>
		<g>
			<path fill="#FFFFFF" d="M6.2,48.6c-0.6,0-1-0.4-1-1c0-4.6,3.6-8.3,8.2-8.3c0.6,0,1,0.4,1,1s-0.4,1-1,1c-3.5,0-6.2,2.8-6.2,6.3
				C7.2,48.1,6.8,48.6,6.2,48.6z"/>
		</g>
		<g>
			<path fill="#FFFFFF" d="M43.4,48.6c-0.6,0-1-0.4-1-1c0-4.6,3.6-8.3,8.2-8.3c0.6,0,1,0.4,1,1s-0.4,1-1,1c-3.5,0-6.2,2.8-6.2,6.3
				C44.4,48.1,43.9,48.6,43.4,48.6z"/>
		</g>
	</g>
</g>
</svg>
