<?xml version="1.0" encoding="utf-8"?>
<!-- Generator: Adobe Illustrator 18.0.0, SVG Export Plug-In . SVG Version: 6.00 Build 0)  -->
<!DOCTYPE svg PUBLIC "-//W3C//DTD SVG 1.1//EN" "http://www.w3.org/Graphics/SVG/1.1/DTD/svg11.dtd">
<svg version="1.1" id="Layer_1" xmlns="http://www.w3.org/2000/svg" xmlns:xlink="http://www.w3.org/1999/xlink" x="0px" y="0px"
	 viewBox="0 0 64 64" enable-background="new 0 0 64 64" xml:space="preserve">
<g>
	<g id="XMLID_6_">
		<g>
			<g>
				<path fill="#51B8E0" d="M43,31.8v28.3c0,1.6-1.3,2.9-2.8,2.9H23.8c-1.6,0-2.8-1.3-2.8-2.9V31.8c0-2.3,0.9-4.9,2.5-6.8
					c2.2-2.6,3.5-5.9,3.5-9.4V8.2h10h0l0,6.5c0,3.8,1.4,7.3,3.8,10.2C42.2,26.7,43,29.4,43,31.8z"/>
			</g>
			<g>
				<polygon fill="#F9D05F" points="37.1,1 37,8.2 37,8.2 27,8.2 27,1 				"/>
			</g>
		</g>
		<g>
			<g>
				<path fill="#2C2C3D" d="M37,9.2H27c-0.6,0-1-0.4-1-1s0.4-1,1-1h10c0.6,0,1,0.4,1,1S37.6,9.2,37,9.2z"/>
			</g>
			<g>
				<path fill="#2C2C3D" d="M40.2,64H23.8c-2.1,0-3.8-1.8-3.8-3.9V31.8c0-2.6,1-5.4,2.7-7.4c2.2-2.6,3.3-5.6,3.3-8.7V1
					c0-0.6,0.4-1,1-1h10.1c0.3,0,0.5,0.1,0.7,0.3s0.3,0.4,0.3,0.7l0,13.7c0,3.4,1.2,6.7,3.5,9.6c1.5,1.9,2.4,4.7,2.4,7.5v28.3
					C44,62.2,42.3,64,40.2,64z M28,2v13.7c0,3.5-1.3,7.1-3.8,10c-1.4,1.7-2.2,4-2.2,6.2v28.3c0,1.1,0.8,1.9,1.8,1.9h16.3
					c1,0,1.8-0.9,1.8-1.9V31.8c0-2.3-0.8-4.7-2-6.3c-2.6-3.3-4-7-4-10.8l0-12.7H28z"/>
			</g>
		</g>
	</g>
</g>
</svg>
