<?xml version="1.0" encoding="utf-8"?>
<!-- Generator: Adobe Illustrator 18.0.0, SVG Export Plug-In . SVG Version: 6.00 Build 0)  -->
<!DOCTYPE svg PUBLIC "-//W3C//DTD SVG 1.1//EN" "http://www.w3.org/Graphics/SVG/1.1/DTD/svg11.dtd">
<svg version="1.1" id="Layer_1" xmlns="http://www.w3.org/2000/svg" xmlns:xlink="http://www.w3.org/1999/xlink" x="0px" y="0px"
	 viewBox="0 0 64 64" enable-background="new 0 0 64 64" xml:space="preserve">
<g id="XMLID_11_">
	<g>
		<g>
			<path fill="#EADDC7" d="M63,20.6c0,4.4-2.3,8.5-6.2,11.8v25.7c0,2.7-2.2,4.9-4.9,4.9H12.1c-2.7,0-4.9-2.2-4.9-4.9V32.4
				C3.3,29.1,1,25,1,20.6C1,9.8,14.9,1,32,1S63,9.8,63,20.6z"/>
		</g>
	</g>
	<g>
		<g>
			<path fill="#2C2C3D" d="M51.9,64H12.1c-3.2,0-5.9-2.6-5.9-5.9V32.9C2.1,29.3,0,25.1,0,20.6C0,9.3,14.4,0,32,0s32,9.3,32,20.6
				c0,4.5-2.1,8.7-6.2,12.2v25.2C57.8,61.4,55.2,64,51.9,64z M32,2C15.5,2,2,10.4,2,20.6c0,4,2,7.8,5.8,11c0.2,0.2,0.4,0.5,0.4,0.8
				v25.7c0,2.1,1.7,3.9,3.9,3.9h39.8c2.1,0,3.9-1.7,3.9-3.9V32.4c0-0.3,0.1-0.6,0.4-0.8c3.8-3.2,5.8-7,5.8-11C62,10.4,48.5,2,32,2z"
				/>
		</g>
	</g>
</g>
</svg>
