<?xml version="1.0" encoding="utf-8"?>
<!-- Generator: Adobe Illustrator 18.0.0, SVG Export Plug-In . SVG Version: 6.00 Build 0)  -->
<!DOCTYPE svg PUBLIC "-//W3C//DTD SVG 1.1//EN" "http://www.w3.org/Graphics/SVG/1.1/DTD/svg11.dtd">
<svg version="1.1" id="Layer_1" xmlns="http://www.w3.org/2000/svg" xmlns:xlink="http://www.w3.org/1999/xlink" x="0px" y="0px"
	 viewBox="0 0 64 64" enable-background="new 0 0 64 64" xml:space="preserve">
<g>
	<g id="XMLID_9_">
		<g>
			<g>
				<path fill="#2B3E42" d="M26,56h12c0,3.9-2.9,7-6.1,7C28.6,63,26,59.9,26,56z"/>
			</g>
			<g>
				<path fill="#FFD41D" d="M49,31.2c0,6.2-3.2,11.4-8,14.5V50H23v-4.3c-4.9-3-8-8.3-8-14.5C15,21.6,22.6,14,32,14S49,21.6,49,31.2z
					"/>
			</g>
			<g>
				<polygon fill="#47BA5F" points="41,50 41,56 38,56 26,56 23,56 23,50 				"/>
			</g>
		</g>
		<g>
			<path fill="#2D2D2D" d="M32,13c-9.9,0-18,8.2-18,18.2c0,6.2,2.9,11.6,8,15V50v1v6h3c0.4,3.9,3.3,7,6.8,7c3.6,0,6.6-3.1,7.1-7h3
				v-6v-1v-3.8c5.1-3.4,8-8.9,8-15C50,21.2,41.9,13,32,13z M31.9,62c-2.4,0-4.4-2.2-4.8-5h9.8C36.5,59.8,34.3,62,31.9,62z M40,55H24
				v-4H40V55z M40.4,44.9L40,45.1V49H24v-3.9l-0.5-0.3c-4.8-3-7.6-8-7.6-13.6C16,22.3,23.2,15,32,15s16,7.3,16,16.2
				C48,36.9,45.2,41.8,40.4,44.9z"/>
			<path fill="#2D2D2D" d="M32,9c0.6,0,1-0.4,1-1V0c0-0.6-0.4-1-1-1s-1,0.4-1,1v8C31,8.6,31.4,9,32,9z"/>
			<path fill="#2D2D2D" d="M63,31h-9c-0.6,0-1,0.4-1,1s0.4,1,1,1h9c0.6,0,1-0.4,1-1S63.6,31,63,31z"/>
			<path fill="#2D2D2D" d="M60.9,15.5c-0.3-0.5-0.9-0.6-1.4-0.4L51,20c-0.5,0.3-0.6,0.9-0.4,1.4c0.2,0.3,0.5,0.5,0.9,0.5
				c0.2,0,0.3,0,0.5-0.1l8.5-4.9C61,16.6,61.1,16,60.9,15.5z"/>
			<path fill="#2D2D2D" d="M42.3,12.7c0.2,0.1,0.3,0.1,0.5,0.1c0.4,0,0.7-0.2,0.9-0.5l4.5-8.4c0.3-0.5,0.1-1.1-0.4-1.4
				c-0.5-0.3-1.1-0.1-1.4,0.4l-4.5,8.4C41.7,11.9,41.8,12.5,42.3,12.7z"/>
			<path fill="#2D2D2D" d="M10,31H1c-0.6,0-1,0.4-1,1s0.4,1,1,1h9c0.6,0,1-0.4,1-1S10.6,31,10,31z"/>
			<path fill="#2D2D2D" d="M13,20l-8.5-4.9C4,14.9,3.4,15,3.1,15.5C2.9,16,3,16.6,3.5,16.9l8.5,4.9c0.2,0.1,0.3,0.1,0.5,0.1
				c0.3,0,0.7-0.2,0.9-0.5C13.6,20.9,13.5,20.3,13,20z"/>
			<path fill="#2D2D2D" d="M20.3,12.3c0.2,0.3,0.5,0.5,0.9,0.5c0.2,0,0.3,0,0.5-0.1c0.5-0.3,0.7-0.9,0.4-1.4L17.6,3
				c-0.3-0.5-0.9-0.7-1.4-0.4c-0.5,0.3-0.7,0.9-0.4,1.4L20.3,12.3z"/>
		</g>
	</g>
	<path fill="#2D2D2D" d="M38,38c0-2.4-2.1-4.1-6.1-5c-3.4-0.8-3.9-2-3.9-3c0-1.7,1.8-3,4-3c1.9,0,3.5,1,3.9,2.4
		c0.1,0.5,0.7,0.8,1.2,0.7c0.5-0.1,0.8-0.7,0.7-1.2c-0.5-2-2.5-3.5-4.8-3.8V22c0-0.6-0.4-1-1-1s-1,0.4-1,1v3.1c-2.8,0.4-5,2.5-5,4.9
		c0,3.8,4.1,4.7,5.4,5c3,0.7,4.6,1.7,4.6,3c0,1.7-1.8,3-4,3c-1.9,0-3.5-1-3.9-2.4c-0.1-0.5-0.7-0.8-1.2-0.7
		c-0.5,0.1-0.8,0.7-0.7,1.2c0.5,2,2.5,3.5,4.8,3.8V50c0,0.6,0.4,1,1,1s1-0.4,1-1v-7.1C35.8,42.5,38,40.5,38,38z"/>
</g>
</svg>
