<?xml version="1.0" encoding="utf-8"?>
<!-- Generator: Adobe Illustrator 18.0.0, SVG Export Plug-In . SVG Version: 6.00 Build 0)  -->
<!DOCTYPE svg PUBLIC "-//W3C//DTD SVG 1.1//EN" "http://www.w3.org/Graphics/SVG/1.1/DTD/svg11.dtd">
<svg version="1.1" id="Layer_1" xmlns="http://www.w3.org/2000/svg" xmlns:xlink="http://www.w3.org/1999/xlink" x="0px" y="0px"
	 viewBox="0 0 64 64" enable-background="new 0 0 64 64" xml:space="preserve">
<g>
	<g id="XMLID_25_">
		<g>
			<g>
				<polygon fill="#F9BE58" points="62,9.3 58.3,12.9 58.3,12.9 54.7,9.3 56.3,7.7 				"/>
			</g>
			<g>
				<polygon fill="#F9BE58" points="58.3,12.9 55,16.3 51.3,12.7 52.7,11.3 58.3,12.9 				"/>
			</g>
			<g>
				<polygon fill="#F9BE58" points="58.3,12.9 52.7,11.3 51.1,5.7 54.7,9.3 				"/>
			</g>
			<g>
				<polygon fill="#F9BE58" points="54.7,2 56.3,7.7 54.7,9.3 51.1,5.7 				"/>
			</g>
			<g>
				<polygon fill="#F9BE58" points="55,16.3 51.3,20 45.6,18.4 44,12.7 47.7,9 49.3,14.7 				"/>
			</g>
			<g>
				<polygon fill="#F9BE58" points="55,16.3 49.3,14.7 47.7,9 51.3,12.7 				"/>
			</g>
			<g>
				<polygon fill="#F9BE58" points="51.1,5.7 52.7,11.3 51.3,12.7 47.7,9 				"/>
			</g>
			<g>
				<path fill="#F94646" d="M42,22c4.3,4.3,7,10.4,7,17c0,13.3-10.8,24-24,24C11.7,63,1,52.3,1,39c0-13.2,10.7-24,24-24
					C31.6,15,37.6,17.7,42,22z M36.3,27.7C33.4,24.8,29.4,23,25,23c-8.8,0-16,7.2-16,16c0,8.8,7.2,16,16,16c8.8,0,16-7.2,16-16
					C41,34.6,39.2,30.6,36.3,27.7z"/>
			</g>
			<g>
				<path fill="#FCF3CD" d="M30.6,33.3C29.2,31.9,27.2,31,25,31c-4.4,0-8,3.6-8,8c0,4.4,3.6,8,8,8c4.4,0,8-3.6,8-8
					C33,36.8,32.1,34.8,30.6,33.3z M36.3,27.7C39.2,30.6,41,34.6,41,39c0,8.8-7.2,16-16,16c-8.8,0-16-7.2-16-16c0-8.8,7.2-16,16-16
					C29.4,23,33.4,24.8,36.3,27.7z"/>
			</g>
			<g>
				<path fill="#F94646" d="M30.6,33.3c1.4,1.5,2.4,3.5,2.4,5.7c0,4.4-3.6,8-8,8c-4.4,0-8-3.6-8-8c0-4.4,3.6-8,8-8
					C27.2,31,29.2,31.9,30.6,33.3z"/>
			</g>
		</g>
		<g>
			<g>
				<path fill="#2C2C3D" d="M25,64C11.2,64,0,52.8,0,39s11.2-25,25-25c6.7,0,12.9,2.6,17.7,7.3c4.7,4.7,7.3,11,7.3,17.7
					C50,52.8,38.8,64,25,64z M25,16C12.3,16,2,26.3,2,39s10.3,23,23,23s23-10.3,23-23c0-6.1-2.4-11.9-6.7-16.3
					C36.9,18.4,31.1,16,25,16z"/>
			</g>
			<g>
				<path fill="#2C2C3D" d="M25,56c-9.4,0-17-7.6-17-17c0-9.4,7.6-17,17-17c4.5,0,8.8,1.8,12,5c3.2,3.2,5,7.5,5,12
					C42,48.4,34.4,56,25,56z M25,24c-8.3,0-15,6.7-15,15c0,8.3,6.7,15,15,15c8.3,0,15-6.7,15-15c0-4-1.6-7.8-4.4-10.6
					C32.8,25.6,29,24,25,24z"/>
			</g>
			<g>
				<path fill="#2C2C3D" d="M25,48c-5,0-9-4-9-9s4-9,9-9c2.4,0,4.7,0.9,6.4,2.6s2.6,4,2.6,6.4C34,44,30,48,25,48z M25,32
					c-3.9,0-7,3.1-7,7s3.1,7,7,7s7-3.1,7-7c0-1.9-0.7-3.6-2.1-4.9C28.6,32.7,26.9,32,25,32z"/>
			</g>
			<g>
				
					<rect x="42.7" y="17.9" transform="matrix(0.7071 0.7071 -0.7071 0.7071 27.1662 -24.9249)" fill="#2C2C3D" width="2" height="4.8"/>
			</g>
			<g>
				
					<rect x="38.1" y="20.9" transform="matrix(0.7071 0.7071 -0.7071 0.7071 29.0404 -20.3999)" fill="#2C2C3D" width="2" height="8"/>
			</g>
			<g>
				
					<rect x="32.5" y="26.5" transform="matrix(0.7071 0.7071 -0.7071 0.7071 31.3846 -14.7398)" fill="#2C2C3D" width="2" height="8"/>
			</g>
			<g>
				
					<rect x="26.3" y="32" transform="matrix(0.7071 0.7071 -0.7071 0.7071 33.9363 -8.5799)" fill="#2C2C3D" width="2" height="9.4"/>
			</g>
			<g>
				<path fill="#2C2C3D" d="M51.3,21c-0.1,0-0.2,0-0.3,0l-5.6-1.6c-0.3-0.1-0.6-0.4-0.7-0.7L43,13c-0.1-0.3,0-0.7,0.3-1L54,1.3
					C54.3,1,54.6,0.9,55,1c0.3,0.1,0.6,0.4,0.7,0.7l1.5,5.1l5.1,1.5C62.6,8.4,62.9,8.7,63,9c0.1,0.3,0,0.7-0.3,1L52,20.7
					C51.8,20.9,51.5,21,51.3,21z M46.4,17.6l4.6,1.3l9.1-9.1l-4-1.2c-0.3-0.1-0.6-0.4-0.7-0.7l-1.2-4L45.1,13L46.4,17.6z"/>
			</g>
			<g>
				<path fill="#2C2C3D" d="M54.7,17.3L49,15.7c-0.3-0.1-0.6-0.4-0.7-0.7l-1.6-5.7l1.9-0.6l1.5,5.1l5.1,1.5L54.7,17.3z"/>
			</g>
			<g>
				<path fill="#2C2C3D" d="M58.1,13.9l-5.6-1.6c-0.3-0.1-0.6-0.4-0.7-0.7l-1.6-5.6L52,5.4l1.5,5.1l5.1,1.5L58.1,13.9z"/>
			</g>
		</g>
	</g>
</g>
</svg>
