<?xml version="1.0" encoding="utf-8"?>
<!-- Generator: Adobe Illustrator 18.0.0, SVG Export Plug-In . SVG Version: 6.00 Build 0)  -->
<!DOCTYPE svg PUBLIC "-//W3C//DTD SVG 1.1//EN" "http://www.w3.org/Graphics/SVG/1.1/DTD/svg11.dtd">
<svg version="1.1" id="Layer_1" xmlns="http://www.w3.org/2000/svg" xmlns:xlink="http://www.w3.org/1999/xlink" x="0px" y="0px"
	 viewBox="0 0 64 64" enable-background="new 0 0 64 64" xml:space="preserve">
<g id="XMLID_5_">
	<g>
		<g>
			<path fill="#A7DD73" d="M63,33.8c0,0.2,0,0.3,0,0.5c-0.3,2.4-2.7,3.8-5.1,3.5c-0.5-0.1-1-0.2-1.5-0.4l-3.7-1.8
				c-1.7-0.8-3.7-0.9-5.5-0.1l-4,1.7c-0.8,0.3-1.7,0.5-2.6,0.5c-1,0-2-0.2-2.9-0.6l-3-1.4c-1.8-0.8-3.9-0.8-5.7,0L26.2,37
				c-0.9,0.4-1.9,0.6-2.9,0.6c-1,0-1.9-0.2-2.9-0.6l-2.9-1.4c-1.8-0.8-3.8-0.8-5.6-0.1l-4.4,2c-0.5,0.2-1,0.3-1.5,0.4
				c-2.4,0.3-4.8-1.2-5.1-3.6c0-0.2,0-0.3,0-0.5c0-1.2,0.5-2.4,1.4-3.2c0.9-0.8,2.1-1.3,3.4-1.3h52.4C60.9,29.3,63,31.3,63,33.8z"/>
		</g>
		<g>
			<path fill="#E15D23" d="M57.8,38.2c1.8,0.4,3.2,2,3.2,3.9c0,1.1-0.4,2.1-1.2,2.8S58.1,46,57,46h-2.9H9.4H7c-2.2,0-4-1.8-4-4
				c0-1.1,0.4-2.1,1.2-2.8c0.5-0.5,1.2-0.9,2-1.1c0.3,0,0.5-0.1,0.8-0.1h16.4h17.2H57C57.3,38.1,57.6,38.1,57.8,38.2z"/>
		</g>
		<g>
			<path fill="#7C4E3E" d="M57.9,37.8l0,0.3c-0.3,0-0.5-0.1-0.8-0.1H40.5v-0.4c0.9,0,1.8-0.2,2.6-0.5l4-1.7c1.8-0.7,3.8-0.7,5.5,0.1
				l3.7,1.8C56.9,37.6,57.4,37.8,57.9,37.8z"/>
		</g>
		<g>
			<path fill="#F9B84E" d="M56.6,48.4V51c0,2.8-2.2,5-5,5H12c-2.8,0-5-2.2-5-5v-2.6C7,47.1,8.1,46,9.4,46h44.8
				C55.5,46,56.6,47.1,56.6,48.4z"/>
		</g>
		<g>
			<path fill="#F9B84E" d="M57.1,25.1c0,1.1-0.5,2.2-1.2,2.9c-0.8,0.8-1.8,1.2-3,1.2H11.8c-2.3,0-4.2-1.9-4.2-4.2
				c0-5.6,2.2-10.6,5.9-14.2C17.2,7.2,22.2,5,27.7,5H37C48.1,5,57.1,14,57.1,25.1z M45,12.3c0-0.6-0.5-1-1-1s-1,0.4-1,1s0.5,1,1,1
				S45,12.8,45,12.3z M41,17.3c0-0.6-0.5-1-1-1s-1,0.4-1,1c0,0.5,0.5,1,1,1S41,17.8,41,17.3z M37,12.3c0-0.6-0.5-1-1-1s-1,0.4-1,1
				s0.5,1,1,1S37,12.8,37,12.3z M33,17.3c0-0.6-0.5-1-1-1s-1,0.4-1,1c0,0.5,0.5,1,1,1S33,17.8,33,17.3z M29,12.3c0-0.6-0.5-1-1-1
				s-1,0.4-1,1s0.5,1,1,1S29,12.8,29,12.3z M25,17.3c0-0.6-0.5-1-1-1s-1,0.4-1,1c0,0.5,0.5,1,1,1S25,17.8,25,17.3z M21,12.3
				c0-0.6-0.5-1-1-1s-1,0.4-1,1s0.5,1,1,1S21,12.8,21,12.3z"/>
		</g>
		<g>
			<circle fill="#FFFFD2" cx="44" cy="12.3" r="1"/>
		</g>
		<g>
			<path fill="#7C4E3E" d="M40.5,37.7v0.4H23.3v-0.5c1,0,2-0.2,2.9-0.6l2.8-1.3c1.8-0.8,3.9-0.8,5.7,0l3,1.4
				C38.5,37.4,39.5,37.7,40.5,37.7z"/>
		</g>
		<g>
			<circle fill="#FFFFD2" cx="40" cy="17.3" r="1"/>
		</g>
		<g>
			<circle fill="#FFFFD2" cx="36" cy="12.3" r="1"/>
		</g>
		<g>
			<circle fill="#FFFFD2" cx="32" cy="17.3" r="1"/>
		</g>
		<g>
			<circle fill="#FFFFD2" cx="28" cy="12.3" r="1"/>
		</g>
		<g>
			<circle fill="#FFFFD2" cx="24" cy="17.3" r="1"/>
		</g>
		<g>
			<path fill="#7C4E3E" d="M23.3,37.6v0.5H7c-0.3,0-0.5,0-0.8,0.1l0-0.3c0.5,0,1-0.2,1.5-0.4l4.4-2c1.8-0.8,3.8-0.8,5.6,0.1l2.9,1.4
				C21.4,37.4,22.4,37.6,23.3,37.6z"/>
		</g>
		<g>
			<circle fill="#FFFFD2" cx="20" cy="12.3" r="1"/>
		</g>
	</g>
	<g>
		<g>
			<path fill="#2C2C3D" d="M53,30.3H11.8c-2.9,0-5.2-2.3-5.2-5.2c0-5.6,2.2-10.9,6.2-14.9c4-4,9.3-6.2,14.9-6.2H37
				c11.6,0,21.1,9.5,21.1,21.1c0,1.4-0.5,2.7-1.5,3.7C55.6,29.7,54.3,30.3,53,30.3z M27.7,6c-5.1,0-9.9,2-13.5,5.6
				c-3.6,3.6-5.6,8.4-5.6,13.5c0,1.7,1.4,3.2,3.2,3.2H53c0.8,0,1.6-0.3,2.2-0.9c0.6-0.6,0.9-1.4,0.9-2.2C56.1,14.6,47.6,6,37,6H27.7
				z"/>
		</g>
		<g>
			<path fill="#2C2C3D" d="M51.6,57H12c-3.3,0-6-2.7-6-6v-2.6C6,46.5,7.5,45,9.4,45c0.6,0,1,0.4,1,1s-0.4,1-1,1
				C8.6,47,8,47.6,8,48.4V51c0,2.2,1.8,4,4,4h39.6c2.2,0,4-1.8,4-4v-2.6c0-0.8-0.6-1.4-1.4-1.4c-0.6,0-1-0.4-1-1s0.4-1,1-1
				c1.9,0,3.4,1.5,3.4,3.4V51C57.6,54.3,54.9,57,51.6,57z"/>
		</g>
		<g>
			<path fill="#2C2C3D" d="M5.6,38.9c-2.8,0-5.2-1.9-5.5-4.5c0-0.2,0-0.4,0-0.6c0-1.5,0.6-2.9,1.7-3.9c1.1-1,2.5-1.6,4.1-1.6h52.4
				c3.2,0,5.8,2.5,5.8,5.5c0,0.2,0,0.4,0,0.6c-0.4,2.8-3.1,4.8-6.2,4.4c-0.7-0.1-1.3-0.3-1.8-0.5l-3.7-1.8c-1.4-0.7-3.2-0.7-4.7-0.1
				l-4,1.7c-2.1,0.8-4.3,0.8-6.3-0.1l-3-1.4c-1.5-0.7-3.4-0.7-4.9,0l-2.8,1.3c-2,0.9-4.5,1-6.6,0l-2.9-1.4c-1.5-0.7-3.3-0.7-4.7,0
				l-4.4,2c-0.6,0.2-1.2,0.4-1.8,0.5C6,38.9,5.8,38.9,5.6,38.9z M5.8,30.3c-1,0-2,0.4-2.7,1C2.4,32,2,32.9,2,33.8c0,0.1,0,0.3,0,0.4
				c0.2,1.8,2,2.7,3.5,2.7c0.2,0,0.3,0,0.5,0c0.4,0,0.8-0.1,1.2-0.3l4.4-2c2-0.9,4.4-0.9,6.4,0.1l2.9,1.4c1.5,0.7,3.4,0.7,4.9,0
				l2.8-1.3c2-1,4.5-0.9,6.6,0l3,1.4c1.5,0.7,3.1,0.7,4.6,0.1l4-1.7c2-0.8,4.4-0.8,6.3,0.2l3.7,1.8c0.4,0.2,0.8,0.3,1.2,0.3
				c0.2,0,0.3,0,0.5,0c1.5,0,3.3-0.9,3.5-2.7c0-0.1,0-0.3,0-0.4c0-1.9-1.7-3.5-3.8-3.5H5.8z"/>
		</g>
		<g>
			<path fill="#2C2C3D" d="M57,47H7c-2.7,0-5-2.2-5-5c0-1.3,0.5-2.6,1.5-3.5C4.1,37.8,5,37.4,6,37.2c0.4-0.1,0.7-0.1,1-0.1H57
				c0.3,0,0.6,0,1,0.1c2.3,0.5,4,2.5,4,4.9c0,1.3-0.5,2.6-1.5,3.5C59.6,46.5,58.4,47,57,47z M7,39.1c-0.2,0-0.4,0-0.6,0.1
				c-0.6,0.1-1.1,0.4-1.5,0.8C4.3,40.5,4,41.2,4,42c0,1.6,1.3,3,3,3H57c0.8,0,1.5-0.3,2.1-0.9c0.6-0.6,0.9-1.3,0.9-2.1
				c0-1.4-1-2.6-2.4-2.9c-0.2,0-0.4-0.1-0.6-0.1H7z"/>
		</g>
	</g>
</g>
</svg>
