<?xml version="1.0" encoding="utf-8"?>
<!-- Generator: Adobe Illustrator 18.0.0, SVG Export Plug-In . SVG Version: 6.00 Build 0)  -->
<!DOCTYPE svg PUBLIC "-//W3C//DTD SVG 1.1//EN" "http://www.w3.org/Graphics/SVG/1.1/DTD/svg11.dtd">
<svg version="1.1" id="Layer_1" xmlns="http://www.w3.org/2000/svg" xmlns:xlink="http://www.w3.org/1999/xlink" x="0px" y="0px"
	 viewBox="0 0 64 64" enable-background="new 0 0 64 64" xml:space="preserve">
<g id="XMLID_4_">
	<g>
		<g>
			<path fill="#A6AFBC" d="M63,37v2.2c0,0.5-0.5,1-1,1h-4.3c-0.3-1.1-0.8-2.1-1.5-3l0.2-0.2H63z"/>
		</g>
		<g>
			<path fill="#398DD3" d="M63,33.2V37h-6.5l-0.2,0.2c-1.5-1.8-3.7-3-6.2-3c-3.7,0-6.8,2.5-7.7,6H20.7c-0.9-3.5-4-6-7.7-6
				c-2.4,0-4.6,1.1-6.1,2.8l-0.2-0.2H1.2c1.1-5.9,5.8-6,5.8-6l2.5-3.7l6.4-0.6l7.5-4.8c3.8-2.4,8.1-3.8,12.6-4.1
				c4.7-0.3,9.3,0.7,13.4,2.8c3.8,1.9,8,4,8.5,4.4c0.2,0.1,0.4,0.2,0.6,0.3l1.5,6.1L63,33.2z M41.9,27.2l12.6-0.5
				c-0.4-0.3-3.8-2-6.9-3.6c-2.1-1.1-4.3-1.8-6.6-2.1c-1.5-0.2-3-0.3-4.5-0.2l-1.2,0.1c-3.6,0.3-7,1.5-10,3.5l-5.6,3.7L41.9,27.2z"
				/>
		</g>
		<g>
			<path fill="#F1455B" d="M63,26.2v7l-3-2l-1.5-6.1C59.9,25.8,61.5,26.2,63,26.2z"/>
		</g>
		<g>
			<path fill="#B6DEFC" d="M54.5,26.7l-12.6,0.5l-1-6l0-0.3c2.3,0.3,4.5,1,6.6,2.1C50.6,24.7,54,26.4,54.5,26.7z"/>
		</g>
		<g>
			<path fill="#565D68" d="M50,36.7c3,0,5.5,2.5,5.5,5.5c0,3-2.5,5.5-5.5,5.5s-5.5-2.5-5.5-5.5C44.5,39.1,47,36.7,50,36.7z
				 M52.3,42.2c0-1.3-1-2.3-2.3-2.3s-2.3,1-2.3,2.3c0,1.3,1,2.3,2.3,2.3S52.3,43.4,52.3,42.2z"/>
		</g>
		<g>
			<path fill="#A6AFBC" d="M50,39.9c1.3,0,2.3,1,2.3,2.3c0,1.3-1,2.3-2.3,2.3s-2.3-1-2.3-2.3C47.7,40.9,48.7,39.9,50,39.9z"/>
		</g>
		<g>
			<path fill="#B6DEFC" d="M40.9,21.3l1,6l-22.2,0.9l5.6-3.7c3-2,6.4-3.2,10-3.5l1.2-0.1c1.5-0.1,3,0,4.5,0.2L40.9,21.3z"/>
		</g>
		<g>
			<path fill="#565D68" d="M13,36.7c3,0,5.5,2.5,5.5,5.5c0,3-2.5,5.5-5.5,5.5s-5.5-2.5-5.5-5.5C7.5,39.1,10,36.7,13,36.7z
				 M15.3,42.2c0-1.3-1-2.3-2.3-2.3s-2.3,1-2.3,2.3c0,1.3,1,2.3,2.3,2.3S15.3,43.4,15.3,42.2z"/>
		</g>
		<g>
			<path fill="#A6AFBC" d="M13,39.9c1.3,0,2.3,1,2.3,2.3c0,1.3-1,2.3-2.3,2.3s-2.3-1-2.3-2.3C10.7,40.9,11.7,39.9,13,39.9z"/>
		</g>
		<g>
			<path fill="#FFFFFF" d="M9.5,27.1L7,30.8c0,0-4.8,0.1-5.8,6l0.2-3.2c0.2-3.3,2.8-5.9,6-6.3L9.5,27.1z"/>
		</g>
		<g>
			<path fill="#A6AFBC" d="M6.7,36.8L6.9,37c-0.8,0.9-1.3,1.9-1.6,3.1L2,40c-0.5,0-1-0.5-1-1l0.2-2.2H6.7z"/>
		</g>
	</g>
	<g>
		<path fill="#2C2C3D" d="M55,25.8c-0.4-0.3-2.8-1.5-6.7-3.5L48,22.2c-2.2-1.1-4.5-1.9-6.9-2.2c-1.5-0.2-3.1-0.3-4.7-0.2l-1.2,0.1
			c-3.7,0.3-7.4,1.6-10.5,3.7l-5.6,3.7c-0.4,0.2-0.5,0.7-0.4,1.1c0.1,0.4,0.5,0.7,1,0.7c0,0,0,0,0,0l34.8-1.4c0.4,0,0.8-0.3,0.9-0.7
			C55.5,26.5,55.4,26.1,55,25.8z M25.8,25.2c2.8-1.9,6.2-3.1,9.5-3.4l1.2-0.1c0.4,0,0.9,0,1.3,0c0.7,0,1.4,0.1,2.1,0.1l0.7,4.4
			L23.2,27L25.8,25.2z M42.7,26.2l-0.7-4c1.7,0.4,3.4,0.9,5,1.8l0.3,0.1c1.1,0.6,2.3,1.2,3.4,1.8L42.7,26.2z"/>
		<path fill="#2C2C3D" d="M39.8,29.8h-2.8c-0.6,0-1,0.4-1,1s0.4,1,1,1h2.8c0.6,0,1-0.4,1-1S40.4,29.8,39.8,29.8z"/>
		<path fill="#2C2C3D" d="M13,35.7c-3.6,0-6.5,2.9-6.5,6.5s2.9,6.5,6.5,6.5s6.5-2.9,6.5-6.5S16.6,35.7,13,35.7z M13,46.7
			c-2.5,0-4.5-2-4.5-4.5s2-4.5,4.5-4.5s4.5,2,4.5,4.5S15.5,46.7,13,46.7z"/>
		<path fill="#2C2C3D" d="M50,35.7c-3.6,0-6.5,2.9-6.5,6.5s2.9,6.5,6.5,6.5s6.5-2.9,6.5-6.5S53.6,35.7,50,35.7z M50,46.7
			c-2.5,0-4.5-2-4.5-4.5s2-4.5,4.5-4.5s4.5,2,4.5,4.5S52.5,46.7,50,46.7z"/>
		<path fill="#2C2C3D" d="M63,25.2c-1.4,0-2.8-0.3-4-1c-0.2-0.1-0.3-0.2-0.5-0.3c-0.6-0.4-5.6-2.9-8.6-4.4
			c-4.3-2.2-9.1-3.2-13.9-2.9c-4.7,0.3-9.2,1.7-13.1,4.2l-7.3,4.7l-8.3,0.8c-3.7,0.5-6.6,3.5-6.8,7.2L0,39c0,1.1,0.9,2,2,2
			c0,0,0,0,0,0l3.3,0.1c0.5,0,0.9-0.3,1-0.7c0.3-1,0.8-1.9,1.4-2.7c1.3-1.6,3.3-2.5,5.3-2.5c3.2,0,6,2.2,6.8,5.2
			c0.1,0.4,0.5,0.8,1,0.8h21.5c0.5,0,0.9-0.3,1-0.8c0.8-3.1,3.6-5.2,6.8-5.2c2.1,0,4.1,1,5.5,2.6c0.6,0.8,1.1,1.7,1.3,2.6
			c0.1,0.4,0.5,0.8,1,0.8H62c1.1,0,2-0.9,2-2v-13C64,25.6,63.6,25.2,63,25.2z M62,31.3l-1.1-0.7L60,26.7c0.7,0.2,1.3,0.3,2,0.4
			L62,31.3z M7.5,28.3l-1,1.5c-0.9,0.1-2.2,0.5-3.3,1.4C4.1,29.7,5.6,28.5,7.5,28.3z M2,39.1l0.1-1.3h3.1c-0.2,0.4-0.4,0.8-0.6,1.3
			L2,39.1z M50,33.2c-3.8,0-7.2,2.4-8.5,6h-20c-1.3-3.6-4.6-6-8.5-6c-2.4,0-4.7,1-6.3,2.6H2.5c1.2-3.9,4.4-4,4.6-4
			c0.3,0,0.6-0.2,0.8-0.4l2.2-3.3l5.9-0.6c0.2,0,0.3-0.1,0.4-0.2l7.5-4.8c3.6-2.3,7.8-3.7,12.1-3.9c4.5-0.3,8.9,0.7,12.9,2.7
			c4.8,2.4,8,4.1,8.5,4.4c0.1,0,0.1,0.1,0.2,0.1l1.4,5.6c0.1,0.2,0.2,0.5,0.4,0.6l2.6,1.7l0,2.3h-5.5C54.8,34.2,52.5,33.2,50,33.2z
			 M58.5,39.2c-0.1-0.4-0.3-0.8-0.5-1.2h4l0,1.2H58.5z"/>
		<path fill="#2C2C3D" d="M13,38.9c-1.8,0-3.3,1.5-3.3,3.3s1.5,3.3,3.3,3.3s3.3-1.5,3.3-3.3S14.8,38.9,13,38.9z M13,43.5
			c-0.7,0-1.3-0.6-1.3-1.3s0.6-1.3,1.3-1.3s1.3,0.6,1.3,1.3S13.7,43.5,13,43.5z"/>
		<path fill="#2C2C3D" d="M50,38.9c-1.8,0-3.3,1.5-3.3,3.3s1.5,3.3,3.3,3.3s3.3-1.5,3.3-3.3S51.8,38.9,50,38.9z M50,43.5
			c-0.7,0-1.3-0.6-1.3-1.3s0.6-1.3,1.3-1.3s1.3,0.6,1.3,1.3S50.7,43.5,50,43.5z"/>
	</g>
</g>
</svg>
