<?xml version="1.0" encoding="utf-8"?>
<!-- Generator: Adobe Illustrator 18.0.0, SVG Export Plug-In . SVG Version: 6.00 Build 0)  -->
<!DOCTYPE svg PUBLIC "-//W3C//DTD SVG 1.1//EN" "http://www.w3.org/Graphics/SVG/1.1/DTD/svg11.dtd">
<svg version="1.1" id="Layer_1" xmlns="http://www.w3.org/2000/svg" xmlns:xlink="http://www.w3.org/1999/xlink" x="0px" y="0px"
	 viewBox="0 0 64 64" enable-background="new 0 0 64 64" xml:space="preserve">
<g id="XMLID_34_">
	<g>
		<g>
			<path fill="#F2ECE2" d="M63,6v40c0,1.1-0.9,2-2,2h-9v-3c2.4-1.8,4-4.7,4-8c0-5.5-4.5-10-10-10s-10,4.5-10,10c0,3.3,1.6,6.2,4,8v3
				H3c-1.1,0-2-0.9-2-2V6c0-1.1,0.9-2,2-2h58C62.1,4,63,4.9,63,6z M24,39v-4H8v4H24z"/>
		</g>
		<g>
			<path fill="#EFCA11" d="M46,27c5.5,0,10,4.5,10,10c0,3.3-1.6,6.2-4,8c-1.7,1.2-3.8,2-6,2s-4.3-0.8-6-2c-2.4-1.8-4-4.7-4-8
				C36,31.5,40.5,27,46,27z M51,37c0-2.8-2.2-5-5-5s-5,2.2-5,5s2.2,5,5,5S51,39.8,51,37z"/>
		</g>
		<g>
			<path fill="#834BEF" d="M40,48v-3c1.7,1.2,3.8,2,6,2s4.3-0.8,6-2v3v12l-6-4l-6,4V48z"/>
		</g>
		<g>
			<circle fill="#FCEA81" cx="46" cy="37" r="5"/>
		</g>
		<g>
			<rect x="8" y="35" fill="#316CFF" width="16" height="4"/>
		</g>
	</g>
	<g>
		<path fill="#2D2D2D" d="M61,3H3C1.3,3,0,4.3,0,6v40c0,1.7,1.3,3,3,3h36v12.9l7-4.7l7,4.7V49h8c1.7,0,3-1.3,3-3V6
			C64,4.3,62.7,3,61,3z M51,58.1l-5-3.3l-5,3.3V49v-2v-0.2c1.5,0.8,3.2,1.2,5,1.2c1.8,0,3.5-0.4,5-1.2V58.1z M51.4,44.2
			C49.8,45.4,48,46,46,46s-3.8-0.6-5.4-1.8C38.3,42.5,37,39.9,37,37c0-5,4-9,9-9s9,4,9,9C55,39.9,53.7,42.5,51.4,44.2z M62,46
			c0,0.6-0.4,1-1,1h-8v-1.5c2.5-2.1,4-5.2,4-8.5c0-6.1-4.9-11-11-11s-11,4.9-11,11c0,3.3,1.5,6.4,4,8.5V47H3c-0.6,0-1-0.4-1-1V6
			c0-0.6,0.4-1,1-1h58c0.6,0,1,0.4,1,1V46z"/>
		<rect x="7" y="16" fill="#2D2D2D" width="48" height="2"/>
		<rect x="7" y="22" fill="#2D2D2D" width="30" height="2"/>
		<rect x="7" y="10" fill="#2D2D2D" width="48" height="2"/>
		<path fill="#2D2D2D" d="M46,31c-3.3,0-6,2.7-6,6s2.7,6,6,6s6-2.7,6-6S49.3,31,46,31z M46,41c-2.2,0-4-1.8-4-4s1.8-4,4-4s4,1.8,4,4
			S48.2,41,46,41z"/>
		<path fill="#2D2D2D" d="M7,40h18v-6H7V40z M9,36h14v2H9V36z"/>
	</g>
</g>
</svg>
