<?xml version="1.0" encoding="utf-8"?>
<!-- Generator: Adobe Illustrator 18.0.0, SVG Export Plug-In . SVG Version: 6.00 Build 0)  -->
<!DOCTYPE svg PUBLIC "-//W3C//DTD SVG 1.1//EN" "http://www.w3.org/Graphics/SVG/1.1/DTD/svg11.dtd">
<svg version="1.1" id="Layer_1" xmlns="http://www.w3.org/2000/svg" xmlns:xlink="http://www.w3.org/1999/xlink" x="0px" y="0px"
	 viewBox="0 0 64 64" enable-background="new 0 0 64 64" xml:space="preserve">
<g>
	<g id="XMLID_7_">
		<g>
			<g>
				<g>
					<path fill="#FFFFFF" d="M32,52h-8h-8l-0.4,0L15,37C8.7,35.6,4,30.7,4,24c0-7.7,6.3-14,14-14c0.3,0,0.6,0,0.9,0.1
						C20.9,4.8,26,1,32,1s11.1,3.8,13.1,9.1c0.3,0,0.6-0.1,0.9-0.1c7.7,0,14,6.3,14,14c0,7-4.2,12-11,13l-0.6,15L48,52h-8H32z"/>
				</g>
			</g>
			<g>
				<g>
					<polygon fill="#F2EDDF" points="15.6,52 16,52 24,52 32,52 40,52 48,52 48.4,52 48,63 16,63 					"/>
				</g>
			</g>
		</g>
		<g>
			<g>
				<g>
					<path fill="#2C2C3D" d="M48,53H16c-0.6,0-1-0.4-1-1s0.4-1,1-1h32c0.6,0,1,0.4,1,1S48.6,53,48,53z"/>
				</g>
			</g>
			<g>
				<g>
					<path fill="#2C2C3D" d="M48,64H16c-0.5,0-1-0.4-1-1l-1-25.2C7.4,36,3,30.6,3,24C3,15.7,9.7,9,18,9c0.1,0,0.2,0,0.3,0
						c2.4-5.4,7.8-9,13.7-9s11.4,3.6,13.7,9c0.1,0,0.2,0,0.3,0c8.3,0,15,6.7,15,15c0,7.3-4.2,12.5-11,13.9L49,63
						C49,63.6,48.5,64,48,64z M17,62H47l1-25c0-0.5,0.4-0.9,0.9-1C55.1,35.1,59,30.5,59,24c0-7.2-5.8-13-13-13c-0.2,0-0.4,0-0.6,0
						l-0.3,0c-0.4,0-0.8-0.2-1-0.6C42.2,5.4,37.4,2,32,2s-10.2,3.4-12.1,8.4c-0.2,0.4-0.6,0.7-1,0.6l-0.3,0c-0.2,0-0.4,0-0.6,0
						c-7.2,0-13,5.8-13,13c0,6,4,10.7,10.2,12c0.4,0.1,0.8,0.5,0.8,0.9L17,62z"/>
				</g>
			</g>
			<g>
				<g>
					<path fill="#2C2C3D" d="M24,53c-0.6,0-1-0.4-1-1V41c0-0.6,0.4-1,1-1s1,0.4,1,1v11C25,52.6,24.6,53,24,53z"/>
				</g>
			</g>
			<g>
				<g>
					<path fill="#2C2C3D" d="M40,53c-0.6,0-1-0.4-1-1V41c0-0.6,0.4-1,1-1s1,0.4,1,1v11C41,52.6,40.6,53,40,53z"/>
				</g>
			</g>
			<g>
				<g>
					<path fill="#2C2C3D" d="M32,53c-0.6,0-1-0.4-1-1V35c0-0.6,0.4-1,1-1s1,0.4,1,1v17C33,52.6,32.6,53,32,53z"/>
				</g>
			</g>
		</g>
	</g>
</g>
</svg>
