<?xml version="1.0" encoding="utf-8"?>
<!-- Generator: Adobe Illustrator 18.0.0, SVG Export Plug-In . SVG Version: 6.00 Build 0)  -->
<!DOCTYPE svg PUBLIC "-//W3C//DTD SVG 1.1//EN" "http://www.w3.org/Graphics/SVG/1.1/DTD/svg11.dtd">
<svg version="1.1" id="Layer_1" xmlns="http://www.w3.org/2000/svg" xmlns:xlink="http://www.w3.org/1999/xlink" x="0px" y="0px"
	 viewBox="0 0 64 64" enable-background="new 0 0 64 64" xml:space="preserve">
<g id="XMLID_11_">
	<g>
		<g>
			<g>
				<path fill="#DFE4EA" d="M51.6,28.9C57.9,28.9,63,34,63,40.2c0,6.2-5.1,11.3-11.4,11.3H12.4C6.1,51.5,1,46.4,1,40.2
					c0-5.5,4.1-10.1,9.3-11.1c0-0.2,0-0.5,0-0.7c0-4.8,3.9-8.7,8.8-8.7c1,0,2,0.2,2.9,0.5c2.4-5.1,7.6-8.7,13.6-8.7
					c8.3,0,15,6.7,15,14.9c0,0.9-0.1,1.7-0.2,2.6H51.6z"/>
			</g>
		</g>
	</g>
	<g>
		<g>
			<g>
				<path fill="#2C2C3D" d="M51.6,52.5H12.4C5.5,52.5,0,47,0,40.2c0-5.6,3.9-10.5,9.3-11.9c0-5.3,4.4-9.6,9.8-9.6
					c0.8,0,1.6,0.1,2.4,0.3c2.8-5.2,8.2-8.5,14.2-8.5c8.8,0,16,7.1,16,15.9c0,0.5,0,1-0.1,1.6h0.1c6.8,0,12.4,5.5,12.4,12.3
					C64,47,58.5,52.5,51.6,52.5z M19.1,20.7c-4.3,0-7.8,3.5-7.8,7.7c0,0.2,0,0.4,0,0.6c0,0.5-0.3,1-0.8,1.1C5.6,31,2,35.3,2,40.2
					c0,5.7,4.7,10.3,10.4,10.3h39.3c5.7,0,10.4-4.6,10.4-10.3s-4.7-10.3-10.4-10.3h-1.3c-0.3,0-0.6-0.1-0.8-0.4s-0.3-0.5-0.2-0.8
					c0.2-0.8,0.2-1.6,0.2-2.4c0-7.6-6.3-13.9-14-13.9c-5.5,0-10.4,3.2-12.7,8.1c-0.2,0.5-0.8,0.7-1.2,0.5
					C20.8,20.9,20,20.7,19.1,20.7z"/>
			</g>
		</g>
	</g>
</g>
</svg>
