<?xml version="1.0" encoding="utf-8"?>
<!-- Generator: Adobe Illustrator 18.0.0, SVG Export Plug-In . SVG Version: 6.00 Build 0)  -->
<!DOCTYPE svg PUBLIC "-//W3C//DTD SVG 1.1//EN" "http://www.w3.org/Graphics/SVG/1.1/DTD/svg11.dtd">
<svg version="1.1" id="Layer_1" xmlns="http://www.w3.org/2000/svg" xmlns:xlink="http://www.w3.org/1999/xlink" x="0px" y="0px"
	 viewBox="0 0 64 64" enable-background="new 0 0 64 64" xml:space="preserve">
<g>
	<g>
		<g>
			<path fill="#2C2C3D" d="M18,14c-0.2,0-0.5-0.1-0.6-0.3c-0.1-0.1-1.9-1.7-0.2-5.2c1-2,0.2-2.8,0.2-2.9c-0.4-0.4-0.4-1,0-1.4
				c0.4-0.4,1-0.4,1.4-0.1c0.1,0.1,1.9,1.7,0.2,5.2c-1,2-0.2,2.8-0.2,2.9c0.4,0.4,0.4,1,0,1.4C18.5,13.9,18.2,14,18,14z"/>
		</g>
	</g>
	<g id="XMLID_2_">
		<g>
			<g>
				<path fill="#6C625F" d="M44.7,51c5.1,1.3,8.3,3.1,8.3,5.1c0,3.8-11.4,6.9-25.5,6.9S2,59.9,2,56.1c0-2,3.2-3.8,8.2-5.1l0.1-0.1
					c0.4,0.5,0.9,1,1.4,1.5c4.1,4.1,9.7,6.6,15.9,6.6C34.4,59,40.6,55.9,44.7,51z"/>
			</g>
			<g>
				<path fill="#8B7F7B" d="M44.7,51c-4.1,4.9-10.3,8-17.2,8c-6.2,0-11.8-2.5-15.9-6.6c-0.5-0.5-0.9-1-1.4-1.5C7,47,5,42,5,36.5
					v-8.2c0,2.4,10.1,4.4,22.5,4.4c11.9,0,21.6-1.8,22.4-4v7.8c0,1.1-0.1,2.1-0.2,3.2C49.1,44,47.3,47.8,44.7,51z"/>
			</g>
			<g>
				<path fill="#F96A53" d="M49.9,24.5v4.2c-0.8,2.3-10.6,4-22.4,4c-12.4,0-22.5-2-22.5-4.4v-6c0,2.4,10.1,4.4,22.5,4.4
					c11.9,0,21.6-1.8,22.4-4V24.5z"/>
			</g>
			<g>
				<path fill="#DFD7D5" d="M49.9,22v0.7c-0.8,2.3-10.6,4-22.4,4C15.1,26.7,5,24.8,5,22.4C5,20,15.1,18,27.5,18
					C39.4,18,49.1,19.8,49.9,22z"/>
			</g>
		</g>
		<g>
			<g>
				<path fill="#2C2C3D" d="M27.5,60c-6.3,0-12.2-2.4-16.6-6.9c-0.5-0.5-1-1-1.4-1.6C5.9,47.4,4,42,4,36.5V22h2v14.5
					c0,5,1.8,9.9,5,13.8c0.4,0.5,0.8,0.9,1.3,1.4c4.1,4.1,9.4,6.3,15.2,6.3c6.4,0,12.4-2.8,16.5-7.7c2.6-3.1,4.2-6.8,4.8-10.8
					c0.1-1,0.2-2,0.2-3V21.7h2v14.8c0,1.1-0.1,2.2-0.2,3.3c-0.6,4.3-2.4,8.4-5.2,11.8C41,56.9,34.4,60,27.5,60z"/>
			</g>
			<g>
				<path fill="#2C2C3D" d="M53.4,40.7H50v-2h3.4c1.8,0,3.4-0.7,4.7-1.9c1.3-1.3,1.9-2.9,1.9-4.7c0-3.7-3-6.6-6.6-6.6H50v-2h3.4
					c4.8,0,8.6,3.9,8.6,8.6c0,2.3-0.9,4.5-2.5,6.1C57.8,39.8,55.7,40.7,53.4,40.7z"/>
			</g>
			<g>
				<path fill="#2C2C3D" d="M27.5,27.7c-1,0-23.5-0.1-23.5-5.4S26.5,17,27.5,17c8,0,22,1,23.4,4.7c0.1,0.2,0.1,0.4,0.1,0.7
					c0,0.3-0.1,0.5-0.2,0.7C49.5,26.8,35.5,27.7,27.5,27.7z M27.5,19C14,19,6.4,21.2,6,22.4c0.4,1.2,7.9,3.3,21.5,3.3
					c13.5,0,21-2.2,21.5-3.4C48.5,21.2,41,19,27.5,19z"/>
			</g>
			<g>
				<path fill="#2C2C3D" d="M27.5,64C14.3,64,1,61.3,1,56.1c0-3.1,4.9-5,8.9-6l0.5,1.9C4.9,53.3,3,55,3,56.1c0,2.5,9.3,5.9,24.5,5.9
					S52,58.5,52,56.1c0-1.1-2-2.8-7.5-4.1c-0.2-0.1-0.3-0.1-0.5-0.1l0.4-2c0.2,0,0.4,0.1,0.6,0.1c4.1,1,9,2.9,9,6.1
					C54,61.3,40.7,64,27.5,64z"/>
			</g>
			<g>
				<path fill="#2C2C3D" d="M27.5,33.7c-1,0-23.5-0.1-23.5-5.4h2c0.4,1.2,7.9,3.4,21.5,3.4c13.5,0,21-2.2,21.5-3.4l2,0
					c0,0.3-0.1,0.5-0.2,0.7C49.5,32.8,35.5,33.7,27.5,33.7z"/>
			</g>
		</g>
	</g>
	<g>
		<g>
			<path fill="#2C2C3D" d="M38.7,14c-0.2,0-0.5-0.1-0.7-0.2c-0.2-0.2-1.8-1.6-0.3-5.2C38.7,6.5,38,5.7,38,5.7
				c-0.4-0.4-0.5-1-0.1-1.4c0.4-0.4,1-0.5,1.4-0.1c0.2,0.2,1.8,1.6,0.3,5.2c-0.9,2.1-0.2,2.9-0.2,2.9c0.4,0.4,0.5,1,0.1,1.4
				C39.3,13.9,39,14,38.7,14z"/>
		</g>
	</g>
	<g>
		<g>
			<path fill="#2C2C3D" d="M28.8,14c-0.3,0-0.6-0.2-0.8-0.4c-0.1-0.1-2-3.1,0-6.6c1.4-2.4,0.1-4.4,0-4.4c-0.3-0.5-0.2-1.1,0.3-1.4
				c0.5-0.3,1.1-0.2,1.4,0.3c0.1,0.1,2,3.1,0,6.6c-1.4,2.4-0.1,4.4,0,4.4c0.3,0.5,0.2,1.1-0.3,1.4C29.1,13.9,28.9,14,28.8,14z"/>
		</g>
	</g>
</g>
</svg>
