<?xml version="1.0" encoding="utf-8"?>
<!-- Generator: Adobe Illustrator 18.0.0, SVG Export Plug-In . SVG Version: 6.00 Build 0)  -->
<!DOCTYPE svg PUBLIC "-//W3C//DTD SVG 1.1//EN" "http://www.w3.org/Graphics/SVG/1.1/DTD/svg11.dtd">
<svg version="1.1" id="Layer_1" xmlns="http://www.w3.org/2000/svg" xmlns:xlink="http://www.w3.org/1999/xlink" x="0px" y="0px"
	 viewBox="0 0 64 64" enable-background="new 0 0 64 64" xml:space="preserve">
<g>
	<g id="XMLID_1_">
		<g>
			<g>
				<polygon fill="#DFD7D5" points="55.9,9 55.9,18 52,18 12,18 8.1,18 8.1,9 14,9 50,9 				"/>
			</g>
			<g>
				<polygon fill="#50C9A4" points="52,18 50.5,30 13.4,30 12,18 				"/>
			</g>
			<g>
				<path fill="#8B7F7B" d="M52,30l-2,18h-1.7H15.6H14l-2-18h1.4h37.1H52z M38,39c0-3-2.5-5.5-5.5-5.5S27,36,27,39s2.5,5.5,5.5,5.5
					S38,42,38,39z"/>
			</g>
			<g>
				<polygon fill="#DFD7D5" points="48,1 50,9 14,9 15.9,1 				"/>
			</g>
			<g>
				<path fill="#50C9A4" d="M48.3,48l-1.5,12.4c-0.2,1.5-1.5,2.6-3,2.6H20.1c-1.5,0-2.8-1.1-3-2.6L15.6,48H48.3z"/>
			</g>
			<g>
				<circle fill="#FFFFFF" cx="32.5" cy="39" r="5.5"/>
			</g>
		</g>
		<g>
			<g>
				<path fill="#2C2C3D" d="M55.9,19H8.1c-0.6,0-1-0.4-1-1V9c0-0.6,0.4-1,1-1H14v2H9.1v7h45.9v-7H50V8h5.9c0.6,0,1,0.4,1,1v9
					C56.9,18.6,56.5,19,55.9,19z"/>
			</g>
			<g>
				<path fill="#2C2C3D" d="M50,10H14c-0.3,0-0.6-0.1-0.8-0.4S13,9.1,13,8.8l1.9-8c0.1-0.4,0.5-0.8,1-0.8H48c0.5,0,0.9,0.3,1,0.8
					l2,8c0.1,0.3,0,0.6-0.2,0.9S50.3,10,50,10z M15.3,8h33.5l-1.5-6H16.7L15.3,8z"/>
			</g>
			<g>
				<rect x="6.7" y="23" transform="matrix(0.12 0.9928 -0.9928 0.12 35.025 8.4874)" fill="#2C2C3D" width="12.1" height="2"/>
			</g>
			<g>
				<path fill="#2C2C3D" d="M43.8,64H20.1c-2,0-3.7-1.4-4-3.4l-1.5-12.5l2-0.2l1.5,12.4c0.1,1,1,1.7,2,1.7h23.7c1,0,1.8-0.7,2-1.7
					l1.5-12.4l2,0.2l-1.5,12.4C47.5,62.5,45.8,64,43.8,64z"/>
			</g>
			<g>
				
					<rect x="50.3" y="18" transform="matrix(0.9926 0.1216 -0.1216 0.9926 3.2997 -6.0572)" fill="#2C2C3D" width="2" height="12.1"/>
			</g>
			<g>
				<path fill="#2C2C3D" d="M50,49H14c-0.5,0-0.9-0.4-1-0.9l-2-18c0-0.3,0.1-0.6,0.2-0.8S11.7,29,12,29h40c0.3,0,0.6,0.1,0.7,0.3
					s0.3,0.5,0.2,0.8l-2,18C50.9,48.6,50.5,49,50,49z M14.9,47h34.2l1.8-16H13.1L14.9,47z"/>
			</g>
			<g>
				<path fill="#2C2C3D" d="M32.5,45.5c-3.6,0-6.5-2.9-6.5-6.5s2.9-6.5,6.5-6.5S39,35.4,39,39S36.1,45.5,32.5,45.5z M32.5,34.5
					c-2.5,0-4.5,2-4.5,4.5s2,4.5,4.5,4.5s4.5-2,4.5-4.5S35,34.5,32.5,34.5z"/>
			</g>
		</g>
	</g>
</g>
</svg>
