<?xml version="1.0" encoding="utf-8"?>
<!-- Generator: Adobe Illustrator 18.0.0, SVG Export Plug-In . SVG Version: 6.00 Build 0)  -->
<!DOCTYPE svg PUBLIC "-//W3C//DTD SVG 1.1//EN" "http://www.w3.org/Graphics/SVG/1.1/DTD/svg11.dtd">
<svg version="1.1" id="Layer_1" xmlns="http://www.w3.org/2000/svg" xmlns:xlink="http://www.w3.org/1999/xlink" x="0px" y="0px"
	 viewBox="0 0 64 64" enable-background="new 0 0 64 64" xml:space="preserve">
<g>
	<g id="XMLID_20_">
		<g>
			<g>
				<path fill="#FFA000" d="M63,37.5v12c0,3.6-9.6,6.5-19,6.5c-3.3,0-6.4-0.4-9-1V44v-1c2.6,0.6,5.7,1,9,1C53.4,44,63,41.1,63,37.5z
					"/>
			</g>
			<g>
				<path fill="#FFA000" d="M63,25.5v12c0,3.6-9.6,6.5-19,6.5c-3.3,0-6.4-0.4-9-1V32v-1c2.6,0.6,5.7,1,9,1C53.4,32,63,29.1,63,25.5z
					"/>
			</g>
			<g>
				<path fill="#FFC107" d="M44,19c9.4,0,19,2.9,19,6.5S53.4,32,44,32c-3.3,0-6.4-0.4-9-1V20v0C37.6,19.4,40.7,19,44,19z"/>
			</g>
			<g>
				<path fill="#FFA000" d="M35,55v1c0,3.6-7.6,6.5-17,6.5S1,59.6,1,56V44c0,3.6,7.6,6.5,17,6.5s17-2.9,17-6.5V55z"/>
			</g>
			<g>
				<path fill="#FFA000" d="M35,43v1c0,3.6-7.6,6.5-17,6.5S1,47.6,1,44V32c0,3.6,7.6,6.5,17,6.5s17-2.9,17-6.5V43z"/>
			</g>
			<g>
				<path fill="#FFA000" d="M35,31v1c0,3.6-7.6,6.5-17,6.5S1,35.6,1,32V20c0,3.6,7.6,6.5,17,6.5s17-2.9,17-6.5V31z"/>
			</g>
			<g>
				<path fill="#FFA000" d="M35,20L35,20c0,3.6-7.6,6.5-17,6.5S1,23.6,1,20V8.5C1,12.1,8.6,15,18,15s17-2.9,17-6.5V20z"/>
			</g>
			<g>
				<ellipse fill="#FFC107" cx="18" cy="8.5" rx="17" ry="6.5"/>
			</g>
		</g>
		<path fill="#2D2D2D" d="M64,25c-0.8-4.6-11.9-7-20-7c-2.8,0-5.5,0.3-8,0.8V8h-0.1C35.3,3.5,26.4,1,18,1S0.7,3.5,0.1,8H0v48
			c0,4.9,9.3,7.5,18,7.5c8.6,0,17.7-2.6,18-7.3c2.5,0.5,5.2,0.8,8,0.8c8.4,0,20-2.6,20-7.5L64,25L64,25z M62,25.5
			C62,28,53.7,31,44,31c-2.8,0-5.6-0.3-8-0.8v-9.4c2.4-0.5,5.2-0.8,8-0.8C53.7,20,62,23,62,25.5z M18,3c9.4,0,16,2.9,16,5.5
			S27.4,14,18,14S2,11.1,2,8.5S8.6,3,18,3z M2,12.1c3.2,2.6,9.7,3.9,16,3.9s12.8-1.4,16-3.9V20c0,2.6-6.6,5.5-16,5.5S2,22.6,2,20
			V12.1z M2,23.6c3.2,2.6,9.7,3.9,16,3.9s12.8-1.4,16-3.9V32c0,2.6-6.6,5.5-16,5.5S2,34.6,2,32V23.6z M2,35.6
			c3.2,2.6,9.7,3.9,16,3.9s12.8-1.4,16-3.9V44c0,2.6-6.6,5.5-16,5.5S2,46.6,2,44V35.6z M18,61.5c-9.4,0-16-2.9-16-5.5v-8.4
			c3.2,2.6,9.7,3.9,16,3.9s12.8-1.4,16-3.9V56C34,58.6,27.4,61.5,18,61.5z M44,55c-2.8,0-5.5-0.3-8-0.8v-10c2.5,0.5,5.2,0.8,8,0.8
			c6.3,0,14.3-1.5,18-4.2v8.7C62,52,53.7,55,44,55z M44,43c-2.8,0-5.6-0.3-8-0.8v-10c2.5,0.5,5.2,0.8,8,0.8c6.3,0,14.3-1.5,18-4.2
			v8.7C62,40,53.7,43,44,43z"/>
	</g>
</g>
</svg>
