<?xml version="1.0" encoding="utf-8"?>
<!-- Generator: Adobe Illustrator 18.0.0, SVG Export Plug-In . SVG Version: 6.00 Build 0)  -->
<!DOCTYPE svg PUBLIC "-//W3C//DTD SVG 1.1//EN" "http://www.w3.org/Graphics/SVG/1.1/DTD/svg11.dtd">
<svg version="1.1" id="Layer_1" xmlns="http://www.w3.org/2000/svg" xmlns:xlink="http://www.w3.org/1999/xlink" x="0px" y="0px"
	 viewBox="0 0 64 64" enable-background="new 0 0 64 64" xml:space="preserve">
<g id="XMLID_3_">
	<g>
		<g>
			<polygon fill="#76E2FF" points="48,15 48.2,15.3 47.5,16 32,31 16.5,16 15.4,15 			"/>
		</g>
	</g>
	<g>
		<g>
			<path fill="#2C2C3D" d="M32,32c-0.3,0-0.5-0.1-0.7-0.3l-31-30C0,1.4-0.1,1,0,0.6C0.2,0.2,0.5,0,1,0h62c0.4,0,0.8,0.2,0.9,0.6
				C64.1,1,64,1.4,63.7,1.7l-31,30C32.5,31.9,32.2,32,32,32z M3.4,2L32,29.6L60.5,2H3.4z"/>
		</g>
		<g>
			<path fill="#2C2C3D" d="M32,64c-0.6,0-1-0.4-1-1V31c0-0.6,0.4-1,1-1s1,0.4,1,1v32C33,63.6,32.6,64,32,64z"/>
		</g>
		<g>
			<path fill="#2C2C3D" d="M43.8,64H20.2c-0.6,0-1-0.4-1-1s0.4-1,1-1h23.5c0.6,0,1,0.4,1,1S44.3,64,43.8,64z"/>
		</g>
		<g>
			<rect x="15" y="14" fill="#2C2C3D" width="33" height="2"/>
		</g>
	</g>
</g>
</svg>
