<?xml version="1.0" encoding="utf-8"?>
<!-- Generator: Adobe Illustrator 18.0.0, SVG Export Plug-In . SVG Version: 6.00 Build 0)  -->
<!DOCTYPE svg PUBLIC "-//W3C//DTD SVG 1.1//EN" "http://www.w3.org/Graphics/SVG/1.1/DTD/svg11.dtd">
<svg version="1.1" id="Layer_1" xmlns="http://www.w3.org/2000/svg" xmlns:xlink="http://www.w3.org/1999/xlink" x="0px" y="0px"
	 viewBox="0 0 64 64" enable-background="new 0 0 64 64" xml:space="preserve">
<g id="XMLID_9_">
	<g>
		<g>
			<path fill="#FFFFFF" d="M62.8,31.4c0.3,0.4,0.3,0.9,0,1.3C60.1,35.8,46.6,50,32,50S3.9,35.7,1.2,32.6c-0.3-0.4-0.3-0.9,0-1.3
				C3.9,28.3,17.4,14,32,14S60.1,28.2,62.8,31.4z M45,32c0-7.2-5.8-13-13-13s-13,5.8-13,13s5.8,13,13,13S45,39.2,45,32z"/>
		</g>
		<g>
			<path fill="#6DC3F7" d="M32,19c7.2,0,13,5.8,13,13s-5.8,13-13,13s-13-5.8-13-13S24.8,19,32,19z M40,27.5c0-1.9-1.6-3.5-3.5-3.5
				c-1.1,0-2,0.5-2.7,1.2C33.2,25.1,32.6,25,32,25c-3.9,0-7,3.1-7,7s3.1,7,7,7s7-3.1,7-7c0-0.6-0.1-1.2-0.2-1.8
				C39.5,29.5,40,28.6,40,27.5z"/>
		</g>
		<g>
			<path fill="#FFFFFF" d="M38.8,30.2c-0.6,0.5-1.4,0.8-2.2,0.8c-1.9,0-3.5-1.6-3.5-3.5c0-0.9,0.3-1.6,0.8-2.3
				c0.6-0.8,1.6-1.2,2.7-1.2c1.9,0,3.5,1.6,3.5,3.5C40,28.6,39.5,29.5,38.8,30.2z"/>
		</g>
		<g>
			<path fill="#3F97E0" d="M38.8,30.2c0.2,0.6,0.2,1.2,0.2,1.8c0,3.9-3.1,7-7,7s-7-3.1-7-7s3.1-7,7-7c0.6,0,1.2,0.1,1.8,0.2
				c-0.5,0.6-0.8,1.4-0.8,2.3c0,1.9,1.6,3.5,3.5,3.5C37.3,31,38.2,30.7,38.8,30.2z"/>
		</g>
	</g>
	<g>
		<g>
			<path fill="#2C2C3D" d="M32,51C15.7,51,1.1,34,0.5,33.3c-0.6-0.7-0.6-1.8,0-2.6C1.1,30,15.7,13,32,13c16.2,0,30.9,17,31.5,17.7
				c0.6,0.8,0.6,1.8,0,2.6C62.9,34,48.2,51,32,51z M32,15C16.7,15,2.6,31.3,2,32c0.6,0.7,14.7,17,30,17c15.3,0,29.4-16.3,30-17
				C61.4,31.3,47.3,15,32,15z"/>
		</g>
		<g>
			<path fill="#2C2C3D" d="M32,46c-7.7,0-14-6.3-14-14s6.3-14,14-14s14,6.3,14,14S39.7,46,32,46z M32,20c-6.6,0-12,5.4-12,12
				s5.4,12,12,12s12-5.4,12-12S38.6,20,32,20z"/>
		</g>
		<g>
			<path fill="#2C2C3D" d="M32,40c-4.4,0-8-3.6-8-8s3.6-8,8-8c0.7,0,1.4,0.1,2.1,0.3c0.5,0.1,0.8,0.7,0.7,1.2
				c-0.1,0.5-0.7,0.8-1.2,0.7c-0.5-0.1-1-0.2-1.6-0.2c-3.3,0-6,2.7-6,6s2.7,6,6,6s6-2.7,6-6c0-0.5-0.1-1-0.2-1.6c0-0.1,0-0.2,0-0.3
				c0-0.6,0.4-1,1-1c0.5,0,0.9,0.3,1,0.8c0.2,0.7,0.3,1.3,0.3,2C40,36.4,36.4,40,32,40z"/>
		</g>
		<g>
			<path fill="#2C2C3D" d="M36.5,32C34,32,32,30,32,27.5c0-1.1,0.4-2.1,1.1-2.9c0.8-1,2.1-1.6,3.4-1.6c2.5,0,4.5,2,4.5,4.5
				c0,1.3-0.6,2.6-1.6,3.4C38.6,31.6,37.6,32,36.5,32z M36.5,25c-0.7,0-1.4,0.3-1.9,0.9c-0.4,0.5-0.6,1-0.6,1.6
				c0,1.4,1.1,2.5,2.5,2.5c0.6,0,1.2-0.2,1.6-0.6c0.6-0.5,0.9-1.2,0.9-1.9C39,26.1,37.9,25,36.5,25z"/>
		</g>
	</g>
</g>
</svg>
