<?xml version="1.0" encoding="utf-8"?>
<!-- Generator: Adobe Illustrator 18.0.0, SVG Export Plug-In . SVG Version: 6.00 Build 0)  -->
<!DOCTYPE svg PUBLIC "-//W3C//DTD SVG 1.1//EN" "http://www.w3.org/Graphics/SVG/1.1/DTD/svg11.dtd">
<svg version="1.1" id="Layer_1" xmlns="http://www.w3.org/2000/svg" xmlns:xlink="http://www.w3.org/1999/xlink" x="0px" y="0px"
	 viewBox="0 0 64 64" enable-background="new 0 0 64 64" xml:space="preserve">
<g id="XMLID_1_">
	<g>
		<g>
			<path fill="#31C3A6" d="M49.4,9.3c3.7,4.5,5.4,10.2,5,15.7L54,25c-2.3-0.1-4.7-0.7-7.1-1.6C49.4,18.4,50.3,13.4,49.4,9.3
				L49.4,9.3z"/>
		</g>
		<g>
			<path fill="#31C3A6" d="M54,25l0.4,0c-0.3,5.2-2.5,10.4-6.5,14.4L40.5,32h0c2.7-2.7,4.8-5.7,6.4-8.7C49.3,24.3,51.7,24.8,54,25z"
				/>
		</g>
		<g>
			<path fill="#49A3DF" d="M49.3,9.3c1,4.1,0.1,9.1-2.5,14c-3.1-1.3-6.1-3.3-8.8-5.9c-2.7-2.7-4.6-5.7-5.9-8.8
				c4.9-2.5,9.9-3.4,14-2.5l0.1-0.1c0.5,0.4,1,0.8,1.5,1.3c0.1,0.1,0.2,0.1,0.2,0.2C48.5,8.1,49,8.7,49.3,9.3L49.3,9.3z"/>
		</g>
		<g>
			<path fill="#EF3A59" d="M48,63H18c0-1.7,0.7-3.2,1.8-4.2c1.1-1.1,2.6-1.8,4.2-1.8h9h9C45.3,57,48,59.7,48,63z"/>
		</g>
		<g>
			<path fill="#49A3DF" d="M40.5,32l7.4,7.4c-4,4-9.2,6.2-14.4,6.5l0-0.4c-0.1-2.3-0.7-4.7-1.6-7.1C34.8,36.8,37.8,34.7,40.5,32z"/>
		</g>
		<g>
			<path fill="#49A3DF" d="M38.1,17.4c2.7,2.7,5.7,4.7,8.8,5.9c-1.5,3-3.7,6-6.4,8.7h0l-17-17c2.7-2.7,5.7-4.9,8.7-6.4
				C33.5,11.7,35.5,14.7,38.1,17.4z"/>
		</g>
		<g>
			<path fill="#31C3A6" d="M46.2,6.1L46.2,6.1c-4.1-0.9-9.1,0-14,2.5c-1-2.4-1.5-4.8-1.6-7.1l0-0.4C36,0.7,41.7,2.4,46.2,6.1z"/>
		</g>
		<g>
			<path fill="#31C3A6" d="M23.5,15l17,17c-2.7,2.7-5.7,4.9-8.7,6.4c-1.3-3.1-3.3-6.1-5.9-8.8c-2.7-2.7-5.7-4.7-8.8-5.9
				C18.6,20.7,20.8,17.7,23.5,15z"/>
		</g>
		<g>
			<path fill="#31C3A6" d="M33.5,45.5l0,0.4c-5.5,0.4-11.2-1.3-15.7-5l0.1-0.1c4.1,1,9.1,0.1,14-2.5C32.8,40.8,33.3,43.2,33.5,45.5z
				"/>
		</g>
		<g>
			<path fill="#49A3DF" d="M25.9,29.6c2.7,2.7,4.7,5.7,5.9,8.8c-4.9,2.5-9.9,3.4-14,2.5l-0.1,0.1c-0.6-0.5-1.1-1-1.7-1.5
				c-0.2-0.2-0.4-0.4-0.6-0.6c-0.3-0.3-0.6-0.7-0.9-1.1l0.1-0.1c-1-4.1-0.1-9.1,2.5-14C20.2,25,23.2,27,25.9,29.6z"/>
		</g>
		<g>
			<path fill="#49A3DF" d="M30.5,1.5c0.1,2.3,0.7,4.8,1.6,7.1c-3,1.5-6,3.7-8.7,6.4l-7.4-7.4c4-4,9.2-6.2,14.4-6.5L30.5,1.5z"/>
		</g>
		<g>
			<path fill="#31C3A6" d="M16.1,7.6l7.4,7.4c-2.7,2.7-4.9,5.7-6.4,8.7c-2.4-1-4.8-1.5-7.1-1.6l-0.4,0C9.9,16.8,12.1,11.6,16.1,7.6z
				"/>
		</g>
		<g>
			<path fill="#31C3A6" d="M14.6,37.7L14.6,37.7C10.9,33.2,9.2,27.5,9.6,22l0.4,0c2.3,0.1,4.8,0.7,7.1,1.6
				C14.6,28.6,13.7,33.6,14.6,37.7z"/>
		</g>
	</g>
	<path fill="#2C2C3D" d="M52.1,43.6c11.1-11.1,11.1-29.1,0-40.2C51.4,2.6,51,2.8,47.7,6c-0.3-0.2-0.5-0.5-0.8-0.7
		C42.7,1.9,37.4,0,32,0c-0.5,0-1.1,0-1.6,0.1c-5.7,0.4-11,2.8-15.1,6.8c-4,4-6.5,9.4-6.8,15.1c-0.4,6,1.5,11.8,5.2,16.4
		c0.1,0.1,0.2,0.3,0.3,0.4c-1.8,1.7-2.8,2.8-2.8,2.8c-0.4,0.4-0.4,1,0,1.4c0.2,0.2,0.4,0.4,0.6,0.6c5.4,5.4,12.5,8.3,20.1,8.3V56h-8
		c-1.9,0-3.6,0.7-4.9,2c-1.3,1.3-2.1,3.1-2.1,5c0,0.6,0.4,1,1,1h30c0,0,0,0,0,0c0.6,0,1-0.4,1-1c0-0.1,0-0.1,0-0.2
		C48.9,59,45.8,56,42,56h-8v-4.2C40.8,51.4,47.2,48.5,52.1,43.6z M46.9,62H19.1c0.2-1,0.7-1.8,1.4-2.5c0.9-0.9,2.2-1.5,3.5-1.5h18
		C44.4,58,46.4,59.7,46.9,62z M16.2,38.1c-0.2-0.2-0.4-0.5-0.6-0.7c-0.8-3.6-0.1-8,2-12.4c2.7,1.3,5.3,3.1,7.6,5.3
		c2.2,2.2,4.1,4.8,5.3,7.6c-4.4,2.1-8.8,2.8-12.4,2c-0.4-0.4-0.9-0.7-1.3-1.2C16.6,38.5,16.5,38.4,16.2,38.1L16.2,38.1z M16.1,9l6,6
		c-2.2,2.3-4,4.8-5.5,7.4c-2-0.7-4-1.2-6-1.4C11.2,16.6,13.1,12.4,16.1,9z M31,8.2c-2.6,1.4-5.1,3.3-7.4,5.5l-6-6
		c3.3-3.1,7.6-5,12.1-5.5C29.8,4.2,30.2,6.2,31,8.2z M45.9,7.1c0.4,0.3,0.7,0.6,1.1,1c0.1,0.1,0.1,0.1,0.2,0.2
		c0.4,0.4,0.8,0.9,1.2,1.3c0.8,3.6,0.1,8-2,12.4c-2.7-1.3-5.3-3.1-7.6-5.3c-2.2-2.2-4.1-4.8-5.3-7.6C37.9,7,42.3,6.3,45.9,7.1z
		 M32.3,37c-1.4-2.9-3.3-5.7-5.7-8.1c-2.4-2.4-5.1-4.3-8.1-5.7c1.3-2.4,3-4.7,5-6.8L39,32C36.9,34,34.7,35.6,32.3,37z M24.9,15
		c2.1-2,4.4-3.7,6.8-5c1.4,2.9,3.3,5.7,5.7,8.1c2.4,2.4,5.1,4.3,8.1,5.7c-1.3,2.4-3,4.7-5,6.8L24.9,15z M31.2,39.8
		c0.6,1.7,1,3.5,1.2,5.2c-3.8,0.1-7.6-0.9-10.9-2.7C24.5,42.2,27.9,41.3,31.2,39.8z M34.4,44.8c-0.2-2-0.6-4-1.4-6
		c2.6-1.4,5.1-3.3,7.4-5.5l6,6C43.1,42.4,38.9,44.3,34.4,44.8z M47.9,38l-6-6c2.2-2.3,4-4.8,5.5-7.4c2,0.7,4,1.2,6,1.4
		C52.8,30.4,50.9,34.6,47.9,38z M53.5,23.9c-1.7-0.1-3.5-0.5-5.2-1.2c1.6-3.4,2.4-6.7,2.5-9.8C52.6,16.3,53.5,20,53.5,23.9z
		 M42.6,4.8c-3.1,0-6.4,0.9-9.8,2.5c-0.6-1.8-1-3.5-1.2-5.2c0.2,0,0.3,0,0.4,0C35.7,2,39.4,3,42.6,4.8z M10.5,23.1
		c1.7,0.1,3.5,0.5,5.2,1.2c-1.6,3.4-2.4,6.7-2.5,9.8C11.4,30.7,10.5,27,10.5,23.1z M13.4,42.3c0.5-0.5,1.2-1.2,2.1-2
		c0.6,0.6,1.1,1.1,1.7,1.5C21.3,45.1,26.6,47,32,47c0.5,0,1.1,0,1.6-0.1c5.7-0.4,11-2.8,15.1-6.8c4-4,6.5-9.4,6.8-15.1
		c0.4-6-1.5-11.8-5.2-16.4c-0.3-0.4-0.7-0.8-1.1-1.3c1.1-1,1.8-1.7,2.2-2C61,15.7,60.8,32,50.7,42.2c-5,5-11.6,7.7-18.7,7.7
		C25,49.9,18.4,47.2,13.4,42.3z"/>
</g>
</svg>
