<?xml version="1.0" encoding="utf-8"?>
<!-- Generator: Adobe Illustrator 18.0.0, SVG Export Plug-In . SVG Version: 6.00 Build 0)  -->
<!DOCTYPE svg PUBLIC "-//W3C//DTD SVG 1.1//EN" "http://www.w3.org/Graphics/SVG/1.1/DTD/svg11.dtd">
<svg version="1.1" id="Layer_1" xmlns="http://www.w3.org/2000/svg" xmlns:xlink="http://www.w3.org/1999/xlink" x="0px" y="0px"
	 viewBox="0 0 64 64" enable-background="new 0 0 64 64" xml:space="preserve">
<g>
	<g>
		<path fill="#F94646" d="M63,20.3C63,11.3,56.4,4,47.5,4c-6.8,0-12.3,4.3-14.6,10.3C30.5,8.3,24.3,4,17.5,4C8.6,4,1,11.3,1,20.3
			c0,0.1,0,0.9,0,1.2C1,38.3,33.1,60,33.1,60S63,38.3,63,21.5C63,21.2,63,20.5,63,20.3z"/>
	</g>
	<g>
		<path fill="#2C2C3D" d="M33.1,61c-0.2,0-0.4-0.1-0.6-0.2C31.3,59.9,0,38.6,0,21.5v-1.2C0,10.9,8,3,17.5,3c6.3,0,12.3,3.6,15.3,8.9
			c3-5.5,8.5-8.9,14.7-8.9C56.8,3,64,10.6,64,20.3v1.2c0,7.2-5.1,16-15.2,26.2c-7.4,7.5-15,13-15,13.1C33.6,60.9,33.4,61,33.1,61z
			 M17.5,5C9.1,5,2,12,2,20.3v1.2c0,14.8,26.8,34.2,31.1,37.3C37.2,55.7,62,36.3,62,21.5v-1.2C62,11.7,55.6,5,47.5,5
			c-6.1,0-11.4,3.7-13.7,9.7c-0.2,0.4-0.5,0.6-0.9,0.6c-0.4,0-0.8-0.3-0.9-0.6C29.7,9,23.8,5,17.5,5z"/>
	</g>
</g>
</svg>
