<?xml version="1.0" encoding="utf-8"?>
<!-- Generator: Adobe Illustrator 18.0.0, SVG Export Plug-In . SVG Version: 6.00 Build 0)  -->
<!DOCTYPE svg PUBLIC "-//W3C//DTD SVG 1.1//EN" "http://www.w3.org/Graphics/SVG/1.1/DTD/svg11.dtd">
<svg version="1.1" id="Layer_1" xmlns="http://www.w3.org/2000/svg" xmlns:xlink="http://www.w3.org/1999/xlink" x="0px" y="0px"
	 viewBox="0 0 64 64" enable-background="new 0 0 64 64" xml:space="preserve">
<g>
	<g id="XMLID_7_">
		<g>
			<g>
				<path fill="#E15D23" d="M60.7,3.7c3.5,3.5,3.5,9.1,0,12.6L58.1,19L18.6,58.5l-1.8,1.8c-3.5,3.5-9.1,3.5-12.6,0l-0.4-0.5
					c-3.5-3.5-3.5-9.2,0-12.6l2-2L45.2,5.7l2.4-2.4c3.5-3.5,9.2-3.5,12.6,0L60.7,3.7z"/>
			</g>
			<g>
				<path fill="#F9B84E" d="M59.1,19.9c3.4,3.4,3.4,9,0,12.5L32,59.5c-3.4,3.4-9,3.4-12.4,0l-1-1L58.1,19L59.1,19.9z"/>
			</g>
			<g>
				<path fill="#F9B84E" d="M45.2,5.7L5.7,45.2l-1.1-1.1c-3.4-3.4-3.4-9,0-12.5L31.6,4.5c3.4-3.4,9-3.4,12.5,0L45.2,5.7z"/>
			</g>
		</g>
		<g>
			<g>
				<path fill="#2C2C3D" d="M10.5,63.9c-2.7,0-5.2-1-7-2.9L3,60.5c-3.9-3.9-3.9-10.2,0-14.1l2-2l42-42c1.9-1.9,4.4-2.9,7-2.9
					s5.2,1,7,2.9L61.4,3c1.9,1.9,2.9,4.4,2.9,7s-1,5.2-2.9,7l-2.6,2.6L17.5,61C15.6,62.9,13.1,63.9,10.5,63.9z M54,1.6
					c-2.1,0-4.1,0.8-5.6,2.3L4.4,47.9C1.3,51,1.3,56,4.4,59.1l0.5,0.5c1.5,1.5,3.5,2.3,5.6,2.3s4.1-0.8,5.6-2.3L60,15.7
					c3.1-3.1,3.1-8.1,0-11.2L59.6,4C58.1,2.5,56.1,1.6,54,1.6z"/>
			</g>
			<g>
				<path fill="#2C2C3D" d="M25.8,63.1c-2.6,0-5.1-1-6.9-2.9c-0.4-0.4-0.4-1,0-1.4s1-0.4,1.4,0c3,3,8,3,11,0l27.1-27.1c3-3,3-8,0-11
					c-0.4-0.4-0.4-1,0-1.4s1-0.4,1.4,0c1.9,1.9,2.9,4.3,2.9,6.9s-1,5.1-2.9,6.9L32.7,60.2C30.9,62,28.4,63.1,25.8,63.1z"/>
			</g>
			<g>
				<path fill="#2C2C3D" d="M4.5,45.1c-0.3,0-0.5-0.1-0.7-0.3c-1.9-1.9-2.9-4.3-2.9-6.9c0-2.6,1-5.1,2.9-6.9L30.9,3.8
					C32.8,2,35.2,1,37.9,1s5.1,1,6.9,2.9c0.4,0.4,0.4,1,0,1.4s-1,0.4-1.4,0c-3-3-8-3-11,0L5.2,32.3c-3,3-3,8,0,11
					c0.4,0.4,0.4,1,0,1.4C5,45,4.8,45.1,4.5,45.1z"/>
			</g>
			<g>
				<path fill="#2C2C3D" d="M10.2,55.8c-0.6,0-1-0.4-1-1c0-3.4,2.8-6.2,6.2-6.2c1.1,0,2.2-0.4,3-1.2c0.8-0.8,1.2-1.8,1.2-3
					c0-1.9,0.7-3.7,2.1-5.1c1.4-1.4,3.2-2.1,5.1-2.1h1c2.3,0,4.2-1.9,4.2-4.2V31c0-3.4,2.8-6.2,6.2-6.2h1c2.3,0,4.2-1.9,4.2-4.2
					v-2.1c0-3.4,2.8-6.2,6.2-6.2c1.1,0,2.2-0.4,2.9-1.2c0.8-0.8,1.2-1.8,1.2-3c0-0.6,0.4-1,1-1s1,0.4,1,1c0,1.6-0.6,3.2-1.8,4.4
					c-1.2,1.2-2.7,1.8-4.4,1.8c-2.3,0-4.2,1.9-4.2,4.2v2.1c0,3.4-2.8,6.2-6.2,6.2h-1c-2.3,0-4.2,1.9-4.2,4.2V33
					c0,3.4-2.8,6.2-6.2,6.2h-1c-1.4,0-2.7,0.5-3.7,1.5c-1,1-1.5,2.3-1.5,3.7c0,1.6-0.6,3.2-1.8,4.4s-2.7,1.8-4.4,1.8
					c-2.3,0-4.2,1.9-4.2,4.2C11.2,55.4,10.8,55.8,10.2,55.8z"/>
			</g>
		</g>
	</g>
</g>
</svg>
