<?xml version="1.0" encoding="utf-8"?>
<!-- Generator: Adobe Illustrator 18.0.0, SVG Export Plug-In . SVG Version: 6.00 Build 0)  -->
<!DOCTYPE svg PUBLIC "-//W3C//DTD SVG 1.1//EN" "http://www.w3.org/Graphics/SVG/1.1/DTD/svg11.dtd">
<svg version="1.1" id="Layer_1" xmlns="http://www.w3.org/2000/svg" xmlns:xlink="http://www.w3.org/1999/xlink" x="0px" y="0px"
	 viewBox="0 0 64 64" enable-background="new 0 0 64 64" xml:space="preserve">
<g id="XMLID_8_">
	<g>
		<g>
			<path fill="#F995B0" d="M49,21v0.1c0,1.6-1.3,2.8-2.8,2.8H44h-5.2H24.5h-6h-2.7c-1.6,0-2.8-1.3-2.8-2.8V21c0-1.2,0.8-2.3,1.9-2.7
				c0-0.3,0-0.7,0-1C14.9,8.4,22.1,1,31,1s16.1,7.4,16.1,16.3c0,0.4,0,0.7,0,1C48.2,18.7,49,19.8,49,21z"/>
		</g>
		<g>
			<polygon fill="#F4CBA8" points="44,24 40.5,35 31.5,28.8 38.8,24 			"/>
		</g>
		<g>
			<polygon fill="#F4CBA8" points="40.5,35 37.3,45 31.5,41.2 			"/>
		</g>
		<g>
			<polygon fill="#F4CBA8" points="40.5,35 31.5,41.2 22.2,35 31.5,28.8 			"/>
		</g>
		<g>
			<polygon fill="#F4CBA8" points="38.8,24 31.5,28.8 24.5,24 			"/>
		</g>
		<g>
			<polygon fill="#F4CBA8" points="31.5,41.2 37.3,45 37.3,45 31.2,50.3 25.6,45.3 25.6,45.2 			"/>
		</g>
		<g>
			<polygon fill="#F4CBA8" points="31.2,50.3 37.3,45 31.5,63 28.2,53 			"/>
		</g>
		<g>
			<polygon fill="#F4CBA8" points="24.5,24 31.5,28.8 22.2,35 18.5,24 			"/>
		</g>
		<g>
			<polygon fill="#F4CBA8" points="31.5,41.2 25.6,45.2 22.2,35 			"/>
		</g>
		<g>
			<polygon fill="#F4CBA8" points="25.6,45.3 31.2,50.3 28.2,53 			"/>
		</g>
	</g>
	<g>
		<g>
			<path fill="#2C2C3D" d="M40.5,36c-0.1,0-0.2,0-0.3,0c-0.5-0.2-0.8-0.7-0.6-1.3l3.5-11c0.2-0.5,0.7-0.8,1.3-0.6
				c0.5,0.2,0.8,0.7,0.6,1.3l-3.5,11C41.3,35.8,40.9,36,40.5,36z"/>
		</g>
		<g>
			<path fill="#2C2C3D" d="M25.6,46.3c-0.4,0-0.8-0.3-0.9-0.7l-7.1-21.3c-0.2-0.5,0.1-1.1,0.6-1.3c0.5-0.2,1.1,0.1,1.3,0.6l7.1,21.2
				c0.2,0.5-0.1,1.1-0.6,1.3C25.8,46.2,25.7,46.3,25.6,46.3z"/>
		</g>
		<g>
			<path fill="#2C2C3D" d="M31.5,64c-0.4,0-0.8-0.3-0.9-0.7l-5.9-17.7c-0.2-0.5,0.1-1.1,0.6-1.3c0.5-0.2,1.1,0.1,1.3,0.6l4.9,14.8
				l4.8-15.1c0.2-0.5,0.7-0.8,1.3-0.6c0.5,0.2,0.8,0.7,0.6,1.3l-5.8,18C32.3,63.7,31.9,64,31.5,64C31.5,64,31.5,64,31.5,64z"/>
		</g>
		<g>
			<path fill="#2C2C3D" d="M46.2,25H15.8c-2.1,0-3.8-1.7-3.8-3.8V21c0-1.4,0.7-2.6,1.9-3.3c0-0.1,0-0.3,0-0.4C13.9,7.8,21.6,0,31,0
				s17.1,7.8,17.1,17.3c0,0.1,0,0.3,0,0.4c1.2,0.7,1.9,1.9,1.9,3.3v0.1C50,23.3,48.3,25,46.2,25z M31,2c-8.3,0-15.1,6.9-15.1,15.3
				c0,0.3,0,0.6,0,1c0,0.4-0.2,0.9-0.7,1c-0.7,0.3-1.3,1-1.3,1.7v0.1c0,1,0.8,1.8,1.8,1.8h30.3c1,0,1.8-0.8,1.8-1.8V21
				c0-0.8-0.5-1.5-1.3-1.7c-0.4-0.1-0.7-0.6-0.7-1c0-0.3,0-0.7,0-1C46.1,8.9,39.3,2,31,2z"/>
		</g>
		<g>
			<path fill="#2C2C3D" d="M34.2,54c-0.2,0-0.5-0.1-0.7-0.3L24.9,46c-0.2-0.2-0.4-0.5-0.3-0.8c0-0.3,0.2-0.6,0.4-0.8L38.7,35
				L23.9,24.8c-0.5-0.3-0.6-0.9-0.3-1.4s0.9-0.6,1.4-0.3l16,11c0.3,0.2,0.4,0.5,0.4,0.8s-0.2,0.6-0.4,0.8l-13.8,9.5l7.7,6.9
				c0.4,0.4,0.4,1,0.1,1.4C34.8,53.9,34.5,54,34.2,54z"/>
		</g>
		<g>
			<path fill="#2C2C3D" d="M28.2,54c-0.3,0-0.6-0.1-0.8-0.3c-0.4-0.4-0.3-1,0.1-1.4l8.9-7.8l3.1-9.7c0.2-0.5,0.7-0.8,1.3-0.6
				c0.5,0.2,0.8,0.7,0.6,1.3l-3.2,9.9c-0.1,0.2-0.2,0.4-0.3,0.5l-9.1,8C28.6,53.9,28.4,54,28.2,54z"/>
		</g>
		<g>
			<path fill="#2C2C3D" d="M37.3,46c-0.2,0-0.4-0.1-0.6-0.2l-15.1-10c-0.3-0.2-0.4-0.5-0.4-0.8c0-0.3,0.2-0.6,0.4-0.8l16.6-11
				c0.5-0.3,1.1-0.2,1.4,0.3s0.2,1.1-0.3,1.4L24,35l13.8,9.1c0.5,0.3,0.6,0.9,0.3,1.4C37.9,45.9,37.6,46,37.3,46z"/>
		</g>
	</g>
</g>
</svg>
