<?xml version="1.0" encoding="utf-8"?>
<!-- Generator: Adobe Illustrator 18.0.0, SVG Export Plug-In . SVG Version: 6.00 Build 0)  -->
<!DOCTYPE svg PUBLIC "-//W3C//DTD SVG 1.1//EN" "http://www.w3.org/Graphics/SVG/1.1/DTD/svg11.dtd">
<svg version="1.1" id="Layer_1" xmlns="http://www.w3.org/2000/svg" xmlns:xlink="http://www.w3.org/1999/xlink" x="0px" y="0px"
	 viewBox="0 0 64 64" enable-background="new 0 0 64 64" xml:space="preserve">
<g>
	<g id="XMLID_8_">
		<g>
			<g>
				<g>
					<path fill="#FCCE4C" d="M63,31v25c0,1.1-0.9,2-2,2H3c-1.1,0-2-0.9-2-2V31h18l2.1,7.2c0.5,1.7,2.1,2.8,3.8,2.8h14
						c1.8,0,3.1-0.3,3.6-2c0.9-2.9,2.4-8,2.4-8H63z"/>
				</g>
			</g>
			<g>
				<g>
					<path fill="#C1945F" d="M50.5,6.6L63,31H45c0,0-1.5,5.1-2.4,8c-0.5,1.7-1.8,2-3.6,2H25c-1.8,0-3.3-1.2-3.8-2.8L19,31H1L14,6.6
						C14.2,6.2,14.5,6,14.9,6h34.8C50,6,50.4,6.2,50.5,6.6z"/>
				</g>
			</g>
		</g>
		<g>
			<g>
				<g>
					<path fill="#2C2C3D" d="M39,42H25c-2.2,0-4.2-1.4-4.8-3.6L18.3,32H1c-0.6,0-1-0.4-1-1s0.4-1,1-1h18c0.4,0,0.8,0.3,1,0.7
						l2.1,7.1c0.4,1.3,1.5,2.1,2.9,2.1h14c1.9,0,2.4-0.4,2.6-1.3c0.9-2.9,2.4-8,2.4-8c0.1-0.4,0.5-0.7,1-0.7h18c0.6,0,1,0.4,1,1
						s-0.4,1-1,1H45.7c-0.5,1.5-1.5,5.1-2.2,7.3C42.7,42,40.2,42,39,42z"/>
				</g>
			</g>
			<g>
				<g>
					<path fill="#2C2C3D" d="M61,59H3c-1.7,0-3-1.3-3-3V31c0-0.2,0-0.3,0.1-0.5l13-24.5c0.3-0.6,1-1.1,1.8-1.1h34.8
						c0.8,0,1.4,0.4,1.8,1.1l12.4,24.4C64,30.7,64,30.8,64,31v25C64,57.7,62.7,59,61,59z M2,31.2V56c0,0.6,0.4,1,1,1h58
						c0.6,0,1-0.4,1-1V31.2L49.7,7L14.9,7L2,31.2z"/>
				</g>
			</g>
		</g>
	</g>
</g>
</svg>
