<?xml version="1.0" encoding="utf-8"?>
<!-- Generator: Adobe Illustrator 18.0.0, SVG Export Plug-In . SVG Version: 6.00 Build 0)  -->
<!DOCTYPE svg PUBLIC "-//W3C//DTD SVG 1.1//EN" "http://www.w3.org/Graphics/SVG/1.1/DTD/svg11.dtd">
<svg version="1.1" id="Layer_1" xmlns="http://www.w3.org/2000/svg" xmlns:xlink="http://www.w3.org/1999/xlink" x="0px" y="0px"
	 viewBox="0 0 64 64" enable-background="new 0 0 64 64" xml:space="preserve">
<g id="XMLID_1_">
	<g>
		<g>
			<g>
				<path fill="#58677A" d="M50,4v56c0,1.7-1.3,3-3,3H17c-1.7,0-3-1.3-3-3V4c0-1.7,1.3-3,3-3h30C48.7,1,50,2.3,50,4z M46,50V11H18
					v39H46z M34.5,56.5c0-1.4-1.1-2.5-2.5-2.5c-1.4,0-2.5,1.1-2.5,2.5S30.6,59,32,59C33.4,59,34.5,57.9,34.5,56.5z"/>
			</g>
		</g>
		<g>
			<g>
				<rect x="18" y="11" fill="#B1DAE5" width="28" height="39"/>
			</g>
		</g>
		<g>
			<g>
				<circle fill="#58677A" cx="32" cy="56.5" r="2.5"/>
			</g>
		</g>
	</g>
	<g>
		<g>
			<g>
				<path fill="#2C2C3D" d="M47,64H17c-2.2,0-4-1.8-4-4V4c0-2.2,1.8-4,4-4h30c2.2,0,4,1.8,4,4v56C51,62.2,49.2,64,47,64z M17,2
					c-1.1,0-2,0.9-2,2v56c0,1.1,0.9,2,2,2h30c1.1,0,2-0.9,2-2V4c0-1.1-0.9-2-2-2H17z"/>
			</g>
		</g>
		<g>
			<g>
				<path fill="#2C2C3D" d="M32,60c-1.9,0-3.5-1.6-3.5-3.5S30.1,53,32,53s3.5,1.6,3.5,3.5S33.9,60,32,60z M32,55
					c-0.8,0-1.5,0.7-1.5,1.5S31.2,58,32,58s1.5-0.7,1.5-1.5S32.8,55,32,55z"/>
			</g>
		</g>
		<g>
			<g>
				<path fill="#2C2C3D" d="M36,7h-8c-0.6,0-1-0.4-1-1s0.4-1,1-1h8c0.6,0,1,0.4,1,1S36.6,7,36,7z"/>
			</g>
		</g>
		<g>
			<g>
				<path fill="#2C2C3D" d="M46,51H18c-0.6,0-1-0.4-1-1V11c0-0.6,0.4-1,1-1h28c0.6,0,1,0.4,1,1v39C47,50.6,46.6,51,46,51z M19,49h26
					V12H19V49z"/>
			</g>
		</g>
		<g>
			<g>
				<path fill="#2C2C3D" d="M24,7h-1c-0.6,0-1-0.4-1-1s0.4-1,1-1h1c0.6,0,1,0.4,1,1S24.6,7,24,7z"/>
			</g>
		</g>
	</g>
</g>
</svg>
