<?xml version="1.0" encoding="utf-8"?>
<!-- Generator: Adobe Illustrator 18.0.0, SVG Export Plug-In . SVG Version: 6.00 Build 0)  -->
<!DOCTYPE svg PUBLIC "-//W3C//DTD SVG 1.1//EN" "http://www.w3.org/Graphics/SVG/1.1/DTD/svg11.dtd">
<svg version="1.1" id="Layer_1" xmlns="http://www.w3.org/2000/svg" xmlns:xlink="http://www.w3.org/1999/xlink" x="0px" y="0px"
	 viewBox="0 0 64 64" enable-background="new 0 0 64 64" xml:space="preserve">
<g>
	<g id="XMLID_9_">
		<g>
			<g>
				<path fill="#FFD655" d="M43,28v33c0,1.1-0.9,2-2,2H22c-1.1,0-2-0.9-2-2v-5h0.9h7.4V29h-7.4H20v-1c0-2.4,1.2-4.5,3.1-5.8
					c1.1-0.8,2.5-1.2,3.9-1.2h9c1.4,0,2.8,0.4,3.9,1.2C41.8,23.5,43,25.6,43,28z"/>
			</g>
			<g>
				<path fill="#FFBB4D" d="M40,17v5l-0.1,0.2C38.8,21.4,37.4,21,36,21h-9c-1.4,0-2.8,0.4-3.9,1.2L23,22v-5c0-1.1,0.9-2,2-2h3h6.9
					H38C39.1,15,40,15.9,40,17z"/>
			</g>
			<g>
				<polygon fill="#FFBB4D" points="34,1 34.9,15 28,15 29,1 				"/>
			</g>
			<g>
				<polygon fill="#FFBB4D" points="28.3,29 28.3,56 20.9,56 20,56 20,29 20.9,29 				"/>
			</g>
		</g>
		<g>
			<g>
				<path fill="#2C2C3D" d="M41,64H22c-1.7,0-3-1.3-3-3V28c0-2.7,1.3-5.1,3.5-6.6c1.3-0.9,2.9-1.4,4.5-1.4h9c1.6,0,3.1,0.5,4.5,1.4
					c2.2,1.5,3.5,4,3.5,6.6v33C44,62.7,42.7,64,41,64z M27,22c-1.2,0-2.4,0.4-3.3,1C22,24.2,21,26,21,28v33c0,0.6,0.4,1,1,1h19
					c0.6,0,1-0.4,1-1V28c0-2-1-3.8-2.7-5c-1-0.7-2.1-1-3.3-1H27z"/>
			</g>
			<g>
				<path fill="#2C2C3D" d="M40,23c-0.6,0-1-0.4-1-1v-5c0-0.6-0.4-1-1-1h-3.1c-0.6,0-1-0.4-1-1s0.4-1,1-1H38c1.7,0,3,1.3,3,3v5
					C41,22.6,40.6,23,40,23z"/>
			</g>
			<g>
				<path fill="#2C2C3D" d="M23,23c-0.6,0-1-0.4-1-1v-5c0-1.7,1.3-3,3-3h3c0.6,0,1,0.4,1,1s-0.4,1-1,1h-3c-0.6,0-1,0.4-1,1v5
					C24,22.6,23.6,23,23,23z"/>
			</g>
			<g>
				<path fill="#2C2C3D" d="M28.3,57h-7.4c-0.6,0-1-0.4-1-1s0.4-1,1-1h6.4V30h-6.4c-0.6,0-1-0.4-1-1s0.4-1,1-1h7.4c0.6,0,1,0.4,1,1
					v27C29.3,56.6,28.8,57,28.3,57z"/>
			</g>
			<g>
				<path fill="#2C2C3D" d="M34.9,16C34.9,16,34.9,16,34.9,16H28c-0.3,0-0.5-0.1-0.7-0.3c-0.2-0.2-0.3-0.5-0.3-0.8l1-14
					C28,0.4,28.5,0,29,0h5c0.5,0,1,0.4,1,0.9l0.9,13.8c0,0.1,0,0.2,0,0.3C35.9,15.6,35.5,16,34.9,16z M29.1,14h4.8L33.1,2h-3.1
					L29.1,14z"/>
			</g>
		</g>
	</g>
</g>
</svg>
