<?xml version="1.0" encoding="utf-8"?>
<!-- Generator: Adobe Illustrator 18.0.0, SVG Export Plug-In . SVG Version: 6.00 Build 0)  -->
<!DOCTYPE svg PUBLIC "-//W3C//DTD SVG 1.1//EN" "http://www.w3.org/Graphics/SVG/1.1/DTD/svg11.dtd">
<svg version="1.1" id="Layer_1" xmlns="http://www.w3.org/2000/svg" xmlns:xlink="http://www.w3.org/1999/xlink" x="0px" y="0px"
	 viewBox="0 0 64 64" enable-background="new 0 0 64 64" xml:space="preserve">
<g id="XMLID_12_">
	<g>
		<g>
			<path fill="#FFFFFF" d="M56,48l0.1,0.1c-2.8,4.2-6.6,7.6-11.2,9.8L40,45l-0.1-0.2c1.6-1,3-2.3,4.1-3.8L56,48z"/>
		</g>
		<g>
			<path fill="#FFFFFF" d="M24.1,44.8L24,45l-5,12.9c-4.5-2.2-8.4-5.7-11.2-9.8L8,48l12-7C21.1,42.5,22.5,43.8,24.1,44.8z"/>
		</g>
		<g>
			<path fill="#FFFFFF" d="M24,19l0.1,0.2c-1.6,1-3,2.3-4.1,3.8L8,16l-0.1-0.1c2.8-4.2,6.7-7.6,11.2-9.8L24,19z"/>
		</g>
		<g>
			<path fill="#FFFFFF" d="M56.1,15.9L56,16l-12,7c-1.1-1.5-2.5-2.8-4.1-3.8L40,19l5-12.9C49.5,8.3,53.3,11.7,56.1,15.9z"/>
		</g>
		<g>
			<path fill="#FF624D" d="M60.4,26c0.4,1.9,0.6,4,0.6,6c0,2-0.2,4-0.6,6c-0.8,3.7-2.2,7.1-4.2,10.1L56,48l-12-7c1.9-2.5,3-5.6,3-9
				s-1.1-6.5-3-9l12-7l0.1-0.1C58.2,18.9,59.6,22.3,60.4,26z"/>
		</g>
		<g>
			<path fill="#FF624D" d="M40,45l5,12.9c-2.2,1.1-4.5,1.9-7,2.5C36.1,60.8,34,61,32,61s-4.1-0.2-6-0.6c-2.5-0.5-4.8-1.3-7-2.5
				L24,45l0.1-0.2c2.3,1.4,5,2.2,7.9,2.2s5.6-0.8,7.9-2.2L40,45z"/>
		</g>
		<g>
			<path fill="#FF624D" d="M8,16l12,7c-1.9,2.5-3,5.6-3,9s1.1,6.5,3,9L8,48l-0.1,0.1c-2-3-3.5-6.4-4.2-10.1C3.2,36,3,34,3,32
				s0.2-4,0.6-6c0.8-3.7,2.2-7.1,4.2-10.1L8,16z"/>
		</g>
		<g>
			<path fill="#FF624D" d="M45,6.1L40,19l-0.1,0.2c-2.3-1.4-5-2.2-7.9-2.2s-5.6,0.8-7.9,2.2L24,19L19,6.1c2.2-1.1,4.5-1.9,7-2.5
				C27.9,3.2,30,3,32,3s4,0.2,6,0.6C40.4,4.1,42.8,5,45,6.1z"/>
		</g>
	</g>
	<g>
		<g>
			<path fill="#2C2C3D" d="M32,62c-2.1,0-4.2-0.2-6.2-0.6c-2.5-0.5-4.9-1.4-7.2-2.5C13.9,56.5,9.9,53,7,48.6
				c-2.1-3.2-3.6-6.7-4.4-10.5C2.2,36.2,2,34.1,2,32s0.2-4.2,0.6-6.2c0.8-3.7,2.2-7.2,4.4-10.5C9.9,11,13.9,7.5,18.6,5.2
				c2.3-1.2,4.7-2,7.2-2.5c4-0.8,8.4-0.9,12.4,0c2.5,0.5,4.9,1.4,7.2,2.5C50.1,7.5,54.1,11,57,15.4c2.1,3.2,3.6,6.7,4.4,10.4
				c0.4,2,0.7,4.1,0.7,6.2c0,2.1-0.2,4.2-0.6,6.2c-0.8,3.7-2.2,7.2-4.4,10.5c-2.9,4.3-6.9,7.9-11.6,10.2c-2.3,1.2-4.7,2-7.2,2.5
				C36.2,61.8,34.1,62,32,62z M32,4c-2,0-3.9,0.2-5.8,0.6c-2.4,0.5-4.6,1.3-6.7,2.4c-4.3,2.2-8.1,5.4-10.8,9.5c-2,3-3.4,6.3-4.1,9.8
				C4.2,28.1,4,30,4,32s0.2,3.9,0.6,5.8c0.7,3.5,2.1,6.8,4.1,9.8c2.7,4.1,6.4,7.3,10.8,9.5c2.1,1.1,4.4,1.9,6.7,2.4
				c3.7,0.8,7.8,0.8,11.6,0c2.4-0.5,4.6-1.3,6.7-2.4c4.3-2.2,8.1-5.4,10.8-9.5c2-3,3.4-6.3,4.1-9.8C59.8,35.9,60,34,60,32
				c0-2-0.2-3.9-0.6-5.8c-0.7-3.5-2.1-6.8-4.1-9.7c-2.7-4.1-6.4-7.3-10.8-9.5c-2.1-1.1-4.4-1.9-6.7-2.4C35.9,4.2,34,4,32,4z"/>
		</g>
		<g>
			<path fill="#2C2C3D" d="M3.5,27c-0.3,0-0.7-0.2-0.8-0.5C-1.6,19.8-0.6,10.8,5,5.2L5.2,5c5.7-5.7,14.6-6.6,21.4-2.3
				C27,3,27.1,3.7,26.8,4.1c-0.3,0.5-0.9,0.6-1.4,0.3c-5.9-3.8-13.9-3-18.9,2L6.4,6.6c-5,5-5.8,12.9-2,18.8c0.3,0.5,0.2,1.1-0.3,1.4
				C3.9,26.9,3.7,27,3.5,27z"/>
		</g>
		<g>
			<path fill="#2C2C3D" d="M60.5,27c-0.2,0-0.4-0.1-0.5-0.2c-0.5-0.3-0.6-0.9-0.3-1.4c3.8-5.9,2.9-13.9-2.1-18.8l-0.2-0.2
				c-5-5-12.9-5.8-18.9-2c-0.5,0.3-1.1,0.2-1.4-0.3C36.9,3.6,37,3,37.5,2.7C44.2-1.6,53.2-0.7,58.8,5L59,5.2
				c5.6,5.6,6.6,14.6,2.3,21.3C61.1,26.8,60.8,27,60.5,27z"/>
		</g>
		<g>
			<path fill="#2C2C3D" d="M17.3,64c-4.4,0-8.9-1.7-12.1-5L5,58.8c-5.6-5.6-6.6-14.6-2.3-21.3C3,37,3.6,36.9,4.1,37.2
				c0.5,0.3,0.6,0.9,0.3,1.4c-3.8,5.9-2.9,13.9,2,18.8l0.2,0.2c5,5,12.9,5.8,18.9,2c0.5-0.3,1.1-0.2,1.4,0.3
				c0.3,0.5,0.2,1.1-0.3,1.4C23.7,63.1,20.5,64,17.3,64z"/>
		</g>
		<g>
			<path fill="#2C2C3D" d="M46.7,64c-3.2,0-6.4-0.9-9.2-2.7c-0.5-0.3-0.6-0.9-0.3-1.4c0.3-0.5,0.9-0.6,1.4-0.3
				c5.9,3.8,13.9,3,18.9-2l0.2-0.2c5-5,5.8-12.9,2-18.8c-0.3-0.5-0.2-1.1,0.3-1.4c0.5-0.3,1.1-0.2,1.4,0.3
				c4.3,6.7,3.3,15.7-2.3,21.3L58.8,59C55.5,62.3,51.1,64,46.7,64z"/>
		</g>
		<g>
			<path fill="#2C2C3D" d="M32,48c-3,0-5.9-0.8-8.4-2.4c-1.7-1-3.2-2.4-4.4-4C17.1,38.8,16,35.5,16,32c0-3.5,1.1-6.8,3.2-9.6
				c1.2-1.6,2.7-3,4.4-4C26.1,16.8,29,16,32,16s5.9,0.8,8.4,2.4c1.7,1,3.2,2.4,4.4,4c2.1,2.8,3.2,6.1,3.2,9.6c0,3.5-1.1,6.8-3.2,9.6
				c-1.2,1.6-2.7,3-4.4,4C37.9,47.2,35,48,32,48z M32,18c-2.6,0-5.1,0.7-7.3,2.1c-1.5,0.9-2.8,2.1-3.9,3.5C19,26,18,28.9,18,32
				c0,3.1,1,6,2.8,8.4c1.1,1.4,2.4,2.6,3.9,3.5c2.2,1.4,4.7,2.1,7.3,2.1s5.1-0.7,7.3-2.1c1.5-0.9,2.8-2.1,3.9-3.5
				C45,38,46,35.1,46,32c0-3.1-1-6-2.8-8.4c-1.1-1.4-2.4-2.6-3.9-3.5C37.1,18.7,34.6,18,32,18z"/>
		</g>
		<g>
			<path fill="#2C2C3D" d="M24,20c-0.4,0-0.8-0.2-0.9-0.6l-5-12.9c-0.2-0.5,0-1.1,0.5-1.3c0.5-0.2,1.1,0,1.3,0.5l0,0.1l5,13
				c0.2,0.5-0.1,1.1-0.6,1.3C24.2,20,24.1,20,24,20z"/>
		</g>
		<g>
			<path fill="#2C2C3D" d="M20,24c-0.2,0-0.3,0-0.5-0.1l-12-7C7,16.6,6.9,16,7.1,15.5C7.4,15,8,14.9,8.5,15.1l12,7
				c0.5,0.3,0.6,0.9,0.4,1.4C20.7,23.8,20.3,24,20,24z"/>
		</g>
		<g>
			<path fill="#2C2C3D" d="M40,20c-0.1,0-0.2,0-0.4-0.1c-0.5-0.2-0.8-0.8-0.6-1.3l5-12.9c0,0,0-0.1,0-0.1c0.2-0.5,0.8-0.7,1.3-0.5
				c0.5,0.2,0.7,0.8,0.5,1.3l0,0.1l-5,12.9C40.8,19.8,40.4,20,40,20z"/>
		</g>
		<g>
			<path fill="#2C2C3D" d="M44,24c-0.3,0-0.7-0.2-0.9-0.5c-0.3-0.5-0.1-1.1,0.4-1.4l12-7c0.5-0.3,1.1-0.1,1.4,0.4
				c0.3,0.5,0.1,1.1-0.4,1.4l-12,7C44.3,24,44.2,24,44,24z"/>
		</g>
		<g>
			<path fill="#2C2C3D" d="M19,59c-0.1,0-0.3,0-0.4-0.1c-0.5-0.2-0.7-0.8-0.5-1.3l0-0.1l5-12.9c0.2-0.5,0.8-0.8,1.3-0.6
				c0.5,0.2,0.8,0.8,0.6,1.3l-5,12.9c0,0,0,0.1,0,0.1C19.8,58.8,19.4,59,19,59z"/>
		</g>
		<g>
			<path fill="#2C2C3D" d="M8,49c-0.3,0-0.7-0.2-0.9-0.5C6.9,48,7,47.4,7.5,47.1l12-7c0.5-0.3,1.1-0.1,1.4,0.4
				c0.3,0.5,0.1,1.1-0.4,1.4l-12,7C8.3,49,8.2,49,8,49z"/>
		</g>
		<g>
			<path fill="#2C2C3D" d="M45,59c-0.4,0-0.7-0.2-0.9-0.6l0-0.1l-5-13c-0.2-0.5,0.1-1.1,0.6-1.3c0.5-0.2,1.1,0.1,1.3,0.6l5,12.9
				c0.2,0.5,0,1.1-0.5,1.3C45.2,58.9,45.1,59,45,59z"/>
		</g>
		<g>
			<path fill="#2C2C3D" d="M56,49c-0.2,0-0.3,0-0.5-0.1l-12-7c-0.5-0.3-0.6-0.9-0.4-1.4c0.3-0.5,0.9-0.6,1.4-0.4l12,7
				c0.5,0.3,0.6,0.9,0.4,1.4C56.7,48.8,56.3,49,56,49z"/>
		</g>
	</g>
</g>
</svg>
