<?xml version="1.0" encoding="utf-8"?>
<!-- Generator: Adobe Illustrator 18.0.0, SVG Export Plug-In . SVG Version: 6.00 Build 0)  -->
<!DOCTYPE svg PUBLIC "-//W3C//DTD SVG 1.1//EN" "http://www.w3.org/Graphics/SVG/1.1/DTD/svg11.dtd">
<svg version="1.1" id="Layer_1" xmlns="http://www.w3.org/2000/svg" xmlns:xlink="http://www.w3.org/1999/xlink" x="0px" y="0px"
	 viewBox="0 0 64 64" enable-background="new 0 0 64 64" xml:space="preserve">
<g>
	<g id="XMLID_44_">
		<g>
			<g>
				<path fill="#E84B4B" d="M52,21c0,14-20,25.1-20,42c0-16.9-20-28-20-42C12,9.9,21,1,32,1S52,9.9,52,21z M40,20c0-4.4-3.6-8-8-8
					s-8,3.6-8,8s3.6,8,8,8S40,24.4,40,20z"/>
			</g>
			<g>
				<circle fill="#B22424" cx="32" cy="20" r="8"/>
			</g>
		</g>
		<g>
			<g>
				<path fill="#2D2D2D" d="M32,29c-5,0-9-4-9-9s4-9,9-9s9,4,9,9S37,29,32,29z M32,13c-3.9,0-7,3.1-7,7s3.1,7,7,7s7-3.1,7-7
					S35.9,13,32,13z"/>
			</g>
			<g>
				<path fill="#2D2D2D" d="M32,64c-0.6,0-1-0.4-1-1c0-8.5-5.3-15.6-10.5-22.4C15.6,34.1,11,28,11,21C11,9.4,20.4,0,32,0
					c11.6,0,21,9.4,21,21c0,7-4.6,13.1-9.5,19.6C38.3,47.4,33,54.5,33,63C33,63.6,32.6,64,32,64z M32,2c-10.5,0-19,8.5-19,19
					c0,6.3,4.4,12.2,9.1,18.4c4,5.3,8.1,10.7,9.9,16.9c1.8-6.2,5.9-11.6,9.9-16.9c4.7-6.2,9.1-12,9.1-18.4C51,10.5,42.5,2,32,2z"/>
			</g>
		</g>
	</g>
</g>
</svg>
