<?xml version="1.0" encoding="utf-8"?>
<!-- Generator: Adobe Illustrator 18.0.0, SVG Export Plug-In . SVG Version: 6.00 Build 0)  -->
<!DOCTYPE svg PUBLIC "-//W3C//DTD SVG 1.1//EN" "http://www.w3.org/Graphics/SVG/1.1/DTD/svg11.dtd">
<svg version="1.1" id="Layer_1" xmlns="http://www.w3.org/2000/svg" xmlns:xlink="http://www.w3.org/1999/xlink" x="0px" y="0px"
	 viewBox="0 0 64 64" enable-background="new 0 0 64 64" xml:space="preserve">
<g>
	<g id="XMLID_40_">
		<g>
			<g>
				<path fill="#E84B4B" d="M14.6,33.9C12.4,30.5,11,26.4,11,22c0-11.6,9.4-21,21-21s21,9.4,21,21c0,4.4-1.3,8.5-3.7,11.9L32,63
					L14.6,33.9z M41,22c0-5-4-9-9-9s-9,4-9,9s4,9,9,9S41,27,41,22z"/>
			</g>
			<g>
				<circle fill="#FFD41D" cx="32" cy="22" r="9"/>
			</g>
		</g>
		<g>
			<g>
				<path fill="#2D2D2D" d="M32,64c-0.4,0-0.7-0.2-0.9-0.5L13.8,34.4C11.3,30.8,10,26.5,10,22C10,9.9,19.9,0,32,0s22,9.9,22,22
					c0,4.4-1.3,8.7-3.8,12.4L32.9,63.5C32.7,63.8,32.4,64,32,64z M32,2c-11,0-20,9-20,20c0,4,1.2,7.9,3.5,11.3L32,61l16.5-27.7
					C50.8,30,52,26.1,52,22C52,11,43,2,32,2z"/>
			</g>
			<g>
				<path fill="#2D2D2D" d="M32,32c-5.5,0-10-4.5-10-10s4.5-10,10-10s10,4.5,10,10S37.5,32,32,32z M32,14c-4.4,0-8,3.6-8,8
					s3.6,8,8,8s8-3.6,8-8S36.4,14,32,14z"/>
			</g>
		</g>
	</g>
</g>
</svg>
