<?xml version="1.0" encoding="utf-8"?>
<!-- Generator: Adobe Illustrator 18.0.0, SVG Export Plug-In . SVG Version: 6.00 Build 0)  -->
<!DOCTYPE svg PUBLIC "-//W3C//DTD SVG 1.1//EN" "http://www.w3.org/Graphics/SVG/1.1/DTD/svg11.dtd">
<svg version="1.1" id="Layer_1" xmlns="http://www.w3.org/2000/svg" xmlns:xlink="http://www.w3.org/1999/xlink" x="0px" y="0px"
	 viewBox="0 0 64 64" enable-background="new 0 0 64 64" xml:space="preserve">
<g>
	<g id="XMLID_1_">
		<g>
			<g>
				<polygon fill="#509DDD" points="60.9,57 63,63 21,63 20.5,48.8 				"/>
			</g>
			<g>
				<path fill="#F9EEB2" d="M60.9,57l-40.5-8.2L20,37h3.6c3.5,4.6,7,8.3,8.4,10c1.4-1.7,4.9-5.4,8.4-10H54L60.9,57z"/>
			</g>
			<g>
				<path fill="#E84B4B" d="M32,1c9.4,0,17,7.7,17,17.1c0,6.1-4.3,13.1-8.6,18.9c-3.5,4.6-7,8.3-8.4,10c-1.4-1.7-4.9-5.4-8.4-10
					C19.2,31.3,15,24.2,15,18.1C15,8.7,22.6,1,32,1z M38,17c0-3.3-2.7-6-6-6s-6,2.7-6,6s2.7,6,6,6S38,20.3,38,17z"/>
			</g>
			<g>
				<polygon fill="#2CC69E" points="20.5,48.8 21,63 1,63 6.9,46 				"/>
			</g>
			<g>
				<polygon fill="#509DDD" points="20,37 20.5,48.8 6.9,46 10,37 				"/>
			</g>
		</g>
		<g>
			<path fill="#2D2D2D" d="M32,24c3.9,0,7-3.1,7-7s-3.1-7-7-7s-7,3.1-7,7S28.1,24,32,24z M32,12c2.8,0,5,2.2,5,5s-2.2,5-5,5
				s-5-2.2-5-5S29.2,12,32,12z"/>
			<path fill="#2D2D2D" d="M63.9,62.7L62,57c0-0.2-0.1-0.4-0.2-0.6l-6.8-19.7C54.8,36.3,54.4,36,54,36H42.4c5.1-7.1,7.6-13,7.6-17.9
				C50,8.1,41.9,0,32,0S14,8.1,14,18.1C14,23,16.6,29,21.6,36H10c-0.4,0-0.8,0.3-0.9,0.7l-9,26C-0.1,63,0,63.3,0.2,63.6
				C0.4,63.8,0.7,64,1,64h62c0.3,0,0.6-0.2,0.8-0.4C64,63.3,64.1,63,63.9,62.7z M59.4,55.7l-38-7.7L21,38h2.1c2.5,3.2,4.9,6,6.6,7.9
				c0.6,0.7,1.2,1.3,1.5,1.7c0.2,0.2,0.5,0.4,0.8,0.4c0,0,0,0,0,0c0.3,0,0.6-0.1,0.8-0.4c0.4-0.5,1-1.2,1.8-2.1
				c1.7-1.9,4-4.5,6.3-7.6h12.4L59.4,55.7z M32,2c8.8,0,16,7.2,16,16.1c0,4.7-2.8,10.9-8.4,18.2c-2.4,3.1-4.8,5.9-6.5,7.8
				c-0.4,0.5-0.8,0.9-1.1,1.2c-0.2-0.3-0.5-0.6-0.8-0.9c-1.7-1.9-4.3-4.8-6.8-8.2C18.8,29.1,16,22.9,16,18.1C16,9.2,23.2,2,32,2z
				 M10.7,38H19l0.4,9.5L8.2,45.2L10.7,38z M7.5,47.2l11.9,2.4L20,62H2.4L7.5,47.2z M22,62l-0.5-12l38.7,7.9l1.4,4.2H22z"/>
		</g>
	</g>
</g>
</svg>
