<?xml version="1.0" encoding="utf-8"?>
<!-- Generator: Adobe Illustrator 18.0.0, SVG Export Plug-In . SVG Version: 6.00 Build 0)  -->
<!DOCTYPE svg PUBLIC "-//W3C//DTD SVG 1.1//EN" "http://www.w3.org/Graphics/SVG/1.1/DTD/svg11.dtd">
<svg version="1.1" id="Layer_1" xmlns="http://www.w3.org/2000/svg" xmlns:xlink="http://www.w3.org/1999/xlink" x="0px" y="0px"
	 viewBox="0 0 64 64" enable-background="new 0 0 64 64" xml:space="preserve">
<g>
	<g id="XMLID_4_">
		<g>
			<g>
				<path fill="#F2BD5F" d="M63,11v38c0,2.2-1.8,4-4,4H5c-2.2,0-4-1.8-4-4V11l31,21L63,11z"/>
			</g>
			<g>
				<polygon fill="#FFCC66" points="63,11 32,32 1,11 				"/>
			</g>
		</g>
		<path fill="#2D2D2D" d="M64,10.9c0-0.1,0-0.1,0-0.2c0-0.1,0-0.1-0.1-0.2c0,0,0-0.1,0-0.1c0,0,0,0-0.1-0.1c0-0.1-0.1-0.1-0.1-0.1
			c0,0-0.1-0.1-0.2-0.1c-0.1,0-0.1-0.1-0.2-0.1c-0.1,0-0.1,0-0.2,0c0,0-0.1,0-0.1,0H1c0,0-0.1,0-0.1,0c-0.1,0-0.1,0-0.2,0
			c-0.1,0-0.1,0-0.2,0.1c-0.1,0-0.1,0.1-0.2,0.1c-0.1,0-0.1,0.1-0.1,0.1c0,0,0,0-0.1,0.1c0,0,0,0.1,0,0.1c0,0.1-0.1,0.1-0.1,0.2
			c0,0.1,0,0.1,0,0.2c0,0,0,0.1,0,0.1v38c0,2.8,2.2,5,5,5h54c2.8,0,5-2.2,5-5L64,10.9C64,11,64,10.9,64,10.9z M59.7,12L32,30.8
			L4.3,12H59.7z M59,52H5c-1.7,0-3-1.3-3-3V12.9l29.4,19.9c0.2,0.1,0.4,0.2,0.6,0.2s0.4-0.1,0.6-0.2L62,12.9V49
			C62,50.7,60.7,52,59,52z"/>
	</g>
</g>
</svg>
