<?xml version="1.0" encoding="utf-8"?>
<!-- Generator: Adobe Illustrator 18.0.0, SVG Export Plug-In . SVG Version: 6.00 Build 0)  -->
<!DOCTYPE svg PUBLIC "-//W3C//DTD SVG 1.1//EN" "http://www.w3.org/Graphics/SVG/1.1/DTD/svg11.dtd">
<svg version="1.1" id="Layer_1" xmlns="http://www.w3.org/2000/svg" xmlns:xlink="http://www.w3.org/1999/xlink" x="0px" y="0px"
	 viewBox="0 0 64 64" enable-background="new 0 0 64 64" xml:space="preserve">
<g>
	<g id="XMLID_2_">
		<g>
			<g>
				<path fill="#BC645B" d="M27.5,3.8c-5.6,5.6-2.9,17.5,6.1,26.6c8.2,8.2,18.7,11.2,24.9,7.5c-5.1,4.4-11.7,7.4-18.1,8.3
					c-3.4,0.5-6.7,1.3-9.8,2.7c-3.5,1.6-7.4,1.7-10.6,0.2c-1.2-0.5-2.2-1.3-3.2-2.2c-0.8-0.8-1.5-1.7-2-2.7
					c-1.9-3.7-1.7-8.4,0.6-12.4c1.3-2.2,1.9-4.7,2.2-7.2c0.8-7.5,4.4-15.3,9.9-20.8L27.5,3.8z"/>
			</g>
			<g>
				<path fill="#FFFFFF" d="M19.9,49l-6.2,6.2c1.9,1.9,1.7,5-0.4,6.7c-1.5,1.2-3.8,1.3-5.4,0.1c-1.5-1.1-2.1-2.9-1.8-4.5
					c-1.6,0.2-3.2-0.4-4.2-1.9c-1.1-1.6-1-3.8,0.2-5.3c1.7-2.2,4.8-2.3,6.7-0.4l5.7-5.7l0.3-0.1c0.5,1,1.2,1.9,2,2.7
					C17.7,47.7,18.8,48.5,19.9,49z"/>
			</g>
			<g>
				
					<ellipse transform="matrix(0.7071 -0.7071 0.7071 0.7071 -0.3998 37.3247)" fill="#FFFFFF" cx="44.9" cy="19.1" rx="3.5" ry="6.1"/>
			</g>
			<g>
				<path fill="#DD97AB" d="M58.5,37.9c-6.1,3.7-16.7,0.7-24.9-7.5c-9-9-11.8-20.9-6.1-26.6S45,0.9,54,9.9c9,9,11.8,20.9,6.2,26.6
					C59.7,37,59.1,37.5,58.5,37.9z M49.2,23.5c1.3-1.3,0.5-4.4-1.9-6.8s-5.4-3.2-6.8-1.9c-1.3,1.4-0.5,4.4,1.9,6.8
					S47.8,24.8,49.2,23.5z"/>
			</g>
		</g>
		<g>
			<g>
				<path fill="#2C2C3D" d="M52.3,40.4c-6.3,0-13.5-3.5-19.4-9.4c-9.4-9.4-12.2-22-6.1-28c2.1-2.1,5.1-3.2,8.6-3.2
					c6.3,0,13.5,3.5,19.4,9.4c4.5,4.5,7.6,9.8,8.8,15c1.2,5.4,0.3,10-2.7,12.9c-0.6,0.6-1.2,1.1-1.9,1.5
					C57.1,39.9,54.9,40.4,52.3,40.4z M35.4,1.9c-3,0-5.4,0.9-7.2,2.6c-5.2,5.2-2.5,16.5,6.1,25.2c5.5,5.5,12.2,8.8,18,8.8
					c2.2,0,4.1-0.5,5.6-1.4c0.6-0.3,1.1-0.7,1.5-1.2c2.5-2.5,3.2-6.4,2.2-11.1c-1.1-4.8-4.1-9.8-8.3-14.1
					C47.8,5.2,41.1,1.9,35.4,1.9z"/>
			</g>
			<g>
				<path fill="#2C2C3D" d="M47.4,25.1c-1.8,0-4-1.1-5.7-2.8c-1.3-1.3-2.2-2.8-2.6-4.2c-0.5-1.6-0.2-3.1,0.7-4
					c0.6-0.6,1.5-0.9,2.5-0.9c1.8,0,4,1.1,5.7,2.8c1.3,1.3,2.2,2.8,2.6,4.2c0.5,1.6,0.2,3.1-0.7,4C49.3,24.8,48.4,25.1,47.4,25.1z
					 M42.3,15.2c-0.5,0-0.8,0.1-1.1,0.4c-0.4,0.4-0.5,1.1-0.2,2c0.3,1.1,1.1,2.3,2.1,3.3c1.4,1.4,3,2.2,4.3,2.2
					c0.5,0,0.8-0.1,1.1-0.4c0.4-0.4,0.5-1.1,0.2-2c-0.3-1.1-1.1-2.3-2.1-3.3C45.2,16.1,43.5,15.2,42.3,15.2z"/>
			</g>
			<g>
				<path fill="#2C2C3D" d="M24.9,51.1c-1.9,0-3.7-0.4-5.4-1.2c-1.3-0.6-2.5-1.4-3.5-2.4c-0.9-0.9-1.6-1.9-2.2-2.9
					c-2.1-4-1.9-9.1,0.6-13.3c1.1-1.9,1.8-4.2,2-6.8C17.3,16.6,21.1,8.6,26.6,3c0-0.1,0.1-0.1,0.1-0.2l1.4,1.4l0,0
					c0,0-0.1,0.1-0.1,0.1c-5.3,5.3-8.8,12.9-9.6,20.2c-0.3,2.9-1.1,5.5-2.3,7.6c-2.1,3.6-2.3,8-0.6,11.4c0.5,0.9,1.1,1.7,1.8,2.4
					c0.8,0.8,1.8,1.5,2.9,2c3,1.4,6.5,1.3,9.8-0.2c2.9-1.3,6.2-2.2,10.1-2.8c6.3-0.9,12.7-3.8,17.6-8c0.6-0.5,1.1-1,1.7-1.5l1.4,1.4
					c-0.6,0.6-1.2,1.2-1.8,1.7c-5.1,4.5-11.9,7.6-18.6,8.5c-3.7,0.5-6.8,1.3-9.5,2.6C29,50.6,26.9,51.1,24.9,51.1z"/>
			</g>
			<g>
				<path fill="#2C2C3D" d="M10.5,63.9c-1.1,0-2.3-0.3-3.2-1c-1.4-1-2.2-2.6-2.3-4.3c-1.6-0.2-3-1-4-2.3c-1.4-1.9-1.3-4.6,0.2-6.5
					c1-1.2,2.4-2,4-2.1c1.2-0.1,2.4,0.3,3.4,1l5.1-5.1l1.4,1.4l-5.7,5.7c-0.2,0.2-0.4,0.3-0.7,0.3l0,0c-0.3,0-0.5-0.1-0.7-0.3
					c-0.7-0.7-1.7-1.1-2.7-1c-1,0.1-1.9,0.5-2.5,1.3c-0.9,1.2-1,2.9-0.1,4.1c0.8,1.1,2,1.6,3.3,1.5c0.3,0,0.6,0.1,0.8,0.3
					c0.2,0.2,0.3,0.6,0.2,0.9c-0.3,1.3,0.3,2.7,1.4,3.5c1.2,0.9,3,0.9,4.2-0.1c0.8-0.6,1.3-1.5,1.3-2.6c0.1-1-0.3-2-1-2.7
					c-0.4-0.4-0.4-1,0-1.4l6.4-6.4l1.4,1.4l-5.8,5.8c0.7,1,1,2.2,1,3.4c-0.1,1.6-0.9,3-2.1,4C12.9,63.5,11.7,63.9,10.5,63.9z"/>
			</g>
		</g>
	</g>
</g>
</svg>
