<?xml version="1.0" encoding="utf-8"?>
<!-- Generator: Adobe Illustrator 18.0.0, SVG Export Plug-In . SVG Version: 6.00 Build 0)  -->
<!DOCTYPE svg PUBLIC "-//W3C//DTD SVG 1.1//EN" "http://www.w3.org/Graphics/SVG/1.1/DTD/svg11.dtd">
<svg version="1.1" id="Layer_1" xmlns="http://www.w3.org/2000/svg" xmlns:xlink="http://www.w3.org/1999/xlink" x="0px" y="0px"
	 viewBox="0 0 64 64" enable-background="new 0 0 64 64" xml:space="preserve">
<g id="XMLID_28_">
	<g>
		<g>
			<polygon fill="#FFC533" points="53,1 53,9 51,9 42,9 22,9 13,9 11,9 11,1 			"/>
		</g>
		<g>
			<path fill="#94A848" d="M51,9v18l-6.7,4.8c-0.7-0.7-1.5-1.3-2.3-1.8l0,0V9H51z"/>
		</g>
		<g>
			<path fill="#FFC533" d="M44.3,31.8c3.5,3.3,5.7,8,5.7,13.2c0,10-8.1,18-18,18s-18-8-18-18c0-5.2,2.2-9.9,5.7-13.2
				c0.7-0.7,1.5-1.3,2.3-1.8c2.9-1.9,6.3-3,10-3s7.1,1.1,10,3C42.8,30.6,43.5,31.2,44.3,31.8z M44,45c0-6.6-5.4-12-12-12
				s-12,5.4-12,12s5.4,12,12,12S44,51.6,44,45z"/>
		</g>
		<g>
			<path fill="#46752A" d="M42,9v21l0,0c-2.9-1.9-6.3-3-10-3s-7.1,1.1-10,3l0,0V9H42z"/>
		</g>
		<g>
			<path fill="#FCEA81" d="M32,33c6.6,0,12,5.4,12,12s-5.4,12-12,12s-12-5.4-12-12S25.4,33,32,33z M35.5,45.9l3.5-3.6l-4.8-0.7
				L32,37l-2.2,4.6L25,42.3l3.5,3.6L27.7,51l4.3-2.4l4.3,2.4L35.5,45.9z"/>
		</g>
		<g>
			<polygon fill="#F2AC0F" points="39,42.3 35.5,45.9 36.3,51 32,48.6 27.7,51 28.5,45.9 25,42.3 29.8,41.6 32,37 34.2,41.6 			"/>
		</g>
		<g>
			<path fill="#94A848" d="M22,30L22,30c-0.8,0.6-1.5,1.2-2.3,1.8L13,27V9h9V30z"/>
		</g>
	</g>
	<g>
		<path fill="#2D2D2D" d="M32,32c-7.2,0-13,5.8-13,13s5.8,13,13,13s13-5.8,13-13S39.2,32,32,32z M32,56c-6.1,0-11-4.9-11-11
			s4.9-11,11-11s11,4.9,11,11S38.1,56,32,56z"/>
		<path fill="#2D2D2D" d="M53,0H11c-0.6,0-1,0.4-1,1v8c0,0.6,0.4,1,1,1h1v17c0,0.3,0.2,0.6,0.4,0.8l5.8,4.1c-3.3,3.5-5.2,8.2-5.2,13
			c0,10.5,8.5,19,19,19s19-8.5,19-19c0-4.9-1.9-9.5-5.2-13l5.8-4.1c0.3-0.2,0.4-0.5,0.4-0.8V10h1c0.6,0,1-0.4,1-1V1
			C54,0.4,53.6,0,53,0z M14,10h7v19.5c-0.5,0.3-0.9,0.7-1.3,1L14,26.5V10z M41,28.3c-2.8-1.5-5.8-2.3-9-2.3c-3.2,0-6.2,0.8-9,2.3V10
			h18V28.3z M32,62c-9.4,0-17-7.6-17-17c0-4.7,2-9.2,5.4-12.4c0.7-0.6,1.4-1.2,2.1-1.7C25.4,29,28.6,28,32,28s6.6,1,9.4,2.8
			c0.8,0.5,1.5,1.1,2.1,1.7C47,35.8,49,40.3,49,45C49,54.4,41.4,62,32,62z M50,26.5l-5.7,4.1c-0.4-0.4-0.9-0.7-1.3-1V10h7V26.5z
			 M52,8H12V2h40V8z"/>
	</g>
</g>
</svg>
