<?xml version="1.0" encoding="utf-8"?>
<!-- Generator: Adobe Illustrator 18.0.0, SVG Export Plug-In . SVG Version: 6.00 Build 0)  -->
<!DOCTYPE svg PUBLIC "-//W3C//DTD SVG 1.1//EN" "http://www.w3.org/Graphics/SVG/1.1/DTD/svg11.dtd">
<svg version="1.1" id="Layer_1" xmlns="http://www.w3.org/2000/svg" xmlns:xlink="http://www.w3.org/1999/xlink" x="0px" y="0px"
	 viewBox="0 0 64 64" enable-background="new 0 0 64 64" xml:space="preserve">
<g id="XMLID_6_">
	<g>
		<g>
			<g>
				<path fill="#CCDBE2" d="M63,12v36c0,1.1-0.9,2-2,2h-4h-7h-6V10h17C62.1,10,63,10.9,63,12z M59,41c0-2.8-2.2-5-5-5s-5,2.2-5,5
					s2.2,5,5,5S59,43.8,59,41z"/>
			</g>
		</g>
		<g>
			<g>
				<circle fill="#FFFFFF" cx="54" cy="41" r="5"/>
			</g>
		</g>
		<g>
			<g>
				<rect x="50" y="50" fill="#A0B5BA" width="7" height="4"/>
			</g>
		</g>
		<g>
			<g>
				<path fill="#FFFFFF" d="M44,10v40H13H6H3c-1.1,0-2-0.9-2-2V12c0-1.1,0.9-2,2-2H44z M39,42V18c0-1.7-1.4-3-3-3H9
					c-1.6,0-3,1.3-3,3v24c0,1.7,1.3,3,3,3h27C37.7,45,39,43.7,39,42z"/>
			</g>
		</g>
		<g>
			<g>
				<path fill="#B1DAE5" d="M39,18v24c0,1.7-1.4,3-3,3H9c-1.6,0-3-1.3-3-3V18c0-1.7,1.3-3,3-3h27C37.7,15,39,16.3,39,18z"/>
			</g>
		</g>
		<g>
			<g>
				<rect x="6" y="50" fill="#A0B5BA" width="7" height="4"/>
			</g>
		</g>
	</g>
	<g>
		<g>
			<g>
				<path fill="#2C2C3D" d="M61,51h-4c-0.6,0-1-0.4-1-1s0.4-1,1-1h4c0.6,0,1-0.4,1-1V12c0-0.6-0.4-1-1-1H3c-0.6,0-1,0.4-1,1v36
					c0,0.6,0.4,1,1,1h3c0.6,0,1,0.4,1,1s-0.4,1-1,1H3c-1.7,0-3-1.3-3-3V12c0-1.7,1.3-3,3-3h58c1.7,0,3,1.3,3,3v36
					C64,49.7,62.7,51,61,51z"/>
			</g>
		</g>
		<g>
			<g>
				<path fill="#2C2C3D" d="M50,51H13c-0.6,0-1-0.4-1-1s0.4-1,1-1h37c0.6,0,1,0.4,1,1S50.5,51,50,51z"/>
			</g>
		</g>
		<g>
			<g>
				<path fill="#2C2C3D" d="M44,51c-0.6,0-1-0.4-1-1V10c0-0.6,0.4-1,1-1s1,0.4,1,1v40C45,50.6,44.5,51,44,51z"/>
			</g>
		</g>
		<g>
			<g>
				<path fill="#2C2C3D" d="M54,47c-3.3,0-6-2.7-6-6s2.7-6,6-6s6,2.7,6,6S57.3,47,54,47z M54,37c-2.2,0-4,1.8-4,4s1.8,4,4,4
					s4-1.8,4-4S56.2,37,54,37z"/>
			</g>
		</g>
		<g>
			<g>
				<path fill="#2C2C3D" d="M58,17h-9c-0.6,0-1-0.4-1-1s0.4-1,1-1h9c0.6,0,1,0.4,1,1S58.5,17,58,17z"/>
			</g>
		</g>
		<g>
			<g>
				<path fill="#2C2C3D" d="M52,22h-3c-0.6,0-1-0.4-1-1s0.4-1,1-1h3c0.6,0,1,0.4,1,1S52.5,22,52,22z"/>
			</g>
		</g>
		<g>
			<g>
				<path fill="#2C2C3D" d="M58,22h-3c-0.6,0-1-0.4-1-1s0.4-1,1-1h3c0.6,0,1,0.4,1,1S58.5,22,58,22z"/>
			</g>
		</g>
		<g>
			<g>
				<path fill="#2C2C3D" d="M52,26h-3c-0.6,0-1-0.4-1-1s0.4-1,1-1h3c0.6,0,1,0.4,1,1S52.5,26,52,26z"/>
			</g>
		</g>
		<g>
			<g>
				<path fill="#2C2C3D" d="M58,26h-3c-0.6,0-1-0.4-1-1s0.4-1,1-1h3c0.6,0,1,0.4,1,1S58.5,26,58,26z"/>
			</g>
		</g>
		<g>
			<g>
				<path fill="#2C2C3D" d="M36,46H9c-2.2,0-4-1.8-4-4V18c0-2.2,1.8-4,4-4h27c2.2,0,4,1.8,4,4v24C40,44.2,38.2,46,36,46z M9,16
					c-1.1,0-2,0.9-2,2v24c0,1.1,0.9,2,2,2h27c1.1,0,2-0.9,2-2V18c0-1.1-0.9-2-2-2H9z"/>
			</g>
		</g>
		<g>
			<g>
				<path fill="#2C2C3D" d="M13,55H6c-0.6,0-1-0.4-1-1v-4c0-0.6,0.4-1,1-1h7c0.6,0,1,0.4,1,1v4C14,54.6,13.5,55,13,55z M7,53h5v-2H7
					V53z"/>
			</g>
		</g>
		<g>
			<g>
				<path fill="#2C2C3D" d="M57,55h-7c-0.6,0-1-0.4-1-1v-4c0-0.6,0.4-1,1-1h7c0.6,0,1,0.4,1,1v4C58,54.6,57.5,55,57,55z M51,53h5v-2
					h-5V53z"/>
			</g>
		</g>
	</g>
</g>
</svg>
