<?xml version="1.0" encoding="utf-8"?>
<!-- Generator: Adobe Illustrator 18.0.0, SVG Export Plug-In . SVG Version: 6.00 Build 0)  -->
<!DOCTYPE svg PUBLIC "-//W3C//DTD SVG 1.1//EN" "http://www.w3.org/Graphics/SVG/1.1/DTD/svg11.dtd">
<svg version="1.1" id="Layer_1" xmlns="http://www.w3.org/2000/svg" xmlns:xlink="http://www.w3.org/1999/xlink" x="0px" y="0px"
	 viewBox="0 0 64 64" enable-background="new 0 0 64 64" xml:space="preserve">
<g id="XMLID_2_">
	<g>
		<g>
			<circle fill="#65C96C" cx="32" cy="32" r="12"/>
		</g>
		<g>
			<circle fill="#65C96C" cx="11.5" cy="32.5" r="2.5"/>
		</g>
		<g>
			<circle fill="#65C96C" cx="52.5" cy="32.5" r="2.5"/>
		</g>
		<g>
			<path fill="#CFF28B" d="M63,25v14c-6.6,0-12,5.4-12,12H13c0-6.6-5.4-12-12-12V25c6.6,0,12-5.4,12-12h38C51,19.6,56.4,25,63,25z
				 M55,32.5c0-1.4-1.1-2.5-2.5-2.5S50,31.1,50,32.5c0,1.4,1.1,2.5,2.5,2.5S55,33.9,55,32.5z M44,32c0-6.6-5.4-12-12-12
				s-12,5.4-12,12s5.4,12,12,12S44,38.6,44,32z M14,32.5c0-1.4-1.1-2.5-2.5-2.5S9,31.1,9,32.5c0,1.4,1.1,2.5,2.5,2.5
				S14,33.9,14,32.5z"/>
		</g>
		<g>
			<path fill="#65C96C" d="M63,39v12H51C51,44.4,56.4,39,63,39z"/>
		</g>
		<g>
			<path fill="#65C96C" d="M13,51H1V39C7.6,39,13,44.4,13,51z"/>
		</g>
		<g>
			<path fill="#65C96C" d="M1,13h12c0,6.6-5.4,12-12,12V13z"/>
		</g>
		<g>
			<path fill="#65C96C" d="M63,13v12c-6.6,0-12-5.4-12-12H63z"/>
		</g>
	</g>
	<g>
		<path fill="#2D2D2D" d="M63,12H1c-0.6,0-1,0.4-1,1v38c0,0.6,0.4,1,1,1h62c0.6,0,1-0.4,1-1V13C64,12.4,63.6,12,63,12z M2,25.9
			c6.4-0.5,11.5-5.6,11.9-11.9h36.1c0.5,6.4,5.6,11.5,11.9,11.9v12.1c-6.4,0.5-11.5,5.6-11.9,11.9H13.9C13.5,43.6,8.4,38.5,2,38.1
			V25.9z M62,23.9c-5.3-0.5-9.5-4.7-9.9-9.9H62V23.9z M11.9,14c-0.5,5.3-4.7,9.5-9.9,9.9V14H11.9z M2,40.1c5.3,0.5,9.5,4.7,9.9,9.9
			H2V40.1z M52.1,50c0.5-5.3,4.7-9.5,9.9-9.9V50H52.1z"/>
		<path fill="#2D2D2D" d="M32,45c7.2,0,13-5.8,13-13s-5.8-13-13-13s-13,5.8-13,13S24.8,45,32,45z M32,21c6.1,0,11,4.9,11,11
			s-4.9,11-11,11s-11-4.9-11-11S25.9,21,32,21z"/>
		<path fill="#2D2D2D" d="M31.6,33c0.9,0.2,2.4,0.7,2.4,1.5c0,0.8-0.9,1.5-2,1.5c-1,0-1.9-0.5-2-1.2c-0.1-0.5-0.7-0.9-1.2-0.7
			c-0.5,0.1-0.9,0.7-0.7,1.2c0.3,1.3,1.5,2.3,3,2.6V39c0,0.6,0.4,1,1,1s1-0.4,1-1v-1.1c1.7-0.4,3-1.7,3-3.4c0-1.7-1.3-2.9-4-3.5
			c-2-0.5-2-1.2-2-1.5c0-0.8,0.9-1.5,2-1.5c1,0,1.9,0.5,2,1.2c0.1,0.5,0.7,0.9,1.2,0.7c0.5-0.1,0.9-0.7,0.7-1.2
			c-0.3-1.3-1.5-2.3-3-2.6V25c0-0.6-0.4-1-1-1s-1,0.4-1,1v1.1c-1.7,0.4-3,1.7-3,3.4C28,31.3,29.2,32.4,31.6,33z"/>
		<path fill="#2D2D2D" d="M15,32.5c0-1.9-1.6-3.5-3.5-3.5S8,30.6,8,32.5S9.6,36,11.5,36S15,34.4,15,32.5z M10,32.5
			c0-0.8,0.7-1.5,1.5-1.5s1.5,0.7,1.5,1.5S12.3,34,11.5,34S10,33.3,10,32.5z"/>
		<path fill="#2D2D2D" d="M52.5,36c1.9,0,3.5-1.6,3.5-3.5S54.4,29,52.5,29S49,30.6,49,32.5S50.6,36,52.5,36z M52.5,31
			c0.8,0,1.5,0.7,1.5,1.5S53.3,34,52.5,34S51,33.3,51,32.5S51.7,31,52.5,31z"/>
	</g>
</g>
</svg>
