<?xml version="1.0" encoding="utf-8"?>
<!-- Generator: Adobe Illustrator 18.0.0, SVG Export Plug-In . SVG Version: 6.00 Build 0)  -->
<!DOCTYPE svg PUBLIC "-//W3C//DTD SVG 1.1//EN" "http://www.w3.org/Graphics/SVG/1.1/DTD/svg11.dtd">
<svg version="1.1" id="Layer_1" xmlns="http://www.w3.org/2000/svg" xmlns:xlink="http://www.w3.org/1999/xlink" x="0px" y="0px"
	 viewBox="0 0 64 64" enable-background="new 0 0 64 64" xml:space="preserve">
<g id="XMLID_5_">
	<g>
		<g>
			<g>
				<path fill="#FFFFFF" d="M36.5,27.8v19.5c0,8.7-7,15.8-15.8,15.8S5,56,5,47.2V27.8C5,19,12.1,12,20.8,12c4.4,0,8.3,1.8,11.1,4.6
					C34.7,19.5,36.5,23.4,36.5,27.8z M23,31v-8c0-0.5-0.2-1-0.6-1.4C22,21.2,21.5,21,21,21c-1.1,0-2,0.9-2,2v8c0,1.1,0.9,2,2,2
					S23,32.1,23,31z"/>
			</g>
		</g>
		<g>
			<g>
				<path fill="#CCDBE2" d="M23,23v8c0,1.1-0.9,2-2,2s-2-0.9-2-2v-8c0-1.1,0.9-2,2-2c0.5,0,1,0.2,1.4,0.6C22.8,22,23,22.5,23,23z"/>
			</g>
		</g>
	</g>
	<g>
		<g>
			<g>
				<path fill="#2C2C3D" d="M20.8,64C11.5,64,4,56.5,4,47.2V27.8C4,18.5,11.5,11,20.8,11c4.5,0,8.7,1.7,11.8,4.9
					c3.2,3.2,4.9,7.4,4.9,11.8v19.5C37.5,56.5,30,64,20.8,64z M20.8,13C12.6,13,6,19.6,6,27.8v19.5C6,55.4,12.6,62,20.8,62
					s14.8-6.6,14.8-14.8V27.8c0-3.9-1.5-7.6-4.3-10.4C28.4,14.5,24.7,13,20.8,13z"/>
			</g>
		</g>
		<g>
			<g>
				<path fill="#2C2C3D" d="M53,55c-1.9,0-3.6-0.7-4.9-2c-1.3-1.3-2.1-3.1-2.1-5V8.7C46,5.1,42.7,2,39,2H28.7C25,2,22,5,22,8.7V12
					c0,0.6-0.4,1-1,1s-1-0.4-1-1V8.7C20,3.9,23.9,0,28.7,0H39c4.9,0,9,4,9,8.7V48c0,1.3,0.5,2.6,1.5,3.5c1,0.9,2.2,1.5,3.5,1.5
					c2.8,0,5-2.2,5-5V22c0-0.6,0.4-1,1-1s1,0.4,1,1v26C60,51.9,56.9,55,53,55z"/>
			</g>
		</g>
		<g>
			<g>
				<path fill="#2C2C3D" d="M21,34c-1.7,0-3-1.3-3-3v-8c0-1.7,1.3-3,3-3c0.8,0,1.6,0.3,2.1,0.9c0.6,0.5,0.9,1.3,0.9,2.1v8
					C24,32.7,22.7,34,21,34z M21,22c-0.6,0-1,0.4-1,1v8c0,0.6,0.4,1,1,1s1-0.4,1-1v-8c0-0.3-0.1-0.5-0.3-0.7
					C21.5,22.1,21.3,22,21,22z"/>
			</g>
		</g>
	</g>
</g>
</svg>
