<?xml version="1.0" encoding="utf-8"?>
<!-- Generator: Adobe Illustrator 18.0.0, SVG Export Plug-In . SVG Version: 6.00 Build 0)  -->
<!DOCTYPE svg PUBLIC "-//W3C//DTD SVG 1.1//EN" "http://www.w3.org/Graphics/SVG/1.1/DTD/svg11.dtd">
<svg version="1.1" id="Layer_1" xmlns="http://www.w3.org/2000/svg" xmlns:xlink="http://www.w3.org/1999/xlink" x="0px" y="0px"
	 viewBox="0 0 64 64" enable-background="new 0 0 64 64" xml:space="preserve">
<g>
	<g id="XMLID_23_">
		<g>
			<g>
				<path fill="#FCDF68" d="M32,31c-2.2,0-4,1.8-4,4s1.8,4,4,4s4-1.8,4-4S34.2,31,32,31z M32,1c0,13,10.3,23.1,21,29l-6,24H18l-7-24
					c5.1-3,10.3-7.1,14.3-12C29.3,13.1,32,7.3,32,1z"/>
			</g>
			<g>
				<path fill="#3D61F9" d="M52,54l1,9c0,0-40.8,0-41,0l1-9h5h29H52z"/>
			</g>
		</g>
		<path fill="#2C2C3D" d="M52,53h-3.7L54,30.2c0.1-0.4-0.1-0.9-0.5-1.1C47.3,25.7,33,16.2,33,1c0-0.6-0.4-1-1-1s-1,0.4-1,1
			c0,5.6-2.2,11.1-6.5,16.4c-4.4,5.5-10.1,9.4-14,11.8c-0.4,0.2-0.6,0.7-0.5,1.1L16.7,53H13c-0.5,0-0.9,0.4-1,0.9l-1,9
			c0,0.3,0.1,0.6,0.2,0.8c0.2,0.2,0.5,0.3,0.7,0.3h41c0.3,0,0.6-0.1,0.7-0.3c0.2-0.2,0.3-0.5,0.2-0.8l-1-9C52.9,53.4,52.5,53,52,53z
			 M32,32c1.7,0,3,1.3,3,3s-1.3,3-3,3s-3-1.3-3-3S30.3,32,32,32z M12.2,30.5c4.1-2.5,9.5-6.4,13.9-11.8c2.1-2.6,3.8-5.3,4.9-8v19.5
			c-2.3,0.5-4,2.5-4,4.9c0,2.8,2.2,5,5,5s5-2.2,5-5c0-2.4-1.7-4.4-4-4.9V10.9c4.1,10,13.6,16.6,18.8,19.6L46.2,53H18.8L12.2,30.5z
			 M13.1,62l0.8-7h37.2l0.8,7H13.1z"/>
	</g>
</g>
</svg>
