<?xml version="1.0" encoding="utf-8"?>
<!-- Generator: Adobe Illustrator 18.0.0, SVG Export Plug-In . SVG Version: 6.00 Build 0)  -->
<!DOCTYPE svg PUBLIC "-//W3C//DTD SVG 1.1//EN" "http://www.w3.org/Graphics/SVG/1.1/DTD/svg11.dtd">
<svg version="1.1" id="Layer_1" xmlns="http://www.w3.org/2000/svg" xmlns:xlink="http://www.w3.org/1999/xlink" x="0px" y="0px"
	 viewBox="0 0 64 64" enable-background="new 0 0 64 64" xml:space="preserve">
<g id="XMLID_10_">
	<g>
		<g>
			<path fill="#6DE283" d="M29.6,5.2C33.8,8.9,34,15.6,34,15.6s-6.6,0.7-10.8-3C19,8.9,18.8,2.2,18.8,2.2S25.4,1.5,29.6,5.2z"/>
		</g>
		<g>
			<path fill="#C3D659" d="M34.1,16c0.4,0,0.8,0.1,1.2,0.1c5.3,0.9,9.1,5.9,9.1,11.4V28c0,3.6,1.4,6.9,3.7,9.6
				c2.4,2.8,3.8,6.5,3.6,10.5c-0.2,6.1-4.3,11.4-9.9,13.5c-3.1,1.1-5.9,1.1-8.5,0.4c-2.6,0.7-5.5,0.8-8.5-0.4
				c-5.6-2.1-9.7-7.4-9.9-13.5c-0.2-4.1,1.3-7.8,3.7-10.6c2.3-2.7,3.8-6.1,3.8-9.7v-0.7C22.5,20.8,27.8,15.6,34.1,16z"/>
		</g>
	</g>
	<g>
		<g>
			<path fill="#2C2C3D" d="M37.2,63.6C37.2,63.6,37.2,63.6,37.2,63.6c-1.2,0-2.5-0.2-3.8-0.5c-3,0.8-6,0.6-8.9-0.5
				c-6.1-2.3-10.3-8.1-10.5-14.4c-0.2-4.2,1.3-8.2,4-11.3c2.3-2.6,3.5-5.8,3.5-9v-0.7c0-7,5.8-12.6,12.7-12.2c0.4,0,0.9,0.1,1.4,0.2
				c5.7,1,9.9,6.2,9.9,12.4V28c0,3.2,1.2,6.4,3.5,9c2.7,3.1,4.1,7.1,3.9,11.2c-0.3,6.4-4.4,12.1-10.5,14.4
				C40.6,63.2,38.9,63.6,37.2,63.6z M33.4,61c0.1,0,0.2,0,0.3,0c1.2,0.3,2.4,0.5,3.5,0.5l0,0c1.5,0,3-0.3,4.4-0.8
				c5.3-2,9-7,9.2-12.6c0.2-3.6-1.1-7.1-3.4-9.8c-2.6-3-4-6.6-4-10.3v-0.5c0-5.1-3.5-9.6-8.3-10.4c-0.4-0.1-0.8-0.1-1.1-0.1
				c-0.2,0-0.4,0-0.6,0c-5.5,0-10,4.6-10,10.2v0.7c0,3.7-1.4,7.3-4,10.3c-2.4,2.7-3.6,6.2-3.5,9.9c0.2,5.6,3.9,10.6,9.2,12.6
				c2.6,1,5.2,1.1,7.9,0.3C33.3,61.1,33.3,61,33.4,61z"/>
		</g>
		<g>
			<path fill="#2C2C3D" d="M32.8,16.6c-2.4,0-7-0.4-10.3-3.3c-4.5-3.9-4.7-10.8-4.7-11.1c0-0.5,0.4-1,0.9-1c0,0,0.5-0.1,1.3-0.1
				c2.4,0,7,0.4,10.3,3.3C34.7,8.4,35,15.3,35,15.6c0,0.5-0.4,1-0.9,1C34.1,16.6,33.6,16.6,32.8,16.6z M19.9,3.2
				c0.2,1.9,1.1,6.1,4,8.6c3,2.6,7.4,2.8,9.1,2.8c-0.2-1.9-1.1-6.1-4-8.6C26,3.4,21.6,3.2,19.9,3.2z"/>
		</g>
		<g>
			<path fill="#2C2C3D" d="M34,22c-0.5,0-1-0.4-1-0.9c0-0.1-0.2-2.2,0.1-5.2c0.5-5,2.1-11.7,7.2-15.7c0.4-0.3,1.1-0.3,1.4,0.2
				c0.3,0.4,0.3,1.1-0.2,1.4c-4.5,3.5-6,9.8-6.5,14.3C34.9,18.9,35,20.9,35,21C35,21.5,34.6,22,34,22C34,22,34,22,34,22z"/>
		</g>
		<g>
			<path fill="#2C2C3D" d="M33.8,22.2c-1.8,0-3.4-0.6-4-1.7c-0.3-0.5-0.2-1.1,0.3-1.4c0.5-0.3,1.1-0.2,1.4,0.3
				c0.2,0.3,1,0.8,2.4,0.8c1.3,0,2.1-0.4,2.3-0.8c0.3-0.5,0.9-0.6,1.4-0.3c0.5,0.3,0.6,0.9,0.3,1.4C37.2,21.6,35.6,22.2,33.8,22.2z"
				/>
		</g>
	</g>
</g>
</svg>
