<?xml version="1.0" encoding="utf-8"?>
<!-- Generator: Adobe Illustrator 18.0.0, SVG Export Plug-In . SVG Version: 6.00 Build 0)  -->
<!DOCTYPE svg PUBLIC "-//W3C//DTD SVG 1.1//EN" "http://www.w3.org/Graphics/SVG/1.1/DTD/svg11.dtd">
<svg version="1.1" id="Layer_1" xmlns="http://www.w3.org/2000/svg" xmlns:xlink="http://www.w3.org/1999/xlink" x="0px" y="0px"
	 viewBox="0 0 64 64" enable-background="new 0 0 64 64" xml:space="preserve">
<g>
	<g id="XMLID_10_">
		<g>
			<g>
				<path fill="#646389" d="M11.1,40v8H7c-2.8,0-5-2.4-5-5.3V21.3C2,18.4,4.2,16,7,16h1h4h40h4h1c2.8,0,5,2.4,5,5.3v21.3
					c0,2.9-2.2,5.3-5,5.3h-4.1v-8v-1H11.1v0.8L11.1,40L11.1,40z M57,24c0-1.7-1.3-3-3-3s-3,1.3-3,3s1.3,3,3,3S57,25.7,57,24z"/>
			</g>
			<g>
				<path fill="#BBF43D" d="M54,21c1.7,0,3,1.3,3,3s-1.3,3-3,3s-3-1.3-3-3S52.3,21,54,21z"/>
			</g>
			<g>
				<polygon fill="#A7A7C6" points="56,10 56,16 52,16 52,15 52,10 				"/>
			</g>
			<g>
				<polygon fill="#FFFFFF" points="11.1,48 11.1,40 11.1,40 11.1,39.8 11.1,39 52.9,39 52.9,40 52.9,48 52.9,63 11.1,63 				"/>
			</g>
			<g>
				<polygon fill="#FFFFFF" points="52,15 52,16 12,16 12,15 12,10 52,10 				"/>
			</g>
			<g>
				<polygon fill="#FFFFFF" points="52,1 52,10 12,10 12,7 19,7 19,1 				"/>
			</g>
			<g>
				<polygon fill="#FFFFFF" points="19,1 19,7 12,7 				"/>
			</g>
			<g>
				<polygon fill="#A7A7C6" points="12,15 12,16 8,16 8,10 12,10 				"/>
			</g>
		</g>
		<g>
			<path fill="#2E2E2E" d="M57,15v-5c0-0.6-0.4-1-1-1h-3V1c0-0.6-0.4-1-1-1H19c-0.1,0-0.3,0-0.4,0.1c0,0-0.1,0-0.1,0.1
				c-0.1,0-0.1,0.1-0.2,0.1l-7,6c0,0,0,0,0,0c-0.1,0.1-0.1,0.2-0.2,0.2c0,0,0,0.1-0.1,0.1C11,6.7,11,6.9,11,7v2H8c-0.6,0-1,0.4-1,1
				v5c-3.3,0-6,2.8-6,6.3v21.3C1,46.2,3.7,49,7,49h3.1v14c0,0.6,0.4,1,1,1h41.9c0.6,0,1-0.4,1-1V49H57c3.3,0,6-2.8,6-6.3V21.3
				C63,17.8,60.3,15,57,15z M55,11v4h-2v-4H55z M51,15H13V8h6c0.6,0,1-0.4,1-1V2h31V15z M14.7,6L18,3.2V6H14.7z M9,11h2v4H9V11z
				 M51.9,62H12.1V40h0.1h39.8V62z M61,42.7c0,2.4-1.8,4.3-4,4.3h-3.1v-7H56c0.6,0,1-0.4,1-1s-0.4-1-1-1H8c-0.6,0-1,0.4-1,1
				s0.4,1,1,1h2.1v7H7c-2.2,0-4-1.9-4-4.3V21.3C3,18.9,4.8,17,7,17h50c2.2,0,4,1.9,4,4.3V42.7z"/>
			<path fill="#2E2E2E" d="M54,20c-2.2,0-4,1.8-4,4s1.8,4,4,4s4-1.8,4-4S56.2,20,54,20z M54,26c-1.1,0-2-0.9-2-2s0.9-2,2-2
				s2,0.9,2,2S55.1,26,54,26z"/>
			<path fill="#2E2E2E" d="M15,46h33c0.6,0,1-0.4,1-1s-0.4-1-1-1H15c-0.6,0-1,0.4-1,1S14.4,46,15,46z"/>
			<path fill="#2E2E2E" d="M15,53h33c0.6,0,1-0.4,1-1s-0.4-1-1-1H15c-0.6,0-1,0.4-1,1S14.4,53,15,53z"/>
		</g>
	</g>
</g>
</svg>
