<?xml version="1.0" encoding="utf-8"?>
<!-- Generator: Adobe Illustrator 18.0.0, SVG Export Plug-In . SVG Version: 6.00 Build 0)  -->
<!DOCTYPE svg PUBLIC "-//W3C//DTD SVG 1.1//EN" "http://www.w3.org/Graphics/SVG/1.1/DTD/svg11.dtd">
<svg version="1.1" id="Layer_1" xmlns="http://www.w3.org/2000/svg" xmlns:xlink="http://www.w3.org/1999/xlink" x="0px" y="0px"
	 viewBox="0 0 64 64" enable-background="new 0 0 64 64" xml:space="preserve">
<g>
	<g id="XMLID_16_">
		<g>
			<g>
				<path fill="#9FCCE2" d="M63,26.8v10.3h-7.8c-0.6,2.7-1.7,5.3-3.2,7.6l5.5,5.5l-7.3,7.3L44.8,52c-2.3,1.5-4.8,2.5-7.6,3.2V63
					H26.8v-7.8c-2.7-0.6-5.3-1.7-7.6-3.2l-5.5,5.5l-7.3-7.3l5.5-5.5c-1.5-2.3-2.5-4.8-3.1-7.6H1V26.8h7.8c0.6-2.7,1.7-5.3,3.1-7.6
					l-5.5-5.5l7.3-7.3l5.5,5.5c2.3-1.5,4.9-2.5,7.6-3.1V1h10.3v7.8c2.7,0.6,5.3,1.7,7.6,3.1l5.5-5.5l7.3,7.3L52,19.2
					c1.5,2.3,2.5,4.9,3.2,7.6H63z M44,32c0-6.6-5.4-12-12-12s-12,5.4-12,12s5.4,12,12,12S44,38.6,44,32z"/>
			</g>
		</g>
		<g>
			<path fill="#2D2D2D" d="M32,19c-7.2,0-13,5.8-13,13s5.8,13,13,13s13-5.8,13-13S39.2,19,32,19z M32,43c-6.1,0-11-4.9-11-11
				s4.9-11,11-11s11,4.9,11,11S38.1,43,32,43z"/>
			<path fill="#2D2D2D" d="M64,38.2V25.8h-8c-0.6-2.3-1.5-4.4-2.7-6.4l5.7-5.7L50.3,5l-5.7,5.7c-2-1.2-4.2-2.1-6.4-2.7V0H25.8v8
				c-2.3,0.6-4.4,1.5-6.4,2.7L13.7,5L5,13.7l5.7,5.7c-1.2,2-2.1,4.2-2.7,6.4H0v12.3h8c0.6,2.3,1.5,4.4,2.7,6.4L5,50.3l8.7,8.7
				l5.7-5.7c2,1.2,4.2,2.1,6.4,2.7v8h12.3v-8c2.3-0.6,4.4-1.5,6.4-2.7l5.7,5.7l8.7-8.7l-5.7-5.7c1.2-2,2.1-4.2,2.7-6.4H64z M54.2,37
				c-0.6,2.6-1.6,5-3,7.3l-0.4,0.7l5.4,5.4l-5.9,5.9l-5.4-5.4l-0.7,0.4c-2.2,1.4-4.7,2.4-7.3,3l-0.8,0.2V62h-8.3v-7.6L27,54.2
				c-2.6-0.6-5-1.6-7.3-3l-0.7-0.4l-5.4,5.4l-5.9-5.9l5.4-5.4l-0.4-0.7c-1.4-2.2-2.4-4.7-3-7.3l-0.2-0.8H2v-8.3h7.6L9.8,27
				c0.6-2.6,1.6-5,3-7.3l0.4-0.7l-5.4-5.4l5.9-5.9l5.4,5.4l0.7-0.4c2.2-1.4,4.7-2.4,7.3-3l0.8-0.2V2h8.3v7.6L37,9.8
				c2.6,0.6,5,1.6,7.3,3l0.7,0.4l5.4-5.4l5.9,5.9l-5.4,5.4l0.4,0.7c1.4,2.2,2.4,4.7,3,7.3l0.2,0.8H62v8.3h-7.6L54.2,37z"/>
		</g>
	</g>
</g>
</svg>
