<?xml version="1.0" encoding="utf-8"?>
<!-- Generator: Adobe Illustrator 18.0.0, SVG Export Plug-In . SVG Version: 6.00 Build 0)  -->
<!DOCTYPE svg PUBLIC "-//W3C//DTD SVG 1.1//EN" "http://www.w3.org/Graphics/SVG/1.1/DTD/svg11.dtd">
<svg version="1.1" id="Layer_1" xmlns="http://www.w3.org/2000/svg" xmlns:xlink="http://www.w3.org/1999/xlink" x="0px" y="0px"
	 viewBox="0 0 64 64" enable-background="new 0 0 64 64" xml:space="preserve">
<g>
	<g id="XMLID_15_">
		<g>
			<g>
				<path fill="#9FCCE2" d="M32,20c-6.6,0-12,5.4-12,12s5.4,12,12,12s12-5.4,12-12S38.6,20,32,20z M62.8,28.4c0.3,2.4,0.3,4.8,0,7.2
					l-8.6,1.5c-0.6,2.5-1.5,4.8-2.9,7l5.1,7.2c-1.5,1.9-3.2,3.6-5.1,5.1l-7.2-5c-1.1,0.7-2.2,1.2-3.4,1.7c-1.2,0.5-2.4,0.9-3.6,1.2
					l-1.5,8.6c-2.4,0.3-4.8,0.3-7.2,0l-1.5-8.6c-2.5-0.6-4.8-1.5-7-2.9l-7.2,5.1c-1.9-1.5-3.6-3.2-5.1-5.1l5-7.2
					c-0.7-1.1-1.2-2.2-1.7-3.4c-0.5-1.2-0.9-2.4-1.1-3.6l-8.6-1.5c-0.3-2.4-0.3-4.8,0-7.2l8.6-1.5c0.6-2.5,1.5-4.8,2.9-7l-5-7.2
					c1.5-1.9,3.2-3.6,5.1-5.1l7.2,5c1-0.7,2.2-1.2,3.4-1.7c1.2-0.5,2.4-0.9,3.6-1.1l1.5-8.6c2.4-0.3,4.8-0.3,7.2,0l1.5,8.6
					c2.5,0.6,4.8,1.5,7,2.9l7.2-5c1.9,1.5,3.6,3.2,5.1,5.1l-5,7.2c0.7,1,1.2,2.2,1.7,3.4c0.5,1.2,0.9,2.4,1.2,3.6L62.8,28.4z"/>
			</g>
		</g>
		<g>
			<path fill="#2D2D2D" d="M32,19c-7.2,0-13,5.8-13,13s5.8,13,13,13s13-5.8,13-13S39.2,19,32,19z M32,43c-6.1,0-11-4.9-11-11
				s4.9-11,11-11s11,4.9,11,11S38.1,43,32,43z"/>
			<path fill="#2D2D2D" d="M63.8,28.3l-0.1-0.7L55,26c-0.3-1.1-0.6-2.1-1-3.1c-0.4-1-0.9-2-1.5-2.9l5.1-7.2l-0.5-0.6
				c-1.5-1.9-3.3-3.7-5.2-5.2l-0.6-0.5L44,11.5c-1.9-1.1-3.9-2-6.1-2.5l-1.5-8.7l-0.7-0.1c-2.4-0.3-4.9-0.3-7.4,0l-0.7,0.1L26,9
				c-1.1,0.3-2.1,0.6-3.1,1c-1,0.4-2,0.9-2.9,1.5l-7.2-5.1l-0.6,0.5c-1.9,1.5-3.7,3.3-5.2,5.2l-0.5,0.6l5.1,7.2
				c-1.1,1.9-2,3.9-2.5,6.1l-8.7,1.5l-0.1,0.7c-0.3,2.4-0.3,4.9,0,7.4l0.1,0.7L9,38c0.3,1.1,0.6,2.1,1,3.1c0.4,1,0.9,2,1.5,2.9
				l-5.1,7.2l0.5,0.6c1.5,1.9,3.3,3.7,5.2,5.2l0.6,0.5l7.2-5.1c1.9,1.1,3.9,2,6.1,2.5l1.5,8.7l0.7,0.1c1.2,0.1,2.5,0.2,3.7,0.2
				c1.2,0,2.5-0.1,3.7-0.2l0.7-0.1L38,55c1.1-0.3,2.1-0.6,3.1-1c1-0.4,2-0.9,2.9-1.5l7.2,5.1l0.6-0.5c1.9-1.5,3.7-3.3,5.2-5.2
				l0.5-0.6L52.5,44c1.1-1.9,2-3.9,2.5-6.1l8.7-1.5l0.1-0.7C64.1,33.3,64.1,30.8,63.8,28.3z M61.9,34.7l-8.5,1.5l-0.1,0.6
				c-0.6,2.4-1.5,4.6-2.8,6.7l-0.4,0.6l5,7.1c-1.2,1.4-2.5,2.7-3.9,3.9l-7.1-5l-0.6,0.4c-1,0.6-2.1,1.2-3.2,1.7
				c-1.1,0.5-2.3,0.8-3.5,1.1l-0.6,0.1l-1.5,8.5c-1.8,0.2-3.7,0.2-5.5,0l-1.5-8.5l-0.6-0.1c-2.4-0.6-4.6-1.5-6.7-2.8l-0.6-0.4
				l-7.1,5c-1.4-1.2-2.7-2.5-3.9-3.9l5-7.1l-0.4-0.6c-0.6-1-1.2-2.1-1.7-3.2c-0.5-1.1-0.8-2.3-1.1-3.5l-0.1-0.6l-8.5-1.5
				c-0.2-1.8-0.2-3.7,0-5.5l8.5-1.5l0.1-0.6c0.6-2.4,1.5-4.6,2.8-6.7l0.4-0.6l-5-7.1c1.2-1.4,2.5-2.7,3.9-3.9l7.1,5l0.6-0.4
				c1-0.6,2.1-1.2,3.2-1.7c1.1-0.5,2.3-0.8,3.5-1.1l0.6-0.1l1.5-8.5c1.8-0.2,3.7-0.2,5.5,0l1.5,8.5l0.6,0.1c2.4,0.6,4.6,1.5,6.7,2.8
				l0.6,0.4l7.1-5c1.4,1.2,2.7,2.5,3.9,3.9l-5,7.1l0.4,0.6c0.6,1,1.2,2.1,1.7,3.2c0.5,1.1,0.8,2.3,1.1,3.5l0.1,0.6l8.5,1.5
				C62,31.1,62,32.9,61.9,34.7z"/>
		</g>
	</g>
</g>
</svg>
