<?xml version="1.0" encoding="utf-8"?>
<!-- Generator: Adobe Illustrator 18.0.0, SVG Export Plug-In . SVG Version: 6.00 Build 0)  -->
<!DOCTYPE svg PUBLIC "-//W3C//DTD SVG 1.1//EN" "http://www.w3.org/Graphics/SVG/1.1/DTD/svg11.dtd">
<svg version="1.1" id="Layer_1" xmlns="http://www.w3.org/2000/svg" xmlns:xlink="http://www.w3.org/1999/xlink" x="0px" y="0px"
	 viewBox="0 0 64 64" enable-background="new 0 0 64 64" xml:space="preserve">
<g>
	<g>
		<path fill="#E84B4B" d="M52.7,42.3c-2.8,0-5.4,1.1-7.2,3l-23.9-12c0.1-0.4,0.1-0.9,0.1-1.3c0-0.4,0-0.9-0.1-1.3l23.9-12
			c1.9,1.8,4.4,3,7.2,3C58.4,21.7,63,17,63,11.3S58.4,1,52.7,1S42.3,5.6,42.3,11.3c0,0.5,0,0.9,0.1,1.3L18.4,24.4
			c-1.8-1.7-4.3-2.8-7-2.8C5.6,21.7,1,26.3,1,32s4.6,10.3,10.3,10.3c2.7,0,5.2-1.1,7-2.8l24.1,11.8c-0.1,0.4-0.1,0.9-0.1,1.3
			C42.3,58.4,47,63,52.7,63S63,58.4,63,52.7S58.4,42.3,52.7,42.3z"/>
	</g>
	<g>
		<path fill="#2C2C3D" d="M52.7,64c-6.2,0-11.3-5.1-11.3-11.3c0-0.2,0-0.5,0-0.7L18.5,40.7c-2,1.7-4.6,2.6-7.2,2.6
			C5.1,43.3,0,38.2,0,32s5.1-11.3,11.3-11.3c2.6,0,5.2,0.9,7.2,2.6l22.8-11.2c0-0.3,0-0.5,0-0.7C41.3,5.1,46.4,0,52.7,0
			C58.9,0,64,5.1,64,11.3c0,6.2-5.1,11.3-11.3,11.3c-2.7,0-5.3-1-7.4-2.8L22.6,31.3c0,0.3,0,0.5,0,0.7s0,0.5,0,0.7l22.6,11.3
			c2.1-1.8,4.7-2.8,7.4-2.8c6.2,0,11.3,5.1,11.3,11.3C64,58.9,58.9,64,52.7,64z M18.4,38.6c0.1,0,0.3,0,0.4,0.1l24.1,11.8
			c0.4,0.2,0.6,0.6,0.6,1c-0.1,0.5-0.1,0.9-0.1,1.2c0,5.1,4.2,9.3,9.3,9.3s9.3-4.2,9.3-9.3c0-5.1-4.2-9.3-9.3-9.3
			c-2.5,0-4.8,0.9-6.5,2.7c-0.3,0.3-0.8,0.4-1.1,0.2l-23.9-12c-0.4-0.2-0.6-0.6-0.5-1c0.1-0.5,0.1-0.8,0.1-1.2s0-0.7-0.1-1.2
			c-0.1-0.4,0.2-0.8,0.5-1l23.9-12c0.4-0.2,0.8-0.1,1.1,0.2c1.8,1.7,4.1,2.7,6.5,2.7c5.1,0,9.3-4.2,9.3-9.3C62,6.2,57.8,2,52.7,2
			s-9.3,4.2-9.3,9.3c0,0.4,0,0.7,0.1,1.2c0.1,0.4-0.2,0.8-0.6,1L18.8,25.3c-0.4,0.2-0.8,0.1-1.1-0.2c-1.7-1.6-4-2.5-6.3-2.5
			C6.2,22.7,2,26.9,2,32s4.2,9.3,9.3,9.3c2.4,0,4.6-0.9,6.4-2.5C17.9,38.6,18.1,38.6,18.4,38.6z"/>
	</g>
</g>
</svg>
