<?xml version="1.0" encoding="utf-8"?>
<!-- Generator: Adobe Illustrator 18.0.0, SVG Export Plug-In . SVG Version: 6.00 Build 0)  -->
<!DOCTYPE svg PUBLIC "-//W3C//DTD SVG 1.1//EN" "http://www.w3.org/Graphics/SVG/1.1/DTD/svg11.dtd">
<svg version="1.1" id="Layer_1" xmlns="http://www.w3.org/2000/svg" xmlns:xlink="http://www.w3.org/1999/xlink" x="0px" y="0px"
	 viewBox="0 0 64 64" enable-background="new 0 0 64 64" xml:space="preserve">
<g>
	<g id="XMLID_12_">
		<g>
			<g>
				<path fill="#499EF2" d="M24,63c-2.2,0-4-1.8-4-4v-8c0-2.2,1.8-4,4-4H40c2.2,0,4,1.8,4,4v8c0,2.2-1.8,4-4,4H24z"/>
			</g>
			<g>
				<polygon fill="#499EF2" points="42.1,42.4 42.1,47 40,47 24,47 22,47 22,42.4 22.2,42.4 42.1,42.4 				"/>
			</g>
			<g>
				<polygon fill="#499EF2" points="42.1,38.1 22.2,38.1 22,38.1 22,33.8 22.2,33.8 42.1,33.8 42.1,33.8 42.1,38.1 				"/>
			</g>
			<g>
				<polygon fill="#499EF2" points="22,38.1 22.2,38.1 42.1,38.1 42.1,38.1 42.1,42.4 42.1,42.4 22.2,42.4 22,42.4 				"/>
			</g>
			<g>
				<polygon fill="#499EF2" points="42.1,29.4 22.2,29.4 22,29.4 22,25 22,25 42.1,25 42.1,25 42.1,29.4 				"/>
			</g>
			<g>
				<path fill="#E3F0FC" d="M43,19.9c0,1.8-0.3,3.6-0.9,5.1H22c-0.6-1.6-0.9-3.3-0.9-5.1c0-5.2,2.6-9.6,6.4-11.7
					c1.4-0.8,3-1.2,4.6-1.2c1.6,0,3.2,0.4,4.6,1.2C40.4,10.2,43,14.7,43,19.9z"/>
			</g>
			<g>
				<polygon fill="#499EF2" points="22,29.4 22.2,29.4 42.1,29.4 42.1,29.4 42.1,33.8 42.1,33.8 22.2,33.8 22,33.8 				"/>
			</g>
			<g>
				<path fill="#F9D05F" d="M36.8,1v7l-0.1,0.2C35.3,7.4,33.7,7,32.1,7c-1.6,0-3.2,0.4-4.6,1.2L27.4,8V1H36.8z"/>
			</g>
		</g>
		<g>
			<g>
				<path fill="#2C2C3D" d="M40,64H24c-2.8,0-5-2.2-5-5v-8c0-2.8,2.2-5,5-5c0.6,0,1,0.4,1,1s-0.4,1-1,1c-1.7,0-3,1.3-3,3v8
					c0,1.7,1.3,3,3,3h16c1.7,0,3-1.3,3-3v-8c0-1.7-1.3-3-3-3c-0.6,0-1-0.4-1-1s0.4-1,1-1c2.8,0,5,2.2,5,5v8C45,61.8,42.7,64,40,64z"
					/>
			</g>
			<g>
				<path fill="#2C2C3D" d="M42.1,48H22c-0.6,0-1-0.4-1-1V25c0-0.6,0.4-1,1-1s1,0.4,1,1c0,0.1,0,0.1,0,0.2V46h18.1V25.1
					c0,0,0-0.1,0-0.1c0-0.6,0.4-1,1-1h0c0.6,0,1,0.4,1,1v22C43.1,47.6,42.7,48,42.1,48z"/>
			</g>
			<g>
				<path fill="#2C2C3D" d="M42.1,26H22c-0.4,0-0.8-0.3-0.9-0.7c-0.7-1.7-1-3.6-1-5.5c0-5.4,2.7-10.3,6.9-12.5c3.2-1.7,7-1.7,10.1,0
					c4.2,2.3,6.9,7.2,6.9,12.5c0,1.9-0.3,3.7-1,5.5C42.9,25.7,42.5,26,42.1,26z M22.8,24h18.6c0.4-1.3,0.6-2.7,0.6-4.1
					c0-4.6-2.3-8.9-5.8-10.8c-2.6-1.4-5.6-1.4-8.2,0c-3.5,1.9-5.8,6.2-5.8,10.8C22.1,21.3,22.3,22.7,22.8,24z"/>
			</g>
			<g>
				<path fill="#2C2C3D" d="M36.8,9c-0.6,0-1-0.4-1-1V2h-7.4v6c0,0.6-0.4,1-1,1s-1-0.4-1-1V1c0-0.6,0.4-1,1-1h9.4c0.6,0,1,0.4,1,1v7
					C37.8,8.6,37.3,9,36.8,9z"/>
			</g>
			<g>
				<path fill="#2C2C3D" d="M42.1,30.4H22.2c-0.6,0-1-0.4-1-1s0.4-1,1-1h19.9c0.6,0,1,0.4,1,1S42.6,30.4,42.1,30.4z"/>
			</g>
			<g>
				<path fill="#2C2C3D" d="M42.1,34.8H22.2c-0.6,0-1-0.4-1-1s0.4-1,1-1h19.9c0.6,0,1,0.4,1,1S42.6,34.8,42.1,34.8z"/>
			</g>
			<g>
				<path fill="#2C2C3D" d="M42.1,39.1H22.2c-0.6,0-1-0.4-1-1s0.4-1,1-1h19.9c0.6,0,1,0.4,1,1S42.6,39.1,42.1,39.1z"/>
			</g>
			<g>
				<path fill="#2C2C3D" d="M42.1,43.4H22.2c-0.6,0-1-0.4-1-1s0.4-1,1-1h19.9c0.6,0,1,0.4,1,1S42.6,43.4,42.1,43.4z"/>
			</g>
		</g>
	</g>
</g>
</svg>
