<?xml version="1.0" encoding="utf-8"?>
<!-- Generator: Adobe Illustrator 18.0.0, SVG Export Plug-In . SVG Version: 6.00 Build 0)  -->
<!DOCTYPE svg PUBLIC "-//W3C//DTD SVG 1.1//EN" "http://www.w3.org/Graphics/SVG/1.1/DTD/svg11.dtd">
<svg version="1.1" id="Layer_1" xmlns="http://www.w3.org/2000/svg" xmlns:xlink="http://www.w3.org/1999/xlink" x="0px" y="0px"
	 viewBox="0 0 64 64" enable-background="new 0 0 64 64" xml:space="preserve">
<g>
	<g id="XMLID_11_">
		<g>
			<g>
				<path fill="#C94357" d="M49,20l0.7-0.1L50,22c0,11-8.1,18-18,18s-18-7-18-18l0.3-2.1L15,20H49z"/>
			</g>
		</g>
		<g>
			<g>
				<path fill="#2C2C3D" d="M32,41c-11,0-19-8-19-19c0,0,0-0.1,0-0.1l3-21C16.1,0.4,16.5,0,17,0h30c0.5,0,0.9,0.4,1,0.9l3,21
					c0,0,0,0.1,0,0.1C51,33,43,41,32,41z M15,22.1C15,31.9,22.2,39,32,39s17-7.1,17-16.9L46.1,2H17.9L15,22.1z"/>
			</g>
			<g>
				<path fill="#2C2C3D" d="M32,64c-0.6,0-1-0.4-1-1V40c0-0.6,0.4-1,1-1s1,0.4,1,1v23C33,63.6,32.6,64,32,64z"/>
			</g>
			<g>
				<path fill="#2C2C3D" d="M43,64H21c-0.6,0-1-0.4-1-1s0.4-1,1-1h22c0.6,0,1,0.4,1,1S43.6,64,43,64z"/>
			</g>
			<g>
				<path fill="#2C2C3D" d="M49,21H15c-0.6,0-1-0.4-1-1s0.4-1,1-1h34c0.6,0,1,0.4,1,1S49.6,21,49,21z"/>
			</g>
		</g>
	</g>
</g>
</svg>
