<?xml version="1.0" encoding="utf-8"?>
<!-- Generator: Adobe Illustrator 18.0.0, SVG Export Plug-In . SVG Version: 6.00 Build 0)  -->
<!DOCTYPE svg PUBLIC "-//W3C//DTD SVG 1.1//EN" "http://www.w3.org/Graphics/SVG/1.1/DTD/svg11.dtd">
<svg version="1.1" id="Layer_1" xmlns="http://www.w3.org/2000/svg" xmlns:xlink="http://www.w3.org/1999/xlink" x="0px" y="0px"
	 viewBox="0 0 64 64" enable-background="new 0 0 64 64" xml:space="preserve">
<g>
	<g id="XMLID_7_">
		<g>
			<g>
				<path fill="#C94357" d="M43,30.8V63H21v-7h9V32h-9v-1.2c0-3.7,2.5-8.1,6-8.8v-7h10h0l0,7C40.9,22.4,43,26.9,43,30.8z"/>
			</g>
			<g>
				<rect x="21" y="32" fill="#EAEAEA" width="9" height="24"/>
			</g>
			<g>
				<polygon fill="#F9E385" points="37.1,1 37,15 37,15 27,15 27,1 				"/>
			</g>
		</g>
		<g>
			<g>
				<path fill="#2C2C3D" d="M37,16H27c-0.6,0-1-0.4-1-1s0.4-1,1-1h10c0.6,0,1,0.4,1,1S37.6,16,37,16z"/>
			</g>
			<g>
				<path fill="#2C2C3D" d="M43,64H21c-0.6,0-1-0.4-1-1V30.8c0-3.8,2.4-8.3,6-9.6V1c0-0.6,0.4-1,1-1h10.1c0.3,0,0.5,0.1,0.7,0.3
					s0.3,0.4,0.3,0.7L38,21.2c3.9,1,6,5.5,6,9.7V63C44,63.6,43.6,64,43,64z M22,62h20V30.8c0-3.6-1.9-7.5-5.1-7.8
					c-0.5,0-0.9-0.5-0.9-1l0.1-20H28v20c0,0.5-0.3,0.9-0.8,1c-3,0.6-5.2,4.6-5.2,7.8V62z"/>
			</g>
			<g>
				<path fill="#2C2C3D" d="M30,57h-9c-0.6,0-1-0.4-1-1V32c0-0.6,0.4-1,1-1h9c0.6,0,1,0.4,1,1v24C31,56.5,30.6,57,30,57z M22,55h7
					V33h-7V55z"/>
			</g>
		</g>
	</g>
</g>
</svg>
