<?xml version="1.0" encoding="utf-8"?>
<!-- Generator: Adobe Illustrator 18.0.0, SVG Export Plug-In . SVG Version: 6.00 Build 0)  -->
<!DOCTYPE svg PUBLIC "-//W3C//DTD SVG 1.1//EN" "http://www.w3.org/Graphics/SVG/1.1/DTD/svg11.dtd">
<svg version="1.1" id="Layer_1" xmlns="http://www.w3.org/2000/svg" xmlns:xlink="http://www.w3.org/1999/xlink" x="0px" y="0px"
	 viewBox="0 0 64 64" enable-background="new 0 0 64 64" xml:space="preserve">
<g id="XMLID_4_">
	<g>
		<g>
			<path fill="#F9F7E4" d="M34.5,33c0-1.4-1.1-2.5-2.5-2.5c-1.4,0-2.5,1.1-2.5,2.5c0,1.4,1.1,2.5,2.5,2.5
				C33.4,35.5,34.5,34.4,34.5,33z M11.8,33c0-5.6,2.3-10.6,5.9-14.3c3.6-3.6,8.7-5.9,14.3-5.9s10.6,2.3,14.3,5.9
				c3.6,3.6,5.9,8.7,5.9,14.3s-2.3,10.6-5.9,14.3c-3.6,3.6-8.7,5.9-14.3,5.9s-10.6-2.3-14.3-5.9C14.1,43.6,11.8,38.6,11.8,33z"/>
		</g>
		<g>
			<circle fill="#FCDA4F" cx="32" cy="33" r="2.5"/>
		</g>
		<g>
			<path fill="#98A6B7" d="M59.9,5.1C64,9.2,64,15.9,59.9,20L45,5.1C49.1,1,55.8,1,59.9,5.1z"/>
		</g>
		<g>
			<path fill="#98A6B7" d="M12,48c1.4,1.9,3.1,3.6,5,5L6,62L12,48z"/>
		</g>
		<g>
			<path fill="#519AF2" d="M32,8c13.8,0,25,11.2,25,25c0,5.6-1.9,10.8-5,15c-1.4,1.9-3.1,3.6-5,5c-4.2,3.1-9.4,5-15,5
				c-5.6,0-10.8-1.9-15-5c-1.9-1.4-3.6-3.1-5-5c-3.1-4.2-5-9.4-5-15C7,19.2,18.2,8,32,8z M17.7,47.3c3.6,3.6,8.7,5.9,14.3,5.9
				s10.6-2.3,14.3-5.9c3.6-3.6,5.9-8.7,5.9-14.3s-2.3-10.6-5.9-14.3c-3.6-3.6-8.7-5.9-14.3-5.9s-10.6,2.3-14.3,5.9
				c-3.6,3.6-5.9,8.7-5.9,14.3S14.1,43.6,17.7,47.3z"/>
		</g>
		<g>
			<path fill="#98A6B7" d="M19,5.1L4.1,20C0,15.9,0,9.2,4.1,5.1S14.9,1,19,5.1z"/>
		</g>
		<g>
			<path fill="#98A6B7" d="M52,48l6,14l-11-9C48.9,51.6,50.6,49.9,52,48z"/>
		</g>
	</g>
	<g>
		<g>
			<path fill="#2C2C3D" d="M32,36.5c-1.9,0-3.5-1.6-3.5-3.5s1.6-3.5,3.5-3.5s3.5,1.6,3.5,3.5S33.9,36.5,32,36.5z M32,31.5
				c-0.8,0-1.5,0.7-1.5,1.5s0.7,1.5,1.5,1.5s1.5-0.7,1.5-1.5S32.8,31.5,32,31.5z"/>
		</g>
		<g>
			<path fill="#2C2C3D" d="M32,59c-5.7,0-11.1-1.8-15.6-5.2c-2-1.5-3.7-3.2-5.2-5.2C7.8,44.1,6,38.7,6,33C6,18.7,17.7,7,32,7
				s26,11.7,26,26c0,5.7-1.8,11.1-5.2,15.6c-1.5,2-3.2,3.7-5.2,5.2C43.1,57.2,37.7,59,32,59z M32,9C18.8,9,8,19.8,8,33
				c0,5.2,1.7,10.2,4.8,14.4c1.4,1.8,3,3.4,4.8,4.8C21.8,55.3,26.8,57,32,57s10.2-1.7,14.4-4.8c1.8-1.4,3.4-3,4.8-4.8
				C54.3,43.2,56,38.2,56,33C56,19.8,45.2,9,32,9z"/>
		</g>
		<g>
			<path fill="#2C2C3D" d="M32,54.2c-5.6,0-11-2.2-15-6.2c-4-4-6.2-9.3-6.2-15S13,22,17,18c4-4,9.3-6.2,15-6.2S43,14,47,18
				c4,4,6.2,9.3,6.2,15S51,44,47,48C43,52,37.6,54.2,32,54.2z M32,13.8c-5.1,0-9.9,2-13.6,5.6c-3.6,3.6-5.6,8.4-5.6,13.6
				s2,9.9,5.6,13.6c3.6,3.6,8.4,5.6,13.6,5.6s9.9-2,13.6-5.6c3.6-3.6,5.6-8.4,5.6-13.6s-2-9.9-5.6-13.6C41.9,15.8,37.1,13.8,32,13.8
				z"/>
		</g>
		<g>
			<path fill="#2C2C3D" d="M41,34h-5.6c-0.6,0-1-0.4-1-1s0.4-1,1-1H41c0.6,0,1,0.4,1,1S41.6,34,41,34z"/>
		</g>
		<g>
			<path fill="#2C2C3D" d="M32,31c-0.6,0-1-0.4-1-1v-9c0-0.6,0.4-1,1-1s1,0.4,1,1v9C33,30.6,32.6,31,32,31z"/>
		</g>
		<g>
			<path fill="#2C2C3D" d="M32,17.9c-0.6,0-1-0.4-1-1v-4c0-0.6,0.4-1,1-1s1,0.4,1,1v4C33,17.4,32.6,17.9,32,17.9z"/>
		</g>
		<g>
			<path fill="#2C2C3D" d="M32,54.2c-0.6,0-1-0.4-1-1v-4c0-0.6,0.4-1,1-1s1,0.4,1,1v4C33,53.7,32.6,54.2,32,54.2z"/>
		</g>
		<g>
			<path fill="#2C2C3D" d="M52.2,34h-4c-0.6,0-1-0.4-1-1s0.4-1,1-1h4c0.6,0,1,0.4,1,1S52.7,34,52.2,34z"/>
		</g>
		<g>
			<path fill="#2C2C3D" d="M15.9,34h-4c-0.6,0-1-0.4-1-1s0.4-1,1-1h4c0.6,0,1,0.4,1,1S16.4,34,15.9,34z"/>
		</g>
		<g>
			<path fill="#2C2C3D" d="M46.3,48.3c-0.3,0-0.5-0.1-0.7-0.3l-2.9-2.9c-0.4-0.4-0.4-1,0-1.4s1-0.4,1.4,0l2.9,2.9
				c0.4,0.4,0.4,1,0,1.4C46.8,48.2,46.5,48.3,46.3,48.3z"/>
		</g>
		<g>
			<path fill="#2C2C3D" d="M20.6,22.6c-0.3,0-0.5-0.1-0.7-0.3L17,19.4c-0.4-0.4-0.4-1,0-1.4s1-0.4,1.4,0l2.9,2.9
				c0.4,0.4,0.4,1,0,1.4C21.1,22.5,20.9,22.6,20.6,22.6z"/>
		</g>
		<g>
			<path fill="#2C2C3D" d="M17.7,48.3c-0.3,0-0.5-0.1-0.7-0.3c-0.4-0.4-0.4-1,0-1.4l2.9-2.9c0.4-0.4,1-0.4,1.4,0s0.4,1,0,1.4
				L18.4,48C18.3,48.2,18,48.3,17.7,48.3z"/>
		</g>
		<g>
			<path fill="#2C2C3D" d="M43.4,22.6c-0.3,0-0.5-0.1-0.7-0.3c-0.4-0.4-0.4-1,0-1.4l2.9-2.9c0.4-0.4,1-0.4,1.4,0s0.4,1,0,1.4
				l-2.9,2.9C43.9,22.5,43.7,22.6,43.4,22.6z"/>
		</g>
		<g>
			<path fill="#2C2C3D" d="M6,63c-0.2,0-0.4-0.1-0.6-0.2C5,62.5,4.9,62,5.1,61.6l6-14c0.2-0.5,0.8-0.7,1.3-0.5
				c0.5,0.2,0.7,0.8,0.5,1.3L8.5,58.6l7.8-6.4c0.4-0.3,1.1-0.3,1.4,0.1c0.3,0.4,0.3,1.1-0.1,1.4l-11,9C6.4,62.9,6.2,63,6,63z"/>
		</g>
		<g>
			<path fill="#2C2C3D" d="M58,63c-0.2,0-0.4-0.1-0.6-0.2l-11-9c-0.4-0.3-0.5-1-0.1-1.4c0.4-0.4,1-0.5,1.4-0.1l7.8,6.4l-4.4-10.2
				c-0.2-0.5,0-1.1,0.5-1.3c0.5-0.2,1.1,0,1.3,0.5l6,14c0.2,0.4,0.1,0.9-0.3,1.2C58.4,62.9,58.2,63,58,63z"/>
		</g>
		<g>
			<path fill="#2C2C3D" d="M4.1,21L4.1,21c-0.3,0-0.5-0.1-0.7-0.3c-4.5-4.5-4.5-11.8,0-16.3C5.6,2.2,8.5,1,11.5,1s6,1.2,8.2,3.4
				C19.9,4.6,20,4.8,20,5.1s-0.1,0.5-0.3,0.7L4.8,20.7C4.6,20.9,4.4,21,4.1,21z M11.5,3C9,3,6.6,4,4.8,5.8c-3.5,3.5-3.7,9-0.7,12.8
				L17.5,5.1C15.9,3.7,13.8,3,11.5,3z"/>
		</g>
		<g>
			<path fill="#2C2C3D" d="M59.9,21c-0.3,0-0.5-0.1-0.7-0.3L44.3,5.8C44.1,5.6,44,5.4,44,5.1s0.1-0.5,0.3-0.7
				C46.5,2.2,49.4,1,52.5,1s6,1.2,8.2,3.4c4.5,4.5,4.5,11.8,0,16.3C60.4,20.9,60.2,21,59.9,21z M46.5,5.1l13.4,13.4
				c3-3.7,2.8-9.3-0.7-12.8C57.4,4,55,3,52.5,3C50.2,3,48.1,3.7,46.5,5.1z"/>
		</g>
	</g>
</g>
</svg>
