<?xml version="1.0" encoding="utf-8"?>
<!-- Generator: Adobe Illustrator 18.0.0, SVG Export Plug-In . SVG Version: 6.00 Build 0)  -->
<!DOCTYPE svg PUBLIC "-//W3C//DTD SVG 1.1//EN" "http://www.w3.org/Graphics/SVG/1.1/DTD/svg11.dtd">
<svg version="1.1" id="Layer_1" xmlns="http://www.w3.org/2000/svg" xmlns:xlink="http://www.w3.org/1999/xlink" x="0px" y="0px"
	 viewBox="0 0 64 64" enable-background="new 0 0 64 64" xml:space="preserve">
<g>
	<g>
		<g>
			
				<rect x="37.6" y="0.4" transform="matrix(0.7081 0.7061 -0.7061 0.7081 29.1575 -19.8583)" fill="#2C2C3D" width="2" height="49.9"/>
		</g>
	</g>
	<g>
		<g>
			<path fill="#508955" d="M22.6,50.2L21,43l-7.2-1.6L1,54.3l6.8,2l2,6.8L22.6,50.2z M18.2,54.6l-2-6.8l-6.8-2 M14.1,58.6l-2-6.8
				l-6.8-2"/>
		</g>
		<g>
			<path fill="#2C2C3D" d="M9.7,64c-0.1,0-0.2,0-0.2,0c-0.3-0.1-0.6-0.4-0.7-0.7L7,57l-6.2-1.8c-0.3-0.1-0.6-0.4-0.7-0.7
				c-0.1-0.3,0-0.7,0.3-1l12.8-12.8c0.2-0.2,0.6-0.3,0.9-0.3l7.2,1.6c0.4,0.1,0.7,0.4,0.8,0.8l1.6,7.2c0.1,0.3,0,0.7-0.3,0.9
				L10.4,63.7C10.2,63.9,10,64,9.7,64z M2.9,53.8L8,55.3c0.3,0.1,0.6,0.4,0.7,0.7l1.5,5.1l2.8-2.8l-1.6-5.7L5.7,51L2.9,53.8z
				 M7.3,49.4l5.1,1.5c0.3,0.1,0.6,0.4,0.7,0.7l1.5,5.1l2.4-2.4l-1.6-5.7L9.7,47L7.3,49.4z M11.3,45.4l5.1,1.5
				c0.3,0.1,0.6,0.4,0.7,0.7l1.5,5.1l2.8-2.8l-1.3-6l-6-1.3L11.3,45.4z"/>
		</g>
	</g>
	<g>
		<g>
			<path fill="#F7BA41" d="M56.5,7.3l2.8,7.2L63,1L49.5,4.6L56.5,7.3z"/>
		</g>
		<g>
			<path fill="#2C2C3D" d="M59.4,15.5c-0.4,0-0.8-0.2-0.9-0.6l-2.7-6.8l-6.6-2.5c-0.4-0.2-0.7-0.6-0.6-1c0-0.4,0.3-0.8,0.7-0.9
				L62.7,0c0.3-0.1,0.7,0,1,0.3c0.3,0.3,0.4,0.6,0.3,1l-3.6,13.5C60.2,15.2,59.9,15.5,59.4,15.5C59.4,15.5,59.4,15.5,59.4,15.5z
				 M52.8,4.8l4.1,1.6c0.3,0.1,0.5,0.3,0.6,0.6l1.7,4.4l2.4-8.9L52.8,4.8z"/>
		</g>
	</g>
	<g>
		<g>
			<path fill="#2C2C3D" d="M43,44c-0.3,0-0.5-0.1-0.7-0.3L7.1,8.4C6.9,8.2,6.8,7.9,6.8,7.7c0-0.3,0.1-0.5,0.3-0.7
				c0.4-0.4,1-0.4,1.4,0l35.2,35.3c0.2,0.2,0.3,0.5,0.3,0.7c0,0.3-0.1,0.5-0.3,0.7C43.5,43.9,43.3,44,43,44z"/>
		</g>
	</g>
	<g>
		<g>
			<path fill="#508955" d="M54.3,63l2-6.8l6.8-2L50.2,41.4L43,43l-1.6,7.2L54.3,63z M54.6,45.8l-6.8,2l-2,6.8 M58.6,49.9l-6.8,2
				l-2,6.8"/>
		</g>
		<g>
			<path fill="#2C2C3D" d="M54.3,64c-0.3,0-0.5-0.1-0.7-0.3L40.7,50.9c-0.2-0.2-0.3-0.6-0.3-0.9l1.6-7.2c0.1-0.4,0.4-0.7,0.8-0.8
				l7.2-1.6c0.3-0.1,0.7,0,0.9,0.3l12.8,12.8c0.2,0.2,0.3,0.6,0.3,1c-0.1,0.3-0.4,0.6-0.7,0.7L57,57l-1.8,6.2
				c-0.1,0.3-0.4,0.6-0.7,0.7C54.4,64,54.4,64,54.3,64z M51,58.3l2.8,2.8l1.5-5.1c0.1-0.3,0.4-0.6,0.7-0.7l5.1-1.5L58.3,51l-5.7,1.6
				L51,58.3z M47,54.3l2.4,2.4l1.5-5.1c0.1-0.3,0.4-0.6,0.7-0.7l5.1-1.5L54.3,47l-5.7,1.6L47,54.3z M42.5,49.8l2.8,2.8l1.5-5.1
				c0.1-0.3,0.4-0.6,0.7-0.7l5.1-1.5l-2.8-2.8l-6,1.3L42.5,49.8z"/>
		</g>
	</g>
	<g>
		<g>
			<path fill="#F7BA41" d="M14.5,4.6L1,1l3.6,13.5l2.8-7.2L14.5,4.6z"/>
		</g>
		<g>
			<path fill="#2C2C3D" d="M4.6,15.5C4.6,15.5,4.6,15.5,4.6,15.5c-0.5,0-0.9-0.3-1-0.7L0,1.3c-0.1-0.3,0-0.7,0.3-1
				C0.5,0,0.9-0.1,1.3,0l13.5,3.6c0.4,0.1,0.7,0.5,0.7,0.9c0,0.4-0.2,0.8-0.6,1L8.2,8.1l-2.7,6.8C5.4,15.2,5,15.5,4.6,15.5z
				 M2.4,2.4l2.4,8.9l1.7-4.4c0.1-0.3,0.3-0.5,0.6-0.6l4.1-1.6L2.4,2.4z"/>
		</g>
	</g>
</g>
</svg>
