<?xml version="1.0" encoding="utf-8"?>
<!-- Generator: Adobe Illustrator 18.0.0, SVG Export Plug-In . SVG Version: 6.00 Build 0)  -->
<!DOCTYPE svg PUBLIC "-//W3C//DTD SVG 1.1//EN" "http://www.w3.org/Graphics/SVG/1.1/DTD/svg11.dtd">
<svg version="1.1" id="Layer_1" xmlns="http://www.w3.org/2000/svg" xmlns:xlink="http://www.w3.org/1999/xlink" x="0px" y="0px"
	 viewBox="0 0 64 64" enable-background="new 0 0 64 64" xml:space="preserve">
<g>
	<g id="XMLID_5_">
		<g>
			<g>
				<path fill="#23A564" d="M43,31.5v28c0,1.9-1.5,3.5-3.3,3.5H24.4c-1.8,0-3.4-1.6-3.4-3.5v-28c0-3.5,1.4-6.6,4.4-7.6
					c0.4-0.1,0.7-0.4,0.7-0.8l0.7-7.6l0.3,0h10l0.3,0l0.7,7.6c0,0.4,0.3,0.7,0.7,0.8C41.6,24.9,43,28,43,31.5z M37,40.8
					c0-4.3-2.2-7.8-5-7.8s-5,3.5-5,7.8s2.2,7.8,5,7.8S37,45.1,37,40.8z"/>
			</g>
			<g>
				<polygon fill="#F9E385" points="36,1 37.3,15.4 37,15.5 27,15.5 26.7,15.4 28,1 				"/>
			</g>
			<g>
				<ellipse fill="#EAEAEA" cx="32" cy="40.8" rx="5" ry="7.8"/>
			</g>
		</g>
		<g>
			<g>
				<path fill="#2C2C3D" d="M39.7,64H24.3C22,64,20,62,20,59.5v-28c0-4.3,1.9-7.5,5.1-8.6l1.9-22C27,0.4,27.5,0,28,0h8
					c0.5,0,1,0.4,1,0.9L38.9,23c3.2,1,5.1,4.2,5.1,8.5v28C44,62,42,64,39.7,64z M28.9,2l-1.9,21.2c-0.1,0.8-0.6,1.4-1.4,1.7
					c-2.3,0.8-3.7,3.3-3.7,6.7v28c0,1.4,1.1,2.5,2.3,2.5h15.3c1.3,0,2.3-1.1,2.3-2.5v-28c0-3.4-1.4-5.9-3.7-6.7
					c-0.8-0.2-1.3-0.9-1.4-1.7L35.1,2H28.9z"/>
			</g>
			<g>
				<path fill="#2C2C3D" d="M37,16.5H27c-0.6,0-1-0.4-1-1s0.4-1,1-1h10c0.6,0,1,0.4,1,1S37.6,16.5,37,16.5z"/>
			</g>
			<g>
				<path fill="#2C2C3D" d="M32,49.5c-3.4,0-6-3.8-6-8.8s2.6-8.8,6-8.8s6,3.8,6,8.8S35.4,49.5,32,49.5z M32,34c-2.2,0-4,3.1-4,6.8
					s1.8,6.8,4,6.8s4-3.1,4-6.8S34.2,34,32,34z"/>
			</g>
		</g>
	</g>
</g>
</svg>
