<?xml version="1.0" encoding="utf-8"?>
<!-- Generator: Adobe Illustrator 18.0.0, SVG Export Plug-In . SVG Version: 6.00 Build 0)  -->
<!DOCTYPE svg PUBLIC "-//W3C//DTD SVG 1.1//EN" "http://www.w3.org/Graphics/SVG/1.1/DTD/svg11.dtd">
<svg version="1.1" id="Layer_1" xmlns="http://www.w3.org/2000/svg" xmlns:xlink="http://www.w3.org/1999/xlink" x="0px" y="0px"
	 viewBox="0 0 64 64" enable-background="new 0 0 64 64" xml:space="preserve">
<g id="XMLID_10_">
	<g>
		<g>
			<path fill="#68B2EA" d="M62.9,44.6c0.1,0.6,0.1,1.3,0.1,1.9C63,53.4,57.5,59,50.6,59c-6.9,0-12.4-5.6-12.4-12.5
				c0-0.7,0-1.3,0.2-1.9c0.9-6,6.1-10.5,12.2-10.5C56.8,34.1,62,38.7,62.9,44.6z"/>
		</g>
		<g>
			<path fill="#55607C" d="M51.6,12.2c4.1,1,7.4,4.2,8.3,10.1l3,22.3l0,0c-0.9-6-6-10.6-12.2-10.6c-6.2,0-11.3,4.6-12.2,10.5l-0.3,0
				c0.1-0.4,0.1-0.8,0.1-1.2l0-0.7l-0.9-28.3l-0.1-2.1c0-0.2,0-0.3,0-0.4c6.2,0,11.3,0,11.3,0C49.6,11.8,50.6,11.9,51.6,12.2z"/>
		</g>
		<g>
			<path fill="#38445E" d="M44.4,5c4,0,7.2,3.2,7.2,7.2c-1-0.3-2-0.4-3.1-0.4c0,0-5.2,0-11.3,0C37.4,8,40.6,5,44.4,5z"/>
		</g>
		<g>
			<path fill="#38445E" d="M38.2,42.6l0,0.7c0,0.4,0,0.8-0.1,1.2c-0.6,2.9-3.1,5-6.1,5c-3,0-5.5-2.2-6.1-5c-0.1-0.4-0.1-0.8-0.1-1.3
				c0-3.5,2.8-6.3,6.2-6.3C35.2,37,37.9,39.5,38.2,42.6z"/>
		</g>
		<g>
			<path fill="#55607C" d="M37.2,14.4l0.9,28.3c-0.3-3.2-3-5.6-6.2-5.6c-3.4,0-6.2,2.8-6.2,6.3l1-28.9h0.1c0.5-2.4,2.7-4.2,5.2-4.2
				C34.5,10.2,36.7,12,37.2,14.4L37.2,14.4z"/>
		</g>
		<g>
			<path fill="#55607C" d="M12.4,12.2c1-0.2,2-0.4,3.1-0.4c0,0,5.1,0,11.3,0c0,0.1,0,0.3,0,0.4l-0.1,2.1l-1,28.9
				c0,0.4,0,0.9,0.1,1.3l-0.3,0c-0.9-6-6.1-10.5-12.2-10.5c-6.2,0-11.4,4.6-12.3,10.6l0,0l3-22.3c0.8-5.3,3.6-8.5,7.2-9.8
				C11.7,12.4,12,12.3,12.4,12.2z"/>
		</g>
		<g>
			<path fill="#38445E" d="M26.8,11.8c-6.2,0-11.3,0-11.3,0c-1.1,0-2.1,0.1-3.1,0.4c0-4,3.3-7.2,7.2-7.2C23.5,5,26.6,8,26.8,11.8z"
				/>
		</g>
		<g>
			<path fill="#68B2EA" d="M25.7,44.6c0.1,0.6,0.1,1.3,0.1,1.9c0,6.9-5.5,12.5-12.4,12.5C6.6,59,1,53.4,1,46.5
				c0-0.6,0.1-1.3,0.1-1.9c0.9-6,6-10.6,12.3-10.6C19.6,34.1,24.7,38.6,25.7,44.6z"/>
		</g>
	</g>
	<g>
		<path fill="#2C2C3D" d="M63.9,45.2L63.9,45.2l-3-23.1c-0.8-5.4-3.8-9.3-8.3-10.7C52.2,7.3,48.7,4,44.4,4c-4.1,0-7.5,3-8.1,6.9
			c-1.1-1.1-2.7-1.7-4.3-1.7c-1.6,0-3.2,0.7-4.3,1.7C27.1,7,23.7,4,19.6,4c-4.3,0-7.8,3.3-8.2,7.5c-0.1,0-0.3,0.1-0.4,0.1
			c-4.3,1.6-7.1,5.3-7.9,10.6L0,45.2l0.1,0c0,0.4-0.1,0.9-0.1,1.3C0,54,6,60,13.4,60c6.8,0,12.5-5.2,13.3-11.8
			c1.3,1.5,3.2,2.4,5.3,2.4c2.1,0,4-0.9,5.3-2.4C38.1,54.8,43.8,60,50.6,60C58,60,64,54,64,46.5C64,46.1,64,45.7,63.9,45.2z
			 M58.9,22.4L61,38.1c-2.5-3.1-6.3-5-10.4-5c-4.9,0-9.2,2.6-11.5,6.6l-0.9-26.8h10.3c1,0,2,0.1,2.9,0.3
			C55.5,14.2,58.2,17.5,58.9,22.4z M44.4,6c3,0,5.5,2.1,6.1,5c-0.6-0.1-1.3-0.1-2-0.1H38.4C39,8.1,41.5,6,44.4,6z M32,11.2
			c2,0,3.8,1.4,4.2,3.4l0.1,0L37,38C35.7,36.8,34,36,32,36c-2,0-3.7,0.8-5,2.1l0.8-23.5l0.1,0C28.2,12.6,30,11.2,32,11.2z M19.6,6
			c2.9,0,5.4,2,6,4.8H15.5c-0.7,0-1.3,0.1-2,0.2C14.1,8.1,16.6,6,19.6,6z M5.1,22.5c0.6-4.5,3-7.7,6.6-9c0.3-0.1,0.6-0.2,0.9-0.3
			c0.9-0.2,1.9-0.4,2.9-0.4h10.3l-0.9,26.8c-2.3-4-6.6-6.6-11.5-6.6c-4.1,0-7.9,2-10.4,5L5.1,22.5z M13.4,58C7.1,58,2,52.9,2,46.5
			c0-0.6,0-1.2,0.1-1.7c0.8-5.5,5.7-9.7,11.3-9.7c5.6,0,10.4,4.1,11.3,9.7c0.1,0.6,0.1,1.2,0.1,1.8C24.8,52.9,19.7,58,13.4,58z
			 M32,48.6c-2.5,0-4.6-1.8-5.1-4.2c-0.1-0.3-0.1-0.7-0.1-1.1l0,0c0-2.9,2.3-5.3,5.2-5.3c2.7,0,4.9,2,5.2,4.7l0,0.6
			c0,0.3,0,0.6-0.1,1C36.6,46.8,34.5,48.6,32,48.6z M50.6,58c-6.3,0-11.4-5.1-11.4-11.5c0-0.6,0-1.2,0.1-1.8
			c0.9-5.6,5.6-9.7,11.3-9.7c5.6,0,10.4,4.2,11.3,9.7C62,45.4,62,46,62,46.5C62,52.9,56.9,58,50.6,58z"/>
		<g>
			<path fill="#FFFFFF" d="M6.2,48.6c-0.6,0-1-0.4-1-1c0-4.6,3.6-8.3,8.2-8.3c0.6,0,1,0.4,1,1s-0.4,1-1,1c-3.5,0-6.2,2.8-6.2,6.3
				C7.2,48.1,6.8,48.6,6.2,48.6z"/>
		</g>
		<g>
			<path fill="#FFFFFF" d="M43.4,48.6c-0.6,0-1-0.4-1-1c0-4.6,3.6-8.3,8.2-8.3c0.6,0,1,0.4,1,1s-0.4,1-1,1c-3.5,0-6.2,2.8-6.2,6.3
				C44.4,48.1,43.9,48.6,43.4,48.6z"/>
		</g>
	</g>
</g>
</svg>
