<?xml version="1.0" encoding="utf-8"?>
<!-- Generator: Adobe Illustrator 18.0.0, SVG Export Plug-In . SVG Version: 6.00 Build 0)  -->
<!DOCTYPE svg PUBLIC "-//W3C//DTD SVG 1.1//EN" "http://www.w3.org/Graphics/SVG/1.1/DTD/svg11.dtd">
<svg version="1.1" id="Layer_1" xmlns="http://www.w3.org/2000/svg" xmlns:xlink="http://www.w3.org/1999/xlink" x="0px" y="0px"
	 viewBox="0 0 64 64" enable-background="new 0 0 64 64" xml:space="preserve">
<g id="XMLID_10_">
	<g>
		<g>
			<path fill="#FFFDEB" d="M60.5,11.7c3.3,3.3,3.3,8.7,0,12c-3.2,3.2-8.3,3.3-11.6,0.3L24,49c2.8,3.3,2.6,8.3-0.5,11.5
				c-3.3,3.3-8.6,3.3-11.9,0c-1.6-1.6-2.4-3.6-2.5-5.7c-2.1-0.1-4.1-0.9-5.7-2.5c-3.3-3.3-3.3-8.7,0-12c3.2-3.2,8.3-3.3,11.6-0.3
				L40,14.9c-2.8-3.3-2.6-8.3,0.5-11.5c3.3-3.3,8.6-3.3,11.9,0c1.6,1.6,2.4,3.6,2.5,5.7C56.9,9.3,59,10.1,60.5,11.7z"/>
		</g>
	</g>
	<g>
		<g>
			<path fill="#2C2C3D" d="M17.5,64c-2.5,0-4.9-1-6.7-2.8c-1.5-1.5-2.4-3.4-2.7-5.5c-2.1-0.3-4-1.2-5.4-2.7c-3.7-3.7-3.7-9.7,0-13.4
				c1.8-1.8,4.1-2.8,6.7-2.8c2,0,4,0.7,5.6,1.9l23.6-23.8c-2.6-3.7-2.1-8.8,1.1-12.1C41.6,1,43.9,0,46.5,0s4.9,1,6.7,2.8
				c1.5,1.5,2.4,3.4,2.7,5.5c2.1,0.3,4,1.2,5.4,2.7c3.7,3.7,3.7,9.7,0,13.4c-1.8,1.8-4.1,2.8-6.7,2.8l0,0c-2,0-4-0.7-5.6-1.9
				L25.3,49.1c2.6,3.7,2.1,8.8-1.1,12.1C22.4,63,20.1,64,17.5,64z M9.4,38.8c-2,0-3.8,0.8-5.2,2.2c-2.9,2.9-2.9,7.7,0,10.6
				c1.3,1.3,3.1,2.1,5,2.2c0.5,0,0.9,0.4,1,1c0.1,1.9,0.8,3.7,2.2,5c1.4,1.4,3.3,2.2,5.3,2.2s3.8-0.8,5.2-2.2
				c2.7-2.8,2.9-7.1,0.5-10.1c-0.3-0.4-0.3-1,0.1-1.3l24.9-25.1c0.4-0.4,1-0.4,1.4,0c1.4,1.3,3.1,2,5,2c2,0,3.8-0.8,5.2-2.2
				c2.9-2.9,2.9-7.7,0-10.6c-1.3-1.3-3.1-2.1-5-2.2c-0.5,0-0.9-0.4-1-1c-0.1-1.9-0.8-3.7-2.2-5C50.3,2.8,48.4,2,46.5,2
				s-3.8,0.8-5.2,2.2c-2.7,2.8-2.9,7.1-0.5,10.1c0.3,0.4,0.3,1-0.1,1.3L15.8,40.7c-0.4,0.4-1,0.4-1.4,0
				C13.1,39.5,11.3,38.8,9.4,38.8z"/>
		</g>
	</g>
</g>
</svg>
