<?xml version="1.0" encoding="utf-8"?>
<!-- Generator: Adobe Illustrator 18.0.0, SVG Export Plug-In . SVG Version: 6.00 Build 0)  -->
<!DOCTYPE svg PUBLIC "-//W3C//DTD SVG 1.1//EN" "http://www.w3.org/Graphics/SVG/1.1/DTD/svg11.dtd">
<svg version="1.1" id="Layer_1" xmlns="http://www.w3.org/2000/svg" xmlns:xlink="http://www.w3.org/1999/xlink" x="0px" y="0px"
	 viewBox="0 0 64 64" enable-background="new 0 0 64 64" xml:space="preserve">
<g id="XMLID_2_">
	<g>
		<g>
			<polygon fill="#F4BD5B" points="58,13 58,63 15,63 15,13 56,13 			"/>
		</g>
		<g>
			<path fill="#FCF0E6" d="M11,1h45c-3.3,0-6,2.7-6,6s2.7,6,6,6H15h-4c-3.3,0-6-2.7-6-6S7.7,1,11,1z"/>
		</g>
		<g>
			<path fill="#BC8D5E" d="M15,13v50h-4c-3.3,0-6-2.7-6-6V7c0,3.3,2.7,6,6,6H15z"/>
		</g>
	</g>
	<g>
		<g>
			<path fill="#2C2C3D" d="M58,64H15c-0.6,0-1-0.4-1-1V13c0-0.6,0.4-1,1-1s1,0.4,1,1v49h41V14h-1c-0.6,0-1-0.4-1-1s0.4-1,1-1h2
				c0.6,0,1,0.4,1,1v50C59,63.6,58.6,64,58,64z"/>
		</g>
		<g>
			<path fill="#2C2C3D" d="M15,64h-4c-3.9,0-7-3.1-7-7V7c0-0.6,0.4-1,1-1s1,0.4,1,1v50c0,2.8,2.2,5,5,5h4c0.6,0,1,0.4,1,1
				S15.6,64,15,64z"/>
		</g>
		<g>
			<path fill="#2C2C3D" d="M56,14H11c-3.9,0-7-3.1-7-7s3.1-7,7-7h45c0.6,0,1,0.4,1,1s-0.4,1-1,1c-2.8,0-5,2.2-5,5s2.2,5,5,5
				c0.6,0,1,0.4,1,1S56.6,14,56,14z M11,2C8.2,2,6,4.2,6,7s2.2,5,5,5h40.1C49.8,10.7,49,9,49,7s0.8-3.7,2.1-5H11z"/>
		</g>
		<g>
			<path fill="#2C2C3D" d="M45,8H11c-0.6,0-1-0.4-1-1s0.4-1,1-1h34c0.6,0,1,0.4,1,1S45.6,8,45,8z"/>
		</g>
	</g>
</g>
</svg>
