<?xml version="1.0" encoding="utf-8"?>
<!-- Generator: Adobe Illustrator 18.0.0, SVG Export Plug-In . SVG Version: 6.00 Build 0)  -->
<!DOCTYPE svg PUBLIC "-//W3C//DTD SVG 1.1//EN" "http://www.w3.org/Graphics/SVG/1.1/DTD/svg11.dtd">
<svg version="1.1" id="Layer_1" xmlns="http://www.w3.org/2000/svg" xmlns:xlink="http://www.w3.org/1999/xlink" x="0px" y="0px"
	 viewBox="0 0 64 64" enable-background="new 0 0 64 64" xml:space="preserve">
<g id="XMLID_4_">
	<g>
		<g>
			<path fill="#F7F2EB" d="M32,49V12c0,0,6.1-4,14-4c8,0,14,4,14,4v2v35c0,0-6.1-4-14-4C38.8,45,32,49,32,49z"/>
		</g>
		<g>
			<path fill="#F7F2EB" d="M32,49c0,0-5.9-4-14-4c-7.9,0-14,4-14,4V14v-2c0,0,6-4,14-4s14,4,14,4V49z"/>
		</g>
		<g>
			<path fill="#64A2CC" d="M4,49c0,0,6.1-4,14-4c8.1,0,14,4,14,4s6.8-4,14-4c7.9,0,14,4,14,4V14h3v38H36c0,2.2-1.8,4-4,4s-4-1.8-4-4
				H1V14h3V49z"/>
		</g>
	</g>
	<g>
		<g>
			<path fill="#2C2C3D" d="M4,50c-0.2,0-0.3,0-0.5-0.1C3.2,49.7,3,49.4,3,49V12c0-0.3,0.2-0.6,0.4-0.8C3.7,11,9.8,7,18,7
				s14.3,4,14.6,4.2c0.5,0.3,0.6,0.9,0.3,1.4c-0.3,0.5-0.9,0.6-1.4,0.3C31.4,12.8,25.6,9,18,9c-6.4,0-11.5,2.7-13,3.6v34.7
				c2.4-1.2,7.2-3.3,13-3.3c8.3,0,14.3,4,14.6,4.2c0.5,0.3,0.6,0.9,0.3,1.4c-0.3,0.5-0.9,0.6-1.4,0.3c-0.1,0-5.8-3.8-13.4-3.8
				c-7.6,0-13.4,3.8-13.4,3.8C4.4,49.9,4.2,50,4,50z"/>
		</g>
		<g>
			<path fill="#2C2C3D" d="M9,20.7c-0.4,0-0.8-0.3-0.9-0.7c-0.2-0.5,0.1-1.1,0.6-1.3C12,17.6,15.1,17,18,17c2.9,0,6,0.6,9.3,1.8
				c0.5,0.2,0.8,0.8,0.6,1.3c-0.2,0.5-0.8,0.8-1.3,0.6c-3.1-1.1-6-1.7-8.7-1.7c-2.6,0-5.6,0.6-8.7,1.7C9.2,20.7,9.1,20.7,9,20.7z"/>
		</g>
		<g>
			<path fill="#2C2C3D" d="M9,28c-0.4,0-0.8-0.3-0.9-0.7c-0.2-0.5,0.1-1.1,0.6-1.3c2.3-0.8,5.7-1.8,9.3-1.8c2.9,0,6,0.6,9.3,1.8
				c0.5,0.2,0.8,0.8,0.6,1.3c-0.2,0.5-0.8,0.8-1.3,0.6c-3.1-1.1-6-1.7-8.7-1.7c-3.3,0-6.5,0.9-8.7,1.7C9.2,28,9.1,28,9,28z"/>
		</g>
		<g>
			<path fill="#2C2C3D" d="M9,35.7c-0.4,0-0.8-0.3-0.9-0.7c-0.2-0.5,0.1-1.1,0.6-1.3C12,32.6,15.1,32,18,32c2.9,0,6,0.6,9.3,1.8
				c0.5,0.2,0.8,0.8,0.6,1.3c-0.2,0.5-0.8,0.8-1.3,0.6c-3.1-1.1-6-1.7-8.7-1.7c-2.6,0-5.6,0.6-8.7,1.7C9.2,35.7,9.1,35.7,9,35.7z"/>
		</g>
		<g>
			<path fill="#2C2C3D" d="M37,20.7c-0.4,0-0.8-0.3-0.9-0.7c-0.2-0.5,0.1-1.1,0.6-1.3C40,17.6,43.1,17,46,17c3.6,0,7.1,1,9.3,1.8
				c0.5,0.2,0.8,0.8,0.6,1.3c-0.2,0.5-0.8,0.8-1.3,0.6C52.5,19.9,49.3,19,46,19c-2.6,0-5.5,0.6-8.7,1.7C37.2,20.7,37.1,20.7,37,20.7
				z"/>
		</g>
		<g>
			<path fill="#2C2C3D" d="M55,28c-0.1,0-0.2,0-0.3-0.1c-2.1-0.8-5.3-1.7-8.7-1.7c-2.7,0-5.6,0.6-8.7,1.7c-0.5,0.2-1.1-0.1-1.3-0.6
				c-0.2-0.5,0.1-1.1,0.6-1.3c3.3-1.2,6.4-1.8,9.3-1.8c3.6,0,7.1,1,9.3,1.8c0.5,0.2,0.8,0.8,0.6,1.3C55.8,27.7,55.4,28,55,28z"/>
		</g>
		<g>
			<path fill="#2C2C3D" d="M37,35.7c-0.4,0-0.8-0.3-0.9-0.7c-0.2-0.5,0.1-1.1,0.6-1.3C40,32.6,43.1,32,46,32c3.6,0,7.1,1,9.3,1.8
				c0.5,0.2,0.8,0.8,0.6,1.3c-0.2,0.5-0.8,0.8-1.3,0.6C52.5,34.9,49.3,34,46,34c-2.6,0-5.5,0.6-8.7,1.7C37.2,35.7,37.1,35.7,37,35.7
				z"/>
		</g>
		<g>
			<path fill="#2C2C3D" d="M32,50c-0.2,0-0.3,0-0.5-0.1C31.2,49.7,31,49.4,31,49V12c0-0.3,0.2-0.6,0.4-0.8C31.7,11,37.9,7,46,7
				c8.2,0,14.3,4,14.6,4.2c0.3,0.2,0.4,0.5,0.4,0.8v37c0,0.4-0.2,0.7-0.5,0.9c-0.3,0.2-0.7,0.2-1,0c-0.1,0-5.9-3.8-13.5-3.8
				c-6.8,0-13.4,3.8-13.5,3.9C32.3,50,32.2,50,32,50z M33,12.6v34.8c2.5-1.2,7.6-3.3,13-3.3c5.8,0,10.6,2.1,13,3.3V12.6
				C57.5,11.7,52.4,9,46,9C39.7,9,34.5,11.7,33,12.6z"/>
		</g>
		<g>
			<path fill="#2C2C3D" d="M28,53H1c-0.6,0-1-0.4-1-1V14c0-0.6,0.4-1,1-1h3c0.6,0,1,0.4,1,1s-0.4,1-1,1H2v36h26c0.6,0,1,0.4,1,1
				S28.6,53,28,53z"/>
		</g>
		<g>
			<path fill="#2C2C3D" d="M63,53H36c-0.6,0-1-0.4-1-1s0.4-1,1-1h26V15h-2c-0.6,0-1-0.4-1-1s0.4-1,1-1h3c0.6,0,1,0.4,1,1v38
				C64,52.6,63.6,53,63,53z"/>
		</g>
		<g>
			<path fill="#2C2C3D" d="M32,57c-2.8,0-5-2.2-5-5c0-0.6,0.4-1,1-1s1,0.4,1,1c0,1.7,1.3,3,3,3s3-1.3,3-3c0-0.6,0.4-1,1-1s1,0.4,1,1
				C37,54.8,34.8,57,32,57z"/>
		</g>
	</g>
</g>
</svg>
