<?xml version="1.0" encoding="utf-8"?>
<!-- Generator: Adobe Illustrator 18.0.0, SVG Export Plug-In . SVG Version: 6.00 Build 0)  -->
<!DOCTYPE svg PUBLIC "-//W3C//DTD SVG 1.1//EN" "http://www.w3.org/Graphics/SVG/1.1/DTD/svg11.dtd">
<svg version="1.1" id="Layer_1" xmlns="http://www.w3.org/2000/svg" xmlns:xlink="http://www.w3.org/1999/xlink" x="0px" y="0px"
	 viewBox="0 0 64 64" enable-background="new 0 0 64 64" xml:space="preserve">
<g id="XMLID_7_">
	<g>
		<g>
			<path fill="#FFD41D" d="M32,46H21c0-1.7-0.3-3.3-0.9-4.8c-0.6-1.5-1.5-2.9-2.7-4.1c-4.1-4-6.6-9.8-6.3-16.1
				c0.5-10.7,9.3-19.6,20.1-20C43.1,0.5,53,10.1,53,22c0,5.9-2.4,11.3-6.3,15.1c-2.3,2.2-3.7,5.2-3.7,8.5V46H32z"/>
		</g>
		<g>
			<path fill="#93B9CC" d="M43,51v3c0,1.1-0.9,2-2,2h-2H25h-2c-1.1,0-2-0.9-2-2v-3H43z"/>
		</g>
		<g>
			<polygon fill="#A8DBEF" points="43,46 43,51 21,51 21,46 32,46 			"/>
		</g>
		<g>
			<path fill="#2B3E42" d="M25,56h14c0,3.9-3.1,7-7,7S25,59.9,25,56z"/>
		</g>
	</g>
	<path fill="#2D2D2D" d="M31,0C19.8,0.5,10.5,9.7,10,21c-0.3,6.3,2.1,12.5,6.6,16.9c1.1,1,1.9,2.3,2.5,3.7c0.6,1.4,0.9,2.9,0.9,4.4
		v1v7c0,1.7,1.3,3,3,3h1.1c0.5,3.9,3.9,7,7.9,7s7.4-3.1,7.9-7H41c1.7,0,3-1.3,3-3v-7v-1v-0.4c0-2.8,1.2-5.6,3.4-7.7
		C51.6,33.7,54,27.9,54,22C54,9.6,43.6-0.5,31,0z M32,62c-3,0-5.4-2.2-5.9-5h11.8C37.4,59.8,35,62,32,62z M41,55H23
		c-0.6,0-1-0.4-1-1v-2h20v2C42,54.6,41.6,55,41,55z M42,50H22v-3h20V50z M46,36.4c-2.4,2.4-3.8,5.4-4,8.6h-9V28.5l4-3.2l4.4,3.5
		c0.4,0.3,1.1,0.3,1.4-0.2c0.3-0.4,0.3-1.1-0.2-1.4L37,22.7l-5,4l-5-4l-5.6,4.5c-0.4,0.3-0.5,1-0.2,1.4c0.3,0.4,1,0.5,1.4,0.2
		l4.4-3.5l4,3.2V45h-9c-0.1-1.4-0.4-2.9-1-4.2c-0.7-1.7-1.7-3.2-2.9-4.4c-4.1-4-6.3-9.6-6-15.4C12.5,10.8,20.9,2.5,31.1,2
		C42.6,1.6,52,10.7,52,22C52,27.4,49.8,32.6,46,36.4z"/>
</g>
</svg>
