<?xml version="1.0" encoding="utf-8"?>
<!-- Generator: Adobe Illustrator 18.0.0, SVG Export Plug-In . SVG Version: 6.00 Build 0)  -->
<!DOCTYPE svg PUBLIC "-//W3C//DTD SVG 1.1//EN" "http://www.w3.org/Graphics/SVG/1.1/DTD/svg11.dtd">
<svg version="1.1" id="Layer_1" xmlns="http://www.w3.org/2000/svg" xmlns:xlink="http://www.w3.org/1999/xlink" x="0px" y="0px"
	 viewBox="0 0 64 64" enable-background="new 0 0 64 64" xml:space="preserve">
<g>
	<g id="XMLID_10_">
		<g>
			<g>
				<path fill="#F9D45F" d="M8,44v-7c0-0.5,0.4-1,1-1h11c0.5,0,1,0.5,1,1v7c0,0.5-0.5,1-1,1H9C8.4,45,8,44.5,8,44z M13,38h-1v1H9v1
					h3v1H9v1h3v1h1V38z M20,41h-3v-1h3v-1h-3v-1h-1v5h1v-1h3V41z"/>
			</g>
			<g>
				<polygon fill="#EFAF3F" points="17,41 20,41 20,42 17,42 17,43 16,43 16,38 17,38 17,39 20,39 20,40 17,40 				"/>
			</g>
			<g>
				<polygon fill="#EFAF3F" points="9,41 12,41 12,40 9,40 9,39 12,39 12,38 13,38 13,43 12,43 12,42 9,42 				"/>
			</g>
			<g>
				<path fill="#8087E0" d="M63,27v23c0,1.1-0.9,2-2,2H3c-1.1,0-2-0.9-2-2V27H63z M21,44v-7c0-0.5-0.5-1-1-1H9c-0.6,0-1,0.5-1,1v7
					c0,0.5,0.4,1,1,1h11C20.5,45,21,44.5,21,44z"/>
			</g>
			<g>
				<path fill="#8087E0" d="M1,19v-6c0-1.1,0.9-2,2-2h58c1.1,0,2,0.9,2,2v6H1z"/>
			</g>
			<g>
				<rect x="1" y="19" fill="#5C5C77" width="62" height="8"/>
			</g>
		</g>
		<g>
			<g>
				<path fill="#2C2C3D" d="M61,53H3c-1.7,0-3-1.3-3-3V13c0-1.7,1.3-3,3-3h58c1.7,0,3,1.3,3,3v37C64,51.7,62.7,53,61,53z M3,12
					c-0.6,0-1,0.4-1,1v37c0,0.6,0.4,1,1,1h58c0.6,0,1-0.4,1-1V13c0-0.6-0.4-1-1-1H3z"/>
			</g>
			<g>
				<path fill="#2C2C3D" d="M63,20H1c-0.6,0-1-0.4-1-1s0.4-1,1-1h62c0.6,0,1,0.4,1,1S63.6,20,63,20z"/>
			</g>
			<g>
				<path fill="#2C2C3D" d="M63,28H1c-0.6,0-1-0.4-1-1s0.4-1,1-1h62c0.6,0,1,0.4,1,1S63.6,28,63,28z"/>
			</g>
			<g>
				<path fill="#2C2C3D" d="M55,38H33c-0.6,0-1-0.4-1-1s0.4-1,1-1h22c0.6,0,1,0.4,1,1S55.6,38,55,38z"/>
			</g>
			<g>
				<path fill="#2C2C3D" d="M46,43H33c-0.6,0-1-0.4-1-1s0.4-1,1-1h13c0.6,0,1,0.4,1,1S46.6,43,46,43z"/>
			</g>
			<g>
				<path fill="#2C2C3D" d="M20,46H9c-1.1,0-2-0.9-2-2v-7c0-1.1,0.9-2,2-2h11c1.1,0,2,0.9,2,2v7C22,45.1,21.1,46,20,46z M20,44v1V44
					L20,44L20,44z M9,37v7h11l0-7H9z"/>
			</g>
		</g>
	</g>
</g>
</svg>
