<?xml version="1.0" encoding="utf-8"?>
<!-- Generator: Adobe Illustrator 18.0.0, SVG Export Plug-In . SVG Version: 6.00 Build 0)  -->
<!DOCTYPE svg PUBLIC "-//W3C//DTD SVG 1.1//EN" "http://www.w3.org/Graphics/SVG/1.1/DTD/svg11.dtd">
<svg version="1.1" id="Layer_1" xmlns="http://www.w3.org/2000/svg" xmlns:xlink="http://www.w3.org/1999/xlink" x="0px" y="0px"
	 viewBox="0 0 64 64" enable-background="new 0 0 64 64" xml:space="preserve">
<g id="XMLID_4_">
	<g>
		<g>
			<path fill="#FFBF40" d="M51,5c6.6,0,12,5.4,12,12s-5.4,12-12,12c-3.1,0-5.9-1.2-8-3.1l-0.3-0.2L50,17H39C39,10.4,44.4,5,51,5z"/>
		</g>
		<g>
			<polygon fill="#B185E0" points="27,44.6 16.7,32.2 17,32 37,32 37.3,32.2 			"/>
		</g>
	</g>
	<g>
		<g>
			<path fill="#2C2C3D" d="M27,45.6c-0.3,0-0.6-0.1-0.8-0.4l-23-27.6c-0.2-0.3-0.3-0.7-0.1-1.1C3.3,16.2,3.6,16,4,16h46
				c0.4,0,0.7,0.2,0.9,0.6c0.2,0.4,0.1,0.8-0.1,1.1l-23,27.6C27.6,45.5,27.3,45.6,27,45.6z M6.1,18L27,43l20.9-25H6.1z"/>
		</g>
		<g>
			<path fill="#2C2C3D" d="M27,64c-0.6,0-1-0.4-1-1V44c0-0.6,0.4-1,1-1s1,0.4,1,1v19C28,63.6,27.6,64,27,64z"/>
		</g>
		<g>
			<path fill="#2C2C3D" d="M37,64H17c-0.6,0-1-0.4-1-1s0.4-1,1-1h20c0.6,0,1,0.4,1,1S37.6,64,37,64z"/>
		</g>
		<g>
			<path fill="#2C2C3D" d="M51,30c-3.2,0-6.3-1.2-8.7-3.3c-0.4-0.4-0.4-1-0.1-1.4c0.4-0.4,1-0.4,1.4-0.1c2,1.8,4.6,2.8,7.3,2.8
				c6.1,0,11-4.9,11-11S57.1,6,51,6s-11,4.9-11,11c0,0.6-0.4,1-1,1s-1-0.4-1-1c0-7.2,5.8-13,13-13s13,5.8,13,13S58.2,30,51,30z"/>
		</g>
		<g>
			<path fill="#2C2C3D" d="M17,18c-0.4,0-0.8-0.2-0.9-0.6L10.3,2H1C0.4,2,0,1.6,0,1s0.4-1,1-1h10c0.4,0,0.8,0.3,0.9,0.6l6,16
				c0.2,0.5-0.1,1.1-0.6,1.3C17.2,18,17.1,18,17,18z"/>
		</g>
		<g>
			<path fill="#2C2C3D" d="M37,33H17c-0.6,0-1-0.4-1-1s0.4-1,1-1h20c0.6,0,1,0.4,1,1S37.6,33,37,33z"/>
		</g>
	</g>
</g>
</svg>
