<?xml version="1.0" encoding="utf-8"?>
<!-- Generator: Adobe Illustrator 18.0.0, SVG Export Plug-In . SVG Version: 6.00 Build 0)  -->
<!DOCTYPE svg PUBLIC "-//W3C//DTD SVG 1.1//EN" "http://www.w3.org/Graphics/SVG/1.1/DTD/svg11.dtd">
<svg version="1.1" id="Layer_1" xmlns="http://www.w3.org/2000/svg" xmlns:xlink="http://www.w3.org/1999/xlink" x="0px" y="0px"
	 viewBox="0 0 64 64" enable-background="new 0 0 64 64" xml:space="preserve">
<g id="XMLID_5_">
	<g>
		<g>
			<g>
				<path fill="#DFE7EA" d="M26,24.9c-1.2,0.5-2.5,0.7-3.9,0.7c-1,0-2-0.1-2.9-0.4c-1.3-0.3-2.5-0.9-3.5-1.7C14,22.2,13,20.3,13,18
					h18C31,21.3,29,23.8,26,24.9z"/>
			</g>
		</g>
		<g>
			<g>
				<path fill="#FFBB33" d="M22.1,25.6c1.4,0,2.7-0.2,3.9-0.7L26,25l0.3,9L26,34h-7l-0.2,0l0.2-8l0.2-0.8
					C20.1,25.5,21.1,25.6,22.1,25.6z"/>
			</g>
		</g>
		<g>
			<g>
				<path fill="#DFE7EA" d="M50,9v30.6h-6.6C40.3,38.9,38,36.2,38,33V15c0-8,4.2-12.2,12-14V9z"/>
			</g>
		</g>
		<g>
			<g>
				<path fill="#FC724C" d="M50,39.7V63c-4.4,0-7.6-3.6-7.6-8l1-15.4H50V39.7z"/>
			</g>
		</g>
		<g>
			<g>
				<path fill="#FC724C" d="M26.3,34L27,58.3c0,2.6-2,4.7-4.5,4.7c-1.2,0-2.4-0.5-3.2-1.4c-0.8-0.8-1.3-2-1.3-3.3L18.8,34l0.2,0h7
					L26.3,34z"/>
			</g>
		</g>
	</g>
	<g>
		<g>
			<g>
				<path fill="#2C2C3D" d="M50,64c-4.8,0-8.6-4-8.6-9l0.9-14.7c-3.1-1-5.3-4-5.3-7.3V15c0-8.2,4.2-13.1,12.8-15
					c0.3-0.1,0.6,0,0.8,0.2C50.9,0.4,51,0.7,51,1v62C51,63.6,50.6,64,50,64z M49,2.3C42.1,4.2,39,8.1,39,15v18c0,2.7,1.9,5,4.6,5.6
					c0.5,0.1,0.8,0.5,0.8,1l-1,15.4c0,3.6,2.4,6.4,5.6,6.9V2.3z"/>
			</g>
		</g>
		<g>
			<g>
				<path fill="#2C2C3D" d="M22.5,64c-1.5,0-2.9-0.6-3.9-1.7c-1-1-1.6-2.5-1.6-4L18,26c0-0.6,0.5-1,1-1c0.6,0,1,0.5,1,1l-1,32.3
					c0,0.9,0.4,1.9,1,2.6c0.7,0.7,1.5,1.1,2.5,1.1c1.9,0,3.5-1.7,3.5-3.7L25,25c0-0.6,0.4-1,1-1c0.5,0,1,0.4,1,1l1,33.3
					C28,61.5,25.5,64,22.5,64z"/>
			</g>
		</g>
		<g>
			<g>
				<path fill="#2C2C3D" d="M22.1,26.6c-1.1,0-2.1-0.1-3.1-0.4c-1.4-0.4-2.8-1-3.9-1.9c-2-1.6-3.1-3.8-3.1-6.3V1c0-0.6,0.4-1,1-1
					s1,0.4,1,1v17c0,1.9,0.8,3.5,2.3,4.7c0.9,0.7,2,1.2,3.1,1.5c2,0.5,4.3,0.4,6.2-0.3c2.7-1,4.4-3.2,4.4-5.9V1c0-0.6,0.4-1,1-1
					s1,0.4,1,1v17c0,3.6-2.1,6.5-5.7,7.8C25,26.3,23.6,26.6,22.1,26.6z"/>
			</g>
		</g>
		<g>
			<g>
				<path fill="#2C2C3D" d="M19,18c-0.6,0-1-0.4-1-1V1c0-0.6,0.4-1,1-1s1,0.4,1,1v16C20,17.6,19.6,18,19,18z"/>
			</g>
		</g>
		<g>
			<g>
				<path fill="#2C2C3D" d="M25,18c-0.6,0-1-0.4-1-1V1c0-0.6,0.4-1,1-1s1,0.4,1,1v16C26,17.6,25.6,18,25,18z"/>
			</g>
		</g>
		<g>
			<g>
				<path fill="#2C2C3D" d="M50,40.6h-6.6c-0.6,0-1-0.4-1-1s0.4-1,1-1H50c0.6,0,1,0.4,1,1S50.6,40.6,50,40.6z"/>
			</g>
		</g>
		<g>
			<g>
				<path fill="#2C2C3D" d="M26,35h-7c-0.6,0-1-0.4-1-1s0.4-1,1-1h7c0.6,0,1,0.4,1,1S26.6,35,26,35z"/>
			</g>
		</g>
		<g>
			<g>
				<path fill="#2C2C3D" d="M31,19H13c-0.6,0-1-0.4-1-1s0.4-1,1-1h18c0.6,0,1,0.4,1,1S31.6,19,31,19z"/>
			</g>
		</g>
	</g>
</g>
</svg>
