<?xml version="1.0" encoding="utf-8"?>
<!-- Generator: Adobe Illustrator 18.0.0, SVG Export Plug-In . SVG Version: 6.00 Build 0)  -->
<!DOCTYPE svg PUBLIC "-//W3C//DTD SVG 1.1//EN" "http://www.w3.org/Graphics/SVG/1.1/DTD/svg11.dtd">
<svg version="1.1" id="Layer_1" xmlns="http://www.w3.org/2000/svg" xmlns:xlink="http://www.w3.org/1999/xlink" x="0px" y="0px"
	 viewBox="0 0 64 64" enable-background="new 0 0 64 64" xml:space="preserve">
<g id="XMLID_6_">
	<g>
		<g>
			<path fill="#EAE7D6" d="M32.5,1C47,1,57.8,22.5,57.8,38.2S47,63,32.5,63S7.2,53.9,7.2,38.2S18,1,32.5,1z"/>
		</g>
	</g>
	<g>
		<g>
			<path fill="#2C2C3D" d="M32.5,64C16.8,64,6.2,53.6,6.2,38.2C6.2,23,16.7,0,32.5,0s26.3,23,26.3,38.2C58.8,53.6,48.2,64,32.5,64z
				 M32.5,2C18.4,2,8.2,23.6,8.2,38.2C8.2,52.7,17.7,62,32.5,62s24.3-9.3,24.3-23.8C56.8,23.6,46.6,2,32.5,2z"/>
		</g>
	</g>
</g>
</svg>
