<?xml version="1.0" encoding="utf-8"?>
<!-- Generator: Adobe Illustrator 18.0.0, SVG Export Plug-In . SVG Version: 6.00 Build 0)  -->
<!DOCTYPE svg PUBLIC "-//W3C//DTD SVG 1.1//EN" "http://www.w3.org/Graphics/SVG/1.1/DTD/svg11.dtd">
<svg version="1.1" id="Layer_1" xmlns="http://www.w3.org/2000/svg" xmlns:xlink="http://www.w3.org/1999/xlink" x="0px" y="0px"
	 viewBox="0 0 64 64" enable-background="new 0 0 64 64" xml:space="preserve">
<g id="XMLID_12_">
	<g>
		<g>
			<path fill="#FFD41D" d="M59.8,11.2L39,43v19l-14-6V43L4.2,11.2C7.7,14.6,18.8,17,32,17S56.3,14.6,59.8,11.2z"/>
		</g>
		<g>
			<path fill="#F9B01E" d="M4.2,11.2C3.4,10.5,3,9.8,3,9c0-4.4,13-8,29-8s29,3.6,29,8c0,0.8-0.4,1.5-1.2,2.2
				C56.3,14.6,45.2,17,32,17S7.7,14.6,4.2,11.2z"/>
		</g>
	</g>
	<path fill="#2D2D2D" d="M62,9c0-5.8-15.5-9-30-9S2,3.2,2,9c0,1,0.5,2,1.4,2.8L24,43.3v13.4l16,6.9V43.3l20.6-31.5
		C61.5,11,62,10,62,9z M32,2c17.3,0,28,4.1,28,7c0,0.5-0.3,1-0.8,1.5l0,0l-0.1,0.1C55.6,13.8,44.5,16,32,16
		c-12.5,0-23.6-2.2-27.1-5.4l-0.1-0.1l0,0C4.3,10,4,9.5,4,9C4,6.1,14.7,2,32,2z M38,42.7v17.8l-12-5.1V42.7L7.4,14.3
		C12.8,16.6,21.9,18,32,18c10.1,0,19.2-1.4,24.6-3.7L38,42.7z"/>
</g>
</svg>
