<?xml version="1.0" encoding="utf-8"?>
<!-- Generator: Adobe Illustrator 18.0.0, SVG Export Plug-In . SVG Version: 6.00 Build 0)  -->
<!DOCTYPE svg PUBLIC "-//W3C//DTD SVG 1.1//EN" "http://www.w3.org/Graphics/SVG/1.1/DTD/svg11.dtd">
<svg version="1.1" id="Layer_1" xmlns="http://www.w3.org/2000/svg" xmlns:xlink="http://www.w3.org/1999/xlink" x="0px" y="0px"
	 viewBox="0 0 64 64" enable-background="new 0 0 64 64" xml:space="preserve">
<g id="XMLID_18_">
	<g>
		<g>
			<path fill="#FFCC66" d="M63,26v28c0,1.1-0.9,2-2,2H3c-1.1,0-2-0.9-2-2V26c0-2.2,1.8-4,4-4h54C61.2,22,63,23.8,63,26z"/>
		</g>
		<g>
			<path fill="#F2BD5F" d="M63,16v10c0-2.2-1.8-4-4-4H5c-2.2,0-4,1.8-4,4V10c0-1.1,0.9-2,2-2h22.2c0.5,0,1,0.2,1.4,0.6l4.8,4.8
				c0.4,0.4,0.9,0.6,1.4,0.6H61C62.1,14,63,14.9,63,16z"/>
		</g>
	</g>
	<path fill="#2D2D2D" d="M61,13H32.8c-0.3,0-0.5-0.1-0.7-0.3l-4.8-4.8C26.7,7.3,26,7,25.2,7H3c-1.7,0-3,1.3-3,3v44c0,1.7,1.3,3,3,3
		h58c1.7,0,3-1.3,3-3V16C64,14.3,62.7,13,61,13z M3,9h22.2c0.3,0,0.5,0.1,0.7,0.3l4.8,4.8c0.6,0.6,1.3,0.9,2.1,0.9H61
		c0.6,0,1,0.4,1,1v6c-0.8-0.6-1.9-1-3-1H5c-1.1,0-2.2,0.4-3,1V10C2,9.4,2.4,9,3,9z M62,54c0,0.6-0.4,1-1,1H3c-0.6,0-1-0.4-1-1V26
		c0-1.7,1.3-3,3-3h54c1.7,0,3,1.3,3,3V54z"/>
</g>
</svg>
