<?xml version="1.0" encoding="utf-8"?>
<!-- Generator: Adobe Illustrator 18.0.0, SVG Export Plug-In . SVG Version: 6.00 Build 0)  -->
<!DOCTYPE svg PUBLIC "-//W3C//DTD SVG 1.1//EN" "http://www.w3.org/Graphics/SVG/1.1/DTD/svg11.dtd">
<svg version="1.1" id="Layer_1" xmlns="http://www.w3.org/2000/svg" xmlns:xlink="http://www.w3.org/1999/xlink" x="0px" y="0px"
	 viewBox="0 0 64 64" enable-background="new 0 0 64 64" xml:space="preserve">
<g>
	<g>
		<path fill="#2ECC71" d="M63,27L39,1v13C18.8,15.1,1,31.8,1,53v10c5.7-14.2,19.5-24,35.3-24H39v13.9L63,27z"/>
	</g>
	<g>
		<path fill="#2C2C3D" d="M1,64c-0.1,0-0.1,0-0.2,0C0.3,63.9,0,63.5,0,63V53c0-20.6,17-38.3,38-39.9V1c0-0.4,0.3-0.8,0.6-0.9
			C39-0.1,39.5,0,39.7,0.3l24,26c0.4,0.4,0.4,1,0,1.4l-24,26c-0.3,0.3-0.7,0.4-1.1,0.3c-0.4-0.1-0.6-0.5-0.6-0.9V40h-1.7
			C21.2,40,7.6,49.2,1.9,63.4C1.8,63.8,1.4,64,1,64z M40,3.6V14c0,0.5-0.4,1-0.9,1C18.6,16.1,2,33.2,2,53v5.5
			C8.8,45.9,21.9,38,36.3,38H39c0.6,0,1,0.4,1,1v11.4L61.6,27L40,3.6z"/>
	</g>
</g>
</svg>
