<?xml version="1.0" encoding="utf-8"?>
<!-- Generator: Adobe Illustrator 18.0.0, SVG Export Plug-In . SVG Version: 6.00 Build 0)  -->
<!DOCTYPE svg PUBLIC "-//W3C//DTD SVG 1.1//EN" "http://www.w3.org/Graphics/SVG/1.1/DTD/svg11.dtd">
<svg version="1.1" id="Layer_1" xmlns="http://www.w3.org/2000/svg" xmlns:xlink="http://www.w3.org/1999/xlink" x="0px" y="0px"
	 viewBox="0 0 64 64" enable-background="new 0 0 64 64" xml:space="preserve">
<g id="XMLID_7_">
	<g>
		<g>
			<g>
				<polygon fill="#F45858" points="63,14 63,27 58,27 39,27 39,14 48,14 				"/>
			</g>
		</g>
		<g>
			<g>
				<rect x="39" y="27" fill="#F45858" width="19" height="36"/>
			</g>
		</g>
		<g>
			<g>
				<rect x="25" y="27" fill="#FFE76E" width="14" height="36"/>
			</g>
		</g>
		<g>
			<g>
				<polygon fill="#FFE76E" points="39,14 39,27 25,27 25,14 32,14 				"/>
			</g>
		</g>
		<g>
			<g>
				<rect x="6" y="27" fill="#F45858" width="19" height="36"/>
			</g>
		</g>
		<g>
			<g>
				<polygon fill="#F45858" points="25,14 25,27 6,27 1,27 1,14 16,14 				"/>
			</g>
		</g>
	</g>
	<g>
		<g>
			<g>
				<path fill="#2C2C3D" d="M63,28H1c-0.6,0-1-0.4-1-1V14c0-0.6,0.4-1,1-1h15c0.6,0,1,0.4,1,1s-0.4,1-1,1H2v11h60V15H48
					c-0.6,0-1-0.4-1-1s0.4-1,1-1h15c0.6,0,1,0.4,1,1v13C64,27.6,63.6,28,63,28z"/>
			</g>
		</g>
		<g>
			<g>
				<path fill="#2C2C3D" d="M58,64H6c-0.6,0-1-0.4-1-1V27c0-0.6,0.4-1,1-1s1,0.4,1,1v35h50V27c0-0.6,0.4-1,1-1s1,0.4,1,1v36
					C59,63.6,58.6,64,58,64z"/>
			</g>
		</g>
		<g>
			<g>
				<path fill="#2C2C3D" d="M48,15H32c-0.4,0-0.8-0.2-0.9-0.6c-0.2-0.4-0.1-0.8,0.2-1.1L43.2,2c0,0,0.1-0.1,0.1-0.1
					C44.6,0.7,46.2,0,48,0c3.9,0,7,3.4,7,7.5S51.9,15,48,15z M34.5,13H48c2.8,0,5-2.5,5-5.5S50.8,2,48,2c-1.2,0-2.3,0.4-3.2,1.2
					c0,0-0.1,0.1-0.1,0.1L34.5,13z"/>
			</g>
		</g>
		<g>
			<g>
				<path fill="#2C2C3D" d="M32,15C32,15,32,15,32,15H16c-3.9,0-7-3.4-7-7.5S12.1,0,16,0c1.8,0,3.4,0.7,4.7,1.9c0,0,0.1,0.1,0.1,0.1
					l11.8,11.2c0.3,0.2,0.4,0.5,0.4,0.8C33,14.6,32.6,15,32,15z M16,2c-2.8,0-5,2.5-5,5.5s2.2,5.5,5,5.5h13.5L19.3,3.3
					c0,0-0.1-0.1-0.1-0.1C18.3,2.4,17.2,2,16,2z"/>
			</g>
		</g>
		<g>
			<g>
				<path fill="#2C2C3D" d="M25,28c-0.6,0-1-0.4-1-1V14c0-0.6,0.4-1,1-1s1,0.4,1,1v13C26,27.6,25.6,28,25,28z"/>
			</g>
		</g>
		<g>
			<g>
				<path fill="#2C2C3D" d="M39,28c-0.6,0-1-0.4-1-1V14c0-0.6,0.4-1,1-1s1,0.4,1,1v13C40,27.6,39.6,28,39,28z"/>
			</g>
		</g>
		<g>
			<g>
				<path fill="#2C2C3D" d="M25,64c-0.6,0-1-0.4-1-1V27c0-0.6,0.4-1,1-1s1,0.4,1,1v36C26,63.6,25.6,64,25,64z"/>
			</g>
		</g>
		<g>
			<g>
				<path fill="#2C2C3D" d="M39,64c-0.6,0-1-0.4-1-1V27c0-0.6,0.4-1,1-1s1,0.4,1,1v36C40,63.6,39.6,64,39,64z"/>
			</g>
		</g>
	</g>
</g>
</svg>
