<?xml version="1.0" encoding="utf-8"?>
<!-- Generator: Adobe Illustrator 18.0.0, SVG Export Plug-In . SVG Version: 6.00 Build 0)  -->
<!DOCTYPE svg PUBLIC "-//W3C//DTD SVG 1.1//EN" "http://www.w3.org/Graphics/SVG/1.1/DTD/svg11.dtd">
<svg version="1.1" id="Layer_1" xmlns="http://www.w3.org/2000/svg" xmlns:xlink="http://www.w3.org/1999/xlink" x="0px" y="0px"
	 viewBox="0 0 64 64" enable-background="new 0 0 64 64" xml:space="preserve">
<g>
	<g>
		<path fill="#F94646" d="M59,29.9c2.5-3,4-6.8,4-11c0-9.4-7.5-17-16.8-17C40.2,2,35,5.2,32,9.9C29,5.2,23.8,2,17.8,2
			C8.5,2,1,9.6,1,19c0,4.2,1.5,8,4,11L32,62L59,29.9z"/>
	</g>
	<g>
		<path fill="#2C2C3D" d="M32,63c-0.3,0-0.6-0.1-0.8-0.4l-27-32.1C1.5,27.3,0,23.2,0,19C0,9.1,8,1,17.8,1C23.4,1,28.6,3.7,32,8.2
			C35.4,3.7,40.6,1,46.2,1C56,1,64,9.1,64,19c0,4.3-1.5,8.4-4.3,11.6l-27,32.1C32.6,62.9,32.3,63,32,63z M17.8,3C9.1,3,2,10.2,2,19
			c0,3.8,1.3,7.5,3.8,10.3L32,60.4l26.2-31.1C60.7,26.4,62,22.7,62,19c0-8.8-7.1-16-15.8-16c-5.4,0-10.4,2.8-13.4,7.5
			c-0.4,0.6-1.3,0.6-1.7,0C28.2,5.8,23.2,3,17.8,3z"/>
	</g>
</g>
</svg>
