<?xml version="1.0" encoding="utf-8"?>
<!-- Generator: Adobe Illustrator 18.0.0, SVG Export Plug-In . SVG Version: 6.00 Build 0)  -->
<!DOCTYPE svg PUBLIC "-//W3C//DTD SVG 1.1//EN" "http://www.w3.org/Graphics/SVG/1.1/DTD/svg11.dtd">
<svg version="1.1" id="Layer_1" xmlns="http://www.w3.org/2000/svg" xmlns:xlink="http://www.w3.org/1999/xlink" x="0px" y="0px"
	 viewBox="0 0 64 64" enable-background="new 0 0 64 64" xml:space="preserve">
<g>
	<g>
		<path fill="#F94646" d="M63,20.3C63,11.3,55.8,4,46.9,4C40.1,4,34.4,8.3,32,14.3C29.6,8.3,23.9,4,17.1,4C8.2,4,1,11.3,1,20.3
			c0,0.1,0,0.9,0,1.2C1,35.1,22.8,41.4,32,60c9.1-18.6,31.1-24.6,31-38.5C63,21.2,63,20.5,63,20.3z"/>
	</g>
	<g>
		<path fill="#2C2C3D" d="M32,61c-0.4,0-0.7-0.2-0.9-0.6c-4.3-8.6-11.3-14.6-17.6-19.8C6.3,34.5,0,29.2,0,21.5v-1.2
			C0,10.8,7.7,3,17.1,3C23.4,3,29,6.4,32,11.9C35,6.4,40.6,3,46.9,3C56.3,3,64,10.8,64,20.3v1.2c0.1,7.9-6.3,13.2-13.6,19.3
			C44.1,46,37.1,51.9,32.9,60.4C32.7,60.8,32.4,61,32,61C32,61,32,61,32,61z M17.1,5C8.8,5,2,11.9,2,20.3v1.2
			c0,6.8,6,11.8,12.8,17.6c6,5,12.7,10.7,17.2,18.8c4.4-8,11.1-13.6,17.1-18.6c7-5.8,13-10.9,12.9-17.8v-1.2C62,11.9,55.2,5,46.9,5
			c-6.2,0-11.7,3.8-14,9.7c-0.1,0.4-0.5,0.6-0.9,0.6s-0.8-0.3-0.9-0.6C28.8,8.8,23.3,5,17.1,5z"/>
	</g>
</g>
</svg>
