<?xml version="1.0" encoding="utf-8"?>
<!-- Generator: Adobe Illustrator 18.0.0, SVG Export Plug-In . SVG Version: 6.00 Build 0)  -->
<!DOCTYPE svg PUBLIC "-//W3C//DTD SVG 1.1//EN" "http://www.w3.org/Graphics/SVG/1.1/DTD/svg11.dtd">
<svg version="1.1" id="Layer_1" xmlns="http://www.w3.org/2000/svg" xmlns:xlink="http://www.w3.org/1999/xlink" x="0px" y="0px"
	 viewBox="0 0 64 64" enable-background="new 0 0 64 64" xml:space="preserve">
<g id="XMLID_2_">
	<g>
		<g>
			<g>
				<path fill="#58677A" d="M56,4v56c0,1.7-1.3,3-3,3H11c-1.7,0-3-1.3-3-3V4c0-1.7,1.3-3,3-3h42C54.7,1,56,2.3,56,4z M52,50V9H12v41
					H52z M34.5,56.5c0-1.4-1.1-2.5-2.5-2.5c-1.4,0-2.5,1.1-2.5,2.5S30.6,59,32,59C33.4,59,34.5,57.9,34.5,56.5z"/>
			</g>
		</g>
		<g>
			<g>
				<rect x="12" y="9" fill="#B1DAE5" width="40" height="41"/>
			</g>
		</g>
		<g>
			<g>
				<circle fill="#58677A" cx="32" cy="56.5" r="2.5"/>
			</g>
		</g>
	</g>
	<g>
		<g>
			<g>
				<path fill="#2C2C3D" d="M53,64H11c-2.2,0-4-1.8-4-4V4c0-2.2,1.8-4,4-4h42c2.2,0,4,1.8,4,4v56C57,62.2,55.2,64,53,64z M11,2
					C9.9,2,9,2.9,9,4v56c0,1.1,0.9,2,2,2h42c1.1,0,2-0.9,2-2V4c0-1.1-0.9-2-2-2H11z"/>
			</g>
		</g>
		<g>
			<g>
				<path fill="#2C2C3D" d="M32,60c-1.9,0-3.5-1.6-3.5-3.5S30.1,53,32,53s3.5,1.6,3.5,3.5S33.9,60,32,60z M32,55
					c-0.8,0-1.5,0.7-1.5,1.5S31.2,58,32,58s1.5-0.7,1.5-1.5S32.8,55,32,55z"/>
			</g>
		</g>
		<g>
			<g>
				<path fill="#2C2C3D" d="M52,51H12c-0.6,0-1-0.4-1-1V9c0-0.6,0.4-1,1-1h40c0.6,0,1,0.4,1,1v41C53,50.6,52.6,51,52,51z M13,49h38
					V10H13V49z"/>
			</g>
		</g>
		<g>
			<g>
				<path fill="#2C2C3D" d="M32.5,6h-1c-0.6,0-1-0.4-1-1s0.4-1,1-1h1c0.6,0,1,0.4,1,1S33.1,6,32.5,6z"/>
			</g>
		</g>
	</g>
</g>
</svg>
