<?xml version="1.0" encoding="utf-8"?>
<!-- Generator: Adobe Illustrator 18.0.0, SVG Export Plug-In . SVG Version: 6.00 Build 0)  -->
<!DOCTYPE svg PUBLIC "-//W3C//DTD SVG 1.1//EN" "http://www.w3.org/Graphics/SVG/1.1/DTD/svg11.dtd">
<svg version="1.1" id="Layer_1" xmlns="http://www.w3.org/2000/svg" xmlns:xlink="http://www.w3.org/1999/xlink" x="0px" y="0px"
	 viewBox="0 0 64 64" enable-background="new 0 0 64 64" xml:space="preserve">
<g id="XMLID_7_">
	<g>
		<g>
			<path fill="#67D6A6" d="M23.4,36.4C22,36.8,20.5,37,19,37C9.1,37,1,28.9,1,19S9.1,1,19,1s18,8.1,18,18c0,1.5-0.2,3.1-0.6,4.5v0
				C34.8,29.9,29.8,34.8,23.4,36.4z M20,15.5c0-2.5-2-4.5-4.5-4.5S11,13,11,15.5s2,4.5,4.5,4.5S20,18,20,15.5z"/>
		</g>
		<g>
			<path fill="#C1CEE0" d="M63,60.4V62c0,0.5-0.5,1-1,1h-7.3c-0.3,0-0.5-0.1-0.7-0.3L50,59v-5h-5v-5h-5v-5h-5l-6-6l-2,2l-3.6-3.6
				c6.4-1.6,11.4-6.6,13-12.9L40,27l-2,2l24.7,25c0.2,0.2,0.3,0.4,0.3,0.7V60.4z"/>
		</g>
	</g>
	<g>
		<g>
			<path fill="#2C2C3D" d="M19,38C8.5,38,0,29.5,0,19S8.5,0,19,0s19,8.5,19,19c0,1.6-0.2,3.2-0.6,4.7c0,0,0,0,0,0.1
				c-1.7,6.7-7,12-13.7,13.6C22.2,37.8,20.6,38,19,38z M19,2C9.6,2,2,9.6,2,19s7.6,17,17,17c1.4,0,2.8-0.2,4.2-0.5
				c6-1.5,10.7-6.2,12.3-12.2c0,0,0,0,0-0.1c0.4-1.4,0.5-2.8,0.5-4.3C36,9.6,28.4,2,19,2z"/>
		</g>
		<g>
			<path fill="#2C2C3D" d="M15.5,21c-3,0-5.5-2.5-5.5-5.5s2.5-5.5,5.5-5.5s5.5,2.5,5.5,5.5S18.5,21,15.5,21z M15.5,12
				c-1.9,0-3.5,1.6-3.5,3.5s1.6,3.5,3.5,3.5s3.5-1.6,3.5-3.5S17.4,12,15.5,12z"/>
		</g>
		<g>
			<path fill="#2C2C3D" d="M62,64h-7.3c-0.5,0-1-0.2-1.4-0.6l-4-3.7C49.1,59.5,49,59.3,49,59v-4h-4c-0.6,0-1-0.4-1-1v-4h-4
				c-0.6,0-1-0.4-1-1v-4h-4c-0.3,0-0.5-0.1-0.7-0.3L29,39.4l-1.3,1.3C27.5,40.9,27.3,41,27,41l0,0c-0.3,0-0.5-0.1-0.7-0.3l-3.6-3.6
				c-0.4-0.4-0.4-1,0-1.4c0.4-0.4,1-0.4,1.4,0l2.9,2.9l1.3-1.3c0.4-0.4,1-0.4,1.4,0l5.7,5.7H40c0.6,0,1,0.4,1,1v4h4c0.6,0,1,0.4,1,1
				v4h4c0.6,0,1,0.4,1,1v4.6l3.7,3.4l7.3,0v-7.3l-24.7-25c-0.4-0.4-0.4-1,0-1.4l1.3-1.3l-2.8-2.8c-0.1-0.1-0.2-0.2-0.2-0.3
				c-0.1-0.1-0.1-0.3-0.1-0.4c0-0.6,0.4-1,1-1h0c0.3,0,0.6,0.1,0.8,0.4l3.5,3.4c0.2,0.2,0.3,0.4,0.3,0.7c0,0.3-0.1,0.5-0.3,0.7
				L39.4,29l24,24.3c0.4,0.4,0.6,0.9,0.6,1.4V62C64,63.1,63.1,64,62,64z"/>
		</g>
		<g>
			<path fill="#2C2C3D" d="M63,61.4c-0.3,0-0.5-0.1-0.7-0.3L40.7,39.5c-0.4-0.4-0.4-1,0-1.4c0.4-0.4,1-0.4,1.4,0l21.6,21.6
				c0.4,0.4,0.4,1,0,1.4C63.5,61.3,63.3,61.4,63,61.4z"/>
		</g>
	</g>
</g>
</svg>
