<?xml version="1.0" encoding="utf-8"?>
<!-- Generator: Adobe Illustrator 18.0.0, SVG Export Plug-In . SVG Version: 6.00 Build 0)  -->
<!DOCTYPE svg PUBLIC "-//W3C//DTD SVG 1.1//EN" "http://www.w3.org/Graphics/SVG/1.1/DTD/svg11.dtd">
<svg version="1.1" id="Layer_1" xmlns="http://www.w3.org/2000/svg" xmlns:xlink="http://www.w3.org/1999/xlink" x="0px" y="0px"
	 viewBox="0 0 64 64" enable-background="new 0 0 64 64" xml:space="preserve">
<g id="XMLID_4_">
	<g>
		<g>
			<g>
				<path fill="#CCDBE2" d="M59,47h4c0,2.2-0.9,4.2-2.3,5.7C59.2,54.1,57.2,55,55,55H9c-4.4,0-8-3.6-8-8h4h19l1,2h14l1-2H59z"/>
			</g>
		</g>
		<g>
			<g>
				<path fill="#58677A" d="M59,11v36H40l-1,2H25l-1-2H5V11c0-1.7,1.3-3,3-3h48C57.7,8,59,9.3,59,11z M55,43V14H9v29H55z M33,11
					c0-0.6-0.5-1-1-1s-1,0.4-1,1s0.5,1,1,1S33,11.6,33,11z"/>
			</g>
		</g>
		<g>
			<g>
				<rect x="9" y="14" fill="#B1DAE5" width="46" height="29"/>
			</g>
		</g>
		<g>
			<g>
				<circle cx="32" cy="11" r="1"/>
			</g>
		</g>
	</g>
	<g>
		<g>
			<g>
				<path fill="#2C2C3D" d="M60,47h-2V11c0-1.1-0.9-2-2-2H8c-1.1,0-2,0.9-2,2v36H4V11c0-2.2,1.8-4,4-4h48c2.2,0,4,1.8,4,4V47z"/>
			</g>
		</g>
		<g>
			<g>
				<path fill="#2C2C3D" d="M55,56H9c-5,0-9-4-9-9v-1h24.6l1,2h12.8l1-2H64v1c0,2.4-0.9,4.7-2.6,6.4C59.7,55.1,57.4,56,55,56z
					 M2.1,48c0.5,3.4,3.4,6,6.9,6h46c1.9,0,3.6-0.7,5-2c1.1-1.1,1.8-2.5,2-4H40.6l-1,2H24.4l-1-2H2.1z"/>
			</g>
		</g>
		<g>
			<g>
				<path fill="#2C2C3D" d="M56,44H8V13h48V44z M10,42h44V15H10V42z"/>
			</g>
		</g>
	</g>
</g>
</svg>
