<?xml version="1.0" encoding="utf-8"?>
<!-- Generator: Adobe Illustrator 18.0.0, SVG Export Plug-In . SVG Version: 6.00 Build 0)  -->
<!DOCTYPE svg PUBLIC "-//W3C//DTD SVG 1.1//EN" "http://www.w3.org/Graphics/SVG/1.1/DTD/svg11.dtd">
<svg version="1.1" id="Layer_1" xmlns="http://www.w3.org/2000/svg" xmlns:xlink="http://www.w3.org/1999/xlink" x="0px" y="0px"
	 viewBox="0 0 64 64" enable-background="new 0 0 64 64" xml:space="preserve">
<g>
	<g>
		<polygon fill="#F94646" points="32,1 45.8,32 60,63 32,49 4,63 18.2,32 		"/>
	</g>
	<g>
		<path d="M60,64c-0.2,0-0.3,0-0.4-0.1L32,50.1L4.4,63.9c-0.4,0.2-0.8,0.1-1.1-0.2C3,63.4,2.9,63,3.1,62.6l14.2-31l13.8-31
			C31.2,0.2,31.6,0,32,0s0.8,0.2,0.9,0.6l13.8,31l14.2,31c0.2,0.4,0.1,0.8-0.2,1.1C60.5,63.9,60.3,64,60,64z M32,3.5L19.1,32.4
			l-13,28.4l25.5-12.7c0.3-0.1,0.6-0.1,0.9,0l25.5,12.7l-13-28.4L32,3.5z"/>
	</g>
</g>
</svg>
