<?xml version="1.0" encoding="utf-8"?>
<!-- Generator: Adobe Illustrator 18.0.0, SVG Export Plug-In . SVG Version: 6.00 Build 0)  -->
<!DOCTYPE svg PUBLIC "-//W3C//DTD SVG 1.1//EN" "http://www.w3.org/Graphics/SVG/1.1/DTD/svg11.dtd">
<svg version="1.1" id="Layer_1" xmlns="http://www.w3.org/2000/svg" xmlns:xlink="http://www.w3.org/1999/xlink" x="0px" y="0px"
	 viewBox="0 0 64 64" enable-background="new 0 0 64 64" xml:space="preserve">
<g id="XMLID_3_">
	<g>
		<g>
			<polygon fill="#2CC69E" points="63,55 63,59 47,63 47,43 			"/>
		</g>
		<g>
			<polygon fill="#509DDD" points="63,37 63,55 47,43 47,18 54.1,19.8 54,20 54,33 			"/>
		</g>
		<g>
			<polygon fill="#F9EEB2" points="63,22 63,37 54,33 54,20 54.1,19.8 			"/>
		</g>
		<g>
			<polygon fill="#F9EEB2" points="47,43 47,63 32,59 32,45 			"/>
		</g>
		<g>
			<path fill="#2CC69E" d="M47,18v25l-15,2V31c1.2-1.5,5.1-5.5,7.9-10.1L40,21L47,18z"/>
		</g>
		<g>
			<path fill="#E84B4B" d="M32,1c6.1,0,11,5,11,11.2c0,2.8-1.3,5.9-3.1,8.7c-2.8,4.5-6.7,8.6-7.9,10.1c-1.2-1.5-5.1-5.5-7.9-10.1
				C22.4,18,21,15,21,12.2C21,6,25.9,1,32,1z M36,12c0-2.2-1.8-4-4-4s-4,1.8-4,4s1.8,4,4,4S36,14.2,36,12z"/>
		</g>
		<g>
			<polygon fill="#509DDD" points="32,45 32,59 17,63 17,41 			"/>
		</g>
		<g>
			<path fill="#F9EEB2" d="M32,31v14l-15-4V18l7,3l0.1-0.1C26.9,25.5,30.8,29.5,32,31z"/>
		</g>
		<g>
			<polygon fill="#509DDD" points="17,41 17,63 1,59 1,30 			"/>
		</g>
		<g>
			<polygon fill="#2CC69E" points="17,18 17,41 1,30 1,22 			"/>
		</g>
	</g>
	<g>
		<path fill="#2D2D2D" d="M32,17c2.8,0,5-2.2,5-5s-2.2-5-5-5s-5,2.2-5,5S29.2,17,32,17z M32,9c1.7,0,3,1.3,3,3s-1.3,3-3,3
			s-3-1.3-3-3S30.3,9,32,9z"/>
		<path fill="#2D2D2D" d="M64,37V22c0-0.5-0.3-0.9-0.8-1l-16-4c0,0,0,0,0,0c-0.1,0-0.2,0-0.3,0c0,0,0,0,0,0c-0.1,0-0.2,0-0.2,0.1
			L42.1,19c1.3-2.5,1.9-4.8,1.9-6.8C44,5.5,38.6,0,32,0S20,5.5,20,12.2c0,2,0.6,4.3,1.9,6.8l-4.5-1.9c0,0-0.1,0-0.1,0
			c-0.1,0-0.1,0-0.2,0c-0.1,0-0.2,0-0.3,0c0,0-0.1,0-0.1,0l-16,4C0.3,21.1,0,21.5,0,22v37c0,0.5,0.3,0.9,0.8,1l16,4
			c0.1,0,0.2,0,0.2,0c0,0,0,0,0,0c0.1,0,0.2,0,0.3,0L32,60L46.7,64c0.1,0,0.2,0,0.3,0c0,0,0,0,0,0c0,0,0,0,0,0s0,0,0,0c0,0,0,0,0,0
			c0.1,0,0.2,0,0.2,0l16-4c0.4-0.1,0.8-0.5,0.8-1V37C64,37,64,37,64,37z M48,19.3l5,1.2V33c0,0.4,0.2,0.8,0.6,0.9l8.4,3.7V53
			L48,42.5V19.3z M62,35.5l-7-3.1V21l7,1.7V35.5z M46,42.1l-13,1.7V31.4c0.3-0.3,0.6-0.7,0.9-1.1c1.6-1.9,4.3-5,6.5-8.4l5.6-2.4
			V42.1z M18,19.5l5.6,2.4c2.2,3.5,5,6.7,6.6,8.6c0.3,0.4,0.6,0.7,0.8,0.9v12.3l-13-3.5V19.5z M32,2c5.5,0,10,4.6,10,10.2
			c0,2.2-1,5-3,8.2c-2.1,3.4-4.9,6.6-6.6,8.6c-0.2,0.2-0.3,0.3-0.4,0.5c-0.1-0.1-0.2-0.2-0.3-0.3C30,27.2,27.2,24,25,20.4
			c-2-3.2-3-6-3-8.2C22,6.6,26.5,2,32,2z M16,19.3v19.8L2,29.5v-6.7L16,19.3z M2,58.2V31.9l14,9.6v20.2L2,58.2z M18,61.7V42.3
			l13,3.5v12.5L18,61.7z M33,58.2V45.9l13-1.7v17.6L33,58.2z M48,61.7V45l14,10.5v2.7L48,61.7z"/>
	</g>
</g>
</svg>
