<?xml version="1.0" encoding="utf-8"?>
<!-- Generator: Adobe Illustrator 18.0.0, SVG Export Plug-In . SVG Version: 6.00 Build 0)  -->
<!DOCTYPE svg PUBLIC "-//W3C//DTD SVG 1.1//EN" "http://www.w3.org/Graphics/SVG/1.1/DTD/svg11.dtd">
<svg version="1.1" id="Layer_1" xmlns="http://www.w3.org/2000/svg" xmlns:xlink="http://www.w3.org/1999/xlink" x="0px" y="0px"
	 viewBox="0 0 64 64" enable-background="new 0 0 64 64" xml:space="preserve">
<g>
	<g id="XMLID_41_">
		<g>
			<g>
				<path fill="#E84B4B" d="M54,23c0,14.1-17,34-22,40c-5-6-22-25.9-22-40c0-12.1,9.9-22,22-22S54,10.9,54,23z M41,21.5c0-5-4-9-9-9
					s-9,4-9,9s4,9,9,9S41,26.5,41,21.5z"/>
			</g>
			<g>
				<circle fill="#FFD41D" cx="32" cy="21.5" r="9"/>
			</g>
		</g>
		<g>
			<g>
				<path fill="#2D2D2D" d="M32,31.5c-5.5,0-10-4.5-10-10s4.5-10,10-10s10,4.5,10,10S37.5,31.5,32,31.5z M32,13.5c-4.4,0-8,3.6-8,8
					s3.6,8,8,8s8-3.6,8-8S36.4,13.5,32,13.5z"/>
			</g>
			<g>
				<path fill="#2D2D2D" d="M32,64c-0.3,0-0.6-0.1-0.8-0.4L31,63.4C25.6,56.9,9,37.3,9,23C9,10.3,19.3,0,32,0s23,10.3,23,23
					c0,14-15.8,32.9-21.8,40.1l-0.5,0.6C32.6,63.9,32.3,64,32,64C32,64,32,64,32,64z M32,2c-11.6,0-21,9.4-21,21
					c0,13.1,15.2,31.5,21,38.4c5.5-6.6,21-25.4,21-38.4C53,11.4,43.6,2,32,2z"/>
			</g>
		</g>
	</g>
</g>
</svg>
