<?xml version="1.0" encoding="utf-8"?>
<!-- Generator: Adobe Illustrator 18.0.0, SVG Export Plug-In . SVG Version: 6.00 Build 0)  -->
<!DOCTYPE svg PUBLIC "-//W3C//DTD SVG 1.1//EN" "http://www.w3.org/Graphics/SVG/1.1/DTD/svg11.dtd">
<svg version="1.1" id="Layer_1" xmlns="http://www.w3.org/2000/svg" xmlns:xlink="http://www.w3.org/1999/xlink" x="0px" y="0px"
	 viewBox="0 0 64 64" enable-background="new 0 0 64 64" xml:space="preserve">
<g id="XMLID_6_">
	<g>
		<g>
			<path fill="#F9C953" d="M36,45c0-2.2-1.8-4-3.9-4c-1.3,0-2.5,0.7-3.3,1.8c-1.6,2.2-0.4,4.5,1.2,5.5V53c0,1.1,0.9,2,2,2
				c0.5,0,1-0.2,1.4-0.6C33.8,54,34,53.5,34,53v-4.7C35.1,47.6,36,46.4,36,45z M55,31v27c0,2.8-2.2,5-5,5H14c-2.8,0-5-2.2-5-5V31
				c0-2.8,2.2-5,5-5h2h7h18h7h2C52.8,26,55,28.2,55,31z"/>
		</g>
		<g>
			<path fill="#BC7D00" d="M30,48.3c-1.6-1.1-2.9-3.3-1.2-5.5c0.8-1.1,2-1.8,3.3-1.8c2.2,0,3.9,1.8,3.9,4c0,1.4-0.9,2.6-2,3.3V53
				c0,0.5-0.2,1-0.6,1.4C33,54.8,32.5,55,32,55c-1.1,0-2-0.9-2-2V48.3z"/>
		</g>
		<g>
			<path fill="#C1CEE0" d="M48,16.5V26h-7v-9c0-2.5-1-4.7-2.6-6.4C36.7,9,34.5,8,32,8c-5,0-9,4.1-9,9v9h-7v-9.5C16,8,23.2,1,32,1
				c4.4,0,8.4,1.7,11.3,4.6C46.2,8.4,48,12.2,48,16.5z"/>
		</g>
	</g>
	<g>
		<g>
			<path fill="#2C2C3D" d="M50,64H14c-3.3,0-6-2.7-6-6V31c0-3.3,2.7-6,6-6h36c3.3,0,6,2.7,6,6v27C56,61.3,53.3,64,50,64z M14,27
				c-2.2,0-4,1.8-4,4v27c0,2.2,1.8,4,4,4h36c2.2,0,4-1.8,4-4V31c0-2.2-1.8-4-4-4H14z"/>
		</g>
		<g>
			<path fill="#2C2C3D" d="M48,27c-0.6,0-1-0.4-1-1v-9.5c0-3.9-1.6-7.5-4.4-10.2C39.8,3.5,36,2,32,2c-8.3,0-15,6.5-15,14.5V26
				c0,0.6-0.4,1-1,1s-1-0.4-1-1v-9.5C15,7.4,22.6,0,32,0c4.5,0,8.8,1.7,12,4.8c3.2,3.1,5,7.3,5,11.7V26C49,26.6,48.6,27,48,27z"/>
		</g>
		<g>
			<path fill="#2C2C3D" d="M41,27c-0.6,0-1-0.4-1-1v-9c0-2.1-0.8-4.1-2.3-5.7C36.1,9.8,34.1,9,32,9c-4.4,0-8,3.6-8,8v9
				c0,0.6-0.4,1-1,1s-1-0.4-1-1v-9c0-5.5,4.5-10,10-10c2.7,0,5.2,1,7.1,2.9C41,11.8,42,14.3,42,17v9C42,26.6,41.6,27,41,27z"/>
		</g>
		<g>
			<path fill="#2C2C3D" d="M32,56c-1.7,0-3-1.3-3-3v-4.1c-1-0.8-1.7-1.9-1.9-3.1c-0.2-1.2,0.1-2.5,0.9-3.6c1-1.4,2.5-2.2,4.1-2.2
				c2.8,0.1,5,2.3,5,5c0,1.4-0.8,2.9-2,3.9V53c0,0.8-0.3,1.6-0.9,2.1C33.6,55.7,32.8,56,32,56z M32.1,42c-0.9,0-1.9,0.5-2.5,1.4
				c-0.5,0.7-0.7,1.4-0.5,2.1c0.1,0.8,0.7,1.6,1.5,2.1c0.3,0.2,0.5,0.5,0.5,0.8V53c0,0.6,0.4,1,1,1c0.3,0,0.5-0.1,0.7-0.3
				c0.2-0.2,0.3-0.4,0.3-0.7v-4.6c0-0.3,0.2-0.7,0.5-0.8C34.2,47,35,46.1,35,45C35,43.3,33.7,42,32.1,42L32.1,42z"/>
		</g>
	</g>
</g>
</svg>
