<?xml version="1.0" encoding="utf-8"?>
<!-- Generator: Adobe Illustrator 18.0.0, SVG Export Plug-In . SVG Version: 6.00 Build 0)  -->
<!DOCTYPE svg PUBLIC "-//W3C//DTD SVG 1.1//EN" "http://www.w3.org/Graphics/SVG/1.1/DTD/svg11.dtd">
<svg version="1.1" id="Layer_1" xmlns="http://www.w3.org/2000/svg" xmlns:xlink="http://www.w3.org/1999/xlink" x="0px" y="0px"
	 viewBox="0 0 64 64" enable-background="new 0 0 64 64" xml:space="preserve">
<g id="XMLID_19_">
	<g>
		<g>
			<path fill="#FF3154" d="M55,62.9H9c0-5.7,2.4-10.9,6.3-14.6c2.2-2,4.8-3.6,7.7-4.5l0.1,0.2c0.5,4.5,4.3,8,8.9,8s8.5-3.5,9-8
				l0.1-0.2c2.9,0.9,5.5,2.5,7.7,4.5C52.6,52,55,57.2,55,62.9z"/>
		</g>
		<g>
			<path fill="#F7BE8F" d="M48.8,22.2c0.7,0.7,1.2,1.7,1.2,2.8s-0.5,2.1-1.2,2.8C48.1,28.5,47.1,29,46,29l-0.1,0
				c0.1-0.6,0.1-1.3,0.1-2c0-1.3,0-3.8,0-6C47.1,21,48.1,21.5,48.8,22.2z"/>
		</g>
		<g>
			<path fill="#FFDA40" d="M49,28v20l-0.3,0.3c-2.2-2-4.8-3.6-7.7-4.5c-1.3-0.4-2.6-0.7-4-0.8v-2.9c0.7-0.3,1.3-0.6,2-1
				c2.2-1.2,3.9-3,5.1-5.1c0.9-1.5,1.5-3.2,1.7-5l0.1,0c1.1,0,2.1-0.5,2.8-1.2L49,28z"/>
		</g>
		<g>
			<path fill="#FFDA40" d="M41.6,4.8L42,5c4.2,3.1,7,6.2,7,11.8V22l-0.2,0.2C48.1,21.5,47.1,21,46,21c0-2.1,0-4,0-4l-6-5
				c-1.8,4.7-7.2,8-12.5,8c-3.6,0-7.2-1.5-9.5-4v1c0,0,0,1.9,0,4c-1.1,0-2.1,0.5-2.8,1.2L15,22v-7c0-3.7,1.2-6.5,3.2-8.7
				C21.4,2.8,26,0.8,30.7,1c3.7,0.1,6.9,1.1,11.3,0c0.2,0.7,0.2,1.4,0.1,2C42,3.7,41.8,4.3,41.6,4.8z"/>
		</g>
		<g>
			<path fill="#FAD3A1" d="M27,40.1c-0.7-0.3-1.4-0.6-2-1c-3.8-2.2-6.3-5.9-6.9-10.2C18,28.3,18,27.7,18,27c0-1.3,0-3.8,0-6
				c0-2.1,0-4,0-4v-1c2.3,2.5,5.9,4,9.5,4c5.3,0,10.7-3.3,12.5-8l6,5c0,0,0,1.9,0,4c0,2.2,0,4.7,0,6c0,0.7,0,1.3-0.1,2
				c-0.3,1.8-0.9,3.5-1.7,5c-1.2,2.1-3,3.9-5.1,5.1c-0.7,0.4-1.3,0.7-2,1c-1.6,0.6-3.3,0.9-5,0.9S28.6,40.7,27,40.1z M39,25.5
				c0-0.8-0.7-1.5-1.5-1.5S36,24.7,36,25.5s0.7,1.5,1.5,1.5S39,26.3,39,25.5z M28,25.5c0-0.8-0.7-1.5-1.5-1.5S25,24.7,25,25.5
				s0.7,1.5,1.5,1.5S28,26.3,28,25.5z"/>
		</g>
		<g>
			<path fill="#FFFFFF" d="M41,43.8L41,44c-0.5,4.5-4.3,8-9,8s-8.4-3.5-8.9-8L23,43.8c1.3-0.4,2.6-0.7,4-0.8c0,1.4,0.6,2.6,1.5,3.5
				S30.6,48,32,48c2.8,0,5-2.2,5-5C38.4,43.1,39.7,43.4,41,43.8z"/>
		</g>
		<g>
			<circle fill="#2D2D2D" cx="37.5" cy="25.5" r="1.5"/>
		</g>
		<g>
			<path fill="#F7BE8F" d="M37,40.1V43c0,2.8-2.2,5-5,5c-1.4,0-2.6-0.6-3.5-1.5S27,44.4,27,43v-2.9c1.6,0.6,3.3,0.9,5,0.9
				S35.4,40.7,37,40.1z"/>
		</g>
		<g>
			<path fill="#FFDA40" d="M27,40.1V43c-1.4,0.1-2.7,0.4-4,0.8c-2.9,0.9-5.5,2.5-7.7,4.5L15,48V28l0.2-0.2c0.7,0.7,1.7,1.2,2.8,1.2
				l0.1,0c0.6,4.2,3.1,8,6.9,10.2C25.6,39.5,26.3,39.8,27,40.1z"/>
		</g>
		<g>
			<circle fill="#2D2D2D" cx="26.5" cy="25.5" r="1.5"/>
		</g>
		<g>
			<path fill="#F7BE8F" d="M18.1,29L18,29c-1.1,0-2.1-0.5-2.8-1.2C14.4,27.1,14,26.1,14,25s0.4-2.1,1.2-2.8c0.7-0.7,1.7-1.2,2.8-1.2
				c0,2.2,0,4.7,0,6C18,27.7,18,28.3,18.1,29z"/>
		</g>
	</g>
	<g>
		<path fill="#2C2C3D" d="M50,48.2c0-0.1,0-0.1,0-0.2V28c0,0,0,0,0,0c0.6-0.9,1-1.9,1-3c0-1.1-0.4-2.1-1-3c0,0,0,0,0,0v-5.2
			c0-5.8-2.9-9.2-7.2-12.4C43,4,43.1,3.5,43.1,3.1c0,0,0,0,0,0c0,0,0,0,0,0c0,0,0,0,0,0c0,0,0,0,0,0c0.1-0.8,0-1.6-0.1-2.3
			c-0.1-0.3-0.2-0.5-0.5-0.6C42.3,0,42,0,41.8,0c-2.9,0.7-5.3,0.5-7.7,0.2C33,0.2,31.9,0,30.8,0c-5.1-0.2-9.9,1.9-13.3,5.6
			C15.1,8.2,14,11.3,14,15v7c0,0,0,0,0,0c-0.6,0.9-1,1.9-1,3c0,1.1,0.4,2.1,1,3c0,0,0,0,0,0v20c0,0.1,0,0.1,0,0.2
			c-3.8,3.9-6,9.2-6,14.7c0,0.6,0.4,1,1,1h46c0.6,0,1-0.4,1-1C56,57.4,53.8,52.1,50,48.2z M48.1,22.9c0.6,0.6,0.9,1.3,0.9,2.1
			s-0.3,1.6-0.9,2.1c-0.3,0.3-0.7,0.6-1.2,0.7c0-0.3,0-0.6,0-0.8v-4.8C47.4,22.3,47.8,22.6,48.1,22.9z M45,27c0,0.6,0,1.2-0.1,1.8
			c-0.2,1.7-0.8,3.2-1.6,4.7c-1.1,2-2.8,3.6-4.7,4.8c-0.6,0.4-1.2,0.7-1.9,0.9c-2.9,1.1-6.3,1.1-9.3,0c-0.6-0.2-1.2-0.5-1.9-0.9
			c-3.5-2-5.8-5.5-6.4-9.4C19,28.2,19,27.6,19,27v-8.8c2.4,1.7,5.5,2.8,8.5,2.8c5.4,0,10.5-3,12.9-7.4l4.6,3.9V27z M28,41.5
			c1.3,0.4,2.6,0.5,4,0.5c1.4,0,2.7-0.2,4-0.5V43c0,2.2-1.8,4-4,4c-1.1,0-2.1-0.4-2.8-1.2C28.4,45.1,28,44.1,28,43V41.5z M17,27.8
			c-0.4-0.1-0.8-0.4-1.1-0.7C15.3,26.6,15,25.8,15,25s0.3-1.6,0.9-2.1c0.3-0.3,0.7-0.6,1.1-0.7V27C17,27.3,17,27.5,17,27.8z
			 M17.3,29.9c0.8,4.2,3.4,7.9,7.2,10.1c0.5,0.3,1,0.5,1.5,0.7v1.4c-1.1,0.2-2.2,0.4-3.3,0.7c-2.4,0.8-4.7,2-6.7,3.6V29.6
			C16.4,29.8,16.9,29.9,17.3,29.9z M26.1,44.1c0.2,1.2,0.8,2.2,1.7,3.1c1.1,1.1,2.6,1.8,4.2,1.8c2.9,0,5.4-2.1,5.9-4.9
			c0.7,0.1,1.3,0.2,2,0.4c-0.7,3.7-4,6.4-7.9,6.4c-3.9,0-7.1-2.7-7.8-6.4C24.8,44.4,25.4,44.2,26.1,44.1z M41.3,42.9
			c-1.1-0.3-2.2-0.6-3.3-0.7v-1.4c0.5-0.2,1-0.5,1.5-0.7c2.3-1.3,4.2-3.2,5.5-5.5c0.8-1.4,1.4-2.9,1.7-4.6c0.5-0.1,0.9-0.2,1.3-0.4
			v16.9C46,44.9,43.7,43.6,41.3,42.9z M19,6.9c2.9-3.2,7.3-5.1,11.7-4.9c1.1,0,2.1,0.1,3.1,0.3c2.3,0.2,4.6,0.5,7.4,0
			c0,0.2,0,0.4,0,0.7c0,0,0,0,0,0c0,0,0,0,0,0c-0.1,0.5-0.2,1-0.4,1.6c-0.2,0.6-0.5,0.9-0.5,0.9c-0.3,0.4-0.3,1.1,0.2,1.4
			C40.6,6.9,40.8,7,41,7c0.3,0,0.6-0.1,0.8-0.4c0,0,0.1-0.2,0.2-0.3c3.7,2.8,6,5.6,6,10.5v3.7c-0.3-0.1-0.7-0.3-1-0.3V17
			c0-0.3-0.1-0.6-0.4-0.8l-6-5C40.4,11,40.1,11,39.7,11c-0.3,0.1-0.6,0.3-0.7,0.6c-1.6,4.2-6.6,7.4-11.6,7.4c-3.3,0-6.7-1.4-8.8-3.7
			c-0.3-0.3-0.7-0.4-1.1-0.3C17.3,15.2,17,15.6,17,16v4.1c-0.3,0.1-0.7,0.2-1,0.3V15C16,11.8,17,9.2,19,6.9z M10,61.9
			c0.3-4.9,2.4-9.5,6-12.8c1.8-1.7,3.9-3,6.2-3.9c1,4.5,5,7.8,9.8,7.8c4.7,0,8.8-3.3,9.8-7.8c2.3,0.9,4.4,2.2,6.2,3.9
			c3.6,3.3,5.7,8,6,12.8H10z"/>
		<path fill="#2C2C3D" d="M34.5,34.2C33.8,34.7,32.8,35,32,35s-1.8-0.3-2.5-0.8c-0.5-0.3-1.1-0.2-1.4,0.2c-0.3,0.4-0.2,1.1,0.2,1.4
			c1,0.7,2.4,1.2,3.6,1.2c1.2,0,2.6-0.4,3.6-1.2c0.4-0.3,0.6-0.9,0.2-1.4C35.6,34,34.9,33.9,34.5,34.2z"/>
	</g>
</g>
</svg>
