<?xml version="1.0" encoding="utf-8"?>
<!-- Generator: Adobe Illustrator 18.0.0, SVG Export Plug-In . SVG Version: 6.00 Build 0)  -->
<!DOCTYPE svg PUBLIC "-//W3C//DTD SVG 1.1//EN" "http://www.w3.org/Graphics/SVG/1.1/DTD/svg11.dtd">
<svg version="1.1" id="Layer_1" xmlns="http://www.w3.org/2000/svg" xmlns:xlink="http://www.w3.org/1999/xlink" x="0px" y="0px"
	 viewBox="0 0 64 64" enable-background="new 0 0 64 64" xml:space="preserve">
<g>
	<g id="XMLID_2_">
		<g>
			<g>
				<path fill="#9E6161" d="M62.2,58.2c1.1,1.1,1.1,2.9,0,4c-0.6,0.5-1.3,0.8-2,0.8c-0.7,0-1.5-0.3-2-0.8L44,48
					c-1.1-1.1-1.1-2.9,0-4c0.5-0.5,1.3-0.8,2-0.8s1.5,0.3,2,0.8L62.2,58.2z"/>
			</g>
			<g>
				<path fill="#ACB3C6" d="M45,43l-1,1l-1,1l-3.8-3.8c0.7-0.6,1.4-1.3,2-2L45,43z"/>
			</g>
			<g>
				<path fill="#FFFFFF" d="M47,24c0,5.8-2.2,11.2-5.8,15.2L41,39l-2,2l0.2,0.2C35.2,44.8,29.8,47,24,47C11.3,47,1,36.7,1,24
					S11.3,1,24,1S47,11.3,47,24z M42,24c0-9.9-8.1-18-18-18C14.1,6,6,14.1,6,24s8.1,18,18,18C33.9,42,42,33.9,42,24z"/>
			</g>
			<g>
				<path fill="#FFFFFF" d="M41,39l0.2,0.2c-0.6,0.7-1.3,1.4-2,2L39,41L41,39z"/>
			</g>
			<g>
				<path fill="#69CDE8" d="M24,6c9.9,0,18,8.1,18,18s-8.1,18-18,18c-9.9,0-18-8.1-18-18S14.1,6,24,6z"/>
			</g>
		</g>
		<g>
			<g>
				<path fill="#FFFFFF" d="M12,24c-0.6,0-1-0.4-1-1c0-5.5,6.5-12,12-12c0.6,0,1,0.4,1,1s-0.4,1-1,1c-4.4,0-10,5.6-10,10
					C13,23.5,12.6,24,12,24z"/>
			</g>
			<g>
				<path fill="#2C2C3D" d="M24,5C13.5,5,5,13.5,5,24s8.5,19,19,19s19-8.5,19-19S34.5,5,24,5z M24,41c-9.4,0-17-7.6-17-17
					S14.6,7,24,7s17,7.6,17,17S33.4,41,24,41z"/>
				<path fill="#2C2C3D" d="M62.9,57.5L48.7,43.3c-0.8-0.8-1.9-1.1-3-1.1l-3.1-3.1C46.1,34.9,48,29.5,48,24C48,10.8,37.2,0,24,0
					S0,10.8,0,24s10.8,24,24,24c5.6,0,10.9-1.9,15.2-5.4l3.1,3.1c0,0.1,0,0.2,0,0.4c0,1,0.4,2,1.1,2.7l14.2,14.2
					c0.7,0.7,1.7,1.1,2.7,1.1c1,0,2-0.4,2.7-1.1C64.4,61.4,64.4,59,62.9,57.5z M41.3,40.7l2.3,2.3L43,43.6l-2.3-2.3
					C40.9,41.1,41.1,40.9,41.3,40.7z M2,24C2,11.9,11.9,2,24,2s22,9.9,22,22c0,5.4-2,10.5-5.5,14.6c-0.6,0.7-1.2,1.3-1.9,1.9
					C34.6,44,29.4,46,24,46C11.9,46,2,36.1,2,24z M61.5,61.5c-0.7,0.7-1.9,0.7-2.6,0L44.7,47.3c-0.3-0.3-0.5-0.8-0.5-1.3
					s0.2-0.9,0.5-1.3c0.3-0.3,0.8-0.5,1.3-0.5s0.9,0.2,1.3,0.5l14.2,14.2C62.2,59.6,62.2,60.8,61.5,61.5z"/>
			</g>
		</g>
	</g>
</g>
</svg>
