<?xml version="1.0" encoding="utf-8"?>
<!-- Generator: Adobe Illustrator 18.0.0, SVG Export Plug-In . SVG Version: 6.00 Build 0)  -->
<!DOCTYPE svg PUBLIC "-//W3C//DTD SVG 1.1//EN" "http://www.w3.org/Graphics/SVG/1.1/DTD/svg11.dtd">
<svg version="1.1" id="Layer_1" xmlns="http://www.w3.org/2000/svg" xmlns:xlink="http://www.w3.org/1999/xlink" x="0px" y="0px"
	 viewBox="0 0 64 64" enable-background="new 0 0 64 64" xml:space="preserve">
<g>
	<g id="XMLID_13_">
		<g>
			<g>
				<polygon fill="#9FCCE2" points="56,9 56,17 50,17 14,17 8,17 8,9 24,9 40,9 				"/>
			</g>
			<g>
				<rect x="14" y="17" fill="#FFD41D" width="36" height="46"/>
			</g>
		</g>
		<g>
			<path fill="#2D2D2D" d="M41,8V0H23v8H7v10h6v46h38V18h6V8H41z M25,2h14v6H25V2z M49,62H15V18h34V62z M55,16H9v-6h46V16z"/>
			<rect x="21" y="26" fill="#2D2D2D" width="2" height="27"/>
			<rect x="31" y="26" fill="#2D2D2D" width="2" height="27"/>
			<rect x="41" y="26" fill="#2D2D2D" width="2" height="27"/>
		</g>
	</g>
</g>
</svg>
