<?xml version="1.0" encoding="utf-8"?>
<!-- Generator: Adobe Illustrator 18.0.0, SVG Export Plug-In . SVG Version: 6.00 Build 0)  -->
<!DOCTYPE svg PUBLIC "-//W3C//DTD SVG 1.1//EN" "http://www.w3.org/Graphics/SVG/1.1/DTD/svg11.dtd">
<svg version="1.1" id="Layer_1" xmlns="http://www.w3.org/2000/svg" xmlns:xlink="http://www.w3.org/1999/xlink" x="0px" y="0px"
	 viewBox="0 0 64 64" enable-background="new 0 0 64 64" xml:space="preserve">
<g id="XMLID_6_">
	<g>
		<g>
			<path fill="#C18476" d="M8,19h45h2.7c4,0,7.3,3.3,7.3,7.3v8.2H52.7c-1.6,0-3,0.6-4,1.6c-1,1-1.7,2.4-1.7,3.9c0,3,2.6,5.5,5.7,5.5
				H63v6.2c0,4-3.3,7.3-7.3,7.3H8.3c-4,0-7.3-3.3-7.3-7.3V12c0,3.5,2.6,6.4,6,6.9C7.3,19,7.7,19,8,19z"/>
		</g>
		<g>
			<path fill="#4EB550" d="M53,11v8H8c-0.3,0-0.7,0-1-0.1V11H53z"/>
		</g>
		<g>
			<path fill="#9B655C" d="M53,38c-1.1,0-2,0.9-2,2s0.9,2,2,2s2-0.9,2-2S54.1,38,53,38z M47,40c0-1.5,0.6-2.9,1.7-3.9
				c1-1,2.5-1.6,4-1.6H63v11H52.7C49.6,45.5,47,43,47,40z"/>
		</g>
		<g>
			<path fill="#FCDA4F" d="M55,40c0,1.1-0.9,2-2,2s-2-0.9-2-2s0.9-2,2-2S55,38.9,55,40z"/>
		</g>
		<g>
			<path fill="#9B655C" d="M7,11v7.9c-3.4-0.5-6-3.4-6-6.9c0,0,0,0,0,0C1,10,1.8,8.3,3.1,7c1.3-1.2,3-2,5-2h43c3.3,0,6,2.6,6,5.9V19
				h-1.3H53v-8H7z"/>
		</g>
	</g>
	<g>
		<g>
			<path fill="#2C2C3D" d="M55.7,60H8.3C3.7,60,0,56.3,0,51.7V12c0-0.6,0.4-1,1-1s1,0.4,1,1v39.7C2,55.2,4.8,58,8.3,58h47.3
				c3.5,0,6.3-2.8,6.3-6.3V26.3c0-3.5-2.8-6.3-6.3-6.3c-0.6,0-1-0.4-1-1s0.4-1,1-1c4.6,0,8.3,3.7,8.3,8.3v25.3
				C64,56.3,60.3,60,55.7,60z"/>
		</g>
		<g>
			<path fill="#2C2C3D" d="M57,20H8c-0.4,0-0.8,0-1.2-0.1C3,19.3,0,15.9,0,12c0-2.2,0.8-4.2,2.4-5.7C3.9,4.8,5.9,4,8,4h43
				c3.9,0,7,3.1,7,6.9V19C58,19.6,57.6,20,57,20z M8,6C6.4,6,4.9,6.6,3.8,7.7C2.6,8.9,2,10.4,2,12c0,3,2.2,5.5,5.1,6
				C7.5,18,7.7,18,8,18h48v-7.1C56,8.2,53.8,6,51,6H8z"/>
		</g>
		<g>
			<path fill="#2C2C3D" d="M63,46.5H52.7C49,46.5,46,43.6,46,40c0-1.7,0.7-3.4,2-4.6c1.3-1.2,2.9-1.9,4.7-1.9H63c0.6,0,1,0.4,1,1
				s-0.4,1-1,1H52.7c-1.2,0-2.4,0.5-3.3,1.3c-0.9,0.9-1.4,2-1.4,3.2c0,2.5,2.1,4.5,4.7,4.5H63c0.6,0,1,0.4,1,1S63.6,46.5,63,46.5z"
				/>
		</g>
		<g>
			<path fill="#2C2C3D" d="M53,43c-1.7,0-3-1.3-3-3s1.3-3,3-3s3,1.3,3,3S54.7,43,53,43z M53,39c-0.6,0-1,0.4-1,1s0.4,1,1,1
				s1-0.4,1-1S53.6,39,53,39z"/>
		</g>
		<g>
			<path fill="#2C2C3D" d="M54,19h-2v-7H8v6.9L6,19v-8c0-0.6,0.4-1,1-1h46c0.6,0,1,0.4,1,1V19z"/>
		</g>
		<g>
			<path fill="#2C2C3D" d="M56,25h-4c-0.6,0-1-0.4-1-1s0.4-1,1-1h4c0.6,0,1,0.4,1,1S56.6,25,56,25z M47,25h-4c-0.6,0-1-0.4-1-1
				s0.4-1,1-1h4c0.6,0,1,0.4,1,1S47.6,25,47,25z M38,25h-4c-0.6,0-1-0.4-1-1s0.4-1,1-1h4c0.6,0,1,0.4,1,1S38.6,25,38,25z M29,25h-4
				c-0.6,0-1-0.4-1-1s0.4-1,1-1h4c0.6,0,1,0.4,1,1S29.6,25,29,25z M20,25h-4c-0.6,0-1-0.4-1-1s0.4-1,1-1h4c0.6,0,1,0.4,1,1
				S20.6,25,20,25z M11,25H7c-0.6,0-1-0.4-1-1s0.4-1,1-1h4c0.6,0,1,0.4,1,1S11.6,25,11,25z"/>
		</g>
		<g>
			<path fill="#2C2C3D" d="M56,55h-4c-0.6,0-1-0.4-1-1s0.4-1,1-1h4c0.6,0,1,0.4,1,1S56.6,55,56,55z M47,55h-4c-0.6,0-1-0.4-1-1
				s0.4-1,1-1h4c0.6,0,1,0.4,1,1S47.6,55,47,55z M38,55h-4c-0.6,0-1-0.4-1-1s0.4-1,1-1h4c0.6,0,1,0.4,1,1S38.6,55,38,55z M29,55h-4
				c-0.6,0-1-0.4-1-1s0.4-1,1-1h4c0.6,0,1,0.4,1,1S29.6,55,29,55z M20,55h-4c-0.6,0-1-0.4-1-1s0.4-1,1-1h4c0.6,0,1,0.4,1,1
				S20.6,55,20,55z M11,55H7c-0.6,0-1-0.4-1-1s0.4-1,1-1h4c0.6,0,1,0.4,1,1S11.6,55,11,55z"/>
		</g>
	</g>
</g>
</svg>
