<?xml version="1.0" encoding="utf-8"?>
<!-- Generator: Adobe Illustrator 18.0.0, SVG Export Plug-In . SVG Version: 6.00 Build 0)  -->
<!DOCTYPE svg PUBLIC "-//W3C//DTD SVG 1.1//EN" "http://www.w3.org/Graphics/SVG/1.1/DTD/svg11.dtd">
<svg version="1.1" id="Layer_1" xmlns="http://www.w3.org/2000/svg" xmlns:xlink="http://www.w3.org/1999/xlink" x="0px" y="0px"
	 viewBox="0 0 64 64" enable-background="new 0 0 64 64" xml:space="preserve">
<g id="XMLID_3_">
	<g>
		<g>
			<g>
				<path fill="#B8CAD1" d="M61.8,8.8c2.3,5,1.4,11.2-2.6,15.4c-3.9,4-9.5,5-14.3,3L26.8,45.2c1.5,4.7,0.4,10.1-3.2,13.8
					c-4,4.1-9.9,5-14.8,2.8l7.8-7.9c1.8-1.8,1.8-4.8,0-6.6c-1.8-1.8-4.8-1.8-6.6,0l-7.8,7.8C0,50.1,0.8,44,4.9,39.8
					c4-4.1,9.8-5,14.6-2.8l17.8-17.9C35.7,14.3,36.7,8.8,40.5,5c4-4.1,9.9-5,14.8-2.8l-6.9,6.9c-1.8,1.8-1.8,4.8,0,6.6
					c1.8,1.8,4.8,1.8,6.6,0L61.8,8.8z M40.9,25.2c0-0.5-0.2-1-0.6-1.4c-0.8-0.8-2-0.8-2.8,0L23.6,37.6C23.2,38,23,38.5,23,39
					c0,0.5,0.2,1,0.6,1.4c0.8,0.8,2,0.8,2.8,0l13.9-13.9C40.7,26.2,40.9,25.7,40.9,25.2z"/>
			</g>
		</g>
		<g>
			<g>
				<path fill="#8499A3" d="M40.3,26.6L26.4,40.5c-0.8,0.8-2,0.8-2.8,0C23.2,40.1,23,39.6,23,39c0-0.5,0.2-1,0.6-1.4l13.9-13.9
					c0.8-0.8,2-0.8,2.8,0c0.4,0.4,0.6,0.9,0.6,1.4C40.9,25.7,40.7,26.2,40.3,26.6z"/>
			</g>
		</g>
	</g>
	<g>
		<g>
			<g>
				<path fill="#2C2C3D" d="M14.2,64c-2,0-4-0.4-5.9-1.3c-0.3-0.1-0.5-0.4-0.6-0.7s0-0.6,0.3-0.9l7.8-7.9c1.4-1.4,1.4-3.7,0-5.2
					c-1.4-1.4-3.8-1.4-5.2,0L3,55.9c-0.2,0.2-0.6,0.3-0.9,0.3c-0.3-0.1-0.6-0.3-0.7-0.6C-1.2,50-0.1,43.4,4.1,39.1
					c2.7-2.8,6.2-4.3,10-4.3c1.8,0,3.5,0.3,5.1,1l16.9-17c-1.5-5.1-0.2-10.8,3.5-14.6C42.4,1.5,46,0,49.8,0c2,0,4,0.4,5.9,1.3
					c0.3,0.1,0.5,0.4,0.6,0.7c0.1,0.3,0,0.7-0.3,0.9l-6.9,6.9c-0.7,0.7-1.1,1.6-1.1,2.6c0,1,0.4,1.9,1.1,2.6c1.4,1.4,3.8,1.4,5.2,0
					L61,8.1c0.2-0.2,0.6-0.3,0.9-0.3c0.3,0.1,0.6,0.3,0.7,0.6c2.5,5.5,1.4,12.2-2.8,16.5c-2.7,2.8-6.2,4.3-10,4.3c0,0,0,0,0,0
					c-1.6,0-3.2-0.3-4.7-0.8L27.9,45.5c1.4,5.1,0,10.5-3.6,14.2C21.6,62.5,18,64,14.2,64z M10.6,61.4c1.2,0.4,2.4,0.6,3.7,0.6
					c3.2,0,6.3-1.3,8.6-3.7c3.3-3.4,4.4-8.3,3-12.8c-0.1-0.4,0-0.7,0.2-1l18.1-18.1c0.3-0.3,0.7-0.4,1.1-0.2c1.5,0.6,3,0.9,4.6,0.9
					c3.2,0,6.3-1.3,8.6-3.7c3.3-3.4,4.4-8.4,3-12.9l-5.7,5.7c-1.1,1.1-2.5,1.7-4,1.7c-1.5,0-2.9-0.6-4-1.7c-1.1-1.1-1.7-2.5-1.7-4
					c0-1.5,0.6-2.9,1.7-4l5.8-5.8C52.3,2.2,51,2,49.8,2c-3.3,0-6.3,1.3-8.6,3.7c-3.3,3.4-4.4,8.6-2.9,13.1c0.1,0.4,0,0.8-0.2,1
					L20.2,37.7c-0.3,0.3-0.7,0.4-1.1,0.2c-1.6-0.7-3.2-1.1-4.9-1.1c-3.2,0-6.3,1.3-8.6,3.7c-3.3,3.4-4.4,8.4-3,12.9l6.7-6.7
					c1.1-1.1,2.5-1.7,4-1.7c1.5,0,2.9,0.6,4,1.7c2.2,2.2,2.2,5.8,0,8L10.6,61.4z"/>
			</g>
		</g>
		<g>
			<g>
				<path fill="#2C2C3D" d="M25,42c-0.8,0-1.6-0.3-2.1-0.9C22.3,40.6,22,39.8,22,39c0-0.8,0.3-1.5,0.9-2.1L36.8,23
					c1.1-1.1,3.1-1.1,4.2,0c0.6,0.6,0.9,1.3,0.9,2.1c0,0.8-0.3,1.6-0.9,2.1L27.1,41.2C26.6,41.7,25.8,42,25,42z M38.9,24.2
					c-0.3,0-0.5,0.1-0.7,0.3L24.3,38.3C24.1,38.5,24,38.8,24,39c0,0.3,0.1,0.5,0.3,0.7c0.4,0.4,1,0.4,1.4,0l13.9-13.9
					c0.2-0.2,0.3-0.4,0.3-0.7c0-0.3-0.1-0.5-0.3-0.7C39.4,24.3,39.1,24.2,38.9,24.2z"/>
			</g>
		</g>
		<g>
			<g>
				<path fill="#2C2C3D" d="M49.5,25C43.7,25,39,20.3,39,14.5c0-0.6,0-1.1,0.1-1.7c0.1-0.5,0.6-0.9,1.1-0.8c0.5,0.1,0.9,0.6,0.8,1.1
					C41,13.6,41,14,41,14.5c0,4.7,3.8,8.5,8.5,8.5c0.5,0,0.9,0,1.3-0.1c0.5-0.1,1.1,0.3,1.1,0.8s-0.3,1.1-0.8,1.1
					C50.6,25,50.1,25,49.5,25z"/>
			</g>
		</g>
		<g>
			<g>
				<path fill="#2C2C3D" d="M22.9,52c-0.1,0-0.1,0-0.2,0c-0.5-0.1-0.9-0.6-0.8-1.1C22,50.4,22,50,22,49.5c0-4.7-3.8-8.5-8.5-8.5
					c-0.5,0-0.9,0-1.3,0.1c-0.5,0.1-1.1-0.3-1.1-0.8s0.3-1.1,0.8-1.1c0.5-0.1,1.1-0.1,1.7-0.1C19.3,39,24,43.7,24,49.5
					c0,0.6,0,1.1-0.1,1.7C23.8,51.7,23.4,52,22.9,52z"/>
			</g>
		</g>
	</g>
</g>
</svg>
