<?xml version="1.0" standalone="no"?>
<!DOCTYPE svg PUBLIC "-//W3C//DTD SVG 1.1//EN" "http://www.w3.org/Graphics/SVG/1.1/DTD/svg11.dtd" >
<svg xmlns="http://www.w3.org/2000/svg" xmlns:xlink="http://www.w3.org/1999/xlink" version="1.1">
<metadata>
Created by FontForge 20170731 at Tue Aug 23 12:00:31 2022
 By Aleksey,,,
Copyright (c) 2020 The Inter Project Authors
</metadata>
<defs>
<font id="Inter-Light" horiz-adv-x="0" >
  <font-face 
    font-family="Inter Light"
    font-weight="300"
    font-stretch="normal"
    units-per-em="2048"
    panose-1="2 0 4 3 0 0 0 2 0 4"
    ascent="1638"
    descent="-410"
    x-height="1117"
    cap-height="1489"
    bbox="-1481 -655 5290 2194"
    underline-thickness="108"
    underline-position="-449"
    unicode-range="U+0020-1F852"
  />
<missing-glyph horiz-adv-x="1998" 
d="M169 -465v372h1660v-372h-1660zM169 47v372h1660v-372h-1660zM169 559v372h1660v-372h-1660zM169 1071v372h1660v-372h-1660zM169 1583v372h1660v-372h-1660z" />
    <glyph glyph-name=".notdef" horiz-adv-x="1998" 
d="M169 -465v372h1660v-372h-1660zM169 47v372h1660v-372h-1660zM169 559v372h1660v-372h-1660zM169 1071v372h1660v-372h-1660zM169 1583v372h1660v-372h-1660z" />
    <glyph glyph-name=".null" 
 />
    <glyph glyph-name="nonmarkingreturn" horiz-adv-x="682" 
 />
    <glyph glyph-name="uni0020" unicode=" " horiz-adv-x="576" 
 />
    <glyph glyph-name="uni0021" unicode="!" horiz-adv-x="558" 
d="M353 1489l-10 -1062h-128l-9 1062h147zM279 -11q-43 0 -73.5 31t-30.5 74t30.5 74t73.5 31t74 -30.5t31 -74.5q0 -43 -31 -74t-74 -31z" />
    <glyph glyph-name="uni0022" unicode="&#x22;" horiz-adv-x="783" 
d="M281 1489v-496h-122v496h122zM623 1489v-496h-123v496h123z" />
    <glyph glyph-name="uni0023" unicode="#" horiz-adv-x="1293" 
d="M730 0l71 430h-411l-71 -430h-112l70 430h-238l18 112h238l67 406h-237l18 112h237l71 429h113l-71 -429h411l71 429h112l-70 -429h238l-19 -112h-237l-67 -406h237l-19 -112h-237l-70 -430h-113zM408 542h411l67 406h-411z" />
    <glyph glyph-name="uni0024" unicode="$" horiz-adv-x="1288" 
d="M597 -186v162q-206 11 -331 118.5t-136 277.5h140q9 -119 98.5 -190t228.5 -82v608l-60 17q-368 109 -368 380q0 165 120.5 275.5t307.5 127.5v168h95v-166q192 -11 315.5 -120.5t130.5 -272.5h-131q-11 114 -97 186.5t-218 83.5v-575l62 -17q64 -18 115.5 -38t108 -54
t94.5 -75t62.5 -101t24.5 -131q0 -173 -126 -290t-341 -130v-162h-95zM692 101q149 13 242 94t93 203q0 106 -78.5 168t-232.5 107l-24 6v-578zM597 840v545q-133 -13 -215 -89t-82 -185q0 -187 297 -271z" />
    <glyph glyph-name="uni0025" unicode="%" horiz-adv-x="1637" 
d="M919 276v68q0 128 75.5 212.5t200.5 84.5q126 0 199.5 -84t73.5 -213v-68q0 -128 -74 -212t-199 -84q-126 0 -201 84t-75 212zM169 1145v68q0 128 75 212.5t200 84.5q126 0 200 -84t74 -213v-68q0 -128 -74.5 -212t-199.5 -84q-126 0 -200.5 83.5t-74.5 212.5zM236 0
l1023 1489h129l-1023 -1489h-129zM1033 344v-68q0 -86 42.5 -141.5t119.5 -55.5q76 0 117 55.5t41 141.5v68q0 87 -40.5 142.5t-117.5 55.5q-76 0 -119 -56t-43 -142zM283 1213v-68q0 -86 42 -141.5t119 -55.5q76 0 117.5 55.5t41.5 141.5v68q0 87 -41 142.5t-118 55.5
q-76 0 -118.5 -56t-42.5 -142z" />
    <glyph glyph-name="uni0026" unicode="&#x26;" horiz-adv-x="1271" 
d="M569 -20q-204 0 -330 115.5t-126 292.5q0 119 70.5 209.5t223.5 199.5l13 10q-51 62 -80 100t-58 86t-41.5 91.5t-12.5 91.5q0 144 97.5 237t248.5 93t245 -89t94 -219q0 -98 -50 -176t-153 -156l-109 -81l361 -446q68 122 77 276l125 -2q-6 -220 -122 -374l194 -239
h-157l-115 141q-71 -77 -177.5 -119t-217.5 -42zM887 237l-387 473l-61 -46q-194 -146 -194 -276q0 -120 91 -205.5t229 -86.5q187 2 322 141zM521 883l102 75q82 58 119.5 112t37.5 128q0 77 -57.5 135t-144.5 58q-91 0 -154.5 -66t-63.5 -150q0 -62 38.5 -126t122.5 -166z
" />
    <glyph glyph-name="uni0027" unicode="'" horiz-adv-x="442" 
d="M281 1489v-496h-122v496h122z" />
    <glyph glyph-name="uni0028" unicode="(" horiz-adv-x="709" 
d="M225 628q0 508 256 931h118q-107 -173 -173.5 -427.5t-66.5 -503.5q0 -248 66.5 -503t173.5 -428h-118q-256 426 -256 931z" />
    <glyph glyph-name="uni0029" unicode=")" horiz-adv-x="709" 
d="M485 628q0 -508 -256 -931h-118q107 173 173.5 427.5t66.5 503.5q0 248 -66.5 503t-173.5 428h118q256 -426 256 -931z" />
    <glyph glyph-name="uni002A" unicode="*" horiz-adv-x="1024" 
d="M457 652l8 339l-290 -177l-54 94l300 163l-300 162l54 94l290 -177l-8 339h110l-8 -339l290 177l54 -94l-300 -162l300 -163l-54 -94l-290 177l8 -339h-110z" />
    <glyph glyph-name="uni002B" unicode="+" horiz-adv-x="1334" 
d="M605 121v399h-398v124h398v398h124v-398h399v-124h-399v-399h-124z" />
    <glyph glyph-name="uni002C" unicode="," horiz-adv-x="557" 
d="M386 204l-13 -78q-17 -109 -55 -255.5t-68 -234.5h-99q62 321 84 486l10 82h141z" />
    <glyph glyph-name="uni002D" unicode="-" horiz-adv-x="928" 
d="M774 700v-123h-620v123h620z" />
    <glyph glyph-name="uni002E" unicode="." horiz-adv-x="549" 
d="M274 -11q-43 0 -74 31t-31 74t31 74t74 31q44 0 74.5 -30.5t30.5 -74.5q0 -43 -31 -74t-74 -31z" />
    <glyph glyph-name="uni002F" unicode="/" horiz-adv-x="707" 
d="M655 1559l-480 -1783h-122l480 1783h122z" />
    <glyph glyph-name="uni0030" unicode="0" horiz-adv-x="1256" 
d="M628 -20q-235 0 -366 202t-131 563q0 360 131.5 562.5t365.5 202.5t366 -202.5t132 -562.5q0 -361 -131.5 -563t-366.5 -202zM628 102q172 0 269 169t97 474q0 304 -97 474.5t-269 170.5q-171 0 -268 -170t-97 -475t96.5 -474t268.5 -169z" />
    <glyph glyph-name="uni0031" unicode="1" horiz-adv-x="912" 
d="M625 1489v-1489h-136v1347h-8l-349 -232v141l352 233h141z" />
    <glyph glyph-name="uni0032" unicode="2" horiz-adv-x="1250" 
d="M166 0v100l486 547q152 171 208.5 264.5t56.5 194.5q0 126 -86.5 205t-217.5 79q-137 0 -221 -85t-84 -219h-130q0 185 124.5 304.5t314.5 119.5q185 0 306.5 -116t121.5 -288q0 -123 -67 -239t-254 -323l-369 -412v-10h737v-122h-926z" />
    <glyph glyph-name="uni0033" unicode="3" horiz-adv-x="1288" 
d="M649 -20q-208 0 -343.5 109.5t-140.5 282.5h138q5 -121 102.5 -195.5t242.5 -74.5q154 0 252.5 84t98.5 213q0 137 -103.5 221t-278.5 84h-87v122h87q146 0 239 78t93 207q0 124 -82 201.5t-216 77.5q-133 0 -226 -75.5t-96 -197.5h-131q3 114 64 204.5t163.5 139.5
t226.5 49q191 0 310 -114t119 -279q0 -126 -68.5 -216.5t-186.5 -126.5v-10q143 -29 224.5 -126t81.5 -239q0 -180 -137 -299.5t-346 -119.5z" />
    <glyph glyph-name="uni0034" unicode="4" horiz-adv-x="1282" 
d="M130 320v111l664 1058h161v-1047h198v-122h-198v-320h-130v320h-695zM825 442v862h-10l-533 -852v-10h543z" />
    <glyph glyph-name="uni0035" unicode="5" horiz-adv-x="1219" 
d="M601 -20q-186 0 -310 110.5t-129 281.5h132q7 -119 92.5 -194.5t214.5 -75.5q150 0 247 104t97 262q-1 162 -101.5 266t-250.5 105q-73 1 -145.5 -24.5t-121.5 -66.5l-136 18l89 723h736v-122h-622l-59 -498h7q50 43 122 68.5t149 25.5q199 0 332 -139t132 -353
q-1 -212 -135 -351.5t-340 -139.5z" />
    <glyph glyph-name="uni0036" unicode="6" horiz-adv-x="1248" 
d="M635 -20q-77 1 -146 23t-133.5 74.5t-111 131.5t-74 200.5t-27.5 273.5q0 246 55.5 429.5t172.5 290.5t284 107q178 0 295.5 -108.5t139.5 -284.5h-134q-22 123 -100 197t-201 74q-183 0 -283 -170t-101 -482h9q54 100 153.5 158.5t218.5 58.5q188 0 321 -139t133 -346
q0 -205 -131.5 -347t-339.5 -141zM635 102q144 0 242 106.5t98 259.5q0 152 -98 257.5t-242 105.5q-148 0 -249 -111.5t-90 -259.5q12 -156 106.5 -257t232.5 -101z" />
    <glyph glyph-name="uni0037" unicode="7" horiz-adv-x="1153" 
d="M209 0l678 1358v9h-782v122h925v-128l-678 -1361h-143z" />
    <glyph glyph-name="uni0038" unicode="8" horiz-adv-x="1253" 
d="M626 -20q-213 0 -352.5 117.5t-138.5 294.5q-1 139 83.5 247t212.5 133v8q-109 31 -176.5 125.5t-66.5 214.5q-1 166 124.5 278t313.5 112q186 0 312 -111.5t127 -278.5q-1 -120 -68.5 -214.5t-175.5 -125.5v-8q127 -25 211.5 -133t85.5 -247q-1 -177 -140.5 -294.5
t-351.5 -117.5zM626 102q158 0 257.5 83.5t100.5 213.5q-1 134 -103 223t-255 89q-154 0 -256.5 -89.5t-101.5 -222.5q-1 -130 99 -213.5t259 -83.5zM626 827q131 0 218.5 81t88.5 204q-1 122 -87.5 200t-219.5 78q-134 0 -220.5 -78t-85.5 -200q-1 -123 86.5 -204
t219.5 -81z" />
    <glyph glyph-name="uni0039" unicode="9" horiz-adv-x="1248" 
d="M614 1510q64 -1 122.5 -17t114.5 -49.5t101.5 -90t80.5 -131.5t54 -180.5t19 -232.5q0 -247 -56 -431.5t-173 -291t-284 -106.5q-179 0 -296 108.5t-138 286.5h134q20 -123 98.5 -198t201.5 -75q183 0 284 170.5t101 483.5h-9q-53 -99 -153 -158t-219 -59
q-92 0 -175.5 37t-145 100.5t-97.5 154t-36 193.5q0 204 131 345.5t340 140.5zM614 1388q-144 0 -242 -106t-98 -258q0 -153 97.5 -258t242.5 -105q97 0 178 52t124.5 138t36.5 182q-13 154 -107.5 254.5t-231.5 100.5z" />
    <glyph glyph-name="uni003A" unicode=":" horiz-adv-x="549" 
d="M274 28q-43 0 -74 30.5t-31 73.5t31 74t74 31q44 0 74.5 -30.5t30.5 -74.5q0 -43 -31 -73.5t-74 -30.5zM274 833q-43 0 -74 31t-31 74t31 74t74 31q44 0 74.5 -30.5t30.5 -74.5q0 -43 -31 -74t-74 -31z" />
    <glyph glyph-name="uni003B" unicode=";" horiz-adv-x="558" 
d="M386 204l-13 -78q-17 -109 -55 -255.5t-68 -234.5h-99q62 321 84 486l10 82h141zM300 833q-43 0 -73.5 31t-30.5 74t30.5 74t73.5 31q44 0 74.5 -30.5t30.5 -74.5q0 -43 -31 -74t-74 -31z" />
    <glyph glyph-name="uni003C" unicode="&#x3c;" horiz-adv-x="1334" 
d="M222 535v93l890 491v-142l-723 -391v-9l723 -390v-143z" />
    <glyph glyph-name="uni003D" unicode="=" horiz-adv-x="1334" 
d="M253 313v120h828v-120h-828zM253 730v120h828v-120h-828z" />
    <glyph glyph-name="uni003E" unicode="&#x3e;" horiz-adv-x="1334" 
d="M1112 535l-890 -491v143l723 390v9l-723 391v142l890 -491v-93z" />
    <glyph glyph-name="uni003F" unicode="?" horiz-adv-x="1018" 
d="M396 427v39q0 112 26.5 188t70 121.5t122.5 95.5q165 107 165 261q0 116 -79 188.5t-196 72.5q-115 0 -195.5 -73t-85.5 -203h-137q5 177 123 285t295 108q180 0 294 -108t114 -275q0 -109 -51 -191t-157 -151q-100 -66 -138.5 -133t-39.5 -186v-39h-131zM465 -11
q-43 0 -73.5 31t-30.5 74t30.5 74t73.5 31t74 -30.5t31 -74.5q0 -43 -31 -74t-74 -31z" />
    <glyph glyph-name="uni0040" unicode="@" horiz-adv-x="1917" 
d="M997 -393q-274 0 -477.5 112.5t-311.5 319.5t-108 485q0 271 109.5 477.5t310 319t463.5 112.5q189 0 348.5 -69t264.5 -184.5t163 -265.5t58 -313q0 -88 -9 -165t-33 -152t-61.5 -128t-99 -85.5t-140.5 -32.5q-58 0 -107 17t-86.5 61t-43.5 109h-7q-38 -85 -117.5 -138
t-193.5 -50q-120 3 -210.5 69t-137.5 176t-47 247q0 196 113 328.5t282 143.5q108 7 192 -37t113 -115h7v131h119v-674q0 -161 126 -161q117 0 171 114t54 344q0 142 -49.5 272t-140 231t-229.5 161t-305 60q-340 0 -547.5 -222t-207.5 -585q0 -243 94 -425t270.5 -281
t414.5 -99q110 0 221 30t180 68l37 -102q-82 -45 -205 -74.5t-237 -29.5zM934 151q147 0 225 100.5t78 283.5q0 178 -79 266.5t-221 88.5q-130 0 -213 -103.5t-83 -251.5q0 -162 77.5 -273t215.5 -111z" />
    <glyph glyph-name="uni0041" unicode="A" horiz-adv-x="1344" 
d="M200 0h-143l542 1489h146l542 -1489h-143l-159 449h-626zM403 571h538l-264 742h-10z" />
    <glyph glyph-name="uni0042" unicode="B" horiz-adv-x="1325" 
d="M198 0v1489h502q211 0 324 -107t113 -282q0 -133 -64.5 -214.5t-171.5 -110.5v-12q117 -8 206 -109.5t89 -262.5q0 -177 -118.5 -284t-349.5 -107h-530zM334 122h394q166 0 251.5 74t85.5 195q0 130 -92 217.5t-239 87.5h-400v-574zM334 817h379q131 0 212.5 79.5
t81.5 203.5q0 122 -79 194.5t-228 72.5h-366v-550z" />
    <glyph glyph-name="uni0043" unicode="C" horiz-adv-x="1486" 
d="M1364 1024h-136q-31 156 -156 257t-297 101q-106 0 -199 -42t-163 -121t-110 -201t-40 -273t40 -273.5t110 -201t162.5 -120.5t199.5 -42q172 0 297 100.5t156 256.5h136q-38 -211 -197.5 -348t-391.5 -137q-140 0 -259 54.5t-204 153t-133 242t-48 315.5t48 315.5
t133 242t204 153t259 54.5q232 0 391.5 -137.5t197.5 -348.5z" />
    <glyph glyph-name="uni0044" unicode="D" horiz-adv-x="1469" 
d="M634 0h-436v1489h462q319 0 498.5 -196.5t179.5 -544.5q-1 -353 -185.5 -550.5t-518.5 -197.5zM334 122h292q284 0 432.5 165t148.5 461q-1 292 -144 455.5t-411 163.5h-318v-1245z" />
    <glyph glyph-name="uni0045" unicode="E" horiz-adv-x="1215" 
d="M198 0v1489h864v-122h-728v-560h682v-123h-682v-562h742v-122h-878z" />
    <glyph glyph-name="uni0046" unicode="F" horiz-adv-x="1200" 
d="M198 0v1489h862v-122h-726v-560h658v-123h-658v-684h-136z" />
    <glyph glyph-name="uni0047" unicode="G" horiz-adv-x="1518" 
d="M1228 1024q-43 157 -162 257.5t-295 100.5q-223 0 -365.5 -171.5t-142.5 -465.5q0 -295 143.5 -466t373.5 -171q206 0 334.5 132.5t131.5 358.5h-434v122h566v-122q0 -188 -77 -329t-212 -215.5t-309 -74.5q-293 0 -471 208.5t-178 556.5q0 347 177.5 556t462.5 209
q119 0 223.5 -39t180 -105.5t125.5 -154.5t68 -187h-140z" />
    <glyph glyph-name="uni0048" unicode="H" horiz-adv-x="1512" 
d="M198 0v1489h136v-682h845v682h136v-1489h-136v684h-845v-684h-136z" />
    <glyph glyph-name="uni0049" unicode="I" horiz-adv-x="531" 
d="M334 1489v-1489h-136v1489h136z" />
    <glyph glyph-name="uni004A" unicode="J" horiz-adv-x="1096" 
d="M762 1489h136v-1074q-1 -213 -110.5 -324t-292.5 -111q-176 0 -289.5 95.5t-112.5 250.5h134q-1 -99 75.5 -161.5t192.5 -62.5q123 0 194.5 78t72.5 235v1074z" />
    <glyph glyph-name="uni004B" unicode="K" horiz-adv-x="1311" 
d="M198 0v1489h136v-802h13l727 802h179l-636 -688l633 -801h-166l-552 706l-198 -222v-484h-136z" />
    <glyph glyph-name="uni004C" unicode="L" horiz-adv-x="1152" 
d="M198 0v1489h136v-1367h710v-122h-846z" />
    <glyph glyph-name="uni004D" unicode="M" horiz-adv-x="1803" 
d="M198 1489h157l540 -1297h13l541 1297h157v-1489h-128v1202h-12l-502 -1202h-124l-503 1202h-11v-1202h-128v1489z" />
    <glyph glyph-name="uni004E" unicode="N" horiz-adv-x="1555" 
d="M1358 1489v-1489h-133l-880 1247h-11v-1247h-136v1489h131l883 -1248h12v1248h134z" />
    <glyph glyph-name="uni004F" unicode="O" horiz-adv-x="1549" 
d="M1419 745q0 -346 -179.5 -555.5t-464.5 -209.5q-140 0 -259.5 54.5t-204 153t-132.5 242t-48 315.5q0 229 82.5 403.5t228.5 268t333 93.5q285 0 464.5 -209.5t179.5 -555.5zM1287 745q0 147 -38.5 268t-107 201.5t-162.5 124t-204 43.5q-225 0 -368.5 -171.5
t-143.5 -465.5t143 -465.5t369 -171.5q110 0 204 43.5t162.5 124t107 201.5t38.5 268z" />
    <glyph glyph-name="uni0050" unicode="P" horiz-adv-x="1280" 
d="M198 0v1489h481q230 0 355 -128t125 -331t-125 -332t-353 -129h-347v-569h-136zM334 692h343q169 0 258.5 93t89.5 245q0 153 -89.5 245t-260.5 92h-341v-675z" />
    <glyph glyph-name="uni0051" unicode="Q" horiz-adv-x="1549" 
d="M1419 745q0 -204 -65.5 -364.5t-184.5 -261.5l195 -259h-152l-142 191q-131 -71 -295 -71q-140 0 -259.5 54.5t-204 153t-132.5 242t-48 315.5q0 229 82.5 403.5t228.5 268t333 93.5q285 0 464.5 -209.5t179.5 -555.5zM756 465h151l182 -242q94 83 146.5 216t51.5 306
q0 147 -38.5 268t-107 201.5t-162.5 124t-204 43.5q-225 0 -368.5 -171.5t-143.5 -465.5t143 -465.5t369 -171.5q119 0 216 48z" />
    <glyph glyph-name="uni0052" unicode="R" horiz-adv-x="1292" 
d="M198 0v1489h481q231 0 355.5 -122t124.5 -323q0 -151 -72.5 -259.5t-209.5 -153.5l344 -631h-157l-327 604q-36 -2 -56 -2h-347v-602h-136zM334 727h343q171 0 259.5 84t88.5 233q0 151 -88.5 237t-261.5 86h-341v-640z" />
    <glyph glyph-name="uni0053" unicode="S" horiz-adv-x="1288" 
d="M1007 1117q-13 124 -110 197.5t-245 73.5q-155 0 -253.5 -78t-98.5 -199q0 -187 297 -271l157 -45q64 -18 115.5 -38t108 -54t94.5 -75t62.5 -101t24.5 -131q0 -184 -140 -302.5t-377 -118.5q-225 0 -362.5 109t-149.5 288h140q11 -129 114 -201t258 -72q169 0 277 83
t108 216q0 106 -78.5 168t-232.5 107l-179 52q-368 109 -368 380q0 178 139 292t347 114q206 0 340.5 -111.5t142.5 -282.5h-131z" />
    <glyph glyph-name="uni0054" unicode="T" horiz-adv-x="1295" 
d="M108 1367v122h1080v-122h-472v-1367h-136v1367h-472z" />
    <glyph glyph-name="uni0055" unicode="U" horiz-adv-x="1524" 
d="M1191 1489h136v-986q0 -230 -157.5 -379t-407.5 -149q-165 0 -294 68.5t-199.5 188.5t-70.5 271v986h136v-976q0 -180 117.5 -295t310.5 -115t311 115t118 295v976z" />
    <glyph glyph-name="uni0056" unicode="V" horiz-adv-x="1344" 
d="M200 1489l465 -1312h14l465 1312h143l-542 -1489h-146l-542 1489h143z" />
    <glyph glyph-name="uni0057" unicode="W" horiz-adv-x="1904" 
d="M457 0l-408 1489h138l337 -1280h12l337 1280h158l337 -1280h12l337 1280h139l-408 -1489h-145l-346 1263h-9l-346 -1263h-145z" />
    <glyph glyph-name="uni0058" unicode="X" horiz-adv-x="1276" 
d="M221 1489l412 -646h10l412 646h161l-479 -744l479 -745h-161l-412 639h-10l-412 -639h-161l487 745l-487 744h161z" />
    <glyph glyph-name="uni0059" unicode="Y" horiz-adv-x="1326" 
d="M58 1489h157l442 -706h13l441 706h157l-537 -844v-645h-135v645z" />
    <glyph glyph-name="uni005A" unicode="Z" horiz-adv-x="1266" 
d="M139 0v103l827 1264h-831v122h993v-102l-828 -1265h835v-122h-996z" />
    <glyph glyph-name="uni005B" unicode="[" horiz-adv-x="709" 
d="M247 -303v1862h372v-110h-249v-1641h249v-111h-372z" />
    <glyph glyph-name="uni005C" unicode="\" horiz-adv-x="707" 
d="M533 -224l-480 1783h121l480 -1783h-121z" />
    <glyph glyph-name="uni005D" unicode="]" horiz-adv-x="709" 
d="M463 1559v-1862h-372v111h249v1641h-249v110h372z" />
    <glyph glyph-name="uni005E" unicode="^" horiz-adv-x="913" 
d="M87 815l298 628h144l298 -628h-132l-234 500h-9l-232 -500h-133z" />
    <glyph glyph-name="uni005F" unicode="_" horiz-adv-x="908" 
d="M911 0v-122h-915v122h915z" />
    <glyph glyph-name="uni0060" unicode="`" horiz-adv-x="1018" 
d="M559 1272l-223 330h153l187 -330h-117z" />
    <glyph glyph-name="uni0061" unicode="a" horiz-adv-x="1139" 
d="M483 -25q-158 0 -262.5 90.5t-104.5 246.5q0 81 30.5 139t90.5 94t133.5 57t174.5 33q172 21 201 28q77 17 88 60q3 10 3 21v26q0 116 -68.5 181t-194.5 65q-114 0 -192 -50t-111 -128l-123 44q54 129 168 189.5t254 60.5q56 0 107.5 -9.5t105.5 -35.5t93.5 -66.5
t65 -108t25.5 -153.5v-759h-130v177h-8q-40 -84 -128.5 -143t-217.5 -59zM500 93q151 0 244 97t93 238v162q-40 -39 -292 -69q-149 -18 -224.5 -68t-75.5 -147q0 -99 71.5 -156t183.5 -57z" />
    <glyph glyph-name="uni0062" unicode="b" horiz-adv-x="1256" 
d="M198 0v1489h130v-585h12q100 228 341 228q207 0 334.5 -159t127.5 -417q0 -260 -127 -419.5t-333 -159.5q-243 0 -343 230h-16v-207h-126zM326 558q0 -207 90.5 -335t250.5 -128q162 0 253.5 130.5t91.5 332.5q0 130 -39 232.5t-118 163.5t-188 61q-160 0 -250.5 -126
t-90.5 -331z" />
    <glyph glyph-name="uni0063" unicode="c" horiz-adv-x="1139" 
d="M607 -23q-222 0 -358 161.5t-136 414.5t137 416t355 163q168 0 286.5 -96t141.5 -251h-131q-22 99 -101 164.5t-194 65.5q-161 0 -262 -127t-101 -330q0 -205 100 -334t263 -129q112 0 193 62.5t103 168.5h130q-23 -154 -138.5 -251.5t-287.5 -97.5z" />
    <glyph glyph-name="uni0064" unicode="d" horiz-adv-x="1256" 
d="M573 -23q-206 0 -333 159.5t-127 419.5q0 258 127.5 417t334.5 159q241 0 341 -228h12v585h130v-1489h-126v207h-16q-104 -230 -343 -230zM588 95q160 0 251 128t91 335q0 205 -91 331t-251 126q-109 0 -188 -61t-117.5 -163.5t-38.5 -232.5q0 -202 91 -332.5t253 -130.5
z" />
    <glyph glyph-name="uni0065" unicode="e" horiz-adv-x="1189" 
d="M623 -23q-233 0 -371.5 159t-138.5 416q0 254 137 417t353 163q93 0 176.5 -34t150.5 -99.5t106.5 -172.5t39.5 -242v-64h-832q5 -194 107 -309.5t272 -115.5q113 0 190 51.5t112 132.5l123 -40q-41 -112 -153 -187t-272 -75zM244 634h699q0 163 -95.5 272t-244.5 109
t-248.5 -110t-110.5 -271z" />
    <glyph glyph-name="uni0066" unicode="f" horiz-adv-x="718" 
d="M631 1117v-113h-248v-1004h-130v1004h-172v113h172v164q0 129 87 203.5t208 74.5q79 0 138 -25l-38 -114q-46 16 -89 16q-85 0 -130.5 -47t-45.5 -135v-137h248z" />
    <glyph glyph-name="uni0067" unicode="g" horiz-adv-x="1230" 
d="M597 -442q-163 0 -273.5 61t-162.5 163l106 70q98 -178 330 -178q154 0 242.5 77t88.5 228v252h-12q-18 -42 -44.5 -78t-67 -69.5t-100 -52.5t-131.5 -19q-205 0 -332.5 148t-127.5 401q0 255 127.5 413t334.5 158q239 0 344 -228h13v213h126v-1146q0 -138 -61 -232.5
t-162.5 -137.5t-237.5 -43zM588 130q161 0 251.5 115.5t90.5 318.5q0 201 -90.5 326t-251.5 125q-162 0 -253 -127t-91 -324q0 -196 90.5 -315t253.5 -119z" />
    <glyph glyph-name="uni0068" unicode="h" horiz-adv-x="1194" 
d="M300 698v-698h-129v1489h129v-547h12q40 90 124 140t207 50q174 0 277.5 -106.5t103.5 -301.5v-724h-130v716q0 137 -77 217t-207 80q-137 0 -223.5 -85.5t-86.5 -229.5z" />
    <glyph glyph-name="uni0069" unicode="i" horiz-adv-x="474" 
d="M172 0v1117h131v-1117h-131zM239 1309q-40 0 -68.5 27.5t-28.5 65.5t28.5 65.5t68.5 27.5t68.5 -27.5t28.5 -65.5t-28.5 -65.5t-68.5 -27.5z" />
    <glyph glyph-name="uni006A" unicode="j" horiz-adv-x="474" 
d="M172 1117h131v-1225q0 -144 -79 -227.5t-220 -83.5q-19 0 -31 1l2 121h27q80 0 125 50t45 139v1225zM236 1309q-40 0 -68 27.5t-28 65.5t28 65.5t68 27.5t69 -27.5t29 -65.5t-29 -65.5t-69 -27.5z" />
    <glyph glyph-name="uni006B" unicode="k" horiz-adv-x="1075" 
d="M171 0v1489h129v-898h16l524 526h164l-478 -478l507 -639h-166l-438 553l-129 -120v-433h-129z" />
    <glyph glyph-name="uni006C" unicode="l" horiz-adv-x="471" 
d="M300 1489v-1489h-129v1489h129z" />
    <glyph glyph-name="uni006D" unicode="m" horiz-adv-x="1757" 
d="M171 0v1117h126v-172h11q33 88 112 137.5t188 49.5q224 0 302 -203h9q38 95 124.5 149t206.5 54q157 0 246.5 -99.5t89.5 -284.5v-748h-129v748q0 129 -66 197t-180 68q-125 0 -195.5 -77t-70.5 -201v-735h-133v760q0 115 -64 184t-177 69q-117 0 -194 -83.5t-77 -213.5
v-716h-129z" />
    <glyph glyph-name="uni006E" unicode="n" horiz-adv-x="1186" 
d="M300 698v-698h-129v1117h126v-175h11q40 88 124.5 139t204.5 51q173 0 276 -106.5t103 -301.5v-724h-129v716q0 137 -77 217t-206 80q-134 0 -219 -85.5t-85 -229.5z" />
    <glyph glyph-name="uni006F" unicode="o" horiz-adv-x="1210" 
d="M605 -23q-217 0 -354.5 160.5t-137.5 415.5q0 257 137.5 418t354.5 161t354.5 -161t137.5 -418q0 -255 -137.5 -415.5t-354.5 -160.5zM605 95q112 0 195.5 63t125 165.5t41.5 229.5t-41 230.5t-125 167.5t-196 64t-195.5 -64t-124.5 -167.5t-41 -230.5t41 -229.5
t124.5 -165.5t195.5 -63z" />
    <glyph glyph-name="uni0070" unicode="p" horiz-adv-x="1228" 
d="M171 -419v1536h126v-213h15q105 228 342 228q207 0 334 -158.5t127 -417.5t-127.5 -419t-332.5 -160q-72 0 -131.5 20.5t-100 56.5t-66.5 73t-45 80h-12v-626h-129zM299 558q0 -207 91 -335t250 -128q108 0 187.5 62t118.5 165.5t39 235.5q0 200 -91 328.5t-254 128.5
q-161 0 -251 -125.5t-90 -331.5z" />
    <glyph glyph-name="uni0071" unicode="q" horiz-adv-x="1228" 
d="M928 -419v626h-12q-18 -43 -44.5 -80t-66.5 -73t-100 -56.5t-132 -20.5q-205 0 -332.5 160t-127.5 419t127.5 417.5t334.5 158.5q238 0 341 -228h16v213h126v-1536h-130zM588 95q160 0 251 128t91 335q0 206 -90.5 331.5t-251.5 125.5q-109 0 -188 -61t-117.5 -163.5
t-38.5 -232.5q0 -202 91.5 -332.5t252.5 -130.5z" />
    <glyph glyph-name="uni0072" unicode="r" horiz-adv-x="730" 
d="M171 0v1117h126v-172h9q34 85 117.5 137t188.5 52q34 0 68 -2v-132q-3 0 -16.5 2t-30 3.5t-31.5 1.5q-131 0 -216.5 -81t-85.5 -205v-721h-129z" />
    <glyph glyph-name="uni0073" unicode="s" horiz-adv-x="1050" 
d="M921 872l-118 -33q-63 179 -260 179q-113 0 -186 -54t-73 -139q0 -72 49 -116t155 -71l169 -42q280 -69 280 -294q0 -143 -115 -234t-299 -91q-165 0 -271 74t-135 213l124 31q23 -99 94 -150.5t186 -51.5q127 0 205 57.5t78 145.5q0 139 -182 182l-183 43
q-285 69 -285 299q0 137 109.5 224.5t279.5 87.5q289 0 378 -260z" />
    <glyph glyph-name="uni0074" unicode="t" horiz-adv-x="733" 
d="M611 1117v-113h-236v-712q0 -97 47 -139.5t121 -42.5q40 0 76 10l28 -117q-56 -20 -115 -20q-55 0 -105.5 18t-92 52t-66 88t-24.5 120v743h-166v113h166v268h131v-268h236z" />
    <glyph glyph-name="uni0075" unicode="u" horiz-adv-x="1181" 
d="M881 427v690h129v-1117h-129v185h-10q-41 -90 -127.5 -145t-205.5 -55q-166 0 -266.5 107t-100.5 301v724h129v-716q0 -130 76.5 -210t198.5 -80q58 0 112 21t97.5 59.5t70 100t26.5 135.5z" />
    <glyph glyph-name="uni0076" unicode="v" horiz-adv-x="1117" 
d="M1036 1117l-408 -1117h-139l-408 1117h141l331 -946h11l331 946h141z" />
    <glyph glyph-name="uni0077" unicode="w" horiz-adv-x="1648" 
d="M419 0l-338 1117h137l265 -921h9l264 921h138l262 -919h10l265 919h136l-337 -1117h-134l-265 916h-14l-264 -916h-134z" />
    <glyph glyph-name="uni0078" unicode="x" horiz-adv-x="1078" 
d="M251 1117l288 -476l288 476h150l-359 -558l359 -559h-150l-288 461l-288 -461h-150l355 559l-355 558h150z" />
    <glyph glyph-name="uni0079" unicode="y" horiz-adv-x="1117" 
d="M261 -419q-75 0 -125 23l35 115q97 -35 166.5 0t114.5 157l40 113l-411 1128h141l331 -946h11l331 946h141l-473 -1294q-90 -242 -302 -242z" />
    <glyph glyph-name="uni007A" unicode="z" horiz-adv-x="1085" 
d="M136 0v103l646 882v10h-618v122h784v-107l-634 -878v-10h658v-122h-836z" />
    <glyph glyph-name="uni007B" unicode="{" horiz-adv-x="709" 
d="M652 -303q-184 0 -262 87t-78 277v282q0 122 -47.5 170.5t-169.5 48.5v133q122 0 169.5 48t47.5 170v283q0 190 78 276.5t262 86.5v-110q-120 0 -169.5 -59.5t-49.5 -193.5v-321q0 -100 -37.5 -158t-133.5 -82v-13q96 -24 133.5 -82t37.5 -158v-321q0 -134 49.5 -193.5
t169.5 -59.5v-111z" />
    <glyph glyph-name="uni007C" unicode="|" horiz-adv-x="632" 
d="M372 1969v-2449h-112v2449h112z" />
    <glyph glyph-name="uni007D" unicode="}" horiz-adv-x="709" 
d="M57 1559q184 0 262.5 -86.5t78.5 -276.5v-283q0 -122 47.5 -170t169.5 -48v-133q-122 0 -169.5 -48.5t-47.5 -170.5v-282q0 -190 -78.5 -277t-262.5 -87v111q120 0 170 59.5t50 193.5v321q0 100 37.5 158t133.5 82v13q-96 24 -133.5 82t-37.5 158v321q0 134 -50 193.5
t-170 59.5v110z" />
    <glyph glyph-name="uni007E" unicode="~" horiz-adv-x="1334" 
d="M177 457q2 143 82 217t197 74q69 0 127 -28.5t133 -90.5q56 -45 89 -62.5t74 -17.5q67 -1 110.5 44.5t48.5 125.5l120 -3q-5 -141 -84.5 -214.5t-192.5 -73.5q-67 1 -122.5 28.5t-129.5 88.5q-55 45 -91 63.5t-81 19.5q-71 0 -114.5 -44t-45.5 -128z" />
    <glyph glyph-name="uni00A0" unicode="&#xa0;" horiz-adv-x="576" 
 />
    <glyph glyph-name="uni00A1" unicode="&#xa1;" horiz-adv-x="558" 
d="M353 -378h-147l9 1062h128zM279 1122q43 0 74 -31t31 -74t-30.5 -73.5t-74.5 -30.5q-43 0 -73.5 30.5t-30.5 73.5t30.5 74t73.5 31z" />
    <glyph glyph-name="uni00A2" unicode="&#xa2;" horiz-adv-x="1139" 
d="M551 0v169q-199 21 -318.5 179.5t-119.5 394.5q0 237 120.5 396t317.5 180v170h96v-168q153 -12 259 -106.5t127 -239.5h-131q-19 90 -87 153t-168 74v-915q98 11 167 72t89 157h130q-21 -145 -125 -241t-261 -107v-168h-96zM551 289v911q-139 -23 -223 -145.5
t-84 -306.5q0 -186 83.5 -311.5t223.5 -147.5z" />
    <glyph glyph-name="uni00A3" unicode="&#xa3;" horiz-adv-x="1291" 
d="M1103 0h-960v122h64q33 0 58 23.5t37.5 62t18 79t4.5 82.5l-6 224h-179v126h175l-10 339q-5 141 54 245.5t155 155.5t213 51q95 0 177.5 -35.5t136 -93t76.5 -134t5 -154.5l-128 35q18 113 -61.5 186.5t-199.5 73.5q-128 0 -214.5 -87.5t-85.5 -242.5l11 -339h357v-126
h-354l8 -224q7 -169 -64 -247h712v-122z" />
    <glyph glyph-name="uni00A4" unicode="&#xa4;" horiz-adv-x="1452" 
d="M722 -20q-221 0 -384 149l-136 -138l-88 92l139 142q-119 167 -119 383q0 224 126 391l-146 150l88 92l145 -147q161 139 375 139q216 0 379 -141l145 149l90 -92l-148 -151q125 -166 125 -390q0 -216 -119 -383l142 -142l-90 -92l-136 139q-163 -150 -388 -150zM722 102
q127 0 234 67.5t169 184t62 254.5q0 104 -36.5 198t-98.5 161t-148 106.5t-182 39.5q-127 0 -234 -66.5t-169.5 -183t-62.5 -255.5q0 -138 62 -254.5t169.5 -184t234.5 -67.5z" />
    <glyph glyph-name="uni00A5" unicode="&#xa5;" horiz-adv-x="1105" 
d="M185 1489l360 -736h15l360 736h151l-397 -773h280v-102h-334v-149h334v-102h-334v-363h-135v363h-334v102h334v149h-334v102h280l-397 773h151z" />
    <glyph glyph-name="uni00A6" unicode="&#xa6;" horiz-adv-x="490" 
d="M184 396h122v-675h-122v675zM306 1489v-672h-122v672h122z" />
    <glyph glyph-name="uni00A7" unicode="&#xa7;" horiz-adv-x="1114" 
d="M905 1155h-125q-2 105 -59.5 170.5t-164.5 65.5q-102 0 -160.5 -57t-58.5 -135q0 -71 49.5 -124t131.5 -101l229 -135q40 -24 67 -41.5t65.5 -50.5t62 -65t41 -78t17.5 -97q0 -86 -65 -159t-156 -90v-3q72 -55 103 -114.5t31 -132.5q0 -148 -104.5 -229.5t-259.5 -81.5
q-168 0 -275 98t-110 261h128q3 -111 73.5 -175.5t183.5 -64.5q101 0 169 51t68 141q0 73 -44.5 120.5t-141.5 104.5l-230 133q-57 33 -97.5 63t-79.5 70.5t-59 91t-20 109.5q0 88 62.5 163t157.5 90v6q-122 104 -122 240q0 134 97 222.5t247 88.5q157 0 251.5 -98.5
t97.5 -256.5zM878 507q0 70 -53 124.5t-141 105.5l-240 141q-78 22 -143 -32.5t-65 -143.5q0 -71 48 -122.5t150 -111.5l224 -131q45 -14 96 3.5t87.5 63t36.5 103.5z" />
    <glyph glyph-name="uni00A8" unicode="&#xa8;" horiz-adv-x="1256" 
d="M442 1309q-37 0 -65 28t-28 65q0 39 28 66t65 27q40 0 66.5 -26.5t26.5 -66.5q0 -37 -27 -65t-66 -28zM815 1309q-37 0 -65.5 28t-28.5 65q0 39 28 66t66 27q40 0 66.5 -26.5t26.5 -66.5q0 -37 -27 -65t-66 -28z" />
    <glyph glyph-name="uni00A9" unicode="&#xa9;" horiz-adv-x="1873" 
d="M937 -23q-208 0 -385 103t-280 280t-103 385q0 156 61 298.5t164 245t245 163.5t298 61q209 0 385.5 -103t279.5 -279.5t103 -385.5t-102.5 -385.5t-279.5 -279.5t-386 -103zM937 105q131 0 249.5 50.5t204.5 136t136 204t50 248.5q0 131 -51 249.5t-136.5 204.5
t-204 136.5t-248.5 50.5t-248 -51t-204 -137t-137 -204.5t-51 -248.5q0 -173 85.5 -320t233 -233t321.5 -86zM516 745q0 179 126.5 305.5t305.5 126.5q145 0 254.5 -87t137.5 -221h-135q-23 80 -94 130t-163 50q-126 0 -215 -89t-89 -215t89 -215t215 -89q91 0 157.5 49
t90.5 130h134q-27 -135 -132.5 -221t-249.5 -86q-179 0 -305.5 126.5t-126.5 305.5z" />
    <glyph glyph-name="uni00AA" unicode="&#xaa;" horiz-adv-x="858" 
d="M580 789q-88 -97 -216 -97q-111 0 -174.5 60.5t-63.5 161.5q1 112 83 170.5t244 58.5h122v58q-1 83 -34.5 123t-103.5 40q-78 0 -120.5 -33t-44.5 -96l-130 11q2 103 82.5 167.5t212.5 64.5q129 0 199.5 -70t71.5 -207v-314q-2 -104 24 -179h-134q-12 36 -18 81z
M575 1051h-122q-96 0 -144.5 -35.5t-48.5 -96.5q0 -54 33.5 -84t99.5 -30q49 -1 100.5 23t81.5 59v164z" />
    <glyph glyph-name="uni00AB" unicode="&#xab;" horiz-adv-x="1096" 
d="M561 160h-120l-293 436v21l293 436h120l-285 -446zM933 160h-119l-294 436v21l294 436h119l-284 -446z" />
    <glyph glyph-name="uni00AC" unicode="&#xac;" horiz-adv-x="1077" 
d="M954 806v-431h-149v301h-678v130h827z" />
    <glyph glyph-name="uni00AD" unicode="&#xad;" horiz-adv-x="928" 
d="M774 700v-123h-620v123h620z" />
    <glyph glyph-name="uni00AE" unicode="&#xae;" horiz-adv-x="1373" 
d="M687 346q-158 0 -292 78t-212 212t-78 292t78 292t212 212t292 78q118 0 225.5 -46t185.5 -124t124 -186t46 -226t-46 -226t-124 -186t-185.5 -124t-225.5 -46zM687 455q97 0 184.5 37.5t150.5 100.5t100.5 150.5t37.5 184.5t-37.5 184.5t-100.5 150.5t-150.5 100.5
t-184.5 37.5q-129 0 -238 -63t-172.5 -172t-63.5 -238t63.5 -238t172.5 -172t238 -63zM489 666v537h258q66 0 116.5 -45.5t50.5 -122.5q0 -53 -25.5 -93.5t-66.5 -62.5l114 -213h-105l-100 193h-148v-193h-94zM583 932h133q39 0 67.5 28t28.5 75q0 48 -27 71t-66 23h-136
v-197z" />
    <glyph glyph-name="uni00AF" unicode="&#xaf;" horiz-adv-x="812" 
d="M711 1457v-113h-609v113h609z" />
    <glyph glyph-name="uni00B0" unicode="&#xb0;" horiz-adv-x="930" 
d="M465 856q-134 0 -228.5 95t-94.5 229t94.5 229t228.5 95t229 -95t95 -229t-95 -229t-229 -95zM465 969q88 0 150 61.5t62 149.5t-62 149.5t-150 61.5t-149.5 -61.5t-61.5 -149.5t61.5 -149.5t149.5 -61.5z" />
    <glyph glyph-name="uni00B1" unicode="&#xb1;" horiz-adv-x="1334" 
d="M215 671v124h390v322h124v-322h391v-124h-391v-322h-124v322h-390zM215 93v124h905v-124h-905z" />
    <glyph glyph-name="uni00B2" unicode="&#xb2;" horiz-adv-x="855" 
d="M108 745v87l334 313q93 89 129 140t36 108q0 71 -54 115.5t-136 44.5q-85 0 -138 -47.5t-53 -120.5h-116q0 117 87 190.5t222 73.5q134 0 219.5 -72t85.5 -181q0 -81 -48 -151.5t-173 -187.5l-221 -208v-5h475v-99h-649z" />
    <glyph glyph-name="uni00B3" unicode="&#xb3;" horiz-adv-x="867" 
d="M434 733q-144 0 -239 71t-96 182h122q1 -67 62 -109t151 -42q95 0 155 45.5t60 115.5q0 72 -65.5 116.5t-172.5 44.5h-57v92h57q91 0 151 42t60 111q0 66 -51.5 108.5t-134.5 42.5q-84 0 -141 -42.5t-59 -111.5h-116q1 110 91.5 180t224.5 70t219 -68t85 -173
q0 -77 -51.5 -130t-132.5 -68v-6q102 -17 159.5 -75.5t57.5 -140.5q0 -109 -95.5 -182t-243.5 -73z" />
    <glyph glyph-name="uni00B4" unicode="&#xb4;" horiz-adv-x="1018" 
d="M432 1272l186 330h154l-224 -330h-116z" />
    <glyph glyph-name="uni00B5" unicode="&#xb5;" horiz-adv-x="1234" 
d="M169 -424v1541h130v-690q0 -140 88 -228t230 -88q143 0 231.5 88.5t88.5 227.5v690h130v-1117h-130v169h-8q-42 -87 -126 -135.5t-186 -48.5t-185 48.5t-126 135.5h-7v-593h-130z" />
    <glyph glyph-name="uni00B6" unicode="&#xb6;" horiz-adv-x="1196" 
d="M863 0v1367h-167v-814h-84q-232 0 -362 129.5t-130 338.5q0 207 130 337.5t362 130.5h387v-1489h-136z" />
    <glyph glyph-name="uni00B7" unicode="&#xb7;" horiz-adv-x="549" 
d="M274 547q-43 0 -74 31t-31 74t31 73.5t74 30.5q44 0 74.5 -30.5t30.5 -73.5t-31 -74t-74 -31z" />
    <glyph glyph-name="uni00B8" unicode="&#xb8;" horiz-adv-x="504" 
d="M199 6h111l-11 -58q67 -10 108.5 -53t42.5 -118q-1 -89 -70 -140.5t-199 -52.5l-4 91q155 2 155 98q0 53 -37.5 76.5t-121.5 27.5z" />
    <glyph glyph-name="uni00B9" unicode="&#xb9;" horiz-adv-x="613" 
d="M315 745v771h-7l-223 -148v121l224 149h122v-893h-116z" />
    <glyph glyph-name="uni00BA" unicode="&#xba;" horiz-adv-x="879" 
d="M105 1045v80q0 160 90.5 256.5t244.5 96.5q155 0 245 -96.5t90 -256.5v-80q0 -160 -89.5 -255.5t-244.5 -96.5q-156 0 -246 96t-90 256zM236 1125v-80q0 -110 53.5 -175t151.5 -65q97 -1 150 64.5t53 175.5v80q0 108 -53 173.5t-151 65.5q-97 0 -150.5 -65.5
t-53.5 -173.5z" />
    <glyph glyph-name="uni00BB" unicode="&#xbb;" horiz-adv-x="1100" 
d="M153 160l284 447l-284 446h120l294 -436v-21l-294 -436h-120zM531 160l284 447l-284 446h119l294 -436v-21l-294 -436h-119z" />
    <glyph glyph-name="uni00BC" unicode="&#xbc;" horiz-adv-x="1741" 
d="M1028 154v93l390 544h143v-541h112v-96h-112v-154h-112v154h-421zM263 0l1023 1489h129l-1023 -1489h-129zM273 698v669h-8l-199 -132v121l202 133h122v-791h-117zM1452 250v407h-6l-293 -404v-3h299z" />
    <glyph glyph-name="uni00BD" unicode="&#xbd;" horiz-adv-x="1850" 
d="M263 0l1023 1489h129l-1023 -1489h-129zM1172 0v85l303 274q82 75 113.5 119t31.5 92q0 61 -47.5 100t-120.5 39q-74 0 -122 -41t-48 -104h-113q0 105 79.5 172t205.5 67q123 0 200.5 -66t77.5 -165q0 -72 -43.5 -135t-157.5 -164l-190 -172v-5h425v-96h-594zM273 698
v669h-8l-199 -132v121l202 133h122v-791h-117z" />
    <glyph glyph-name="uni00BE" unicode="&#xbe;" horiz-adv-x="1909" 
d="M1196 154v93l389 544h143v-541h112v-96h-112v-154h-111v154h-421zM393 687q-132 0 -219 65t-87 165h119q0 -57 53.5 -94.5t133.5 -37.5q82 0 135 40t53 98q0 61 -58.5 99t-150.5 38h-51v85h51q81 0 134 36.5t53 95.5q0 55 -46.5 92.5t-119.5 37.5q-74 0 -123.5 -37.5
t-49.5 -95.5h-115q1 99 83 163t205 64t202 -61.5t79 -154.5q0 -67 -46.5 -113.5t-124.5 -60.5v-6q94 -15 146.5 -65.5t52.5 -123.5q0 -99 -86.5 -164t-222.5 -65zM431 0l1023 1489h129l-1023 -1489h-129zM1619 250v407h-6l-293 -404v-3h299z" />
    <glyph glyph-name="uni00BF" unicode="&#xbf;" horiz-adv-x="1018" 
d="M623 691v-39q0 -112 -26.5 -188t-70 -121.5t-122.5 -95.5q-165 -107 -165 -262q0 -116 78.5 -188.5t195.5 -72.5q115 0 196 73.5t86 203.5h137q-5 -177 -123.5 -285t-295.5 -108q-180 0 -293.5 108t-113.5 275q0 109 51 190.5t157 150.5q100 66 138.5 133.5t39.5 186.5
v39h131zM553 1129q43 0 74 -31t31 -74t-31 -74t-74 -31t-73.5 30.5t-30.5 74.5q0 43 30.5 74t73.5 31z" />
    <glyph glyph-name="uni00C0" unicode="&#xc0;" horiz-adv-x="1344" 
d="M200 0h-143l542 1489h146l542 -1489h-143l-159 449h-626zM403 571h538l-264 742h-10zM617 1644l-224 331h154l186 -331h-116z" />
    <glyph glyph-name="uni00C1" unicode="&#xc1;" horiz-adv-x="1344" 
d="M200 0h-143l542 1489h146l542 -1489h-143l-159 449h-626zM403 571h538l-264 742h-10zM612 1644l186 331h153l-223 -331h-116z" />
    <glyph glyph-name="uni00C2" unicode="&#xc2;" horiz-adv-x="1344" 
d="M200 0h-143l542 1489h146l542 -1489h-143l-159 449h-626zM403 571h538l-264 742h-10zM846 1617l-174 211l-174 -211h-126v11l245 292h110l245 -292v-11h-126z" />
    <glyph glyph-name="uni00C3" unicode="&#xc3;" horiz-adv-x="1344" 
d="M200 0h-143l542 1489h146l542 -1489h-143l-159 449h-626zM403 571h538l-264 742h-10zM427 1660l-105 6q4 96 64.5 158.5t147.5 62.5q40 0 78 -16t63 -35t60 -35t70 -16q44 0 77.5 32t37.5 79l103 -12q-5 -96 -65.5 -155t-146.5 -59q-43 0 -80.5 16t-60.5 35t-57.5 35
t-72.5 16q-46 0 -78 -32t-35 -80z" />
    <glyph glyph-name="uni00C4" unicode="&#xc4;" horiz-adv-x="1344" 
d="M200 0h-143l542 1489h146l542 -1489h-143l-159 449h-626zM403 571h538l-264 742h-10zM486 1681q-37 0 -65 28.5t-28 65.5q0 39 28 66t65 27q40 0 66.5 -26.5t26.5 -66.5q0 -38 -27 -66t-66 -28zM858 1681q-37 0 -65 28.5t-28 65.5q0 39 28 66t65 27q40 0 66.5 -26.5
t26.5 -66.5q0 -38 -27 -66t-66 -28z" />
    <glyph glyph-name="uni00C5" unicode="&#xc5;" horiz-adv-x="1344" 
d="M200 0h-143l542 1489h146l542 -1489h-143l-159 449h-626zM403 571h538l-264 742h-10zM672 1582q-81 0 -138.5 57t-57.5 138t57.5 138.5t138.5 57.5t138.5 -57.5t57.5 -138.5t-57.5 -138t-138.5 -57zM672 1667q47 0 78.5 32t31.5 78q0 47 -31.5 79t-78.5 32t-78 -32.5
t-31 -78.5q0 -47 31.5 -78.5t77.5 -31.5z" />
    <glyph glyph-name="uni00C6" unicode="&#xc6;" horiz-adv-x="2006" 
d="M57 0l734 1489h1062v-122h-728v-560h682v-123h-682v-562h743v-122h-879v449h-565l-217 -449h-150zM483 571h506v796h-120z" />
    <glyph glyph-name="uni00C7" unicode="&#xc7;" horiz-adv-x="1486" 
d="M1364 1024h-136q-31 156 -156 257t-297 101q-106 0 -199 -42t-163 -121t-110 -201t-40 -273t40 -273.5t110 -201t162.5 -120.5t199.5 -42q172 0 297 100.5t156 256.5h136q-17 -97 -63 -182t-114.5 -149.5t-162 -104.5t-200.5 -48l-8 -41q67 -10 108.5 -53t42.5 -118
q-1 -89 -70 -140.5t-199 -52.5l-4 91q155 2 155 98q0 53 -37.5 76.5t-121.5 27.5l23 114q-261 24 -421.5 229.5t-160.5 532.5q0 172 48 315.5t133 242t204 153t259 54.5q232 0 391.5 -137.5t197.5 -348.5z" />
    <glyph glyph-name="uni00C8" unicode="&#xc8;" horiz-adv-x="1215" 
d="M198 0v1489h864v-122h-728v-560h682v-123h-682v-562h742v-122h-878zM575 1644l-224 331h154l186 -331h-116z" />
    <glyph glyph-name="uni00C9" unicode="&#xc9;" horiz-adv-x="1215" 
d="M198 0v1489h864v-122h-728v-560h682v-123h-682v-562h742v-122h-878zM569 1644l187 331h153l-223 -331h-117z" />
    <glyph glyph-name="uni00CA" unicode="&#xca;" horiz-adv-x="1215" 
d="M198 0v1489h864v-122h-728v-560h682v-123h-682v-562h742v-122h-878zM804 1617l-173 211l-174 -211h-127v11l246 292h109l246 -292v-11h-127z" />
    <glyph glyph-name="uni00CB" unicode="&#xcb;" horiz-adv-x="1215" 
d="M198 0v1489h864v-122h-728v-560h682v-123h-682v-562h742v-122h-878zM444 1681q-37 0 -65 28.5t-28 65.5q0 39 28 66t65 27q40 0 66.5 -26.5t26.5 -66.5q0 -38 -27 -66t-66 -28zM817 1681q-37 0 -65 28.5t-28 65.5q0 39 28 66t65 27q40 0 66.5 -26.5t26.5 -66.5
q0 -38 -27 -66t-66 -28z" />
    <glyph glyph-name="uni00CC" unicode="&#xcc;" horiz-adv-x="531" 
d="M334 1489v-1489h-136v1489h136zM210 1644l-223 331h153l187 -331h-117z" />
    <glyph glyph-name="uni00CD" unicode="&#xcd;" horiz-adv-x="531" 
d="M334 1489v-1489h-136v1489h136zM205 1644l186 331h154l-224 -331h-116z" />
    <glyph glyph-name="uni00CE" unicode="&#xce;" horiz-adv-x="531" 
d="M334 1489v-1489h-136v1489h136zM439 1617l-174 211l-173 -211h-127v11l246 292h109l246 -292v-11h-127z" />
    <glyph glyph-name="uni00CF" unicode="&#xcf;" horiz-adv-x="531" 
d="M334 1489v-1489h-136v1489h136zM79 1681q-37 0 -65 28.5t-28 65.5q0 39 28 66t65 27q40 0 66.5 -26.5t26.5 -66.5q0 -38 -27 -66t-66 -28zM452 1681q-37 0 -65 28.5t-28 65.5q0 39 28 66t65 27q40 0 66.5 -26.5t26.5 -66.5q0 -38 -27 -66t-66 -28z" />
    <glyph glyph-name="uni00D0" unicode="&#xd0;" horiz-adv-x="1469" 
d="M634 0h-436v712h-238v105h238v672h462q319 0 498.5 -196.5t179.5 -544.5q-1 -353 -185.5 -550.5t-518.5 -197.5zM334 122h292q284 0 432.5 165t148.5 461q-1 292 -144 455.5t-411 163.5h-318v-550h237v-105h-237v-590z" />
    <glyph glyph-name="uni00D1" unicode="&#xd1;" horiz-adv-x="1555" 
d="M1358 1489v-1489h-133l-880 1247h-11v-1247h-136v1489h131l883 -1248h12v1248h134zM532 1644l-104 5q4 96 64 158.5t147 62.5q40 0 78 -16t63.5 -35t60.5 -35t70 -16q44 0 77 32t37 79l103 -11q-5 -96 -65.5 -155.5t-146.5 -59.5q-43 0 -80.5 16t-60.5 35t-57.5 35
t-72.5 16q-46 0 -78 -31.5t-35 -79.5z" />
    <glyph glyph-name="uni00D2" unicode="&#xd2;" horiz-adv-x="1549" 
d="M1419 745q0 -346 -179.5 -555.5t-464.5 -209.5q-140 0 -259.5 54.5t-204 153t-132.5 242t-48 315.5q0 229 82.5 403.5t228.5 268t333 93.5q285 0 464.5 -209.5t179.5 -555.5zM1287 745q0 147 -38.5 268t-107 201.5t-162.5 124t-204 43.5q-225 0 -368.5 -171.5
t-143.5 -465.5t143 -465.5t369 -171.5q110 0 204 43.5t162.5 124t107 201.5t38.5 268zM719 1644l-223 331h153l187 -331h-117z" />
    <glyph glyph-name="uni00D3" unicode="&#xd3;" horiz-adv-x="1549" 
d="M1419 745q0 -346 -179.5 -555.5t-464.5 -209.5q-140 0 -259.5 54.5t-204 153t-132.5 242t-48 315.5q0 229 82.5 403.5t228.5 268t333 93.5q285 0 464.5 -209.5t179.5 -555.5zM1287 745q0 147 -38.5 268t-107 201.5t-162.5 124t-204 43.5q-225 0 -368.5 -171.5
t-143.5 -465.5t143 -465.5t369 -171.5q110 0 204 43.5t162.5 124t107 201.5t38.5 268zM714 1644l186 331h154l-223 -331h-117z" />
    <glyph glyph-name="uni00D4" unicode="&#xd4;" horiz-adv-x="1549" 
d="M1419 745q0 -346 -179.5 -555.5t-464.5 -209.5q-140 0 -259.5 54.5t-204 153t-132.5 242t-48 315.5q0 229 82.5 403.5t228.5 268t333 93.5q285 0 464.5 -209.5t179.5 -555.5zM1287 745q0 147 -38.5 268t-107 201.5t-162.5 124t-204 43.5q-225 0 -368.5 -171.5
t-143.5 -465.5t143 -465.5t369 -171.5q110 0 204 43.5t162.5 124t107 201.5t38.5 268zM948 1617l-173 211l-174 -211h-127v11l246 292h109l246 -292v-11h-127z" />
    <glyph glyph-name="uni00D5" unicode="&#xd5;" horiz-adv-x="1549" 
d="M1419 745q0 -346 -179.5 -555.5t-464.5 -209.5q-140 0 -259.5 54.5t-204 153t-132.5 242t-48 315.5q0 229 82.5 403.5t228.5 268t333 93.5q285 0 464.5 -209.5t179.5 -555.5zM1287 745q0 147 -38.5 268t-107 201.5t-162.5 124t-204 43.5q-225 0 -368.5 -171.5
t-143.5 -465.5t143 -465.5t369 -171.5q110 0 204 43.5t162.5 124t107 201.5t38.5 268zM529 1660l-104 6q4 96 64 158.5t147 62.5q40 0 78 -16t63.5 -35t60.5 -35t70 -16q44 0 77.5 32t37.5 79l102 -12q-5 -96 -65.5 -155t-146.5 -59q-43 0 -80.5 16t-60.5 35t-57.5 35
t-72.5 16q-46 0 -78 -32t-35 -80z" />
    <glyph glyph-name="uni00D6" unicode="&#xd6;" horiz-adv-x="1549" 
d="M1419 745q0 -346 -179.5 -555.5t-464.5 -209.5q-140 0 -259.5 54.5t-204 153t-132.5 242t-48 315.5q0 229 82.5 403.5t228.5 268t333 93.5q285 0 464.5 -209.5t179.5 -555.5zM1287 745q0 147 -38.5 268t-107 201.5t-162.5 124t-204 43.5q-225 0 -368.5 -171.5
t-143.5 -465.5t143 -465.5t369 -171.5q110 0 204 43.5t162.5 124t107 201.5t38.5 268zM588 1681q-37 0 -65 28.5t-28 65.5q0 39 28 66t65 27q40 0 66.5 -26.5t26.5 -66.5q0 -38 -27 -66t-66 -28zM961 1681q-37 0 -65 28.5t-28 65.5q0 39 28 66t65 27q40 0 66.5 -26.5
t26.5 -66.5q0 -38 -27 -66t-66 -28z" />
    <glyph glyph-name="uni00D7" unicode="&#xd7;" horiz-adv-x="1334" 
d="M1035 129l-367 368l-368 -368l-85 85l368 368l-368 368l85 84l368 -367l367 367l85 -84l-368 -368l368 -368z" />
    <glyph glyph-name="uni00D8" unicode="&#xd8;" horiz-adv-x="1549" 
d="M303 -52l-86 59l110 163q-196 214 -196 575q0 229 82.5 403.5t228.5 268t333 93.5q209 0 368 -119l99 149l87 -59l-107 -160q197 -213 197 -576q0 -346 -179.5 -555.5t-464.5 -209.5q-213 0 -370 120zM1287 745q0 287 -141 462l-668 -999q126 -100 297 -100
q110 0 204 43.5t162.5 124t107 201.5t38.5 268zM402 284l669 998q-128 100 -296 100q-225 0 -368.5 -171.5t-143.5 -465.5q0 -287 139 -461z" />
    <glyph glyph-name="uni00D9" unicode="&#xd9;" horiz-adv-x="1524" 
d="M1191 1489h136v-986q0 -230 -157.5 -379t-407.5 -149q-165 0 -294 68.5t-199.5 188.5t-70.5 271v986h136v-976q0 -180 117.5 -295t310.5 -115t311 115t118 295v976zM707 1644l-223 331h153l186 -331h-116z" />
    <glyph glyph-name="uni00DA" unicode="&#xda;" horiz-adv-x="1524" 
d="M1191 1489h136v-986q0 -230 -157.5 -379t-407.5 -149q-165 0 -294 68.5t-199.5 188.5t-70.5 271v986h136v-976q0 -180 117.5 -295t310.5 -115t311 115t118 295v976zM702 1644l186 331h153l-223 -331h-116z" />
    <glyph glyph-name="uni00DB" unicode="&#xdb;" horiz-adv-x="1524" 
d="M1191 1489h136v-986q0 -230 -157.5 -379t-407.5 -149q-165 0 -294 68.5t-199.5 188.5t-70.5 271v986h136v-976q0 -180 117.5 -295t310.5 -115t311 115t118 295v976zM936 1617l-174 211l-174 -211h-126v11l246 292h109l246 -292v-11h-127z" />
    <glyph glyph-name="uni00DC" unicode="&#xdc;" horiz-adv-x="1524" 
d="M1191 1489h136v-986q0 -230 -157.5 -379t-407.5 -149q-165 0 -294 68.5t-199.5 188.5t-70.5 271v986h136v-976q0 -180 117.5 -295t310.5 -115t311 115t118 295v976zM576 1681q-37 0 -65 28.5t-28 65.5q0 39 28 66t65 27q40 0 66.5 -26.5t26.5 -66.5q0 -38 -27 -66
t-66 -28zM948 1681q-37 0 -65 28.5t-28 65.5q0 39 28 66t65 27q40 0 66.5 -26.5t26.5 -66.5q0 -38 -27 -66t-66 -28z" />
    <glyph glyph-name="uni00DD" unicode="&#xdd;" horiz-adv-x="1326" 
d="M58 1489h157l442 -706h13l441 706h157l-537 -844v-645h-135v645zM603 1644l186 331h154l-224 -331h-116z" />
    <glyph glyph-name="uni00DE" unicode="&#xde;" horiz-adv-x="1264" 
d="M183 1489h135v-325h311q220 0 346.5 -115.5t126.5 -297.5q0 -183 -125.5 -298t-347.5 -115h-311v-338h-135v1489zM318 460h311q165 0 253.5 75t89.5 213q-1 139 -90.5 216.5t-252.5 77.5h-311v-582z" />
    <glyph glyph-name="uni00DF" unicode="&#xdf;" horiz-adv-x="1224" 
d="M198 0v1112q0 182 113 290t296 108q180 0 293.5 -102.5t112.5 -272.5q0 -129 -67 -221t-183 -130v-12q153 -23 242.5 -120t89.5 -248q0 -179 -119 -291.5t-315 -112.5h-142v122h148q134 0 216 77.5t82 201.5q0 133 -94 215t-252 82h-95v125h70q129 0 209.5 85.5
t80.5 208.5q0 119 -75 195t-199 76q-126 1 -204 -76.5t-78 -203.5v-1108h-130z" />
    <glyph glyph-name="uni00E0" unicode="&#xe0;" horiz-adv-x="1139" 
d="M483 -25q-158 0 -262.5 90.5t-104.5 246.5q0 81 30.5 139t90.5 94t133.5 57t174.5 33q172 21 201 28q77 17 88 60q3 10 3 21v26q0 116 -68.5 181t-194.5 65q-114 0 -192 -50t-111 -128l-123 44q54 129 168 189.5t254 60.5q56 0 107.5 -9.5t105.5 -35.5t93.5 -66.5
t65 -108t25.5 -153.5v-759h-130v177h-8q-40 -84 -128.5 -143t-217.5 -59zM500 93q151 0 244 97t93 238v162q-40 -39 -292 -69q-149 -18 -224.5 -68t-75.5 -147q0 -99 71.5 -156t183.5 -57zM527 1272l-224 330h154l186 -330h-116z" />
    <glyph glyph-name="uni00E1" unicode="&#xe1;" horiz-adv-x="1139" 
d="M483 -25q-158 0 -262.5 90.5t-104.5 246.5q0 81 30.5 139t90.5 94t133.5 57t174.5 33q172 21 201 28q77 17 88 60q3 10 3 21v26q0 116 -68.5 181t-194.5 65q-114 0 -192 -50t-111 -128l-123 44q54 129 168 189.5t254 60.5q56 0 107.5 -9.5t105.5 -35.5t93.5 -66.5
t65 -108t25.5 -153.5v-759h-130v177h-8q-40 -84 -128.5 -143t-217.5 -59zM500 93q151 0 244 97t93 238v162q-40 -39 -292 -69q-149 -18 -224.5 -68t-75.5 -147q0 -99 71.5 -156t183.5 -57zM521 1272l187 330h153l-223 -330h-117z" />
    <glyph glyph-name="uni00E2" unicode="&#xe2;" horiz-adv-x="1139" 
d="M483 -25q-158 0 -262.5 90.5t-104.5 246.5q0 81 30.5 139t90.5 94t133.5 57t174.5 33q172 21 201 28q77 17 88 60q3 10 3 21v26q0 116 -68.5 181t-194.5 65q-114 0 -192 -50t-111 -128l-123 44q54 129 168 189.5t254 60.5q56 0 107.5 -9.5t105.5 -35.5t93.5 -66.5
t65 -108t25.5 -153.5v-759h-130v177h-8q-40 -84 -128.5 -143t-217.5 -59zM500 93q151 0 244 97t93 238v162q-40 -39 -292 -69q-149 -18 -224.5 -68t-75.5 -147q0 -99 71.5 -156t183.5 -57zM756 1245l-174 211l-174 -211h-127v10l246 293h109l246 -293v-10h-126z" />
    <glyph glyph-name="uni00E3" unicode="&#xe3;" horiz-adv-x="1139" 
d="M483 -25q-158 0 -262.5 90.5t-104.5 246.5q0 81 30.5 139t90.5 94t133.5 57t174.5 33q172 21 201 28q77 17 88 60q3 10 3 21v26q0 116 -68.5 181t-194.5 65q-114 0 -192 -50t-111 -128l-123 44q54 129 168 189.5t254 60.5q56 0 107.5 -9.5t105.5 -35.5t93.5 -66.5
t65 -108t25.5 -153.5v-759h-130v177h-8q-40 -84 -128.5 -143t-217.5 -59zM500 93q151 0 244 97t93 238v162q-40 -39 -292 -69q-149 -18 -224.5 -68t-75.5 -147q0 -99 71.5 -156t183.5 -57zM336 1271l-105 6q4 96 64 158t148 62q40 0 78 -16t63 -34.5t60 -34.5t70 -16
q44 0 77.5 32t37.5 79l103 -12q-5 -96 -65.5 -155t-146.5 -59q-43 0 -80.5 16t-60.5 35t-57.5 35t-72.5 16q-46 0 -78 -32t-35 -80z" />
    <glyph glyph-name="uni00E4" unicode="&#xe4;" horiz-adv-x="1139" 
d="M483 -25q-158 0 -262.5 90.5t-104.5 246.5q0 81 30.5 139t90.5 94t133.5 57t174.5 33q172 21 201 28q77 17 88 60q3 10 3 21v26q0 116 -68.5 181t-194.5 65q-114 0 -192 -50t-111 -128l-123 44q54 129 168 189.5t254 60.5q56 0 107.5 -9.5t105.5 -35.5t93.5 -66.5
t65 -108t25.5 -153.5v-759h-130v177h-8q-40 -84 -128.5 -143t-217.5 -59zM500 93q151 0 244 97t93 238v162q-40 -39 -292 -69q-149 -18 -224.5 -68t-75.5 -147q0 -99 71.5 -156t183.5 -57zM396 1309q-37 0 -65 28t-28 65q0 39 28 66t65 27q40 0 66.5 -26.5t26.5 -66.5
q0 -37 -27 -65t-66 -28zM768 1309q-37 0 -65 28t-28 65q0 39 28 66t65 27q40 0 66.5 -26.5t26.5 -66.5q0 -37 -27 -65t-66 -28z" />
    <glyph glyph-name="uni00E5" unicode="&#xe5;" horiz-adv-x="1139" 
d="M483 -25q-158 0 -262.5 90.5t-104.5 246.5q0 81 30.5 139t90.5 94t133.5 57t174.5 33q172 21 201 28q77 17 88 60q3 10 3 21v26q0 116 -68.5 181t-194.5 65q-114 0 -192 -50t-111 -128l-123 44q54 129 168 189.5t254 60.5q56 0 107.5 -9.5t105.5 -35.5t93.5 -66.5
t65 -108t25.5 -153.5v-759h-130v177h-8q-40 -84 -128.5 -143t-217.5 -59zM500 93q151 0 244 97t93 238v162q-40 -39 -292 -69q-149 -18 -224.5 -68t-75.5 -147q0 -99 71.5 -156t183.5 -57zM582 1247q-97 0 -164 63.5t-67 156.5t67.5 159.5t163.5 66.5q97 0 163.5 -66
t66.5 -160q0 -93 -66.5 -156.5t-163.5 -63.5zM582 1336q56 0 94.5 39.5t38.5 91.5q0 54 -38.5 94.5t-94.5 40.5t-94.5 -40.5t-38.5 -94.5q0 -52 38.5 -91.5t94.5 -39.5z" />
    <glyph glyph-name="uni00E6" unicode="&#xe6;" horiz-adv-x="1891" 
d="M1326 -23q-154 0 -268 71t-166 193q-41 -123 -155 -194.5t-254 -71.5q-158 0 -262.5 90.5t-104.5 246.5q0 81 30.5 139t90.5 94t133.5 57t174.5 33q172 21 201 28q77 17 88 60q3 10 3 21v26q0 115 -68.5 180.5t-194.5 65.5q-114 0 -192 -50t-111 -128l-123 44
q54 129 168 189.5t254 60.5q74 0 141 -18.5t129 -67t93 -122.5q61 99 156.5 153.5t216.5 54.5q93 0 176 -34t150 -99.5t106.5 -172.5t39.5 -242v-64h-832q5 -194 107.5 -309.5t272.5 -115.5q113 0 190 51.5t112 132.5l123 -40q-42 -112 -153.5 -187t-271.5 -75zM500 93
q151 0 244 97t93 238v162q-40 -39 -292 -69q-149 -18 -224.5 -68t-75.5 -147q0 -99 71.5 -156t183.5 -57zM948 634h699q0 163 -96 272t-245 109t-248 -110t-110 -271z" />
    <glyph glyph-name="uni00E7" unicode="&#xe7;" horiz-adv-x="1139" 
d="M647 -22l-6 -30q67 -10 108.5 -53t42.5 -118q-1 -89 -70 -140.5t-199 -52.5l-4 91q154 2 154 98q0 54 -37 77t-121 27l21 105q-194 26 -308.5 183t-114.5 388q0 253 137 416t355 163q168 0 286.5 -96t141.5 -251h-131q-22 99 -101 164.5t-194 65.5q-161 0 -262 -127
t-101 -330q0 -205 100 -334t263 -129q112 0 193 62.5t103 168.5h130q-21 -145 -125 -241t-261 -107z" />
    <glyph glyph-name="uni00E8" unicode="&#xe8;" horiz-adv-x="1189" 
d="M623 -23q-233 0 -371.5 159t-138.5 416q0 254 137 417t353 163q93 0 176.5 -34t150.5 -99.5t106.5 -172.5t39.5 -242v-64h-832q5 -194 107 -309.5t272 -115.5q113 0 190 51.5t112 132.5l123 -40q-41 -112 -153 -187t-272 -75zM244 634h699q0 163 -95.5 272t-244.5 109
t-248.5 -110t-110.5 -271zM541 1272l-223 330h153l186 -330h-116z" />
    <glyph glyph-name="uni00E9" unicode="&#xe9;" horiz-adv-x="1189" 
d="M623 -23q-233 0 -371.5 159t-138.5 416q0 254 137 417t353 163q93 0 176.5 -34t150.5 -99.5t106.5 -172.5t39.5 -242v-64h-832q5 -194 107 -309.5t272 -115.5q113 0 190 51.5t112 132.5l123 -40q-41 -112 -153 -187t-272 -75zM244 634h699q0 163 -95.5 272t-244.5 109
t-248.5 -110t-110.5 -271zM536 1272l186 330h154l-224 -330h-116z" />
    <glyph glyph-name="uni00EA" unicode="&#xea;" horiz-adv-x="1189" 
d="M623 -23q-233 0 -371.5 159t-138.5 416q0 254 137 417t353 163q93 0 176.5 -34t150.5 -99.5t106.5 -172.5t39.5 -242v-64h-832q5 -194 107 -309.5t272 -115.5q113 0 190 51.5t112 132.5l123 -40q-41 -112 -153 -187t-272 -75zM244 634h699q0 163 -95.5 272t-244.5 109
t-248.5 -110t-110.5 -271zM770 1245l-174 211l-173 -211h-127v10l246 293h109l246 -293v-10h-127z" />
    <glyph glyph-name="uni00EB" unicode="&#xeb;" horiz-adv-x="1189" 
d="M623 -23q-233 0 -371.5 159t-138.5 416q0 254 137 417t353 163q93 0 176.5 -34t150.5 -99.5t106.5 -172.5t39.5 -242v-64h-832q5 -194 107 -309.5t272 -115.5q113 0 190 51.5t112 132.5l123 -40q-41 -112 -153 -187t-272 -75zM244 634h699q0 163 -95.5 272t-244.5 109
t-248.5 -110t-110.5 -271zM410 1309q-37 0 -65 28t-28 65q0 39 28 66t65 27q40 0 66.5 -26.5t26.5 -66.5q0 -37 -27 -65t-66 -28zM783 1309q-37 0 -65.5 28t-28.5 65q0 39 28 66t66 27q40 0 66.5 -26.5t26.5 -66.5q0 -37 -27 -65t-66 -28z" />
    <glyph glyph-name="uni00EC" unicode="&#xec;" horiz-adv-x="474" 
d="M172 0v1117h131v-1117h-131zM183 1272l-223 330h153l187 -330h-117z" />
    <glyph glyph-name="uni00ED" unicode="&#xed;" horiz-adv-x="474" 
d="M172 0v1117h131v-1117h-131zM178 1272l186 330h154l-223 -330h-117z" />
    <glyph glyph-name="uni00EE" unicode="&#xee;" horiz-adv-x="474" 
d="M172 0v1117h131v-1117h-131zM412 1245l-173 211l-174 -211h-127v10l246 293h109l246 -293v-10h-127z" />
    <glyph glyph-name="uni00EF" unicode="&#xef;" horiz-adv-x="474" 
d="M172 0v1117h131v-1117h-131zM52 1309q-37 0 -65 28t-28 65q0 39 28 66t65 27q40 0 66.5 -26.5t26.5 -66.5q0 -37 -27 -65t-66 -28zM425 1309q-37 0 -65 28t-28 65q0 39 28 66t65 27q40 0 66.5 -26.5t26.5 -66.5q0 -37 -27 -65t-66 -28z" />
    <glyph glyph-name="uni00F0" unicode="&#xf0;" horiz-adv-x="1196" 
d="M971 1432l-218 -103q153 -158 241 -357t89 -424q0 -264 -133.5 -417.5t-350.5 -153.5q-215 0 -350.5 151.5t-135.5 385.5q0 233 131.5 385.5t324.5 152.5q118 0 205.5 -57.5t139.5 -148.5h13q-81 244 -278 433l-266 -126l-37 87l226 107q-99 80 -213 139l56 97
q142 -75 266 -184l253 120zM599 95q163 0 260.5 117t97.5 295q0 83 -23.5 160t-67.5 139t-113.5 99t-153.5 37q-161 0 -258 -124t-97 -304q0 -115 40 -208.5t122 -152t193 -58.5z" />
    <glyph glyph-name="uni00F1" unicode="&#xf1;" horiz-adv-x="1186" 
d="M300 698v-698h-129v1117h126v-175h11q40 88 124.5 139t204.5 51q173 0 276 -106.5t103 -301.5v-724h-129v716q0 137 -77 217t-206 80q-134 0 -219 -85.5t-85 -229.5zM349 1271l-105 6q4 96 64 158t148 62q40 0 78 -16t63 -34.5t60 -34.5t70 -16q44 0 77.5 32t37.5 79
l103 -12q-5 -96 -65.5 -155t-146.5 -59q-43 0 -80.5 16t-60.5 35t-57.5 35t-72.5 16q-46 0 -78 -32t-35 -80z" />
    <glyph glyph-name="uni00F2" unicode="&#xf2;" horiz-adv-x="1210" 
d="M605 -23q-217 0 -354.5 160.5t-137.5 415.5q0 257 137.5 418t354.5 161t354.5 -161t137.5 -418q0 -255 -137.5 -415.5t-354.5 -160.5zM605 95q112 0 195.5 63t125 165.5t41.5 229.5t-41 230.5t-125 167.5t-196 64t-195.5 -64t-124.5 -167.5t-41 -230.5t41 -229.5
t124.5 -165.5t195.5 -63zM550 1272l-223 330h153l186 -330h-116z" />
    <glyph glyph-name="uni00F3" unicode="&#xf3;" horiz-adv-x="1210" 
d="M605 -23q-217 0 -354.5 160.5t-137.5 415.5q0 257 137.5 418t354.5 161t354.5 -161t137.5 -418q0 -255 -137.5 -415.5t-354.5 -160.5zM605 95q112 0 195.5 63t125 165.5t41.5 229.5t-41 230.5t-125 167.5t-196 64t-195.5 -64t-124.5 -167.5t-41 -230.5t41 -229.5
t124.5 -165.5t195.5 -63zM545 1272l186 330h153l-223 -330h-116z" />
    <glyph glyph-name="uni00F4" unicode="&#xf4;" horiz-adv-x="1210" 
d="M605 -23q-217 0 -354.5 160.5t-137.5 415.5q0 257 137.5 418t354.5 161t354.5 -161t137.5 -418q0 -255 -137.5 -415.5t-354.5 -160.5zM605 95q112 0 195.5 63t125 165.5t41.5 229.5t-41 230.5t-125 167.5t-196 64t-195.5 -64t-124.5 -167.5t-41 -230.5t41 -229.5
t124.5 -165.5t195.5 -63zM779 1245l-174 211l-174 -211h-126v10l246 293h109l245 -293v-10h-126z" />
    <glyph glyph-name="uni00F5" unicode="&#xf5;" horiz-adv-x="1210" 
d="M605 -23q-217 0 -354.5 160.5t-137.5 415.5q0 257 137.5 418t354.5 161t354.5 -161t137.5 -418q0 -255 -137.5 -415.5t-354.5 -160.5zM605 95q112 0 195.5 63t125 165.5t41.5 229.5t-41 230.5t-125 167.5t-196 64t-195.5 -64t-124.5 -167.5t-41 -230.5t41 -229.5
t124.5 -165.5t195.5 -63zM359 1271l-104 6q4 96 64 158t147 62q40 0 78 -16t63 -34.5t60 -34.5t70 -16q44 0 77.5 32t37.5 79l103 -12q-5 -96 -65.5 -155t-146.5 -59q-43 0 -80.5 16t-60.5 35t-57.5 35t-72.5 16q-46 0 -78 -32t-35 -80z" />
    <glyph glyph-name="uni00F6" unicode="&#xf6;" horiz-adv-x="1210" 
d="M605 -23q-217 0 -354.5 160.5t-137.5 415.5q0 257 137.5 418t354.5 161t354.5 -161t137.5 -418q0 -255 -137.5 -415.5t-354.5 -160.5zM605 95q112 0 195.5 63t125 165.5t41.5 229.5t-41 230.5t-125 167.5t-196 64t-195.5 -64t-124.5 -167.5t-41 -230.5t41 -229.5
t124.5 -165.5t195.5 -63zM419 1309q-37 0 -65 28t-28 65q0 39 28 66t65 27q40 0 66.5 -26.5t26.5 -66.5q0 -37 -27 -65t-66 -28zM791 1309q-37 0 -65 28t-28 65q0 39 28 66t65 27q40 0 66.5 -26.5t26.5 -66.5q0 -37 -27 -65t-66 -28z" />
    <glyph glyph-name="uni00F7" unicode="&#xf7;" horiz-adv-x="1334" 
d="M1118 644v-124h-902v124h902zM667 116q-43 0 -74 31t-31 74q0 42 31 72.5t74 30.5t73 -30.5t30 -72.5q0 -44 -30 -74.5t-73 -30.5zM667 840q-43 0 -74 31t-31 74q0 42 31 72t74 30t73 -30t30 -72q0 -44 -30 -74.5t-73 -30.5z" />
    <glyph glyph-name="uni00F8" unicode="&#xf8;" horiz-adv-x="1210" 
d="M260 -50l-88 59l84 123q-143 162 -143 422q0 257 137.5 418t354.5 161q152 0 270 -84l76 112l87 -58l-84 -125q143 -162 143 -424q0 -255 -137.5 -416t-354.5 -161q-152 0 -270 84zM605 96q112 0 195.5 63t125 165.5t41.5 229.5q0 187 -87 314l-476 -705q88 -67 201 -67z
M329 242l478 706q-86 67 -202 67q-112 0 -195.5 -63.5t-124.5 -167t-41 -230.5q0 -188 85 -312z" />
    <glyph glyph-name="uni00F9" unicode="&#xf9;" horiz-adv-x="1181" 
d="M881 427v690h129v-1117h-129v185h-10q-41 -90 -127.5 -145t-205.5 -55q-166 0 -266.5 107t-100.5 301v724h129v-716q0 -130 76.5 -210t198.5 -80q58 0 112 21t97.5 59.5t70 100t26.5 135.5zM536 1272l-223 330h153l186 -330h-116z" />
    <glyph glyph-name="uni00FA" unicode="&#xfa;" horiz-adv-x="1181" 
d="M881 427v690h129v-1117h-129v185h-10q-41 -90 -127.5 -145t-205.5 -55q-166 0 -266.5 107t-100.5 301v724h129v-716q0 -130 76.5 -210t198.5 -80q58 0 112 21t97.5 59.5t70 100t26.5 135.5zM531 1272l186 330h154l-224 -330h-116z" />
    <glyph glyph-name="uni00FB" unicode="&#xfb;" horiz-adv-x="1181" 
d="M881 427v690h129v-1117h-129v185h-10q-41 -90 -127.5 -145t-205.5 -55q-166 0 -266.5 107t-100.5 301v724h129v-716q0 -130 76.5 -210t198.5 -80q58 0 112 21t97.5 59.5t70 100t26.5 135.5zM765 1245l-174 211l-174 -211h-126v10l246 293h109l246 -293v-10h-127z" />
    <glyph glyph-name="uni00FC" unicode="&#xfc;" horiz-adv-x="1181" 
d="M881 427v690h129v-1117h-129v185h-10q-41 -90 -127.5 -145t-205.5 -55q-166 0 -266.5 107t-100.5 301v724h129v-716q0 -130 76.5 -210t198.5 -80q58 0 112 21t97.5 59.5t70 100t26.5 135.5zM405 1309q-37 0 -65 28t-28 65q0 39 28 66t65 27q40 0 66.5 -26.5t26.5 -66.5
q0 -37 -27 -65t-66 -28zM777 1309q-37 0 -65 28t-28 65q0 39 28 66t65 27q40 0 67 -26.5t27 -66.5q0 -37 -27.5 -65t-66.5 -28z" />
    <glyph glyph-name="uni00FD" unicode="&#xfd;" horiz-adv-x="1117" 
d="M261 -419q-75 0 -125 23l35 115q97 -35 166.5 0t114.5 157l40 113l-411 1128h141l331 -946h11l331 946h141l-473 -1294q-90 -242 -302 -242zM498 1272l186 330h154l-223 -330h-117z" />
    <glyph glyph-name="uni00FE" unicode="&#xfe;" horiz-adv-x="1225" 
d="M169 1489h130v-585h12q103 228 341 228q207 0 334 -158.5t127 -417.5t-127 -419t-332 -160q-72 0 -132 20.5t-100 56.5t-66.5 73t-44.5 80h-12v-626h-130v1908zM983 558q0 200 -91 328.5t-254 128.5q-160 0 -250.5 -126t-90.5 -331q0 -207 91 -335t250 -128
q162 0 253.5 130.5t91.5 332.5z" />
    <glyph glyph-name="uni00FF" unicode="&#xff;" horiz-adv-x="1117" 
d="M261 -419q-75 0 -125 23l35 115q97 -35 166.5 0t114.5 157l40 113l-411 1128h141l331 -946h11l331 946h141l-473 -1294q-90 -242 -302 -242zM372 1309q-37 0 -65 28t-28 65q0 39 28 66t65 27q40 0 66.5 -26.5t26.5 -66.5q0 -37 -27 -65t-66 -28zM745 1309q-37 0 -65 28
t-28 65q0 39 28 66t65 27q40 0 66.5 -26.5t26.5 -66.5q0 -37 -27 -65t-66 -28z" />
    <glyph glyph-name="uni0100" unicode="&#x100;" horiz-adv-x="1344" 
d="M200 0h-143l542 1489h146l542 -1489h-143l-159 449h-626zM403 571h538l-264 742h-10zM976 1829v-113h-609v113h609z" />
    <glyph glyph-name="uni0101" unicode="&#x101;" horiz-adv-x="1139" 
d="M483 -25q-158 0 -262.5 90.5t-104.5 246.5q0 81 30.5 139t90.5 94t133.5 57t174.5 33q172 21 201 28q77 17 88 60q3 10 3 21v26q0 116 -68.5 181t-194.5 65q-114 0 -192 -50t-111 -128l-123 44q54 129 168 189.5t254 60.5q56 0 107.5 -9.5t105.5 -35.5t93.5 -66.5
t65 -108t25.5 -153.5v-759h-130v177h-8q-40 -84 -128.5 -143t-217.5 -59zM500 93q151 0 244 97t93 238v162q-40 -39 -292 -69q-149 -18 -224.5 -68t-75.5 -147q0 -99 71.5 -156t183.5 -57zM886 1457v-113h-609v113h609z" />
    <glyph glyph-name="uni0102" unicode="&#x102;" horiz-adv-x="1344" 
d="M200 0h-143l542 1489h146l542 -1489h-143l-159 449h-626zM403 571h538l-264 742h-10zM806 1862h122q0 -105 -69.5 -169.5t-186.5 -64.5q-116 0 -185 64.5t-69 169.5h122q0 -61 33 -98t99 -37q67 0 100.5 37.5t33.5 97.5z" />
    <glyph glyph-name="uni0103" unicode="&#x103;" horiz-adv-x="1139" 
d="M483 -25q-158 0 -262.5 90.5t-104.5 246.5q0 81 30.5 139t90.5 94t133.5 57t174.5 33q172 21 201 28q77 17 88 60q3 10 3 21v26q0 116 -68.5 181t-194.5 65q-114 0 -192 -50t-111 -128l-123 44q54 129 168 189.5t254 60.5q56 0 107.5 -9.5t105.5 -35.5t93.5 -66.5
t65 -108t25.5 -153.5v-759h-130v177h-8q-40 -84 -128.5 -143t-217.5 -59zM500 93q151 0 244 97t93 238v162q-40 -39 -292 -69q-149 -18 -224.5 -68t-75.5 -147q0 -99 71.5 -156t183.5 -57zM716 1489h122q0 -105 -69 -169t-187 -64q-116 0 -185 64t-69 169h122
q0 -61 32.5 -97.5t99.5 -36.5t100.5 37t33.5 97z" />
    <glyph glyph-name="uni0104" unicode="&#x104;" horiz-adv-x="1344" 
d="M200 0h-143l542 1489h146l542 -1488v-1q-81 -67 -123.5 -122.5t-42.5 -115.5q0 -88 92 -88q55 0 102 30l17 -97q-69 -46 -148 -46q-87 0 -141 48.5t-54 136.5q0 142 164 254h-9l-159 449h-626zM403 571h538l-264 742h-10z" />
    <glyph glyph-name="uni0105" unicode="&#x105;" horiz-adv-x="1139" 
d="M483 -25q-158 0 -262.5 90.5t-104.5 246.5q0 81 30.5 139t90.5 94t133.5 57t174.5 33q172 21 201 28q77 17 88 60q3 10 3 21v26q0 116 -68.5 181t-194.5 65q-114 0 -192 -50t-111 -128l-123 44q54 129 168 189.5t254 60.5q56 0 107.5 -9.5t105.5 -35.5t93.5 -66.5
t65 -108t25.5 -153.5v-758v-1q-81 -67 -123.5 -122.5t-42.5 -115.5q0 -88 92 -88q55 0 102 30l17 -97q-69 -46 -148 -46q-87 0 -141 48.5t-54 136.5q0 144 168 257v174h-8q-40 -84 -128.5 -143t-217.5 -59zM500 93q151 0 244 97t93 238v162q-40 -39 -292 -69
q-149 -18 -224.5 -68t-75.5 -147q0 -99 71.5 -156t183.5 -57z" />
    <glyph glyph-name="uni0106" unicode="&#x106;" horiz-adv-x="1486" 
d="M1364 1024h-136q-31 156 -156 257t-297 101q-106 0 -199 -42t-163 -121t-110 -201t-40 -273t40 -273.5t110 -201t162.5 -120.5t199.5 -42q172 0 297 100.5t156 256.5h136q-38 -211 -197.5 -348t-391.5 -137q-140 0 -259 54.5t-204 153t-133 242t-48 315.5t48 315.5
t133 242t204 153t259 54.5q232 0 391.5 -137.5t197.5 -348.5zM714 1644l186 331h154l-223 -331h-117z" />
    <glyph glyph-name="uni0107" unicode="&#x107;" horiz-adv-x="1139" 
d="M607 -23q-222 0 -358 161.5t-136 414.5t137 416t355 163q168 0 286.5 -96t141.5 -251h-131q-22 99 -101 164.5t-194 65.5q-161 0 -262 -127t-101 -330q0 -205 100 -334t263 -129q112 0 193 62.5t103 168.5h130q-23 -154 -138.5 -251.5t-287.5 -97.5zM539 1272l186 330
h154l-224 -330h-116z" />
    <glyph glyph-name="uni0108" unicode="&#x108;" horiz-adv-x="1486" 
d="M1364 1024h-136q-31 156 -156 257t-297 101q-106 0 -199 -42t-163 -121t-110 -201t-40 -273t40 -273.5t110 -201t162.5 -120.5t199.5 -42q172 0 297 100.5t156 256.5h136q-38 -211 -197.5 -348t-391.5 -137q-140 0 -259 54.5t-204 153t-133 242t-48 315.5t48 315.5
t133 242t204 153t259 54.5q232 0 391.5 -137.5t197.5 -348.5zM948 1617l-173 211l-174 -211h-127v11l246 292h109l246 -292v-11h-127z" />
    <glyph glyph-name="uni0109" unicode="&#x109;" horiz-adv-x="1139" 
d="M607 -23q-222 0 -358 161.5t-136 414.5t137 416t355 163q168 0 286.5 -96t141.5 -251h-131q-22 99 -101 164.5t-194 65.5q-161 0 -262 -127t-101 -330q0 -205 100 -334t263 -129q112 0 193 62.5t103 168.5h130q-23 -154 -138.5 -251.5t-287.5 -97.5zM773 1245l-174 211
l-174 -211h-126v10l246 293h109l246 -293v-10h-127z" />
    <glyph glyph-name="uni010A" unicode="&#x10a;" horiz-adv-x="1486" 
d="M1364 1024h-136q-31 156 -156 257t-297 101q-106 0 -199 -42t-163 -121t-110 -201t-40 -273t40 -273.5t110 -201t162.5 -120.5t199.5 -42q172 0 297 100.5t156 256.5h136q-38 -211 -197.5 -348t-391.5 -137q-140 0 -259 54.5t-204 153t-133 242t-48 315.5t48 315.5
t133 242t204 153t259 54.5q232 0 391.5 -137.5t197.5 -348.5zM775 1681q-40 0 -68.5 28t-28.5 66t28.5 65.5t68.5 27.5t68.5 -27.5t28.5 -65.5t-28.5 -66t-68.5 -28z" />
    <glyph glyph-name="uni010B" unicode="&#x10b;" horiz-adv-x="1139" 
d="M607 -23q-222 0 -358 161.5t-136 414.5t137 416t355 163q168 0 286.5 -96t141.5 -251h-131q-22 99 -101 164.5t-194 65.5q-161 0 -262 -127t-101 -330q0 -205 100 -334t263 -129q112 0 193 62.5t103 168.5h130q-23 -154 -138.5 -251.5t-287.5 -97.5zM599 1309
q-40 0 -68 27.5t-28 65.5t28 65.5t68 27.5t69 -27.5t29 -65.5t-29 -65.5t-69 -27.5z" />
    <glyph glyph-name="uni010C" unicode="&#x10c;" horiz-adv-x="1486" 
d="M1364 1024h-136q-31 156 -156 257t-297 101q-106 0 -199 -42t-163 -121t-110 -201t-40 -273t40 -273.5t110 -201t162.5 -120.5t199.5 -42q172 0 297 100.5t156 256.5h136q-38 -211 -197.5 -348t-391.5 -137q-140 0 -259 54.5t-204 153t-133 242t-48 315.5t48 315.5
t133 242t204 153t259 54.5q232 0 391.5 -137.5t197.5 -348.5zM601 1933l174 -211l173 211h127v-10l-246 -292h-109l-246 292v10h127z" />
    <glyph glyph-name="uni010D" unicode="&#x10d;" horiz-adv-x="1139" 
d="M607 -23q-222 0 -358 161.5t-136 414.5t137 416t355 163q168 0 286.5 -96t141.5 -251h-131q-22 99 -101 164.5t-194 65.5q-161 0 -262 -127t-101 -330q0 -205 100 -334t263 -129q112 0 193 62.5t103 168.5h130q-23 -154 -138.5 -251.5t-287.5 -97.5zM425 1561l174 -211
l174 211h127v-10l-246 -293h-109l-246 293v10h126z" />
    <glyph glyph-name="uni010E" unicode="&#x10e;" horiz-adv-x="1469" 
d="M634 0h-436v1489h462q319 0 498.5 -196.5t179.5 -544.5q-1 -353 -185.5 -550.5t-518.5 -197.5zM334 122h292q284 0 432.5 165t148.5 461q-1 292 -144 455.5t-411 163.5h-318v-1245zM448 1933l174 -211l174 211h126v-10l-246 -292h-109l-246 292v10h127z" />
    <glyph glyph-name="uni010F" unicode="&#x10f;" horiz-adv-x="1307" 
d="M573 -23q-206 0 -333 159.5t-127 419.5q0 258 127.5 417t334.5 159q241 0 341 -228h12v585h130v-1489h-126v207h-16q-104 -230 -343 -230zM588 95q160 0 251 128t91 335q0 205 -91 331t-251 126q-109 0 -188 -61t-117.5 -163.5t-38.5 -232.5q0 -202 91 -332.5t253 -130.5
zM1197 1183v376h134l-38 -376h-96z" />
    <glyph glyph-name="uni0110" unicode="&#x110;" horiz-adv-x="1469" 
d="M634 0h-436v712h-238v105h238v672h462q319 0 498.5 -196.5t179.5 -544.5q-1 -353 -185.5 -550.5t-518.5 -197.5zM334 122h292q284 0 432.5 165t148.5 461q-1 292 -144 455.5t-411 163.5h-318v-550h237v-105h-237v-590z" />
    <glyph glyph-name="uni0111" unicode="&#x111;" horiz-adv-x="1256" 
d="M573 -23q-206 0 -333 159.5t-127 419.5q0 258 127.5 417t334.5 159q241 0 341 -228h12v324h-309v104h309v157h130v-157h172v-104h-172v-1228h-126v207h-16q-104 -230 -343 -230zM588 95q160 0 251 128t91 335q0 205 -91 331t-251 126q-109 0 -188 -61t-117.5 -163.5
t-38.5 -232.5q0 -202 91 -332.5t253 -130.5z" />
    <glyph glyph-name="uni0112" unicode="&#x112;" horiz-adv-x="1215" 
d="M198 0v1489h864v-122h-728v-560h682v-123h-682v-562h742v-122h-878zM935 1829v-113h-609v113h609z" />
    <glyph glyph-name="uni0113" unicode="&#x113;" horiz-adv-x="1189" 
d="M623 -23q-233 0 -371.5 159t-138.5 416q0 254 137 417t353 163q93 0 176.5 -34t150.5 -99.5t106.5 -172.5t39.5 -242v-64h-832q5 -194 107 -309.5t272 -115.5q113 0 190 51.5t112 132.5l123 -40q-41 -112 -153 -187t-272 -75zM244 634h699q0 163 -95.5 272t-244.5 109
t-248.5 -110t-110.5 -271zM900 1457v-113h-608v113h608z" />
    <glyph glyph-name="uni0114" unicode="&#x114;" horiz-adv-x="1215" 
d="M198 0v1489h864v-122h-728v-560h682v-123h-682v-562h742v-122h-878zM764 1862h123q0 -105 -69.5 -169.5t-186.5 -64.5q-116 0 -185 64.5t-69 169.5h122q0 -61 33 -98t99 -37q67 0 100 37t33 98z" />
    <glyph glyph-name="uni0115" unicode="&#x115;" horiz-adv-x="1189" 
d="M623 -23q-233 0 -371.5 159t-138.5 416q0 254 137 417t353 163q93 0 176.5 -34t150.5 -99.5t106.5 -172.5t39.5 -242v-64h-832q5 -194 107 -309.5t272 -115.5q113 0 190 51.5t112 132.5l123 -40q-41 -112 -153 -187t-272 -75zM244 634h699q0 163 -95.5 272t-244.5 109
t-248.5 -110t-110.5 -271zM730 1489h122q0 -105 -69 -169t-187 -64q-116 0 -184.5 64t-68.5 169h122q0 -61 32.5 -97.5t98.5 -36.5q67 0 100.5 37t33.5 97z" />
    <glyph glyph-name="uni0116" unicode="&#x116;" horiz-adv-x="1215" 
d="M198 0v1489h864v-122h-728v-560h682v-123h-682v-562h742v-122h-878zM630 1681q-40 0 -68.5 28t-28.5 66t28.5 65.5t68.5 27.5t68.5 -27.5t28.5 -65.5t-28.5 -66t-68.5 -28z" />
    <glyph glyph-name="uni0117" unicode="&#x117;" horiz-adv-x="1189" 
d="M623 -23q-233 0 -371.5 159t-138.5 416q0 254 137 417t353 163q93 0 176.5 -34t150.5 -99.5t106.5 -172.5t39.5 -242v-64h-832q5 -194 107 -309.5t272 -115.5q113 0 190 51.5t112 132.5l123 -40q-41 -112 -153 -187t-272 -75zM244 634h699q0 163 -95.5 272t-244.5 109
t-248.5 -110t-110.5 -271zM596 1309q-40 0 -68 27.5t-28 65.5t28 65.5t68 27.5t69 -27.5t29 -65.5t-29 -65.5t-69 -27.5z" />
    <glyph glyph-name="uni0118" unicode="&#x118;" horiz-adv-x="1215" 
d="M198 0v1489h864v-122h-728v-560h682v-123h-682v-562h742v-122q-80 -66 -122.5 -121.5t-42.5 -116.5q0 -88 91 -88q55 0 102 30l17 -97q-69 -46 -148 -46q-87 0 -141 48.5t-54 136.5q0 142 164 254h-744z" />
    <glyph glyph-name="uni0119" unicode="&#x119;" horiz-adv-x="1189" 
d="M623 -439q-87 0 -141 48.5t-54 136.5q0 129 135 234q-207 21 -328.5 177t-121.5 395q0 254 137 417t353 163q93 0 176.5 -34t150.5 -99.5t106.5 -172.5t39.5 -242v-64h-832q5 -194 107 -309.5t272 -115.5q113 0 190 51.5t112 132.5l123 -40q-35 -96 -125 -167t-218 -89
q-70 -61 -107.5 -113t-37.5 -108q0 -88 92 -88q54 0 101 30l17 -97q-69 -46 -147 -46zM244 634h699q0 163 -95.5 272t-244.5 109t-248.5 -110t-110.5 -271z" />
    <glyph glyph-name="uni011A" unicode="&#x11a;" horiz-adv-x="1215" 
d="M198 0v1489h864v-122h-728v-560h682v-123h-682v-562h742v-122h-878zM457 1933l174 -211l173 211h127v-10l-246 -292h-109l-246 292v10h127z" />
    <glyph glyph-name="uni011B" unicode="&#x11b;" horiz-adv-x="1189" 
d="M623 -23q-233 0 -371.5 159t-138.5 416q0 254 137 417t353 163q93 0 176.5 -34t150.5 -99.5t106.5 -172.5t39.5 -242v-64h-832q5 -194 107 -309.5t272 -115.5q113 0 190 51.5t112 132.5l123 -40q-41 -112 -153 -187t-272 -75zM244 634h699q0 163 -95.5 272t-244.5 109
t-248.5 -110t-110.5 -271zM423 1561l173 -211l174 211h127v-10l-246 -293h-109l-246 293v10h127z" />
    <glyph glyph-name="uni011C" unicode="&#x11c;" horiz-adv-x="1518" 
d="M1228 1024q-43 157 -162 257.5t-295 100.5q-223 0 -365.5 -171.5t-142.5 -465.5q0 -295 143.5 -466t373.5 -171q206 0 334.5 132.5t131.5 358.5h-434v122h566v-122q0 -188 -77 -329t-212 -215.5t-309 -74.5q-293 0 -471 208.5t-178 556.5q0 347 177.5 556t462.5 209
q119 0 223.5 -39t180 -105.5t125.5 -154.5t68 -187h-140zM942 1617l-174 211l-174 -211h-126v11l245 292h110l245 -292v-11h-126z" />
    <glyph glyph-name="uni011D" unicode="&#x11d;" horiz-adv-x="1230" 
d="M597 -442q-163 0 -273.5 61t-162.5 163l106 70q98 -178 330 -178q154 0 242.5 77t88.5 228v252h-12q-18 -42 -44.5 -78t-67 -69.5t-100 -52.5t-131.5 -19q-205 0 -332.5 148t-127.5 401q0 255 127.5 413t334.5 158q239 0 344 -228h13v213h126v-1146q0 -138 -61 -232.5
t-162.5 -137.5t-237.5 -43zM588 130q161 0 251.5 115.5t90.5 318.5q0 201 -90.5 326t-251.5 125q-162 0 -253 -127t-91 -324q0 -196 90.5 -315t253.5 -119zM790 1245l-174 211l-174 -211h-126v10l245 293h110l245 -293v-10h-126z" />
    <glyph glyph-name="uni011E" unicode="&#x11e;" horiz-adv-x="1518" 
d="M1228 1024q-43 157 -162 257.5t-295 100.5q-223 0 -365.5 -171.5t-142.5 -465.5q0 -295 143.5 -466t373.5 -171q206 0 334.5 132.5t131.5 358.5h-434v122h566v-122q0 -188 -77 -329t-212 -215.5t-309 -74.5q-293 0 -471 208.5t-178 556.5q0 347 177.5 556t462.5 209
q119 0 223.5 -39t180 -105.5t125.5 -154.5t68 -187h-140zM902 1862h122q0 -105 -69.5 -169.5t-186.5 -64.5q-116 0 -185 64.5t-69 169.5h122q0 -61 33 -98t99 -37q67 0 100.5 37.5t33.5 97.5z" />
    <glyph glyph-name="uni011F" unicode="&#x11f;" horiz-adv-x="1230" 
d="M597 -442q-163 0 -273.5 61t-162.5 163l106 70q98 -178 330 -178q154 0 242.5 77t88.5 228v252h-12q-18 -42 -44.5 -78t-67 -69.5t-100 -52.5t-131.5 -19q-205 0 -332.5 148t-127.5 401q0 255 127.5 413t334.5 158q239 0 344 -228h13v213h126v-1146q0 -138 -61 -232.5
t-162.5 -137.5t-237.5 -43zM588 130q161 0 251.5 115.5t90.5 318.5q0 201 -90.5 326t-251.5 125q-162 0 -253 -127t-91 -324q0 -196 90.5 -315t253.5 -119zM750 1489h122q0 -105 -69 -169t-187 -64q-116 0 -185 64t-69 169h122q0 -61 32.5 -97.5t99.5 -36.5t100.5 37
t33.5 97z" />
    <glyph glyph-name="uni0120" unicode="&#x120;" horiz-adv-x="1518" 
d="M1228 1024q-43 157 -162 257.5t-295 100.5q-223 0 -365.5 -171.5t-142.5 -465.5q0 -295 143.5 -466t373.5 -171q206 0 334.5 132.5t131.5 358.5h-434v122h566v-122q0 -188 -77 -329t-212 -215.5t-309 -74.5q-293 0 -471 208.5t-178 556.5q0 347 177.5 556t462.5 209
q119 0 223.5 -39t180 -105.5t125.5 -154.5t68 -187h-140zM768 1681q-40 0 -68.5 28t-28.5 66t28.5 65.5t68.5 27.5t68.5 -27.5t28.5 -65.5t-28.5 -66t-68.5 -28z" />
    <glyph glyph-name="uni0121" unicode="&#x121;" horiz-adv-x="1230" 
d="M597 -442q-163 0 -273.5 61t-162.5 163l106 70q98 -178 330 -178q154 0 242.5 77t88.5 228v252h-12q-18 -42 -44.5 -78t-67 -69.5t-100 -52.5t-131.5 -19q-205 0 -332.5 148t-127.5 401q0 255 127.5 413t334.5 158q239 0 344 -228h13v213h126v-1146q0 -138 -61 -232.5
t-162.5 -137.5t-237.5 -43zM588 130q161 0 251.5 115.5t90.5 318.5q0 201 -90.5 326t-251.5 125q-162 0 -253 -127t-91 -324q0 -196 90.5 -315t253.5 -119zM615 1309q-40 0 -68 27.5t-28 65.5t28 65.5t68 27.5t69 -27.5t29 -65.5t-29 -65.5t-69 -27.5z" />
    <glyph glyph-name="uni0122" unicode="&#x122;" horiz-adv-x="1518" 
d="M1228 1024q-43 157 -162 257.5t-295 100.5q-223 0 -365.5 -171.5t-142.5 -465.5q0 -295 143.5 -466t373.5 -171q206 0 334.5 132.5t131.5 358.5h-434v122h566v-122q0 -188 -77 -329t-212 -215.5t-309 -74.5q-293 0 -471 208.5t-178 556.5q0 347 177.5 556t462.5 209
q119 0 223.5 -39t180 -105.5t125.5 -154.5t68 -187h-140zM611 -495l86 377h135l-119 -377h-102z" />
    <glyph glyph-name="uni0123" unicode="&#x123;" horiz-adv-x="1230" 
d="M597 -442q-163 0 -273.5 61t-162.5 163l106 70q98 -178 330 -178q154 0 242.5 77t88.5 228v252h-12q-18 -42 -44.5 -78t-67 -69.5t-100 -52.5t-131.5 -19q-205 0 -332.5 148t-127.5 401q0 255 127.5 413t334.5 158q239 0 344 -228h13v213h126v-1146q0 -138 -61 -232.5
t-162.5 -137.5t-237.5 -43zM588 130q161 0 251.5 115.5t90.5 318.5q0 201 -90.5 326t-251.5 125q-162 0 -253 -127t-91 -324q0 -196 90.5 -315t253.5 -119zM537 1263v98q0 91 40 173t104 142l83 -70q-44 -65 -60.5 -121t-16.5 -132v-90h-150z" />
    <glyph glyph-name="uni0124" unicode="&#x124;" horiz-adv-x="1512" 
d="M198 0v1489h136v-682h845v682h136v-1489h-136v684h-845v-684h-136zM935 1620l-174 211l-173 -211h-127v10l246 292h109l246 -292v-10h-127z" />
    <glyph glyph-name="uni0125" unicode="&#x125;" horiz-adv-x="1194" 
d="M300 698v-698h-129v1489h129v-547h12q40 90 124 140t207 50q174 0 277.5 -106.5t103.5 -301.5v-724h-130v716q0 137 -77 217t-207 80q-137 0 -223.5 -85.5t-86.5 -229.5zM410 1617l-174 211l-173 -211h-127v11l246 292h109l246 -292v-11h-127z" />
    <glyph glyph-name="uni0126" unicode="&#x126;" horiz-adv-x="1568" 
d="M1461 1143v-116h-117v-1027h-136v684h-845v-684h-136v1027h-119v116h119v346h136v-346h845v346h136v-346h117zM1208 1027h-845v-220h845v220z" />
    <glyph glyph-name="uni0127" unicode="&#x127;" horiz-adv-x="1194" 
d="M300 698v-698h-129v1257h-240v105h240v127h129v-127h242v-105h-242v-315h12q40 90 124 140t207 50q174 0 277.5 -106.5t103.5 -301.5v-724h-130v716q0 137 -77 217t-207 80q-137 0 -223.5 -85.5t-86.5 -229.5z" />
    <glyph glyph-name="uni0128" unicode="&#x128;" horiz-adv-x="843" 
d="M490 1489v-1489h-136v1489h136zM176 1644l-105 5q4 96 64.5 158.5t147.5 62.5q40 0 78 -16t63 -35t60 -35t70 -16q44 0 77.5 32t37.5 79l103 -11q-5 -96 -65.5 -155.5t-146.5 -59.5q-43 0 -80.5 16t-60.5 35t-57.5 35t-72.5 16q-46 0 -78 -31.5t-35 -79.5z" />
    <glyph glyph-name="uni0129" unicode="&#x129;" horiz-adv-x="531" 
d="M201 0v1117h131v-1117h-131zM22 1271l-105 6q4 96 64 158t148 62q40 0 78 -16t63 -34.5t60 -34.5t70 -16q44 0 77.5 32t37.5 79l102 -12q-5 -96 -65 -155t-146 -59q-43 0 -80.5 16t-60.5 35t-57.5 35t-72.5 16q-46 0 -78 -32t-35 -80z" />
    <glyph glyph-name="uni012A" unicode="&#x12a;" horiz-adv-x="531" 
d="M334 1489v-1489h-136v1489h136zM570 1829v-113h-609v113h609z" />
    <glyph glyph-name="uni012B" unicode="&#x12b;" horiz-adv-x="474" 
d="M172 0v1117h131v-1117h-131zM543 1457v-113h-609v113h609z" />
    <glyph glyph-name="uni012C" unicode="&#x12c;" horiz-adv-x="531" 
d="M334 1489v-1489h-136v1489h136zM399 1862h122q0 -105 -69.5 -169.5t-186.5 -64.5q-116 0 -184.5 64.5t-68.5 169.5h122q0 -61 32.5 -98t98.5 -37q67 0 100.5 37.5t33.5 97.5z" />
    <glyph glyph-name="uni012D" unicode="&#x12d;" horiz-adv-x="474" 
d="M172 0v1117h131v-1117h-131zM372 1489h123q0 -105 -69 -169t-187 -64q-116 0 -185 64t-69 169h122q0 -61 32.5 -97.5t99.5 -36.5t100 37t33 97z" />
    <glyph glyph-name="uni012E" unicode="&#x12e;" horiz-adv-x="531" 
d="M334 1489v-1489q-81 -67 -123.5 -122.5t-42.5 -115.5q0 -88 92 -88q54 0 101 30l17 -97q-69 -46 -147 -46q-87 0 -141 48.5t-54 136.5q0 143 163 254h-1v1489h136z" />
    <glyph glyph-name="uni012F" unicode="&#x12f;" horiz-adv-x="457" 
d="M204 -439q-87 0 -141 48.5t-54 136.5q0 144 168 257v1114h131v-1117q-81 -67 -123.5 -122.5t-42.5 -115.5q0 -88 91 -88q55 0 102 30l17 -97q-69 -46 -148 -46zM231 1309q-40 0 -68.5 27.5t-28.5 65.5t28.5 65.5t68.5 27.5t68.5 -27.5t28.5 -65.5t-28.5 -65.5
t-68.5 -27.5z" />
    <glyph glyph-name="uni0130" unicode="&#x130;" horiz-adv-x="531" 
d="M334 1489v-1489h-136v1489h136zM265 1681q-40 0 -68 28t-28 66t28 65.5t68 27.5t69 -27.5t29 -65.5t-29 -66t-69 -28z" />
    <glyph glyph-name="uni0131" unicode="&#x131;" horiz-adv-x="474" 
d="M172 0v1117h131v-1117h-131z" />
    <glyph glyph-name="uni0132" unicode="&#x132;" horiz-adv-x="1626" 
d="M1294 1489h136v-1074q-1 -212 -111 -323.5t-293 -111.5q-176 0 -289 95.5t-112 250.5h134q-1 -99 75 -161.5t192 -62.5q123 0 195 78t73 235v1074zM334 1489v-1489h-136v1489h136z" />
    <glyph glyph-name="uni0133" unicode="&#x133;" horiz-adv-x="950" 
d="M647 1117h130v-1225q0 -144 -78.5 -227.5t-219.5 -83.5q-19 0 -31 1l1 121h28q80 0 125 50t45 139v1225zM172 0v1117h131v-1117h-131zM239 1309q-40 0 -68.5 27.5t-28.5 65.5t28.5 65.5t68.5 27.5t68.5 -27.5t28.5 -65.5t-28.5 -65.5t-68.5 -27.5zM711 1309
q-40 0 -68 27.5t-28 65.5t28 65.5t68 27.5t69 -27.5t29 -65.5t-29 -65.5t-69 -27.5z" />
    <glyph glyph-name="uni0134" unicode="&#x134;" horiz-adv-x="1096" 
d="M762 1489h136v-1074q-1 -213 -110.5 -324t-292.5 -111q-176 0 -289.5 95.5t-112.5 250.5h134q-1 -99 75.5 -161.5t192.5 -62.5q123 0 194.5 78t72.5 235v1074zM1004 1617l-174 211l-174 -211h-127v11l246 292h109l246 -292v-11h-126z" />
    <glyph glyph-name="uni0135" unicode="&#x135;" horiz-adv-x="474" 
d="M172 1117h131v-1225q0 -144 -79 -227.5t-220 -83.5q-19 0 -31 1l2 121h27q80 0 125 50t45 139v1225zM410 1245l-174 211l-173 -211h-127v10l246 293h109l246 -293v-10h-127z" />
    <glyph glyph-name="uni0136" unicode="&#x136;" horiz-adv-x="1311" 
d="M198 0v1489h136v-802h13l727 802h179l-636 -688l633 -801h-166l-552 706l-198 -222v-484h-136zM503 -495l86 377h135l-120 -377h-101z" />
    <glyph glyph-name="uni0137" unicode="&#x137;" horiz-adv-x="1075" 
d="M171 0v1489h129v-898h16l524 526h164l-478 -478l507 -639h-166l-438 553l-129 -120v-433h-129zM409 -495l86 377h135l-119 -377h-102z" />
    <glyph glyph-name="uni0138" unicode="&#x138;" horiz-adv-x="1244" 
d="M329 1117v-488h105l441 488h182l-505 -561l508 -556h-191l-458 499l-82 1v-500h-149v1117h149z" />
    <glyph glyph-name="uni0139" unicode="&#x139;" horiz-adv-x="1152" 
d="M198 0v1489h136v-1367h710v-122h-846zM205 1644l186 331h154l-224 -331h-116z" />
    <glyph glyph-name="uni013A" unicode="&#x13a;" horiz-adv-x="471" 
d="M300 1489v-1489h-129v1489h129zM174 1644l186 331h153l-223 -331h-116z" />
    <glyph glyph-name="uni013B" unicode="&#x13b;" horiz-adv-x="1152" 
d="M198 0v1489h136v-1367h710v-122h-846zM465 -495l87 377h135l-120 -377h-102z" />
    <glyph glyph-name="uni013C" unicode="&#x13c;" horiz-adv-x="471" 
d="M300 1489v-1489h-129v1489h129zM81 -495l86 377h135l-119 -377h-102z" />
    <glyph glyph-name="uni013D" unicode="&#x13d;" horiz-adv-x="1148" 
d="M198 0v1489h136v-1367h710v-122h-846zM608 1183v376h134l-38 -376h-96z" />
    <glyph glyph-name="uni013E" unicode="&#x13e;" horiz-adv-x="563" 
d="M300 1489v-1489h-129v1489h129zM441 1183v376h134l-38 -376h-96z" />
    <glyph glyph-name="uni013F" unicode="&#x13f;" horiz-adv-x="1140" 
d="M196 0v1489h136v-1367h709v-122h-845zM690 724q-40 0 -68.5 27.5t-28.5 65.5t28.5 66t68.5 28t69 -28t29 -66t-29 -65.5t-69 -27.5z" />
    <glyph glyph-name="uni0140" unicode="&#x140;" horiz-adv-x="580" 
d="M297 1489v-1489h-129v1489h129zM490 725q-40 0 -68.5 27.5t-28.5 65.5t28.5 65.5t68.5 27.5t69 -27.5t29 -65.5t-29 -65.5t-69 -27.5z" />
    <glyph glyph-name="uni0141" unicode="&#x141;" horiz-adv-x="1136" 
d="M591 908v-104l-278 -92v-590h710v-122h-846v667l-148 -49v104l148 49v718h136v-673z" />
    <glyph glyph-name="uni0142" unicode="&#x142;" horiz-adv-x="458" 
d="M459 913v-103l-165 -67v-743h-130v692l-165 -67v102l165 67v695h130v-643z" />
    <glyph glyph-name="uni0143" unicode="&#x143;" horiz-adv-x="1555" 
d="M1358 1489v-1489h-133l-880 1247h-11v-1247h-136v1489h131l883 -1248h12v1248h134zM717 1644l186 331h154l-224 -331h-116z" />
    <glyph glyph-name="uni0144" unicode="&#x144;" horiz-adv-x="1186" 
d="M300 698v-698h-129v1117h126v-175h11q40 88 124.5 139t204.5 51q173 0 276 -106.5t103 -301.5v-724h-129v716q0 137 -77 217t-206 80q-134 0 -219 -85.5t-85 -229.5zM534 1272l186 330h153l-223 -330h-116z" />
    <glyph glyph-name="uni0145" unicode="&#x145;" horiz-adv-x="1555" 
d="M1358 1489v-1489h-133l-880 1247h-11v-1247h-136v1489h131l883 -1248h12v1248h134zM623 -495l86 377h135l-120 -377h-101z" />
    <glyph glyph-name="uni0146" unicode="&#x146;" horiz-adv-x="1186" 
d="M300 698v-698h-129v1117h126v-175h11q40 88 124.5 139t204.5 51q173 0 276 -106.5t103 -301.5v-724h-129v716q0 137 -77 217t-206 80q-134 0 -219 -85.5t-85 -229.5zM439 -495l86 377h135l-120 -377h-101z" />
    <glyph glyph-name="uni0147" unicode="&#x147;" horiz-adv-x="1555" 
d="M1358 1489v-1489h-133l-880 1247h-11v-1247h-136v1489h131l883 -1248h12v1248h134zM604 1933l173 -211l174 211h127v-10l-246 -292h-109l-246 292v10h127z" />
    <glyph glyph-name="uni0148" unicode="&#x148;" horiz-adv-x="1186" 
d="M300 698v-698h-129v1117h126v-175h11q40 88 124.5 139t204.5 51q173 0 276 -106.5t103 -301.5v-724h-129v716q0 137 -77 217t-206 80q-134 0 -219 -85.5t-85 -229.5zM420 1561l174 -211l174 211h127v-10l-246 -293h-109l-246 293v10h126z" />
    <glyph glyph-name="uni014A" unicode="&#x14a;" horiz-adv-x="1555" 
d="M1225 0l-880 1247h-11v-1247h-136v1489h131l883 -1248h12v1248h134v-1625q0 -132 -73.5 -207t-190.5 -75q-59 0 -85 8v114q30 -6 54 -6q162 0 162 168v134z" />
    <glyph glyph-name="uni014B" unicode="&#x14b;" horiz-adv-x="1167" 
d="M300 698v-698h-129v1117h126v-175h11q40 88 124.5 139t204.5 51q173 0 276 -106.5t103 -301.5v-861q0 -133 -72 -207.5t-188 -74.5q-64 0 -90 10v112q32 -8 61 -8q160 0 160 168v853q0 137 -77 217t-206 80q-134 0 -219 -85.5t-85 -229.5z" />
    <glyph glyph-name="uni014C" unicode="&#x14c;" horiz-adv-x="1549" 
d="M1419 745q0 -346 -179.5 -555.5t-464.5 -209.5q-140 0 -259.5 54.5t-204 153t-132.5 242t-48 315.5q0 229 82.5 403.5t228.5 268t333 93.5q285 0 464.5 -209.5t179.5 -555.5zM1287 745q0 147 -38.5 268t-107 201.5t-162.5 124t-204 43.5q-225 0 -368.5 -171.5
t-143.5 -465.5t143 -465.5t369 -171.5q110 0 204 43.5t162.5 124t107 201.5t38.5 268zM1079 1829v-113h-608v113h608z" />
    <glyph glyph-name="uni014D" unicode="&#x14d;" horiz-adv-x="1210" 
d="M605 -23q-217 0 -354.5 160.5t-137.5 415.5q0 257 137.5 418t354.5 161t354.5 -161t137.5 -418q0 -255 -137.5 -415.5t-354.5 -160.5zM605 95q112 0 195.5 63t125 165.5t41.5 229.5t-41 230.5t-125 167.5t-196 64t-195.5 -64t-124.5 -167.5t-41 -230.5t41 -229.5
t124.5 -165.5t195.5 -63zM909 1457v-113h-609v113h609z" />
    <glyph glyph-name="uni014E" unicode="&#x14e;" horiz-adv-x="1549" 
d="M1419 745q0 -346 -179.5 -555.5t-464.5 -209.5q-140 0 -259.5 54.5t-204 153t-132.5 242t-48 315.5q0 229 82.5 403.5t228.5 268t333 93.5q285 0 464.5 -209.5t179.5 -555.5zM1287 745q0 147 -38.5 268t-107 201.5t-162.5 124t-204 43.5q-225 0 -368.5 -171.5
t-143.5 -465.5t143 -465.5t369 -171.5q110 0 204 43.5t162.5 124t107 201.5t38.5 268zM908 1862h123q0 -105 -69.5 -169.5t-186.5 -64.5q-116 0 -185 64.5t-69 169.5h122q0 -61 33 -98t99 -37q67 0 100 37t33 98z" />
    <glyph glyph-name="uni014F" unicode="&#x14f;" horiz-adv-x="1210" 
d="M605 -23q-217 0 -354.5 160.5t-137.5 415.5q0 257 137.5 418t354.5 161t354.5 -161t137.5 -418q0 -255 -137.5 -415.5t-354.5 -160.5zM605 95q112 0 195.5 63t125 165.5t41.5 229.5t-41 230.5t-125 167.5t-196 64t-195.5 -64t-124.5 -167.5t-41 -230.5t41 -229.5
t124.5 -165.5t195.5 -63zM739 1489h122q0 -105 -69 -169t-187 -64q-116 0 -185 64t-69 169h122q0 -61 32.5 -97.5t99.5 -36.5t100.5 37t33.5 97z" />
    <glyph glyph-name="uni0150" unicode="&#x150;" horiz-adv-x="1549" 
d="M1419 745q0 -346 -179.5 -555.5t-464.5 -209.5q-140 0 -259.5 54.5t-204 153t-132.5 242t-48 315.5q0 229 82.5 403.5t228.5 268t333 93.5q285 0 464.5 -209.5t179.5 -555.5zM1287 745q0 147 -38.5 268t-107 201.5t-162.5 124t-204 43.5q-225 0 -368.5 -171.5
t-143.5 -465.5t143 -465.5t369 -171.5q110 0 204 43.5t162.5 124t107 201.5t38.5 268zM816 1609l236 311h148l-268 -311h-116zM545 1609l176 311h146l-215 -311h-107z" />
    <glyph glyph-name="uni0151" unicode="&#x151;" horiz-adv-x="1210" 
d="M605 -23q-217 0 -354.5 160.5t-137.5 415.5q0 257 137.5 418t354.5 161t354.5 -161t137.5 -418q0 -255 -137.5 -415.5t-354.5 -160.5zM605 95q112 0 195.5 63t125 165.5t41.5 229.5t-41 230.5t-125 167.5t-196 64t-195.5 -64t-124.5 -167.5t-41 -230.5t41 -229.5
t124.5 -165.5t195.5 -63zM647 1237l236 311h148l-268 -311h-116zM375 1237l177 311h145l-215 -311h-107z" />
    <glyph glyph-name="uni0152" unicode="&#x152;" horiz-adv-x="1930" 
d="M775 0q-190 0 -336.5 93t-227 262.5t-80.5 389.5q0 221 80.5 390.5t227 261.5t336.5 92h1002v-122h-728v-560h683v-123h-683v-562h743v-122h-1017zM913 122v1245h-138q-229 1 -370.5 -170.5t-141.5 -451.5q0 -278 141.5 -450.5t370.5 -172.5h138z" />
    <glyph glyph-name="uni0153" unicode="&#x153;" horiz-adv-x="2037" 
d="M604 -23q-217 0 -354 160.5t-137 415.5q0 257 137 418t354 161q142 0 254 -72.5t174 -201.5q62 129 172.5 201.5t251.5 72.5q93 0 176.5 -34t150.5 -99.5t106.5 -172.5t39.5 -242v-64h-832q5 -194 107 -309.5t272 -115.5q113 0 190 51.5t112 132.5l123 -40
q-41 -112 -153 -187t-272 -75q-153 0 -268 71.5t-177 200.5q-61 -128 -173 -200t-254 -72zM604 95q112 0 195.5 63t125 165.5t41.5 229.5t-41 230.5t-125 167.5t-196 64t-195.5 -64t-124.5 -167.5t-41 -230.5t41 -229.5t124.5 -165.5t195.5 -63zM1097 634h699
q0 163 -95.5 272t-244.5 109t-248.5 -110t-110.5 -271z" />
    <glyph glyph-name="uni0154" unicode="&#x154;" horiz-adv-x="1292" 
d="M198 0v1489h481q231 0 355.5 -122t124.5 -323q0 -151 -72.5 -259.5t-209.5 -153.5l344 -631h-157l-327 604q-36 -2 -56 -2h-347v-602h-136zM334 727h343q171 0 259.5 84t88.5 233q0 151 -88.5 237t-261.5 86h-341v-640zM578 1644l186 331h154l-223 -331h-117z" />
    <glyph glyph-name="uni0155" unicode="&#x155;" horiz-adv-x="730" 
d="M171 0v1117h126v-172h9q34 85 117.5 137t188.5 52q34 0 68 -2v-132q-3 0 -16.5 2t-30 3.5t-31.5 1.5q-131 0 -216.5 -81t-85.5 -205v-721h-129zM363 1272l186 330h154l-224 -330h-116z" />
    <glyph glyph-name="uni0156" unicode="&#x156;" horiz-adv-x="1292" 
d="M198 0v1489h481q231 0 355.5 -122t124.5 -323q0 -151 -72.5 -259.5t-209.5 -153.5l344 -631h-157l-327 604q-36 -2 -56 -2h-347v-602h-136zM334 727h343q171 0 259.5 84t88.5 233q0 151 -88.5 237t-261.5 86h-341v-640zM508 -495l87 377h134l-119 -377h-102z" />
    <glyph glyph-name="uni0157" unicode="&#x157;" horiz-adv-x="730" 
d="M171 0v1117h126v-172h9q34 85 117.5 137t188.5 52q34 0 68 -2v-132q-3 0 -16.5 2t-30 3.5t-31.5 1.5q-131 0 -216.5 -81t-85.5 -205v-721h-129zM80 -495l87 377h134l-119 -377h-102z" />
    <glyph glyph-name="uni0158" unicode="&#x158;" horiz-adv-x="1292" 
d="M198 0v1489h481q231 0 355.5 -122t124.5 -323q0 -151 -72.5 -259.5t-209.5 -153.5l344 -631h-157l-327 604q-36 -2 -56 -2h-347v-602h-136zM334 727h343q171 0 259.5 84t88.5 233q0 151 -88.5 237t-261.5 86h-341v-640zM465 1933l174 -211l174 211h127v-10l-246 -292
h-109l-246 292v10h126z" />
    <glyph glyph-name="uni0159" unicode="&#x159;" horiz-adv-x="730" 
d="M171 0v1117h126v-172h9q34 85 117.5 137t188.5 52q34 0 68 -2v-132q-3 0 -16.5 2t-30 3.5t-31.5 1.5q-131 0 -216.5 -81t-85.5 -205v-721h-129zM250 1561l174 -211l174 211h126v-10l-245 -293h-110l-245 293v10h126z" />
    <glyph glyph-name="uni015A" unicode="&#x15a;" horiz-adv-x="1288" 
d="M1007 1117q-13 124 -110 197.5t-245 73.5q-155 0 -253.5 -78t-98.5 -199q0 -187 297 -271l157 -45q64 -18 115.5 -38t108 -54t94.5 -75t62.5 -101t24.5 -131q0 -184 -140 -302.5t-377 -118.5q-225 0 -362.5 109t-149.5 288h140q11 -129 114 -201t258 -72q169 0 277 83
t108 216q0 106 -78.5 168t-232.5 107l-179 52q-368 109 -368 380q0 178 139 292t347 114q206 0 340.5 -111.5t142.5 -282.5h-131zM583 1644l186 331h154l-223 -331h-117z" />
    <glyph glyph-name="uni015B" unicode="&#x15b;" horiz-adv-x="1050" 
d="M921 872l-118 -33q-63 179 -260 179q-113 0 -186 -54t-73 -139q0 -72 49 -116t155 -71l169 -42q280 -69 280 -294q0 -143 -115 -234t-299 -91q-165 0 -271 74t-135 213l124 31q23 -99 94 -150.5t186 -51.5q127 0 205 57.5t78 145.5q0 139 -182 182l-183 43
q-285 69 -285 299q0 137 109.5 224.5t279.5 87.5q289 0 378 -260zM481 1272l186 330h153l-223 -330h-116z" />
    <glyph glyph-name="uni015C" unicode="&#x15c;" horiz-adv-x="1288" 
d="M1007 1117q-13 124 -110 197.5t-245 73.5q-155 0 -253.5 -78t-98.5 -199q0 -187 297 -271l157 -45q64 -18 115.5 -38t108 -54t94.5 -75t62.5 -101t24.5 -131q0 -184 -140 -302.5t-377 -118.5q-225 0 -362.5 109t-149.5 288h140q11 -129 114 -201t258 -72q169 0 277 83
t108 216q0 106 -78.5 168t-232.5 107l-179 52q-368 109 -368 380q0 178 139 292t347 114q206 0 340.5 -111.5t142.5 -282.5h-131zM817 1617l-173 211l-174 -211h-127v11l246 292h109l246 -292v-11h-127z" />
    <glyph glyph-name="uni015D" unicode="&#x15d;" horiz-adv-x="1050" 
d="M921 872l-118 -33q-63 179 -260 179q-113 0 -186 -54t-73 -139q0 -72 49 -116t155 -71l169 -42q280 -69 280 -294q0 -143 -115 -234t-299 -91q-165 0 -271 74t-135 213l124 31q23 -99 94 -150.5t186 -51.5q127 0 205 57.5t78 145.5q0 139 -182 182l-183 43
q-285 69 -285 299q0 137 109.5 224.5t279.5 87.5q289 0 378 -260zM715 1245l-174 211l-174 -211h-126v10l246 293h109l245 -293v-10h-126z" />
    <glyph glyph-name="uni015E" unicode="&#x15e;" horiz-adv-x="1288" 
d="M1007 1117q-13 124 -110 197.5t-245 73.5q-155 0 -253.5 -78t-98.5 -199q0 -187 297 -271l157 -45q64 -18 115.5 -38t108 -54t94.5 -75t62.5 -101t24.5 -131q0 -173 -125.5 -290t-341.5 -130l-5 -28q67 -11 109 -53.5t43 -117.5q-1 -89 -70.5 -140.5t-199.5 -52.5l-4 91
q155 2 155 98q0 53 -37.5 76.5t-121.5 27.5l21 100q-200 15 -320.5 121.5t-131.5 273.5h140q11 -129 114 -201t258 -72q169 0 277 83t108 216q0 106 -78.5 168t-232.5 107l-179 52q-368 109 -368 380q0 178 139 292t347 114q206 0 340.5 -111.5t142.5 -282.5h-131z" />
    <glyph glyph-name="uni015F" unicode="&#x15f;" horiz-adv-x="1050" 
d="M921 872l-118 -33q-63 179 -260 179q-113 0 -186 -54t-73 -139q0 -72 49 -116t155 -71l169 -42q280 -69 280 -294q0 -131 -98 -219.5t-259 -102.5l-5 -32q67 -10 108.5 -53t42.5 -118q-1 -89 -70 -140.5t-199 -52.5l-5 91q155 2 155 98q0 54 -37 77t-121 27l20 102
q-143 11 -234 84.5t-118 200.5l124 31q23 -99 94 -150.5t186 -51.5q127 0 205 57.5t78 145.5q0 139 -182 182l-183 43q-285 69 -285 299q0 137 109.5 224.5t279.5 87.5q289 0 378 -260z" />
    <glyph glyph-name="uni0160" unicode="&#x160;" horiz-adv-x="1288" 
d="M1007 1117q-13 124 -110 197.5t-245 73.5q-155 0 -253.5 -78t-98.5 -199q0 -187 297 -271l157 -45q64 -18 115.5 -38t108 -54t94.5 -75t62.5 -101t24.5 -131q0 -184 -140 -302.5t-377 -118.5q-225 0 -362.5 109t-149.5 288h140q11 -129 114 -201t258 -72q169 0 277 83
t108 216q0 106 -78.5 168t-232.5 107l-179 52q-368 109 -368 380q0 178 139 292t347 114q206 0 340.5 -111.5t142.5 -282.5h-131zM470 1933l174 -211l173 211h127v-10l-246 -292h-109l-246 292v10h127z" />
    <glyph glyph-name="uni0161" unicode="&#x161;" horiz-adv-x="1050" 
d="M921 872l-118 -33q-63 179 -260 179q-113 0 -186 -54t-73 -139q0 -72 49 -116t155 -71l169 -42q280 -69 280 -294q0 -143 -115 -234t-299 -91q-165 0 -271 74t-135 213l124 31q23 -99 94 -150.5t186 -51.5q127 0 205 57.5t78 145.5q0 139 -182 182l-183 43
q-285 69 -285 299q0 137 109.5 224.5t279.5 87.5q289 0 378 -260zM367 1561l174 -211l174 211h126v-10l-245 -293h-109l-246 293v10h126z" />
    <glyph glyph-name="uni0162" unicode="&#x162;" horiz-adv-x="1295" 
d="M108 1367v122h1080v-122h-472v-1367h-1l-10 -55q67 -11 108.5 -53t42.5 -117q-1 -89 -70 -140.5t-199 -52.5l-4 91q154 2 154 98q0 54 -37 77t-121 27l25 125h-24v1367h-472z" />
    <glyph glyph-name="uni0163" unicode="&#x163;" horiz-adv-x="733" 
d="M611 1117v-113h-236v-712q0 -97 47 -139.5t121 -42.5q40 0 76 10l28 -117q-50 -19 -112 -20l-7 -35q67 -10 108.5 -53t42.5 -118q-1 -89 -70 -140.5t-199 -52.5l-4 91q155 2 155 98q0 53 -37.5 76.5t-121.5 27.5l26 124q-81 28 -132.5 95t-51.5 165v743h-166v113h166v268
h131v-268h236z" />
    <glyph glyph-name="uni0164" unicode="&#x164;" horiz-adv-x="1295" 
d="M108 1367v122h1080v-122h-472v-1367h-136v1367h-472zM474 1933l174 -211l174 211h126v-10l-245 -292h-110l-245 292v10h126z" />
    <glyph glyph-name="uni0165" unicode="&#x165;" horiz-adv-x="733" 
d="M611 1117v-113h-236v-712q0 -97 47 -139.5t121 -42.5q40 0 76 10l28 -117q-56 -20 -115 -20q-55 0 -105.5 18t-92 52t-66 88t-24.5 120v743h-166v113h166v268h131v-268h236zM504 1255v377h134l-38 -377h-96z" />
    <glyph glyph-name="uni0166" unicode="&#x166;" horiz-adv-x="1295" 
d="M108 1367v122h1080v-122h-472v-547h237v-104h-237v-716h-136v716h-237v104h237v547h-472z" />
    <glyph glyph-name="uni0167" unicode="&#x167;" horiz-adv-x="733" 
d="M71 641v104h173v259h-166v113h166v268h131v-268h236v-113h-236v-259h242v-104h-242v-349q0 -97 47 -139.5t121 -42.5q40 0 76 10l28 -117q-56 -20 -115 -20q-55 0 -105.5 18t-92 52t-66 88t-24.5 120v380h-173z" />
    <glyph glyph-name="uni0168" unicode="&#x168;" horiz-adv-x="1524" 
d="M1191 1489h136v-986q0 -230 -157.5 -379t-407.5 -149q-165 0 -294 68.5t-199.5 188.5t-70.5 271v986h136v-976q0 -180 117.5 -295t310.5 -115t311 115t118 295v976zM516 1644l-104 5q4 96 64 158.5t147 62.5q40 0 78 -16t63.5 -35t60.5 -35t70 -16q44 0 77 32t37 79
l103 -11q-5 -96 -65.5 -155.5t-146.5 -59.5q-43 0 -80.5 16t-60.5 35t-57.5 35t-72.5 16q-46 0 -78 -31.5t-35 -79.5z" />
    <glyph glyph-name="uni0169" unicode="&#x169;" horiz-adv-x="1181" 
d="M881 427v690h129v-1117h-129v185h-10q-41 -90 -127.5 -145t-205.5 -55q-166 0 -266.5 107t-100.5 301v724h129v-716q0 -130 76.5 -210t198.5 -80q58 0 112 21t97.5 59.5t70 100t26.5 135.5zM346 1271l-105 6q4 96 64 158t148 62q40 0 78 -16t63 -34.5t60 -34.5t70 -16
q44 0 77.5 32t37.5 79l103 -12q-5 -96 -65.5 -155t-146.5 -59q-43 0 -80.5 16t-60.5 35t-57.5 35t-72.5 16q-46 0 -78 -32t-35 -80z" />
    <glyph glyph-name="uni016A" unicode="&#x16a;" horiz-adv-x="1524" 
d="M1191 1489h136v-986q0 -230 -157.5 -379t-407.5 -149q-165 0 -294 68.5t-199.5 188.5t-70.5 271v986h136v-976q0 -180 117.5 -295t310.5 -115t311 115t118 295v976zM1066 1829v-113h-609v113h609z" />
    <glyph glyph-name="uni016B" unicode="&#x16b;" horiz-adv-x="1181" 
d="M881 427v690h129v-1117h-129v185h-10q-41 -90 -127.5 -145t-205.5 -55q-166 0 -266.5 107t-100.5 301v724h129v-716q0 -130 76.5 -210t198.5 -80q58 0 112 21t97.5 59.5t70 100t26.5 135.5zM896 1457v-113h-609v113h609z" />
    <glyph glyph-name="uni016C" unicode="&#x16c;" horiz-adv-x="1524" 
d="M1191 1489h136v-986q0 -230 -157.5 -379t-407.5 -149q-165 0 -294 68.5t-199.5 188.5t-70.5 271v986h136v-976q0 -180 117.5 -295t310.5 -115t311 115t118 295v976zM896 1862h122q0 -105 -69.5 -169.5t-186.5 -64.5q-116 0 -185 64.5t-69 169.5h123q0 -61 32.5 -98
t98.5 -37q67 0 100.5 37.5t33.5 97.5z" />
    <glyph glyph-name="uni016D" unicode="&#x16d;" horiz-adv-x="1181" 
d="M881 427v690h129v-1117h-129v185h-10q-41 -90 -127.5 -145t-205.5 -55q-166 0 -266.5 107t-100.5 301v724h129v-716q0 -130 76.5 -210t198.5 -80q58 0 112 21t97.5 59.5t70 100t26.5 135.5zM725 1489h122q0 -105 -69 -169t-187 -64q-116 0 -185 64t-69 169h123
q0 -61 32.5 -97.5t98.5 -36.5q67 0 100.5 37t33.5 97z" />
    <glyph glyph-name="uni016E" unicode="&#x16e;" horiz-adv-x="1524" 
d="M1191 1489h136v-986q0 -230 -157.5 -379t-407.5 -149q-165 0 -294 68.5t-199.5 188.5t-70.5 271v986h136v-976q0 -180 117.5 -295t310.5 -115t311 115t118 295v976zM762 1582q-81 0 -138 57t-57 138t57 138.5t138 57.5t139 -57.5t58 -138.5t-58 -138t-139 -57zM762 1667
q47 0 78.5 32t31.5 78q0 47 -31.5 79t-78.5 32t-78 -32.5t-31 -78.5q0 -47 31.5 -78.5t77.5 -31.5z" />
    <glyph glyph-name="uni016F" unicode="&#x16f;" horiz-adv-x="1181" 
d="M881 427v690h129v-1117h-129v185h-10q-41 -90 -127.5 -145t-205.5 -55q-166 0 -266.5 107t-100.5 301v724h129v-716q0 -130 76.5 -210t198.5 -80q58 0 112 21t97.5 59.5t70 100t26.5 135.5zM591 1247q-97 0 -164 63.5t-67 156.5t67.5 159.5t163.5 66.5q97 0 163.5 -66
t66.5 -160q0 -93 -66.5 -156.5t-163.5 -63.5zM591 1336q56 0 94.5 39.5t38.5 91.5q0 54 -38.5 94.5t-94.5 40.5t-94 -40.5t-38 -94.5q0 -52 38 -91.5t94 -39.5z" />
    <glyph glyph-name="uni0170" unicode="&#x170;" horiz-adv-x="1524" 
d="M1191 1489h136v-986q0 -230 -157.5 -379t-407.5 -149q-165 0 -294 68.5t-199.5 188.5t-70.5 271v986h136v-976q0 -180 117.5 -295t310.5 -115t311 115t118 295v976zM804 1609l236 311h148l-268 -311h-116zM532 1609l177 311h146l-216 -311h-107z" />
    <glyph glyph-name="uni0171" unicode="&#x171;" horiz-adv-x="1181" 
d="M881 427v690h129v-1117h-129v185h-10q-41 -90 -127.5 -145t-205.5 -55q-166 0 -266.5 107t-100.5 301v724h129v-716q0 -130 76.5 -210t198.5 -80q58 0 112 21t97.5 59.5t70 100t26.5 135.5zM633 1237l236 311h148l-268 -311h-116zM361 1237l177 311h146l-216 -311h-107z
" />
    <glyph glyph-name="uni0172" unicode="&#x172;" horiz-adv-x="1524" 
d="M1191 1489h136v-986q0 -208 -130.5 -352t-344.5 -171q-67 -59 -103 -110t-36 -106q0 -88 91 -88q55 0 102 30l17 -97q-68 -45 -148 -45q-87 0 -141 48t-54 136q0 126 129 229q-229 17 -370.5 163t-140.5 363v986h136v-976q0 -180 117.5 -295t310.5 -115t311 115t118 295
v976z" />
    <glyph glyph-name="uni0173" unicode="&#x173;" horiz-adv-x="1181" 
d="M881 427v690h129v-1116l1 -1q-81 -67 -123.5 -122.5t-42.5 -115.5q0 -88 92 -88q55 0 102 30l16 -97q-69 -46 -147 -46q-87 0 -141 48.5t-54 136.5q0 144 168 257v182h-10q-41 -90 -127.5 -145t-205.5 -55q-166 0 -266.5 107t-100.5 301v724h129v-716q0 -130 76.5 -210
t198.5 -80q58 0 112 21t97.5 59.5t70 100t26.5 135.5z" />
    <glyph glyph-name="uni0174" unicode="&#x174;" horiz-adv-x="1904" 
d="M457 0l-408 1489h138l337 -1280h12l337 1280h158l337 -1280h12l337 1280h139l-408 -1489h-145l-346 1263h-9l-346 -1263h-145zM1126 1617l-174 211l-174 -211h-126v11l245 292h110l245 -292v-11h-126z" />
    <glyph glyph-name="uni0175" unicode="&#x175;" horiz-adv-x="1648" 
d="M419 0l-338 1117h137l265 -921h9l264 921h138l262 -919h10l265 919h136l-337 -1117h-134l-265 916h-14l-264 -916h-134zM998 1245l-174 211l-174 -211h-126v10l245 293h110l245 -293v-10h-126z" />
    <glyph glyph-name="uni0176" unicode="&#x176;" horiz-adv-x="1326" 
d="M58 1489h157l442 -706h13l441 706h157l-537 -844v-645h-135v645zM837 1617l-174 211l-174 -211h-126v11l246 292h109l246 -292v-11h-127z" />
    <glyph glyph-name="uni0177" unicode="&#x177;" horiz-adv-x="1117" 
d="M261 -419q-75 0 -125 23l35 115q97 -35 166.5 0t114.5 157l40 113l-411 1128h141l331 -946h11l331 946h141l-473 -1294q-90 -242 -302 -242zM732 1245l-173 211l-174 -211h-127v10l246 293h109l246 -293v-10h-127z" />
    <glyph glyph-name="uni0178" unicode="&#x178;" horiz-adv-x="1326" 
d="M58 1489h157l442 -706h13l441 706h157l-537 -844v-645h-135v645zM477 1681q-37 0 -65 28.5t-28 65.5q0 39 28 66t65 27q40 0 66.5 -26.5t26.5 -66.5q0 -38 -27 -66t-66 -28zM849 1681q-37 0 -65 28.5t-28 65.5q0 39 28 66t65 27q40 0 67 -26.5t27 -66.5
q0 -37 -27.5 -65.5t-66.5 -28.5z" />
    <glyph glyph-name="uni0179" unicode="&#x179;" horiz-adv-x="1266" 
d="M139 0v103l827 1264h-831v122h993v-102l-828 -1265h835v-122h-996zM572 1644l187 331h153l-223 -331h-117z" />
    <glyph glyph-name="uni017A" unicode="&#x17a;" horiz-adv-x="1085" 
d="M136 0v103l646 882v10h-618v122h784v-107l-634 -878v-10h658v-122h-836zM481 1272l187 330h153l-223 -330h-117z" />
    <glyph glyph-name="uni017B" unicode="&#x17b;" horiz-adv-x="1266" 
d="M139 0v103l827 1264h-831v122h993v-102l-828 -1265h835v-122h-996zM633 1681q-40 0 -68.5 28t-28.5 66t28.5 65.5t68.5 27.5t68.5 -27.5t28.5 -65.5t-28.5 -66t-68.5 -28z" />
    <glyph glyph-name="uni017C" unicode="&#x17c;" horiz-adv-x="1085" 
d="M136 0v103l646 882v10h-618v122h784v-107l-634 -878v-10h658v-122h-836zM542 1309q-40 0 -68.5 27.5t-28.5 65.5t28.5 65.5t68.5 27.5t68.5 -27.5t28.5 -65.5t-28.5 -65.5t-68.5 -27.5z" />
    <glyph glyph-name="uni017D" unicode="&#x17d;" horiz-adv-x="1266" 
d="M139 0v103l827 1264h-831v122h993v-102l-828 -1265h835v-122h-996zM460 1933l173 -211l174 211h127v-10l-246 -292h-109l-246 292v10h127z" />
    <glyph glyph-name="uni017E" unicode="&#x17e;" horiz-adv-x="1085" 
d="M136 0v103l646 882v10h-618v122h784v-107l-634 -878v-10h658v-122h-836zM368 1561l174 -211l174 211h126v-10l-246 -293h-109l-246 293v10h127z" />
    <glyph glyph-name="uni017F" unicode="&#x17f;" horiz-adv-x="514" 
d="M186 0h-149v1230q0 155 86 241t231 86q58 0 124 -17l-19 -114q-32 9 -82 9q-89 0 -140 -54t-51 -151v-1230z" />
    <glyph glyph-name="uni0180" unicode="&#x180;" horiz-adv-x="1256" 
d="M198 0v1228h-239v104h239v157h130v-157h241v-104h-241v-324h12q100 228 341 228q207 0 334.5 -159t127.5 -417q0 -260 -127 -419.5t-333 -159.5q-243 0 -343 230h-16v-207h-126zM326 558q0 -207 90.5 -335t250.5 -128q162 0 253.5 130.5t91.5 332.5q0 130 -39 232.5
t-118 163.5t-188 61q-160 0 -250.5 -126t-90.5 -331z" />
    <glyph glyph-name="uni0181" unicode="&#x181;" horiz-adv-x="1600" 
d="M472 0v1367h-97q-80 0 -109.5 -46.5t-29.5 -136.5v-46h-128v84q0 119 69.5 193t194.5 74h603q211 0 324 -107t113 -282q0 -133 -65 -214.5t-172 -110.5v-12q117 -8 206 -109.5t89 -262.5q0 -177 -118.5 -284t-349.5 -107h-530zM608 122h394q166 0 252 74t86 195
q0 130 -92.5 217.5t-239.5 87.5h-400v-574zM608 817h379q131 0 212.5 79.5t81.5 203.5q0 122 -78.5 194.5t-227.5 72.5h-367v-550z" />
    <glyph glyph-name="uni0182" unicode="&#x182;" horiz-adv-x="1338" 
d="M198 0v1489h869v-122h-733v-532h422q221 0 345 -109.5t124 -297.5q0 -195 -124 -311.5t-345 -116.5h-558zM334 120h422q155 0 245 88.5t90 222.5q0 123 -90.5 202.5t-244.5 79.5h-422v-593z" />
    <glyph glyph-name="uni0183" unicode="&#x183;" horiz-adv-x="1256" 
d="M1004 1489v-122h-676v-463h12q100 228 341 228q207 0 334.5 -159t127.5 -417q0 -260 -127 -419.5t-333 -159.5q-243 0 -343 230h-16v-207h-126v1489h806zM326 558q0 -207 90.5 -335t250.5 -128q162 0 253.5 130.5t91.5 332.5q0 130 -39 232.5t-118 163.5t-188 61
q-160 0 -250.5 -126t-90.5 -331z" />
    <glyph glyph-name="uni0184" unicode="&#x184;" horiz-adv-x="1405" 
d="M500 1489v-654h423q221 0 344.5 -109.5t123.5 -297.5q0 -195 -123.5 -311.5t-344.5 -116.5h-559v1367h-345v122h481zM500 713v-593h423q156 0 245 88t89 223q1 123 -89 202.5t-245 79.5h-423z" />
    <glyph glyph-name="uni0185" unicode="&#x185;" horiz-adv-x="1230" 
d="M218 1536h46v-47h100v-585h12q100 228 341 228q207 0 334.5 -159t127.5 -417q0 -260 -127 -419.5t-333 -159.5q-243 0 -343 230h-16v-207h-126v1047h-16l-143 216v58zM1049 558q0 200 -91.5 328.5t-254.5 128.5q-160 0 -250.5 -126t-90.5 -331q0 -207 90.5 -335
t250.5 -128q162 0 254 130.5t92 332.5z" />
    <glyph glyph-name="uni0186" unicode="&#x186;" horiz-adv-x="1486" 
d="M122 465h137q31 -156 156 -256.5t297 -100.5q106 0 199 42t163 121t110 201t40 273t-40 273.5t-110 201t-162.5 120.5t-199.5 42q-172 0 -297 -101t-156 -257h-137q38 211 198 348.5t392 137.5q140 0 259 -54.5t204 -153t133 -242t48 -315.5t-48 -315.5t-133 -242
t-204 -153t-259 -54.5q-232 0 -392 137t-198 348z" />
    <glyph glyph-name="uni0187" unicode="&#x187;" horiz-adv-x="1534" 
d="M1364 1024h-136q-31 156 -156 257t-297 101q-106 0 -199 -42t-163 -121t-110 -201t-40 -273t40 -273.5t110 -201t162.5 -120.5t199.5 -42q172 0 297 100.5t156 256.5h136q-38 -211 -197.5 -348t-391.5 -137q-140 0 -259 54.5t-204 153t-133 242t-48 315.5t48 315.5
t133 242t204 153t259 54.5q145 0 264.5 -56.5t200.5 -155.5q17 98 83 151t163 53q58 0 78 -7v-112q-22 5 -49 5q-74 0 -112.5 -36t-38.5 -121v-207z" />
    <glyph glyph-name="uni0188" unicode="&#x188;" horiz-adv-x="1229" 
d="M1033 785h-131q-22 99 -101 164.5t-194 65.5q-161 0 -262 -127t-101 -330q0 -205 100 -334t263 -129q112 0 193 62.5t103 168.5h130q-23 -154 -138.5 -251.5t-287.5 -97.5q-222 0 -358 161.5t-136 414.5t137 416t355 163q185 0 306 -112q21 93 86 142t162 49q64 0 89 -7
v-112q-30 5 -60 5q-77 0 -116 -36t-39 -121v-155z" />
    <glyph glyph-name="uni0189" unicode="&#x189;" horiz-adv-x="1469" 
d="M634 0h-436v712h-238v105h238v672h462q319 0 498.5 -196.5t179.5 -544.5q-1 -353 -185.5 -550.5t-518.5 -197.5zM334 122h292q284 0 432.5 165t148.5 461q-1 292 -144 455.5t-411 163.5h-318v-550h237v-105h-237v-590z" />
    <glyph glyph-name="uni018A" unicode="&#x18a;" horiz-adv-x="1757" 
d="M108 1138v84q0 119 69.5 193t194.5 74h576q319 0 498.5 -196.5t179.5 -544.5q-1 -353 -185.5 -550.5t-518.5 -197.5h-436v1367h-111q-80 0 -109.5 -46.5t-29.5 -136.5v-46h-128zM622 122h292q284 0 432.5 165t148.5 461q-1 292 -144 455.5t-411 163.5h-318v-1245z" />
    <glyph glyph-name="uni018B" unicode="&#x18b;" horiz-adv-x="1264" 
d="M1145 0h-556q-221 0 -345.5 116.5t-124.5 311.5q0 188 125 299.5t345 111.5h404v501h-714v128h866v-1468zM993 126v585h-404q-154 0 -235 -77.5t-80 -202.5q0 -136 80 -220.5t235 -84.5h404z" />
    <glyph glyph-name="uni018C" unicode="&#x18c;" horiz-adv-x="1256" 
d="M251 1489h807v-1489h-126v207h-16q-100 -230 -343 -230q-206 0 -333 159.5t-127 419.5q0 258 127.5 417t334.5 159q241 0 341 -228h12v463h-677v122zM930 558q0 205 -91 331t-251 126q-109 0 -188 -61t-117.5 -163.5t-38.5 -232.5q0 -202 91 -332.5t253 -130.5
q160 0 251 128t91 335z" />
    <glyph glyph-name="uni018D" unicode="&#x18d;" horiz-adv-x="1055" 
d="M856 -375h-674v118h472q-95 109 -268 269q-163 148 -244 277t-81 275v16q0 251 125.5 401.5t340.5 150.5q216 0 342.5 -150.5t126.5 -401.5v-16q0 -195 -121.5 -330.5t-323.5 -152.5q-28 -2 -65 2q14 -14 59.5 -56.5t66 -62.5t60.5 -58.5t66 -65t58.5 -60.5t59.5 -65v-90
zM847 564v16q0 197 -82.5 313.5t-237.5 116.5q-153 0 -235.5 -117t-82.5 -313v-16q0 -212 187 -370q58 -17 117 -17q157 0 245.5 110t88.5 277z" />
    <glyph glyph-name="uni018E" unicode="&#x18e;" horiz-adv-x="1215" 
d="M1017 1489v-1489h-864v122h728v561h-682v122h682v562h-742v122h878z" />
    <glyph glyph-name="uni018F" unicode="&#x18f;" horiz-adv-x="1448" 
d="M710 -20q-262 0 -418.5 183t-156.5 503v91h1026v25q0 285 -127.5 441.5t-366.5 156.5q-175 0 -351 -85l-40 115q76 47 182 73.5t217 26.5q297 0 469 -195t172 -533v-95q0 -207 -73 -367t-211.5 -250t-321.5 -90zM1160 637h-872v-22q0 -238 113.5 -372.5t306.5 -134.5
q202 0 321.5 142.5t130.5 386.5z" />
    <glyph glyph-name="uni0190" unicode="&#x190;" horiz-adv-x="1256" 
d="M783 792v-94h-140q-175 0 -271 -77.5t-96 -220.5q0 -141 96 -218t253 -77q167 0 261 80.5t102 207.5h153q-7 -197 -151.5 -305t-364.5 -108q-106 0 -197 26.5t-160 76.5t-108.5 129t-39.5 179q0 142 76 236.5t219 136.5q-128 43 -199 133.5t-71 214.5q0 180 136 289
t348 109q213 0 344 -109t138 -290h-153q-7 122 -93.5 196.5t-235.5 74.5q-155 0 -242.5 -75.5t-87.5 -199.5q0 -122 89 -202.5t255 -80.5h140v-32z" />
    <glyph glyph-name="uni0191" unicode="&#x191;" horiz-adv-x="1184" 
d="M183 -134v1623h861v-122h-725v-560h658v-123h-658v-684h-1v-136q0 -136 -75 -209t-218 -73q-18 0 -56 8v114q28 -6 55 -6q159 0 159 168z" />
    <glyph glyph-name="uni0192" unicode="&#x192;" horiz-adv-x="730" 
d="M617 1079v-114h-202v-1068q0 -150 -79 -233t-217 -83q-62 0 -106 15l15 120q32 -13 91 -13q69 0 115 53t46 141v1068h-186v114h186v149q0 153 82 240.5t210 87.5q86 0 144 -22l-33 -119q-35 11 -79 11q-87 0 -138 -51.5t-51 -146.5v-149h202z" />
    <glyph glyph-name="uni0193" unicode="&#x193;" horiz-adv-x="1540" 
d="M1228 1024q-43 157 -162 257.5t-295 100.5q-223 0 -365.5 -171.5t-142.5 -465.5q0 -295 143.5 -466t373.5 -171q206 0 334.5 132.5t131.5 358.5h-434v122h566v-122q0 -188 -77 -329t-212 -215.5t-309 -74.5q-293 0 -471 208.5t-178 556.5q0 347 177.5 556t462.5 209
q150 0 273 -59.5t205 -163.5q47 170 243 170q60 0 90 -8v-112q-30 5 -61 5q-76 0 -115 -36t-39 -121v-153q1 -2 1 -4.5v-3.5h-140z" />
    <glyph glyph-name="uni0194" unicode="&#x194;" horiz-adv-x="1213" 
d="M-1 1489h147l460 -1109l463 1109h147l-540 -1280q31 -74 70 -162.5t56 -127.5t29.5 -79.5t12.5 -67.5q0 -100 -63 -157t-174 -57t-174 57t-63 157q0 23 5.5 49t21 66t31 75t47 108t57.5 134l5 13zM609 49q-83 -196 -94 -234q-7 -27 -7 -45q0 -38 27.5 -63t71.5 -25
q43 0 70.5 25.5t28.5 62.5q0 33 -19.5 87.5t-77.5 191.5z" />
    <glyph glyph-name="uni0195" unicode="&#x195;" horiz-adv-x="1917" 
d="M171 0v1489h129v-547h12q41 90 124.5 140t206.5 50q174 0 277.5 -106.5t103.5 -301.5v-283q0 -97 18.5 -167t52 -107t72.5 -53.5t86 -16.5q82 0 147 51t114.5 155.5t76 278t26.5 406.5v129h131v-134q0 -256 -36 -449.5t-103 -313.5t-158.5 -180t-205.5 -60
q-162 0 -256.5 115t-94.5 346v275q0 137 -77 217t-207 80q-137 0 -223.5 -85.5t-86.5 -229.5v-698h-129z" />
    <glyph glyph-name="uni0196" unicode="&#x196;" horiz-adv-x="503" 
d="M171 1489h129v-1235q0 -86 28 -117t94 -24q27 1 51 9l27 -113q-42 -13 -91 -14q-117 -7 -177.5 51t-60.5 177v1266z" />
    <glyph glyph-name="uni0197" unicode="&#x197;" horiz-adv-x="531" 
d="M334 1489v-669h237v-104h-237v-716h-136v716h-238v104h238v669h136z" />
    <glyph glyph-name="uni0198" unicode="&#x198;" horiz-adv-x="1364" 
d="M198 0v1489h136v-802h13l654 721q49 56 111.5 79.5t123 13.5t111.5 -50l-59 -99q-101 69 -200 -40l-471 -511l657 -801h-166l-576 706l-198 -222v-484h-136z" />
    <glyph glyph-name="uni0199" unicode="&#x199;" horiz-adv-x="1060" 
d="M859 0l-421 545l-138 -144v-401h-129v1239q0 130 69.5 200.5t185.5 70.5q65 0 90 -7v-113q-34 6 -61 6q-76 0 -115.5 -36t-39.5 -121v-651h12l500 529h168l-456 -478l493 -639h-158z" />
    <glyph glyph-name="uni019A" unicode="&#x19a;" horiz-adv-x="471" 
d="M300 1489v-669h241v-104h-241v-716h-129v716h-241v104h241v669h129z" />
    <glyph glyph-name="uni019B" unicode="&#x19b;" horiz-adv-x="1270" 
d="M651 1425v-131l-68 -28l392 -1033q25 -68 48.5 -93.5t58.5 -25.5q3 0 39 3l10 -122q-27 -10 -72 -10q-84 0 -133 39t-95 160l-252 664l-303 -848h-165l391 1049l-61 160l-250 -101v129l202 83q-41 67 -114 68q-38 0 -59 -5l-5 114q41 13 98 13q86 -1 138 -32.5t86 -99.5z
" />
    <glyph glyph-name="uni019C" unicode="&#x19c;" horiz-adv-x="1801" 
d="M861 191q-46 -99 -132 -154t-208 -55q-169 0 -261 106.5t-92 328.5v1072h149v-1072q0 -160 61.5 -234.5t164.5 -74.5q118 0 190.5 66.5t95.5 179.5q-2 40 -2 63v1072h148v-1072q0 -160 62 -234.5t165 -74.5q119 0 191 66t94 179v1136h147v-1489h-139l-6 137
q-102 -155 -308 -155q-242 0 -320 209z" />
    <glyph glyph-name="uni019D" unicode="&#x19d;" horiz-adv-x="1545" 
d="M1348 1489v-1489h-132l-880 1247h-12v-1247v-136q0 -132 -73.5 -207t-190.5 -75q-60 0 -85 8v114q28 -6 55 -6q158 0 158 168v1623h132l883 -1248h12v1248h133z" />
    <glyph glyph-name="uni019E" unicode="&#x19e;" horiz-adv-x="1186" 
d="M300 698v-698h-129v1117h126v-175h11q40 88 124.5 139t204.5 51q173 0 276 -106.5t103 -301.5v-1143h-129v1135q0 137 -77 217t-206 80q-134 0 -219 -85.5t-85 -229.5z" />
    <glyph glyph-name="uni019F" unicode="&#x19f;" horiz-adv-x="1549" 
d="M1419 745q0 -346 -179.5 -555.5t-464.5 -209.5q-140 0 -259.5 54.5t-204 153t-132.5 242t-48 315.5q0 229 82.5 403.5t228.5 268t333 93.5q285 0 464.5 -209.5t179.5 -555.5zM1285 684h-1021q15 -267 156.5 -421.5t354.5 -154.5t354 154t156 422zM1285 806
q-15 268 -156 422t-354 154q-212 0 -353.5 -154t-157.5 -422h1021z" />
    <glyph glyph-name="uni01A0" unicode="&#x1a0;" horiz-adv-x="1558" 
d="M1379 1599h130q0 -290 -225 -358q135 -201 135 -496q0 -346 -179.5 -555.5t-464.5 -209.5q-140 0 -259.5 54.5t-204 153t-132.5 242t-48 315.5q0 229 82.5 403.5t228.5 268t333 93.5q257 0 429 -172q92 18 133.5 82t41.5 179zM1287 745q0 147 -38.5 268t-107 201.5
t-162.5 124t-204 43.5q-225 0 -368.5 -171.5t-143.5 -465.5t143 -465.5t369 -171.5q110 0 204 43.5t162.5 124t107 201.5t38.5 268z" />
    <glyph glyph-name="uni01A1" unicode="&#x1a1;" horiz-adv-x="1201" 
d="M1066 1208h122q0 -258 -173 -316q82 -142 82 -339q0 -255 -137.5 -415.5t-354.5 -160.5t-354.5 160.5t-137.5 415.5q0 257 137.5 418t354.5 161q210 0 348 -154q65 17 89 73t24 157zM605 95q112 0 195.5 63t125 165.5t41.5 229.5t-41 230.5t-125 167.5t-196 64
t-195.5 -64t-124.5 -167.5t-41 -230.5t41 -229.5t124.5 -165.5t195.5 -63z" />
    <glyph glyph-name="uni01A2" unicode="&#x1a2;" horiz-adv-x="1706" 
d="M1508 1489v-1908h-149v1762l-154 -76v-1077q-64 -99 -188 -154.5t-275 -55.5q-277 0 -444 190.5t-167 505.5v128q0 321 169 513.5t453 192.5q115 0 218.5 -36.5t175.5 -102.5l236 118h125zM284 775v-99q0 -263 125.5 -417t341.5 -154q96 0 177.5 32t129.5 91v1032
q-46 57 -128.5 89.5t-178.5 32.5q-218 0 -342.5 -153.5t-124.5 -424.5v-29z" />
    <glyph glyph-name="uni01A3" unicode="&#x1a3;" horiz-adv-x="1214" 
d="M1149 1117v-1536h-148v1349l-149 -92v-727q-129 -132 -319 -132q-144 0 -251.5 74.5t-161.5 198t-54 275.5v28q0 167 53.5 296t161.5 205t258 76q181 0 302 -116l182 101h126zM539 101q91 0 164 49v811q-70 49 -168 49q-82 0 -144.5 -35.5t-100 -98t-56.5 -143.5
t-19 -178v-28q0 -195 88.5 -310.5t235.5 -115.5z" />
    <glyph glyph-name="uni01A4" unicode="&#x1a4;" horiz-adv-x="1538" 
d="M236 1138h-128v84q0 119 69.5 193t194.5 74h554q230 0 355 -128t125 -331t-125 -332t-353 -129h-347v-569h-136v1367h-70q-80 0 -109.5 -46.5t-29.5 -136.5v-46zM581 692h343q169 0 258.5 93t89.5 245q0 153 -89.5 245t-260.5 92h-341v-675z" />
    <glyph glyph-name="uni01A5" unicode="&#x1a5;" horiz-adv-x="1232" 
d="M295 1117h2v-213h15q105 228 342 228q207 0 334 -158.5t127 -417.5t-127.5 -419t-332.5 -160q-72 0 -131.5 20.5t-100 56.5t-66.5 73t-45 80h-12v-626h-129v1536h-2q0 127 64.5 191t186.5 64q57 0 90 -7v-113q-25 5 -61 5q-79 0 -116.5 -33t-37.5 -107zM299 558
q0 -207 91 -335t250 -128q108 0 187.5 62t118.5 165.5t39 235.5q0 200 -91 328.5t-254 128.5q-161 0 -251 -125.5t-90 -331.5z" />
    <glyph glyph-name="uni01A6" unicode="&#x1a6;" horiz-adv-x="1436" 
d="M1156 -364l-531 992h-360v-628h-155v1591h155v-101h315q228 0 355.5 -114t127.5 -320q0 -142 -76.5 -247t-212.5 -153l546 -1011v-9h-164zM265 754h332q142 0 228 84.5t85 217.5q0 142 -84.5 224t-245.5 82h-315v-608z" />
    <glyph glyph-name="uni01A7" unicode="&#x1a7;" horiz-adv-x="1288" 
d="M282 1117h-131q8 171 142 282.5t340 111.5q209 0 348 -114t139 -292q0 -271 -369 -380l-178 -52q-154 -45 -232.5 -107t-78.5 -168q0 -133 108 -216t277 -83q155 0 258 72t114 201h140q-12 -179 -149.5 -288t-362.5 -109q-237 0 -377 118.5t-140 302.5q0 71 24.5 131
t62.5 101t94.5 75t108 54t115.5 38l157 45q296 84 296 271q0 121 -98 199t-253 78q-148 0 -245 -73.5t-110 -197.5z" />
    <glyph glyph-name="uni01A8" unicode="&#x1a8;" horiz-adv-x="1050" 
d="M130 872q87 260 378 260q170 0 279.5 -87.5t109.5 -224.5q0 -230 -285 -299l-182 -43q-183 -43 -183 -182q0 -88 78 -145.5t205 -57.5q232 0 279 202l125 -31q-29 -139 -134.5 -213t-270.5 -74q-185 0 -300.5 91t-115.5 234q0 225 282 294l169 42q105 27 154 71t49 116
q0 85 -73 139t-186 54q-196 0 -260 -179z" />
    <glyph glyph-name="uni01A9" unicode="&#x1a9;" horiz-adv-x="1263" 
d="M1143 128v-128h-1030v114l520 606l-520 632v116h986v-128h-791l490 -609v-21l-486 -582h831z" />
    <glyph glyph-name="uni01AA" unicode="&#x1aa;" horiz-adv-x="1040" 
d="M107 1243q0 131 92.5 222.5t223.5 91.5t222.5 -91t92.5 -222v-1345q0 -103 32 -147.5t99 -44.5q29 0 65 9v-120q-42 -15 -100 -15q-246 0 -246 318v1076q-77 -48 -165 -48q-131 -1 -224 92t-92 224zM423 1065q75 0 124.5 48.5t48.5 130.5t-50 131.5t-123 49.5
q-75 0 -125.5 -50t-50.5 -131q0 -82 50 -130.5t126 -48.5z" />
    <glyph glyph-name="uni01AB" unicode="&#x1ab;" horiz-adv-x="738" 
d="M611 1117v-113h-236v-712q0 -97 47 -139.5t121 -42.5q15 0 35 2l73 16v-264q0 -133 -72 -207.5t-188 -74.5q-65 0 -91 10v111q24 -6 60 -6q161 0 161 167v119q-113 4 -195 78t-82 200v743h-166v113h166v268h131v-268h236z" />
    <glyph glyph-name="uni01AC" unicode="&#x1ac;" horiz-adv-x="1349" 
d="M1242 1489v-122h-472v-1367h-136v1367h-262q-140 0 -140 -174v-45h-124v76q0 122 70.5 193.5t193.5 71.5h870z" />
    <glyph glyph-name="uni01AD" unicode="&#x1ad;" horiz-adv-x="632" 
d="M593 1094v-114h-210v-701q0 -171 131 -171q31 0 83 11v-123q-57 -16 -122 -16q-109 0 -175.5 75t-66.5 224v701h-184v114h184v194q0 129 74.5 199t193.5 70q46 0 90 -11v-105q-32 8 -61 8q-75 0 -111 -37t-36 -124v-194h210z" />
    <glyph glyph-name="uni01AE" unicode="&#x1ae;" horiz-adv-x="1295" 
d="M108 1367v122h1080v-122h-472v-1503q0 -160 168 -160h52v-122h-83q-118 0 -195.5 74.5t-77.5 206.5v1504h-472z" />
    <glyph glyph-name="uni01AF" unicode="&#x1af;" horiz-adv-x="1737" 
d="M1502 1588h128q1 -176 -71 -271.5t-232 -117.5v-696q0 -230 -157.5 -379t-407.5 -149q-165 0 -294 68.5t-199.5 188.5t-70.5 271v986h136v-976q0 -180 117.5 -295t310.5 -115t311 115t118 295v976h136v-176q98 20 136.5 85.5t38.5 189.5z" />
    <glyph glyph-name="uni01B0" unicode="&#x1b0;" horiz-adv-x="1214" 
d="M1140 1163h117q0 -150 -56.5 -225.5t-193.5 -86.5v-851h-129v185h-10q-41 -90 -127.5 -145t-205.5 -55q-166 0 -266.5 107t-100.5 301v724h129v-716q0 -130 76.5 -210t198.5 -80q58 0 112 21t97.5 59.5t70 100t26.5 135.5v690h129v-170q84 8 108.5 55.5t24.5 160.5z" />
    <glyph glyph-name="uni01B1" unicode="&#x1b1;" horiz-adv-x="1547" 
d="M132 712q1 218 89.5 381t258.5 263v11h-348v122h509v-157q-166 -78 -271.5 -239t-105.5 -380q0 -168 64 -306.5t181.5 -218.5t264.5 -80q223 1 366.5 174.5t143.5 430.5q0 147 -52 273.5t-135 211t-190 134.5v157h509v-122h-348v-11q346 -202 348 -644
q0 -211 -82.5 -378.5t-229 -260.5t-330.5 -93t-330.5 93.5t-229 260.5t-82.5 378z" />
    <glyph glyph-name="uni01B2" unicode="&#x1b2;" horiz-adv-x="1266" 
d="M631 -21q-230 0 -371 128t-141 365v1017h153v-1017q0 -181 96 -274t263 -93q169 0 266 93.5t97 273.5v723q0 98 -40 141.5t-124 43.5q-43 0 -72 -8v122q52 16 111 16q127 0 204 -82.5t77 -232.5v-723q0 -118 -40.5 -213t-111.5 -155.5t-164.5 -92.5t-202.5 -32z" />
    <glyph glyph-name="uni01B3" unicode="&#x1b3;" horiz-adv-x="1389" 
d="M46 1489h157l441 -706h13l371 589q41 67 100.5 102.5t120 34t118.5 -31.5l-41 -107q-45 25 -96 11t-88 -73l-423 -663v-645h-136v645z" />
    <glyph glyph-name="uni01B4" unicode="&#x1b4;" horiz-adv-x="1230" 
d="M261 -419q-75 0 -125 23l35 115q97 -35 166.5 0t114.5 157l40 113l-411 1128h141l331 -946h11l315 902q24 68 49.5 118t60.5 92.5t81.5 64.5t103.5 22q92 0 158 -51l-32 -95q-58 30 -111 30q-64 0 -102.5 -49t-82.5 -173l-441 -1209q-90 -242 -302 -242z" />
    <glyph glyph-name="uni01B5" unicode="&#x1b5;" horiz-adv-x="1266" 
d="M139 0v103l396 605h-198v104h266l363 555h-831v122h993v-102l-376 -575h196v-104h-264l-384 -586h835v-122h-996z" />
    <glyph glyph-name="uni01B6" unicode="&#x1b6;" horiz-adv-x="1085" 
d="M136 0v103l295 403h-195v105h272l274 374v10h-618v122h784v-107l-288 -399h187v-105h-262l-271 -374v-10h658v-122h-836z" />
    <glyph glyph-name="uni01B7" unicode="&#x1b7;" horiz-adv-x="1404" 
d="M108 67h137q7 -168 134.5 -276t310.5 -108q200 0 325 137t125 347q0 226 -150.5 365t-390.5 143h-96v116l546 574h-859v124h1043v-99l-560 -593v-12q266 -11 433.5 -183t167.5 -434q0 -170 -70.5 -308t-205 -219.5t-309.5 -81.5q-158 0 -288.5 64t-209 180.5t-83.5 263.5
z" />
    <glyph glyph-name="uni01B8" unicode="&#x1b8;" horiz-adv-x="1404" 
d="M1297 67q-6 -147 -84 -263.5t-208.5 -180.5t-288.5 -64q-175 0 -309.5 81.5t-205.5 219.5t-71 308q0 262 167.5 434t433.5 183v12l-559 593v99h1042v-124h-858l546 -574v-116h-96q-241 -4 -391.5 -143t-150.5 -365q0 -209 125 -346.5t324 -137.5q183 0 311 108t135 276
h138z" />
    <glyph glyph-name="uni01B9" unicode="&#x1b9;" horiz-adv-x="1266" 
d="M1125 1q-9 -177 -146.5 -285t-336.5 -108q-216 0 -351.5 124.5t-135.5 312.5t134.5 310.5t341.5 131.5v9l-424 521v101h849v-122h-661v-11l404 -494v-112h-80q-213 0 -321.5 -93.5t-108.5 -240.5q0 -142 97.5 -228.5t253.5 -86.5q145 0 242.5 73.5t104.5 197.5h138z" />
    <glyph glyph-name="uni01BA" unicode="&#x1ba;" horiz-adv-x="1071" 
d="M130 1118l859 -1v-98l-443 -389q159 -14 244.5 -82.5t85.5 -179.5q0 -123 -92 -189.5t-292 -112.5q-143 -33 -199.5 -83.5t-56.5 -124.5q0 -87 64 -133t182 -46q119 0 199.5 58.5t88.5 174.5h148q-5 -150 -121 -252.5t-308 -102.5q-185 0 -293 83t-108 225
q0 125 93 203.5t287 121.5q151 35 205 72.5t54 109.5q0 71 -62 105t-200 34h-129v99l439 386h-643z" />
    <glyph glyph-name="uni01BB" unicode="&#x1bb;" horiz-adv-x="1250" 
d="M166 0v100l486 547q36 39 54 61h-180v104h267q66 86 95 153.5t29 140.5q0 126 -86.5 205t-217.5 79q-137 0 -221 -85t-84 -219h-130q0 185 124.5 304.5t314.5 119.5q185 0 306.5 -116t121.5 -288q0 -76 -23 -144t-78 -150h193v-104h-272q-52 -65 -141 -164l-369 -412v-10
h737v-122h-926z" />
    <glyph glyph-name="uni01BC" unicode="&#x1bc;" horiz-adv-x="1194" 
d="M590 -20q-186 0 -310 110.5t-129 281.5h131q7 -119 93 -194.5t215 -75.5q149 0 246 104t97 262q-1 162 -101.5 266t-250.5 105q-73 1 -145.5 -24.5t-121.5 -66.5l-136 18l74 601h-187v122h939v-122h-622l-60 -498h7q50 43 122 68.5t149 25.5q199 0 332.5 -139t132.5 -353
q-1 -212 -135 -351.5t-340 -139.5z" />
    <glyph glyph-name="uni01BD" unicode="&#x1bd;" horiz-adv-x="1014" 
d="M320 489l-129 11l51 452h-166v130h815v-130h-508l-35 -298q36 31 99 53t125 24q170 3 268.5 -96t99.5 -274q1 -172 -102.5 -275t-305.5 -103q-98 0 -185 35t-145.5 109t-58.5 173l144 15q-1 -93 67 -150.5t178 -57.5q127 0 194 67.5t67 183.5q0 114 -65 182t-180 69
q-155 0 -228 -120z" />
    <glyph glyph-name="uni01BE" unicode="&#x1be;" horiz-adv-x="1080" 
d="M814 287q0 43 -20.5 77t-53 58t-72 47.5t-79.5 51.5t-72.5 62t-53 88t-20.5 122v171h-212v114h212v261h150v-261h214v-114h-214v-166q0 -55 20.5 -97.5t53 -69.5t72 -50.5t79 -47.5t72 -53t53 -75t20.5 -106q0 -141 -114 -230t-298 -89q-197 0 -313 106t-116 252h149
q3 -110 83 -172.5t197 -62.5q121 0 192 51t71 133z" />
    <glyph glyph-name="uni01BF" unicode="&#x1bf;" horiz-adv-x="1241" 
d="M316 971q116 161 321 161q199 0 310.5 -144.5t111.5 -387.5v-48q0 -143 -47 -254t-145 -195t-229 -145.5t-319 -117.5v-256h-150v1533h136zM319 -38q146 43 251.5 94.5t183.5 122t116.5 163t38.5 209.5v50q0 181 -81 293.5t-232 112.5q-175 0 -277 -174v-871z" />
    <glyph glyph-name="uni01C0" unicode="&#x1c0;" horiz-adv-x="489" 
d="M306 1498v-1498h-122v1498h122z" />
    <glyph glyph-name="uni01C1" unicode="&#x1c1;" horiz-adv-x="708" 
d="M243 1498v-1498h-122v1498h122zM515 1498v-1498h-122v1498h122z" />
    <glyph glyph-name="uni01C2" unicode="&#x1c2;" horiz-adv-x="516" 
d="M319 1498v-441h242v-105h-242v-400h245v-105h-245v-447h-122v447h-244v105h244v400h-246v105h246v441h122z" />
    <glyph glyph-name="uni01C3" unicode="&#x1c3;" horiz-adv-x="558" 
d="M353 1489l-10 -1062h-128l-9 1062h147zM279 -11q-43 0 -73.5 31t-30.5 74t30.5 74t73.5 31t74 -30.5t31 -74.5q0 -43 -31 -74t-74 -31z" />
    <glyph glyph-name="uni01C5" unicode="&#x1c5;" horiz-adv-x="2554" 
d="M634 0h-436v1489h462q319 0 498.5 -196.5t179.5 -544.5q-1 -353 -185.5 -550.5t-518.5 -197.5zM334 122h292q284 0 432.5 165t148.5 461q-1 292 -144 455.5t-411 163.5h-318v-1245zM1605 0v103l646 882v10h-618v122h784v-107l-634 -878v-10h658v-122h-836zM1837 1561
l174 -211l174 211h126v-10l-246 -293h-109l-245 293v10h126z" />
    <glyph glyph-name="uni01C6" unicode="&#x1c6;" horiz-adv-x="2149" 
d="M573 -23q-206 0 -333 159.5t-127 419.5q0 258 127.5 417t334.5 159q241 0 341 -228h12v585h130v-1489h-126v207h-16q-104 -230 -343 -230zM588 95q160 0 251 128t91 335q0 205 -91 331t-251 126q-109 0 -188 -61t-117.5 -163.5t-38.5 -232.5q0 -202 91 -332.5t253 -130.5
zM1199 0v103l645 882v10h-618v122h785v-107l-634 -878v-10h657v-122h-835zM1431 1561l173 -211l174 211h127v-10l-246 -293h-109l-246 293v10h127z" />
    <glyph glyph-name="uni01C7" unicode="&#x1c7;" horiz-adv-x="2248" 
d="M198 0v1489h136v-1367h710v-122h-846zM1914 1489h136v-1074q-1 -213 -110.5 -324t-292.5 -111q-176 0 -289.5 95.5t-112.5 250.5h134q-1 -99 75.5 -161.5t192.5 -62.5q123 0 194.5 78t72.5 235v1074z" />
    <glyph glyph-name="uni01C8" unicode="&#x1c8;" horiz-adv-x="1626" 
d="M198 0v1489h136v-1367h710v-122h-846zM1324 1117h131v-1225q0 -144 -79 -227.5t-220 -83.5q-19 0 -31 1l2 121h27q80 0 125 50t45 139v1225zM1388 1309q-40 0 -68 27.5t-28 65.5t28 65.5t68 27.5t69 -27.5t29 -65.5t-29 -65.5t-69 -27.5z" />
    <glyph glyph-name="uni01C9" unicode="&#x1c9;" horiz-adv-x="927" 
d="M649 1117h130v-1225q0 -144 -79 -227.5t-220 -83.5q-19 0 -31 1l2 121h28q80 0 125 50t45 139v1225zM300 1489v-1489h-129v1489h129zM713 1309q-40 0 -68.5 27.5t-28.5 65.5t28.5 65.5t68.5 27.5t68.5 -27.5t28.5 -65.5t-28.5 -65.5t-68.5 -27.5z" />
    <glyph glyph-name="uni01CA" unicode="&#x1ca;" horiz-adv-x="2650" 
d="M1358 1489v-1489h-133l-880 1247h-11v-1247h-136v1489h131l883 -1248h12v1248h134zM2318 1489h136v-1074q-1 -212 -111 -323.5t-293 -111.5q-176 0 -289 95.5t-112 250.5h134q-1 -99 75 -161.5t192 -62.5q123 0 195 78t73 235v1074z" />
    <glyph glyph-name="uni01CB" unicode="&#x1cb;" horiz-adv-x="2008" 
d="M1358 1489v-1489h-133l-880 1247h-11v-1247h-136v1489h131l883 -1248h12v1248h134zM1705 1117h131v-1225q0 -144 -79 -227.5t-220 -83.5q-19 0 -31 1l2 121h27q80 0 125 50t45 139v1225zM1769 1309q-40 0 -68 27.5t-28 65.5t28 65.5t68 27.5t69 -27.5t29 -65.5t-29 -65.5
t-69 -27.5z" />
    <glyph glyph-name="uni01CC" unicode="&#x1cc;" horiz-adv-x="1661" 
d="M300 698v-698h-129v1117h126v-175h11q40 88 124.5 139t204.5 51q173 0 276 -106.5t103 -301.5v-724h-129v716q0 137 -77 217t-206 80q-134 0 -219 -85.5t-85 -229.5zM1359 1117h130v-1225q0 -144 -78.5 -227.5t-219.5 -83.5q-19 0 -31 1l1 121h28q80 0 125 50t45 139
v1225zM1423 1309q-40 0 -68 27.5t-28 65.5t28 65.5t68 27.5t69 -27.5t29 -65.5t-29 -65.5t-69 -27.5z" />
    <glyph glyph-name="uni01CD" unicode="&#x1cd;" horiz-adv-x="1344" 
d="M200 0h-143l542 1489h146l542 -1489h-143l-159 449h-626zM403 571h538l-264 742h-10zM498 1933l174 -211l174 211h126v-10l-245 -292h-110l-245 292v10h126z" />
    <glyph glyph-name="uni01CE" unicode="&#x1ce;" horiz-adv-x="1139" 
d="M483 -25q-158 0 -262.5 90.5t-104.5 246.5q0 81 30.5 139t90.5 94t133.5 57t174.5 33q172 21 201 28q77 17 88 60q3 10 3 21v26q0 116 -68.5 181t-194.5 65q-114 0 -192 -50t-111 -128l-123 44q54 129 168 189.5t254 60.5q56 0 107.5 -9.5t105.5 -35.5t93.5 -66.5
t65 -108t25.5 -153.5v-759h-130v177h-8q-40 -84 -128.5 -143t-217.5 -59zM500 93q151 0 244 97t93 238v162q-40 -39 -292 -69q-149 -18 -224.5 -68t-75.5 -147q0 -99 71.5 -156t183.5 -57zM408 1561l174 -211l174 211h126v-10l-246 -293h-109l-246 293v10h127z" />
    <glyph glyph-name="uni01CF" unicode="&#x1cf;" horiz-adv-x="531" 
d="M334 1489v-1489h-136v1489h136zM92 1933l173 -211l174 211h127v-10l-246 -292h-109l-246 292v10h127z" />
    <glyph glyph-name="uni01D0" unicode="&#x1d0;" horiz-adv-x="474" 
d="M172 0v1117h131v-1117h-131zM65 1561l174 -211l173 211h127v-10l-246 -293h-109l-246 293v10h127z" />
    <glyph glyph-name="uni01D1" unicode="&#x1d1;" horiz-adv-x="1549" 
d="M1419 745q0 -346 -179.5 -555.5t-464.5 -209.5q-140 0 -259.5 54.5t-204 153t-132.5 242t-48 315.5q0 229 82.5 403.5t228.5 268t333 93.5q285 0 464.5 -209.5t179.5 -555.5zM1287 745q0 147 -38.5 268t-107 201.5t-162.5 124t-204 43.5q-225 0 -368.5 -171.5
t-143.5 -465.5t143 -465.5t369 -171.5q110 0 204 43.5t162.5 124t107 201.5t38.5 268zM601 1933l174 -211l173 211h127v-10l-246 -292h-109l-246 292v10h127z" />
    <glyph glyph-name="uni01D2" unicode="&#x1d2;" horiz-adv-x="1210" 
d="M605 -23q-217 0 -354.5 160.5t-137.5 415.5q0 257 137.5 418t354.5 161t354.5 -161t137.5 -418q0 -255 -137.5 -415.5t-354.5 -160.5zM605 95q112 0 195.5 63t125 165.5t41.5 229.5t-41 230.5t-125 167.5t-196 64t-195.5 -64t-124.5 -167.5t-41 -230.5t41 -229.5
t124.5 -165.5t195.5 -63zM431 1561l174 -211l174 211h126v-10l-245 -293h-109l-246 293v10h126z" />
    <glyph glyph-name="uni01D3" unicode="&#x1d3;" horiz-adv-x="1524" 
d="M1191 1489h136v-986q0 -230 -157.5 -379t-407.5 -149q-165 0 -294 68.5t-199.5 188.5t-70.5 271v986h136v-976q0 -180 117.5 -295t310.5 -115t311 115t118 295v976zM588 1933l174 -211l174 211h127v-10l-246 -292h-109l-246 292v10h126z" />
    <glyph glyph-name="uni01D4" unicode="&#x1d4;" horiz-adv-x="1181" 
d="M881 427v690h129v-1117h-129v185h-10q-41 -90 -127.5 -145t-205.5 -55q-166 0 -266.5 107t-100.5 301v724h129v-716q0 -130 76.5 -210t198.5 -80q58 0 112 21t97.5 59.5t70 100t26.5 135.5zM417 1561l174 -211l174 211h127v-10l-246 -293h-109l-246 293v10h126z" />
    <glyph glyph-name="uni01D5" unicode="&#x1d5;" horiz-adv-x="1524" 
d="M1191 1489h136v-986q0 -230 -157.5 -379t-407.5 -149q-165 0 -294 68.5t-199.5 188.5t-70.5 271v986h136v-976q0 -180 117.5 -295t310.5 -115t311 115t118 295v976zM1068 2172v-113h-609v113h609zM577 1681q-37 0 -65 28.5t-28 65.5q0 39 28 66t65 27q40 0 66.5 -26.5
t26.5 -66.5q0 -38 -27 -66t-66 -28zM949 1681q-37 0 -65 28.5t-28 65.5q0 39 28 66t65 27q40 0 66.5 -26.5t26.5 -66.5q0 -38 -27 -66t-66 -28z" />
    <glyph glyph-name="uni01D6" unicode="&#x1d6;" horiz-adv-x="1181" 
d="M881 427v690h129v-1117h-129v185h-10q-41 -90 -127.5 -145t-205.5 -55q-166 0 -266.5 107t-100.5 301v724h129v-716q0 -130 76.5 -210t198.5 -80q58 0 112 21t97.5 59.5t70 100t26.5 135.5zM897 1799v-112h-609v112h609zM406 1309q-37 0 -65 28t-28 65q0 39 28 66t65 27
q40 0 66.5 -26.5t26.5 -66.5q0 -37 -27 -65t-66 -28zM778 1309q-37 0 -65 28t-28 65q0 39 28 66t65 27q40 0 66.5 -26.5t26.5 -66.5q0 -37 -27 -65t-66 -28z" />
    <glyph glyph-name="uni01D7" unicode="&#x1d7;" horiz-adv-x="1524" 
d="M1191 1489h136v-986q0 -230 -157.5 -379t-407.5 -149q-165 0 -294 68.5t-199.5 188.5t-70.5 271v986h136v-976q0 -180 117.5 -295t310.5 -115t311 115t118 295v976zM701 1908l199 210h156l-236 -210h-119zM576 1614q-37 0 -65 28t-28 65q0 39 28 66t65 27
q40 0 66.5 -26.5t26.5 -66.5q0 -37 -27 -65t-66 -28zM948 1614q-37 0 -65 28t-28 65q0 39 28 66t65 27q40 0 66.5 -26.5t26.5 -66.5q0 -37 -27 -65t-66 -28z" />
    <glyph glyph-name="uni01D8" unicode="&#x1d8;" horiz-adv-x="1181" 
d="M881 427v690h129v-1117h-129v185h-10q-41 -90 -127.5 -145t-205.5 -55q-166 0 -266.5 107t-100.5 301v724h129v-716q0 -130 76.5 -210t198.5 -80q58 0 112 21t97.5 59.5t70 100t26.5 135.5zM531 1596l186 330h154l-224 -330h-116zM405 1309q-37 0 -65 28t-28 65
q0 39 28 66t65 27q40 0 66.5 -26.5t26.5 -66.5q0 -37 -27 -65t-66 -28zM777 1309q-37 0 -65 28t-28 65q0 39 28 66t65 27q40 0 67 -26.5t27 -66.5q0 -37 -27.5 -65t-66.5 -28z" />
    <glyph glyph-name="uni01D9" unicode="&#x1d9;" horiz-adv-x="1524" 
d="M1191 1489h136v-986q0 -230 -157.5 -379t-407.5 -149q-165 0 -294 68.5t-199.5 188.5t-70.5 271v986h136v-976q0 -180 117.5 -295t310.5 -115t311 115t118 295v976zM590 2089l169 -149l170 149h133v-13l-260 -227h-86l-257 225v15h131zM453 1750q-6 33 9.5 59t50.5 32
q37 6 62 -11t32 -50q7 -32 -9.5 -56t-52.5 -31q-37 -6 -61 10t-31 47zM917 1749q-7 32 9.5 57.5t52.5 32.5t60.5 -10t30.5 -49q7 -31 -8.5 -57t-51.5 -32q-37 -6 -62 10t-31 48z" />
    <glyph glyph-name="uni01DA" unicode="&#x1da;" horiz-adv-x="1181" 
d="M881 427v690h129v-1117h-129v185h-10q-41 -90 -127.5 -145t-205.5 -55q-166 0 -266.5 107t-100.5 301v724h129v-716q0 -130 76.5 -210t198.5 -80q58 0 112 21t97.5 59.5t70 100t26.5 135.5zM422 1833l169 -187l170 187h133v-10l-260 -275h-86l-257 275v10h131zM720 1377
q0 38 25 64.5t68 26.5t68 -26.5t25 -64.5q0 -37 -25 -62.5t-68 -25.5t-68 25.5t-25 62.5zM284 1379q0 37 24.5 63t66.5 26q43 0 68 -25.5t25 -63.5t-25 -62.5t-68 -24.5q-42 0 -66.5 24.5t-24.5 62.5z" />
    <glyph glyph-name="uni01DB" unicode="&#x1db;" horiz-adv-x="1524" 
d="M1191 1489h136v-986q0 -230 -157.5 -379t-407.5 -149q-165 0 -294 68.5t-199.5 188.5t-70.5 271v986h136v-976q0 -180 117.5 -295t310.5 -115t311 115t118 295v976zM468 1751q0 39 25 64.5t67 25.5q43 0 68 -25.5t25 -64.5q0 -38 -25 -63t-67 -25q-43 0 -68 25.5
t-25 62.5zM695 2016l129 -217h-101l-169 217h141zM874 1750q0 38 25 63.5t68 25.5q42 0 66.5 -25t24.5 -63q0 -37 -24.5 -63.5t-66.5 -26.5q-43 0 -68 25.5t-25 63.5z" />
    <glyph glyph-name="uni01DC" unicode="&#x1dc;" horiz-adv-x="1181" 
d="M881 427v690h129v-1117h-129v185h-10q-41 -90 -127.5 -145t-205.5 -55q-166 0 -266.5 107t-100.5 301v724h129v-716q0 -130 76.5 -210t198.5 -80q58 0 112 21t97.5 59.5t70 100t26.5 135.5zM491 1775l188 -278h-131l-237 278h180zM692 1377q0 38 25 64.5t68 26.5
t68 -26.5t25 -64.5q0 -37 -25 -62.5t-68 -25.5t-68 25.5t-25 62.5zM313 1379q0 37 24.5 63t66.5 26q43 0 68 -25.5t25 -63.5t-25 -62.5t-68 -24.5q-42 0 -66.5 24.5t-24.5 62.5z" />
    <glyph glyph-name="uni01DD" unicode="&#x1dd;" horiz-adv-x="1189" 
d="M567 1140q232 0 370.5 -159t138.5 -416q0 -254 -137 -417t-353 -163q-93 0 -176.5 34t-150.5 99.5t-106.5 172.5t-39.5 242v64h832q-5 194 -106.5 309.5t-271.5 115.5q-113 0 -190.5 -51t-112.5 -132l-123 40q41 112 153.5 186.5t272.5 74.5zM945 483h-699
q0 -163 95.5 -271.5t244.5 -108.5t248.5 110t110.5 270z" />
    <glyph glyph-name="uni01DE" unicode="&#x1de;" horiz-adv-x="1344" 
d="M200 0h-143l542 1489h146l542 -1489h-143l-159 449h-626zM403 571h538l-264 742h-10zM977 2172v-113h-608v113h608zM487 1681q-37 0 -65.5 28.5t-28.5 65.5q0 39 28 66t66 27q40 0 66.5 -26.5t26.5 -66.5q0 -38 -27 -66t-66 -28zM859 1681q-37 0 -65 28.5t-28 65.5
q0 39 28 66t65 27q40 0 66.5 -26.5t26.5 -66.5q0 -38 -27 -66t-66 -28z" />
    <glyph glyph-name="uni01DF" unicode="&#x1df;" horiz-adv-x="1139" 
d="M483 -25q-158 0 -262.5 90.5t-104.5 246.5q0 81 30.5 139t90.5 94t133.5 57t174.5 33q172 21 201 28q77 17 88 60q3 10 3 21v26q0 116 -68.5 181t-194.5 65q-114 0 -192 -50t-111 -128l-123 44q54 129 168 189.5t254 60.5q56 0 107.5 -9.5t105.5 -35.5t93.5 -66.5
t65 -108t25.5 -153.5v-759h-130v177h-8q-40 -84 -128.5 -143t-217.5 -59zM500 93q151 0 244 97t93 238v162q-40 -39 -292 -69q-149 -18 -224.5 -68t-75.5 -147q0 -99 71.5 -156t183.5 -57zM887 1799v-112h-608v112h608zM396 1309q-37 0 -65 28t-28 65q0 39 28 66t65 27
q40 0 66.5 -26.5t26.5 -66.5q0 -37 -27 -65t-66 -28zM769 1309q-37 0 -65 28t-28 65q0 39 28 66t65 27q40 0 66.5 -26.5t26.5 -66.5q0 -37 -27 -65t-66 -28z" />
    <glyph glyph-name="uni01E0" unicode="&#x1e0;" horiz-adv-x="1344" 
d="M200 0h-143l542 1489h146l542 -1489h-143l-159 449h-626zM403 571h538l-264 742h-10zM976 2172v-113h-609v113h609zM672 1681q-40 0 -68.5 28t-28.5 66q0 39 28.5 66t68.5 27t68.5 -27t28.5 -66q0 -38 -28.5 -66t-68.5 -28z" />
    <glyph glyph-name="uni01E1" unicode="&#x1e1;" horiz-adv-x="1139" 
d="M483 -25q-158 0 -262.5 90.5t-104.5 246.5q0 81 30.5 139t90.5 94t133.5 57t174.5 33q172 21 201 28q77 17 88 60q3 10 3 21v26q0 116 -68.5 181t-194.5 65q-114 0 -192 -50t-111 -128l-123 44q54 129 168 189.5t254 60.5q56 0 107.5 -9.5t105.5 -35.5t93.5 -66.5
t65 -108t25.5 -153.5v-759h-130v177h-8q-40 -84 -128.5 -143t-217.5 -59zM500 93q151 0 244 97t93 238v162q-40 -39 -292 -69q-149 -18 -224.5 -68t-75.5 -147q0 -99 71.5 -156t183.5 -57zM888 1805v-113h-609v113h609zM584 1315q-40 0 -68.5 27.5t-28.5 65.5q0 39 28.5 66
t68.5 27t68.5 -27t28.5 -66q0 -38 -28.5 -65.5t-68.5 -27.5z" />
    <glyph glyph-name="uni01E2" unicode="&#x1e2;" horiz-adv-x="2006" 
d="M57 0l734 1489h1062v-122h-728v-560h682v-123h-682v-562h743v-122h-879v449h-565l-217 -449h-150zM483 571h506v796h-120zM1606 1829v-113h-609v113h609z" />
    <glyph glyph-name="uni01E3" unicode="&#x1e3;" horiz-adv-x="1891" 
d="M1326 -23q-154 0 -268 71t-166 193q-41 -123 -155 -194.5t-254 -71.5q-158 0 -262.5 90.5t-104.5 246.5q0 81 30.5 139t90.5 94t133.5 57t174.5 33q172 21 201 28q77 17 88 60q3 10 3 21v26q0 115 -68.5 180.5t-194.5 65.5q-114 0 -192 -50t-111 -128l-123 44
q54 129 168 189.5t254 60.5q74 0 141 -18.5t129 -67t93 -122.5q61 99 156.5 153.5t216.5 54.5q93 0 176 -34t150 -99.5t106.5 -172.5t39.5 -242v-64h-832q5 -194 107.5 -309.5t272.5 -115.5q113 0 190 51.5t112 132.5l123 -40q-42 -112 -153.5 -187t-271.5 -75zM500 93
q151 0 244 97t93 238v162q-40 -39 -292 -69q-149 -18 -224.5 -68t-75.5 -147q0 -99 71.5 -156t183.5 -57zM948 634h699q0 163 -96 272t-245 109t-248 -110t-110 -271zM1242 1457v-113h-609v113h609z" />
    <glyph glyph-name="uni01E4" unicode="&#x1e4;" horiz-adv-x="1518" 
d="M1481 439v-113h-154q-67 -163 -211.5 -254.5t-335.5 -91.5q-293 0 -471 208.5t-178 556.5q0 347 177.5 556t462.5 209q119 0 223.5 -39t180 -105.5t125.5 -154.5t68 -187h-140q-43 157 -162 257.5t-295 100.5q-223 0 -365.5 -171.5t-142.5 -465.5q0 -295 143.5 -466
t373.5 -171q132 0 235.5 57t162.5 161h-366v113h412q20 72 22 160h-434v122h566v-122q0 -80 -16 -160h119z" />
    <glyph glyph-name="uni01E5" unicode="&#x1e5;" horiz-adv-x="1230" 
d="M597 -442q-163 0 -273.5 61t-162.5 163l106 70q98 -178 330 -178q154 0 242.5 77t88.5 228v252h-12q-18 -42 -44.5 -78t-67 -69.5t-100 -52.5t-131.5 -19q-205 0 -332.5 148t-127.5 401q0 255 127.5 413t334.5 158q239 0 344 -228h13v213h126v-502h243v-105h-243v-539
q0 -138 -61 -232.5t-162.5 -137.5t-237.5 -43zM588 130q150 0 239.5 100.5t101.5 279.5h-239v105h239q-12 181 -101.5 290.5t-239.5 109.5q-162 0 -253 -127t-91 -324q0 -196 90.5 -315t253.5 -119z" />
    <glyph glyph-name="uni01E6" unicode="&#x1e6;" horiz-adv-x="1518" 
d="M1228 1024q-43 157 -162 257.5t-295 100.5q-223 0 -365.5 -171.5t-142.5 -465.5q0 -295 143.5 -466t373.5 -171q206 0 334.5 132.5t131.5 358.5h-434v122h566v-122q0 -188 -77 -329t-212 -215.5t-309 -74.5q-293 0 -471 208.5t-178 556.5q0 347 177.5 556t462.5 209
q119 0 223.5 -39t180 -105.5t125.5 -154.5t68 -187h-140zM594 1933l174 -211l174 211h126v-10l-245 -292h-110l-245 292v10h126z" />
    <glyph glyph-name="uni01E7" unicode="&#x1e7;" horiz-adv-x="1230" 
d="M597 -442q-163 0 -273.5 61t-162.5 163l106 70q98 -178 330 -178q154 0 242.5 77t88.5 228v252h-12q-18 -42 -44.5 -78t-67 -69.5t-100 -52.5t-131.5 -19q-205 0 -332.5 148t-127.5 401q0 255 127.5 413t334.5 158q239 0 344 -228h13v213h126v-1146q0 -138 -61 -232.5
t-162.5 -137.5t-237.5 -43zM588 130q161 0 251.5 115.5t90.5 318.5q0 201 -90.5 326t-251.5 125q-162 0 -253 -127t-91 -324q0 -196 90.5 -315t253.5 -119zM442 1561l174 -211l174 211h126v-10l-245 -293h-110l-245 293v10h126z" />
    <glyph glyph-name="uni01E8" unicode="&#x1e8;" horiz-adv-x="1311" 
d="M198 0v1489h136v-802h13l727 802h179l-636 -688l633 -801h-166l-552 706l-198 -222v-484h-136zM489 1933l174 -211l173 211h127v-10l-246 -292h-109l-246 292v10h127z" />
    <glyph glyph-name="uni01E9" unicode="&#x1e9;" horiz-adv-x="1075" 
d="M171 0v1489h129v-898h16l524 526h164l-478 -478l507 -639h-166l-438 553l-129 -120v-433h-129zM63 1933l173 -211l174 211h127v-10l-246 -292h-109l-246 292v10h127z" />
    <glyph glyph-name="uni01EA" unicode="&#x1ea;" horiz-adv-x="1549" 
d="M1419 745q0 -316 -151 -520t-399 -239q-75 -63 -114 -116t-39 -111q0 -88 91 -88q57 0 102 29l17 -97q-68 -45 -148 -45q-87 0 -141 48.5t-54 136.5q0 131 143 238q-266 19 -430.5 226.5t-164.5 537.5q0 229 82.5 403.5t228.5 268t333 93.5q285 0 464.5 -209.5
t179.5 -555.5zM1287 745q0 147 -38.5 268t-107 201.5t-162.5 124t-204 43.5q-225 0 -368.5 -171.5t-143.5 -465.5t143 -465.5t369 -171.5q110 0 204 43.5t162.5 124t107 201.5t38.5 268z" />
    <glyph glyph-name="uni01EB" unicode="&#x1eb;" horiz-adv-x="1210" 
d="M604 -439q-87 0 -141 48.5t-54 136.5q0 129 136 234q-194 23 -313 180t-119 393q0 257 137.5 418t354.5 161t354.5 -161t137.5 -418q0 -229 -112.5 -384t-297.5 -186q-71 -61 -108.5 -113t-37.5 -108q0 -88 92 -88q55 0 102 30l16 -97q-69 -46 -147 -46zM605 95
q112 0 195.5 63t125 165.5t41.5 229.5t-41 230.5t-125 167.5t-196 64t-195.5 -64t-124.5 -167.5t-41 -230.5t41 -229.5t124.5 -165.5t195.5 -63z" />
    <glyph glyph-name="uni01EC" unicode="&#x1ec;" horiz-adv-x="1549" 
d="M1419 745q0 -316 -151 -520t-399 -239q-75 -63 -114 -116t-39 -111q0 -88 91 -88q57 0 102 29l17 -97q-68 -45 -148 -45q-87 0 -141 48.5t-54 136.5q0 131 143 238q-266 19 -430.5 226.5t-164.5 537.5q0 229 82.5 403.5t228.5 268t333 93.5q285 0 464.5 -209.5
t179.5 -555.5zM1287 745q0 147 -38.5 268t-107 201.5t-162.5 124t-204 43.5q-225 0 -368.5 -171.5t-143.5 -465.5t143 -465.5t369 -171.5q110 0 204 43.5t162.5 124t107 201.5t38.5 268zM1079 1829v-113h-608v113h608z" />
    <glyph glyph-name="uni01ED" unicode="&#x1ed;" horiz-adv-x="1210" 
d="M604 -439q-87 0 -141 48.5t-54 136.5q0 129 136 234q-194 23 -313 180t-119 393q0 257 137.5 418t354.5 161t354.5 -161t137.5 -418q0 -229 -112.5 -384t-297.5 -186q-71 -61 -108.5 -113t-37.5 -108q0 -88 92 -88q55 0 102 30l16 -97q-69 -46 -147 -46zM605 95
q112 0 195.5 63t125 165.5t41.5 229.5t-41 230.5t-125 167.5t-196 64t-195.5 -64t-124.5 -167.5t-41 -230.5t41 -229.5t124.5 -165.5t195.5 -63zM909 1457v-113h-609v113h609z" />
    <glyph glyph-name="uni01EE" unicode="&#x1ee;" horiz-adv-x="1404" 
d="M108 67h137q7 -168 134.5 -276t310.5 -108q200 0 325 137t125 347q0 226 -150.5 365t-390.5 143h-96v116l546 574h-859v124h1043v-99l-560 -593v-12q266 -11 433.5 -183t167.5 -434q0 -170 -70.5 -308t-205 -219.5t-309.5 -81.5q-158 0 -288.5 64t-209 180.5t-83.5 263.5
zM528 1933l174 -211l174 211h126v-10l-246 -292h-109l-246 292v10h127z" />
    <glyph glyph-name="uni01EF" unicode="&#x1ef;" horiz-adv-x="1266" 
d="M142 0h137q8 -124 105.5 -197.5t241.5 -73.5q156 0 253.5 86.5t97.5 228.5q0 147 -108 240.5t-321 93.5h-80v113l404 494v10h-662v122h850v-100l-425 -522v-9q208 -9 342 -131.5t134 -310.5t-135.5 -312.5t-350.5 -124.5q-200 0 -337 108t-146 285zM460 1561l173 -211
l174 211h127v-10l-246 -293h-109l-246 293v10h127z" />
    <glyph glyph-name="uni01F0" unicode="&#x1f0;" horiz-adv-x="474" 
d="M172 1117h131v-1225q0 -144 -79 -227.5t-220 -83.5q-19 0 -31 1l2 121h27q80 0 125 50t45 139v1225zM63 1561l173 -211l174 211h127v-10l-246 -293h-109l-246 293v10h127z" />
    <glyph glyph-name="uni01F1" unicode="&#x1f1;" horiz-adv-x="2735" 
d="M634 0h-436v1489h462q319 0 498.5 -196.5t179.5 -544.5q-1 -353 -185.5 -550.5t-518.5 -197.5zM334 122h292q284 0 432.5 165t148.5 461q-1 292 -144 455.5t-411 163.5h-318v-1245zM1608 0v103l827 1264h-831v122h993v-102l-828 -1265h835v-122h-996z" />
    <glyph glyph-name="uni01F2" unicode="&#x1f2;" horiz-adv-x="2554" 
d="M634 0h-436v1489h462q319 0 498.5 -196.5t179.5 -544.5q-1 -353 -185.5 -550.5t-518.5 -197.5zM334 122h292q284 0 432.5 165t148.5 461q-1 292 -144 455.5t-411 163.5h-318v-1245zM1605 0v103l646 882v10h-618v122h784v-107l-634 -878v-10h658v-122h-836z" />
    <glyph glyph-name="uni01F3" unicode="&#x1f3;" horiz-adv-x="2149" 
d="M573 -23q-206 0 -333 159.5t-127 419.5q0 258 127.5 417t334.5 159q241 0 341 -228h12v585h130v-1489h-126v207h-16q-104 -230 -343 -230zM588 95q160 0 251 128t91 335q0 205 -91 331t-251 126q-109 0 -188 -61t-117.5 -163.5t-38.5 -232.5q0 -202 91 -332.5t253 -130.5
zM1199 0v103l645 882v10h-618v122h785v-107l-634 -878v-10h657v-122h-835z" />
    <glyph glyph-name="uni01F4" unicode="&#x1f4;" horiz-adv-x="1518" 
d="M1228 1024q-43 157 -162 257.5t-295 100.5q-223 0 -365.5 -171.5t-142.5 -465.5q0 -295 143.5 -466t373.5 -171q206 0 334.5 132.5t131.5 358.5h-434v122h566v-122q0 -188 -77 -329t-212 -215.5t-309 -74.5q-293 0 -471 208.5t-178 556.5q0 347 177.5 556t462.5 209
q119 0 223.5 -39t180 -105.5t125.5 -154.5t68 -187h-140zM708 1644l186 331h153l-223 -331h-116z" />
    <glyph glyph-name="uni01F5" unicode="&#x1f5;" horiz-adv-x="1230" 
d="M597 -442q-163 0 -273.5 61t-162.5 163l106 70q98 -178 330 -178q154 0 242.5 77t88.5 228v252h-12q-18 -42 -44.5 -78t-67 -69.5t-100 -52.5t-131.5 -19q-205 0 -332.5 148t-127.5 401q0 255 127.5 413t334.5 158q239 0 344 -228h13v213h126v-1146q0 -138 -61 -232.5
t-162.5 -137.5t-237.5 -43zM588 130q161 0 251.5 115.5t90.5 318.5q0 201 -90.5 326t-251.5 125q-162 0 -253 -127t-91 -324q0 -196 90.5 -315t253.5 -119zM555 1272l186 330h154l-224 -330h-116z" />
    <glyph glyph-name="uni01F6" unicode="&#x1f6;" horiz-adv-x="2277" 
d="M1647 -21q-215 0 -341.5 123.5t-126.5 359.5v222h-845v-684h-136v1489h136v-682h845v682h136v-1027q0 -180 85.5 -268.5t246.5 -88.5q323 0 323 357v665h136v-665q0 -240 -124 -361.5t-335 -121.5z" />
    <glyph glyph-name="uni01F7" unicode="&#x1f7;" horiz-adv-x="1187" 
d="M249 1489v-43q120 64 287 64q265 0 411 -157.5t146 -471.5v-41q0 -245 -106.5 -451.5t-297 -345t-440.5 -193.5v-269h-155v1908h155zM249 -21q137 35 250.5 99t194.5 146t136.5 182t82 208.5t26.5 224.5v45q0 257 -101 377.5t-301 120.5q-199 0 -288 -138v-1265z" />
    <glyph glyph-name="uni01F8" unicode="&#x1f8;" horiz-adv-x="1555" 
d="M1358 1489v-1489h-133l-880 1247h-11v-1247h-136v1489h131l883 -1248h12v1248h134zM722 1644l-223 331h153l187 -331h-117z" />
    <glyph glyph-name="uni01F9" unicode="&#x1f9;" horiz-adv-x="1186" 
d="M300 698v-698h-129v1117h126v-175h11q40 88 124.5 139t204.5 51q173 0 276 -106.5t103 -301.5v-724h-129v716q0 137 -77 217t-206 80q-134 0 -219 -85.5t-85 -229.5zM539 1272l-223 330h153l186 -330h-116z" />
    <glyph glyph-name="uni01FA" unicode="&#x1fa;" horiz-adv-x="1344" 
d="M200 0h-143l542 1489h146l542 -1489h-143l-159 449h-626zM403 571h538l-264 742h-10zM672 1582q-81 0 -138.5 54.5t-57.5 131.5t57.5 131t138.5 54t138.5 -54t57.5 -131t-57.5 -131.5t-138.5 -54.5zM672 1663q47 0 78.5 30.5t31.5 74.5t-31.5 74.5t-78.5 30.5t-78 -30.5
t-31 -74.5t31.5 -74.5t77.5 -30.5zM615 2012l136 167h141l-168 -167h-109z" />
    <glyph glyph-name="uni01FB" unicode="&#x1fb;" horiz-adv-x="1139" 
d="M483 -25q-158 0 -262.5 90.5t-104.5 246.5q0 81 30.5 139t90.5 94t133.5 57t174.5 33q172 21 201 28q77 17 88 60q3 10 3 21v26q0 116 -68.5 181t-194.5 65q-114 0 -192 -50t-111 -128l-123 44q54 129 168 189.5t254 60.5q56 0 107.5 -9.5t105.5 -35.5t93.5 -66.5
t65 -108t25.5 -153.5v-759h-130v177h-8q-40 -84 -128.5 -143t-217.5 -59zM500 93q151 0 244 97t93 238v162q-40 -39 -292 -69q-149 -18 -224.5 -68t-75.5 -147q0 -99 71.5 -156t183.5 -57zM582 1209q-81 0 -138.5 55t-57.5 132t57.5 131t138.5 54t138.5 -54t57.5 -131
t-57.5 -132t-138.5 -55zM582 1290q47 0 78.5 31t31.5 75t-31.5 74t-78.5 30t-78 -30t-31 -74t31.5 -75t77.5 -31zM524 1640l136 167h141l-167 -167h-110z" />
    <glyph glyph-name="uni01FC" unicode="&#x1fc;" horiz-adv-x="2006" 
d="M57 0l734 1489h1062v-122h-728v-560h682v-123h-682v-562h743v-122h-879v449h-565l-217 -449h-150zM483 571h506v796h-120zM1241 1644l186 331h153l-223 -331h-116z" />
    <glyph glyph-name="uni01FD" unicode="&#x1fd;" horiz-adv-x="1891" 
d="M1326 -23q-154 0 -268 71t-166 193q-41 -123 -155 -194.5t-254 -71.5q-158 0 -262.5 90.5t-104.5 246.5q0 81 30.5 139t90.5 94t133.5 57t174.5 33q172 21 201 28q77 17 88 60q3 10 3 21v26q0 115 -68.5 180.5t-194.5 65.5q-114 0 -192 -50t-111 -128l-123 44
q54 129 168 189.5t254 60.5q74 0 141 -18.5t129 -67t93 -122.5q61 99 156.5 153.5t216.5 54.5q93 0 176 -34t150 -99.5t106.5 -172.5t39.5 -242v-64h-832q5 -194 107.5 -309.5t272.5 -115.5q113 0 190 51.5t112 132.5l123 -40q-42 -112 -153.5 -187t-271.5 -75zM500 93
q151 0 244 97t93 238v162q-40 -39 -292 -69q-149 -18 -224.5 -68t-75.5 -147q0 -99 71.5 -156t183.5 -57zM948 634h699q0 163 -96 272t-245 109t-248 -110t-110 -271zM877 1272l186 330h154l-224 -330h-116z" />
    <glyph glyph-name="uni01FE" unicode="&#x1fe;" horiz-adv-x="1549" 
d="M303 -52l-86 59l110 163q-196 214 -196 575q0 229 82.5 403.5t228.5 268t333 93.5q209 0 368 -119l99 149l87 -59l-107 -160q197 -213 197 -576q0 -346 -179.5 -555.5t-464.5 -209.5q-213 0 -370 120zM1287 745q0 287 -141 462l-668 -999q126 -100 297 -100
q110 0 204 43.5t162.5 124t107 201.5t38.5 268zM402 284l669 998q-128 100 -296 100q-225 0 -368.5 -171.5t-143.5 -465.5q0 -287 139 -461zM714 1644l186 331h154l-223 -331h-117z" />
    <glyph glyph-name="uni01FF" unicode="&#x1ff;" horiz-adv-x="1210" 
d="M260 -50l-88 59l84 123q-143 162 -143 422q0 257 137.5 418t354.5 161q152 0 270 -84l76 112l87 -58l-84 -125q143 -162 143 -424q0 -255 -137.5 -416t-354.5 -161q-152 0 -270 84zM605 96q112 0 195.5 63t125 165.5t41.5 229.5q0 187 -87 314l-476 -705q88 -67 201 -67z
M329 242l478 706q-86 67 -202 67q-112 0 -195.5 -63.5t-124.5 -167t-41 -230.5q0 -188 85 -312zM545 1273l186 330h153l-223 -330h-116z" />
    <glyph glyph-name="uni0200" unicode="&#x200;" horiz-adv-x="1344" 
d="M200 0h-143l542 1489h146l542 -1489h-143l-159 449h-626zM403 571h538l-264 742h-10zM751 1644l-180 331h164l131 -331h-115zM492 1644l-237 331h162l191 -331h-116z" />
    <glyph glyph-name="uni0201" unicode="&#x201;" horiz-adv-x="1139" 
d="M483 -25q-158 0 -262.5 90.5t-104.5 246.5q0 81 30.5 139t90.5 94t133.5 57t174.5 33q172 21 201 28q77 17 88 60q3 10 3 21v26q0 116 -68.5 181t-194.5 65q-114 0 -192 -50t-111 -128l-123 44q54 129 168 189.5t254 60.5q56 0 107.5 -9.5t105.5 -35.5t93.5 -66.5
t65 -108t25.5 -153.5v-759h-130v177h-8q-40 -84 -128.5 -143t-217.5 -59zM500 93q151 0 244 97t93 238v162q-40 -39 -292 -69q-149 -18 -224.5 -68t-75.5 -147q0 -99 71.5 -156t183.5 -57zM660 1272l-179 330h164l131 -330h-116zM401 1272l-236 330h162l191 -330h-117z" />
    <glyph glyph-name="uni0202" unicode="&#x202;" horiz-adv-x="1344" 
d="M200 0h-143l542 1489h146l542 -1489h-143l-159 449h-626zM403 571h538l-264 742h-10zM417 1700q0 106 69 171t187 65q117 0 185.5 -65t68.5 -171h-122q0 62 -33 99.5t-99 37.5q-68 0 -100.5 -38t-32.5 -99h-123z" />
    <glyph glyph-name="uni0203" unicode="&#x203;" horiz-adv-x="1139" 
d="M483 -25q-158 0 -262.5 90.5t-104.5 246.5q0 81 30.5 139t90.5 94t133.5 57t174.5 33q172 21 201 28q77 17 88 60q3 10 3 21v26q0 116 -68.5 181t-194.5 65q-114 0 -192 -50t-111 -128l-123 44q54 129 168 189.5t254 60.5q56 0 107.5 -9.5t105.5 -35.5t93.5 -66.5
t65 -108t25.5 -153.5v-759h-130v177h-8q-40 -84 -128.5 -143t-217.5 -59zM500 93q151 0 244 97t93 238v162q-40 -39 -292 -69q-149 -18 -224.5 -68t-75.5 -147q0 -99 71.5 -156t183.5 -57zM327 1328q0 106 69 171t187 65q117 0 185.5 -65t68.5 -171h-122q0 62 -33 99.5
t-99 37.5q-68 0 -101 -38t-33 -99h-122z" />
    <glyph glyph-name="uni0204" unicode="&#x204;" horiz-adv-x="1215" 
d="M198 0v1489h864v-122h-728v-560h682v-123h-682v-562h742v-122h-878zM709 1644l-180 331h165l131 -331h-116zM450 1644l-236 331h162l191 -331h-117z" />
    <glyph glyph-name="uni0205" unicode="&#x205;" horiz-adv-x="1189" 
d="M623 -23q-233 0 -371.5 159t-138.5 416q0 254 137 417t353 163q93 0 176.5 -34t150.5 -99.5t106.5 -172.5t39.5 -242v-64h-832q5 -194 107 -309.5t272 -115.5q113 0 190 51.5t112 132.5l123 -40q-41 -112 -153 -187t-272 -75zM244 634h699q0 163 -95.5 272t-244.5 109
t-248.5 -110t-110.5 -271zM675 1272l-180 330h165l131 -330h-116zM416 1272l-236 330h162l190 -330h-116z" />
    <glyph glyph-name="uni0206" unicode="&#x206;" horiz-adv-x="1215" 
d="M198 0v1489h864v-122h-728v-560h682v-123h-682v-562h742v-122h-878zM376 1700q0 106 69 171t187 65q117 0 185.5 -65t68.5 -171h-122q0 62 -33 99.5t-99 37.5q-68 0 -101 -38t-33 -99h-122z" />
    <glyph glyph-name="uni0207" unicode="&#x207;" horiz-adv-x="1189" 
d="M623 -23q-233 0 -371.5 159t-138.5 416q0 254 137 417t353 163q93 0 176.5 -34t150.5 -99.5t106.5 -172.5t39.5 -242v-64h-832q5 -194 107 -309.5t272 -115.5q113 0 190 51.5t112 132.5l123 -40q-41 -112 -153 -187t-272 -75zM244 634h699q0 163 -95.5 272t-244.5 109
t-248.5 -110t-110.5 -271zM342 1328q0 106 69 171t187 65q117 0 185.5 -65t68.5 -171h-123q0 62 -32.5 99.5t-98.5 37.5q-68 0 -101 -38t-33 -99h-122z" />
    <glyph glyph-name="uni0208" unicode="&#x208;" horiz-adv-x="531" 
d="M334 1489v-1489h-136v1489h136zM344 1644l-180 331h165l131 -331h-116zM85 1644l-236 331h162l190 -331h-116z" />
    <glyph glyph-name="uni0209" unicode="&#x209;" horiz-adv-x="474" 
d="M172 0v1117h131v-1117h-131zM317 1272l-180 330h165l131 -330h-116zM58 1272l-236 330h162l191 -330h-117z" />
    <glyph glyph-name="uni020A" unicode="&#x20a;" horiz-adv-x="531" 
d="M334 1489v-1489h-136v1489h136zM12 1700q0 106 69 171t187 65q117 0 185 -65t68 -171h-122q0 62 -32.5 99.5t-98.5 37.5q-68 0 -101 -38t-33 -99h-122z" />
    <glyph glyph-name="uni020B" unicode="&#x20b;" horiz-adv-x="474" 
d="M172 0v1117h131v-1117h-131zM-16 1328q0 106 69 171t187 65q117 0 185.5 -65t68.5 -171h-122q0 62 -33 99.5t-99 37.5q-68 0 -101 -38t-33 -99h-122z" />
    <glyph glyph-name="uni020C" unicode="&#x20c;" horiz-adv-x="1549" 
d="M1419 745q0 -346 -179.5 -555.5t-464.5 -209.5q-140 0 -259.5 54.5t-204 153t-132.5 242t-48 315.5q0 229 82.5 403.5t228.5 268t333 93.5q285 0 464.5 -209.5t179.5 -555.5zM1287 745q0 147 -38.5 268t-107 201.5t-162.5 124t-204 43.5q-225 0 -368.5 -171.5
t-143.5 -465.5t143 -465.5t369 -171.5q110 0 204 43.5t162.5 124t107 201.5t38.5 268zM853 1644l-180 331h165l131 -331h-116zM594 1644l-236 331h162l191 -331h-117z" />
    <glyph glyph-name="uni020D" unicode="&#x20d;" horiz-adv-x="1210" 
d="M605 -23q-217 0 -354.5 160.5t-137.5 415.5q0 257 137.5 418t354.5 161t354.5 -161t137.5 -418q0 -255 -137.5 -415.5t-354.5 -160.5zM605 95q112 0 195.5 63t125 165.5t41.5 229.5t-41 230.5t-125 167.5t-196 64t-195.5 -64t-124.5 -167.5t-41 -230.5t41 -229.5
t124.5 -165.5t195.5 -63zM684 1272l-180 330h164l131 -330h-115zM425 1272l-237 330h163l190 -330h-116z" />
    <glyph glyph-name="uni020E" unicode="&#x20e;" horiz-adv-x="1549" 
d="M1419 745q0 -346 -179.5 -555.5t-464.5 -209.5q-140 0 -259.5 54.5t-204 153t-132.5 242t-48 315.5q0 229 82.5 403.5t228.5 268t333 93.5q285 0 464.5 -209.5t179.5 -555.5zM1287 745q0 147 -38.5 268t-107 201.5t-162.5 124t-204 43.5q-225 0 -368.5 -171.5
t-143.5 -465.5t143 -465.5t369 -171.5q110 0 204 43.5t162.5 124t107 201.5t38.5 268zM521 1700q0 106 69 171t187 65q117 0 185.5 -65t68.5 -171h-123q0 62 -32.5 99.5t-98.5 37.5q-68 0 -101 -38t-33 -99h-122z" />
    <glyph glyph-name="uni020F" unicode="&#x20f;" horiz-adv-x="1210" 
d="M605 -23q-217 0 -354.5 160.5t-137.5 415.5q0 257 137.5 418t354.5 161t354.5 -161t137.5 -418q0 -255 -137.5 -415.5t-354.5 -160.5zM605 95q112 0 195.5 63t125 165.5t41.5 229.5t-41 230.5t-125 167.5t-196 64t-195.5 -64t-124.5 -167.5t-41 -230.5t41 -229.5
t124.5 -165.5t195.5 -63zM351 1328q0 106 69 171t187 65q117 0 185 -65t68 -171h-122q0 62 -32.5 99.5t-98.5 37.5q-68 0 -101 -38t-33 -99h-122z" />
    <glyph glyph-name="uni0210" unicode="&#x210;" horiz-adv-x="1292" 
d="M198 0v1489h481q231 0 355.5 -122t124.5 -323q0 -151 -72.5 -259.5t-209.5 -153.5l344 -631h-157l-327 604q-36 -2 -56 -2h-347v-602h-136zM334 727h343q171 0 259.5 84t88.5 233q0 151 -88.5 237t-261.5 86h-341v-640zM718 1644l-180 331h165l130 -331h-115zM459 1644
l-236 331h162l190 -331h-116z" />
    <glyph glyph-name="uni0211" unicode="&#x211;" horiz-adv-x="730" 
d="M171 0v1117h126v-172h9q34 85 117.5 137t188.5 52q34 0 68 -2v-132q-3 0 -16.5 2t-30 3.5t-31.5 1.5q-131 0 -216.5 -81t-85.5 -205v-721h-129zM503 1272l-180 330h164l131 -330h-115zM244 1272l-237 330h162l191 -330h-116z" />
    <glyph glyph-name="uni0212" unicode="&#x212;" horiz-adv-x="1292" 
d="M198 0v1489h481q231 0 355.5 -122t124.5 -323q0 -151 -72.5 -259.5t-209.5 -153.5l344 -631h-157l-327 604q-36 -2 -56 -2h-347v-602h-136zM334 727h343q171 0 259.5 84t88.5 233q0 151 -88.5 237t-261.5 86h-341v-640zM385 1700q0 106 69 171t187 65q117 0 185.5 -65
t68.5 -171h-123q0 62 -32.5 99.5t-98.5 37.5q-68 0 -101 -38t-33 -99h-122z" />
    <glyph glyph-name="uni0213" unicode="&#x213;" horiz-adv-x="730" 
d="M171 0v1117h126v-172h9q34 85 117.5 137t188.5 52q34 0 68 -2v-132q-3 0 -16.5 2t-30 3.5t-31.5 1.5q-131 0 -216.5 -81t-85.5 -205v-721h-129zM169 1328q0 106 69 171t187 65q117 0 185.5 -65t68.5 -171h-122q0 62 -33 99.5t-99 37.5q-68 0 -100.5 -38t-32.5 -99h-123z
" />
    <glyph glyph-name="uni0214" unicode="&#x214;" horiz-adv-x="1524" 
d="M1191 1489h136v-986q0 -230 -157.5 -379t-407.5 -149q-165 0 -294 68.5t-199.5 188.5t-70.5 271v986h136v-976q0 -180 117.5 -295t310.5 -115t311 115t118 295v976zM841 1644l-180 331h164l131 -331h-115zM582 1644l-237 331h163l190 -331h-116z" />
    <glyph glyph-name="uni0215" unicode="&#x215;" horiz-adv-x="1181" 
d="M881 427v690h129v-1117h-129v185h-10q-41 -90 -127.5 -145t-205.5 -55q-166 0 -266.5 107t-100.5 301v724h129v-716q0 -130 76.5 -210t198.5 -80q58 0 112 21t97.5 59.5t70 100t26.5 135.5zM670 1272l-180 330h165l130 -330h-115zM411 1272l-236 330h162l190 -330h-116z
" />
    <glyph glyph-name="uni0216" unicode="&#x216;" horiz-adv-x="1524" 
d="M1191 1489h136v-986q0 -230 -157.5 -379t-407.5 -149q-165 0 -294 68.5t-199.5 188.5t-70.5 271v986h136v-976q0 -180 117.5 -295t310.5 -115t311 115t118 295v976zM508 1700q0 106 69 171t187 65q117 0 185 -65t68 -171h-122q0 62 -32.5 99.5t-98.5 37.5q-68 0 -101 -38
t-33 -99h-122z" />
    <glyph glyph-name="uni0217" unicode="&#x217;" horiz-adv-x="1181" 
d="M881 427v690h129v-1117h-129v185h-10q-41 -90 -127.5 -145t-205.5 -55q-166 0 -266.5 107t-100.5 301v724h129v-716q0 -130 76.5 -210t198.5 -80q58 0 112 21t97.5 59.5t70 100t26.5 135.5zM337 1328q0 106 69 171t187 65q117 0 185.5 -65t68.5 -171h-122q0 62 -33 99.5
t-99 37.5q-68 0 -100.5 -38t-32.5 -99h-123z" />
    <glyph glyph-name="uni0218" unicode="&#x218;" horiz-adv-x="1288" 
d="M1007 1117q-13 124 -110 197.5t-245 73.5q-155 0 -253.5 -78t-98.5 -199q0 -187 297 -271l157 -45q64 -18 115.5 -38t108 -54t94.5 -75t62.5 -101t24.5 -131q0 -184 -140 -302.5t-377 -118.5q-225 0 -362.5 109t-149.5 288h140q11 -129 114 -201t258 -72q169 0 277 83
t108 216q0 106 -78.5 168t-232.5 107l-179 52q-368 109 -368 380q0 178 139 292t347 114q206 0 340.5 -111.5t142.5 -282.5h-131zM491 -520l86 377h135l-119 -377h-102z" />
    <glyph glyph-name="uni0219" unicode="&#x219;" horiz-adv-x="1050" 
d="M921 872l-118 -33q-63 179 -260 179q-113 0 -186 -54t-73 -139q0 -72 49 -116t155 -71l169 -42q280 -69 280 -294q0 -143 -115 -234t-299 -91q-165 0 -271 74t-135 213l124 31q23 -99 94 -150.5t186 -51.5q127 0 205 57.5t78 145.5q0 139 -182 182l-183 43
q-285 69 -285 299q0 137 109.5 224.5t279.5 87.5q289 0 378 -260zM381 -495l87 377h134l-119 -377h-102z" />
    <glyph glyph-name="uni021A" unicode="&#x21a;" horiz-adv-x="1295" 
d="M108 1367v122h1080v-122h-472v-1367h-136v1367h-472zM493 -495l87 377h134l-119 -377h-102z" />
    <glyph glyph-name="uni021B" unicode="&#x21b;" horiz-adv-x="733" 
d="M611 1117v-113h-236v-712q0 -97 47 -139.5t121 -42.5q40 0 76 10l28 -117q-56 -20 -115 -20q-55 0 -105.5 18t-92 52t-66 88t-24.5 120v743h-166v113h166v268h131v-268h236zM268 -495l86 377h135l-120 -377h-101z" />
    <glyph glyph-name="uni021C" unicode="&#x21c;" horiz-adv-x="1264" 
d="M215 349v116q361 107 553 260.5t191 360.5q-1 138 -88 217t-240 79q-155 0 -251.5 -76.5t-95.5 -196.5h-153q0 178 140 289.5t360 111.5q214 0 347.5 -111.5t133.5 -301.5q0 -197 -161 -371q184 -118 184 -402q0 -129 -40.5 -233t-113.5 -181.5t-191 -142t-254 -111.5
t-321 -92v126q204 51 340 104.5t235.5 129t144.5 175t45 233.5q0 224 -118 310q-242 -198 -647 -293z" />
    <glyph glyph-name="uni021D" unicode="&#x21d;" horiz-adv-x="1080" 
d="M210 228v115q263 51 415.5 172t151.5 282q-1 101 -60.5 157t-169.5 56q-116 0 -189.5 -61.5t-72.5 -165.5h-148q1 159 115 254t300 95q173 0 274 -89.5t100 -240.5q0 -159 -122 -293q142 -109 142 -343q1 -261 -181.5 -411t-554.5 -191v120q309 50 448 166t139 322
q0 168 -84 255q-194 -148 -503 -199z" />
    <glyph glyph-name="uni021E" unicode="&#x21e;" horiz-adv-x="1512" 
d="M198 0v1489h136v-682h845v682h136v-1489h-136v684h-845v-684h-136zM588 1935l173 -211l174 211h127v-11l-246 -292h-109l-246 292v11h127z" />
    <glyph glyph-name="uni021F" unicode="&#x21f;" horiz-adv-x="1194" 
d="M300 698v-698h-129v1489h129v-547h12q40 90 124 140t207 50q174 0 277.5 -106.5t103.5 -301.5v-724h-130v716q0 137 -77 217t-207 80q-137 0 -223.5 -85.5t-86.5 -229.5zM63 1933l173 -211l174 211h127v-10l-246 -292h-109l-246 292v10h127z" />
    <glyph glyph-name="uni0220" unicode="&#x220;" horiz-adv-x="1215" 
d="M1106 -417h-150v1413q0 205 -93.5 296.5t-282.5 91.5q-181 0 -319 -78v-1306h-148v1489h148v-58q146 79 329 79q111 0 203 -30.5t163 -92t110.5 -162t39.5 -231.5v-1411z" />
    <glyph glyph-name="uni0221" unicode="&#x221;" horiz-adv-x="1472" 
d="M927 183h4v24h-15q-104 -230 -344 -230q-206 0 -332.5 159.5t-126.5 419.5q0 258 127.5 417t334.5 159q241 0 341 -228h11v585h130v-1448q82 47 171 47q117 0 194 -71t77 -181q0 -111 -77.5 -181.5t-202.5 -70.5q-106 0 -175.5 51t-98.5 134l-144 -155l-88 83l174 190
q36 44 40 48v248zM588 95q160 0 250.5 128t90.5 335q0 205 -90.5 331t-250.5 126q-109 0 -188 -61t-118 -163.5t-39 -232.5q0 -202 91.5 -332.5t253.5 -130.5zM1057 -105v-28q0 -77 46.5 -123t115.5 -46q63 0 104.5 39.5t41.5 98.5q0 55 -37.5 93.5t-97.5 42.5
q-89 8 -173 -77z" />
    <glyph glyph-name="uni0222" unicode="&#x222;" horiz-adv-x="1247" 
d="M604 874h40q85 0 149 12.5t115.5 41.5t78 82.5t26.5 130.5q0 207 -205 251v121q160 -13 259.5 -108t99.5 -264q0 -246 -224 -337q110 -53 170 -149t60 -229q0 -218 -147 -332t-393 -114h-19q-247 0 -394 114t-147 330q0 268 230 380q-222 90 -222 337q0 166 97 260.5
t252 108.5v-122q-197 -47 -197 -247q0 -77 27 -130.5t78.5 -82.5t116 -41.5t149.5 -12.5zM637 744h-27q-185 0 -284 -80.5t-99 -239.5q0 -158 100.5 -236t285.5 -78h20q186 0 286.5 78t100.5 238q0 157 -99 237.5t-284 80.5z" />
    <glyph glyph-name="uni0223" unicode="&#x223;" horiz-adv-x="1264" 
d="M666 868q172 0 272 70t100 221q0 116 -51.5 183t-155.5 99v115q160 -12 258.5 -116.5t98.5 -280.5q0 -130 -61.5 -219t-171.5 -136q234 -109 234 -376q0 -217 -146.5 -332.5t-390.5 -115.5h-38q-161 0 -280.5 49t-188.5 151t-69 246q0 135 61 230.5t173 147.5
q-232 99 -232 355q0 174 95.5 277.5t251.5 116.5v-115q-100 -33 -149 -99.5t-49 -179.5q0 -103 49.5 -169.5t130 -94t192.5 -27.5h67zM655 745h-45q-184 0 -284.5 -80.5t-100.5 -238.5t102.5 -241t285.5 -83h39q182 0 285 83t103 243q0 156 -101.5 236.5t-283.5 80.5z" />
    <glyph glyph-name="uni0224" unicode="&#x224;" horiz-adv-x="1251" 
d="M125 1367v122h993v-102l-827 -1265h580q122 0 193 -71.5t71 -191.5v-68h-124v38q0 171 -140 171h-742v103l827 1264h-831z" />
    <glyph glyph-name="uni0225" unicode="&#x225;" horiz-adv-x="1084" 
d="M887 -217v38q0 86 -33 132.5t-114 46.5h-603v113l643 882h-635v122h801v-107l-641 -888h436q123 0 193 -72.5t70 -190.5v-76h-117z" />
    <glyph glyph-name="uni0226" unicode="&#x226;" horiz-adv-x="1344" 
d="M200 0h-143l542 1489h146l542 -1489h-143l-159 449h-626zM403 571h538l-264 742h-10zM672 1681q-40 0 -68.5 28t-28.5 66t28.5 65.5t68.5 27.5t68.5 -27.5t28.5 -65.5t-28.5 -66t-68.5 -28z" />
    <glyph glyph-name="uni0227" unicode="&#x227;" horiz-adv-x="1139" 
d="M483 -25q-158 0 -262.5 90.5t-104.5 246.5q0 81 30.5 139t90.5 94t133.5 57t174.5 33q172 21 201 28q77 17 88 60q3 10 3 21v26q0 116 -68.5 181t-194.5 65q-114 0 -192 -50t-111 -128l-123 44q54 129 168 189.5t254 60.5q56 0 107.5 -9.5t105.5 -35.5t93.5 -66.5
t65 -108t25.5 -153.5v-759h-130v177h-8q-40 -84 -128.5 -143t-217.5 -59zM500 93q151 0 244 97t93 238v162q-40 -39 -292 -69q-149 -18 -224.5 -68t-75.5 -147q0 -99 71.5 -156t183.5 -57zM582 1309q-40 0 -68.5 27.5t-28.5 65.5t28.5 65.5t68.5 27.5t68.5 -27.5t28.5 -65.5
t-28.5 -65.5t-68.5 -27.5z" />
    <glyph glyph-name="uni0228" unicode="&#x228;" horiz-adv-x="1215" 
d="M198 0v1489h864v-122h-728v-560h682v-123h-682v-562h742v-122h-413l-10 -52q67 -10 108.5 -53t42.5 -118q-1 -89 -70 -140.5t-199 -52.5l-4 91q155 2 155 98q0 53 -37.5 76.5t-121.5 27.5l25 123h-354z" />
    <glyph glyph-name="uni0229" unicode="&#x229;" horiz-adv-x="1189" 
d="M647 -23l-6 -29q67 -10 108.5 -53t42.5 -118q-1 -89 -70 -140.5t-199 -52.5l-4 91q154 2 154 98q0 54 -37 77t-121 27l22 106q-196 29 -310 183t-114 386q0 254 137 417t353 163q93 0 176.5 -34t150.5 -99.5t106.5 -172.5t39.5 -242v-64h-832q5 -194 107 -309.5
t272 -115.5q113 0 190 51.5t112 132.5l123 -40q-39 -108 -144.5 -182t-256.5 -80zM244 634h699q0 163 -95.5 272t-244.5 109t-248.5 -110t-110.5 -271z" />
    <glyph glyph-name="uni022A" unicode="&#x22a;" horiz-adv-x="1549" 
d="M1419 745q0 -346 -179.5 -555.5t-464.5 -209.5q-140 0 -259.5 54.5t-204 153t-132.5 242t-48 315.5q0 229 82.5 403.5t228.5 268t333 93.5q285 0 464.5 -209.5t179.5 -555.5zM1287 745q0 147 -38.5 268t-107 201.5t-162.5 124t-204 43.5q-225 0 -368.5 -171.5
t-143.5 -465.5t143 -465.5t369 -171.5q110 0 204 43.5t162.5 124t107 201.5t38.5 268zM1080 2172v-113h-609v113h609zM589 1681q-37 0 -65 28.5t-28 65.5q0 39 28 66t65 27q40 0 66.5 -26.5t26.5 -66.5q0 -38 -27 -66t-66 -28zM961 1681q-37 0 -65 28.5t-28 65.5q0 39 28 66
t65 27q40 0 67 -26.5t27 -66.5q0 -37 -27.5 -65.5t-66.5 -28.5z" />
    <glyph glyph-name="uni022B" unicode="&#x22b;" horiz-adv-x="1210" 
d="M605 -23q-217 0 -354.5 160.5t-137.5 415.5q0 257 137.5 418t354.5 161t354.5 -161t137.5 -418q0 -255 -137.5 -415.5t-354.5 -160.5zM605 95q112 0 195.5 63t125 165.5t41.5 229.5t-41 230.5t-125 167.5t-196 64t-195.5 -64t-124.5 -167.5t-41 -230.5t41 -229.5
t124.5 -165.5t195.5 -63zM911 1799v-112h-609v112h609zM420 1309q-37 0 -65 28t-28 65q0 39 28 66t65 27q40 0 66.5 -26.5t26.5 -66.5q0 -37 -27 -65t-66 -28zM792 1309q-37 0 -65 28t-28 65q0 39 28 66t65 27q40 0 66.5 -26.5t26.5 -66.5q0 -37 -27 -65t-66 -28z" />
    <glyph glyph-name="uni022C" unicode="&#x22c;" horiz-adv-x="1549" 
d="M1419 745q0 -346 -179.5 -555.5t-464.5 -209.5q-140 0 -259.5 54.5t-204 153t-132.5 242t-48 315.5q0 229 82.5 403.5t228.5 268t333 93.5q285 0 464.5 -209.5t179.5 -555.5zM1287 745q0 147 -38.5 268t-107 201.5t-162.5 124t-204 43.5q-225 0 -368.5 -171.5
t-143.5 -465.5t143 -465.5t369 -171.5q110 0 204 43.5t162.5 124t107 201.5t38.5 268zM1079 2062v-117h-611v117h611zM967 1844l72 -18q-2 -70 -46 -119t-109 -50q-35 0 -65.5 13.5t-50 29.5t-46.5 29.5t-55 13.5q-33 0 -56.5 -28t-25.5 -65l-72 18q2 69 46 119.5t109 50.5
q23 0 46 -8t33.5 -14t35.5 -22q60 -39 101 -39q33 0 57 26t26 63z" />
    <glyph glyph-name="uni022D" unicode="&#x22d;" horiz-adv-x="1210" 
d="M605 -23q-217 0 -354.5 160.5t-137.5 415.5q0 257 137.5 418t354.5 161t354.5 -161t137.5 -418q0 -255 -137.5 -415.5t-354.5 -160.5zM605 95q112 0 195.5 63t125 165.5t41.5 229.5t-41 230.5t-125 167.5t-196 64t-195.5 -64t-124.5 -167.5t-41 -230.5t41 -229.5
t124.5 -165.5t195.5 -63zM823 1519l104 -9q-2 -97 -57 -156.5t-137 -60.5q-41 0 -76.5 16t-57 35t-53 35t-64.5 16q-40 0 -67.5 -32t-29.5 -79l-101 5q2 97 56.5 159t136.5 62q26 0 52 -9t40 -17.5t40 -26.5q24 -17 36.5 -25t34.5 -16t44 -8q42 0 69.5 31.5t29.5 79.5z
M913 1739v-116h-611v116h611z" />
    <glyph glyph-name="uni022E" unicode="&#x22e;" horiz-adv-x="1549" 
d="M1419 745q0 -346 -179.5 -555.5t-464.5 -209.5q-140 0 -259.5 54.5t-204 153t-132.5 242t-48 315.5q0 229 82.5 403.5t228.5 268t333 93.5q285 0 464.5 -209.5t179.5 -555.5zM1287 745q0 147 -38.5 268t-107 201.5t-162.5 124t-204 43.5q-225 0 -368.5 -171.5
t-143.5 -465.5t143 -465.5t369 -171.5q110 0 204 43.5t162.5 124t107 201.5t38.5 268zM775 1681q-40 0 -68.5 28t-28.5 66t28.5 65.5t68.5 27.5t68.5 -27.5t28.5 -65.5t-28.5 -66t-68.5 -28z" />
    <glyph glyph-name="uni022F" unicode="&#x22f;" horiz-adv-x="1210" 
d="M605 -23q-217 0 -354.5 160.5t-137.5 415.5q0 257 137.5 418t354.5 161t354.5 -161t137.5 -418q0 -255 -137.5 -415.5t-354.5 -160.5zM605 95q112 0 195.5 63t125 165.5t41.5 229.5t-41 230.5t-125 167.5t-196 64t-195.5 -64t-124.5 -167.5t-41 -230.5t41 -229.5
t124.5 -165.5t195.5 -63zM605 1309q-40 0 -68.5 27.5t-28.5 65.5t28.5 65.5t68.5 27.5t69 -27.5t29 -65.5t-29 -65.5t-69 -27.5z" />
    <glyph glyph-name="uni0230" unicode="&#x230;" horiz-adv-x="1549" 
d="M1419 745q0 -346 -179.5 -555.5t-464.5 -209.5q-140 0 -259.5 54.5t-204 153t-132.5 242t-48 315.5q0 229 82.5 403.5t228.5 268t333 93.5q285 0 464.5 -209.5t179.5 -555.5zM1287 745q0 147 -38.5 268t-107 201.5t-162.5 124t-204 43.5q-225 0 -368.5 -171.5
t-143.5 -465.5t143 -465.5t369 -171.5q110 0 204 43.5t162.5 124t107 201.5t38.5 268zM1079 2172v-113h-608v113h608zM775 1681q-40 0 -68.5 28t-28.5 66q0 39 28.5 66t68.5 27t68.5 -27t28.5 -66q0 -38 -28.5 -66t-68.5 -28z" />
    <glyph glyph-name="uni0231" unicode="&#x231;" horiz-adv-x="1210" 
d="M605 -23q-217 0 -354.5 160.5t-137.5 415.5q0 257 137.5 418t354.5 161t354.5 -161t137.5 -418q0 -255 -137.5 -415.5t-354.5 -160.5zM605 95q112 0 195.5 63t125 165.5t41.5 229.5t-41 230.5t-125 167.5t-196 64t-195.5 -64t-124.5 -167.5t-41 -230.5t41 -229.5
t124.5 -165.5t195.5 -63zM911 1805v-113h-608v113h608zM607 1315q-40 0 -68.5 27.5t-28.5 65.5q0 39 28.5 66t68.5 27t68.5 -27t28.5 -66q0 -38 -28.5 -65.5t-68.5 -27.5z" />
    <glyph glyph-name="uni0232" unicode="&#x232;" horiz-adv-x="1326" 
d="M58 1489h157l442 -706h13l441 706h157l-537 -844v-645h-135v645zM967 1829v-113h-608v113h608z" />
    <glyph glyph-name="uni0233" unicode="&#x233;" horiz-adv-x="1117" 
d="M261 -419q-75 0 -125 23l35 115q97 -35 166.5 0t114.5 157l40 113l-411 1128h141l331 -946h11l331 946h141l-473 -1294q-90 -242 -302 -242zM863 1457v-113h-609v113h609z" />
    <glyph glyph-name="uni0234" unicode="&#x234;" horiz-adv-x="647" 
d="M303 1489v-1448q84 47 170 47q117 0 194.5 -71t77.5 -181q0 -111 -77.5 -181.5t-202.5 -70.5q-108 0 -178.5 53t-97.5 137l-143 -160l-87 83l173 190q12 16 40 48v1554h131zM303 -96v-56q0 -63 47.5 -106.5t114.5 -43.5q63 0 104.5 39.5t41.5 98.5t-43 96.5t-111 37.5
q-80 0 -154 -66z" />
    <glyph glyph-name="uni0235" unicode="&#x235;" horiz-adv-x="1553" 
d="M300 698v-698h-129v1117h126v-175h11q40 88 124.5 139t204.5 51q173 0 276 -106.5t103 -301.5v-517q82 47 171 47q117 0 194 -71t77 -181q0 -111 -77.5 -181.5t-202.5 -70.5q-107 0 -177 52.5t-98 137.5l-143 -160l-87 83l173 190q29 35 41 48v615q0 137 -77 217t-206 80
q-134 0 -219 -85.5t-85 -229.5zM1016 69v-55q0 -63 47.5 -106.5t114.5 -43.5q63 0 104.5 39.5t41.5 98.5t-42.5 96.5t-109.5 37.5q-83 0 -156 -67z" />
    <glyph glyph-name="uni0236" unicode="&#x236;" horiz-adv-x="960" 
d="M289 1385h130v-268h236v-113h-236v-566q78 44 171 44q127 0 201 -69.5t74 -176.5q0 -113 -79 -186t-205 -73q-109 0 -180 55.5t-98 142.5q-68 -77 -138 -164l-87 83q126 159 211 242v668h-167v113h167v268zM419 290v-49q0 -63 46.5 -106t115.5 -43q63 0 106.5 38
t43.5 100q0 58 -40.5 96t-116.5 38q-68 0 -155 -74z" />
    <glyph glyph-name="uni0237" unicode="&#x237;" horiz-adv-x="474" 
d="M172 1117h131v-1225q0 -144 -79 -227.5t-220 -83.5q-19 0 -31 1l2 121h27q80 0 125 50t45 139v1225z" />
    <glyph glyph-name="uni0238" unicode="&#x238;" horiz-adv-x="1814" 
d="M1720 561v-15q0 -254 -117 -410.5t-312 -156.5t-309 165v-144h-135l-11 150q-113 -171 -313 -171q-195 0 -311.5 156t-116.5 411v15q0 261 115 416t310 155q199 0 313 -165v522h149v-522q114 165 312 165q196 0 311 -155t115 -416zM244 561v-15q0 -201 76.5 -321
t224.5 -120q186 0 288 195v517q-45 88 -118 139t-168 51q-149 0 -226 -122t-77 -324zM1570 546v15q0 202 -76.5 324t-225.5 122q-95 0 -168 -51t-118 -138v-520q102 -193 288 -193q148 0 224 120t76 321z" />
    <glyph glyph-name="uni0239" unicode="&#x239;" horiz-adv-x="1814" 
d="M833 -416v561q-112 -166 -310 -166q-195 0 -311.5 156t-116.5 411v15q0 261 115 416t310 155q203 0 316 -171l11 156h122l10 -153q114 168 315 168q196 0 311 -155t115 -416v-15q0 -254 -117 -410.5t-312 -156.5q-194 0 -308 164v-559h-150zM244 561v-15
q0 -201 76.5 -321t224.5 -120q187 0 288 196v515q-45 88 -118 139.5t-168 51.5q-149 0 -226 -122t-77 -324zM1570 546v15q0 202 -76.5 324t-225.5 122q-95 0 -167.5 -50.5t-117.5 -136.5v-523q102 -192 287 -192q148 0 224 120t76 321z" />
    <glyph glyph-name="uni023A" unicode="&#x23a;" horiz-adv-x="1344" 
d="M1092 1679l-205 -579l400 -1100h-143l-159 449h-330l-227 -638h-126l226 638h-169l-159 -449h-143l542 1489h146l78 -213l142 403h127zM572 571l184 519l-79 223h-10l-264 -742h169zM820 912l-122 -341h243z" />
    <glyph glyph-name="uni023B" unicode="&#x23b;" horiz-adv-x="1486" 
d="M347 -189l96 262q-147 94 -229.5 268t-82.5 404q0 172 48 315.5t133 242t204 153t259 54.5q97 0 184 -26l72 195h127l-88 -240q117 -62 193.5 -171t100.5 -244h-136q-19 91 -72 166t-132 123l-429 -1172q80 -33 180 -33q172 0 297 100.5t156 256.5h136
q-38 -211 -197.5 -348t-391.5 -137q-118 0 -224 39l-77 -208h-127zM489 199l426 1163q-73 20 -140 20q-106 0 -199 -42t-163 -121t-110 -201t-40 -273q0 -189 60 -328t166 -218z" />
    <glyph glyph-name="uni023C" unicode="&#x23c;" horiz-adv-x="1122" 
d="M1031 1489l-178 -425q73 -46 120 -118t60 -161h-131q-22 100 -98 162l-342 -820q67 -32 145 -32q112 0 193 62.5t103 168.5h130q-23 -154 -138.5 -251.5t-287.5 -97.5q-105 0 -192 38l-182 -434h-112l205 485q-102 75 -157.5 202t-55.5 285q0 253 137 416t355 163
q86 0 158 -25l161 382h107zM716 996q-52 19 -109 19q-161 0 -262 -127t-101 -330q0 -118 34.5 -213.5t98.5 -156.5z" />
    <glyph glyph-name="uni023D" unicode="&#x23d;" horiz-adv-x="1152" 
d="M198 0v716h-238v104h238v669h136v-669h237v-104h-237v-594h710v-122h-846z" />
    <glyph glyph-name="uni023E" unicode="&#x23e;" horiz-adv-x="1295" 
d="M260 -189l320 875v681h-472v122h765l70 190h125l-69 -190h189v-122h-233l-239 -653v-714h-136v342l-195 -531h-125zM716 1058l113 309h-113v-309z" />
    <glyph glyph-name="uni023F" unicode="&#x23f;" horiz-adv-x="1042" 
d="M921 872l-118 -33q-63 179 -260 179q-113 0 -186 -54t-73 -139q0 -72 49 -116t155 -71l169 -42q280 -69 280 -294q0 -143 -115 -234t-299 -91q-68 0 -132 14q108 -192 149.5 -244.5t89.5 -52.5q57 0 134 65l53 -91q-99 -87 -186 -87q-78 0 -137 48.5t-118 149.5l-199 346
q-44 61 -60 139l124 31q23 -99 94 -150.5t186 -51.5q127 0 205 57.5t78 145.5q0 139 -182 182l-183 43q-285 69 -285 299q0 137 109.5 224.5t279.5 87.5q289 0 378 -260z" />
    <glyph glyph-name="uni0240" unicode="&#x240;" horiz-adv-x="1082" 
d="M305 122h36q77 0 143 -23t112 -60t85.5 -81.5t70.5 -89t60 -81.5t62 -60t69 -23q57 0 116 41l44 -90q-84 -73 -171 -73q-50 0 -94 23t-77 60t-65 81.5t-68 89t-76 81.5t-98 60t-126 23h-191v113l643 882h-635v122h801v-107z" />
    <glyph glyph-name="uni0241" unicode="&#x241;" horiz-adv-x="1081" 
d="M480 434h32q88 0 152.5 29.5t102 82.5t55.5 120.5t18 150.5v180q0 81 -17.5 147.5t-53.5 120t-97.5 83t-144.5 29.5q-129 0 -208 -71.5t-86 -191.5h-145q8 175 128 285.5t311 110.5q113 0 202.5 -39.5t146.5 -109t87 -162.5t30 -202v-180q0 -206 -102.5 -345t-293.5 -164
v-308h-155v434h38z" />
    <glyph glyph-name="uni0242" unicode="&#x242;" horiz-adv-x="1071" 
d="M143 705q1 204 110.5 315.5t291.5 111.5q180 0 281.5 -107.5t101.5 -306.5q0 -161 -73.5 -262t-226.5 -121v-335h-150v428h68q119 0 176.5 74.5t57.5 208.5q0 139 -59 219t-178 80q-117 0 -183 -80t-67 -225h-150z" />
    <glyph glyph-name="uni0243" unicode="&#x243;" horiz-adv-x="1433" 
d="M306 0v372h-235v105h235v1012h503q211 0 324 -107t113 -282q0 -133 -65 -214.5t-172 -110.5v-12q117 -8 206 -109.5t89 -262.5q0 -177 -118.5 -284t-349.5 -107h-530zM442 122h394q166 0 252 74t86 195q0 130 -92.5 217.5t-239.5 87.5h-400v-219h239v-105h-239v-250z
M442 817h379q131 0 213 79.5t82 203.5q0 122 -79 194.5t-228 72.5h-367v-550z" />
    <glyph glyph-name="uni0244" unicode="&#x244;" horiz-adv-x="1505" 
d="M1511 868v-95h-197v-270q0 -230 -157 -379t-407 -149t-408 149.5t-157 378.5v270h-190v95h190v621h136v-621h857v621h136v-621h197zM1178 773h-857v-260q0 -180 118 -295t311 -115t310.5 115t117.5 295v260z" />
    <glyph glyph-name="uni0245" unicode="&#x245;" horiz-adv-x="1442" 
d="M1162 0l-442 1289l-439 -1289h-167l536 1489h142l538 -1489h-168z" />
    <glyph glyph-name="uni0246" unicode="&#x246;" horiz-adv-x="1215" 
d="M1001 1679l-55 -190h116v-122h-151l-162 -560h267v-123h-302l-162 -562h524v-122h-560l-54 -189h-125l54 189h-193v1489h623l55 190h125zM786 1367h-452v-560h290zM589 684h-255v-562h93z" />
    <glyph glyph-name="uni0247" unicode="&#x247;" horiz-adv-x="1179" 
d="M1031 1489l-179 -427q103 -67 163.5 -187.5t60.5 -290.5v-64h-450l-164 -392q74 -33 161 -33q113 0 190 51.5t112 132.5l123 -40q-41 -112 -153 -187t-272 -75q-113 0 -207 40l-183 -436h-112l205 487q-102 75 -157.5 200t-55.5 284q0 254 137 417t353 163q83 0 159 -27
l162 384h107zM564 634l152 362q-54 19 -113 19q-149 0 -248.5 -110t-110.5 -271h320zM516 520h-272q6 -221 131 -335zM804 946l-131 -312h270q0 98 -36.5 179.5t-102.5 132.5z" />
    <glyph glyph-name="uni0248" unicode="&#x248;" horiz-adv-x="1096" 
d="M762 1489h136v-552h237v-105h-237v-417q-1 -213 -110.5 -324t-292.5 -111q-176 0 -289.5 95.5t-112.5 250.5h134q-1 -99 75.5 -161.5t192.5 -62.5q123 0 194.5 78t72.5 235v417h-238v105h238v552z" />
    <glyph glyph-name="uni0249" unicode="&#x249;" horiz-adv-x="474" 
d="M172 1117h131v-422h239v-105h-239v-698q0 -144 -79 -227.5t-220 -83.5q-19 0 -31 1l2 121h27q80 0 125 50t45 139v698h-241v105h241v422zM236 1309q-40 0 -68 27.5t-28 65.5t28 65.5t68 27.5t69 -27.5t29 -65.5t-29 -65.5t-69 -27.5z" />
    <glyph glyph-name="uni024A" unicode="&#x24a;" horiz-adv-x="1574" 
d="M1350 1489v-1635q0 -85 39.5 -121t115.5 -36q32 0 60 5v-113q-25 -7 -89 -7q-117 0 -186.5 70.5t-69.5 201.5v430h-9q-59 -148 -178 -227.5t-278 -79.5q-182 0 -324.5 97.5t-221 273t-78.5 400.5q0 221 78.5 394.5t221 270.5t326.5 97q159 0 277.5 -78.5t176.5 -223.5h13
v281h126zM757 108q117 0 207 47t146.5 132.5t84.5 201.5t28 258q0 186 -51.5 328.5t-157.5 226t-255 83.5q-221 0 -357.5 -178t-136.5 -460q0 -289 136.5 -464t355.5 -175z" />
    <glyph glyph-name="uni024B" unicode="&#x24b;" horiz-adv-x="1274" 
d="M1183 -418q-116 0 -185.5 71t-69.5 201v353h-12q-18 -43 -44.5 -80t-66.5 -73t-100 -56.5t-132 -20.5q-205 0 -332.5 160t-127.5 419t127.5 417.5t334.5 158.5q238 0 341 -228h16v213h126v-1263q0 -85 39 -121t115 -36q31 0 61 5v-113q-26 -7 -90 -7zM588 95
q160 0 251 128t91 335q0 206 -90.5 331.5t-251.5 125.5q-109 0 -188 -61t-117.5 -163.5t-38.5 -232.5q0 -202 91.5 -332.5t252.5 -130.5z" />
    <glyph glyph-name="uni024C" unicode="&#x24c;" horiz-adv-x="1307" 
d="M210 0v602h-184v125h184v762h481q231 0 355.5 -122t124.5 -323q0 -151 -72.5 -259.5t-209.5 -153.5l344 -631h-157l-326 604q-36 -2 -57 -2h-347v-602h-136zM346 727h343q171 0 259.5 84t88.5 233q0 151 -88.5 237t-261.5 86h-341v-640z" />
    <glyph glyph-name="uni024D" unicode="&#x24d;" horiz-adv-x="730" 
d="M171 0v483h-240v105h240v529h126v-172h9q34 85 117.5 137t188.5 52q34 0 68 -2v-132q-3 0 -16.5 2t-30 3.5t-31.5 1.5q-131 0 -216.5 -81t-85.5 -205v-133h242v-105h-242v-483h-129z" />
    <glyph glyph-name="uni024E" unicode="&#x24e;" horiz-adv-x="1328" 
d="M1327 1180v-94h-315l-281 -441v-645h-135v645l-281 441h-313v94h253l-197 309h157l193 -309h511l192 309h157l-197 -309h256zM468 1086l189 -303h13l189 303h-391z" />
    <glyph glyph-name="uni024F" unicode="&#x24f;" horiz-adv-x="1116" 
d="M1018 801v-105h-140l-319 -873q-90 -242 -302 -242q-75 0 -125 23l35 115q97 -35 166.5 0t114.5 157l41 113l-258 707h-139v105h101l-115 316h140l111 -316h452l111 316h140l-116 -316h102zM744 696h-378l184 -525h10z" />
    <glyph glyph-name="uni0250" unicode="&#x250;" horiz-adv-x="1139" 
d="M657 1143q158 0 262.5 -91t104.5 -247q0 -81 -30.5 -139t-90.5 -94t-133.5 -57t-174.5 -33q-172 -21 -201 -28q-77 -17 -88 -60q-3 -10 -3 -21v-26q0 -116 68.5 -181t194.5 -65q114 0 192 50t111 128l123 -44q-36 -88 -105.5 -145.5t-148.5 -81t-169 -23.5
q-56 0 -107.5 9.5t-105.5 36t-93.5 67t-64.5 108t-25 153.5v758h130v-177h8q40 85 128.5 144t217.5 59zM639 1024q-151 0 -243.5 -97t-92.5 -238v-162q40 39 292 69q149 18 224.5 68t75.5 147q0 99 -72 156t-184 57z" />
    <glyph glyph-name="uni0251" unicode="&#x251;" horiz-adv-x="1304" 
d="M577 -23q-139 1 -245 75t-162.5 205.5t-56.5 300.5q0 252 132.5 413t339.5 161q157 0 257.5 -92.5t148.5 -260.5l65 338h122l-113 -558l128 -559h-122l-72 332h-1q-51 -175 -159 -265.5t-262 -89.5zM949 560l-4 21q-16 82 -42 152.5t-67.5 136.5t-106 104.5t-144.5 38.5
q-151 0 -247 -128t-96 -329q0 -202 92.5 -331.5t242.5 -129.5q75 0 139 37t108.5 100.5t74.5 139t45 161.5z" />
    <glyph glyph-name="uni0252" unicode="&#x252;" horiz-adv-x="1267" 
d="M1148 599v-47q0 -258 -114.5 -415.5t-317.5 -157.5q-211 0 -317 172l-16 -151h-126v865q0 74 -20 104t-57 30q-19 0 -37 -6l-21 110q40 29 107 29q145 0 172 -179q110 179 327 179q198 0 309.5 -146t110.5 -387zM999 553v46q0 187 -76.5 299t-230.5 112q-196 0 -285 -225
v-472q87 -212 274 -212q80 0 142 34.5t100 96.5t57 143t19 178z" />
    <glyph glyph-name="uni0253" unicode="&#x253;" horiz-adv-x="1240" 
d="M667 -23q-239 0 -343 230h-16v-207h-125v1239q0 130 69.5 200.5t185.5 70.5q64 0 89 -7v-113q-34 6 -60 6q-76 0 -115.5 -36t-39.5 -121v-335h12q103 228 341 228q206 0 334 -159t128 -417q0 -260 -127 -419.5t-333 -159.5zM652 95q162 0 253.5 130.5t91.5 332.5
q0 130 -39 232.5t-118 163.5t-188 61q-160 0 -250.5 -126t-90.5 -331q0 -207 90.5 -335t250.5 -128z" />
    <glyph glyph-name="uni0254" unicode="&#x254;" horiz-adv-x="1081" 
d="M91 332h142q15 -99 97.5 -164.5t196.5 -65.5q79 0 141 34.5t99.5 94t56.5 133.5t19 159v48q0 126 -33.5 222.5t-107.5 156.5t-182 60q-124 0 -196.5 -75.5t-90.5 -213.5h-142q18 191 131 301t298 110q149 0 256.5 -73.5t160.5 -199t53 -287.5v-49q0 -151 -54 -273
t-160.5 -196t-248.5 -74q-173 0 -296 102.5t-140 249.5z" />
    <glyph glyph-name="uni0255" unicode="&#x255;" horiz-adv-x="1136" 
d="M608 -23q-224 0 -361 162q-59 -63 -147 -172l-93 77q117 148 170 205q-66 137 -66 309q0 251 137.5 412.5t354.5 161.5q169 0 287 -96t141 -251h-131q-21 99 -100 164.5t-195 65.5q-161 0 -262.5 -127t-101.5 -330q0 -114 35 -213q217 190 431 190q135 0 211 -70.5
t76 -181.5q0 -136 -110 -221t-276 -85zM338 228q101 -133 270 -133q108 0 181 52.5t73 131.5q0 63 -47 101.5t-110 38.5q-159 0 -367 -191z" />
    <glyph glyph-name="uni0256" unicode="&#x256;" horiz-adv-x="1232" 
d="M1183 -418q-116 0 -185.5 71t-69.5 201v292h4v61h-16q-104 -230 -343 -230q-206 0 -333 159.5t-127 419.5q0 258 127.5 417t334.5 159q241 0 341 -228h12v585h130v-1635q0 -85 39 -121t115 -36q31 0 61 5v-113q-26 -7 -90 -7zM588 95q160 0 251 128t91 335q0 205 -91 331
t-251 126q-109 0 -188 -61t-117.5 -163.5t-38.5 -232.5q0 -202 91 -332.5t253 -130.5z" />
    <glyph glyph-name="uni0257" unicode="&#x257;" horiz-adv-x="1232" 
d="M573 -23q-206 0 -333 159.5t-127 419.5q0 258 127.5 417t334.5 159q241 0 341 -228h12v338q0 130 69.5 200t187.5 70q58 0 90 -9v-115q-21 5 -60 5q-78 0 -117.5 -33.5t-39.5 -117.5v-1242h-126v207h-16q-104 -230 -343 -230zM588 95q160 0 251 128t91 335q0 205 -91 331
t-251 126q-109 0 -188 -61t-117.5 -163.5t-38.5 -232.5q0 -202 91 -332.5t253 -130.5z" />
    <glyph glyph-name="uni0258" unicode="&#x258;" horiz-adv-x="1082" 
d="M505 -20q-132 0 -234.5 56t-167.5 162l97 65q52 -78 130 -119.5t171 -41.5q154 0 244 109t94 300h-745v74q0 255 113 401t310 146q211 0 341 -160t130 -419v-29q0 -250 -131.5 -397t-351.5 -147zM835 633q-15 175 -97.5 276t-212.5 101q-126 0 -200 -95t-81 -271v-11h591
z" />
    <glyph glyph-name="uni0259" unicode="&#x259;" horiz-adv-x="1189" 
d="M567 1140q232 0 370.5 -159t138.5 -416q0 -254 -137 -417t-353 -163q-93 0 -176.5 34t-150.5 99.5t-106.5 172.5t-39.5 242v64h832q-5 194 -106.5 309.5t-271.5 115.5q-113 0 -190.5 -51t-112.5 -132l-123 40q41 112 153.5 186.5t272.5 74.5zM945 483h-699
q0 -163 95.5 -271.5t244.5 -108.5t248.5 110t110.5 270z" />
    <glyph glyph-name="uni025A" unicode="&#x25a;" horiz-adv-x="1381" 
d="M468 1113q178 0 299 -103t161 -279l163 30q19 -138 52.5 -204t104.5 -67q43 0 62 5l21 -94q-65 -27 -114 -26q-100 1 -151.5 65t-71.5 179l-50 -10q1 -12 1 -36v-30q0 -127 -37 -234t-99.5 -178.5t-144 -111.5t-170.5 -40q-144 0 -245.5 70t-150 188.5t-48.5 273.5v58
l731 135q-29 132 -112 209.5t-206 77.5q-182 0 -295 -164l-95 71q139 215 395 215zM795 580l-595 -107v-21q0 -95 31.5 -173t99.5 -128t163 -50q133 0 217 119.5t84 319.5v31v9z" />
    <glyph glyph-name="uni025B" unicode="&#x25b;" horiz-adv-x="1104" 
d="M653 588v-69h-126q-122 0 -200.5 -61.5t-77.5 -155.5q0 -91 83 -146.5t220 -55.5q261 0 311 227h136q-21 -159 -141 -253t-312 -94t-312.5 88t-120.5 229q0 89 54 161t168 106q-200 56 -200 248q1 148 112 234t296 86q177 0 289 -84t135 -236h-136q-21 97 -95.5 149
t-192.5 52q-125 0 -200 -54.5t-76 -144.5q-1 -85 66 -133t194 -48h126v-45z" />
    <glyph glyph-name="uni025C" unicode="&#x25c;" horiz-adv-x="1173" 
d="M460 542v91h127q127 0 194 48t66 133q-1 90 -76 144.5t-201 54.5q-118 0 -192 -52t-95 -149h-135q22 152 133.5 236t288.5 84q185 0 297 -86t112 -234q0 -192 -201 -248q115 -34 168.5 -105.5t53.5 -161.5q0 -141 -120 -229t-313 -88q-192 0 -311 94t-140 253h134
q50 -227 311 -227q137 0 220 55.5t84 146.5q0 94 -78 155.5t-200 61.5h-127v23z" />
    <glyph glyph-name="uni025D" unicode="&#x25d;" horiz-adv-x="1401" 
d="M460 542v91h126q127 0 194.5 48t66.5 133q-1 90 -76.5 144.5t-201.5 54.5q-118 0 -192 -52t-95 -149h-135q22 152 133.5 236t288.5 84q156 0 261.5 -62.5t136.5 -173.5l149 29q19 -139 53 -205.5t104 -67.5q33 -1 62 8l21 -95q-54 -27 -113 -27q-100 1 -151.5 65
t-71.5 178l-44 -8q-20 -158 -199 -209q115 -34 168.5 -105.5t53.5 -161.5q0 -141 -119.5 -229t-312.5 -88q-192 0 -311.5 94t-140.5 253h134q50 -227 312 -227q137 0 219.5 55.5t83.5 146.5q0 94 -78 155.5t-200 61.5h-126v23z" />
    <glyph glyph-name="uni025E" unicode="&#x25e;" horiz-adv-x="1105" 
d="M569 -20q-234 0 -356 153t-122 437v1q0 269 123 415t358 146q185 0 296.5 -86t111.5 -234q0 -192 -200 -248q115 -34 168 -106t53 -161q0 -142 -120.5 -229.5t-311.5 -87.5zM462 588v45h126q127 0 194.5 48t66.5 133q-1 90 -75 144.5t-197 54.5q-178 0 -267 -113.5
t-89 -329.5q0 -228 87.5 -349t260.5 -121q133 0 214.5 55.5t82.5 146.5q0 93 -77.5 155t-200.5 62h-126v69z" />
    <glyph glyph-name="uni025F" unicode="&#x25f;" horiz-adv-x="474" 
d="M172 1117h131v-422h239v-105h-239v-698q0 -144 -79 -227.5t-220 -83.5q-19 0 -31 1l2 121h27q80 0 125 50t45 139v698h-241v105h241v422z" />
    <glyph glyph-name="uni0260" unicode="&#x260;" horiz-adv-x="1232" 
d="M596 -442q-163 0 -273.5 61t-162.5 163l106 70q98 -178 330 -178q154 0 242.5 77t88.5 228v252h-11q-39 -92 -123 -155.5t-221 -63.5q-204 0 -331.5 148t-127.5 401q0 255 127.5 413t334.5 158q238 0 343 -228h13v335q0 131 68 201t184 70q64 0 89 -7v-113q-36 6 -60 6
q-76 0 -115.5 -36t-39.5 -121v-122v-1146q0 -138 -61 -232.5t-162.5 -137.5t-237.5 -43zM588 130q161 0 251 115.5t90 318.5q0 202 -90 326.5t-251 124.5q-109 0 -188 -60.5t-118 -161.5t-39 -229q0 -196 91 -315t254 -119z" />
    <glyph glyph-name="uni0261" unicode="&#x261;" horiz-adv-x="1230" 
d="M597 -442q-163 0 -273.5 61t-162.5 163l106 70q98 -178 330 -178q154 0 242.5 77t88.5 228v252h-12q-18 -42 -44.5 -78t-67 -69.5t-100 -52.5t-131.5 -19q-205 0 -332.5 148t-127.5 401q0 255 127.5 413t334.5 158q239 0 344 -228h13v213h126v-1146q0 -138 -61 -232.5
t-162.5 -137.5t-237.5 -43zM588 130q161 0 251.5 115.5t90.5 318.5q0 201 -90.5 326t-251.5 125q-162 0 -253 -127t-91 -324q0 -196 90.5 -315t253.5 -119z" />
    <glyph glyph-name="uni0262" unicode="&#x262;" horiz-adv-x="1264" 
d="M1100 530v-375q-43 -64 -167.5 -120t-284.5 -56q-227 0 -368.5 134.5t-140.5 349.5v162q-1 210 142 344t365 134q206 0 321 -98t130 -263h-135q-16 117 -97.5 179t-218.5 62q-159 -1 -266 -103t-107 -255v-162q0 -157 105.5 -259.5t269.5 -102.5q101 -1 195 34t126 70
v203h-305v122h436z" />
    <glyph glyph-name="uni0263" unicode="&#x263;" horiz-adv-x="1173" 
d="M585 -442q-109 0 -174.5 56t-65.5 153q0 62 80 231l88 179l-452 940h143l383 -786l381 786h143l-448 -940l84 -174q73 -156 73 -235q0 -98 -63 -154t-172 -56zM588 20q-10 -20 -26.5 -54.5t-23.5 -49t-18.5 -38.5t-15.5 -35.5t-9.5 -27.5t-7.5 -27t-2 -21
q0 -36 28.5 -59.5t71.5 -23.5q42 0 70.5 24t28.5 59q0 33 -21.5 88t-74.5 165z" />
    <glyph glyph-name="uni0264" unicode="&#x264;" horiz-adv-x="1486" 
d="M226 897l-94 94q109 141 251 141q53 0 98.5 -21.5t89.5 -70t82 -107t90 -152.5q104 187 183 269t181 82q139 0 250 -141l-94 -94q-61 90 -135 90q-29 0 -53.5 -11.5t-48 -32t-54.5 -67.5t-62.5 -100.5t-83.5 -147.5l1 -2q1 -2 2 -2q83 -157 124 -258t41 -175
q0 -97 -67.5 -154t-183.5 -57q-115 0 -183 57.5t-68 153.5q0 74 40.5 173.5t124.5 257.5q1 0 2 2t1 3q-18 32 -27 49q-52 98 -82 149t-63 92.5t-61.5 55.5t-65.5 14q-74 0 -135 -90zM742 469q-101 -199 -101 -273q0 -39 26.5 -65t75.5 -26t75.5 26t26.5 65q0 70 -103 273z
" />
    <glyph glyph-name="uni0265" unicode="&#x265;" horiz-adv-x="1194" 
d="M895 419v698h129v-1489h-129v547h-12q-40 -90 -124 -140t-207 -50q-174 0 -277.5 106.5t-103.5 301.5v724h130v-716q0 -137 77 -217t207 -80q137 0 223.5 85.5t86.5 229.5z" />
    <glyph glyph-name="uni0266" unicode="&#x266;" horiz-adv-x="1186" 
d="M300 698v-698h-129v1239q0 130 69.5 200.5t185.5 70.5q65 0 90 -7v-113q-36 6 -61 6q-77 0 -117.5 -36t-40.5 -121v-297h11q40 88 124.5 139t204.5 51q173 0 276 -106.5t103 -301.5v-724h-129v716q0 137 -77 217t-206 80q-134 0 -219 -85.5t-85 -229.5z" />
    <glyph glyph-name="uni0267" unicode="&#x267;" horiz-adv-x="1173" 
d="M300 698v-698h-129v1239q0 130 69.5 200.5t185.5 70.5q65 0 90 -7v-113q-36 6 -61 6q-77 0 -117.5 -36t-40.5 -121v-297h11q40 88 124.5 139t204.5 51q173 0 276 -106.5t103 -301.5v-860q0 -133 -72 -207.5t-188 -74.5q-64 0 -90 10v111q24 -6 60 -6q161 0 161 167v852
q0 137 -77 217t-206 80q-134 0 -219 -85.5t-85 -229.5z" />
    <glyph glyph-name="uni0268" unicode="&#x268;" horiz-adv-x="474" 
d="M172 0v537h-239v105h239v475h131v-475h241v-105h-241v-537h-131zM239 1309q-40 0 -68.5 27.5t-28.5 65.5t28.5 65.5t68.5 27.5t68.5 -27.5t28.5 -65.5t-28.5 -65.5t-68.5 -27.5z" />
    <glyph glyph-name="uni03B9" unicode="&#x3b9;" horiz-adv-x="509" 
d="M167 1117h130v-875q0 -68 33.5 -98.5t84.5 -30.5q49 0 82 12l3 -124q-53 -16 -125 -16q-95 0 -151.5 64t-56.5 193v875z" />
    <glyph glyph-name="uni03B9" unicode="&#x269;" horiz-adv-x="509" 
d="M167 1117h130v-875q0 -68 33.5 -98.5t84.5 -30.5q49 0 82 12l3 -124q-53 -16 -125 -16q-95 0 -151.5 64t-56.5 193v875z" />
    <glyph glyph-name="uni026A" unicode="&#x26a;" horiz-adv-x="657" 
d="M559 1082v-122h-157v-838h157v-122h-457v122h150v838h-150v122h457z" />
    <glyph glyph-name="uni026B" unicode="&#x26b;" horiz-adv-x="562" 
d="M347 1489v-706q36 -16 68 -16q44 0 77.5 32.5t37.5 79.5l103 -12q-5 -96 -65.5 -155.5t-146.5 -59.5q-40 0 -74 13v-665h-130v740q-31 14 -67 14q-46 0 -78 -31.5t-35 -79.5l-105 6q4 96 64 158t148 62q39 0 73 -14v634h130z" />
    <glyph glyph-name="uni026C" unicode="&#x26c;" horiz-adv-x="800" 
d="M763 625h-188v-625h-131v625h-123q-119 0 -201.5 71t-82.5 183q0 106 76 179t193 73q76 0 138 -32v390h131v-741h188v-123zM444 868q0 64 -36 105.5t-104 41.5q-53 0 -92 -40.5t-39 -95.5t42.5 -93.5t106.5 -38.5h122v121z" />
    <glyph glyph-name="uni026D" unicode="&#x26d;" horiz-adv-x="507" 
d="M300 1489v-1635q0 -85 39.5 -121t115.5 -36q31 0 61 5v-113q-25 -7 -90 -7q-116 0 -185.5 71t-69.5 201v1635h129z" />
    <glyph glyph-name="uni026E" unicode="&#x26e;" horiz-adv-x="1244" 
d="M201 1489h131v-372h757v-100l-413 -512v-10q202 -17 323.5 -135.5t121.5 -321.5q0 -215 -134 -348.5t-349 -133.5q-221 0 -361 130l90 99q100 -106 273 -106q157 0 252 99t95 260q0 163 -100 256.5t-262 93.5h-109v112l391 485v10h-575v-995h-131v1489z" />
    <glyph glyph-name="uni026F" unicode="&#x26f;" horiz-adv-x="1757" 
d="M1586 1117v-1117h-126v172h-11q-33 -88 -112 -137.5t-188 -49.5q-224 0 -302 203h-9q-38 -95 -124.5 -149t-206.5 -54q-157 0 -246.5 99.5t-89.5 284.5v748h129v-748q0 -129 66 -197t180 -68q125 0 195.5 77t70.5 201v735h133v-760q0 -115 64 -184t177 -69
q117 0 194 83.5t77 213.5v716h129z" />
    <glyph glyph-name="uni0270" unicode="&#x270;" horiz-adv-x="1751" 
d="M1460 -419v591h-11q-33 -88 -112 -137.5t-188 -49.5q-224 0 -302 203h-9q-38 -95 -124.5 -149t-206.5 -54q-157 0 -246.5 99.5t-89.5 284.5v748h129v-748q0 -129 66 -197t180 -68q125 0 195.5 77t70.5 201v735h133v-760q0 -115 64 -184t177 -69q117 0 194 83.5t77 213.5
v716h129v-1536h-126z" />
    <glyph glyph-name="uni0271" unicode="&#x271;" horiz-adv-x="1757" 
d="M171 0v1117h126v-172h11q33 88 112 137.5t188 49.5q224 0 302 -203h9q38 95 124.5 149t206.5 54q157 0 246.5 -99.5t89.5 -284.5v-884q0 -133 -71.5 -207.5t-187.5 -74.5q-65 0 -91 10v111q24 -6 61 -6q160 0 160 167v884q0 129 -66 197t-180 68q-125 0 -195.5 -77
t-70.5 -201v-735h-133v760q0 115 -64 184t-177 69q-117 0 -194 -83.5t-77 -213.5v-716h-129z" />
    <glyph glyph-name="uni0272" unicode="&#x272;" horiz-adv-x="1209" 
d="M193 0v1117h126v-175h12q40 88 124.5 139t204.5 51q173 0 276 -106.5t103 -301.5v-724h-130v716q0 137 -76.5 217t-205.5 80q-134 0 -219 -85.5t-85 -229.5v-834q0 -133 -72 -207.5t-188 -74.5q-64 0 -90 10v111q24 -6 60 -6q160 0 160 167v136z" />
    <glyph glyph-name="uni0273" unicode="&#x273;" horiz-adv-x="1145" 
d="M300 698v-698h-129v1117h126v-175h11q40 88 124.5 139t204.5 51q173 0 276 -106.5t103 -301.5v-870q0 -85 39.5 -121t115.5 -36q30 0 60 5v-113q-25 -7 -89 -7q-116 0 -185.5 71t-69.5 201v862q0 137 -77 217t-206 80q-134 0 -219 -85.5t-85 -229.5z" />
    <glyph glyph-name="uni0274" unicode="&#x274;" horiz-adv-x="1210" 
d="M1041 1117v-1117h-128l-601 875h-12v-875h-129v1117h126l602 -876h12v876h130z" />
    <glyph glyph-name="uni0275" unicode="&#x275;" horiz-adv-x="1210" 
d="M605 -23q-217 0 -354.5 160.5t-137.5 415.5q0 257 137.5 418t354.5 161t354.5 -161t137.5 -418q0 -255 -137.5 -415.5t-354.5 -160.5zM605 95q156 0 251 114.5t108 291.5h-718q13 -177 108 -291.5t251 -114.5zM247 616h717q-16 174 -111 286.5t-248 112.5t-247.5 -112.5
t-110.5 -286.5z" />
    <glyph glyph-name="uni0276" unicode="&#x276;" horiz-adv-x="1869" 
d="M1689 120v-120h-690q-48 -2 -158 -11.5t-162 -9.5q-225 0 -360 155.5t-135 398.5v18q0 158 59 283t172 197t262 72q55 0 163 -9t161 -12h688v-120h-618v-350h532v-123h-532v-369h618zM921 116v851q-203 14 -242 14q-164 0 -254.5 -121.5t-90.5 -308.5v-18
q0 -189 91.5 -310.5t255.5 -121.5q54 0 240 15z" />
    <glyph glyph-name="uni0277" unicode="&#x277;" horiz-adv-x="1580" 
d="M791 1132q143 0 260 -32.5t198 -89t136.5 -136t81 -171.5t25.5 -197q0 -103 -23.5 -195t-69 -167t-121.5 -119.5t-173 -44.5q-116 -1 -195.5 62.5t-118.5 183.5q-39 -120 -119 -183.5t-196 -62.5q-97 0 -173 44.5t-121.5 119.5t-69 167t-23.5 195q0 105 25.5 197
t81 171.5t136.5 136t198 89t260 32.5h1zM791 1010q-284 0 -417.5 -132.5t-134.5 -368.5q-1 -109 25 -199t84 -149t139 -59q101 0 165 92t64 269v192h148v-192q0 -177 64.5 -269t165.5 -92q81 0 139 59t84 149t25 199q-1 236 -134.5 368.5t-416.5 132.5z" />
    <glyph glyph-name="uni0278" unicode="&#x278;" horiz-adv-x="1212" 
d="M151 544v23q0 220 104.5 374.5t276.5 184.5v363h148v-363q174 -30 278 -184t104 -375v-23q0 -221 -104 -375t-278 -184v-381h-148v381q-172 30 -276.5 184.5t-104.5 374.5zM680 999v-887q108 32 170.5 151t62.5 281v23q0 161 -62 280.5t-171 151.5zM300 567v-23
q0 -162 62 -280.5t170 -150.5v886q-108 -32 -170 -151t-62 -281z" />
    <glyph glyph-name="uni0279" unicode="&#x279;" horiz-adv-x="730" 
d="M559 1117v-1117h-126v172h-9q-34 -85 -117 -137t-188 -52q-35 0 -69 2v132q3 0 16.5 -2t30 -3.5t31.5 -1.5q131 0 216.5 81t85.5 205v721h129z" />
    <glyph glyph-name="uni027A" unicode="&#x27a;" horiz-adv-x="708" 
d="M110 -7v138q48 -8 81 -8q96 0 161.5 47.5t95.5 131.5v1234h149v-1536h-142l-6 140q-88 -158 -263 -158q-45 0 -76 11z" />
    <glyph glyph-name="uni027B" unicode="&#x27b;" horiz-adv-x="747" 
d="M692 -422q-114 0 -186.5 71.5t-72.5 195.5v327h-9q-34 -85 -117 -137t-188 -52q-35 0 -69 2v132q3 0 16.5 -2t30 -3.5t31.5 -1.5q131 0 216.5 81t85.5 205v721h129v-1272q0 -75 42.5 -116.5t119.5 -41.5q36 0 50 4v-105q-28 -8 -79 -8z" />
    <glyph glyph-name="uni027C" unicode="&#x27c;" horiz-adv-x="770" 
d="M171 -419v1536h126v-172h9q33 85 117 137t189 52q77 0 138 -34l-45 -112q-40 19 -103 19q-131 0 -216.5 -81t-85.5 -205v-1140h-129z" />
    <glyph glyph-name="uni027D" unicode="&#x27d;" horiz-adv-x="770" 
d="M426 -418q-116 0 -185.5 71t-69.5 201v1263h126v-172h9q33 85 117 137t189 52q77 0 138 -34l-45 -112q-40 19 -103 19q-131 0 -216.5 -81t-85.5 -205v-867q0 -85 39.5 -121t115.5 -36q31 0 61 5v-113q-25 -7 -90 -7z" />
    <glyph glyph-name="uni027E" unicode="&#x27e;" horiz-adv-x="576" 
d="M301 0h-130v864q0 136 73 206t192 70q51 0 90 -11v-116q-33 5 -61 5q-79 0 -121.5 -36t-42.5 -126v-856z" />
    <glyph glyph-name="uni027F" unicode="&#x27f;" horiz-adv-x="561" 
d="M393 -418h-130v1281q0 154 -164 154q-27 0 -60 -5v117q39 11 89 11q118 0 191.5 -70t73.5 -199v-1289z" />
    <glyph glyph-name="uni0280" unicode="&#x280;" horiz-adv-x="1262" 
d="M175 1082h448q185 0 290 -88t105 -232q0 -108 -57 -187.5t-160 -114.5l287 -460h-162l-272 436h-5h-325v-436h-149v1082zM324 559h325q106 0 163.5 58.5t56.5 147.5q0 84 -64 140.5t-182 56.5h-299v-403z" />
    <glyph glyph-name="uni0281" unicode="&#x281;" horiz-adv-x="1262" 
d="M623 0h-448v1082h149v-436h325h5l272 436h162l-287 -459q103 -34 160 -114t57 -189q0 -144 -105.5 -232t-289.5 -88zM324 524v-404h299q118 0 182 56.5t64 142.5q1 88 -56.5 146.5t-163.5 58.5h-325z" />
    <glyph glyph-name="uni0282" unicode="&#x282;" horiz-adv-x="1050" 
d="M117 264l124 31q23 -99 94 -150.5t186 -51.5q127 0 205 57.5t78 145.5q0 139 -182 182l-183 43q-285 69 -285 299q0 137 109.5 224.5t279.5 87.5q289 0 378 -260l-118 -33q-63 179 -260 179q-113 0 -186 -54t-73 -139q0 -72 49 -116t155 -71l169 -42q280 -69 280 -294
q0 -143 -115 -234t-299 -91t-291 89v-100q0 -151 172 -151q43 0 61 5v-115q-33 -9 -90 -9q-118 0 -188 70t-70 200v298z" />
    <glyph glyph-name="uni0283" unicode="&#x283;" horiz-adv-x="876" 
d="M185 -442q-58 0 -119 14l6 122q41 -10 101 -10q90 0 142 54t52 148v1342q0 154 88 241t240 87q56 0 119 -15l-7 -121q-46 11 -101 11q-88 0 -140 -54.5t-52 -148.5v-1342q0 -154 -88.5 -241t-240.5 -87z" />
    <glyph glyph-name="uni0284" unicode="&#x284;" horiz-adv-x="876" 
d="M185 -442q-58 0 -119 14l6 122q41 -10 101 -10q90 0 142 54t52 148v146h-232v105h232v1091q0 154 88 241t240 87q56 0 119 -15l-7 -121q-46 11 -101 11q-88 0 -140 -54.5t-52 -148.5v-1091h231v-105h-231v-146q0 -154 -88.5 -241t-240.5 -87z" />
    <glyph glyph-name="uni0285" unicode="&#x285;" horiz-adv-x="875" 
d="M364 37v768q0 93 -52 147.5t-140 54.5q-54 0 -100 -11l-6 120q52 16 118 16q151 0 239 -87t88 -240v-920q0 -94 52.5 -147.5t141.5 -53.5q65 0 102 9l7 -122q-64 -14 -121 -14q-152 0 -240.5 87.5t-88.5 240.5v152z" />
    <glyph glyph-name="uni0286" unicode="&#x286;" horiz-adv-x="1093" 
d="M686 171v-236q26 -28 40 -43l182 -192l-90 -88l-122 141q-4 4 -11 13t-11 14q-23 -90 -92 -145t-184 -55q-125 0 -206 72t-81 181q0 115 78.5 184.5t197.5 69.5q89 0 169 -46v1187q0 155 83.5 241.5t233.5 86.5q57 0 120 -15l-8 -121q-46 11 -100 11q-89 0 -144 -54.5
t-55 -148.5v-1057zM556 -156v57q-78 63 -152 63q-63 0 -104 -38t-41 -93q0 -56 39 -93t98 -37q71 0 115.5 40t44.5 101z" />
    <glyph glyph-name="uni0287" unicode="&#x287;" horiz-adv-x="733" 
d="M123 0v113h236v712q0 97 -47 139.5t-121 42.5q-40 0 -76 -10l-28 117q56 20 115 20q74 0 138 -30.5t106.5 -95.5t42.5 -152v-743h167v-113h-167v-268h-130v268h-236z" />
    <glyph glyph-name="uni0288" unicode="&#x288;" horiz-adv-x="741" 
d="M611 1117v-113h-236v-1139q0 -97 47 -139t121 -42q31 0 76 10l28 -117q-56 -20 -115 -20q-55 0 -105.5 18t-92 52t-66 88t-24.5 120v1169h-166v113h166v268h131v-268h236z" />
    <glyph glyph-name="uni0289" unicode="&#x289;" horiz-adv-x="1221" 
d="M1222 700v-105h-182v-595h-129v185h-11q-41 -90 -127 -145t-205 -55q-166 0 -266.5 107t-100.5 301v202h-201v105h201v417h129v-417h581v417h129v-417h182zM911 427v168h-581v-194q0 -130 76.5 -210t198.5 -80q58 0 112 21t97.5 59.5t70 100t26.5 135.5z" />
    <glyph glyph-name="uni028A" unicode="&#x28a;" horiz-adv-x="1263" 
d="M632 102q100 0 173.5 28t112.5 76t57 103t18 118q0 60 -15.5 116.5t-38 100t-45 85.5t-38 89t-15.5 93q0 28 7 55t27.5 58.5t54 54t92 38t135.5 15.5v-122q-32 0 -59 -5t-52.5 -17t-40 -36t-14.5 -58q0 -52 24 -108t52 -100.5t52 -119.5t24 -159q0 -66 -13.5 -124.5
t-49.5 -115.5t-92 -97t-147 -65t-209 -25q-117 0 -208 25t-147 65t-92 97t-49.5 115.5t-13.5 124.5q0 69 16 130t38.5 105t45 83.5t38.5 82.5t16 86q0 64 -49 90t-119 26v122q77 0 135.5 -15.5t91.5 -38t54 -54t27.5 -58.5t6.5 -55q0 -46 -15.5 -93t-38 -89t-45 -85.5
t-38 -100t-15.5 -116.5q0 -63 18 -118t57.5 -103t112.5 -76t173 -28z" />
    <glyph glyph-name="uni028B" unicode="&#x28b;" horiz-adv-x="1065" 
d="M534 105q116 0 177.5 74.5t61.5 253.5v452q0 59 -21.5 85.5t-67.5 26.5q-60 0 -135 -26l-18 117q114 44 207 44q47 0 81 -14t53.5 -36t31 -56t15 -66.5t3.5 -75.5v-451q0 -232 -102 -342.5t-286 -110.5q-183 0 -284.5 110.5t-101.5 342.5v684h147v-684q0 -179 62 -253.5
t177 -74.5z" />
    <glyph glyph-name="uni028C" unicode="&#x28c;" horiz-adv-x="1117" 
d="M81 0l408 1117h139l408 -1117h-141l-331 946h-11l-331 -946h-141z" />
    <glyph glyph-name="uni028D" unicode="&#x28d;" horiz-adv-x="1648" 
d="M1230 1117l337 -1117h-136l-265 921h-10l-264 -921h-137l-262 919h-10l-265 -919h-137l338 1117h134l264 -916h14l265 916h134z" />
    <glyph glyph-name="uni028E" unicode="&#x28e;" horiz-adv-x="1117" 
d="M856 1536q75 0 125 -23l-35 -114q-103 32 -169.5 -2t-111.5 -156l-40 -113l411 -1128h-141l-331 946h-11l-331 -946h-141l473 1294q90 242 302 242z" />
    <glyph glyph-name="uni028F" unicode="&#x28f;" horiz-adv-x="1084" 
d="M199 1082l343 -582l345 582h167l-441 -714v-368h-148v374l-434 708h168z" />
    <glyph glyph-name="uni0290" unicode="&#x290;" horiz-adv-x="1183" 
d="M136 0v103l646 882v10h-618v122h784v-107l-634 -878v-10h658v-282q0 -85 39 -118t117 -33q38 0 61 5v-114q-37 -10 -90 -10q-118 0 -188 70t-70 200v160h-705z" />
    <glyph glyph-name="uni0291" unicode="&#x291;" horiz-adv-x="1222" 
d="M806 0h-285l-119 -174l-102 68l72 106h-229v113l644 882h-636v122h801v-107l-641 -888h146q64 91 105.5 146.5t91 112t89 86t85.5 48t95 18.5q107 0 181.5 -67t74.5 -166q0 -52 -22 -103t-65 -96t-117.5 -73t-168.5 -28zM606 122h202q111 0 177 50t66 119q0 52 -39.5 84
t-95.5 32q-72 0 -135.5 -63t-174.5 -222z" />
    <glyph glyph-name="uni0292" unicode="&#x292;" horiz-adv-x="1266" 
d="M142 0h137q8 -124 105.5 -197.5t241.5 -73.5q156 0 253.5 86.5t97.5 228.5q0 147 -108 240.5t-321 93.5h-80v113l404 494v10h-662v122h850v-100l-425 -522v-9q208 -9 342 -131.5t134 -310.5t-135.5 -312.5t-350.5 -124.5q-200 0 -337 108t-146 285z" />
    <glyph glyph-name="uni0293" unicode="&#x293;" horiz-adv-x="1280" 
d="M212 1117h845v-100l-426 -517v-9q211 -17 334.5 -127t123.5 -280q0 -138 -79 -259l112 -97l-76 -89l-110 96q-160 -155 -394 -155q-167 0 -277 81t-110 218q0 118 81.5 192t217.5 74q113 0 211.5 -52t197.5 -140l50 -43q42 78 42 166q0 138 -106 222.5t-285 84.5h-93v112
l403 490v10h-662v122zM843 -185l-58 51q-174 157 -328 157q-84 0 -135 -40.5t-51 -106.5q0 -79 80 -126t197 -47q181 0 295 112z" />
    <glyph glyph-name="uni0294" unicode="&#x294;" horiz-adv-x="1080" 
d="M416 542h81q92 0 160 30.5t107 85t58 123t19 152.5v66q0 65 -10.5 121t-34 106t-59.5 85t-90 55.5t-121 20.5q-121 0 -203 -67.5t-90 -174.5h-142q10 153 134 259t301 106q113 0 202 -39t145 -108.5t85.5 -162t29.5 -201.5v-66q0 -139 -45 -247.5t-141 -178.5t-234 -84
v-423h-155v542h3z" />
    <glyph glyph-name="uni0295" unicode="&#x295;" horiz-adv-x="1080" 
d="M501 0v423q-201 24 -305.5 161.5t-104.5 346.5v68q0 147 50.5 260.5t156.5 182t255 68.5q190 0 308.5 -108t126.5 -278h-141q-7 116 -86.5 189.5t-207.5 73.5q-83 0 -144.5 -31t-97.5 -85.5t-53 -122.5t-17 -149v-68q0 -79 16 -144.5t50.5 -119t94.5 -86.5t141 -39h106
v-542h-148z" />
    <glyph glyph-name="uni0296" unicode="&#x296;" horiz-adv-x="1080" 
d="M580 1489v-367q200 -24 304 -162t104 -348v-112q0 -226 -120 -370t-342 -144q-188 0 -306.5 108.5t-128.5 277.5h142q8 -116 87 -189.5t206 -73.5q83 0 145 31.5t98.5 86.5t54 123.5t17.5 149.5v112q0 84 -18.5 152.5t-57 123.5t-106 85.5t-159.5 30.5h-69v485h149z" />
    <glyph glyph-name="uni0297" unicode="&#x297;" horiz-adv-x="1075" 
d="M567 -320q110 0 186.5 62t87.5 163h143q-13 -147 -132.5 -247t-284.5 -100q-114 0 -205 42.5t-150 117t-90 174t-31 216.5v471q0 116 31 216.5t90 175.5t149.5 118t203.5 43q177 0 291 -108t127 -273h-142q-12 111 -87 185t-189 74q-83 0 -146.5 -34.5t-101.5 -95
t-57 -136.5t-19 -165v-471q0 -89 18.5 -164t56.5 -135.5t102 -94.5t149 -34z" />
    <glyph glyph-name="uni0298" unicode="&#x298;" horiz-adv-x="1549" 
d="M1419 745q0 -346 -179.5 -555.5t-464.5 -209.5q-140 0 -259.5 54.5t-204 153t-132.5 242t-48 315.5q0 229 82.5 403.5t228.5 268t333 93.5q285 0 464.5 -209.5t179.5 -555.5zM1287 745q0 147 -38.5 268t-107 201.5t-162.5 124t-204 43.5q-225 0 -368.5 -171.5
t-143.5 -465.5t143 -465.5t369 -171.5q110 0 204 43.5t162.5 124t107 201.5t38.5 268zM775 640q-43 0 -74 31t-31 74t31 73.5t74 30.5t73.5 -30.5t30.5 -73.5t-30.5 -74t-73.5 -31z" />
    <glyph glyph-name="uni0299" unicode="&#x299;" horiz-adv-x="1141" 
d="M171 0v1117h440q178 0 281 -77t103 -208q0 -189 -212 -244q104 -19 175 -93.5t71 -191.5q0 -133 -96.5 -218t-257.5 -85h-504zM295 120h380q102 0 162 52t60 141q0 94 -57 150.5t-151 56.5h-394v-400zM295 635h324q113 0 180 51t66 138q0 82 -67 127.5t-187 45.5h-316
v-362z" />
    <glyph glyph-name="uni029A" unicode="&#x29a;" horiz-adv-x="1105" 
d="M537 -20q-191 0 -312 87.5t-121 229.5q0 89 53.5 161t168.5 106q-201 56 -201 248q0 148 112 234t297 86q235 0 358 -146t123 -415v-1q0 -284 -122 -437t-356 -153zM884 570q0 216 -89 329.5t-267 113.5q-123 0 -196.5 -54.5t-74.5 -144.5q-1 -85 66 -133t194 -48h127
v-114h-127q-123 0 -200.5 -62t-77.5 -155q1 -91 83 -146.5t215 -55.5q173 0 260 121t87 349z" />
    <glyph glyph-name="uni029B" unicode="&#x29b;" horiz-adv-x="1259" 
d="M1100 742h-138q-16 117 -97.5 179t-218.5 62q-159 -1 -266 -103t-107 -255v-162q0 -157 105.5 -259.5t269.5 -102.5q101 -1 195 34t126 70v203h-305v122h436v-375q-43 -64 -167.5 -120t-284.5 -56q-227 0 -368.5 134.5t-140.5 349.5v162q-1 210 142 344t365 134
q237 0 358 -134q38 168 214 168q42 0 90 -12v-105q-40 6 -61 6q-75 0 -111 -37t-36 -124v-123z" />
    <glyph glyph-name="uni029C" unicode="&#x29c;" horiz-adv-x="1193" 
d="M300 1117v-498h591v498h129v-1117h-129v497h-591v-497h-129v1117h129z" />
    <glyph glyph-name="uni029D" unicode="&#x29d;" horiz-adv-x="624" 
d="M212 -419q-117 0 -192.5 72.5t-75.5 179.5q0 112 82.5 184t202.5 72h122v1028h130v-1028h189v-125h-189v-86q0 -124 -73 -210.5t-196 -86.5zM351 -35h-122q-64 0 -106 -39t-42 -95q0 -54 38 -92t91 -38q68 0 104.5 49.5t36.5 115.5v99zM417 1309q-40 0 -68.5 27.5
t-28.5 65.5t28.5 65.5t68.5 27.5t68.5 -27.5t28.5 -65.5t-28.5 -65.5t-68.5 -27.5z" />
    <glyph glyph-name="uni029E" unicode="&#x29e;" horiz-adv-x="1075" 
d="M905 1117v-1489h-130v898h-16l-523 -526h-164l478 479l-507 638h166l438 -553l128 120v433h130z" />
    <glyph glyph-name="uni029F" unicode="&#x29f;" horiz-adv-x="896" 
d="M800 120v-120h-699v1082h149v-962h550z" />
    <glyph glyph-name="uni02A0" unicode="&#x2a0;" horiz-adv-x="1305" 
d="M1058 -419h-130v626h-12q-18 -43 -44.5 -80t-66.5 -73t-100 -56.5t-132 -20.5q-205 0 -332.5 160t-127.5 419t127.5 417.5t334.5 158.5q238 0 341 -228h16v213q0 127 64.5 191t186.5 64q57 0 90 -7v-113q-26 5 -61 5q-79 0 -116.5 -33t-37.5 -107v-1536zM930 558
q0 206 -90.5 331.5t-251.5 125.5q-109 0 -188 -61t-117.5 -163.5t-38.5 -232.5q0 -202 91.5 -332.5t252.5 -130.5q160 0 251 128t91 335z" />
    </font>
</defs>
</svg>
