<?xml version="1.0" standalone="no"?>
<!DOCTYPE svg PUBLIC "-//W3C//DTD SVG 1.1//EN" "http://www.w3.org/Graphics/SVG/1.1/DTD/svg11.dtd" >
<svg xmlns="http://www.w3.org/2000/svg" xmlns:xlink="http://www.w3.org/1999/xlink" version="1.1">
<metadata>
Created by FontForge 20170731 at Wed Aug 23 12:58:27 2017
 By Aleksey,,,
Copyright 2017, The Mozilla Foundation
</metadata>
<defs>
<font id="ZillaSlab-Italic" horiz-adv-x="605" >
  <font-face 
    font-family="Zilla Slab"
    font-weight="400"
    font-style="italic"
    font-stretch="normal"
    units-per-em="1000"
    panose-1="0 0 0 0 0 0 0 0 0 0"
    ascent="787"
    descent="-213"
    x-height="445"
    cap-height="650"
    bbox="-169 -223.154 1229 883"
    underline-thickness="50"
    underline-position="-150"
    slope="-6"
    unicode-range="U+0020-FB04"
  />
<missing-glyph horiz-adv-x="712" 
d="M80 675v27h27v-27h-27zM155 675v27h27v-27h-27zM230 675v27h27v-27h-27zM305 675v27h27v-27h-27zM380 675v27h27v-27h-27zM455 675v27h27v-27h-27zM530 675v27h27v-27h-27zM605 675v27h27v-27h-27zM605 600v27h27v-27h-27zM80 600v27h27v-27h-27zM455 525v27h27v-27h-27z
M605 525v27h27v-27h-27zM230 525v27h27v-27h-27zM305 525v27h27v-27h-27zM380 525v27h27v-27h-27zM80 525v27h27v-27h-27zM455 450v27h27v-27h-27zM605 450v27h27v-27h-27zM80 450v27h27v-27h-27zM305 375v27h27v-27h-27zM605 375v27h27v-27h-27zM455 375v27h27v-27h-27z
M380 375v27h27v-27h-27zM80 375v27h27v-27h-27zM605 300v27h27v-27h-27zM305 300v27h27v-27h-27zM80 300v27h27v-27h-27zM605 225v27h27v-27h-27zM80 225v27h27v-27h-27zM605 150v27h27v-27h-27zM305 150v27h27v-27h-27zM80 150v27h27v-27h-27zM605 75v27h27v-27h-27zM80 75
v27h27v-27h-27zM230 0v27h27v-27h-27zM155 0v27h27v-27h-27zM80 0v27h27v-27h-27zM305 0v27h27v-27h-27zM380 0v27h27v-27h-27zM605 0v27h27v-27h-27zM455 0v27h27v-27h-27zM530 0v27h27v-27h-27z" />
    <glyph glyph-name="uniFB00" unicode="ff" horiz-adv-x="561" 
d="M23 388l4 37l23 20h65l11 90q10 81 54 119t102 38q40 0 74 -20t50 -55q42 81 138 81q28 0 55 -6t52 -25l6 -104l-57 -7l-10 76q-14 6 -28.5 8t-25.5 2q-74 0 -87 -108l-11 -89h130l-5 -36l-23 -21h-109l-55 -446q-10 -75 -42.5 -120t-102.5 -45q-49 0 -83.5 27.5
t-34.5 93.5q-14 -56 -46 -88.5t-90 -32.5q-51 0 -85.5 28.5t-33.5 96.5l55 16q-2 -55 19.5 -69.5t42.5 -14.5q64 0 78 109l55 445h-85zM193 533l-11 -88h188l11 86q0 3 0.5 6t0.5 6q2 42 -23 67.5t-67 25.5q-87 0 -99 -103zM363 388h-188l-54 -446q-4 -26 -7 -39l54 15
q-2 -55 19 -69.5t40 -14.5q38 0 56 28.5t25 80.5z" />
    <glyph glyph-name="uniFB01" unicode="fi" horiz-adv-x="510" 
d="M439 445l-47 -388h74l-5 -40l-21 -17h-123l47 388h-189l-54 -446q-10 -75 -43 -120t-102 -45q-50 0 -84.5 28.5t-33.5 96.5l55 16q-2 -55 19.5 -69.5t41.5 -14.5q37 0 54.5 28.5t24.5 80.5l55 445h-85l4 37l23 20h65l10 83q10 78 54.5 124t128.5 46q27 0 66.5 -6.5
t67.5 -25.5l7 -111l-58 -7l-11 83q-26 11 -67 11q-55 0 -83.5 -24t-36.5 -88l-11 -85h257z" />
    <glyph glyph-name="uniFB02" unicode="fl" horiz-adv-x="508" 
d="M468 688l-77 -631h75l-5 -40l-21 -17h-124l68 557q-1 38 -26 61.5t-65 23.5q-87 0 -99 -104l-12 -93h131l-5 -36l-23 -21h-110l-54 -446q-10 -75 -43 -120t-101 -45q-51 0 -85.5 28.5t-33.5 96.5l55 16q-2 -55 19.5 -69.5t42.5 -14.5q64 0 78 109l54 445h-84l4 37l23 20
h64l12 96q10 81 54 119t103 38q77 0 111 -61l6 51h68z" />
    <glyph glyph-name="uniFB03" unicode="ffi" horiz-adv-x="766" 
d="M695 445l-47 -388h74l-5 -40l-21 -17h-122l47 388h-190l-54 -446q-10 -75 -43 -120t-102 -45q-50 0 -84.5 28.5t-33.5 96.5q-14 -58 -46 -91.5t-91 -33.5q-51 0 -85.5 28.5t-33.5 96.5l55 16q-2 -55 19.5 -69.5t42.5 -14.5q64 0 78 109l55 445h-85l4 37l23 20h65l11 90
q10 81 54 119t102 38q42 0 75.5 -22.5t45.5 -62.5q45 91 161 91q27 0 66.5 -6.5t67.5 -25.5l7 -111l-58 -7l-11 83q-26 11 -67 11q-55 0 -83.5 -24t-36.5 -88l-11 -85h257zM292 636q-87 0 -99 -103l-11 -88h189l10 83l3 19q1 41 -25 65t-67 24zM121 -58q-4 -25 -7 -40l55 16
q-2 -55 19.5 -69.5t41.5 -14.5q37 0 54.5 28.5t24.5 80.5l55 445h-189z" />
    <glyph glyph-name="uniFB04" unicode="ffl" horiz-adv-x="764" 
d="M724 688l-77 -631h75l-5 -40l-21 -17h-123l66 541q6 45 -19.5 73t-69.5 28q-88 0 -100 -104l-12 -93h132l-5 -36l-23 -21h-111l-54 -446q-9 -75 -42 -120t-102 -45q-51 0 -85 28.5t-33 96.5l55 16q-2 -55 19 -69.5t42 -14.5q36 0 53.5 28.5t24.5 80.5l55 445h-189
l-54 -446q-10 -75 -43 -120t-101 -45q-51 0 -85.5 28.5t-33.5 96.5l55 16q-2 -55 19.5 -69.5t42.5 -14.5q64 0 78 109l55 445h-85l4 37l23 20h65l11 90q10 81 54 119t102 38q41 0 74 -22t46 -59q20 44 57 65.5t80 21.5q77 0 111 -62l7 52h67zM292 636q-87 0 -99 -103
l-11 -88h189l12 96q0 5 1 8q0 40 -26 63.5t-66 23.5z" />
    <glyph glyph-name="uni00660068" unicode="fh" horiz-adv-x="781" 
d="M469 688l-40 -322q24 40 60 64t87 24q64 0 101 -40t26 -129l-27 -228h75l-5 -40l-21 -17h-123l32 264q9 72 -15.5 102.5t-70.5 30.5q-52 0 -85.5 -35.5t-43.5 -81.5l-34 -280h-68l66 541q5 45 -20.5 73t-69.5 28q-87 0 -99 -104l-12 -93h131l-5 -36l-23 -21h-110
l-54 -446q-10 -75 -43 -120t-101 -45q-51 0 -85.5 28.5t-33.5 96.5l55 16q-2 -55 19.5 -69.5t42.5 -14.5q64 0 78 109l54 445h-84l4 37l23 20h64l12 96q10 81 54 119t103 38q77 0 111 -63l7 53h68z" />
    <glyph glyph-name="uni00660062" unicode="fb" horiz-adv-x="777" 
d="M468 688l-41 -332q23 40 58.5 69t93.5 29q75 0 116 -52t41 -137q0 -57 -20 -121t-66 -109t-123 -45q-106 0 -139 84q-4 -19 -9 -37t-9 -37h-68q8 29 17 63t13 67l52 426q-1 39 -25.5 62.5t-65.5 23.5q-87 0 -99 -104l-12 -93h131l-5 -36l-23 -21h-110l-54 -446
q-10 -74 -42.5 -119.5t-102.5 -45.5q-50 0 -84.5 28.5t-33.5 96.5l55 16q-2 -52 18.5 -68t42.5 -16q65 0 79 109l54 445h-84l4 37l23 20h64l12 96q10 81 54.5 119t101.5 38q77 0 111 -62l7 52h68zM522 47q53 0 84 34.5t44 83.5t13 91q0 141 -103 141q-59 0 -96 -44.5
t-48 -90.5l-12 -97q0 -50 33 -84t85 -34z" />
    <glyph glyph-name="uni0066006A" unicode="fj" horiz-adv-x="490" 
d="M125 528q10 78 54.5 124t128.5 46q27 0 66.5 -6.5t67.5 -25.5l7 -111l-58 -7l-11 83q-26 11 -67 11q-55 0 -83.5 -24t-36.5 -88l-11 -85h257l-57 -463q-25 -195 -132 -204q-41 -3 -84 17l3 51q52 -21 91.5 3.5t53.5 132.5l50 406h-189l-54 -446q-10 -75 -43 -120
t-101 -45q-51 0 -85.5 28.5t-33.5 96.5l55 16q-2 -55 19.5 -69.5t42.5 -14.5q64 0 78 109l55 445h-85l4 37l23 20h65z" />
    <glyph glyph-name="uni0066006B" unicode="fk" horiz-adv-x="722" 
d="M468 688l-53 -430h81q46 40 74 86t32 101h72q-4 -62 -42 -116.5t-96 -94.5l97 -177h63l-5 -40l-21 -17h-78l-111 207h-72l-25 -207h-68l66 541q5 45 -20 73t-69 28q-87 0 -99 -104l-12 -93h131l-5 -36l-23 -21h-110l-54 -446q-10 -75 -43 -120t-101 -45q-51 0 -85.5 28.5
t-33.5 96.5l55 16q-2 -55 19.5 -69.5t42.5 -14.5q64 0 78 109l54 445h-84l4 37l23 20h64l12 96q10 81 54 119t103 38q77 0 110 -62l7 52h68z" />
    <glyph glyph-name="uni00660066006A" unicode="ffj" horiz-adv-x="746" 
d="M638 -18q-25 -203 -142 -205q-38 0 -74 18l3 51q51 -21 92 3.5t54 132.5l50 406h-190l-54 -446q-10 -75 -43 -120t-102 -45q-50 0 -84.5 28.5t-33.5 96.5q-14 -58 -46 -91.5t-91 -33.5q-51 0 -85.5 28.5t-33.5 96.5l55 16q-2 -55 19.5 -69.5t42.5 -14.5q64 0 78 109
l55 445h-85l4 37l23 20h65l11 90q10 81 54 119t102 38q42 0 75.5 -22.5t45.5 -62.5q45 91 161 91q27 0 66.5 -6.5t67.5 -25.5l7 -111l-58 -7l-11 83q-26 11 -67 11q-55 0 -83.5 -24t-36.5 -88l-11 -85h257zM292 636q-87 0 -99 -103l-11 -88h189l10 83l3 19q1 41 -25 65
t-67 24zM121 -58q-4 -25 -7 -40l55 16q-2 -55 19.5 -69.5t41.5 -14.5q37 0 54.5 28.5t24.5 80.5l55 445h-189z" />
    <glyph glyph-name="uni006600EC" unicode="f&#xec;" horiz-adv-x="511" 
d="M500 520l-122 143l57 46l97 -165zM126 532q11 88 46 127.5t99 39.5q39 0 83 -22l-11 -60q-17 15 -34 19.5t-31 4.5q-38 0 -57.5 -24t-26.5 -82l-11 -90h256l-47 -388h74l-5 -40l-21 -17h-123l47 388h-188l-55 -446q-10 -75 -43 -120t-101 -45q-51 0 -85.5 28.5
t-33.5 96.5l55 16q-2 -55 19.5 -69.5t42.5 -14.5q64 0 78 109l55 445h-85l4 37l23 20h65z" />
    <glyph glyph-name="uni006600EF" unicode="f&#xef;" horiz-adv-x="510" 
d="M439 445l-47 -388h74l-5 -40l-21 -17h-123l47 388h-188l-55 -446q-10 -75 -43 -120t-101 -45q-51 0 -85.5 28.5t-33.5 96.5l55 16q-2 -55 19.5 -69.5t42.5 -14.5q64 0 78 109l55 445h-85l4 37l23 20h65l10 82q10 79 54.5 125t115.5 46q63 0 91.5 -29.5t26.5 -56.5l-6 -57
h-79l5 49q3 40 -48 40q-45 0 -65 -28t-26 -84l-11 -87h256zM493 555l9 81h80l-9 -81h-80z" />
    <glyph glyph-name=".notdef" horiz-adv-x="712" 
d="M80 675v27h27v-27h-27zM155 675v27h27v-27h-27zM230 675v27h27v-27h-27zM305 675v27h27v-27h-27zM380 675v27h27v-27h-27zM455 675v27h27v-27h-27zM530 675v27h27v-27h-27zM605 675v27h27v-27h-27zM605 600v27h27v-27h-27zM80 600v27h27v-27h-27zM455 525v27h27v-27h-27z
M605 525v27h27v-27h-27zM230 525v27h27v-27h-27zM305 525v27h27v-27h-27zM380 525v27h27v-27h-27zM80 525v27h27v-27h-27zM455 450v27h27v-27h-27zM605 450v27h27v-27h-27zM80 450v27h27v-27h-27zM305 375v27h27v-27h-27zM605 375v27h27v-27h-27zM455 375v27h27v-27h-27z
M380 375v27h27v-27h-27zM80 375v27h27v-27h-27zM605 300v27h27v-27h-27zM305 300v27h27v-27h-27zM80 300v27h27v-27h-27zM605 225v27h27v-27h-27zM80 225v27h27v-27h-27zM605 150v27h27v-27h-27zM305 150v27h27v-27h-27zM80 150v27h27v-27h-27zM605 75v27h27v-27h-27zM80 75
v27h27v-27h-27zM230 0v27h27v-27h-27zM155 0v27h27v-27h-27zM80 0v27h27v-27h-27zM305 0v27h27v-27h-27zM380 0v27h27v-27h-27zM605 0v27h27v-27h-27zM455 0v27h27v-27h-27zM530 0v27h27v-27h-27z" />
    <glyph glyph-name=".null" horiz-adv-x="0" 
 />
    <glyph glyph-name="nonmarkingreturn" horiz-adv-x="333" 
 />
    <glyph glyph-name="uni0020" unicode=" " horiz-adv-x="220" 
 />
    <glyph glyph-name="uni0021" unicode="!" horiz-adv-x="237" 
d="M199 650l-63 -458h-53l34 458h82zM48 0l10 97h88l-11 -97h-87z" />
    <glyph glyph-name="uni0022" unicode="&#x22;" horiz-adv-x="366" 
d="M136 377h-62l25 273h70zM312 377h-62l25 273h70z" />
    <glyph glyph-name="uni0023" unicode="#" horiz-adv-x="579" 
d="M509 521l-35 -118h80l-7 -57h-90l-48 -164h92l-7 -57h-102l-36 -125h-62l36 125h-172l-36 -125h-62l36 125h-74l6 57h85l48 164h-87l7 57h97l35 118h62l-35 -118h172l35 118h62zM175 182h172l48 164h-172z" />
    <glyph glyph-name="uni0024" unicode="$" horiz-adv-x="463" 
d="M406 159q0 -75 -50 -118t-133 -48l-6 -58h-40l6 58q-51 3 -94 18t-65 31l23 114l59 -5l-10 -73q41 -22 93 -27l20 195q-61 14 -103 40t-42 87q0 74 51 112.5t124 42.5l7 65h40l-7 -65q84 -6 137 -47l-5 -115l-59 -4l-1 84q-19 13 -39 18.5t-39 7.5l-18 -170
q51 -12 101 -40t50 -103zM139 386q0 -35 21.5 -50.5t55.5 -24.5l17 161q-94 -10 -94 -86zM332 148q0 40 -23 59t-61 29l-19 -185q44 4 73.5 28t29.5 69z" />
    <glyph glyph-name="uni0025" unicode="%" horiz-adv-x="675" 
d="M170 243q-57 0 -90 31.5t-33 92.5q0 77 46 120t115 43q56 0 89 -31t33 -93q0 -72 -43 -117.5t-117 -45.5zM596 521l-224 -254l-226 -267h-74l256 287l195 234h73zM176 294q49 0 72 30t23 77q0 78 -70 78q-95 0 -95 -107q0 -78 70 -78zM467 -10q-56 0 -89.5 30t-33.5 95
q0 77 46 119.5t116 42.5q55 0 88 -32t33 -93q0 -71 -42.5 -116.5t-117.5 -45.5zM473 40q49 0 72.5 30.5t23.5 77.5q0 79 -71 79q-95 0 -95 -108q0 -79 70 -79z" />
    <glyph glyph-name="uni0026" unicode="&#x26;" horiz-adv-x="716" 
d="M429 362h273l-7 -63h-102q-23 -47 -62.5 -101t-90.5 -100q64 -40 126 -40q43 0 82 21l11 -61q-52 -28 -108 -28q-45 0 -88 16t-83 45q-40 -28 -84 -44.5t-90 -16.5q-71 0 -122 41t-51 114q0 65 43.5 107t101.5 73q-23 67 -23 128q0 91 54 149t140 58q66 0 107 -34.5
t41 -92.5q0 -55 -37 -92.5t-91.5 -66t-109.5 -54.5q50 -116 141 -193q77 69 117 172h-95zM424 529q0 29 -19.5 51t-60.5 22q-52 0 -84.5 -37.5t-32.5 -101.5q0 -51 18 -106q71 36 125 77t54 95zM194 286q-40 -24 -65 -54.5t-25 -75.5q0 -56 35 -80t85 -24q59 0 115 31
q-92 83 -145 203z" />
    <glyph glyph-name="uni0027" unicode="'" horiz-adv-x="190" 
d="M136 377h-62l25 273h70z" />
    <glyph glyph-name="uni0028" unicode="(" horiz-adv-x="273" 
d="M245 718h66q-106 -121 -160 -246t-54 -260q0 -100 29.5 -203.5t89.5 -191.5h-68q-58 92 -84.5 193t-26.5 198q0 133 50 259.5t158 250.5z" />
    <glyph glyph-name="uni0029" unicode=")" horiz-adv-x="272" 
d="M25 -183h-66q106 121 160 246t54 260q0 100 -29.5 203.5t-89.5 191.5h68q58 -92 84.5 -193t26.5 -198q0 -133 -50 -259t-158 -251z" />
    <glyph glyph-name="uni002A" unicode="*" horiz-adv-x="407" 
d="M390 556l-123 -67l109 -65l-34 -45l-99 70l-8 -116h-53l16 116l-114 -70l-23 45l122 65l-108 67l32 45l100 -72l9 121h53l-17 -120l113 71z" />
    <glyph glyph-name="uni002B" unicode="+" horiz-adv-x="414" 
d="M35 254l5 54h147l16 147h52l-16 -147h141l-5 -54h-142l-15 -146h-52l15 146h-146z" />
    <glyph glyph-name="uni002C" unicode="," horiz-adv-x="200" 
d="M-15 -102l74 216h68l-74 -216h-68z" />
    <glyph glyph-name="uni002D" unicode="-" horiz-adv-x="342" 
d="M55 261h228l-6 -61h-228z" />
    <glyph glyph-name="uni002E" unicode="." horiz-adv-x="208" 
d="M30 0l10 101h93l-10 -101h-93z" />
    <glyph glyph-name="uni002F" unicode="/" horiz-adv-x="376" 
d="M377 688l-288 -688h-65l286 688h67z" />
    <glyph glyph-name="uni0030" unicode="0" horiz-adv-x="566" 
d="M42 224q0 124 69.5 215t198.5 91q108 0 159 -66.5t51 -172.5q0 -132 -71 -216.5t-196 -84.5q-103 0 -157 62.5t-54 171.5zM118 232q0 -82 33 -129.5t109 -47.5q86 0 135 63t49 173q0 79 -32 126.5t-110 47.5q-90 0 -137 -63.5t-47 -169.5z" />
    <glyph glyph-name="uni0031" unicode="1" horiz-adv-x="375" 
d="M29 64h120l41 393h-119l6 64h191l-48 -457h115l-7 -64h-306z" />
    <glyph glyph-name="uni0032" unicode="2" horiz-adv-x="505" 
d="M122 362l-56 7l29 118q38 21 88 32.5t94 11.5q89 0 125.5 -44.5t36.5 -96.5q0 -73 -56 -134.5t-131.5 -109.5t-133.5 -82h253l18 83l58 -5l-24 -142h-398l-1 57q156 101 246.5 172t90.5 150q0 89 -108 89q-20 0 -50 -6t-56 -17z" />
    <glyph glyph-name="uni0033" unicode="3" horiz-adv-x="504" 
d="M137 362l-56 7l28 110q29 19 73 35.5t94 16.5q71 0 120.5 -36.5t49.5 -106.5q0 -52 -30 -99t-110 -71v-4q76 -14 105 -56t29 -89q0 -94 -63 -152t-167 -58q-91 0 -136.5 41t-51.5 100l58 20q10 -40 40 -69t92 -29q89 0 120 49t31 97q0 52 -38.5 81.5t-133.5 32.5l5 54
q104 5 138.5 50.5t34.5 87.5q0 94 -113 94q-46 0 -92 -24z" />
    <glyph glyph-name="uni0034" unicode="4" horiz-adv-x="529" 
d="M360 -131h-71l18 167h-303l-1 62l273 423h152l-44 -423h104l-15 -62h-95zM313 98l38 360h-50l-230 -360h242z" />
    <glyph glyph-name="uni0035" unicode="5" horiz-adv-x="503" 
d="M440 79q0 -99 -60 -159t-167 -60q-89 0 -134.5 40.5t-50.5 99.5l58 20q9 -44 39 -71t88 -27q75 0 112.5 42t37.5 107q0 85 -54.5 110t-132.5 25q-41 0 -83 -3l-22 24l32 294h354l-5 -138l-61 -6l-3 81h-225l-21 -191q12 1 25 1h24q100 0 174.5 -36.5t74.5 -152.5z" />
    <glyph glyph-name="uni0036" unicode="6" horiz-adv-x="526" 
d="M472 229q0 -91 -54 -165t-173 -74q-112 0 -154 72t-42 193q0 99 26 192t86.5 153t164.5 60q111 0 173 -88l-48 -44q-48 69 -134 69q-91 0 -138 -81.5t-55 -224.5q18 41 64 76.5t123 35.5q88 0 124.5 -50t36.5 -124zM399 219q0 59 -25.5 90t-85.5 31q-81 0 -118.5 -47
t-46.5 -93q1 -63 28 -103.5t100 -40.5q79 0 113.5 47.5t34.5 115.5z" />
    <glyph glyph-name="uni0037" unicode="7" horiz-adv-x="463" 
d="M59 521h403l6 -42l-303 -609h-76l300 588h-272l-12 -111h-65z" />
    <glyph glyph-name="uni0038" unicode="8" horiz-adv-x="528" 
d="M229 -10q-86 0 -142 39t-56 118q0 78 52 118t119 67q-48 26 -83 60t-35 91q0 75 63 126t157 51q80 0 133 -40t53 -110q0 -67 -46 -103.5t-107 -62.5q54 -26 95.5 -63.5t41.5 -104.5q0 -85 -70.5 -135.5t-174.5 -50.5zM160 494q0 -47 38.5 -74.5t89.5 -51.5q52 22 90 52
t38 82q0 50 -34 73t-83 23q-59 0 -99 -28t-40 -76zM240 52q64 0 111.5 30.5t47.5 84.5t-46 84t-103 56q-57 -25 -101.5 -56.5t-44.5 -90.5q0 -53 38.5 -80.5t97.5 -27.5z" />
    <glyph glyph-name="uni0039" unicode="9" horiz-adv-x="525" 
d="M50 291q0 91 54 165t173 74q112 0 154 -72t42 -193q0 -99 -26 -192t-86.5 -153t-164.5 -60q-111 0 -173 88l48 44q48 -69 134 -69q91 0 138 81.5t55 224.5q-18 -41 -64 -76.5t-123 -35.5q-88 0 -124.5 50t-36.5 124zM123 301q0 -59 25.5 -90t85.5 -31q81 0 118.5 47
t46.5 93q-1 63 -28 103.5t-100 40.5q-79 0 -113.5 -47.5t-34.5 -115.5z" />
    <glyph glyph-name="uni003A" unicode=":" horiz-adv-x="220" 
d="M85 445h90l-11 -101h-89zM49 100h89l-10 -100h-90z" />
    <glyph glyph-name="uni003B" unicode=";" horiz-adv-x="232" 
d="M88 343l10 101h93l-10 -101h-93zM-6 -102l74 216h68l-74 -216h-68z" />
    <glyph glyph-name="uni003C" unicode="&#x3c;" horiz-adv-x="397" 
d="M314 14l-286 255l2 20l340 260l-9 -69l-256 -200l216 -197z" />
    <glyph glyph-name="uni003D" unicode="=" horiz-adv-x="565" 
d="M68 364l6 54h448l-6 -54h-448zM45 144l6 52h448l-6 -52h-448z" />
    <glyph glyph-name="uni003E" unicode="&#x3e;" horiz-adv-x="398" 
d="M368 269l-338 -255l7 69l258 197l-217 200l8 69l285 -260z" />
    <glyph glyph-name="uni003F" unicode="?" horiz-adv-x="438" 
d="M118 460l-57 5l21 120q32 30 80 52.5t103 22.5q67 0 117.5 -33t50.5 -95q0 -52 -34.5 -87.5t-79 -63t-79 -53.5t-34.5 -60q0 -37 48 -37l-5 -50q-66 -4 -92 19.5t-26 58.5q0 48 34 79.5t78 57t78 54t34 69.5q0 76 -104 76q-60 0 -110 -39zM133 0l10 97h87l-10 -97h-87z
" />
    <glyph glyph-name="uni0040" unicode="@" horiz-adv-x="891" 
d="M617 307l-21 -173q0 -2 -1 -10t-1 -13q-1 -27 11.5 -49t46.5 -22q48 0 78 39.5t43.5 99t13.5 117.5q0 116 -44.5 182.5t-112.5 93.5t-140 27q-114 0 -204.5 -53.5t-142.5 -146.5t-52 -211q0 -164 95 -249.5t229 -85.5q55 0 113 15.5t105 46.5l20 -45q-53 -33 -117 -52.5
t-132 -19.5q-160 0 -266 106.5t-106 278.5q0 129 60 236t163.5 171t232.5 64q85 0 168 -34.5t137.5 -110t54.5 -197.5q0 -68 -21 -143t-68 -127t-124 -52q-53 0 -81 30t-30 70q-22 -40 -58 -70t-93 -30q-73 0 -111.5 51t-38.5 137q0 57 19.5 121.5t65 109.5t122.5 45
q102 0 132 -85q4 19 9 38t11 38h66q-10 -33 -18.5 -70t-12.5 -68zM435 397q-53 0 -83.5 -34t-43 -82.5t-12.5 -92.5q0 -141 97 -141q55 0 91.5 44t47.5 89l13 101q0 51 -30.5 83.5t-79.5 32.5z" />
    <glyph glyph-name="uni0041" unicode="A" horiz-adv-x="632" 
d="M-18 64h60l262 522h-101l6 64h180l167 -586h62l-7 -64h-223l6 64h85l-33 125h-270l-61 -125h90l-6 -64h-222zM349 544l-145 -298h227l-78 298h-4z" />
    <glyph glyph-name="uni0042" unicode="B" horiz-adv-x="588" 
d="M368 650q89 0 133 -38t44 -100q0 -61 -35.5 -104.5t-87.5 -53.5l-1 -4q61 -10 90 -51t29 -96q0 -83 -60 -143t-172 -60h-295l6 64h79l55 522h-79l7 64h287zM326 366q62 0 102.5 33.5t40.5 91.5q0 52 -31 73.5t-86 21.5h-129l-23 -220h126zM302 64q73 0 117.5 36t44.5 101
q0 105 -114 105h-156l-26 -242h134z" />
    <glyph glyph-name="uni0043" unicode="C" horiz-adv-x="630" 
d="M540 50q-40 -30 -97.5 -45t-112.5 -15q-139 0 -212.5 83.5t-73.5 215.5q0 101 42 185.5t119.5 135t184.5 50.5q71 0 124 -22t86 -54l4 -125l-62 -6l-8 95q-28 21 -64.5 33.5t-83.5 12.5q-118 0 -193 -80.5t-75 -218.5q0 -239 226 -239q81 0 137 29l28 96l60 -6z" />
    <glyph glyph-name="uni0044" unicode="D" horiz-adv-x="686" 
d="M12 0l7 63h79l55 524h-79l6 63h282q143 0 217 -81t74 -208q0 -155 -96.5 -258t-259.5 -103h-285zM300 63q130 0 204.5 81.5t74.5 210.5q0 106 -57 169t-167 63h-132l-55 -524h132z" />
    <glyph glyph-name="uni0045" unicode="E" horiz-adv-x="573" 
d="M481 0h-469l6 64h80l56 522h-81l7 64h465v-184l-63 -7l-6 127h-251l-25 -224h302l-6 -64h-302l-25 -234h256l33 127l61 -7z" />
    <glyph glyph-name="uni0046" unicode="F" horiz-adv-x="544" 
d="M537 462l-65 -6l-6 130h-242l-27 -253h293l-7 -64h-293l-21 -205h113l-7 -64h-263l7 64h79l55 522h-80l7 64h456z" />
    <glyph glyph-name="uni0047" unicode="G" horiz-adv-x="675" 
d="M647 270h-50l-28 -270h-55v89q-32 -43 -86.5 -71t-123.5 -28q-121 0 -191 85.5t-70 215.5q0 103 44 187t123 133t183 49q68 0 125 -21t90 -55l4 -122l-61 -7l-10 92q-23 17 -60 32t-92 15q-120 0 -196 -81t-76 -217q0 -115 55 -177.5t149 -62.5q89 0 140.5 49t58.5 107
l6 58h-153l7 65h274z" />
    <glyph glyph-name="uni0048" unicode="H" horiz-adv-x="733" 
d="M19 64h79l55 522h-79l7 64h229l-7 -64h-80l-23 -224h351l23 224h-79l7 64h229l-7 -64h-79l-55 -522h80l-7 -64h-229l7 64h78l25 236h-351l-25 -236h80l-6 -64h-229z" />
    <glyph glyph-name="uni0049" unicode="I" horiz-adv-x="311" 
d="M19 64h79l55 522h-80l7 64h229l-6 -64h-81l-55 -522h81l-7 -64h-229z" />
    <glyph glyph-name="uni004A" unicode="J" horiz-adv-x="442" 
d="M179 650h266l-6 -64h-70l-44 -420q-9 -88 -57 -132t-124 -44q-63 0 -97 27.5t-50 71.5l55 40q16 -41 38.5 -55.5t54.5 -14.5q51 0 77.5 29t31.5 78l44 420h-125z" />
    <glyph glyph-name="uni004B" unicode="K" horiz-adv-x="623" 
d="M367 64h73l-142 235h-105l-25 -235h73l-7 -64h-223l8 64h78l55 522h-79l6 64h225l-7 -64h-74l-24 -224h103l184 225h-72l7 64h222l-7 -64h-70l-210 -249l167 -274h71l-7 -64h-228z" />
    <glyph glyph-name="uni004C" unicode="L" horiz-adv-x="528" 
d="M468 0h-456l6 64h80l55 522h-80l7 64h257l-6 -64h-107l-55 -522h242l35 149l63 -5z" />
    <glyph glyph-name="uni004D" unicode="M" horiz-adv-x="856" 
d="M20 64h78l55 522h-83l7 64h145l193 -506h4l292 506h146l-6 -64h-84l-55 -522h80l-6 -64h-225l6 64h74l44 413h-4l-259 -444h-38l-170 448h-4l-44 -417h76l-6 -64h-223z" />
    <glyph glyph-name="uni004E" unicode="N" horiz-adv-x="715" 
d="M25 64h73l55 522h-83l7 64h134l309 -502h3l45 438h-94l6 64h242l-6 -64h-80l-61 -586h-45l-314 512h-3l-48 -448h102l-6 -64h-243z" />
    <glyph glyph-name="uni004F" unicode="O" horiz-adv-x="710" 
d="M393 660q132 0 208.5 -88t76.5 -213q0 -100 -46 -184t-125.5 -134.5t-181.5 -50.5q-133 0 -208 88t-75 213q0 101 46.5 185t126 134t178.5 50zM336 56q123 0 194.5 90t71.5 208q0 105 -56.5 172.5t-160.5 67.5q-119 0 -193 -88t-74 -209q0 -97 53 -169t165 -72z" />
    <glyph glyph-name="uni0050" unicode="P" horiz-adv-x="561" 
d="M19 64h79l55 522h-79l7 64h261q107 0 156.5 -53.5t49.5 -127.5q0 -109 -66.5 -168t-170.5 -59h-124l-19 -178h110l-7 -64h-258zM308 306q80 0 122.5 42.5t42.5 117.5q0 56 -35.5 88t-107.5 32h-107l-29 -280h114z" />
    <glyph glyph-name="uni0051" unicode="Q" horiz-adv-x="720" 
d="M393 660q132 0 208.5 -88t76.5 -213q0 -79 -30 -149.5t-82 -121.5l83 -91l-47 -44l-86 94q-86 -57 -191 -57q-133 0 -208 88t-75 213q0 101 46.5 185t126 134t178.5 50zM378 200l47 44l97 -108q80 88 80 218q0 105 -56.5 172.5t-160.5 67.5q-119 0 -193 -88t-74 -209
q0 -97 53 -169t165 -72q78 0 137 39z" />
    <glyph glyph-name="uni0052" unicode="R" horiz-adv-x="599" 
d="M19 64h79l55 522h-79l7 64h265q107 0 157.5 -47t50.5 -118q0 -156 -157 -197l91 -224h80l-8 -64h-126l-106 272h-138l-22 -208h86l-6 -64h-235zM312 333q90 0 128.5 42t38.5 104q0 107 -149 107h-107l-26 -253h115z" />
    <glyph glyph-name="uni0053" unicode="S" horiz-adv-x="523" 
d="M468 194q0 -98 -62.5 -151t-177.5 -53q-62 0 -119 14.5t-85 38.5l26 128l57 -6l-11 -82q28 -16 64.5 -22.5t67.5 -6.5q72 0 117.5 30.5t45.5 100.5q0 71 -43.5 90t-100.5 33q-61 14 -116.5 46t-55.5 120q0 98 70 142t151 44q52 0 105 -15t79 -39l-7 -129l-60 -6v97
q-29 16 -59.5 21.5t-54.5 5.5q-68 0 -108 -30t-40 -85q0 -56 38 -75t91 -33q75 -18 131.5 -49t56.5 -129z" />
    <glyph glyph-name="uni0054" unicode="T" 
d="M599 452l-64 -5l-5 139h-159l-55 -522h112l-6 -64h-293l7 64h109l55 522h-161l-34 -139l-63 5l39 198h520z" />
    <glyph glyph-name="uni0055" unicode="U" horiz-adv-x="696" 
d="M482 650h217l-6 -64h-62l-33 -319q-8 -69 -35 -132.5t-84 -104t-155 -40.5q-141 0 -189.5 80.5t-37.5 185.5l35 330h-65l6 64h225l-8 -64h-87l-34 -328q-10 -96 29 -149t133 -53q177 0 200 211l33 319h-89z" />
    <glyph glyph-name="uni0056" unicode="V" horiz-adv-x="632" 
d="M664 586h-59l-289 -586h-58l-167 586h-61l6 64h228l-6 -64h-90l132 -478h4l228 478h-90l6 64h223z" />
    <glyph glyph-name="uni0057" unicode="W" horiz-adv-x="909" 
d="M936 586h-54l-230 -586h-58l-109 520h-5l-216 -520h-59l-117 586h-54l6 64h218l-7 -64h-90l85 -466h5l195 466h-64l7 64h218l-7 -64h-64l97 -469h6l170 469h-90l7 64h216z" />
    <glyph glyph-name="uni0058" unicode="X" horiz-adv-x="616" 
d="M580 0h-221l7 64h79l-140 221l-177 -221h74l-6 -64h-218l7 64h64l225 273l-160 249h-64l7 64h215l-6 -64h-71l126 -199l160 199h-64l8 64h213l-6 -64h-71l-209 -249l175 -273h60z" />
    <glyph glyph-name="uni0059" unicode="Y" horiz-adv-x="597" 
d="M627 586h-62l-232 -337l-20 -185h111l-7 -64h-289l6 64h108l20 185l-169 337h-63l7 64h229l-7 -64h-87l133 -270h5l182 270h-87l7 64h221z" />
    <glyph glyph-name="uni005A" unicode="Z" horiz-adv-x="563" 
d="M480 0h-475l1 44l431 539v3h-277l-41 -133l-59 9l44 188h434l5 -40l-433 -543l-1 -3h313l42 138l61 -9z" />
    <glyph glyph-name="uni005B" unicode="[" horiz-adv-x="279" 
d="M33 -213l102 963h172l-6 -52h-112l-90 -859h112l-6 -52h-172z" />
    <glyph glyph-name="uni005C" unicode="\" horiz-adv-x="506" 
d="M73 688h67l286 -688h-65z" />
    <glyph glyph-name="uni005D" unicode="]" horiz-adv-x="279" 
d="M244 750l-102 -963h-172l6 52h112l90 859h-112l6 52h172z" />
    <glyph glyph-name="uni005E" unicode="^" horiz-adv-x="445" 
d="M240 656h45l131 -283h-64l-97 214l-139 -214h-64z" />
    <glyph glyph-name="uni005F" unicode="_" horiz-adv-x="527" 
d="M16 -74h424l-5 -51h-424z" />
    <glyph glyph-name="uni0060" unicode="`" horiz-adv-x="431" 
d="M393 520l-182 104l35 59l166 -132z" />
    <glyph glyph-name="uni0061" unicode="a" horiz-adv-x="505" 
d="M456 445q-10 -35 -18 -69t-12 -69l-32 -250h67l-4 -40l-21 -17h-105l2 90q-22 -40 -57.5 -70t-94.5 -30q-73 0 -111 51t-38 137q0 57 19.5 121.5t64.5 109.5t122 45q102 0 132 -84q4 19 9 37.5t11 37.5h66zM245 397q-55 0 -85 -34t-42.5 -82.5t-12.5 -91.5
q0 -142 97 -142q55 0 91.5 45t47.5 91l13 98q-1 50 -31 83t-78 33z" />
    <glyph glyph-name="uni0062" unicode="b" horiz-adv-x="504" 
d="M49 670l21 18h124l-41 -331q23 40 58 68.5t92 28.5q77 0 117.5 -52t40.5 -137q0 -57 -19.5 -121t-65.5 -109t-124 -45q-107 0 -138 83q-4 -18 -9 -36t-10 -37h-67q8 29 16.5 63t12.5 67l61 501h-74zM246 47q54 0 85 34.5t44 83.5t13 90q0 142 -103 142q-57 0 -94.5 -44
t-48.5 -91l-12 -97q0 -50 32.5 -84t83.5 -34z" />
    <glyph glyph-name="uni0063" unicode="c" horiz-adv-x="440" 
d="M250 397q-80 0 -113 -65.5t-33 -141.5q0 -66 24.5 -104.5t80.5 -38.5q91 0 126 116l55 -13q-14 -59 -59 -109.5t-130 -50.5q-81 0 -125.5 52t-44.5 144q0 59 21.5 121t69.5 104.5t127 42.5q85 0 143 -45l6 -107l-59 -7l-9 76q-34 26 -80 26z" />
    <glyph glyph-name="uni0064" unicode="d" horiz-adv-x="510" 
d="M305 670l21 18h153l-78 -631h76l-4 -40l-22 -17h-114l2 91q-24 -41 -62.5 -71t-96.5 -30q-73 0 -111 51t-38 135q0 58 21 123t67.5 110t123.5 45q96 0 129 -74l31 251h-102zM250 397q-55 0 -87 -33.5t-45.5 -82.5t-13.5 -96q0 -138 98 -138q57 0 97 48.5t50 95.5l12 96
q-2 48 -33.5 79t-77.5 31z" />
    <glyph glyph-name="uni0065" unicode="e" horiz-adv-x="437" 
d="M213 47q46 0 75.5 24.5t45.5 65.5l55 -13q-14 -56 -62 -95t-125 -39q-81 0 -126 49.5t-45 143.5q0 114 61.5 192.5t163.5 78.5q59 0 101 -29.5t42 -81.5q0 -49 -36.5 -84t-122.5 -53q-31 -6 -65.5 -12.5t-70.5 -11.5q1 -63 25.5 -99t83.5 -36zM211 248q76 17 95.5 41
t19.5 48q0 34 -21 48t-56 14q-70 0 -102.5 -52t-40.5 -115q68 9 105 16z" />
    <glyph glyph-name="uni0066" unicode="f" horiz-adv-x="306" 
d="M289 698q29 0 55 -6t52 -25l6 -104l-57 -7l-10 76q-13 6 -28 8t-26 2q-74 0 -87 -108l-11 -89h130l-5 -36l-23 -21h-109l-55 -446q-10 -75 -42.5 -120t-102.5 -45q-50 0 -84.5 28.5t-33.5 96.5l55 16q-2 -55 19 -69.5t40 -14.5q38 0 56 28.5t25 80.5l55 445h-85l4 37
l23 20h65l11 86q20 167 163 167z" />
    <glyph glyph-name="uni0067" unicode="g" horiz-adv-x="513" 
d="M392 445h127l-4 -39l-22 -18h-51l-47 -382q-13 -100 -63.5 -164.5t-152.5 -64.5q-67 0 -116 33.5t-59 99.5l52 26q10 -52 47 -75t81 -23q123 0 143 171l9 78q-23 -40 -61 -68.5t-95 -28.5q-73 0 -111 51t-38 134q0 59 21 124t67.5 110t123.5 45q101 0 132 -81zM249 397
q-53 0 -85 -33.5t-46 -82.5t-14 -96q0 -138 96 -138q57 0 97 45.5t51 91.5l12 92q1 52 -29 86.5t-82 34.5z" />
    <glyph glyph-name="uni0068" unicode="h" horiz-adv-x="505" 
d="M46 669l22 19h124l-40 -323q24 41 60 65t88 24q63 0 100.5 -40t26.5 -129l-28 -228h75l-5 -40l-21 -17h-123l32 264q9 72 -15 102.5t-70 30.5q-53 0 -86.5 -36.5t-43.5 -82.5l-34 -278h-68l77 631h-76z" />
    <glyph glyph-name="uni0069" unicode="i" horiz-adv-x="255" 
d="M125 560l9 91h74l-9 -91h-74zM36 426l21 19h126l-47 -388h75l-5 -40l-22 -17h-123l47 388h-77z" />
    <glyph glyph-name="uni006A" unicode="j" horiz-adv-x="245" 
d="M129 560l9 91h74l-10 -91h-73zM24 426l22 19h147l-57 -463q-24 -199 -137 -205q-22 -1 -41.5 4.5t-37.5 13.5l3 51q52 -21 91.5 3.5t53.5 132.5l50 406h-99z" />
    <glyph glyph-name="uni006B" unicode="k" horiz-adv-x="446" 
d="M46 669l22 19h124l-53 -430h82q46 40 73.5 86t31.5 101h72q-4 -62 -41.5 -116.5t-95.5 -94.5l97 -177h62l-5 -40l-21 -17h-78l-109 205h-74l-25 -205h-68l77 631h-76z" />
    <glyph glyph-name="uni006C" unicode="l" horiz-adv-x="239" 
d="M52 669l20 19h127l-77 -631h74l-5 -40l-21 -17h-123l77 631h-77z" />
    <glyph glyph-name="uni006D" unicode="m" horiz-adv-x="787" 
d="M55 445h114l-3 -88q23 44 59 70.5t89 26.5q107 0 122 -103q22 47 58.5 75t91.5 28q63 0 98.5 -41.5t25.5 -127.5l-28 -228h75l-5 -40l-22 -17h-122l32 264q8 72 -14 102.5t-69 30.5q-54 0 -82.5 -34.5t-39.5 -80.5l-34 -282h-67l32 264q8 73 -14 103t-67 30
q-61 0 -90.5 -41.5t-36.5 -94.5l-1 1l-31 -262h-67l47 388h-78l5 38z" />
    <glyph glyph-name="uni006E" unicode="n" horiz-adv-x="523" 
d="M55 445h114l-1 -86q24 43 61 69t89 26q64 0 101 -40t27 -129l-28 -228h75l-5 -40l-21 -17h-123l32 264q8 72 -15 102.5t-71 30.5q-54 0 -87.5 -37.5t-42.5 -85.5l-34 -274h-67l47 388h-78l5 38z" />
    <glyph glyph-name="uni006F" unicode="o" horiz-adv-x="480" 
d="M31 189q0 105 58 185t171 80q96 0 136.5 -59t40.5 -143q0 -111 -60.5 -186.5t-168.5 -75.5q-91 0 -134 55t-43 144zM105 193q0 -65 23.5 -105.5t86.5 -40.5q78 0 113.5 60.5t35.5 142.5q0 65 -24 106t-88 41q-73 0 -110 -57t-37 -147z" />
    <glyph glyph-name="uni0070" unicode="p" horiz-adv-x="520" 
d="M202 -195l-22 -18h-211l5 38l20 19h46l66 544h-77l5 38l21 19h115l-3 -92q22 41 58.5 71t94.5 30q76 0 117 -52t41 -137q0 -57 -20 -121t-66 -109t-124 -45q-98 0 -134 74l-27 -220h99zM263 47q54 0 84.5 34.5t43.5 83.5t13 90q0 142 -103 142q-57 0 -93.5 -43.5
t-48.5 -89.5l-12 -99q0 -49 32 -83.5t84 -34.5z" />
    <glyph glyph-name="uni0071" unicode="q" horiz-adv-x="502" 
d="M432 -195l-22 -18h-205l5 38l21 19h76l29 243q-24 -40 -62 -68.5t-94 -28.5q-73 0 -111 51t-38 135q0 58 21 123t67.5 110t123.5 45q103 0 133 -84q4 19 9 37.5t11 37.5h67q-10 -35 -18.5 -69t-12.5 -69l-57 -463h62zM250 397q-55 0 -87 -33.5t-45.5 -82.5t-13.5 -96
q0 -138 98 -138q56 0 96 46.5t51 92.5l11 96q0 50 -32 82.5t-78 32.5z" />
    <glyph glyph-name="uni0072" unicode="r" horiz-adv-x="343" 
d="M231 18l-21 -18h-211l5 38l21 19h50l41 331h-77l5 38l21 19h111l-2 -101q19 44 48 77.5t70 33.5q28 0 54 -17l-13 -71q-27 15 -53 15q-42 0 -71 -39t-40 -87l-26 -199h93z" />
    <glyph glyph-name="uni0073" unicode="s" horiz-adv-x="418" 
d="M181 47q108 0 108 77q0 41 -32.5 55.5t-84.5 28.5q-44 11 -80.5 33t-36.5 80q0 66 48 99.5t111 33.5q45 0 86 -12t68 -29l-2 -104l-55 -7l-4 71q-19 10 -39.5 17t-47.5 7q-94 0 -94 -69q0 -30 23 -44t72 -27q46 -12 92.5 -35t46.5 -92q0 -65 -47 -102.5t-122 -37.5
q-46 0 -95.5 12.5t-75.5 31.5l24 101l55 -6l-10 -62q39 -20 92 -20z" />
    <glyph glyph-name="uni0074" unicode="t" horiz-adv-x="343" 
d="M28 425l23 20h55l14 120l24 23h47l-18 -143h152l-5 -36l-23 -21h-131l-30 -251q-10 -90 55 -90q22 0 40.5 14.5t34.5 70.5l50 -17q-17 -65 -47.5 -95t-85.5 -30q-62 0 -92.5 38t-22.5 103l31 257h-76z" />
    <glyph glyph-name="uni0075" unicode="u" horiz-adv-x="522" 
d="M483 57l-5 -38l-22 -19h-115l1 85q-23 -43 -59 -68.5t-88 -25.5q-64 0 -101 40.5t-27 128.5l28 228h-75l5 40l22 17h123l-32 -265q-9 -71 12.5 -101.5t72.5 -30.5q53 0 84.5 35t41.5 81l35 281h68l-47 -388h78z" />
    <glyph glyph-name="uni0076" unicode="v" horiz-adv-x="469" 
d="M225 406l-21 -18h-63l90 -306h6q64 72 96.5 137.5t32.5 132.5q0 22 -3.5 45.5t-13.5 47.5h79q15 -63 4.5 -128t-52.5 -132q-26 -41 -68.5 -91t-87.5 -94h-38l-117 388h-56l5 38l21 19h191z" />
    <glyph glyph-name="uni0077" unicode="w" horiz-adv-x="713" 
d="M488 82h4q115 139 115 272q0 51 -16 91h78q14 -69 2.5 -137t-53.5 -136q-22 -39 -61 -87t-78 -85h-35l-76 335h-4l-157 -335h-41l-101 388h-51l5 38l22 19h189l-5 -39l-21 -18h-67l65 -280h4l155 337h46z" />
    <glyph glyph-name="uni0078" unicode="x" horiz-adv-x="477" 
d="M449 18l-21 -18h-186l4 38l21 19h46l-92 140q-144 -91 -117 -197h-78q-18 71 39.5 126.5t128.5 102.5l-110 159h-63l5 38l21 19h187l-5 -39l-21 -18h-48l84 -127q135 92 108 184h76q15 -39 -7.5 -77t-64.5 -73.5t-85 -65.5l117 -172h66z" />
    <glyph glyph-name="uni0079" unicode="y" horiz-adv-x="468" 
d="M231 82h6q128 143 128 270q0 49 -18 93h80q15 -63 4.5 -128t-52.5 -132q-22 -35 -57.5 -79t-75.5 -85l-24 -177h77l-4 -39l-21 -18h-202l5 38l21 19h56l25 179l-109 365h-57l5 38l21 19h191l-5 -39l-21 -18h-62z" />
    <glyph glyph-name="uni007A" unicode="z" horiz-adv-x="448" 
d="M372 0h-356l-9 43l318 345h-202l-22 -89l-55 7l27 139h328l13 -42l-314 -346h222l33 90l55 -9z" />
    <glyph glyph-name="uni007B" unicode="{" horiz-adv-x="277" 
d="M108 267q48 -8 68 -30t20 -48q0 -35 -29 -86.5t-57.5 -107t-28.5 -101.5q0 -54 56 -54h63l-6 -52h-63q-54 0 -81.5 28t-27.5 73q0 53 28.5 111t57 108.5t28.5 81.5q0 36 -34 46.5t-56 10.5h-18l4 40h18q24 0 63.5 12.5t39.5 55.5t-27 118.5t-27 143.5q0 61 34.5 97
t98.5 36h63l-5 -52h-63q-70 0 -70 -78q0 -41 14 -90t28 -94.5t14 -77.5q0 -30 -23.5 -56t-81.5 -35z" />
    <glyph glyph-name="uni007C" unicode="|" horiz-adv-x="230" 
d="M193 730l-85 -810h-61l85 810h61z" />
    <glyph glyph-name="uni007D" unicode="}" horiz-adv-x="277" 
d="M168 271q-48 8 -68 30t-20 48q0 35 29 86.5t57.5 107t28.5 101.5q0 54 -56 54h-63l6 52h63q54 0 81.5 -28t27.5 -73q0 -53 -28.5 -111t-57 -108.5t-28.5 -81.5q0 -36 34 -46.5t56 -10.5h18l-4 -40h-18q-24 0 -63.5 -12.5t-39.5 -55.5t27 -118.5t27 -143.5
q0 -61 -34.5 -97t-98.5 -36h-63l5 52h63q70 0 70 78q0 41 -14 90t-28 94.5t-14 77.5q0 30 23.5 56t81.5 35z" />
    <glyph glyph-name="uni007E" unicode="~" horiz-adv-x="603" 
d="M402 200q-46 0 -78.5 18t-64 35.5t-73.5 17.5q-24 0 -49.5 -11.5t-54.5 -52.5l-39 27q34 54 74 78t79 24q42 0 74 -18t64.5 -35.5t74.5 -17.5q30 0 54.5 16t55.5 61l43 -30q-74 -112 -160 -112z" />
    <glyph glyph-name="uni00A0" unicode="&#xa0;" horiz-adv-x="220" 
 />
    <glyph glyph-name="uni00A1" unicode="&#xa1;" horiz-adv-x="219" 
d="M169 448l-10 -97h-88l11 97h87zM18 -202l63 458h53l-34 -458h-82z" />
    <glyph glyph-name="uni00A2" unicode="&#xa2;" horiz-adv-x="450" 
d="M170 -84l8 76q-143 17 -143 194q0 56 19 114.5t60.5 101t111.5 50.5l8 77h46l-8 -76q70 -3 124 -44l6 -107l-59 -7l-9 76q-30 22 -68 25l-36 -348q77 9 109 115l55 -13q-14 -56 -54 -104t-116 -55l-8 -75h-46zM108 190q0 -57 18 -93.5t58 -46.5l36 343q-62 -15 -87 -75
t-25 -128z" />
    <glyph glyph-name="uni00A3" unicode="&#xa3;" horiz-adv-x="499" 
d="M48 281h65l6 53q11 106 66 150.5t116 44.5q44 0 77 -10.5t58 -28.5l4 -117l-58 -7l-8 89q-29 17 -66 17q-51 0 -81.5 -30.5t-38.5 -106.5l-5 -54h175l-5 -46h-175l-3 -38q-4 -35 -20 -75t-60 -66h188q44 0 70.5 18.5t45.5 41.5l32 -33q-11 -20 -48 -51.5t-92 -31.5h-278
l6 54q47 22 64 60.5t22 82.5l4 38h-66z" />
    <glyph glyph-name="uni00A4" unicode="&#xa4;" horiz-adv-x="503" 
d="M103 256q0 57 36 101l-81 94l33 30l80 -92q43 32 95 32q50 0 88 -33l103 93l26 -30l-103 -95q20 -35 20 -73q0 -56 -38 -102l82 -94l-33 -31l-82 93q-43 -30 -93 -30t-87 32l-104 -95l-26 31l104 95q-20 32 -20 74zM163 263q-1 -40 22 -63.5t57 -23.5q40 0 68.5 29
t28.5 75q0 38 -22 61t-56 23q-37 0 -67 -28t-31 -73z" />
    <glyph glyph-name="uni00A5" unicode="&#xa5;" horiz-adv-x="577" 
d="M143 56h90l6 54h-134l4 42h134l4 50l-2 4h-130l4 43h103l-118 216h-51l6 56h199l-6 -56h-70l108 -206h5l145 206h-71l6 56h192l-6 -56h-50l-157 -216h101l-4 -43h-129l-5 -8l-5 -46h133l-4 -42h-133l-6 -54h94l-6 -56h-254z" />
    <glyph glyph-name="uni00A6" unicode="&#xa6;" horiz-adv-x="211" 
d="M184 730l-32 -304h-61l32 304h61zM131 224l-32 -304h-61l32 304h61z" />
    <glyph glyph-name="uni00A7" unicode="&#xa7;" horiz-adv-x="578" 
d="M478 148q0 -73 -58 -115.5t-154 -42.5q-56 0 -115.5 15t-98.5 42l24 110l56 -6l-12 -76q31 -17 72 -24t75 -7q56 0 98.5 22t42.5 72q0 46 -40 59.5t-111 24.5q-49 6 -98 17t-82 34t-33 66q0 35 25 61.5t65 42.5q-12 13 -19.5 29.5t-7.5 40.5q0 69 59 108t155 39
q42 0 90.5 -9t90.5 -31l-6 -127l-59 -6v93q-57 27 -125 27q-56 0 -95 -20.5t-39 -64.5q0 -42 36.5 -58.5t90.5 -26.5q52 -9 107.5 -20t94 -35t38.5 -72q0 -36 -22.5 -63t-60.5 -45q16 -22 16 -54zM478 296q0 32 -32.5 48t-80 25t-91.5 16q-28 5 -54.5 12t-48.5 17
q-59 -22 -59 -64q0 -34 43.5 -47.5t132.5 -28.5q42 -7 75.5 -14.5t60.5 -20.5q54 21 54 57z" />
    <glyph glyph-name="uni00A8" unicode="&#xa8;" horiz-adv-x="387" 
d="M119 555l9 85h78l-8 -85h-79zM287 555l8 85h80l-9 -85h-79z" />
    <glyph glyph-name="uni00A9" unicode="&#xa9;" horiz-adv-x="612" 
d="M597 285q0 -81 -41 -147t-107 -105.5t-142 -39.5q-103 0 -170.5 70t-67.5 173q0 80 40.5 146.5t107.5 106.5t144 40q105 0 170.5 -71t65.5 -173zM555 283q0 85 -53.5 144.5t-144.5 59.5q-103 0 -174.5 -73.5t-71.5 -174.5q0 -87 55 -146t144 -59q100 0 172.5 73t72.5 176
zM433 122q-20 -16 -49.5 -23.5t-57.5 -7.5q-72 0 -111 41.5t-39 109.5q0 80 51 136t130 56q69 0 107 -38l3 -65l-36 -4l-4 50q-12 9 -29 15.5t-43 6.5q-63 0 -99 -43.5t-36 -110.5q0 -55 27.5 -86.5t89.5 -31.5q15 0 31 2.5t32 10.5l14 51l35 -4z" />
    <glyph glyph-name="uni00AA" unicode="&#xaa;" horiz-adv-x="385" 
d="M360 695q-8 -23 -14 -46.5t-8 -47.5l-20 -151h43l-2 -32l-16 -13h-75l1 60q-14 -27 -38.5 -47t-62.5 -20q-50 0 -75 34t-25 89q0 38 13 80t43.5 71t81.5 29q69 0 88 -56q3 13 6.5 25t7.5 25h52zM213 657q-51 0 -69.5 -42.5t-18.5 -85.5q0 -86 60 -86q40 0 64 32t27 63v-1
l6 50q0 32 -19.5 51t-49.5 19z" />
    <glyph glyph-name="uni00AB" unicode="&#xab;" horiz-adv-x="441" 
d="M208 25h-59l-109 246l160 240h59l-152 -240zM369 25h-60l-109 246l160 240h60l-151 -240z" />
    <glyph glyph-name="uni00AC" unicode="&#xac;" horiz-adv-x="591" 
d="M461 99l16 157h-419l5 52h471l-22 -209h-51z" />
    <glyph glyph-name="uni00AE" unicode="&#xae;" horiz-adv-x="591" 
d="M296 159q-104 0 -177 72.5t-73 177.5q0 104 73 177.5t178 73.5t177.5 -73.5t72.5 -177.5t-73.5 -177t-177.5 -73zM297 200q89 0 148 61.5t59 147.5q0 87 -58 148.5t-149 61.5t-150 -61.5t-59 -148.5t59 -148t150 -61zM177 308h36v220h-36v31h129q54 0 79 -22.5t25 -57.5
q0 -60 -63 -79l51 -92h36v-31h-63l-62 116h-57v-85h38v-31h-113v31zM299 423q68 0 68 55q0 50 -68 50h-47v-105h47z" />
    <glyph glyph-name="uni00AF" unicode="&#xaf;" horiz-adv-x="328" 
d="M106 621h240l-6 -57h-240z" />
    <glyph glyph-name="uni00B0" unicode="&#xb0;" horiz-adv-x="390" 
d="M202 342q-67 0 -104 40.5t-37 101.5q0 74 50 125t125 51q68 0 104 -41.5t36 -100.5q0 -74 -49 -125t-125 -51zM208 395q46 0 77.5 31.5t31.5 86.5q0 45 -24 69.5t-64 24.5q-46 0 -78 -31.5t-32 -87.5q0 -44 24.5 -68.5t64.5 -24.5z" />
    <glyph glyph-name="uni00B1" unicode="&#xb1;" horiz-adv-x="444" 
d="M52 259l6 54h146l16 147h53l-16 -147h141l-6 -54h-141l-15 -146h-52l15 146h-147zM25 0l5 53h340l-5 -53h-340z" />
    <glyph glyph-name="uni00B2" unicode="&#xb2;" horiz-adv-x="340" 
d="M126 667l-43 5l19 76q46 37 114 37q58 0 86 -27t28 -63q0 -49 -39.5 -94.5t-88.5 -82.5t-77 -58h154l12 53l48 -5l-18 -93h-268l-1 41q46 36 96 75t84 79.5t34 79.5q0 21 -14 35.5t-49 14.5q-31 0 -57 -17z" />
    <glyph glyph-name="uni00B3" unicode="&#xb3;" horiz-adv-x="336" 
d="M133 673l-43 5l16 69q24 19 55 28t60 9q47 0 77.5 -22t30.5 -61q0 -28 -19 -53.5t-63 -38.5v-2q43 -7 61 -30.5t18 -53.5q0 -55 -42 -85t-101 -30q-52 0 -86 25t-36 72l43 12q2 -24 21.5 -44t57.5 -20q40 0 60.5 21.5t20.5 50.5t-21.5 44t-74.5 16l4 38q50 2 72.5 21.5
t22.5 46.5q0 48 -58 48q-30 0 -59 -16z" />
    <glyph glyph-name="uni00B4" unicode="&#xb4;" horiz-adv-x="431" 
d="M424 624l-182 -104l-18 31l165 132z" />
    <glyph glyph-name="uni00B5" unicode="&#xb5;" horiz-adv-x="558" 
d="M514 0h-147l8 82q-25 -42 -67 -67t-94 -25q-48 0 -80 24l-23 -227h-70l64 601h-76l6 57h146l-29 -268q-7 -71 18.5 -100.5t71.5 -29.5q56 0 95 38.5t47 85.5l23 217h-90l6 57h159l-40 -388h79z" />
    <glyph glyph-name="uni00B6" unicode="&#xb6;" horiz-adv-x="606" 
d="M606 650l-7 -62h-74l-62 -588h-66l62 588h-62l-62 -588h-66l33 310h-57q-84 0 -139.5 35t-55.5 119q0 76 59 131t178 55h319z" />
    <glyph glyph-name="uni00B7" unicode="&#xb7;" horiz-adv-x="216" 
d="M59 257l10 101h93l-10 -101h-93z" />
    <glyph glyph-name="uni00B8" unicode="&#xb8;" horiz-adv-x="251" 
d="M160 6l-6 -53h8q79 0 79 -72q0 -47 -35 -68.5t-81 -21.5q-59 0 -90 30l21 41q27 -23 70 -23q55 0 55 44q0 23 -14.5 30t-38.5 7h-29l11 86h50z" />
    <glyph glyph-name="uni00B9" unicode="&#xb9;" horiz-adv-x="254" 
d="M54 460h72l29 274h-73l4 45h131l-34 -319h72l-5 -45h-202z" />
    <glyph glyph-name="uni00BA" unicode="&#xba;" horiz-adv-x="354" 
d="M67 528q0 68 38.5 120.5t115.5 52.5q65 0 94 -38.5t29 -93.5q0 -73 -42 -122t-115 -49q-61 0 -90.5 35.5t-29.5 94.5zM124 532q0 -40 14.5 -64.5t53.5 -24.5q50 0 72 37t22 87q0 41 -15 65.5t-55 24.5q-46 0 -69 -34.5t-23 -90.5z" />
    <glyph glyph-name="uni00BB" unicode="&#xbb;" horiz-adv-x="442" 
d="M240 25h-58l152 246l-101 240h58l111 -240zM80 25h-60l152 246l-101 240h60l110 -240z" />
    <glyph glyph-name="uni00BC" unicode="&#xbc;" horiz-adv-x="691" 
d="M593 650l-219 -325l-213 -325h-52l227 337l206 313h51zM47 331h72l29 274h-73l4 45h131l-34 -319h72l-5 -45h-202zM516 0l10 94h-177l-1 44l151 226h111l-24 -228h62l-10 -42h-56l-10 -94h-56zM521 319l-122 -183h131l20 183h-29z" />
    <glyph glyph-name="uni00BD" unicode="&#xbd;" horiz-adv-x="731" 
d="M588 650l-219 -325l-213 -325h-52l227 337l206 313h51zM45 331h72l29 274h-73l4 45h131l-34 -319h72l-5 -45h-202zM475 252l-43 5l19 76q46 37 114 37q59 0 86.5 -27t27.5 -63q0 -48 -39.5 -94t-88.5 -83t-77 -58h154l12 53l48 -5l-18 -93h-268l-1 41q47 36 96.5 75.5
t83.5 79.5t34 79q0 21 -14 35.5t-49 14.5q-32 0 -57 -17z" />
    <glyph glyph-name="uni00BE" unicode="&#xbe;" horiz-adv-x="718" 
d="M122 549l-43 5l16 69q24 19 55.5 28t59.5 9q47 0 77.5 -22t30.5 -61q0 -28 -19 -53.5t-63 -38.5v-2q44 -7 61.5 -30.5t17.5 -53.5q0 -55 -42.5 -85t-100.5 -30q-52 0 -86 25t-36 72l43 12q2 -24 21.5 -44t57.5 -20q40 0 60.5 21.5t20.5 50.5t-21.5 44t-74.5 16l4 38
q50 2 72.5 21.5t22.5 46.5q0 48 -58 48q-30 0 -59 -16zM620 650l-219 -325l-213 -325h-52l227 337l206 313h51zM542 0l10 94h-177l-1 44l151 226h111l-24 -228h62l-10 -42h-56l-10 -94h-56zM547 319l-122 -183h131l20 183h-29z" />
    <glyph glyph-name="uni00BF" unicode="&#xbf;" horiz-adv-x="431" 
d="M291 448l-10 -97h-87l10 97h87zM306 -12l57 -5l-21 -120q-32 -30 -80 -52.5t-103 -22.5q-67 0 -117.5 33t-50.5 95q0 52 34.5 87.5t79 63t79 53.5t34.5 60q0 37 -48 37l5 50q66 4 92 -19.5t26 -58.5q0 -48 -34 -79.5t-78 -57t-78 -54t-34 -69.5q0 -76 104 -76
q60 0 110 39z" />
    <glyph glyph-name="uni00C0" unicode="&#xc0;" horiz-adv-x="633" 
d="M413 703l-203 42l17 68l195 -73zM-18 64h60l262 522h-101l6 64h180l167 -586h62l-7 -64h-223l6 64h85l-33 125h-270l-61 -125h90l-6 -64h-222zM349 544l-145 -298h227l-78 298h-4z" />
    <glyph glyph-name="uni00C1" unicode="&#xc1;" horiz-adv-x="633" 
d="M530 745l-202 -42l-9 37l195 73zM-18 64h60l262 522h-101l6 64h180l167 -586h62l-7 -64h-223l6 64h85l-33 125h-270l-61 -125h90l-6 -64h-222zM349 544l-145 -298h227l-78 298h-4z" />
    <glyph glyph-name="uni00C2" unicode="&#xc2;" horiz-adv-x="633" 
d="M388 825l113 -89l-21 -34l-111 62l-120 -63l-18 32l136 92h21zM-18 64h60l262 522h-101l6 64h180l167 -586h62l-7 -64h-223l6 64h85l-33 125h-270l-61 -125h90l-6 -64h-222zM349 544l-145 -298h227l-78 298h-4z" />
    <glyph glyph-name="uni00C3" unicode="&#xc3;" horiz-adv-x="633" 
d="M246 705l-31 13q7 26 29 54t60 28q33 0 56 -17.5t58 -17.5q13 0 26 7t24 35l34 -9q-10 -40 -30 -64.5t-55 -24.5q-37 0 -63 17.5t-54 17.5q-14 0 -29 -7.5t-25 -31.5zM-18 64h60l262 522h-101l6 64h180l167 -586h62l-7 -64h-223l6 64h85l-33 125h-270l-61 -125h90l-6 -64
h-222zM349 544l-145 -298h227l-78 298h-4z" />
    <glyph glyph-name="uni00C4" unicode="&#xc4;" horiz-adv-x="633" 
d="M409 718l9 85h79l-8 -85h-80zM242 718l8 85h79l-9 -85h-78zM-18 64h60l262 522h-101l6 64h180l167 -586h62l-7 -64h-223l6 64h85l-33 125h-270l-61 -125h90l-6 -64h-222zM349 544l-145 -298h227l-78 298h-4z" />
    <glyph glyph-name="uni00C5" unicode="&#xc5;" horiz-adv-x="633" 
d="M362 690q-88 0 -88 82q0 45 29 73.5t80 28.5q87 0 87 -81q0 -43 -28 -73t-80 -30zM366 730q28 0 41.5 17t13.5 43q0 44 -43 44q-55 0 -55 -60q0 -44 43 -44zM-18 64h60l262 522h-101l6 64h180l167 -586h62l-7 -64h-223l6 64h85l-33 125h-270l-61 -125h90l-6 -64h-222z
M349 544l-145 -298h227l-78 298h-4z" />
    <glyph glyph-name="uni00C6" unicode="&#xc6;" horiz-adv-x="904" 
d="M812 0h-473l6 64h79l14 125h-255l-73 -125h88l-7 -64h-224l6 64h64l309 522h-95l6 64h615l-1 -183l-62 -8l-6 127h-251l-24 -224h299l-6 -64h-299l-25 -234h259l34 127l61 -7zM444 246l35 340h-65l-198 -340h228z" />
    <glyph glyph-name="uni00C7" unicode="&#xc7;" horiz-adv-x="628" 
d="M539 50q-40 -30 -97.5 -45t-112.5 -15l-4 -37h8q79 0 79 -72q0 -47 -35 -68.5t-81 -21.5q-58 0 -90 30l21 41q27 -23 70 -23q55 0 55 44q0 23 -14.5 30t-38.5 7h-29l9 73q-115 15 -175.5 95.5t-60.5 200.5q0 101 42 185.5t119.5 135t184.5 50.5q71 0 124 -22t86 -54
l4 -125l-62 -6l-8 95q-29 21 -65 33.5t-83 12.5q-119 0 -193.5 -80.5t-74.5 -218.5q0 -239 226 -239q81 0 137 29l28 96l60 -6z" />
    <glyph glyph-name="uni00C8" unicode="&#xc8;" horiz-adv-x="573" 
d="M434 703l-203 42l17 68l195 -73zM481 0h-469l6 64h80l56 522h-81l7 64h465v-184l-63 -7l-6 127h-251l-25 -224h302l-6 -64h-302l-25 -234h256l33 127l61 -7z" />
    <glyph glyph-name="uni00C9" unicode="&#xc9;" horiz-adv-x="573" 
d="M500 745l-202 -42l-9 37l195 73zM481 0h-469l6 64h80l56 522h-81l7 64h465v-184l-63 -7l-6 127h-251l-25 -224h302l-6 -64h-302l-25 -234h256l33 127l61 -7z" />
    <glyph glyph-name="uni00CA" unicode="&#xca;" horiz-adv-x="573" 
d="M387 825l113 -89l-21 -34l-111 62l-120 -63l-18 32l136 92h21zM481 0h-469l6 64h80l56 522h-81l7 64h465v-184l-63 -7l-6 127h-251l-25 -224h302l-6 -64h-302l-25 -234h256l33 127l61 -7z" />
    <glyph glyph-name="uni00CB" unicode="&#xcb;" horiz-adv-x="573" 
d="M243 718l8 85h79l-9 -85h-78zM410 718l9 85h79l-8 -85h-80zM481 0h-469l6 64h80l56 522h-81l7 64h465v-184l-63 -7l-6 127h-251l-25 -224h302l-6 -64h-302l-25 -234h256l33 127l61 -7z" />
    <glyph glyph-name="uni00CC" unicode="&#xcc;" horiz-adv-x="311" 
d="M258 703l-203 42l17 68l195 -73zM19 64h79l55 522h-80l7 64h229l-6 -64h-81l-55 -522h81l-7 -64h-229z" />
    <glyph glyph-name="uni00CD" unicode="&#xcd;" horiz-adv-x="311" 
d="M344 745l-202 -42l-9 37l195 73zM19 64h79l55 522h-80l7 64h229l-6 -64h-81l-55 -522h81l-7 -64h-229z" />
    <glyph glyph-name="uni00CE" unicode="&#xce;" horiz-adv-x="311" 
d="M227 825l113 -89l-21 -34l-111 62l-120 -63l-18 32l136 92h21zM19 64h79l55 522h-80l7 64h229l-6 -64h-81l-55 -522h81l-7 -64h-229z" />
    <glyph glyph-name="uni00CF" unicode="&#xcf;" horiz-adv-x="311" 
d="M246 718l9 85h79l-8 -85h-80zM79 718l8 85h79l-9 -85h-78zM19 64h79l55 522h-80l7 64h229l-6 -64h-81l-55 -522h81l-7 -64h-229z" />
    <glyph glyph-name="uni00D0" unicode="&#xd0;" horiz-adv-x="687" 
d="M50 369h81l23 218h-79l6 63h282q143 0 217 -81t74 -208q0 -155 -96.5 -258t-259.5 -103h-285l7 63h79l26 248h-81zM301 63q130 0 204.5 81.5t74.5 210.5q0 106 -57 169t-167 63h-132l-23 -218h129l-6 -58h-129l-26 -248h132z" />
    <glyph glyph-name="uni00D1" unicode="&#xd1;" horiz-adv-x="715" 
d="M284 705l-31 13q7 26 29 54t60 28q33 0 56 -17.5t58 -17.5q13 0 26 7t24 35l34 -9q-10 -40 -30 -64.5t-55 -24.5q-37 0 -63 17.5t-54 17.5q-14 0 -29 -7.5t-25 -31.5zM25 64h73l55 522h-83l7 64h134l309 -502h3l45 438h-94l6 64h242l-6 -64h-80l-61 -586h-45l-314 512h-3
l-48 -448h102l-6 -64h-243z" />
    <glyph glyph-name="uni00D2" unicode="&#xd2;" horiz-adv-x="710" 
d="M440 703l-203 42l17 68l195 -73zM393 660q132 0 208.5 -88t76.5 -213q0 -100 -46 -184t-125.5 -134.5t-181.5 -50.5q-133 0 -208 88t-75 213q0 101 46.5 185t126 134t178.5 50zM336 56q123 0 194.5 90t71.5 208q0 105 -56.5 172.5t-160.5 67.5q-119 0 -193 -88t-74 -209
q0 -97 53 -169t165 -72z" />
    <glyph glyph-name="uni00D3" unicode="&#xd3;" horiz-adv-x="710" 
d="M549 745l-202 -42l-9 37l195 73zM393 660q132 0 208.5 -88t76.5 -213q0 -100 -46 -184t-125.5 -134.5t-181.5 -50.5q-133 0 -208 88t-75 213q0 101 46.5 185t126 134t178.5 50zM336 56q123 0 194.5 90t71.5 208q0 105 -56.5 172.5t-160.5 67.5q-119 0 -193 -88t-74 -209
q0 -97 53 -169t165 -72z" />
    <glyph glyph-name="uni00D4" unicode="&#xd4;" horiz-adv-x="710" 
d="M430 825l113 -89l-21 -34l-111 62l-120 -63l-18 32l136 92h21zM393 660q132 0 208.5 -88t76.5 -213q0 -100 -46 -184t-125.5 -134.5t-181.5 -50.5q-133 0 -208 88t-75 213q0 101 46.5 185t126 134t178.5 50zM336 56q123 0 194.5 90t71.5 208q0 105 -56.5 172.5
t-160.5 67.5q-119 0 -193 -88t-74 -209q0 -97 53 -169t165 -72z" />
    <glyph glyph-name="uni00D5" unicode="&#xd5;" horiz-adv-x="710" 
d="M296 705l-31 13q7 26 29 54t60 28q33 0 56 -17.5t58 -17.5q13 0 26 7t24 35l34 -9q-10 -40 -30 -64.5t-55 -24.5q-37 0 -63 17.5t-54 17.5q-14 0 -29 -7.5t-25 -31.5zM393 660q132 0 208.5 -88t76.5 -213q0 -100 -46 -184t-125.5 -134.5t-181.5 -50.5q-133 0 -208 88
t-75 213q0 101 46.5 185t126 134t178.5 50zM336 56q123 0 194.5 90t71.5 208q0 105 -56.5 172.5t-160.5 67.5q-119 0 -193 -88t-74 -209q0 -97 53 -169t165 -72z" />
    <glyph glyph-name="uni00D6" unicode="&#xd6;" horiz-adv-x="710" 
d="M284 718l8 85h79l-9 -85h-78zM451 718l9 85h79l-8 -85h-80zM393 660q132 0 208.5 -88t76.5 -213q0 -100 -46 -184t-125.5 -134.5t-181.5 -50.5q-133 0 -208 88t-75 213q0 101 46.5 185t126 134t178.5 50zM336 56q123 0 194.5 90t71.5 208q0 105 -56.5 172.5t-160.5 67.5
q-119 0 -193 -88t-74 -209q0 -97 53 -169t165 -72z" />
    <glyph glyph-name="uni00D7" unicode="&#xd7;" horiz-adv-x="381" 
d="M72 131l-32 38l114 106l-90 104l40 38l91 -105l111 103l32 -38l-110 -102l90 -103l-40 -39l-91 104z" />
    <glyph glyph-name="uni00D8" unicode="&#xd8;" horiz-adv-x="706" 
d="M392 660q99 0 173 -56l40 46h73l-73 -83q72 -85 72 -208q0 -100 -45.5 -184t-125.5 -134.5t-182 -50.5q-103 0 -176 57l-41 -47h-66l71 82q-71 83 -71 209q0 101 46.5 185t125.5 134t179 50zM117 297q0 -96 44 -158l358 412q-56 43 -135 43q-119 0 -193 -88t-74 -209z
M335 56q123 0 194.5 90t71.5 208q0 93 -45 157l-360 -410q55 -45 139 -45z" />
    <glyph glyph-name="uni00D9" unicode="&#xd9;" horiz-adv-x="696" 
d="M452 703l-203 42l17 68l195 -73zM482 650h217l-6 -64h-62l-33 -319q-8 -69 -35 -132.5t-84 -104t-155 -40.5q-141 0 -189.5 80.5t-37.5 185.5l35 330h-65l6 64h225l-8 -64h-87l-34 -328q-10 -96 29 -149t133 -53q177 0 200 211l33 319h-89z" />
    <glyph glyph-name="uni00DA" unicode="&#xda;" horiz-adv-x="696" 
d="M549 745l-202 -42l-9 37l195 73zM482 650h217l-6 -64h-62l-33 -319q-8 -69 -35 -132.5t-84 -104t-155 -40.5q-141 0 -189.5 80.5t-37.5 185.5l35 330h-65l6 64h225l-8 -64h-87l-34 -328q-10 -96 29 -149t133 -53q177 0 200 211l33 319h-89z" />
    <glyph glyph-name="uni00DB" unicode="&#xdb;" horiz-adv-x="696" 
d="M418 825l113 -89l-21 -34l-111 62l-120 -63l-18 32l136 92h21zM482 650h217l-6 -64h-62l-33 -319q-8 -69 -35 -132.5t-84 -104t-155 -40.5q-141 0 -189.5 80.5t-37.5 185.5l35 330h-65l6 64h225l-8 -64h-87l-34 -328q-10 -96 29 -149t133 -53q177 0 200 211l33 319h-89z
" />
    <glyph glyph-name="uni00DC" unicode="&#xdc;" horiz-adv-x="696" 
d="M444 718l9 85h79l-8 -85h-80zM277 718l8 85h79l-9 -85h-78zM482 650h217l-6 -64h-62l-33 -319q-8 -69 -35 -132.5t-84 -104t-155 -40.5q-141 0 -189.5 80.5t-37.5 185.5l35 330h-65l6 64h225l-8 -64h-87l-34 -328q-10 -96 29 -149t133 -53q177 0 200 211l33 319h-89z" />
    <glyph glyph-name="uni00DD" unicode="&#xdd;" horiz-adv-x="597" 
d="M480 745l-202 -42l-9 37l195 73zM259 586h-87l133 -270h5l182 270h-87l7 64h221l-6 -64h-62l-232 -337l-20 -185h111l-7 -64h-289l6 64h108l20 185l-169 337h-63l7 64h229z" />
    <glyph glyph-name="uni00DE" unicode="&#xde;" horiz-adv-x="556" 
d="M19 64h79l55 522h-80l7 64h229l-6 -64h-81l-6 -61h120q108 0 155.5 -47t47.5 -122q0 -104 -67.5 -158.5t-170.5 -54.5h-125l-9 -79h81l-7 -64h-229zM297 194q80 0 122.5 43t42.5 115q0 122 -137 122h-115l-29 -280h116z" />
    <glyph glyph-name="uni00DF" unicode="&#xdf;" horiz-adv-x="599" 
d="M23 388l4 37l23 20h65l9 69q11 93 77.5 138.5t155.5 45.5q83 0 136.5 -36t53.5 -102q0 -55 -33 -84t-77 -47t-77 -39.5t-33 -62.5q0 -32 23.5 -44.5t60.5 -23.5q32 -7 67 -18.5t59.5 -36.5t24.5 -74q0 -65 -46.5 -102.5t-121.5 -37.5q-49 0 -97.5 12.5t-75.5 31.5l24 101
l55 -6l-9 -62q20 -11 46 -15.5t50 -4.5q103 0 103 78q0 39 -27 53t-73 25q-47 12 -90.5 33.5t-43.5 82.5q0 54 33.5 83t77 48t77 42t33.5 64q0 40 -35.5 63t-91.5 23q-70 0 -111 -36.5t-49 -96.5l-69 -567q-10 -74 -42.5 -119.5t-102.5 -45.5q-50 0 -84.5 28.5t-33.5 96.5
l55 16q-2 -52 18.5 -68t42.5 -16q65 0 79 109l55 445h-85z" />
    <glyph glyph-name="uni00E0" unicode="&#xe0;" horiz-adv-x="504" 
d="M310 520l-182 104l35 59l166 -132zM456 445q-10 -35 -18 -69t-12 -69l-32 -250h67l-4 -40l-21 -17h-105l2 90q-22 -40 -57.5 -70t-94.5 -30q-73 0 -111 51t-38 137q0 57 19.5 121.5t64.5 109.5t122 45q102 0 132 -84q4 19 9 37.5t11 37.5h66zM245 397q-55 0 -85 -34
t-42.5 -82.5t-12.5 -91.5q0 -142 97 -142q55 0 91.5 45t47.5 91l13 98q-1 50 -31 83t-78 33z" />
    <glyph glyph-name="uni00E1" unicode="&#xe1;" horiz-adv-x="504" 
d="M439 624l-182 -104l-18 31l165 132zM456 445q-10 -35 -18 -69t-12 -69l-32 -250h67l-4 -40l-21 -17h-105l2 90q-22 -40 -57.5 -70t-94.5 -30q-73 0 -111 51t-38 137q0 57 19.5 121.5t64.5 109.5t122 45q102 0 132 -84q4 19 9 37.5t11 37.5h66zM245 397q-55 0 -85 -34
t-42.5 -82.5t-12.5 -91.5q0 -142 97 -142q55 0 91.5 45t47.5 91l13 98q-1 50 -31 83t-78 33z" />
    <glyph glyph-name="uni00E2" unicode="&#xe2;" horiz-adv-x="504" 
d="M310 671l106 -121l-29 -31l-97 86l-110 -86l-24 31l132 121h22zM456 445q-10 -35 -18 -69t-12 -69l-32 -250h67l-4 -40l-21 -17h-105l2 90q-22 -40 -57.5 -70t-94.5 -30q-73 0 -111 51t-38 137q0 57 19.5 121.5t64.5 109.5t122 45q102 0 132 -84q4 19 9 37.5t11 37.5h66z
M245 397q-55 0 -85 -34t-42.5 -82.5t-12.5 -91.5q0 -142 97 -142q55 0 91.5 45t47.5 91l13 98q-1 50 -31 83t-78 33z" />
    <glyph glyph-name="uni00E3" unicode="&#xe3;" horiz-adv-x="504" 
d="M185 549l-32 12q6 26 29.5 57t60.5 31q32 0 55 -18.5t58 -18.5q14 0 26.5 8t22.5 35l35 -9q-11 -40 -30.5 -66.5t-54.5 -26.5q-38 0 -63.5 19.5t-52.5 19.5q-14 0 -29 -9.5t-25 -33.5zM456 445q-10 -35 -18 -69t-12 -69l-32 -250h67l-4 -40l-21 -17h-105l2 90
q-22 -40 -57.5 -70t-94.5 -30q-73 0 -111 51t-38 137q0 57 19.5 121.5t64.5 109.5t122 45q102 0 132 -84q4 19 9 37.5t11 37.5h66zM245 397q-55 0 -85 -34t-42.5 -82.5t-12.5 -91.5q0 -142 97 -142q55 0 91.5 45t47.5 91l13 98q-1 50 -31 83t-78 33z" />
    <glyph glyph-name="uni00E4" unicode="&#xe4;" horiz-adv-x="504" 
d="M338 555l8 85h80l-9 -85h-79zM170 555l9 85h78l-8 -85h-79zM456 445q-10 -35 -18 -69t-12 -69l-32 -250h67l-4 -40l-21 -17h-105l2 90q-22 -40 -57.5 -70t-94.5 -30q-73 0 -111 51t-38 137q0 57 19.5 121.5t64.5 109.5t122 45q102 0 132 -84q4 19 9 37.5t11 37.5h66z
M245 397q-55 0 -85 -34t-42.5 -82.5t-12.5 -91.5q0 -142 97 -142q55 0 91.5 45t47.5 91l13 98q-1 50 -31 83t-78 33z" />
    <glyph glyph-name="uni00E5" unicode="&#xe5;" horiz-adv-x="504" 
d="M288 514q-43 0 -64.5 22.5t-21.5 58.5q0 46 29 74.5t79 28.5q42 0 64.5 -22.5t22.5 -58.5q0 -41 -28 -72t-81 -31zM293 554q56 0 56 60q0 18 -9.5 31t-34.5 13q-54 0 -54 -60q0 -44 42 -44zM456 445q-10 -35 -18 -69t-12 -69l-32 -250h67l-4 -40l-21 -17h-105l2 90
q-22 -40 -57.5 -70t-94.5 -30q-73 0 -111 51t-38 137q0 57 19.5 121.5t64.5 109.5t122 45q102 0 132 -84q4 19 9 37.5t11 37.5h66zM245 397q-55 0 -85 -34t-42.5 -82.5t-12.5 -91.5q0 -142 97 -142q55 0 91.5 45t47.5 91l13 98q-1 50 -31 83t-78 33z" />
    <glyph glyph-name="uni00E6" unicode="&#xe6;" horiz-adv-x="705" 
d="M226 400q-22 0 -42 -6t-41 -16l-25 -77l-55 7l26 103q34 24 74 33.5t79 9.5q97 0 128 -67q62 67 153 67q60 0 102 -29t42 -85q0 -46 -36.5 -81t-121.5 -53q-30 -6 -65 -12t-72 -10q1 -64 25.5 -100.5t82.5 -36.5q47 0 76.5 24.5t44.5 65.5l56 -13q-14 -56 -62 -95
t-126 -39q-117 0 -155 97q-22 -37 -63 -67t-99 -30q-46 0 -87.5 25.5t-41.5 91.5q0 83 66.5 112.5t142.5 29.5q16 0 36 -1t36 -2l1 4l4 38q5 49 -11 80.5t-72 31.5zM518 399q-70 0 -103 -52t-41 -115q79 10 104 16q76 16 96.5 41t20.5 47q0 34 -22.5 48.5t-54.5 14.5z
M169 45q48 0 84 33.5t47 79.5q-1 8 -1 25v22q-17 2 -37 3t-35 1q-54 0 -92 -19.5t-38 -72.5q0 -41 21.5 -56.5t50.5 -15.5z" />
    <glyph glyph-name="uni00E7" unicode="&#xe7;" horiz-adv-x="440" 
d="M250 397q-80 0 -113 -65.5t-33 -141.5q0 -66 24.5 -104.5t80.5 -38.5q91 0 126 116l55 -13q-14 -57 -56 -106.5t-121 -53.5l-4 -37h8q79 0 79 -72q0 -47 -35 -68.5t-81 -21.5q-58 0 -90 30l21 41q27 -23 70 -23q55 0 55 44q0 23 -14.5 30t-38.5 7h-29l9 74
q-132 23 -132 192q0 59 21.5 121t69.5 104.5t127 42.5q85 0 143 -45l6 -107l-59 -7l-9 76q-34 26 -80 26z" />
    <glyph glyph-name="uni00E8" unicode="&#xe8;" horiz-adv-x="437" 
d="M304 520l-182 104l35 59l166 -132zM213 47q46 0 75.5 24.5t45.5 65.5l55 -13q-14 -56 -62 -95t-125 -39q-81 0 -126 49.5t-45 143.5q0 114 61.5 192.5t163.5 78.5q59 0 101 -29.5t42 -81.5q0 -49 -36.5 -84t-122.5 -53q-31 -6 -65.5 -12.5t-70.5 -11.5q1 -63 25.5 -99
t83.5 -36zM211 248q76 17 95.5 41t19.5 48q0 34 -21 48t-56 14q-70 0 -102.5 -52t-40.5 -115q68 9 105 16z" />
    <glyph glyph-name="uni00E9" unicode="&#xe9;" horiz-adv-x="437" 
d="M413 624l-182 -104l-18 31l165 132zM213 47q46 0 75.5 24.5t45.5 65.5l55 -13q-14 -56 -62 -95t-125 -39q-81 0 -126 49.5t-45 143.5q0 114 61.5 192.5t163.5 78.5q59 0 101 -29.5t42 -81.5q0 -49 -36.5 -84t-122.5 -53q-31 -6 -65.5 -12.5t-70.5 -11.5q1 -63 25.5 -99
t83.5 -36zM211 248q76 17 95.5 41t19.5 48q0 34 -21 48t-56 14q-70 0 -102.5 -52t-40.5 -115q68 9 105 16z" />
    <glyph glyph-name="uni00EA" unicode="&#xea;" horiz-adv-x="437" 
d="M295 671l106 -121l-29 -31l-97 86l-110 -86l-24 31l132 121h22zM213 47q46 0 75.5 24.5t45.5 65.5l55 -13q-14 -56 -62 -95t-125 -39q-81 0 -126 49.5t-45 143.5q0 114 61.5 192.5t163.5 78.5q59 0 101 -29.5t42 -81.5q0 -49 -36.5 -84t-122.5 -53q-31 -6 -65.5 -12.5
t-70.5 -11.5q1 -63 25.5 -99t83.5 -36zM211 248q76 17 95.5 41t19.5 48q0 34 -21 48t-56 14q-70 0 -102.5 -52t-40.5 -115q68 9 105 16z" />
    <glyph glyph-name="uni00EB" unicode="&#xeb;" horiz-adv-x="437" 
d="M311 555l8 85h80l-9 -85h-79zM143 555l9 85h78l-8 -85h-79zM213 47q46 0 75.5 24.5t45.5 65.5l55 -13q-14 -56 -62 -95t-125 -39q-81 0 -126 49.5t-45 143.5q0 114 61.5 192.5t163.5 78.5q59 0 101 -29.5t42 -81.5q0 -49 -36.5 -84t-122.5 -53q-31 -6 -65.5 -12.5
t-70.5 -11.5q1 -63 25.5 -99t83.5 -36zM211 248q76 17 95.5 41t19.5 48q0 34 -21 48t-56 14q-70 0 -102.5 -52t-40.5 -115q68 9 105 16z" />
    <glyph glyph-name="uni00EC" unicode="&#xec;" horiz-adv-x="256" 
d="M199 520l-182 104l35 59l166 -132zM36 426l21 19h126l-47 -388h75l-5 -40l-22 -17h-123l47 388h-77z" />
    <glyph glyph-name="uni00ED" unicode="&#xed;" horiz-adv-x="255" 
d="M295 624l-182 -104l-18 31l165 132zM36 426l21 19h126l-47 -388h75l-5 -40l-22 -17h-123l47 388h-77z" />
    <glyph glyph-name="uni00EE" unicode="&#xee;" horiz-adv-x="256" 
d="M178 671l106 -121l-29 -31l-97 86l-110 -86l-24 31l132 121h22zM36 426l21 19h126l-47 -388h75l-5 -40l-22 -17h-123l47 388h-77z" />
    <glyph glyph-name="uni00EF" unicode="&#xef;" horiz-adv-x="255" 
d="M203 555l8 85h80l-9 -85h-79zM35 555l9 85h78l-8 -85h-79zM36 426l21 19h126l-47 -388h75l-5 -40l-22 -17h-123l47 388h-77z" />
    <glyph glyph-name="uni00F0" unicode="&#xf0;" horiz-adv-x="490" 
d="M156 526l65 71q-38 28 -75 50l34 51q22 -13 43 -26.5t40 -28.5l52 58l36 -27l-54 -60q65 -58 104.5 -136t39.5 -179q0 -72 -21.5 -143.5t-71.5 -118.5t-136 -47q-90 0 -135 56t-45 148q0 108 59 184t156 76q39 0 65.5 -13.5t43.5 -33.5q-13 49 -38 88t-62 73l-64 -70z
M248 397q-73 0 -107.5 -58.5t-34.5 -140.5q0 -62 24 -106.5t87 -44.5q61 0 92.5 38.5t43.5 91.5t14 98v4q-4 40 -30.5 79t-88.5 39z" />
    <glyph glyph-name="uni00F1" unicode="&#xf1;" horiz-adv-x="523" 
d="M180 549l-32 12q6 26 29 57t61 31q32 0 55 -18.5t58 -18.5q13 0 26 8t23 35l35 -9q-11 -40 -31 -66.5t-54 -26.5q-38 0 -63.5 19.5t-52.5 19.5q-14 0 -29 -9.5t-25 -33.5zM55 445h114l-1 -86q24 43 61 69t89 26q64 0 101 -40t27 -129l-28 -228h75l-5 -40l-21 -17h-123
l32 264q8 72 -15 102.5t-71 30.5q-54 0 -87.5 -37.5t-42.5 -85.5l-34 -274h-67l47 388h-78l5 38z" />
    <glyph glyph-name="uni00F2" unicode="&#xf2;" horiz-adv-x="481" 
d="M311 520l-182 104l35 59l166 -132zM31 189q0 105 58 185t171 80q96 0 136.5 -59t40.5 -143q0 -111 -60.5 -186.5t-168.5 -75.5q-91 0 -134 55t-43 144zM105 193q0 -65 23.5 -105.5t86.5 -40.5q78 0 113.5 60.5t35.5 142.5q0 65 -24 106t-88 41q-73 0 -110 -57t-37 -147z
" />
    <glyph glyph-name="uni00F3" unicode="&#xf3;" horiz-adv-x="481" 
d="M421 624l-182 -104l-18 31l165 132zM31 189q0 105 58 185t171 80q96 0 136.5 -59t40.5 -143q0 -111 -60.5 -186.5t-168.5 -75.5q-91 0 -134 55t-43 144zM105 193q0 -65 23.5 -105.5t86.5 -40.5q78 0 113.5 60.5t35.5 142.5q0 65 -24 106t-88 41q-73 0 -110 -57t-37 -147z
" />
    <glyph glyph-name="uni00F4" unicode="&#xf4;" horiz-adv-x="481" 
d="M298 671l106 -121l-29 -31l-97 86l-110 -86l-24 31l132 121h22zM31 189q0 105 58 185t171 80q96 0 136.5 -59t40.5 -143q0 -111 -60.5 -186.5t-168.5 -75.5q-91 0 -134 55t-43 144zM105 193q0 -65 23.5 -105.5t86.5 -40.5q78 0 113.5 60.5t35.5 142.5q0 65 -24 106
t-88 41q-73 0 -110 -57t-37 -147z" />
    <glyph glyph-name="uni00F5" unicode="&#xf5;" horiz-adv-x="481" 
d="M168 549l-32 12q6 26 29 57t61 31q32 0 55 -18.5t58 -18.5q13 0 26 8t23 35l35 -9q-11 -40 -31 -66.5t-54 -26.5q-38 0 -63.5 19.5t-52.5 19.5q-14 0 -29 -9.5t-25 -33.5zM31 189q0 105 58 185t171 80q96 0 136.5 -59t40.5 -143q0 -111 -60.5 -186.5t-168.5 -75.5
q-91 0 -134 55t-43 144zM105 193q0 -65 23.5 -105.5t86.5 -40.5q78 0 113.5 60.5t35.5 142.5q0 65 -24 106t-88 41q-73 0 -110 -57t-37 -147z" />
    <glyph glyph-name="uni00F6" unicode="&#xf6;" horiz-adv-x="481" 
d="M156 555l9 85h78l-8 -85h-79zM324 555l8 85h80l-9 -85h-79zM31 189q0 105 58 185t171 80q96 0 136.5 -59t40.5 -143q0 -111 -60.5 -186.5t-168.5 -75.5q-91 0 -134 55t-43 144zM105 193q0 -65 23.5 -105.5t86.5 -40.5q78 0 113.5 60.5t35.5 142.5q0 65 -24 106t-88 41
q-73 0 -110 -57t-37 -147z" />
    <glyph glyph-name="uni00F7" unicode="&#xf7;" horiz-adv-x="437" 
d="M182 375l10 101h93l-10 -101h-93zM46 254l6 54h340l-6 -54h-340zM152 91l10 101h93l-10 -101h-93z" />
    <glyph glyph-name="uni00F8" unicode="&#xf8;" horiz-adv-x="478" 
d="M30 189q0 105 58 185t171 80q62 0 104 -28l15 19h58l-40 -51q40 -53 40 -142q0 -111 -60.5 -186.5t-168.5 -75.5q-64 0 -105 29l-15 -19h-59l40 51q-38 51 -38 138zM104 193q0 -50 11 -82l207 263q-26 23 -71 23q-73 0 -110 -57t-37 -147zM214 47q78 0 113.5 60.5
t35.5 142.5q0 50 -13 85l-208 -265q26 -23 72 -23z" />
    <glyph glyph-name="uni00F9" unicode="&#xf9;" horiz-adv-x="522" 
d="M315 520l-182 104l35 59l166 -132zM483 57l-5 -38l-22 -19h-115l1 85q-23 -43 -59 -68.5t-88 -25.5q-64 0 -101 40.5t-27 128.5l28 228h-75l5 40l22 17h123l-32 -265q-9 -71 12.5 -101.5t72.5 -30.5q53 0 84.5 35t41.5 81l35 281h68l-47 -388h78z" />
    <glyph glyph-name="uni00FA" unicode="&#xfa;" horiz-adv-x="522" 
d="M440 624l-182 -104l-18 31l165 132zM483 57l-5 -38l-22 -19h-115l1 85q-23 -43 -59 -68.5t-88 -25.5q-64 0 -101 40.5t-27 128.5l28 228h-75l5 40l22 17h123l-32 -265q-9 -71 12.5 -101.5t72.5 -30.5q53 0 84.5 35t41.5 81l35 281h68l-47 -388h78z" />
    <glyph glyph-name="uni00FB" unicode="&#xfb;" horiz-adv-x="522" 
d="M311 671l106 -121l-29 -31l-97 86l-110 -86l-24 31l132 121h22zM483 57l-5 -38l-22 -19h-115l1 85q-23 -43 -59 -68.5t-88 -25.5q-64 0 -101 40.5t-27 128.5l28 228h-75l5 40l22 17h123l-32 -265q-9 -71 12.5 -101.5t72.5 -30.5q53 0 84.5 35t41.5 81l35 281h68l-47 -388
h78z" />
    <glyph glyph-name="uni00FC" unicode="&#xfc;" horiz-adv-x="522" 
d="M324 555l8 85h80l-9 -85h-79zM156 555l9 85h78l-8 -85h-79zM483 57l-5 -38l-22 -19h-115l1 85q-23 -43 -59 -68.5t-88 -25.5q-64 0 -101 40.5t-27 128.5l28 228h-75l5 40l22 17h123l-32 -265q-9 -71 12.5 -101.5t72.5 -30.5q53 0 84.5 35t41.5 81l35 281h68l-47 -388h78z
" />
    <glyph glyph-name="uni00FD" unicode="&#xfd;" horiz-adv-x="468" 
d="M420 624l-182 -104l-18 31l165 132zM231 82h6q128 143 128 270q0 49 -18 93h80q15 -63 4.5 -128t-52.5 -132q-22 -35 -57.5 -79t-75.5 -85l-24 -177h77l-4 -39l-21 -18h-202l5 38l21 19h56l25 179l-109 365h-57l5 38l21 19h191l-5 -39l-21 -18h-62z" />
    <glyph glyph-name="uni00FE" unicode="&#xfe;" horiz-adv-x="502" 
d="M183 -195l-22 -18h-211l5 38l21 19h45l97 787h-77l5 38l21 19h124l-14 -135l-24 -193q22 39 57.5 66.5t91.5 27.5q76 0 116.5 -52t40.5 -138q0 -57 -20 -120.5t-65.5 -108.5t-123.5 -45q-100 0 -135 74l-27 -220h100zM245 47q53 0 84 34.5t44 83.5t13 91
q0 66 -27.5 103.5t-76.5 37.5q-56 0 -92.5 -42.5t-48.5 -88.5l-12 -97l-1 -4q0 -50 32 -84t85 -34z" />
    <glyph glyph-name="uni00FF" unicode="&#xff;" horiz-adv-x="468" 
d="M307 555l8 85h80l-9 -85h-79zM139 555l9 85h78l-8 -85h-79zM231 82h6q128 143 128 270q0 49 -18 93h80q15 -63 4.5 -128t-52.5 -132q-22 -35 -57.5 -79t-75.5 -85l-24 -177h77l-4 -39l-21 -18h-202l5 38l21 19h56l25 179l-109 365h-57l5 38l21 19h191l-5 -39l-21 -18h-62
z" />
    <glyph glyph-name="uni0100" unicode="&#x100;" horiz-adv-x="633" 
d="M233 790h273l-6 -57h-273zM-18 64h60l262 522h-101l6 64h180l167 -586h62l-7 -64h-223l6 64h85l-33 125h-270l-61 -125h90l-6 -64h-222zM349 544l-145 -298h227l-78 298h-4z" />
    <glyph glyph-name="uni0101" unicode="&#x101;" horiz-adv-x="504" 
d="M176 621h240l-6 -57h-240zM456 445q-10 -35 -18 -69t-12 -69l-32 -250h67l-4 -40l-21 -17h-105l2 90q-22 -40 -57.5 -70t-94.5 -30q-73 0 -111 51t-38 137q0 57 19.5 121.5t64.5 109.5t122 45q102 0 132 -84q4 19 9 37.5t11 37.5h66zM245 397q-55 0 -85 -34t-42.5 -82.5
t-12.5 -91.5q0 -142 97 -142q55 0 91.5 45t47.5 91l13 98q-1 50 -31 83t-78 33z" />
    <glyph glyph-name="uni0102" unicode="&#x102;" horiz-adv-x="633" 
d="M442 816h58q-7 -62 -41.5 -89.5t-91.5 -27.5q-119 0 -107 117h58q-4 -39 10 -54t44 -15q63 0 70 69zM-18 64h60l262 522h-101l6 64h180l167 -586h62l-7 -64h-223l6 64h85l-33 125h-270l-61 -125h90l-6 -64h-222zM349 544l-145 -298h227l-78 298h-4z" />
    <glyph glyph-name="uni0103" unicode="&#x103;" horiz-adv-x="504" 
d="M357 655h58q-13 -123 -133 -123t-106 123h58q-10 -75 54 -75q62 0 69 75zM456 445q-10 -35 -18 -69t-12 -69l-32 -250h67l-4 -40l-21 -17h-105l2 90q-22 -40 -57.5 -70t-94.5 -30q-73 0 -111 51t-38 137q0 57 19.5 121.5t64.5 109.5t122 45q102 0 132 -84q4 19 9 37.5
t11 37.5h66zM245 397q-55 0 -85 -34t-42.5 -82.5t-12.5 -91.5q0 -142 97 -142q55 0 91.5 45t47.5 91l13 98q-1 50 -31 83t-78 33z" />
    <glyph glyph-name="uni0104" unicode="&#x104;" horiz-adv-x="632" 
d="M-18 64h60l262 522h-101l6 64h180l167 -586h62l-7 -64h-59q-44 -25 -59 -53t-15 -53q0 -49 52 -49q28 0 55 15l3 -49q-38 -20 -80 -20q-93 0 -93 83q0 40 24.5 73t59.5 53h-111l6 64h85l-33 125h-270l-61 -125h90l-6 -64h-222zM349 544l-145 -298h227l-78 298h-4z" />
    <glyph glyph-name="uni0105" unicode="&#x105;" horiz-adv-x="504" 
d="M448 -189q-38 -20 -80 -20q-93 0 -93 83q0 40 24.5 73t59.5 53h-28l2 90q-22 -40 -57.5 -70t-94.5 -30q-73 0 -111 51t-38 137q0 57 19.5 121.5t64.5 109.5t122 45q102 0 132 -84q4 19 9 37.5t11 37.5h66q-10 -35 -18 -69t-12 -69l-32 -250h67l-4 -40l-21 -17h-24
q-44 -25 -59 -53t-15 -53q0 -49 52 -49q28 0 55 15zM245 397q-55 0 -85 -34t-42.5 -82.5t-12.5 -91.5q0 -142 97 -142q55 0 91.5 45t47.5 91l13 98q-1 50 -31 83t-78 33z" />
    <glyph glyph-name="uni0106" unicode="&#x106;" horiz-adv-x="630" 
d="M540 745l-202 -42l-9 37l195 73zM540 50q-40 -30 -97.5 -45t-112.5 -15q-139 0 -212.5 83.5t-73.5 215.5q0 101 42 185.5t119.5 135t184.5 50.5q71 0 124 -22t86 -54l4 -125l-62 -6l-8 95q-28 21 -64.5 33.5t-83.5 12.5q-118 0 -193 -80.5t-75 -218.5q0 -239 226 -239
q81 0 137 29l28 96l60 -6z" />
    <glyph glyph-name="uni0107" unicode="&#x107;" horiz-adv-x="440" 
d="M414 624l-182 -104l-18 31l165 132zM250 397q-80 0 -113 -65.5t-33 -141.5q0 -66 24.5 -104.5t80.5 -38.5q91 0 126 116l55 -13q-14 -59 -59 -109.5t-130 -50.5q-81 0 -125.5 52t-44.5 144q0 59 21.5 121t69.5 104.5t127 42.5q85 0 143 -45l6 -107l-59 -7l-9 76
q-34 26 -80 26z" />
    <glyph glyph-name="uni0108" unicode="&#x108;" horiz-adv-x="630" 
d="M412 825l113 -89l-21 -34l-111 62l-120 -63l-18 32l136 92h21zM540 50q-40 -30 -97.5 -45t-112.5 -15q-139 0 -212.5 83.5t-73.5 215.5q0 101 42 185.5t119.5 135t184.5 50.5q71 0 124 -22t86 -54l4 -125l-62 -6l-8 95q-28 21 -64.5 33.5t-83.5 12.5q-118 0 -193 -80.5
t-75 -218.5q0 -239 226 -239q81 0 137 29l28 96l60 -6z" />
    <glyph glyph-name="uni0109" unicode="&#x109;" horiz-adv-x="440" 
d="M291 671l106 -121l-29 -31l-97 86l-110 -86l-24 31l132 121h22zM250 397q-80 0 -113 -65.5t-33 -141.5q0 -66 24.5 -104.5t80.5 -38.5q91 0 126 116l55 -13q-14 -59 -59 -109.5t-130 -50.5q-81 0 -125.5 52t-44.5 144q0 59 21.5 121t69.5 104.5t127 42.5q85 0 143 -45
l6 -107l-59 -7l-9 76q-34 26 -80 26z" />
    <glyph glyph-name="uni010A" unicode="&#x10a;" horiz-adv-x="630" 
d="M354 718l8 85h79l-8 -85h-79zM540 50q-40 -30 -97.5 -45t-112.5 -15q-139 0 -212.5 83.5t-73.5 215.5q0 101 42 185.5t119.5 135t184.5 50.5q71 0 124 -22t86 -54l4 -125l-62 -6l-8 95q-28 21 -64.5 33.5t-83.5 12.5q-118 0 -193 -80.5t-75 -218.5q0 -239 226 -239
q81 0 137 29l28 96l60 -6z" />
    <glyph glyph-name="uni010B" unicode="&#x10b;" horiz-adv-x="440" 
d="M228 553l9 91h74l-9 -91h-74zM250 397q-80 0 -113 -65.5t-33 -141.5q0 -66 24.5 -104.5t80.5 -38.5q91 0 126 116l55 -13q-14 -59 -59 -109.5t-130 -50.5q-81 0 -125.5 52t-44.5 144q0 59 21.5 121t69.5 104.5t127 42.5q85 0 143 -45l6 -107l-59 -7l-9 76q-34 26 -80 26z
" />
    <glyph glyph-name="uni010C" unicode="&#x10c;" horiz-adv-x="630" 
d="M376 701l-114 89l22 33l110 -62l121 64l17 -33l-135 -91h-21zM540 50q-40 -30 -97.5 -45t-112.5 -15q-139 0 -212.5 83.5t-73.5 215.5q0 101 42 185.5t119.5 135t184.5 50.5q71 0 124 -22t86 -54l4 -125l-62 -6l-8 95q-28 21 -64.5 33.5t-83.5 12.5q-118 0 -193 -80.5
t-75 -218.5q0 -239 226 -239q81 0 137 29l28 96l60 -6z" />
    <glyph glyph-name="uni010D" unicode="&#x10d;" horiz-adv-x="440" 
d="M244 519l-105 117l29 31l95 -82l111 85l23 -32l-131 -119h-22zM250 397q-80 0 -113 -65.5t-33 -141.5q0 -66 24.5 -104.5t80.5 -38.5q91 0 126 116l55 -13q-14 -59 -59 -109.5t-130 -50.5q-81 0 -125.5 52t-44.5 144q0 59 21.5 121t69.5 104.5t127 42.5q85 0 143 -45
l6 -107l-59 -7l-9 76q-34 26 -80 26z" />
    <glyph glyph-name="uni010E" unicode="&#x10e;" horiz-adv-x="686" 
d="M348 701l-114 89l22 33l110 -62l121 64l17 -33l-135 -91h-21zM12 0l7 63h79l55 524h-79l6 63h282q143 0 217 -81t74 -208q0 -155 -96.5 -258t-259.5 -103h-285zM300 63q130 0 204.5 81.5t74.5 210.5q0 106 -57 169t-167 63h-132l-55 -524h132z" />
    <glyph glyph-name="uni010F" unicode="&#x10f;" horiz-adv-x="520" 
d="M305 670l21 18h153l-78 -631h76l-4 -40l-22 -17h-114l2 91q-24 -41 -62.5 -71t-96.5 -30q-73 0 -111 51t-38 135q0 58 21 123t67.5 110t123.5 45q96 0 129 -74l31 251h-102zM622 681l-45 -224h-56l36 224h65zM250 397q-55 0 -87 -33.5t-45.5 -82.5t-13.5 -96
q0 -138 98 -138q57 0 97 48.5t50 95.5l12 96q-2 48 -33.5 79t-77.5 31z" />
    <glyph glyph-name="uni0110" unicode="&#x110;" horiz-adv-x="687" 
d="M50 369h81l23 218h-79l6 63h282q143 0 217 -81t74 -208q0 -155 -96.5 -258t-259.5 -103h-285l7 63h79l26 248h-81zM301 63q130 0 204.5 81.5t74.5 210.5q0 106 -57 169t-167 63h-132l-23 -218h129l-6 -58h-129l-26 -248h132z" />
    <glyph glyph-name="uni0111" unicode="&#x111;" horiz-adv-x="510" 
d="M305 670l21 18h153l-16 -122h63l-4 -26l-23 -20h-41l-57 -463h76l-4 -40l-22 -17h-114l2 91q-24 -41 -62.5 -71t-96.5 -30q-73 0 -111 51t-38 135q0 58 21 123t67.5 110t123.5 45q96 0 129 -74l17 140h-170l4 25l23 21h149l8 65h-102zM250 397q-55 0 -87 -33.5
t-45.5 -82.5t-13.5 -96q0 -138 98 -138q57 0 97 48.5t50 95.5l12 96q-2 48 -33.5 79t-77.5 31z" />
    <glyph glyph-name="uni0112" unicode="&#x112;" horiz-adv-x="573" 
d="M226 790h273l-6 -57h-273zM481 0h-469l6 64h80l56 522h-81l7 64h465v-184l-63 -7l-6 127h-251l-25 -224h302l-6 -64h-302l-25 -234h256l33 127l61 -7z" />
    <glyph glyph-name="uni0113" unicode="&#x113;" horiz-adv-x="437" 
d="M153 621h240l-6 -57h-240zM213 47q46 0 75.5 24.5t45.5 65.5l55 -13q-14 -56 -62 -95t-125 -39q-81 0 -126 49.5t-45 143.5q0 114 61.5 192.5t163.5 78.5q59 0 101 -29.5t42 -81.5q0 -49 -36.5 -84t-122.5 -53q-31 -6 -65.5 -12.5t-70.5 -11.5q1 -63 25.5 -99t83.5 -36z
M211 248q76 17 95.5 41t19.5 48q0 34 -21 48t-56 14q-70 0 -102.5 -52t-40.5 -115q68 9 105 16z" />
    <glyph glyph-name="uni0114" unicode="&#x114;" horiz-adv-x="573" 
d="M433 816h58q-7 -62 -41.5 -89.5t-91.5 -27.5q-119 0 -107 117h58q-5 -39 9.5 -54t44.5 -15q63 0 70 69zM481 0h-469l6 64h80l56 522h-81l7 64h465v-184l-63 -7l-6 127h-251l-25 -224h302l-6 -64h-302l-25 -234h256l33 127l61 -7z" />
    <glyph glyph-name="uni0115" unicode="&#x115;" horiz-adv-x="437" 
d="M339 655h58q-13 -123 -133 -123t-106 123h58q-10 -75 54 -75q62 0 69 75zM213 47q46 0 75.5 24.5t45.5 65.5l55 -13q-14 -56 -62 -95t-125 -39q-81 0 -126 49.5t-45 143.5q0 114 61.5 192.5t163.5 78.5q59 0 101 -29.5t42 -81.5q0 -49 -36.5 -84t-122.5 -53
q-31 -6 -65.5 -12.5t-70.5 -11.5q1 -63 25.5 -99t83.5 -36zM211 248q76 17 95.5 41t19.5 48q0 34 -21 48t-56 14q-70 0 -102.5 -52t-40.5 -115q68 9 105 16z" />
    <glyph glyph-name="uni0116" unicode="&#x116;" horiz-adv-x="573" 
d="M319 718l8 85h79l-8 -85h-79zM481 0h-469l6 64h80l56 522h-81l7 64h465v-184l-63 -7l-6 127h-251l-25 -224h302l-6 -64h-302l-25 -234h256l33 127l61 -7z" />
    <glyph glyph-name="uni0117" unicode="&#x117;" horiz-adv-x="437" 
d="M224 553l9 91h74l-9 -91h-74zM213 47q46 0 75.5 24.5t45.5 65.5l55 -13q-14 -56 -62 -95t-125 -39q-81 0 -126 49.5t-45 143.5q0 114 61.5 192.5t163.5 78.5q59 0 101 -29.5t42 -81.5q0 -49 -36.5 -84t-122.5 -53q-31 -6 -65.5 -12.5t-70.5 -11.5q1 -63 25.5 -99
t83.5 -36zM211 248q76 17 95.5 41t19.5 48q0 34 -21 48t-56 14q-70 0 -102.5 -52t-40.5 -115q68 9 105 16z" />
    <glyph glyph-name="uni0118" unicode="&#x118;" horiz-adv-x="572" 
d="M480 0h-40q-44 -25 -59 -53t-15 -53q0 -49 52 -49q28 0 55 15l3 -49q-38 -20 -80 -20q-93 0 -93 83q0 40 24.5 73t59.5 53h-376l6 64h80l56 522h-81l7 64h465v-184l-63 -7l-6 127h-251l-25 -224h302l-6 -64h-302l-25 -234h256l33 127l61 -7z" />
    <glyph glyph-name="uni0119" unicode="&#x119;" horiz-adv-x="437" 
d="M302 -189q-38 -20 -80 -20q-93 0 -93 83q0 35 19.5 65.5t48.5 50.5q-79 2 -122.5 51.5t-43.5 141.5q0 114 61.5 192.5t163.5 78.5q59 0 101 -29.5t42 -81.5q0 -49 -36.5 -84t-122.5 -53q-31 -6 -65.5 -12.5t-70.5 -11.5q1 -63 25.5 -99t83.5 -36q46 0 75.5 24.5
t45.5 65.5l55 -13q-11 -44 -43.5 -78t-83.5 -48q-41 -25 -55.5 -52.5t-14.5 -51.5q0 -49 52 -49q28 0 55 15zM211 248q76 17 95.5 41t19.5 48q0 34 -21 48t-56 14q-70 0 -102.5 -52t-40.5 -115q68 9 105 16z" />
    <glyph glyph-name="uni011A" unicode="&#x11a;" horiz-adv-x="573" 
d="M343 701l-114 89l22 33l110 -62l121 64l17 -33l-135 -91h-21zM481 0h-469l6 64h80l56 522h-81l7 64h465v-184l-63 -7l-6 127h-251l-25 -224h302l-6 -64h-302l-25 -234h256l33 127l61 -7z" />
    <glyph glyph-name="uni011B" unicode="&#x11b;" horiz-adv-x="437" 
d="M249 519l-105 117l29 31l95 -82l111 85l23 -32l-131 -119h-22zM213 47q46 0 75.5 24.5t45.5 65.5l55 -13q-14 -56 -62 -95t-125 -39q-81 0 -126 49.5t-45 143.5q0 114 61.5 192.5t163.5 78.5q59 0 101 -29.5t42 -81.5q0 -49 -36.5 -84t-122.5 -53q-31 -6 -65.5 -12.5
t-70.5 -11.5q1 -63 25.5 -99t83.5 -36zM211 248q76 17 95.5 41t19.5 48q0 34 -21 48t-56 14q-70 0 -102.5 -52t-40.5 -115q68 9 105 16z" />
    <glyph glyph-name="uni011C" unicode="&#x11c;" horiz-adv-x="675" 
d="M407 825l113 -89l-21 -34l-111 62l-120 -63l-18 32l136 92h21zM647 270h-50l-28 -270h-55v89q-32 -43 -86.5 -71t-123.5 -28q-121 0 -191 85.5t-70 215.5q0 103 44 187t123 133t183 49q68 0 125 -21t90 -55l4 -122l-61 -7l-10 92q-23 17 -60 32t-92 15q-120 0 -196 -81
t-76 -217q0 -115 55 -177.5t149 -62.5q89 0 140.5 49t58.5 107l6 58h-153l7 65h274z" />
    <glyph glyph-name="uni011D" unicode="&#x11d;" horiz-adv-x="513" 
d="M312 671l106 -121l-29 -31l-97 86l-110 -86l-24 31l132 121h22zM392 445h127l-4 -39l-22 -18h-51l-47 -382q-13 -100 -63.5 -164.5t-152.5 -64.5q-67 0 -116 33.5t-59 99.5l52 26q10 -52 47 -75t81 -23q123 0 143 171l9 78q-23 -40 -61 -68.5t-95 -28.5q-73 0 -111 51
t-38 134q0 59 21 124t67.5 110t123.5 45q101 0 132 -81zM249 397q-53 0 -85 -33.5t-46 -82.5t-14 -96q0 -138 96 -138q57 0 97 45.5t51 91.5l12 92q1 52 -29 86.5t-82 34.5z" />
    <glyph glyph-name="uni011E" unicode="&#x11e;" horiz-adv-x="675" 
d="M459 816h58q-7 -62 -41.5 -89.5t-91.5 -27.5q-119 0 -107 117h58q-5 -39 9.5 -54t44.5 -15q63 0 70 69zM647 270h-50l-28 -270h-55v89q-32 -43 -86.5 -71t-123.5 -28q-121 0 -191 85.5t-70 215.5q0 103 44 187t123 133t183 49q68 0 125 -21t90 -55l4 -122l-61 -7l-10 92
q-23 17 -60 32t-92 15q-120 0 -196 -81t-76 -217q0 -115 55 -177.5t149 -62.5q89 0 140.5 49t58.5 107l6 58h-153l7 65h274z" />
    <glyph glyph-name="uni011F" unicode="&#x11f;" horiz-adv-x="513" 
d="M364 655h58q-13 -123 -133 -123t-106 123h58q-10 -75 54 -75q62 0 69 75zM392 445h127l-4 -39l-22 -18h-51l-47 -382q-13 -100 -63.5 -164.5t-152.5 -64.5q-67 0 -116 33.5t-59 99.5l52 26q10 -52 47 -75t81 -23q123 0 143 171l9 78q-23 -40 -61 -68.5t-95 -28.5
q-73 0 -111 51t-38 134q0 59 21 124t67.5 110t123.5 45q101 0 132 -81zM249 397q-53 0 -85 -33.5t-46 -82.5t-14 -96q0 -138 96 -138q57 0 97 45.5t51 91.5l12 92q1 52 -29 86.5t-82 34.5z" />
    <glyph glyph-name="uni0120" unicode="&#x120;" horiz-adv-x="675" 
d="M347 718l8 85h79l-8 -85h-79zM647 270h-50l-28 -270h-55v89q-32 -43 -86.5 -71t-123.5 -28q-121 0 -191 85.5t-70 215.5q0 103 44 187t123 133t183 49q68 0 125 -21t90 -55l4 -122l-61 -7l-10 92q-23 17 -60 32t-92 15q-120 0 -196 -81t-76 -217q0 -115 55 -177.5
t149 -62.5q89 0 140.5 49t58.5 107l6 58h-153l7 65h274z" />
    <glyph glyph-name="uni0121" unicode="&#x121;" horiz-adv-x="513" 
d="M249 553l9 91h74l-9 -91h-74zM392 445h127l-4 -39l-22 -18h-51l-47 -382q-13 -100 -63.5 -164.5t-152.5 -64.5q-67 0 -116 33.5t-59 99.5l52 26q10 -52 47 -75t81 -23q123 0 143 171l9 78q-23 -40 -61 -68.5t-95 -28.5q-73 0 -111 51t-38 134q0 59 21 124t67.5 110
t123.5 45q101 0 132 -81zM249 397q-53 0 -85 -33.5t-46 -82.5t-14 -96q0 -138 96 -138q57 0 97 45.5t51 91.5l12 92q1 52 -29 86.5t-82 34.5z" />
    <glyph glyph-name="uni0122" unicode="&#x122;" horiz-adv-x="675" 
d="M647 270h-50l-28 -270h-55v89q-32 -43 -86.5 -71t-123.5 -28q-121 0 -191 85.5t-70 215.5q0 103 44 187t123 133t183 49q68 0 125 -21t90 -55l4 -122l-61 -7l-10 92q-23 17 -60 32t-92 15q-120 0 -196 -81t-76 -217q0 -115 55 -177.5t149 -62.5q89 0 140.5 49t58.5 107
l6 58h-153l7 65h274zM343 -64l-34 -154h-56l24 154h66z" />
    <glyph glyph-name="uni0123" unicode="&#x123;" horiz-adv-x="513" 
d="M253 544l34 154h56l-24 -154h-66zM392 445h127l-4 -39l-22 -18h-51l-47 -382q-13 -100 -63.5 -164.5t-152.5 -64.5q-67 0 -116 33.5t-59 99.5l52 26q10 -52 47 -75t81 -23q123 0 143 171l9 78q-23 -40 -61 -68.5t-95 -28.5q-73 0 -111 51t-38 134q0 59 21 124t67.5 110
t123.5 45q101 0 132 -81zM249 397q-53 0 -85 -33.5t-46 -82.5t-14 -96q0 -138 96 -138q57 0 97 45.5t51 91.5l12 92q1 52 -29 86.5t-82 34.5z" />
    <glyph glyph-name="uni0124" unicode="&#x124;" horiz-adv-x="732" 
d="M439 825l113 -89l-21 -34l-111 62l-120 -63l-18 32l136 92h21zM19 64h79l55 522h-79l7 64h229l-7 -64h-80l-23 -224h351l23 224h-79l7 64h229l-7 -64h-79l-55 -522h80l-7 -64h-229l7 64h78l25 236h-351l-25 -236h80l-6 -64h-229z" />
    <glyph glyph-name="uni0125" unicode="&#x125;" horiz-adv-x="505" 
d="M170 867l106 -121l-29 -31l-97 86l-110 -86l-24 31l132 121h22zM46 669l22 19h124l-40 -323q24 41 60 65t88 24q63 0 100.5 -40t26.5 -129l-28 -228h75l-5 -40l-21 -17h-123l32 264q9 72 -15 102.5t-70 30.5q-53 0 -86.5 -36.5t-43.5 -82.5l-34 -278h-68l77 631h-76z" />
    <glyph glyph-name="uni0126" unicode="&#x126;" horiz-adv-x="734" 
d="M442 64h78l25 236h-351l-25 -236h80l-6 -64h-229l6 64h79l42 398h-75l4 48h76l8 76h-79l7 64h229l-7 -64h-80l-8 -76h351l8 76h-79l7 64h229l-7 -64h-79l-8 -76h76l-5 -48h-76l-42 -398h80l-7 -64h-229zM201 362h351l10 100h-351z" />
    <glyph glyph-name="uni0127" unicode="&#x127;" horiz-adv-x="505" 
d="M46 669l22 19h124l-15 -122h139l-4 -26l-23 -20h-118l-19 -155q24 41 60 65t88 24q63 0 100.5 -40t26.5 -129l-28 -228h75l-5 -40l-21 -17h-123l32 264q9 72 -15 102.5t-70 30.5q-53 0 -86.5 -36.5t-43.5 -82.5l-34 -278h-68l63 520h-93l3 25l23 21h73l8 65h-76z" />
    <glyph glyph-name="uni0128" unicode="&#x128;" horiz-adv-x="311" 
d="M99 705l-31 13q7 26 29.5 54t59.5 28q33 0 56 -17.5t58 -17.5q13 0 26 7t24 35l34 -9q-11 -40 -31 -64.5t-54 -24.5q-37 0 -62.5 17.5t-54.5 17.5q-13 0 -28 -7.5t-26 -31.5zM19 64h79l55 522h-80l7 64h229l-6 -64h-81l-55 -522h81l-7 -64h-229z" />
    <glyph glyph-name="uni0129" unicode="&#x129;" horiz-adv-x="255" 
d="M41 549l-32 12q6 26 29.5 57t60.5 31q32 0 55 -18.5t58 -18.5q14 0 26.5 8t22.5 35l35 -9q-11 -40 -30.5 -66.5t-54.5 -26.5q-38 0 -63.5 19.5t-52.5 19.5q-14 0 -29 -9.5t-25 -33.5zM36 426l21 19h126l-47 -388h75l-5 -40l-22 -17h-123l47 388h-77z" />
    <glyph glyph-name="uni012A" unicode="&#x12a;" horiz-adv-x="311" 
d="M75 790h273l-6 -57h-273zM19 64h79l55 522h-80l7 64h229l-6 -64h-81l-55 -522h81l-7 -64h-229z" />
    <glyph glyph-name="uni012B" unicode="&#x12b;" horiz-adv-x="256" 
d="M32 621h240l-6 -57h-240zM36 426l21 19h126l-47 -388h75l-5 -40l-22 -17h-123l47 388h-77z" />
    <glyph glyph-name="uni012C" unicode="&#x12c;" horiz-adv-x="311" 
d="M270 816h58q-7 -62 -41.5 -89.5t-91.5 -27.5q-119 0 -107 117h58q-4 -39 10 -54t44 -15q63 0 70 69zM19 64h79l55 522h-80l7 64h229l-6 -64h-81l-55 -522h81l-7 -64h-229z" />
    <glyph glyph-name="uni012D" unicode="&#x12d;" horiz-adv-x="256" 
d="M232 655h58q-13 -123 -133 -123t-106 123h58q-10 -75 54 -75q62 0 69 75zM36 426l21 19h126l-47 -388h75l-5 -40l-22 -17h-123l47 388h-77z" />
    <glyph glyph-name="uni012E" unicode="&#x12e;" horiz-adv-x="310" 
d="M192 -189q-38 -20 -80 -20q-93 0 -93 83q0 40 24.5 73t59.5 53h-91l7 64h79l55 522h-80l7 64h229l-6 -64h-81l-55 -522h81l-7 -64h-85q-44 -25 -59 -53t-15 -53q0 -49 52 -49q28 0 55 15z" />
    <glyph glyph-name="uni012F" unicode="&#x12f;" horiz-adv-x="256" 
d="M125 560l9 91h74l-9 -91h-74zM194 -189q-38 -20 -80 -20q-93 0 -93 83q0 40 24.5 73t59.5 53h-44l47 388h-77l5 38l21 19h126l-47 -388h75l-5 -40l-22 -17h-26q-44 -25 -59 -53t-15 -53q0 -49 52 -49q28 0 55 15z" />
    <glyph glyph-name="uni0130" unicode="&#x130;" horiz-adv-x="311" 
d="M161 718l8 85h79l-8 -85h-79zM19 64h79l55 522h-80l7 64h229l-6 -64h-81l-55 -522h81l-7 -64h-229z" />
    <glyph glyph-name="uni0131" unicode="&#x131;" horiz-adv-x="255" 
d="M36 426l21 19h126l-47 -388h75l-5 -40l-22 -17h-123l47 388h-77z" />
    <glyph glyph-name="uni0132" unicode="&#x132;" horiz-adv-x="753" 
d="M490 650h266l-6 -64h-70l-44 -420q-9 -88 -57 -132t-124 -44q-63 0 -97 27.5t-50 71.5l55 40q17 -41 39 -55.5t54 -14.5q51 0 77.5 29t31.5 78l44 420h-125zM19 64h79l55 522h-80l7 64h229l-6 -64h-81l-55 -522h81l-7 -64h-229z" />
    <glyph glyph-name="uni0133" unicode="&#x133;" horiz-adv-x="500" 
d="M125 560l9 91h74l-9 -91h-74zM384 560l9 91h74l-10 -91h-73zM279 426l22 19h147l-57 -463q-24 -199 -137 -205q-22 -1 -41.5 4.5t-37.5 13.5l3 51q52 -21 92 3.5t53 132.5l50 406h-99zM36 426l21 19h126l-47 -388h75l-5 -40l-22 -17h-123l47 388h-77z" />
    <glyph glyph-name="uni0134" unicode="&#x134;" horiz-adv-x="442" 
d="M346 825l113 -89l-21 -34l-111 62l-120 -63l-18 32l136 92h21zM179 650h266l-6 -64h-70l-44 -420q-9 -88 -57 -132t-124 -44q-63 0 -97 27.5t-50 71.5l55 40q16 -41 38.5 -55.5t54.5 -14.5q51 0 77.5 29t31.5 78l44 420h-125z" />
    <glyph glyph-name="uni0135" unicode="&#x135;" horiz-adv-x="246" 
d="M169 671l106 -121l-29 -31l-97 86l-110 -86l-24 31l132 121h22zM25 426l21 19h148l-57 -463q-24 -200 -140 -205q-20 -1 -39.5 4.5t-36.5 13.5l4 51q50 -21 90.5 3.5t54.5 132.5l49 406h-99z" />
    <glyph glyph-name="uni0136" unicode="&#x136;" horiz-adv-x="622" 
d="M19 64h78l55 522h-79l6 64h225l-7 -64h-74l-24 -224h103l184 225h-72l7 64h222l-7 -64h-70l-210 -249l167 -274h71l-7 -64h-228l8 64h73l-142 235h-105l-25 -235h73l-7 -64h-223zM324 -64l-34 -154h-56l24 154h66z" />
    <glyph glyph-name="uni0137" unicode="&#x137;" horiz-adv-x="446" 
d="M46 669l22 19h124l-53 -430h82q46 40 73.5 86t31.5 101h72q-4 -62 -41.5 -116.5t-95.5 -94.5l97 -177h62l-5 -40l-21 -17h-78l-109 205h-74l-25 -205h-68l77 631h-76zM235 -64l-34 -154h-56l24 154h66z" />
    <glyph glyph-name="uni0139" unicode="&#x139;" horiz-adv-x="528" 
d="M340 745l-202 -42l-9 37l195 73zM468 0h-456l6 64h80l55 522h-80l7 64h257l-6 -64h-107l-55 -522h242l35 149l63 -5z" />
    <glyph glyph-name="uni013A" unicode="&#x13a;" horiz-adv-x="239" 
d="M283 756l-202 -42l-9 37l195 73zM52 669l20 19h127l-77 -631h74l-5 -40l-21 -17h-123l77 631h-77z" />
    <glyph glyph-name="uni013B" unicode="&#x13b;" horiz-adv-x="528" 
d="M468 0h-456l6 64h80l55 522h-80l7 64h257l-6 -64h-107l-55 -522h242l35 149l63 -5zM285 -64l-34 -154h-56l24 154h66z" />
    <glyph glyph-name="uni013C" unicode="&#x13c;" horiz-adv-x="239" 
d="M52 669l20 19h127l-77 -631h74l-5 -40l-21 -17h-123l77 631h-77zM137 -64l-34 -154h-56l24 154h66z" />
    <glyph glyph-name="uni013D" unicode="&#x13d;" horiz-adv-x="527" 
d="M462 681l-45 -224h-56l36 224h65zM468 0h-456l6 64h80l55 522h-80l7 64h257l-6 -64h-107l-55 -522h242l35 149l63 -5z" />
    <glyph glyph-name="uni013E" unicode="&#x13e;" horiz-adv-x="251" 
d="M52 669l20 19h127l-77 -631h74l-5 -40l-21 -17h-123l77 631h-77zM345 681l-45 -224h-56l36 224h65z" />
    <glyph glyph-name="uni013F" unicode="&#x13f;" horiz-adv-x="528" 
d="M468 0h-456l6 64h80l55 522h-80l7 64h257l-6 -64h-107l-55 -522h242l35 149l63 -5zM320 293l9 91h74l-9 -91h-74z" />
    <glyph glyph-name="uni0140" unicode="&#x140;" horiz-adv-x="286" 
d="M52 669l20 19h127l-77 -631h74l-5 -40l-21 -17h-123l77 631h-77zM219 293l9 91h74l-9 -91h-74z" />
    <glyph glyph-name="uni0141" unicode="&#x141;" horiz-adv-x="529" 
d="M469 0h-456l6 64h80l21 202l-81 -31l6 59l81 31l28 261h-80l7 64h257l-6 -64h-107l-25 -232l161 62l-6 -59l-161 -62l-24 -231h242l35 149l63 -5z" />
    <glyph glyph-name="uni0142" unicode="&#x142;" horiz-adv-x="261" 
d="M25 313l82 37l35 281h-77l5 38l20 19h127l-38 -305l84 38l-7 -59l-84 -38l-32 -267h74l-5 -40l-21 -17h-123l35 291l-82 -37z" />
    <glyph glyph-name="uni0143" unicode="&#x143;" horiz-adv-x="715" 
d="M553 745l-202 -42l-9 37l195 73zM25 64h73l55 522h-83l7 64h134l309 -502h3l45 438h-94l6 64h242l-6 -64h-80l-61 -586h-45l-314 512h-3l-48 -448h102l-6 -64h-243z" />
    <glyph glyph-name="uni0144" unicode="&#x144;" horiz-adv-x="523" 
d="M449 624l-182 -104l-18 31l165 132zM55 445h114l-1 -86q24 43 61 69t89 26q64 0 101 -40t27 -129l-28 -228h75l-5 -40l-21 -17h-123l32 264q8 72 -15 102.5t-71 30.5q-54 0 -87.5 -37.5t-42.5 -85.5l-34 -274h-67l47 388h-78l5 38z" />
    <glyph glyph-name="uni0145" unicode="&#x145;" horiz-adv-x="715" 
d="M25 64h73l55 522h-83l7 64h134l309 -502h3l45 438h-94l6 64h242l-6 -64h-80l-61 -586h-45l-314 512h-3l-48 -448h102l-6 -64h-243zM368 -64l-34 -154h-56l24 154h66z" />
    <glyph glyph-name="uni0146" unicode="&#x146;" horiz-adv-x="523" 
d="M55 445h114l-1 -86q24 43 61 69t89 26q64 0 101 -40t27 -129l-28 -228h75l-5 -40l-21 -17h-123l32 264q8 72 -15 102.5t-71 30.5q-54 0 -87.5 -37.5t-42.5 -85.5l-34 -274h-67l47 388h-78l5 38zM267 -64l-34 -154h-56l24 154h66z" />
    <glyph glyph-name="uni0147" unicode="&#x147;" horiz-adv-x="715" 
d="M386 701l-114 89l22 33l110 -62l121 64l17 -33l-135 -91h-21zM25 64h73l55 522h-83l7 64h134l309 -502h3l45 438h-94l6 64h242l-6 -64h-80l-61 -586h-45l-314 512h-3l-48 -448h102l-6 -64h-243z" />
    <glyph glyph-name="uni0148" unicode="&#x148;" horiz-adv-x="523" 
d="M282 519l-105 117l29 31l95 -82l111 85l23 -32l-131 -119h-22zM55 445h114l-1 -86q24 43 61 69t89 26q64 0 101 -40t27 -129l-28 -228h75l-5 -40l-21 -17h-123l32 264q8 72 -15 102.5t-71 30.5q-54 0 -87.5 -37.5t-42.5 -85.5l-34 -274h-67l47 388h-78l5 38z" />
    <glyph glyph-name="uni0149" unicode="&#x149;" horiz-adv-x="523" 
d="M41 509l68 197h62l-68 -197h-62zM55 445h114l-1 -86q24 43 61 69t89 26q64 0 101 -40t27 -129l-28 -228h75l-5 -40l-21 -17h-123l32 264q8 72 -15 102.5t-71 30.5q-54 0 -87.5 -37.5t-42.5 -85.5l-34 -274h-67l47 388h-78l5 38z" />
    <glyph glyph-name="uni014A" unicode="&#x14a;" horiz-adv-x="714" 
d="M260 0h-243l7 64h74l54 522h-82l6 64h135l308 -502h3l45 438h-94l7 64h241l-6 -64h-80l-63 -608q-8 -86 -56.5 -131.5t-126.5 -45.5q-63 0 -98 27.5t-51 72.5l56 39q17 -40 39 -55t55 -15q53 0 80 30.5t30 76.5l6 59l-291 476h-3l-48 -448h102z" />
    <glyph glyph-name="uni014B" unicode="&#x14b;" horiz-adv-x="510" 
d="M409 -26q-25 -195 -142 -197q-38 0 -74 18l3 51q51 -21 90.5 -0.5t53.5 128.5l36 290q8 72 -15 102.5t-71 30.5q-54 0 -87.5 -38.5t-42.5 -85.5l-34 -273h-67l47 388h-78l5 38l22 19h114l-1 -86q24 43 61 69t89 26q64 0 101 -40t27 -129z" />
    <glyph glyph-name="uni014C" unicode="&#x14c;" horiz-adv-x="710" 
d="M279 790h273l-6 -57h-273zM393 660q132 0 208.5 -88t76.5 -213q0 -100 -46 -184t-125.5 -134.5t-181.5 -50.5q-133 0 -208 88t-75 213q0 101 46.5 185t126 134t178.5 50zM336 56q123 0 194.5 90t71.5 208q0 105 -56.5 172.5t-160.5 67.5q-119 0 -193 -88t-74 -209
q0 -97 53 -169t165 -72z" />
    <glyph glyph-name="uni014D" unicode="&#x14d;" horiz-adv-x="481" 
d="M168 621h240l-6 -57h-240zM31 189q0 105 58 185t171 80q96 0 136.5 -59t40.5 -143q0 -111 -60.5 -186.5t-168.5 -75.5q-91 0 -134 55t-43 144zM105 193q0 -65 23.5 -105.5t86.5 -40.5q78 0 113.5 60.5t35.5 142.5q0 65 -24 106t-88 41q-73 0 -110 -57t-37 -147z" />
    <glyph glyph-name="uni014E" unicode="&#x14e;" horiz-adv-x="710" 
d="M481 816h58q-7 -62 -41.5 -89.5t-91.5 -27.5q-119 0 -107 117h58q-5 -39 9.5 -54t44.5 -15q63 0 70 69zM393 660q132 0 208.5 -88t76.5 -213q0 -100 -46 -184t-125.5 -134.5t-181.5 -50.5q-133 0 -208 88t-75 213q0 101 46.5 185t126 134t178.5 50zM336 56
q123 0 194.5 90t71.5 208q0 105 -56.5 172.5t-160.5 67.5q-119 0 -193 -88t-74 -209q0 -97 53 -169t165 -72z" />
    <glyph glyph-name="uni014F" unicode="&#x14f;" horiz-adv-x="481" 
d="M346 655h58q-13 -123 -133 -123t-106 123h58q-10 -75 54 -75q62 0 69 75zM31 189q0 105 58 185t171 80q96 0 136.5 -59t40.5 -143q0 -111 -60.5 -186.5t-168.5 -75.5q-91 0 -134 55t-43 144zM105 193q0 -65 23.5 -105.5t86.5 -40.5q78 0 113.5 60.5t35.5 142.5
q0 65 -24 106t-88 41q-73 0 -110 -57t-37 -147z" />
    <glyph glyph-name="uni0150" unicode="&#x150;" horiz-adv-x="710" 
d="M494 834l-166 -130l-24 25l148 153zM633 745l-197 -42l-8 36l190 73zM393 660q132 0 208.5 -88t76.5 -213q0 -100 -46 -184t-125.5 -134.5t-181.5 -50.5q-133 0 -208 88t-75 213q0 101 46.5 185t126 134t178.5 50zM336 56q123 0 194.5 90t71.5 208q0 105 -56.5 172.5
t-160.5 67.5q-119 0 -193 -88t-74 -209q0 -97 53 -169t165 -72z" />
    <glyph glyph-name="uni0151" unicode="&#x151;" horiz-adv-x="480" 
d="M347 678l-140 -159l-29 22l116 177zM494 624l-180 -104l-18 31l165 132zM31 189q0 105 58 185t171 80q96 0 136.5 -59t40.5 -143q0 -111 -60.5 -186.5t-168.5 -75.5q-91 0 -134 55t-43 144zM105 193q0 -65 23.5 -105.5t86.5 -40.5q78 0 113.5 60.5t35.5 142.5
q0 65 -24 106t-88 41q-73 0 -110 -57t-37 -147z" />
    <glyph glyph-name="uni0152" unicode="&#x152;" horiz-adv-x="979" 
d="M890 0h-395l4 38q-36 -22 -78.5 -35t-91.5 -13q-133 0 -210 91t-77 217q0 101 45.5 183t126 130.5t183.5 48.5q49 0 89 -13t73 -36l4 39h390v-184l-62 -7l-6 127h-256l-25 -224h301l-6 -64h-301l-25 -234h261l33 127l60 -7zM340 56q102 0 167 60l44 418q-60 60 -159 60
q-128 0 -200.5 -87t-72.5 -205q0 -100 55.5 -173t165.5 -73z" />
    <glyph glyph-name="uni0153" unicode="&#x153;" horiz-adv-x="768" 
d="M31 189q0 105 58 185t171 80q60 0 98 -25t57 -65q29 41 73 65.5t99 24.5q59 0 101 -29.5t42 -81.5q0 -49 -37 -84t-122 -53q-31 -6 -65.5 -12.5t-70.5 -11.5q1 -63 25.5 -99t83.5 -36q46 0 75.5 24.5t45.5 65.5l55 -13q-14 -56 -62 -95t-125 -39q-108 0 -149 84
q-30 -39 -74.5 -61.5t-101.5 -22.5q-91 0 -134 55t-43 144zM542 248q76 17 95.5 41t19.5 48q0 34 -21.5 48t-55.5 14q-70 0 -103 -52t-40 -115q35 4 60 8t45 8zM105 193q0 -65 23.5 -105.5t86.5 -40.5q78 0 113.5 60.5t35.5 142.5q0 65 -24 106t-88 41q-73 0 -110 -57
t-37 -147z" />
    <glyph glyph-name="uni0154" unicode="&#x154;" horiz-adv-x="598" 
d="M489 745l-202 -42l-9 37l195 73zM19 64h79l55 522h-79l7 64h265q107 0 157.5 -47t50.5 -118q0 -156 -157 -197l91 -224h80l-8 -64h-126l-106 272h-138l-22 -208h86l-6 -64h-235zM312 333q90 0 128.5 42t38.5 104q0 107 -149 107h-107l-26 -253h115z" />
    <glyph glyph-name="uni0155" unicode="&#x155;" horiz-adv-x="343" 
d="M394 624l-182 -104l-18 31l165 132zM231 18l-21 -18h-211l5 38l21 19h50l41 331h-77l5 38l21 19h111l-2 -101q19 44 48 77.5t70 33.5q28 0 54 -17l-13 -71q-27 15 -53 15q-42 0 -71 -39t-40 -87l-26 -199h93z" />
    <glyph glyph-name="uni0156" unicode="&#x156;" horiz-adv-x="598" 
d="M19 64h79l55 522h-79l7 64h265q107 0 157.5 -47t50.5 -118q0 -156 -157 -197l91 -224h80l-8 -64h-126l-106 272h-138l-22 -208h86l-6 -64h-235zM312 333q90 0 128.5 42t38.5 104q0 107 -149 107h-107l-26 -253h115zM334 -64l-34 -154h-56l24 154h66z" />
    <glyph glyph-name="uni0157" unicode="&#x157;" horiz-adv-x="343" 
d="M231 18l-21 -18h-211l5 38l21 19h50l41 331h-77l5 38l21 19h111l-2 -101q19 44 48 77.5t70 33.5q28 0 54 -17l-13 -71q-27 15 -53 15q-42 0 -71 -39t-40 -87l-26 -199h93zM126 -64l-34 -154h-56l24 154h66z" />
    <glyph glyph-name="uni0158" unicode="&#x158;" horiz-adv-x="598" 
d="M319 701l-114 89l22 33l110 -62l121 64l17 -33l-135 -91h-21zM19 64h79l55 522h-79l7 64h265q107 0 157.5 -47t50.5 -118q0 -156 -157 -197l91 -224h80l-8 -64h-126l-106 272h-138l-22 -208h86l-6 -64h-235zM312 333q90 0 128.5 42t38.5 104q0 107 -149 107h-107
l-26 -253h115z" />
    <glyph glyph-name="uni0159" unicode="&#x159;" horiz-adv-x="343" 
d="M220 519l-105 117l29 31l95 -82l111 85l23 -32l-131 -119h-22zM231 18l-21 -18h-211l5 38l21 19h50l41 331h-77l5 38l21 19h111l-2 -101q19 44 48 77.5t70 33.5q28 0 54 -17l-13 -71q-27 15 -53 15q-42 0 -71 -39t-40 -87l-26 -199h93z" />
    <glyph glyph-name="uni015A" unicode="&#x15a;" horiz-adv-x="523" 
d="M444 745l-202 -42l-9 37l195 73zM468 194q0 -98 -62.5 -151t-177.5 -53q-62 0 -119 14.5t-85 38.5l26 128l57 -6l-11 -82q28 -16 64.5 -22.5t67.5 -6.5q72 0 117.5 30.5t45.5 100.5q0 71 -43.5 90t-100.5 33q-61 14 -116.5 46t-55.5 120q0 98 70 142t151 44q52 0 105 -15
t79 -39l-7 -129l-60 -6v97q-29 16 -59.5 21.5t-54.5 5.5q-68 0 -108 -30t-40 -85q0 -56 38 -75t91 -33q75 -18 131.5 -49t56.5 -129z" />
    <glyph glyph-name="uni015B" unicode="&#x15b;" horiz-adv-x="418" 
d="M389 624l-182 -104l-18 31l165 132zM181 47q108 0 108 77q0 41 -32.5 55.5t-84.5 28.5q-44 11 -80.5 33t-36.5 80q0 66 48 99.5t111 33.5q45 0 86 -12t68 -29l-2 -104l-55 -7l-4 71q-19 10 -39.5 17t-47.5 7q-94 0 -94 -69q0 -30 23 -44t72 -27q46 -12 92.5 -35t46.5 -92
q0 -65 -47 -102.5t-122 -37.5q-46 0 -95.5 12.5t-75.5 31.5l24 101l55 -6l-10 -62q39 -20 92 -20z" />
    <glyph glyph-name="uni015C" unicode="&#x15c;" horiz-adv-x="523" 
d="M326 825l113 -89l-21 -34l-111 62l-120 -63l-18 32l136 92h21zM468 194q0 -98 -62.5 -151t-177.5 -53q-62 0 -119 14.5t-85 38.5l26 128l57 -6l-11 -82q28 -16 64.5 -22.5t67.5 -6.5q72 0 117.5 30.5t45.5 100.5q0 71 -43.5 90t-100.5 33q-61 14 -116.5 46t-55.5 120
q0 98 70 142t151 44q52 0 105 -15t79 -39l-7 -129l-60 -6v97q-29 16 -59.5 21.5t-54.5 5.5q-68 0 -108 -30t-40 -85q0 -56 38 -75t91 -33q75 -18 131.5 -49t56.5 -129z" />
    <glyph glyph-name="uni015D" unicode="&#x15d;" horiz-adv-x="418" 
d="M256 671l106 -121l-29 -31l-97 86l-110 -86l-24 31l132 121h22zM181 47q108 0 108 77q0 41 -32.5 55.5t-84.5 28.5q-44 11 -80.5 33t-36.5 80q0 66 48 99.5t111 33.5q45 0 86 -12t68 -29l-2 -104l-55 -7l-4 71q-19 10 -39.5 17t-47.5 7q-94 0 -94 -69q0 -30 23 -44
t72 -27q46 -12 92.5 -35t46.5 -92q0 -65 -47 -102.5t-122 -37.5q-46 0 -95.5 12.5t-75.5 31.5l24 101l55 -6l-10 -62q39 -20 92 -20z" />
    <glyph glyph-name="uni015E" unicode="&#x15e;" horiz-adv-x="523" 
d="M468 194q0 -92 -55 -144t-156 -59l-4 -38h8q79 0 79 -72q0 -47 -35 -68.5t-81 -21.5q-58 0 -90 30l21 41q27 -23 70 -23q55 0 55 44q0 23 -14.5 30t-38.5 7h-29l9 71q-56 2 -106.5 15.5t-76.5 36.5l26 128l57 -6l-11 -82q28 -16 64.5 -22.5t67.5 -6.5q72 0 117.5 30.5
t45.5 100.5q0 71 -43.5 90t-100.5 33q-61 14 -116.5 46t-55.5 120q0 98 70 142t151 44q52 0 105 -15t79 -39l-7 -129l-60 -6v97q-29 16 -59.5 21.5t-54.5 5.5q-68 0 -108 -30t-40 -85q0 -56 38 -75t91 -33q75 -18 131.5 -49t56.5 -129z" />
    <glyph glyph-name="uni015F" unicode="&#x15f;" horiz-adv-x="418" 
d="M181 47q108 0 108 77q0 41 -32.5 55.5t-84.5 28.5q-44 11 -80.5 33t-36.5 80q0 66 48 99.5t111 33.5q45 0 86 -12t68 -29l-2 -104l-55 -7l-4 71q-19 10 -39.5 17t-47.5 7q-94 0 -94 -69q0 -30 23 -44t72 -27q46 -12 92.5 -35t46.5 -92q0 -63 -43.5 -99.5t-113.5 -39.5
l-4 -38h8q79 0 79 -72q0 -47 -35 -68.5t-81 -21.5q-58 0 -90 30l21 41q27 -23 70 -23q55 0 55 44q0 23 -14.5 30t-38.5 7h-29l9 72q-39 4 -75.5 15.5t-57.5 26.5l24 101l55 -6l-10 -62q39 -20 92 -20z" />
    <glyph glyph-name="uni0160" unicode="&#x160;" horiz-adv-x="523" 
d="M285 701l-114 89l22 33l110 -62l121 64l17 -33l-135 -91h-21zM468 194q0 -98 -62.5 -151t-177.5 -53q-62 0 -119 14.5t-85 38.5l26 128l57 -6l-11 -82q28 -16 64.5 -22.5t67.5 -6.5q72 0 117.5 30.5t45.5 100.5q0 71 -43.5 90t-100.5 33q-61 14 -116.5 46t-55.5 120
q0 98 70 142t151 44q52 0 105 -15t79 -39l-7 -129l-60 -6v97q-29 16 -59.5 21.5t-54.5 5.5q-68 0 -108 -30t-40 -85q0 -56 38 -75t91 -33q75 -18 131.5 -49t56.5 -129z" />
    <glyph glyph-name="uni0161" unicode="&#x161;" horiz-adv-x="418" 
d="M217 519l-105 117l29 31l95 -82l111 85l23 -32l-131 -119h-22zM181 47q108 0 108 77q0 41 -32.5 55.5t-84.5 28.5q-44 11 -80.5 33t-36.5 80q0 66 48 99.5t111 33.5q45 0 86 -12t68 -29l-2 -104l-55 -7l-4 71q-19 10 -39.5 17t-47.5 7q-94 0 -94 -69q0 -30 23 -44t72 -27
q46 -12 92.5 -35t46.5 -92q0 -65 -47 -102.5t-122 -37.5q-46 0 -95.5 12.5t-75.5 31.5l24 101l55 -6l-10 -62q39 -20 92 -20z" />
    <glyph glyph-name="uni0162" unicode="&#x162;" horiz-adv-x="606" 
d="M599 452l-64 -5l-5 139h-159l-55 -522h112l-6 -64h-293l7 64h109l55 522h-161l-34 -139l-63 5l39 198h520zM300 -64l-34 -154h-56l24 154h66z" />
    <glyph glyph-name="uni0163" unicode="&#x163;" horiz-adv-x="342" 
d="M28 425l23 20h55l14 120l24 23h47l-18 -143h152l-5 -36l-23 -21h-131l-30 -251q-10 -90 55 -90q22 0 40.5 14.5t34.5 70.5l50 -17q-17 -65 -47.5 -95t-85.5 -30q-62 0 -92.5 38t-22.5 103l31 257h-76zM208 -64l-34 -154h-56l24 154h66z" />
    <glyph glyph-name="uni0164" unicode="&#x164;" horiz-adv-x="606" 
d="M331 701l-114 89l22 33l110 -62l121 64l17 -33l-135 -91h-21zM599 452l-64 -5l-5 139h-159l-55 -522h112l-6 -64h-293l7 64h109l55 522h-161l-34 -139l-63 5l39 198h520z" />
    <glyph glyph-name="uni0165" unicode="&#x165;" horiz-adv-x="342" 
d="M376 761l-45 -224h-56l36 224h65zM28 425l23 20h55l14 120l24 23h47l-18 -143h152l-5 -36l-23 -21h-131l-30 -251q-10 -90 55 -90q22 0 40.5 14.5t34.5 70.5l50 -17q-17 -65 -47.5 -95t-85.5 -30q-62 0 -92.5 38t-22.5 103l31 257h-76z" />
    <glyph glyph-name="uni0166" unicode="&#x166;" horiz-adv-x="609" 
d="M600 452l-64 -5l-5 139h-159l-28 -261h147l-5 -47h-147l-22 -214h112l-6 -64h-293l7 64h109l22 214h-148l5 47h148l28 261h-161l-34 -139l-63 5l39 198h520z" />
    <glyph glyph-name="uni0167" unicode="&#x167;" horiz-adv-x="345" 
d="M30 425l23 20h54l15 120l24 23h47l-18 -143h152l-5 -36l-23 -21h-131l-13 -110h153l-5 -25l-22 -20h-132l-11 -96q-10 -90 55 -90q22 0 40.5 14.5t34.5 70.5l50 -17q-17 -65 -47.5 -95t-85.5 -30q-62 0 -92.5 38t-22.5 103l12 102h-69l4 25l23 20h47l13 110h-75z" />
    <glyph glyph-name="uni0168" unicode="&#x168;" horiz-adv-x="696" 
d="M292 705l-31 13q7 26 29 54t60 28q33 0 56 -17.5t58 -17.5q13 0 26 7t24 35l34 -9q-10 -40 -30 -64.5t-55 -24.5q-37 0 -63 17.5t-54 17.5q-14 0 -29 -7.5t-25 -31.5zM482 650h217l-6 -64h-62l-33 -319q-8 -69 -35 -132.5t-84 -104t-155 -40.5q-141 0 -189.5 80.5
t-37.5 185.5l35 330h-65l6 64h225l-8 -64h-87l-34 -328q-10 -96 29 -149t133 -53q177 0 200 211l33 319h-89z" />
    <glyph glyph-name="uni0169" unicode="&#x169;" horiz-adv-x="522" 
d="M180 549l-32 12q6 26 29 57t61 31q32 0 55 -18.5t58 -18.5q13 0 26 8t23 35l35 -9q-11 -40 -31 -66.5t-54 -26.5q-38 0 -63.5 19.5t-52.5 19.5q-14 0 -29 -9.5t-25 -33.5zM483 57l-5 -38l-22 -19h-115l1 85q-23 -43 -59 -68.5t-88 -25.5q-64 0 -101 40.5t-27 128.5
l28 228h-75l5 40l22 17h123l-32 -265q-9 -71 12.5 -101.5t72.5 -30.5q53 0 84.5 35t41.5 81l35 281h68l-47 -388h78z" />
    <glyph glyph-name="uni016A" unicode="&#x16a;" horiz-adv-x="696" 
d="M269 790h273l-6 -57h-273zM482 650h217l-6 -64h-62l-33 -319q-8 -69 -35 -132.5t-84 -104t-155 -40.5q-141 0 -189.5 80.5t-37.5 185.5l35 330h-65l6 64h225l-8 -64h-87l-34 -328q-10 -96 29 -149t133 -53q177 0 200 211l33 319h-89z" />
    <glyph glyph-name="uni016B" unicode="&#x16b;" horiz-adv-x="522" 
d="M173 621h240l-6 -57h-240zM483 57l-5 -38l-22 -19h-115l1 85q-23 -43 -59 -68.5t-88 -25.5q-64 0 -101 40.5t-27 128.5l28 228h-75l5 40l22 17h123l-32 -265q-9 -71 12.5 -101.5t72.5 -30.5q53 0 84.5 35t41.5 81l35 281h68l-47 -388h78z" />
    <glyph glyph-name="uni016C" unicode="&#x16c;" horiz-adv-x="696" 
d="M467 816h58q-7 -62 -41.5 -89.5t-91.5 -27.5q-119 0 -107 117h58q-5 -39 9.5 -54t44.5 -15q63 0 70 69zM482 650h217l-6 -64h-62l-33 -319q-8 -69 -35 -132.5t-84 -104t-155 -40.5q-141 0 -189.5 80.5t-37.5 185.5l35 330h-65l6 64h225l-8 -64h-87l-34 -328
q-10 -96 29 -149t133 -53q177 0 200 211l33 319h-89z" />
    <glyph glyph-name="uni016D" unicode="&#x16d;" horiz-adv-x="522" 
d="M351 655h58q-13 -123 -133 -123t-106 123h58q-10 -75 54 -75q62 0 69 75zM483 57l-5 -38l-22 -19h-115l1 85q-23 -43 -59 -68.5t-88 -25.5q-64 0 -101 40.5t-27 128.5l28 228h-75l5 40l22 17h123l-32 -265q-9 -71 12.5 -101.5t72.5 -30.5q53 0 84.5 35t41.5 81l35 281h68
l-47 -388h78z" />
    <glyph glyph-name="uni016E" unicode="&#x16e;" horiz-adv-x="696" 
d="M393 690q-88 0 -88 82q0 45 29 73.5t80 28.5q87 0 87 -81q0 -43 -27.5 -73t-80.5 -30zM397 730q28 0 41.5 17t13.5 43q0 44 -43 44q-55 0 -55 -60q0 -44 43 -44zM482 650h217l-6 -64h-62l-33 -319q-8 -69 -35 -132.5t-84 -104t-155 -40.5q-141 0 -189.5 80.5t-37.5 185.5
l35 330h-65l6 64h225l-8 -64h-87l-34 -328q-10 -96 29 -149t133 -53q177 0 200 211l33 319h-89z" />
    <glyph glyph-name="uni016F" unicode="&#x16f;" horiz-adv-x="522" 
d="M278 514q-43 0 -64.5 22.5t-21.5 58.5q0 46 29 74.5t79 28.5q42 0 64.5 -22.5t22.5 -58.5q0 -41 -28 -72t-81 -31zM283 554q56 0 56 60q0 18 -9.5 31t-34.5 13q-54 0 -54 -60q0 -44 42 -44zM483 57l-5 -38l-22 -19h-115l1 85q-23 -43 -59 -68.5t-88 -25.5
q-64 0 -101 40.5t-27 128.5l28 228h-75l5 40l22 17h123l-32 -265q-9 -71 12.5 -101.5t72.5 -30.5q53 0 84.5 35t41.5 81l35 281h68l-47 -388h78z" />
    <glyph glyph-name="uni0170" unicode="&#x170;" horiz-adv-x="696" 
d="M474 834l-166 -130l-24 25l148 153zM613 745l-197 -42l-8 36l190 73zM482 650h217l-6 -64h-62l-33 -319q-8 -69 -35 -132.5t-84 -104t-155 -40.5q-141 0 -189.5 80.5t-37.5 185.5l35 330h-65l6 64h225l-8 -64h-87l-34 -328q-10 -96 29 -149t133 -53q177 0 200 211l33 319
h-89z" />
    <glyph glyph-name="uni0171" unicode="&#x171;" horiz-adv-x="522" 
d="M343 678l-140 -159l-29 22l116 177zM490 624l-180 -104l-18 31l165 132zM483 57l-5 -38l-22 -19h-115l1 85q-23 -43 -59 -68.5t-88 -25.5q-64 0 -101 40.5t-27 128.5l28 228h-75l5 40l22 17h123l-32 -265q-9 -71 12.5 -101.5t72.5 -30.5q53 0 84.5 35t41.5 81l35 281h68
l-47 -388h78z" />
    <glyph glyph-name="uni0172" unicode="&#x172;" horiz-adv-x="697" 
d="M74 650h225l-8 -64h-87l-34 -328q-10 -96 29 -149t133 -53q177 0 200 211l33 319h-89l7 64h217l-6 -64h-62l-33 -319q-10 -91 -55.5 -171t-153.5 -100q-39 -25 -53 -52t-14 -50q0 -49 52 -49q28 0 55 15l3 -49q-38 -20 -80 -20q-93 0 -93 83q0 35 19.5 65.5t48.5 50.5h-3
q-141 0 -189.5 80.5t-37.5 185.5l35 330h-65z" />
    <glyph glyph-name="uni0173" unicode="&#x173;" horiz-adv-x="524" 
d="M342 0l1 85q-23 -43 -59 -68.5t-88 -25.5q-64 0 -101 40.5t-27 128.5l28 228h-75l5 40l22 17h123l-32 -265q-9 -71 12.5 -101.5t72.5 -30.5q52 0 84 35t42 81l35 281h68l-47 -388h78l-5 -38l-22 -19h-31q-44 -25 -59 -53t-15 -53q0 -49 52 -49q28 0 55 15l3 -49
q-38 -20 -80 -20q-93 0 -93 83q0 40 24.5 73t59.5 53h-31z" />
    <glyph glyph-name="uni0174" unicode="&#x174;" horiz-adv-x="909" 
d="M528 825l113 -89l-21 -34l-111 62l-120 -63l-18 32l136 92h21zM936 586h-54l-230 -586h-58l-109 520h-5l-216 -520h-59l-117 586h-54l6 64h218l-7 -64h-90l85 -466h5l195 466h-64l7 64h218l-7 -64h-64l97 -469h6l170 469h-90l7 64h216z" />
    <glyph glyph-name="uni0175" unicode="&#x175;" horiz-adv-x="714" 
d="M415 671l106 -121l-29 -31l-97 86l-110 -86l-24 31l132 121h22zM488 82h4q115 139 115 272q0 51 -16 91h78q14 -69 2.5 -137t-53.5 -136q-22 -39 -61 -87t-78 -85h-35l-76 335h-4l-157 -335h-41l-101 388h-51l5 38l22 19h189l-5 -39l-21 -18h-67l65 -280h4l155 337h46z
" />
    <glyph glyph-name="uni0176" unicode="&#x176;" horiz-adv-x="597" 
d="M373 825l113 -89l-21 -34l-111 62l-120 -63l-18 32l136 92h21zM259 586h-87l133 -270h5l182 270h-87l7 64h221l-6 -64h-62l-232 -337l-20 -185h111l-7 -64h-289l6 64h108l20 185l-169 337h-63l7 64h229z" />
    <glyph glyph-name="uni0177" unicode="&#x177;" horiz-adv-x="468" 
d="M292 671l106 -121l-29 -31l-97 86l-110 -86l-24 31l132 121h22zM231 82h6q128 143 128 270q0 49 -18 93h80q15 -63 4.5 -128t-52.5 -132q-22 -35 -57.5 -79t-75.5 -85l-24 -177h77l-4 -39l-21 -18h-202l5 38l21 19h56l25 179l-109 365h-57l5 38l21 19h191l-5 -39l-21 -18
h-62z" />
    <glyph glyph-name="uni0178" unicode="&#x178;" horiz-adv-x="597" 
d="M387 718l9 85h79l-8 -85h-80zM220 718l8 85h79l-9 -85h-78zM627 586h-62l-232 -337l-20 -185h111l-7 -64h-289l6 64h108l20 185l-169 337h-63l7 64h229l-7 -64h-87l133 -270h5l182 270h-87l7 64h221z" />
    <glyph glyph-name="uni0179" unicode="&#x179;" horiz-adv-x="563" 
d="M478 745l-202 -42l-9 37l195 73zM480 0h-475l1 44l431 539v3h-277l-41 -133l-59 9l44 188h434l5 -40l-433 -543l-1 -3h313l42 138l61 -9z" />
    <glyph glyph-name="uni017A" unicode="&#x17a;" horiz-adv-x="449" 
d="M403 624l-182 -104l-18 31l165 132zM372 0h-356l-9 43l318 345h-202l-22 -89l-55 7l27 139h328l13 -42l-314 -346h222l33 90l55 -9z" />
    <glyph glyph-name="uni017B" unicode="&#x17b;" horiz-adv-x="563" 
d="M289 718l8 85h79l-8 -85h-79zM480 0h-475l1 44l431 539v3h-277l-41 -133l-59 9l44 188h434l5 -40l-433 -543l-1 -3h313l42 138l61 -9z" />
    <glyph glyph-name="uni017C" unicode="&#x17c;" horiz-adv-x="449" 
d="M220 553l9 91h74l-9 -91h-74zM372 0h-356l-9 43l318 345h-202l-22 -89l-55 7l27 139h328l13 -42l-314 -346h222l33 90l55 -9z" />
    <glyph glyph-name="uni017D" unicode="&#x17d;" horiz-adv-x="563" 
d="M308 701l-114 89l22 33l110 -62l121 64l17 -33l-135 -91h-21zM480 0h-475l1 44l431 539v3h-277l-41 -133l-59 9l44 188h434l5 -40l-433 -543l-1 -3h313l42 138l61 -9z" />
    <glyph glyph-name="uni017E" unicode="&#x17e;" horiz-adv-x="449" 
d="M241 519l-105 117l29 31l95 -82l111 85l23 -32l-131 -119h-22zM372 0h-356l-9 43l318 345h-202l-22 -89l-55 7l27 139h328l13 -42l-314 -346h222l33 90l55 -9z" />
    <glyph glyph-name="uni018F" unicode="&#x18f;" horiz-adv-x="672" 
d="M135 435l-57 7l24 136q49 36 116 59t139 23q143 0 212 -86t69 -212q0 -96 -38 -181t-113 -138t-186 -53q-129 0 -201 77t-58 215l7 64h512q5 111 -49 179.5t-164 68.5q-103 0 -189 -53zM556 288h-435l-1 -6q-12 -86 30.5 -156t160.5 -70q115 0 172.5 69t72.5 163z" />
    <glyph glyph-name="uni0192" unicode="&#x192;" horiz-adv-x="377" 
d="M50 272h78l18 109q24 148 173 148q12 0 31 -1t34 -3l-6 -52q-16 2 -31 4t-29 2q-42 0 -68.5 -20.5t-35.5 -79.5l-17 -107h115l-5 -46h-118l-33 -208q-8 -49 -35 -89.5t-103 -40.5q-14 0 -43 4l5 50q12 -3 23.5 -3.5t19.5 -0.5q31 0 44.5 19t21.5 72l32 197h-76z" />
    <glyph glyph-name="uni01C4" unicode="&#x1c4;" horiz-adv-x="1248" 
d="M994 701l-114 89l22 33l110 -62l121 64l17 -33l-135 -91h-21zM362 650q143 0 217 -81t74 -208q0 -155 -96.5 -258t-259.5 -103h-285l7 63h79l55 524h-79l6 63h282zM1166 0h-475l1 44l431 539v3h-277l-41 -133l-59 9l44 188h434l5 -40l-433 -543l-1 -3h313l42 138l61 -9z
M300 63q130 0 204.5 81.5t74.5 210.5q0 106 -57 169t-167 63h-132l-55 -524h132z" />
    <glyph glyph-name="uni01C5" unicode="&#x1c5;" horiz-adv-x="1134" 
d="M927 519l-105 117l29 31l95 -82l111 85l23 -32l-131 -119h-22zM362 650q143 0 217 -81t74 -208q0 -155 -96.5 -258t-259.5 -103h-285l7 63h79l55 524h-79l6 63h282zM300 63q130 0 204.5 81.5t74.5 210.5q0 106 -57 169t-167 63h-132l-55 -524h132zM1058 0h-356l-9 43
l318 345h-202l-22 -89l-55 7l27 139h328l13 -42l-314 -346h222l33 90l55 -9z" />
    <glyph glyph-name="uni01C6" unicode="&#x1c6;" horiz-adv-x="959" 
d="M305 670l21 18h153l-78 -631h76l-4 -40l-22 -17h-114l2 91q-24 -41 -62.5 -71t-96.5 -30q-73 0 -111 51t-38 135q0 58 21 123t67.5 110t123.5 45q96 0 129 -74l31 251h-102zM752 519l-105 117l29 31l95 -82l111 85l23 -32l-131 -119h-22zM882 0h-356l-9 43l318 345h-202
l-22 -89l-55 7l27 139h328l13 -42l-314 -346h222l33 90l55 -9zM250 397q-55 0 -87 -33.5t-45.5 -82.5t-13.5 -96q0 -138 98 -138q57 0 97 48.5t50 95.5l12 96q-2 48 -33.5 79t-77.5 31z" />
    <glyph glyph-name="uni01C7" unicode="&#x1c7;" horiz-adv-x="969" 
d="M468 0h-456l6 64h80l55 522h-80l7 64h257l-6 -64h-107l-55 -522h242l35 149l63 -5zM706 650h266l-6 -64h-70l-44 -420q-9 -88 -57 -132t-124 -44q-63 0 -97 27.5t-50 71.5l55 40q17 -41 39 -55.5t54 -14.5q51 0 77.5 29t31.5 78l44 420h-125z" />
    <glyph glyph-name="uni01C8" unicode="&#x1c8;" horiz-adv-x="772" 
d="M656 560l9 91h74l-10 -91h-73zM468 0h-456l6 64h80l55 522h-80l7 64h257l-6 -64h-107l-55 -522h242l35 149l63 -5zM551 426l22 19h147l-57 -463q-24 -199 -137 -205q-22 -1 -41.5 4.5t-37.5 13.5l3 51q52 -21 92 3.5t53 132.5l50 406h-99z" />
    <glyph glyph-name="uni01C9" unicode="&#x1c9;" horiz-adv-x="484" 
d="M52 669l20 19h127l-77 -631h74l-5 -40l-21 -17h-123l77 631h-77zM368 560l9 91h74l-10 -91h-73zM263 426l22 19h147l-57 -463q-24 -199 -137 -205q-22 -1 -41.5 4.5t-37.5 13.5l3 51q52 -21 92 3.5t53 132.5l50 406h-99z" />
    <glyph glyph-name="uni01CA" unicode="&#x1ca;" horiz-adv-x="1150" 
d="M25 64h73l55 522h-83l7 64h134l309 -502h3l45 438h-94l6 64h242l-6 -64h-80l-61 -586h-45l-314 512h-3l-48 -448h102l-6 -64h-243zM887 650h266l-6 -64h-70l-44 -420q-9 -88 -57 -132t-124 -44q-63 0 -97 27.5t-50 71.5l55 40q16 -41 38.5 -55.5t54.5 -14.5q51 0 77.5 29
t31.5 78l44 420h-125z" />
    <glyph glyph-name="uni01CB" unicode="&#x1cb;" horiz-adv-x="960" 
d="M844 560l9 91h74l-10 -91h-73zM25 64h73l55 522h-83l7 64h134l309 -502h3l45 438h-94l6 64h242l-6 -64h-80l-61 -586h-45l-314 512h-3l-48 -448h102l-6 -64h-243zM739 426l22 19h147l-57 -463q-24 -199 -137 -205q-22 -1 -41.5 4.5t-37.5 13.5l3 51q52 -21 92 3.5
t53 132.5l50 406h-99z" />
    <glyph glyph-name="uni01CC" unicode="&#x1cc;" horiz-adv-x="767" 
d="M651 560l9 91h74l-10 -91h-73zM55 445h114l-1 -86q24 43 61 69t89 26q64 0 101 -40t27 -129l-28 -228h75l-5 -40l-21 -17h-123l32 264q8 72 -15 102.5t-71 30.5q-54 0 -87.5 -37.5t-42.5 -85.5l-34 -274h-67l47 388h-78l5 38zM546 426l22 19h147l-57 -463
q-24 -199 -137 -205q-22 -1 -41.5 4.5t-37.5 13.5l3 51q52 -21 91.5 3.5t53.5 132.5l50 406h-99z" />
    <glyph glyph-name="uni01D3" unicode="&#x1d3;" horiz-adv-x="696" 
d="M382 701l-114 89l22 33l110 -62l121 64l17 -33l-135 -91h-21zM482 650h217l-6 -64h-62l-33 -319q-8 -69 -35 -132.5t-84 -104t-155 -40.5q-141 0 -189.5 80.5t-37.5 185.5l35 330h-65l6 64h225l-8 -64h-87l-34 -328q-10 -96 29 -149t133 -53q177 0 200 211l33 319h-89z
" />
    <glyph glyph-name="uni01D4" unicode="&#x1d4;" horiz-adv-x="522" 
d="M269 519l-105 117l29 31l95 -82l111 85l23 -32l-131 -119h-22zM483 57l-5 -38l-22 -19h-115l1 85q-23 -43 -59 -68.5t-88 -25.5q-64 0 -101 40.5t-27 128.5l28 228h-75l5 40l22 17h123l-32 -265q-9 -71 12.5 -101.5t72.5 -30.5q53 0 84.5 35t41.5 81l35 281h68l-47 -388
h78z" />
    <glyph glyph-name="uni01E2" unicode="&#x1e2;" horiz-adv-x="904" 
d="M547 790h273l-6 -57h-273zM812 0h-473l6 64h79l14 125h-255l-73 -125h88l-7 -64h-224l6 64h64l309 522h-95l6 64h615l-1 -183l-62 -8l-6 127h-251l-24 -224h299l-6 -64h-299l-25 -234h259l34 127l61 -7zM444 246l35 340h-65l-198 -340h228z" />
    <glyph glyph-name="uni01E3" unicode="&#x1e3;" horiz-adv-x="705" 
d="M279 621h240l-6 -57h-240zM226 400q-22 0 -42 -6t-41 -16l-25 -77l-55 7l26 103q34 24 74 33.5t79 9.5q97 0 128 -67q62 67 153 67q60 0 102 -29t42 -85q0 -46 -36.5 -81t-121.5 -53q-30 -6 -65 -12t-72 -10q1 -64 25.5 -100.5t82.5 -36.5q47 0 76.5 24.5t44.5 65.5
l56 -13q-14 -56 -62 -95t-126 -39q-117 0 -155 97q-22 -37 -63 -67t-99 -30q-46 0 -87.5 25.5t-41.5 91.5q0 83 66.5 112.5t142.5 29.5q16 0 36 -1t36 -2q0 1 0.5 1.5t0.5 2.5l4 38q5 49 -11 80.5t-72 31.5zM518 399q-70 0 -103 -52t-41 -115q79 10 104 16q76 16 96.5 41
t20.5 47q0 34 -22.5 48.5t-54.5 14.5zM169 45q48 0 84 33.5t47 79.5q-1 8 -1 25v22q-17 2 -37 3t-35 1q-54 0 -92 -19.5t-38 -72.5q0 -41 21.5 -56.5t50.5 -15.5z" />
    <glyph glyph-name="uni01F1" unicode="&#x1f1;" horiz-adv-x="1243" 
d="M362 650q143 0 217 -81t74 -208q0 -155 -96.5 -258t-259.5 -103h-285l7 63h79l55 524h-79l6 63h282zM1160 0h-475l1 44l431 539v3h-277l-41 -133l-59 9l44 188h434l5 -40l-433 -543l-1 -3h313l42 138l61 -9zM300 63q130 0 204.5 81.5t74.5 210.5q0 106 -57 169t-167 63
h-132l-55 -524h132z" />
    <glyph glyph-name="uni01F2" unicode="&#x1f2;" horiz-adv-x="1133" 
d="M362 650q143 0 217 -81t74 -208q0 -155 -96.5 -258t-259.5 -103h-285l7 63h79l55 524h-79l6 63h282zM300 63q130 0 204.5 81.5t74.5 210.5q0 106 -57 169t-167 63h-132l-55 -524h132zM1058 0h-356l-9 43l318 345h-202l-22 -89l-55 7l27 139h328l13 -42l-314 -346h222
l33 90l55 -9z" />
    <glyph glyph-name="uni01F3" unicode="&#x1f3;" horiz-adv-x="958" 
d="M305 670l21 18h153l-78 -631h76l-4 -40l-22 -17h-114l2 91q-24 -41 -62.5 -71t-96.5 -30q-73 0 -111 51t-38 135q0 58 21 123t67.5 110t123.5 45q96 0 129 -74l31 251h-102zM882 0h-356l-9 43l318 345h-202l-22 -89l-55 7l27 139h328l13 -42l-314 -346h222l33 90l55 -9z
M250 397q-55 0 -87 -33.5t-45.5 -82.5t-13.5 -96q0 -138 98 -138q57 0 97 48.5t50 95.5l12 96q-2 48 -33.5 79t-77.5 31z" />
    <glyph glyph-name="uni01FC" unicode="&#x1fc;" horiz-adv-x="904" 
d="M827 745l-202 -42l-9 37l195 73zM812 0h-473l6 64h79l14 125h-255l-73 -125h88l-7 -64h-224l6 64h64l309 522h-95l6 64h615l-1 -183l-62 -8l-6 127h-251l-24 -224h299l-6 -64h-299l-25 -234h259l34 127l61 -7zM444 246l35 340h-65l-198 -340h228z" />
    <glyph glyph-name="uni01FD" unicode="&#x1fd;" horiz-adv-x="705" 
d="M572 624l-182 -104l-18 31l165 132zM226 400q-22 0 -42 -6t-41 -16l-25 -77l-55 7l26 103q34 24 74 33.5t79 9.5q97 0 128 -67q62 67 153 67q60 0 102 -29t42 -85q0 -46 -36.5 -81t-121.5 -53q-30 -6 -65 -12t-72 -10q1 -64 25.5 -100.5t82.5 -36.5q47 0 76.5 24.5
t44.5 65.5l56 -13q-14 -56 -62 -95t-126 -39q-117 0 -155 97q-22 -37 -63 -67t-99 -30q-46 0 -87.5 25.5t-41.5 91.5q0 83 66.5 112.5t142.5 29.5q16 0 36 -1t36 -2q0 1 0.5 1.5t0.5 2.5l4 38q5 49 -11 80.5t-72 31.5zM518 399q-70 0 -103 -52t-41 -115q79 10 104 16
q76 16 96.5 41t20.5 47q0 34 -22.5 48.5t-54.5 14.5zM169 45q48 0 84 33.5t47 79.5q-1 8 -1 25v22q-17 2 -37 3t-35 1q-54 0 -92 -19.5t-38 -72.5q0 -41 21.5 -56.5t50.5 -15.5z" />
    <glyph glyph-name="uni01FE" unicode="&#x1fe;" horiz-adv-x="706" 
d="M554 745l-202 -42l-9 37l195 73zM392 660q99 0 173 -56l40 46h73l-73 -83q72 -85 72 -208q0 -100 -45.5 -184t-125.5 -134.5t-182 -50.5q-103 0 -176 57l-41 -47h-66l71 82q-71 83 -71 209q0 101 46.5 185t125.5 134t179 50zM117 297q0 -96 44 -158l358 412
q-56 43 -135 43q-119 0 -193 -88t-74 -209zM335 56q123 0 194.5 90t71.5 208q0 93 -45 157l-360 -410q55 -45 139 -45z" />
    <glyph glyph-name="uni01FF" unicode="&#x1ff;" horiz-adv-x="478" 
d="M435 624l-182 -104l-18 31l165 132zM30 189q0 105 58 185t171 80q62 0 104 -28l15 19h58l-40 -51q40 -53 40 -142q0 -111 -60.5 -186.5t-168.5 -75.5q-64 0 -105 29l-15 -19h-59l40 51q-38 51 -38 138zM104 193q0 -50 11 -82l207 263q-26 23 -71 23q-73 0 -110 -57
t-37 -147zM214 47q78 0 113.5 60.5t35.5 142.5q0 50 -13 85l-208 -265q26 -23 72 -23z" />
    <glyph glyph-name="uni0218" unicode="&#x218;" horiz-adv-x="523" 
d="M468 194q0 -98 -62.5 -151t-177.5 -53q-62 0 -119 14.5t-85 38.5l26 128l57 -6l-11 -82q28 -16 64.5 -22.5t67.5 -6.5q72 0 117.5 30.5t45.5 100.5q0 71 -43.5 90t-100.5 33q-61 14 -116.5 46t-55.5 120q0 98 70 142t151 44q52 0 105 -15t79 -39l-7 -129l-60 -6v97
q-29 16 -59.5 21.5t-54.5 5.5q-68 0 -108 -30t-40 -85q0 -56 38 -75t91 -33q75 -18 131.5 -49t56.5 -129zM262 -64l-34 -154h-56l24 154h66z" />
    <glyph glyph-name="uni0219" unicode="&#x219;" horiz-adv-x="418" 
d="M181 47q108 0 108 77q0 41 -32.5 55.5t-84.5 28.5q-44 11 -80.5 33t-36.5 80q0 66 48 99.5t111 33.5q45 0 86 -12t68 -29l-2 -104l-55 -7l-4 71q-19 10 -39.5 17t-47.5 7q-94 0 -94 -69q0 -30 23 -44t72 -27q46 -12 92.5 -35t46.5 -92q0 -65 -47 -102.5t-122 -37.5
q-46 0 -95.5 12.5t-75.5 31.5l24 101l55 -6l-10 -62q39 -20 92 -20zM213 -64l-34 -154h-56l24 154h66z" />
    <glyph glyph-name="uni021A" unicode="&#x21a;" horiz-adv-x="606" 
d="M599 452l-64 -5l-5 139h-159l-55 -522h112l-6 -64h-293l7 64h109l55 522h-161l-34 -139l-63 5l39 198h520zM300 -64l-34 -154h-56l24 154h66z" />
    <glyph glyph-name="uni021B" unicode="&#x21b;" horiz-adv-x="342" 
d="M28 425l23 20h55l14 120l24 23h47l-18 -143h152l-5 -36l-23 -21h-131l-30 -251q-10 -90 55 -90q22 0 40.5 14.5t34.5 70.5l50 -17q-17 -65 -47.5 -95t-85.5 -30q-62 0 -92.5 38t-22.5 103l31 257h-76zM208 -64l-34 -154h-56l24 154h66z" />
    <glyph glyph-name="uni0232" unicode="&#x232;" horiz-adv-x="597" 
d="M208 790h273l-6 -57h-273zM627 586h-62l-232 -337l-20 -185h111l-7 -64h-289l6 64h108l20 185l-169 337h-63l7 64h229l-7 -64h-87l133 -270h5l182 270h-87l7 64h221z" />
    <glyph glyph-name="uni0233" unicode="&#x233;" horiz-adv-x="468" 
d="M148 621h240l-6 -57h-240zM231 82h6q128 143 128 270q0 49 -18 93h80q15 -63 4.5 -128t-52.5 -132q-22 -35 -57.5 -79t-75.5 -85l-24 -177h77l-4 -39l-21 -18h-202l5 38l21 19h56l25 179l-109 365h-57l5 38l21 19h191l-5 -39l-21 -18h-62z" />
    <glyph glyph-name="uni0237" unicode="&#x237;" horiz-adv-x="246" 
d="M25 426l21 19h148l-57 -463q-24 -200 -140 -205q-20 -1 -39.5 4.5t-36.5 13.5l4 51q50 -21 90.5 3.5t54.5 132.5l49 406h-99z" />
    <glyph glyph-name="uni0259" unicode="&#x259;" horiz-adv-x="437" 
d="M212 397q-46 0 -75.5 -24.5t-45.5 -65.5l-55 13q14 56 62 95t125 39q81 0 126 -49.5t45 -143.5q0 -114 -61.5 -192.5t-163.5 -78.5q-59 0 -101 29.5t-42 81.5q0 49 37 84t122 53q63 12 136 23q-1 63 -26 99.5t-83 36.5zM214 196q-76 -17 -95.5 -41t-19.5 -48
q0 -34 21.5 -48t55.5 -14q69 0 101.5 52t40.5 114q-34 -4 -59.5 -8t-44.5 -7z" />
    <glyph glyph-name="uni02C6" unicode="&#x2c6;" horiz-adv-x="331" 
d="M267 671l106 -121l-29 -31l-97 86l-110 -86l-24 31l132 121h22z" />
    <glyph glyph-name="uni02C7" unicode="&#x2c7;" horiz-adv-x="331" 
d="M229 519l-105 117l29 31l95 -82l111 85l23 -32l-131 -119h-22z" />
    <glyph glyph-name="uni02D8" unicode="&#x2d8;" horiz-adv-x="391" 
d="M324 655h58q-13 -123 -133 -123t-106 123h58q-10 -75 54 -75q62 0 69 75z" />
    <glyph glyph-name="uni02D9" unicode="&#x2d9;" horiz-adv-x="204" 
d="M122 553l9 91h74l-9 -91h-74z" />
    <glyph glyph-name="uni02DA" unicode="&#x2da;" horiz-adv-x="255" 
d="M180 514q-43 0 -64.5 22.5t-21.5 58.5q0 46 29 74.5t79 28.5q42 0 64.5 -22.5t22.5 -58.5q0 -41 -28 -72t-81 -31zM185 554q56 0 56 60q0 18 -9.5 31t-34.5 13q-54 0 -54 -60q0 -44 42 -44z" />
    <glyph glyph-name="uni02DB" unicode="&#x2db;" horiz-adv-x="274" 
d="M203 -189q-38 -20 -80 -20q-93 0 -93 83q0 46 32.5 83t75.5 55l44 -4q-52 -26 -70.5 -57t-18.5 -57q0 -49 52 -49q28 0 55 15z" />
    <glyph glyph-name="uni02DC" unicode="&#x2dc;" horiz-adv-x="367" 
d="M125 549l-32 12q6 26 29.5 57t60.5 31q32 0 55 -18.5t58 -18.5q14 0 26.5 8t22.5 35l35 -9q-11 -40 -30.5 -66.5t-54.5 -26.5q-38 0 -63.5 19.5t-52.5 19.5q-14 0 -29 -9.5t-25 -33.5z" />
    <glyph glyph-name="uni02DD" unicode="&#x2dd;" horiz-adv-x="421" 
d="M293 678l-140 -159l-29 22l116 177zM440 624l-180 -104l-18 31l165 132z" />
    <glyph glyph-name="uni0323" unicode="&#x323;" horiz-adv-x="816" 
d="M75 -174l10 90h75l-10 -90h-75z" />
    <glyph glyph-name="uni0394" unicode="&#x394;" horiz-adv-x="480" 
d="M-30 0l315 661l166 -661h-481zM56 57h322l-110 449z" />
    <glyph glyph-name="uni03A3" unicode="&#x3a3;" horiz-adv-x="531" 
d="M4 0l7 63l225 260l-171 264l7 63h467l-7 -63h-386l164 -250l-3 -22l-216 -252h386l-6 -63h-467z" />
    <glyph glyph-name="uni03C0" unicode="&#x3c0;" horiz-adv-x="572" 
d="M7 57h76l34 331h-77l6 57h516l-6 -57h-79l-34 -331h75l-6 -57h-221l6 57h76l35 331h-221l-34 -331h76l-6 -57h-221z" />
    <glyph glyph-name="uni1E46" unicode="&#x1e46;" horiz-adv-x="715" 
d="M25 64h73l55 522h-83l7 64h134l309 -502h3l45 438h-94l6 64h242l-6 -64h-80l-61 -586h-45l-314 512h-3l-48 -448h102l-6 -64h-243zM286 -174l10 90h75l-10 -90h-75z" />
    <glyph glyph-name="uni1E47" unicode="&#x1e47;" horiz-adv-x="523" 
d="M55 445h114l-1 -86q24 43 61 69t89 26q64 0 101 -40t27 -129l-28 -228h75l-5 -40l-21 -17h-123l32 264q8 72 -15 102.5t-71 30.5q-54 0 -87.5 -37.5t-42.5 -85.5l-34 -274h-67l47 388h-78l5 38zM184 -174l10 90h75l-10 -90h-75z" />
    <glyph glyph-name="uni1E62" unicode="&#x1e62;" horiz-adv-x="523" 
d="M468 194q0 -98 -62.5 -151t-177.5 -53q-62 0 -119 14.5t-85 38.5l26 128l57 -6l-11 -82q28 -16 64.5 -22.5t67.5 -6.5q72 0 117.5 30.5t45.5 100.5q0 71 -43.5 90t-100.5 33q-61 14 -116.5 46t-55.5 120q0 98 70 142t151 44q52 0 105 -15t79 -39l-7 -129l-60 -6v97
q-29 16 -59.5 21.5t-54.5 5.5q-68 0 -108 -30t-40 -85q0 -56 38 -75t91 -33q75 -18 131.5 -49t56.5 -129zM185 -174l10 90h75l-10 -90h-75z" />
    <glyph glyph-name="uni1E63" unicode="&#x1e63;" horiz-adv-x="418" 
d="M181 47q108 0 108 77q0 41 -32.5 55.5t-84.5 28.5q-44 11 -80.5 33t-36.5 80q0 66 48 99.5t111 33.5q45 0 86 -12t68 -29l-2 -104l-55 -7l-4 71q-19 10 -39.5 17t-47.5 7q-94 0 -94 -69q0 -30 23 -44t72 -27q46 -12 92.5 -35t46.5 -92q0 -65 -47 -102.5t-122 -37.5
q-46 0 -95.5 12.5t-75.5 31.5l24 101l55 -6l-10 -62q39 -20 92 -20zM124 -174l10 90h75l-10 -90h-75z" />
    <glyph glyph-name="uni1E80" unicode="&#x1e80;" horiz-adv-x="909" 
d="M576 703l-203 42l17 68l195 -73zM936 586h-54l-230 -586h-58l-109 520h-5l-216 -520h-59l-117 586h-54l6 64h218l-7 -64h-90l85 -466h5l195 466h-64l7 64h218l-7 -64h-64l97 -469h6l170 469h-90l7 64h216z" />
    <glyph glyph-name="uni1E81" unicode="&#x1e81;" horiz-adv-x="714" 
d="M404 520l-182 104l35 59l166 -132zM488 82h4q115 139 115 272q0 51 -16 91h78q14 -69 2.5 -137t-53.5 -136q-22 -39 -61 -87t-78 -85h-35l-76 335h-4l-157 -335h-41l-101 388h-51l5 38l22 19h189l-5 -39l-21 -18h-67l65 -280h4l155 337h46z" />
    <glyph glyph-name="uni1E82" unicode="&#x1e82;" horiz-adv-x="909" 
d="M648 745l-202 -42l-9 37l195 73zM936 586h-54l-230 -586h-58l-109 520h-5l-216 -520h-59l-117 586h-54l6 64h218l-7 -64h-90l85 -466h5l195 466h-64l7 64h218l-7 -64h-64l97 -469h6l170 469h-90l7 64h216z" />
    <glyph glyph-name="uni1E83" unicode="&#x1e83;" horiz-adv-x="714" 
d="M563 624l-182 -104l-18 31l165 132zM488 82h4q115 139 115 272q0 51 -16 91h78q14 -69 2.5 -137t-53.5 -136q-22 -39 -61 -87t-78 -85h-35l-76 335h-4l-157 -335h-41l-101 388h-51l5 38l22 19h189l-5 -39l-21 -18h-67l65 -280h4l155 337h46z" />
    <glyph glyph-name="uni1E84" unicode="&#x1e84;" horiz-adv-x="909" 
d="M544 718l9 85h79l-8 -85h-80zM377 718l8 85h79l-9 -85h-78zM936 586h-54l-230 -586h-58l-109 520h-5l-216 -520h-59l-117 586h-54l6 64h218l-7 -64h-90l85 -466h5l195 466h-64l7 64h218l-7 -64h-64l97 -469h6l170 469h-90l7 64h216z" />
    <glyph glyph-name="uni1E85" unicode="&#x1e85;" horiz-adv-x="714" 
d="M436 555l8 85h80l-9 -85h-79zM268 555l9 85h78l-8 -85h-79zM488 82h4q115 139 115 272q0 51 -16 91h78q14 -69 2.5 -137t-53.5 -136q-22 -39 -61 -87t-78 -85h-35l-76 335h-4l-157 -335h-41l-101 388h-51l5 38l22 19h189l-5 -39l-21 -18h-67l65 -280h4l155 337h46z" />
    <glyph glyph-name="uni1EBC" unicode="&#x1ebc;" horiz-adv-x="573" 
d="M248 705l-31 13q7 26 29 54t60 28q33 0 56 -17.5t58 -17.5q13 0 26 7t24 35l34 -9q-10 -40 -30 -64.5t-55 -24.5q-37 0 -63 17.5t-54 17.5q-14 0 -29 -7.5t-25 -31.5zM481 0h-469l6 64h80l56 522h-81l7 64h465v-184l-63 -7l-6 127h-251l-25 -224h302l-6 -64h-302
l-25 -234h256l33 127l61 -7z" />
    <glyph glyph-name="uni1EBD" unicode="&#x1ebd;" horiz-adv-x="437" 
d="M152 549l-32 12q6 26 29 57t61 31q32 0 55 -18.5t58 -18.5q13 0 26 8t23 35l35 -9q-11 -40 -31 -66.5t-54 -26.5q-38 0 -63.5 19.5t-52.5 19.5q-14 0 -29 -9.5t-25 -33.5zM213 47q46 0 75.5 24.5t45.5 65.5l55 -13q-14 -56 -62 -95t-125 -39q-81 0 -126 49.5t-45 143.5
q0 114 61.5 192.5t163.5 78.5q59 0 101 -29.5t42 -81.5q0 -49 -36.5 -84t-122.5 -53q-31 -6 -65.5 -12.5t-70.5 -11.5q1 -63 25.5 -99t83.5 -36zM211 248q76 17 95.5 41t19.5 48q0 34 -21 48t-56 14q-70 0 -102.5 -52t-40.5 -115q68 9 105 16z" />
    <glyph glyph-name="uni1EF2" unicode="&#x1ef2;" horiz-adv-x="597" 
d="M392 703l-203 42l17 68l195 -73zM627 586h-62l-232 -337l-20 -185h111l-7 -64h-289l6 64h108l20 185l-169 337h-63l7 64h229l-7 -64h-87l133 -270h5l182 270h-87l7 64h221z" />
    <glyph glyph-name="uni1EF3" unicode="&#x1ef3;" horiz-adv-x="468" 
d="M304 520l-182 104l35 59l166 -132zM231 82h6q128 143 128 270q0 49 -18 93h80q15 -63 4.5 -128t-52.5 -132q-22 -35 -57.5 -79t-75.5 -85l-24 -177h77l-4 -39l-21 -18h-202l5 38l21 19h56l25 179l-109 365h-57l5 38l21 19h191l-5 -39l-21 -18h-62z" />
    <glyph glyph-name="uni2004" unicode="&#x2004;" horiz-adv-x="326" 
 />
    <glyph glyph-name="uni2007" unicode="&#x2007;" horiz-adv-x="588" 
 />
    <glyph glyph-name="uni2009" unicode="&#x2009;" horiz-adv-x="157" 
 />
    <glyph glyph-name="uni200A" unicode="&#x200a;" horiz-adv-x="78" 
 />
    <glyph glyph-name="uni200B" unicode="&#x200b;" horiz-adv-x="0" 
 />
    <glyph glyph-name="uni2012" unicode="&#x2012;" horiz-adv-x="347" 
d="M347 281v-60h-347v60h347z" />
    <glyph glyph-name="uni2013" unicode="&#x2013;" horiz-adv-x="611" 
d="M56 257h492l-5 -51h-492z" />
    <glyph glyph-name="uni2014" unicode="&#x2014;" horiz-adv-x="1055" 
d="M70 257h921l-6 -51h-921z" />
    <glyph glyph-name="uni2018" unicode="&#x2018;" horiz-adv-x="204" 
d="M205 656l-74 -216h-68l74 216h68z" />
    <glyph glyph-name="uni2019" unicode="&#x2019;" horiz-adv-x="200" 
d="M65 479l74 216h68l-74 -216h-68z" />
    <glyph glyph-name="uni201A" unicode="&#x201a;" horiz-adv-x="200" 
d="M-15 -102l74 216h68l-74 -216h-68z" />
    <glyph glyph-name="uni201C" unicode="&#x201c;" horiz-adv-x="362" 
d="M207 668l-74 -216h-68l74 216h68zM368 668l-74 -216h-68l74 216h68z" />
    <glyph glyph-name="uni201D" unicode="&#x201d;" horiz-adv-x="359" 
d="M58 454l74 216h68l-74 -216h-68zM219 454l74 216h68l-74 -216h-68z" />
    <glyph glyph-name="uni201E" unicode="&#x201e;" horiz-adv-x="363" 
d="M-15 -102l74 216h68l-74 -216h-68zM148 -102l74 216h68l-74 -216h-68z" />
    <glyph glyph-name="uni2020" unicode="&#x2020;" horiz-adv-x="458" 
d="M44 428h169l24 222h61l-24 -222h171l-6 -62h-171l-53 -507h-61l53 507h-169z" />
    <glyph glyph-name="uni2021" unicode="&#x2021;" horiz-adv-x="501" 
d="M35 119h170l26 247h-170l7 62h170l23 222h62l-23 -222h169l-7 -62h-169l-26 -247h169l-6 -62h-169l-21 -198h-62l21 198h-170z" />
    <glyph glyph-name="uni2022" unicode="&#x2022;" horiz-adv-x="350" 
d="M64 234q0 50 35.5 85.5t82.5 35.5q43 0 70 -29.5t27 -71.5q0 -50 -36.5 -85t-82.5 -35q-43 0 -69.5 29t-26.5 71z" />
    <glyph glyph-name="uni2026" unicode="&#x2026;" horiz-adv-x="574" 
d="M30 0l10 101h93l-10 -101h-93zM213 0l10 101h93l-10 -101h-93zM395 0l10 101h93l-10 -101h-93z" />
    <glyph glyph-name="uni2030" unicode="&#x2030;" horiz-adv-x="973" 
d="M169 244q-56 0 -89 30t-33 93q0 77 46 120t115 43q56 0 89 -30t33 -94q0 -72 -43 -117t-118 -45zM596 521l-224 -254l-226 -267h-74l255 287l196 234h73zM176 294q49 0 71.5 30t22.5 77q0 78 -69 78q-43 0 -69.5 -26.5t-26.5 -80.5q0 -78 71 -78zM466 -10q-56 0 -89 30
t-33 95q0 77 46 119.5t116 42.5q55 0 88 -30.5t33 -94.5q0 -71 -43 -116.5t-118 -45.5zM768 -10q-56 0 -89.5 30t-33.5 94q0 77 46.5 120t114.5 43q56 0 89.5 -30.5t33.5 -94.5q0 -71 -43 -116.5t-118 -45.5zM473 40q49 0 72.5 30.5t23.5 77.5q0 79 -71 79q-95 0 -95 -108
q0 -79 70 -79zM774 40q49 0 72 30.5t23 77.5q0 79 -69 79q-95 0 -95 -108q0 -79 69 -79z" />
    <glyph glyph-name="uni2039" unicode="&#x2039;" horiz-adv-x="280" 
d="M208 25h-59l-109 246l160 240h59l-152 -240z" />
    <glyph glyph-name="uni203A" unicode="&#x203a;" horiz-adv-x="281" 
d="M80 25h-60l152 246l-101 240h60l110 -240z" />
    <glyph glyph-name="uni203D" unicode="&#x203d;" horiz-adv-x="635" 
d="M144 652l92 -448l-50 -21l-121 437zM430 589q-43 0 -80 -25l-38 -98l-54 12l36 118q24 21 63 36.5t87 15.5q72 0 126.5 -37t54.5 -107q0 -64 -44 -99t-104 -60t-110 -58.5t-62 -95.5l-48 14q9 69 54 106t99.5 60.5t95 50t40.5 76.5t-39 70.5t-77 20.5zM185 0l11 97h87
l-10 -97h-88z" />
    <glyph glyph-name="uni2044" unicode="&#x2044;" horiz-adv-x="136" 
d="M315 650l-219 -325l-213 -325h-52l227 337l206 313h51z" />
    <glyph glyph-name="uni2070" unicode="&#x2070;" horiz-adv-x="373" 
d="M70 566q0 42 13.5 93t50 88.5t105.5 37.5q78 0 104 -48.5t26 -110.5q0 -80 -36.5 -148.5t-131.5 -68.5q-73 0 -102 44.5t-29 112.5zM131 571q0 -52 15.5 -83.5t58.5 -31.5q55 0 79 48.5t24 122.5q0 49 -14 80t-59 31q-55 0 -79.5 -46t-24.5 -121z" />
    <glyph glyph-name="uni2071" unicode="&#x2071;" horiz-adv-x="187" 
d="M122 781l7 63h59l-7 -63h-59zM64 691l15 14h90l-32 -245h47l-3 -32l-16 -13h-86l30 246h-49z" />
    <glyph glyph-name="uni2074" unicode="&#x2074;" horiz-adv-x="349" 
d="M219 415l10 94h-177l-1 44l151 226h111l-24 -228h62l-10 -42h-56l-10 -94h-56zM224 734l-122 -183h131l20 183h-29z" />
    <glyph glyph-name="uni2075" unicode="&#x2075;" horiz-adv-x="329" 
d="M322 530q0 -61 -41.5 -91.5t-99.5 -30.5q-55 0 -89 26t-36 71l43 12q2 -25 24 -44.5t60 -19.5q78 0 78 74q0 43 -29.5 56.5t-72.5 13.5q-13 0 -25.5 -1t-25.5 -2l-17 16l16 169h219v-1l1 1l-5 -90l-46 -5v50h-120l-10 -95h26q61 0 105.5 -22.5t44.5 -86.5z" />
    <glyph glyph-name="uni2076" unicode="&#x2076;" horiz-adv-x="342" 
d="M240 740q-58 0 -83.5 -45t-28.5 -109q12 22 37 40t65 18q47 0 74.5 -27.5t27.5 -73.5q0 -51 -34 -92.5t-105 -41.5q-62 0 -93 40.5t-31 109.5q0 88 41.5 157t126.5 69q25 0 54 -10t52 -39l-35 -34q-18 25 -35 31.5t-33 6.5zM214 600q-42 0 -62 -21.5t-24 -44.5
q2 -37 17 -57.5t53 -20.5q42 0 58 24t16 58q0 62 -58 62z" />
    <glyph glyph-name="uni2077" unicode="&#x2077;" horiz-adv-x="303" 
d="M80 779h251l4 -27l-176 -337h-57l170 319h-146l-7 -62h-49z" />
    <glyph glyph-name="uni2078" unicode="&#x2078;" horiz-adv-x="346" 
d="M184 409q-54 0 -88.5 21.5t-34.5 67.5q0 44 30.5 66t66.5 36q-28 15 -48 34t-20 49q0 44 38.5 73t98.5 29q51 0 83 -22.5t32 -61.5q0 -37 -26.5 -57t-61.5 -34q32 -16 57 -36.5t25 -57.5q0 -50 -44 -78.5t-108 -28.5zM152 691q0 -23 19.5 -36.5t46.5 -26.5q26 12 46 27
t20 40q0 24 -18 35.5t-44 11.5q-30 0 -50 -14t-20 -37zM191 452q35 0 58.5 16t23.5 42q0 27 -25 42.5t-57 30.5q-29 -13 -50 -30t-21 -45q0 -56 71 -56z" />
    <glyph glyph-name="uni2079" unicode="&#x2079;" horiz-adv-x="343" 
d="M171 454q59 0 83.5 45t28.5 109q-12 -22 -37 -40t-65 -18q-47 0 -74.5 28t-27.5 74q0 51 34 92t105 41q62 0 93 -40.5t31 -109.5q0 -88 -41 -157t-123 -69q-25 0 -56 10t-54 39l35 34q16 -22 34 -30t34 -8zM197 594q41 0 61 21.5t25 44.5q-3 36 -18 57t-52 21
q-42 0 -58 -24t-16 -58q0 -62 58 -62z" />
    <glyph glyph-name="uni207A" unicode="&#x207a;" horiz-adv-x="288" 
d="M63 578l4 39h95l10 94h41l-10 -94h91l-4 -39h-91l-10 -93h-41l10 93h-95z" />
    <glyph glyph-name="uni207B" unicode="&#x207b;" horiz-adv-x="323" 
d="M79 578l4 39h227l-4 -39h-227z" />
    <glyph glyph-name="uni207C" unicode="&#x207c;" horiz-adv-x="387" 
d="M85 645l5 40h291l-5 -40h-291zM72 510l3 39h291l-3 -39h-291z" />
    <glyph glyph-name="uni207D" unicode="&#x207d;" horiz-adv-x="215" 
d="M201 855h51q-67 -73 -101.5 -149t-34.5 -159q0 -62 19.5 -126t58.5 -117h-51q-38 56 -56 118t-18 121q0 165 132 312z" />
    <glyph glyph-name="uni207E" unicode="&#x207e;" horiz-adv-x="214" 
d="M76 303h-51q135 147 135 307q0 62 -19 126t-57 118h51q38 -57 55.5 -119.5t17.5 -121.5q0 -162 -132 -310z" />
    <glyph glyph-name="uni207F" unicode="&#x207f;" horiz-adv-x="375" 
d="M79 705h81v-51q16 26 40.5 41.5t58.5 15.5q43 0 68 -25.5t18 -81.5l-18 -144h49l-5 -32l-15 -13h-87l22 170q11 82 -53 82q-65 0 -82 -65l-24 -187h-53l30 246h-49l4 30z" />
    <glyph glyph-name="uni2080" unicode="&#x2080;" horiz-adv-x="373" 
d="M27 151q0 41 13.5 92.5t49.5 89t106 37.5q78 0 104 -49t26 -110q0 -80 -36.5 -148.5t-131.5 -68.5q-74 0 -102.5 45t-28.5 112zM88 156q0 -52 15 -83.5t59 -31.5q56 0 79.5 48.5t23.5 122.5q0 49 -14 80t-59 31q-55 0 -79.5 -46t-24.5 -121z" />
    <glyph glyph-name="uni2081" unicode="&#x2081;" horiz-adv-x="255" 
d="M11 45h72l29 274h-73l4 45h131l-34 -319h72l-5 -45h-202z" />
    <glyph glyph-name="uni2082" unicode="&#x2082;" horiz-adv-x="340" 
d="M83 252l-43 5l19 76q46 37 114 37q59 0 86.5 -27t27.5 -63q0 -48 -39.5 -94t-88.5 -83t-77 -58h154l12 53l48 -5l-18 -93h-268l-1 41q47 36 96.5 75.5t83.5 79.5t34 79q0 21 -14 35.5t-49 14.5q-32 0 -57 -17z" />
    <glyph glyph-name="uni2083" unicode="&#x2083;" horiz-adv-x="336" 
d="M89 258l-43 5l16 69q24 20 55 28.5t60 8.5q47 0 77.5 -22t30.5 -61q0 -28 -19 -53.5t-63 -38.5v-2q43 -7 61 -30.5t18 -53.5q0 -55 -42 -85t-101 -30q-52 0 -86 25t-36 72l43 12q2 -24 21.5 -44t57.5 -20q40 0 60.5 21.5t20.5 50.5q0 28 -21.5 43t-74.5 17l4 38
q50 2 72.5 21.5t22.5 46.5q0 48 -58 48q-30 0 -59 -16z" />
    <glyph glyph-name="uni2084" unicode="&#x2084;" horiz-adv-x="349" 
d="M176 0l10 94h-177l-1 44l151 226h111l-24 -228h62l-10 -42h-56l-10 -94h-56zM181 319l-122 -183h131l20 183h-29z" />
    <glyph glyph-name="uni2085" unicode="&#x2085;" horiz-adv-x="329" 
d="M279 115q0 -61 -41.5 -91.5t-99.5 -30.5q-56 0 -90 26t-35 71l43 12q2 -25 24 -44.5t60 -19.5q78 0 78 74q0 43 -29.5 56.5t-72.5 13.5q-13 0 -25.5 -1t-25.5 -2l-17 16l16 169h219v-1l1 1l-5 -90l-46 -5v50h-120l-10 -95h26q61 0 105.5 -22.5t44.5 -86.5z" />
    <glyph glyph-name="uni2086" unicode="&#x2086;" horiz-adv-x="343" 
d="M196 325q-58 0 -83.5 -44.5t-28.5 -109.5q12 23 37 40.5t65 17.5q47 0 74.5 -27.5t27.5 -73.5q0 -51 -34 -92.5t-105 -41.5q-62 0 -93 40.5t-31 109.5q0 88 41.5 157t126.5 69q25 0 54 -10t52 -39l-35 -34q-18 25 -35 31.5t-33 6.5zM170 185q-42 0 -62 -21.5t-24 -44.5
q2 -37 17 -57.5t53 -20.5q42 0 58 23.5t16 58.5q0 62 -58 62z" />
    <glyph glyph-name="uni2087" unicode="&#x2087;" horiz-adv-x="303" 
d="M37 364h251l4 -27l-176 -337h-57l170 319h-146l-7 -62h-49z" />
    <glyph glyph-name="uni2088" unicode="&#x2088;" horiz-adv-x="346" 
d="M140 -6q-54 0 -88.5 21.5t-34.5 67.5q0 43 30.5 66t66.5 36q-28 15 -48 34t-20 49q0 44 38.5 73t98.5 29q51 0 83 -22.5t32 -61.5q0 -38 -26.5 -58t-61.5 -33q32 -16 57 -36.5t25 -57.5q0 -49 -44 -78t-108 -29zM108 276q0 -22 19.5 -36t46.5 -27q26 12 46 27t20 40
q0 24 -18 35.5t-44 11.5q-30 0 -50 -14.5t-20 -36.5zM147 37q35 0 58.5 16t23.5 42q0 27 -25 42.5t-57 30.5q-29 -13 -50 -29.5t-21 -45.5q0 -56 71 -56z" />
    <glyph glyph-name="uni2089" unicode="&#x2089;" horiz-adv-x="343" 
d="M128 39q58 0 83 44.5t29 109.5q-12 -23 -37 -40.5t-65 -17.5q-47 0 -74.5 27.5t-27.5 74.5q0 51 34 92t105 41q61 0 92.5 -40.5t31.5 -109.5q0 -88 -41 -157t-123 -69q-25 0 -56 10t-54 39l35 34q16 -23 34 -30.5t34 -7.5zM154 179q41 0 61.5 21.5t24.5 44.5
q-3 36 -18 57t-52 21q-42 0 -58 -23.5t-16 -58.5q0 -62 58 -62z" />
    <glyph glyph-name="uni208A" unicode="&#x208a;" horiz-adv-x="286" 
d="M18 163l4 39h95l10 94h41l-10 -94h91l-4 -39h-91l-10 -93h-41l10 93h-95z" />
    <glyph glyph-name="uni208B" unicode="&#x208b;" horiz-adv-x="322" 
d="M35 163l4 39h227l-4 -39h-227z" />
    <glyph glyph-name="uni208C" unicode="&#x208c;" horiz-adv-x="387" 
d="M42 230l5 40h291l-5 -40h-291zM29 95l3 39h291l-3 -39h-291z" />
    <glyph glyph-name="uni208D" unicode="&#x208d;" horiz-adv-x="214" 
d="M157 440h51q-67 -74 -101.5 -150t-34.5 -158q0 -62 19.5 -126t58.5 -117h-51q-38 56 -56 118.5t-18 120.5q0 165 132 312z" />
    <glyph glyph-name="uni208E" unicode="&#x208e;" horiz-adv-x="214" 
d="M33 -112h-51q135 147 135 307q0 62 -19 126t-57 118h51q38 -57 55.5 -119.5t17.5 -121.5q0 -162 -132 -310z" />
    <glyph glyph-name="uni2090" unicode="&#x2090;" horiz-adv-x="360" 
d="M308 290q-8 -23 -14 -46.5t-8 -47.5l-20 -151h43l-2 -32l-16 -13h-75l1 60q-14 -27 -38.5 -47t-62.5 -20q-50 0 -75 34t-25 89q0 38 13 80t43.5 71t81.5 29q69 0 88 -56q3 13 6.5 25t7.5 25h52zM161 252q-51 0 -69.5 -42.5t-18.5 -85.5q0 -86 60 -86q40 0 64 32t27 63v-1
l6 50q0 32 -19.5 51t-49.5 19z" />
    <glyph glyph-name="uni2091" unicode="&#x2091;" horiz-adv-x="309" 
d="M142 38q32 0 49.5 17t26.5 39l43 -11q-9 -36 -41.5 -63t-86.5 -27t-85.5 32.5t-31.5 95.5q0 73 41 124t112 51q41 0 70.5 -20t29.5 -56q0 -30 -25 -53t-83 -34q-19 -5 -41.5 -8t-46.5 -6q2 -81 69 -81zM136 164q45 9 60.5 22t15.5 31q0 21 -14.5 30t-34.5 9
q-43 0 -63 -32t-25 -70q19 2 34.5 5t26.5 5z" />
    <glyph glyph-name="uni2092" unicode="&#x2092;" horiz-adv-x="336" 
d="M16 123q0 68 38.5 120.5t115.5 52.5q65 0 94 -38t29 -94q0 -74 -42 -122.5t-115 -48.5q-61 0 -90.5 35.5t-29.5 94.5zM73 127q0 -40 14.5 -64.5t53.5 -24.5q50 0 72 37t22 87q0 41 -15 65.5t-55 24.5q-47 0 -69.5 -34.5t-22.5 -90.5z" />
    <glyph glyph-name="uni2093" unicode="&#x2093;" horiz-adv-x="345" 
d="M307 14l-17 -14h-130l4 30l16 15h26l-57 81q-90 -55 -72 -126h-59q-14 46 24 81t88 66l-74 99h-41l4 30l15 14h130l-3 -31l-17 -13h-26l51 -73q85 61 67 117h59q15 -41 -25.5 -76t-81.5 -63l79 -106h44z" />
    <glyph glyph-name="uni2095" unicode="&#x2095;" horiz-adv-x="365" 
d="M31 433l15 14h88l-27 -208q34 57 99 57q41 0 66.5 -25.5t18.5 -81.5l-18 -144h48l-4 -32l-16 -13h-86l21 170q10 82 -54 82q-38 0 -58 -23.5t-25 -56.5l-22 -172h-53l50 402h-47z" />
    <glyph glyph-name="uni2096" unicode="&#x2096;" horiz-adv-x="322" 
d="M31 433l15 14h88l-36 -276h53q29 26 46.5 55t20.5 64h55q-2 -40 -27 -75.5t-65 -61.5l61 -108h44l-4 -32l-15 -13h-57l-71 131h-46l-16 -131h-53l50 402h-47z" />
    <glyph glyph-name="uni2097" unicode="&#x2097;" horiz-adv-x="177" 
d="M29 433l16 14h89l-52 -402h49l-4 -32l-16 -13h-87l50 402h-48z" />
    <glyph glyph-name="uni2098" unicode="&#x2098;" horiz-adv-x="552" 
d="M35 290h81v-53q16 26 39 42.5t58 16.5q70 0 82 -63q15 29 39.5 46t60.5 17q43 0 66.5 -27t16.5 -80l-19 -144h49l-4 -32l-15 -13h-87l21 170q10 82 -53 82q-34 0 -51.5 -19.5t-24.5 -46.5l-22 -186h-53l22 170q5 46 -9 64t-43 18q-60 0 -77 -61l-24 -191h-53l30 246h-49
l4 30z" />
    <glyph glyph-name="uni2099" unicode="&#x2099;" horiz-adv-x="375" 
d="M35 290h81v-51q16 25 40.5 41t58.5 16q43 0 68 -25.5t18 -81.5l-18 -144h49l-5 -32l-15 -13h-87l22 170q11 82 -53 82q-65 0 -82 -65l-24 -187h-53l30 246h-49l4 30z" />
    <glyph glyph-name="uni209A" unicode="&#x209a;" horiz-adv-x="365" 
d="M136 -125l-14 -13h-147l4 29l16 15h28l44 340h-51l5 30l15 14h80l-1 -60q15 26 39 46t64 20q50 0 77 -34t27 -91q0 -37 -13.5 -78.5t-44 -70.5t-82.5 -29q-67 0 -89 49l-18 -136h65zM174 38q52 0 71.5 44.5t19.5 82.5q0 87 -65 87q-39 0 -62 -29t-29 -60l-7 -49
q-2 -34 18.5 -55t53.5 -21z" />
    <glyph glyph-name="uni209B" unicode="&#x209b;" horiz-adv-x="299" 
d="M121 38q67 0 67 44q0 26 -21 33.5t-53 15.5q-29 7 -55.5 22t-26.5 55q0 46 34.5 67t75.5 21q26 0 53 -5t53 -22l3 -63l-46 -6l-4 41q-26 11 -55 11q-58 0 -58 -41q0 -19 16.5 -27t43.5 -15q32 -7 64.5 -22t32.5 -61q0 -44 -32.5 -68.5t-83.5 -24.5q-36 0 -66.5 10
t-49.5 24l12 75l44 -5l-3 -45q12 -7 24 -10.5t31 -3.5z" />
    <glyph glyph-name="uni209C" unicode="&#x209c;" horiz-adv-x="259" 
d="M20 276l17 14h32l10 74l19 18h37l-12 -92h99l-4 -28l-16 -16h-84l-20 -156q-5 -52 34 -52q14 0 25.5 9.5t21.5 45.5l39 -13q-22 -87 -92 -87q-44 0 -65.5 25t-16.5 68l20 160h-48z" />
    <glyph glyph-name="uni20A1" unicode="&#x20a1;" horiz-adv-x="677" 
d="M635 689h53l-287 -629q43 6 81 25l28 96l60 -6l-29 -125q-33 -25 -79 -39.5t-92 -18.5l-29 -63h-53l28 61q-37 1 -74 11l-33 -72h-52l40 88q-73 35 -112 106t-39 165q0 101 43 185.5t118 135.5t170 51q58 0 104 -19l22 48h53l-33 -71q34 -25 51 -62zM381 594
q-115 0 -186.5 -86.5t-71.5 -211.5q0 -155 104 -213l227 499q-36 12 -73 12zM496 558l-225 -492q33 -10 75 -10l196 429q-10 44 -46 73z" />
    <glyph glyph-name="uni20A2" unicode="&#x20a2;" horiz-adv-x="651" 
d="M543 50q-40 -30 -97.5 -45t-112.5 -15q-139 0 -212.5 83.5t-73.5 215.5q0 101 42 185.5t119.5 135t184.5 50.5q71 0 124 -22t86 -54l4 -125l-62 -6l-8 95q-29 21 -65 33.5t-83 12.5q-119 0 -193.5 -80.5t-74.5 -218.5q0 -204 168 -234l29 259h-76l5 38l21 19h111l-2 -101
q19 44 48 77.5t70 33.5q29 0 54 -17l-13 -71q-27 15 -53 15q-41 0 -70 -37t-40 -84l-17 -137q75 2 128 29l28 96l60 -6z" />
    <glyph glyph-name="uni20A3" unicode="&#x20a3;" horiz-adv-x="744" 
d="M20 64h79l55 522h-80l6 64h458l1 -188l-65 -6l-5 130h-244l-23 -217h322l-7 -101q18 44 47.5 76.5t69.5 32.5q28 0 54 -17l-13 -71q-27 15 -53 15q-42 0 -71.5 -39.5t-39.5 -87.5l-13 -120h94l-5 -39l-21 -18h-210l5 38l20 19h49l27 248h-261l-26 -241h110l-7 -64h-260z
" />
    <glyph glyph-name="uni20A4" unicode="&#x20a4;" horiz-adv-x="568" 
d="M51 279h80l9 81h-81l5 49h81l1 8q14 128 75 185.5t152 57.5q38 0 82 -11t70 -37l4 -124l-60 -7l-8 88q-36 25 -94 25q-61 0 -101 -38t-50 -138l-1 -9h216l-4 -49h-217l-9 -81h217l-5 -49h-217q-5 -43 -25 -90t-68 -76h235q52 0 83 24t53 53l36 -37q-14 -26 -57 -65
t-107 -39h-333l7 61q55 25 76.5 71t28.5 98h-79z" />
    <glyph glyph-name="uni20A5" unicode="&#x20a5;" horiz-adv-x="828" 
d="M75 445h114l-3 -88q23 44 59 70.5t89 26.5q107 0 122 -103q4 7 8 15t9 15l98 184h54l-63 -117q21 6 44 6q63 0 98.5 -41.5t25.5 -127.5l-28 -228h75l-5 -40l-22 -17h-122l32 264q8 72 -14 102.5t-69 30.5q-27 0 -47 -9l-80 -149l-29 -239h-67l9 76l-110 -206h-54l180 336
l7 58q8 73 -14 103t-67 30q-61 0 -90.5 -41.5t-36.5 -94.5l-1 1l-31 -262h-67l47 388h-78l5 38z" />
    <glyph glyph-name="uni20A6" unicode="&#x20a6;" horiz-adv-x="751" 
d="M43 64h73l18 169h-87l5 48h87l9 90h-85l4 49h86l18 166h-83l7 64h134l141 -230h199l17 166h-94l6 64h242l-6 -64h-80l-17 -166h81l-6 -49h-80l-10 -90h80l-5 -48h-80l-24 -233h-45l-143 233h-204l-18 -169h102l-6 -64h-243zM231 512l-10 -92h69l-56 92h-3zM206 281h169
l-55 90h-104zM456 281h99l9 90h-164zM538 148h3l9 85h-65z" />
    <glyph glyph-name="uni20A7" unicode="&#x20a7;" horiz-adv-x="1247" 
d="M19 64h79l55 522h-79l7 64h261q107 0 156.5 -53.5t49.5 -127.5q0 -109 -66.5 -168t-170.5 -59h-124l-19 -178h110l-7 -64h-258zM553 425l23 20h55l14 120l24 23h47l-18 -143h152l-5 -36l-23 -21h-131l-30 -251q-10 -90 55 -90q22 0 40.5 14.5t34.5 70.5l50 -17
q-17 -65 -47.5 -95t-85.5 -30q-62 0 -92.5 38t-22.5 103l31 257h-76zM308 306q80 0 122.5 42.5t42.5 117.5q0 56 -35.5 88t-107.5 32h-107l-29 -280h114zM1009 47q108 0 108 77q0 41 -32.5 55.5t-84.5 28.5q-44 11 -80.5 33t-36.5 80q0 66 48 99.5t111 33.5q45 0 86 -12
t68 -29l-2 -104l-55 -7l-4 71q-19 10 -39.5 17t-47.5 7q-94 0 -94 -69q0 -30 23 -44t72 -27q46 -12 92.5 -35t46.5 -92q0 -65 -47 -102.5t-122 -37.5q-46 0 -95.5 12.5t-75.5 31.5l24 101l55 -6l-10 -62q39 -20 92 -20z" />
    <glyph glyph-name="uni20A8" unicode="&#x20a8;" horiz-adv-x="923" 
d="M714 397q-93 0 -93 -69q0 -41 38 -55t87.5 -22t87.5 -31t38 -82q0 -62 -51.5 -105t-152.5 -43q-109 0 -184.5 52.5t-109.5 131.5l-44 98h-139l-22 -208h87l-6 -64h-238l8 64h78l55 522h-80l7 64h275q108 0 155.5 -46t47.5 -119q0 -68 -39.5 -123t-116.5 -75l38 -86
q30 -68 95.5 -111t142.5 -43q52 0 86.5 20.5t34.5 60.5q0 44 -38 58t-88.5 22t-88.5 30.5t-38 83.5q0 70 51.5 101t115.5 31q44 0 85.5 -12t67.5 -29l-1 -104l-55 -7l-4 71q-19 10 -42 17t-50 7zM315 333q90 0 128.5 40t38.5 102q0 58 -32.5 84.5t-110.5 26.5h-115l-26 -253
h117z" />
    <glyph glyph-name="uni20A9" unicode="&#x20a9;" horiz-adv-x="972" 
d="M60 302h115l-18 90h-87l5 52h71l-28 142h-54l6 64h218l-7 -64h-90l26 -142h200l59 142h-64l7 64h218l-7 -64h-64l29 -142h193l51 142h-90l7 64h216l-6 -64h-54l-56 -142h80l-6 -52h-94l-36 -90h121l-5 -52h-136l-98 -250h-58l-52 250h-174l-104 -250h-59l-50 250h-130z
M510 520l-32 -76h53l-16 76h-5zM243 302h114l38 90h-169zM624 302h112l33 90h-163zM419 302h142l-19 90h-85zM663 117h6l48 133h-82zM276 120h5l54 130h-83z" />
    <glyph glyph-name="uni20AA" unicode="&#x20aa;" horiz-adv-x="766" 
d="M60 0l68 650h210q96 0 140 -25.5t52 -85t-2 -162.5l-14 -133h-72l16 138q9 88 5.5 132t-33.5 59t-99 15h-138l-61 -588h-72zM316 62h152q67 0 97 21t40.5 68t19.5 125l39 374h72l-39 -369q-11 -103 -29 -164.5t-64.5 -89t-142.5 -27.5h-222l43 406h70z" />
    <glyph glyph-name="uni20AB" unicode="&#x20ab;" horiz-adv-x="540" 
d="M241 634h161l6 54h64l-6 -54h61l-5 -48h-61l-41 -400h68l-5 -49h-133l8 80q-22 -36 -59.5 -62.5t-97.5 -26.5q-71 0 -111 44t-40 128q0 83 46 155.5t155 72.5q101 0 132 -72l14 130h-161zM260 477q-79 0 -110.5 -53.5t-31.5 -115.5q0 -67 29.5 -97.5t74.5 -30.5
q57 0 95.5 37t48.5 81l1 6l8 70q1 46 -29 74.5t-86 28.5zM50 52h381l-6 -52h-381z" />
    <glyph glyph-name="uni20AC" unicode="&#x20ac;" horiz-adv-x="589" 
d="M36 297l5 46h63q27 81 91.5 133.5t160.5 52.5q47 0 96.5 -13.5t74.5 -36.5l4 -118l-60 -6l-8 93q-22 12 -53.5 18t-57.5 6q-67 0 -111 -35.5t-64 -93.5h192l-5 -46h-199q-3 -15 -4 -30.5t-1 -31.5v-17h171l-5 -45h-161q25 -123 147 -123q23 0 56 5t59 16l28 96l58 -6
l-31 -124q-28 -17 -81 -31t-103 -14q-92 0 -143.5 49.5t-64.5 131.5h-67l5 45h58v10q0 36 6 69h-56z" />
    <glyph glyph-name="uni20AD" unicode="&#x20ad;" horiz-adv-x="663" 
d="M378 64h73l-142 235h-105l-25 -235h73l-7 -64h-223l8 64h78l25 235h-78l7 63h77l24 224h-79l6 64h225l-7 -64h-74l-24 -224h103l184 225h-72l7 64h222l-7 -64h-70l-190 -225h170l-7 -63h-159l143 -235h71l-7 -64h-228z" />
    <glyph glyph-name="uni20AE" unicode="&#x20ae;" horiz-adv-x="615" 
d="M603 452l-64 -5l-5 139h-159l-20 -193l140 50l-5 -56l-141 -50l-8 -71l142 50l-6 -54l-142 -51l-15 -147h112l-6 -64h-293l7 64h109l13 121l-134 -47l5 55l135 47l7 71l-134 -47l5 54l135 48l23 220h-161l-34 -139l-63 5l39 198h520z" />
    <glyph glyph-name="uni20B1" unicode="&#x20b1;" horiz-adv-x="642" 
d="M31 64h79l32 306h-75l5 45h75l6 62h-75l5 45h75l7 64h-79l7 64h261q87 0 136 -36.5t63 -91.5h82l-5 -45h-70v-8q0 -26 -5 -54h68l-5 -45h-77q-25 -62 -83 -95t-135 -33h-124l-19 -178h110l-7 -64h-258zM342 586h-107l-7 -64h245q-30 64 -131 64zM485 466q0 2 -0.5 5
t-0.5 6h-261l-6 -62h262q6 23 6 51zM320 306q98 0 140 64h-248l-7 -64h115z" />
    <glyph glyph-name="uni20B4" unicode="&#x20b4;" horiz-adv-x="578" 
d="M50 371l4 39h334q55 34 55 92q0 50 -33 71.5t-91 21.5q-24 0 -59 -5t-69 -20l-23 -99l-57 6l24 136q35 20 91 33.5t109 13.5q72 0 129 -33t57 -118q0 -59 -37 -99h67l-4 -39h-111q-32 -19 -70.5 -32.5t-74.5 -26.5q-7 -3 -15 -6t-15 -5h279l-5 -39h-349q-50 -38 -50 -100
q0 -60 39 -83.5t101 -23.5q32 0 67 6.5t61 23.5l28 94l60 -7l-29 -122q-79 -60 -200 -60q-87 0 -146 39.5t-59 127.5q0 62 37 105h-57l4 39h97q31 20 68 34.5t73 27.5q10 3 22 8h-252z" />
    <glyph glyph-name="uni20B9" unicode="&#x20b9;" horiz-adv-x="521" 
d="M58 269h153q63 0 94 22t38 59h-277l4 43h276q-6 72 -115 72h-153l6 56h413l-6 -55h-94q23 -29 25 -73h49l-5 -43h-49q-21 -98 -125 -123l75 -171h67l-8 -56h-112l-92 216h-170z" />
    <glyph glyph-name="uni20BA" unicode="&#x20ba;" horiz-adv-x="587" 
d="M53 230l87 36l7 74l-86 -36l5 51l87 36l20 195h-81l8 64h247l-7 -64h-96l-17 -164l213 90l-5 -51l-213 -90l-8 -74l212 90l-5 -51l-213 -90l-19 -182h63q117 0 171.5 71.5t68.5 198.5h71q-15 -147 -90 -240.5t-225 -93.5h-216l6 64h80l16 151l-86 -36z" />
    <glyph glyph-name="uni20BD" unicode="&#x20bd;" horiz-adv-x="582" 
d="M35 64h79l9 80h-80l5 46h80l7 65h-81l8 63h79l28 268h-80l7 64h271q107 0 154.5 -49.5t47.5 -123.5q0 -109 -68 -165.5t-171 -56.5h-123l-7 -65h247l-4 -46h-248l-9 -80h109l-6 -64h-261zM327 318q166 0 166 151q0 55 -32.5 86t-106.5 31h-113l-28 -268h114z" />
    <glyph glyph-name="uni2113" unicode="&#x2113;" horiz-adv-x="386" 
d="M47 191l-23 40l73 49v211q0 75 33 122t105 47q65 0 92.5 -36t27.5 -86q0 -76 -53 -141t-133 -124v-120q0 -61 17.5 -82t45.5 -21q44 0 88 31l15 -51q-48 -40 -115 -40q-123 0 -123 153v80q-13 -8 -25 -16.5t-25 -15.5zM169 478v-144q57 47 87.5 93.5t30.5 101.5
q0 70 -57 70q-44 0 -52.5 -33.5t-8.5 -87.5z" />
    <glyph glyph-name="uni2116" unicode="&#x2116;" horiz-adv-x="952" 
d="M623 356q0 68 38.5 120.5t115.5 52.5q65 0 94 -38.5t29 -93.5q0 -73 -42 -122t-115 -49q-61 0 -90.5 35.5t-29.5 94.5zM31 56h61l43 409h-70l6 56h120l257 -390h3l36 334h-80l6 56h211l-6 -56h-66l-49 -465h-42l-263 399h-4l-37 -343h84l-6 -56h-210zM680 360
q0 -40 14.5 -64.5t53.5 -24.5q50 0 72 37t22 87q0 41 -15 65.5t-55 24.5q-46 0 -69 -34.5t-23 -90.5zM600 140l5 50h297l-5 -50h-297z" />
    <glyph glyph-name="uni2117" unicode="&#x2117;" horiz-adv-x="612" 
d="M307 -7q-103 0 -170.5 70t-67.5 173q0 80 40.5 146.5t107.5 106.5t144 40q105 0 170.5 -71t65.5 -173q0 -81 -41 -147t-107 -105.5t-142 -39.5zM310 34q100 0 172.5 73t72.5 176q0 85 -53.5 144.5t-144.5 59.5q-103 0 -174.5 -73.5t-71.5 -174.5q0 -86 55 -145.5
t144 -59.5zM206 137h43l27 253h-44l5 37h148q59 0 85.5 -28t26.5 -70q0 -55 -37.5 -87.5t-93.5 -32.5h-66l-7 -72h58l-4 -37h-145zM363 246q44 0 65 22t21 57q0 65 -71 65h-59l-15 -144h59z" />
    <glyph glyph-name="uni2120" unicode="&#x2120;" horiz-adv-x="998" 
d="M217 222q-43 0 -89 13t-69 30l9 88l47 -4l-3 -56q41 -21 98 -21q89 0 89 73q0 41 -31 57.5t-73 25.5q-45 9 -88.5 28t-43.5 83q0 61 42.5 90t97.5 29q37 0 75.5 -10t59.5 -27l5 -89l-46 -5l-8 63q-38 19 -78 19q-37 0 -60.5 -16t-23.5 -48q0 -37 28 -49.5t63 -20.5
q29 -7 63 -17.5t58 -35t24 -73.5q0 -62 -42 -94.5t-104 -32.5zM404 275h52v327h-55v48h108l165 -319h3l159 319h108v-48h-56v-327h53v-48h-161v48h49v250h-3l-138 -274h-30l-142 277h-3v-253h50v-48h-159v48z" />
    <glyph glyph-name="uni2122" unicode="&#x2122;" horiz-adv-x="1066" 
d="M1011 602h-56v-327h52v-48h-160v48h48v250h-3l-137 -274h-30l-142 277h-3v-253h50v-48h-159v48h53v327h-57v48h108l166 -319h3l158 319h109v-48zM453 514l-50 -2l-10 90h-110v-327h75v-48h-208v48h74v327h-111l-11 -90l-50 2l10 136h381z" />
    <glyph glyph-name="uni2126" unicode="&#x2126;" horiz-adv-x="702" 
d="M378 594q-107 0 -177.5 -65t-70.5 -180q0 -77 37 -129.5t115 -54.5l-17 -165h-247l7 61h185l6 58q-70 6 -115 66.5t-45 160.5q0 106 48 176t122.5 104t154.5 34q72 0 137.5 -28t107 -87t41.5 -151q0 -100 -54 -184t-153 -91l-6 -58h179l-7 -61h-236l18 165q68 1 108 36.5
t57 87t17 101.5q0 103 -60 153.5t-152 50.5z" />
    <glyph glyph-name="uni212E" unicode="&#x212e;" horiz-adv-x="610" 
d="M576 235h-428q-4 0 -4 -3v-137q0 -9 6 -17q24 -29 65 -52t92 -23q56 0 104.5 23t80.5 61h24q-38 -43 -89.5 -71t-119.5 -28q-116 0 -191.5 74t-75.5 180t75.5 180t191.5 74t192.5 -74t76.5 -180v-7zM471 255v137q0 13 -5 18q-20 26 -64.5 48.5t-94.5 22.5t-94.5 -24.5
t-61.5 -49.5q-7 -11 -7 -19v-133q0 -4 4 -4h322q1 0 1 4z" />
    <glyph glyph-name="uni2153" unicode="&#x2153;" horiz-adv-x="728" 
d="M581 650l-219 -325l-213 -325h-52l227 337l206 313h51zM46 331h72l29 274h-73l4 45h131l-34 -319h72l-5 -45h-202zM486 258l-43 5l16 69q24 20 55.5 28.5t59.5 8.5q47 0 77.5 -22t30.5 -61q0 -28 -19 -53.5t-63 -38.5v-2q44 -7 61.5 -30.5t17.5 -53.5q0 -55 -42.5 -85
t-100.5 -30q-52 0 -86 25t-36 72l43 12q2 -24 21.5 -44t57.5 -20q40 0 60.5 21.5t20.5 50.5q0 28 -21.5 43t-74.5 17l4 38q50 2 72.5 21.5t22.5 46.5q0 48 -58 48q-30 0 -59 -16z" />
    <glyph glyph-name="uni2154" unicode="&#x2154;" horiz-adv-x="779" 
d="M117 542l-43 5l19 76q46 37 114 37q59 0 86.5 -27t27.5 -63q0 -48 -39.5 -94t-88.5 -83t-77 -58h154l12 53l48 -5l-18 -93h-268l-1 41q47 36 96.5 75.5t83.5 79.5t34 79q0 21 -14 35.5t-49 14.5q-32 0 -57 -17zM644 650l-219 -325l-213 -325h-52l227 337l206 313h51z
M537 258l-43 5l16 69q24 20 55 28.5t60 8.5q47 0 77.5 -22t30.5 -61q0 -28 -19 -53.5t-63 -38.5v-2q43 -7 61 -30.5t18 -53.5q0 -55 -42 -85t-101 -30q-52 0 -86 25t-36 72l43 12q2 -24 21.5 -44t57.5 -20q40 0 60.5 21.5t20.5 50.5q0 28 -21.5 43t-74.5 17l4 38
q50 2 72.5 21.5t22.5 46.5q0 48 -58 48q-30 0 -59 -16z" />
    <glyph glyph-name="uni215B" unicode="&#x215b;" horiz-adv-x="721" 
d="M591 650l-219 -325l-213 -325h-52l227 337l206 313h51zM46 331h72l29 274h-73l4 45h131l-34 -319h72l-5 -45h-202zM519 -6q-54 0 -88.5 21.5t-34.5 67.5q0 43 30.5 66t66.5 36q-28 15 -48 34t-20 49q0 44 38.5 73t98.5 29q51 0 83 -22.5t32 -61.5q0 -38 -26.5 -58
t-61.5 -33q31 -16 56.5 -36.5t25.5 -57.5q0 -49 -43.5 -78t-108.5 -29zM487 276q0 -22 19.5 -36t46.5 -27q25 12 45.5 27t20.5 40q0 24 -18.5 35.5t-43.5 11.5q-30 0 -50 -14.5t-20 -36.5zM526 37q34 0 58 16t24 42q0 27 -25 42.5t-57 30.5q-28 -13 -49.5 -29.5t-21.5 -45.5
q0 -56 71 -56z" />
    <glyph glyph-name="uni2190" unicode="&#x2190;" horiz-adv-x="765" 
d="M317 29l-274 209v25l273 213v-65l-146 -130h595v-60h-596l148 -127v-65z" />
    <glyph glyph-name="uni2191" unicode="&#x2191;" horiz-adv-x="533" 
d="M281 701l209 -274h-65l-127 147v-595h-61v593l-129 -144h-65l213 273h25z" />
    <glyph glyph-name="uni2192" unicode="&#x2192;" horiz-adv-x="766" 
d="M723 238l-275 -209v65l148 127h-596v60h595l-146 130v65l274 -213v-25z" />
    <glyph glyph-name="uni2193" unicode="&#x2193;" horiz-adv-x="533" 
d="M490 253l-211 -274h-26l-210 274h65l127 -146v594h62v-594l128 146h65z" />
    <glyph glyph-name="uni2196" unicode="&#x2196;" horiz-adv-x="627" 
d="M61 590l342 -46l-46 -46l-193 13l420 -419l-43 -43l-421 419l12 -194l-47 -45l-42 344z" />
    <glyph glyph-name="uni2197" unicode="&#x2197;" horiz-adv-x="627" 
d="M224 544l342 46l18 -17l-43 -344l-47 45l12 193l-419 -418l-44 43l419 419l-191 -13z" />
    <glyph glyph-name="uni2198" unicode="&#x2198;" horiz-adv-x="627" 
d="M566 49l-342 46l47 47l191 -15l-419 420l44 43l419 -418l-12 193l47 46l43 -345z" />
    <glyph glyph-name="uni2199" unicode="&#x2199;" horiz-adv-x="627" 
d="M403 95l-342 -46l-18 17l42 345l47 -46l-12 -195l421 420l43 -43l-420 -420l193 15z" />
    <glyph glyph-name="uni2202" unicode="&#x2202;" horiz-adv-x="474" 
d="M94 307q0 57 36 101l-81 94l33 30l80 -92q43 32 95 32q50 0 88 -33l103 93l26 -30l-103 -95q20 -35 20 -73q0 -56 -38 -102l82 -94l-33 -31l-82 93q-43 -30 -93 -30t-87 32l-104 -95l-26 31l104 95q-20 32 -20 74zM154 314q-1 -40 21.5 -63.5t57.5 -23.5q40 0 68.5 29
t28.5 75q0 38 -22 61t-56 23q-38 0 -67.5 -28t-30.5 -73z" />
    <glyph glyph-name="uni2206" unicode="&#x2206;" horiz-adv-x="532" 
d="M-2 0l315 661l166 -661h-481zM84 57h322l-110 449z" />
    <glyph glyph-name="uni220F" unicode="&#x220f;" horiz-adv-x="669" 
d="M18 64h80l55 522h-80l7 64h587l-7 -64h-80l-55 -522h80l-6 -64h-233l7 64h79l55 522h-282l-55 -522h81l-7 -64h-232z" />
    <glyph glyph-name="uni2211" unicode="&#x2211;" horiz-adv-x="553" 
d="M-12 -140l7 63l280 330l-210 334l6 63h484l-6 -63h-404l204 -321l-2 -22l-272 -321h404l-7 -63h-484z" />
    <glyph glyph-name="uni2212" unicode="&#x2212;" horiz-adv-x="458" 
d="M56 254l6 54h340l-6 -54h-340z" />
    <glyph glyph-name="uni221A" unicode="&#x221a;" horiz-adv-x="568" 
d="M235 0l-97 385h-109l6 56h152l86 -346l279 602h57l-325 -697h-49z" />
    <glyph glyph-name="uni221E" unicode="&#x221e;" horiz-adv-x="712" 
d="M493 79q-60 0 -91.5 40t-54.5 92q-33 -52 -72.5 -92t-98.5 -40q-63 0 -99.5 46t-36.5 111q0 82 53 139t123 57q60 0 90 -42.5t52 -96.5q35 54 76.5 96.5t102.5 42.5t95.5 -45t34.5 -111q0 -82 -50.5 -139.5t-123.5 -57.5zM185 133q47 0 80.5 36t64.5 84
q-20 49 -44.5 86.5t-71.5 37.5q-48 0 -82 -39.5t-34 -99.5q0 -46 23 -75.5t64 -29.5zM490 133q46 0 82 37.5t36 102.5q0 44 -21 74t-63 30q-50 0 -84 -37.5t-65 -87.5q19 -47 44 -83t71 -36z" />
    <glyph glyph-name="uni222B" unicode="&#x222b;" horiz-adv-x="371" 
d="M-37 -140l6 60h41q59 0 84 31t33 108l46 436q10 96 52.5 145t137.5 49h46l-7 -61h-54q-56 0 -81.5 -29.5t-33.5 -106.5l-46 -438q-10 -96 -54 -145t-134 -49h-36z" />
    <glyph glyph-name="uni2248" unicode="&#x2248;" horiz-adv-x="618" 
d="M421 305q-45 0 -78 17.5t-65 35.5t-73 18q-23 0 -48.5 -11.5t-54.5 -51.5l-39 27q34 54 73.5 78t79.5 24q42 0 74 -18l64 -36t75 -18q31 0 55 16t55 62l43 -31q-74 -112 -161 -112zM400 100q-46 0 -78.5 18t-64 36t-73.5 18q-24 0 -49 -12t-54 -53l-39 28
q34 54 73.5 78.5t78.5 24.5q42 0 74.5 -18t64.5 -36t74 -18q31 0 55 15.5t55 61.5l44 -30q-75 -113 -161 -113z" />
    <glyph glyph-name="uni2260" unicode="&#x2260;" horiz-adv-x="563" 
d="M66 364l6 54h291l61 74h64l-60 -74h92l-6 -54h-130l-137 -168h250l-6 -52h-286l-62 -76h-68l62 76h-94l6 52h131l138 168h-252z" />
    <glyph glyph-name="uni2264" unicode="&#x2264;" horiz-adv-x="420" 
d="M341 100l-292 194l3 30l332 199l-7 -65l-246 -147l216 -148zM18 0l5 53h312l-5 -53h-312z" />
    <glyph glyph-name="uni2265" unicode="&#x2265;" horiz-adv-x="418" 
d="M88 523l291 -195l-3 -29l-332 -200l8 66l246 147l-217 147zM352 53l-5 -53h-313l6 53h312z" />
    <glyph glyph-name="uni24CA" unicode="&#x24ca;" horiz-adv-x="612" 
d="M307 -7q-103 0 -170.5 70t-67.5 173q0 80 40.5 146.5t107.5 106.5t144 40q105 0 170.5 -71t65.5 -173q0 -81 -41 -147t-107 -105.5t-142 -39.5zM310 34q100 0 172.5 73t72.5 176q0 85 -53.5 144.5t-144.5 59.5q-103 0 -174.5 -73.5t-71.5 -174.5q0 -86 55 -145.5
t144 -59.5zM390 401h118l-4 -36h-33l-13 -130q-5 -53 -35.5 -97t-106.5 -44q-73 0 -93 41t-15 94l14 136h-34l4 36h121l-4 -36h-45l-14 -134q-4 -46 11 -73.5t61 -27.5q85 0 96 105l13 130h-46z" />
    <glyph glyph-name="uni25B2" unicode="&#x25b2;" horiz-adv-x="650" 
d="M612 23h-574l287 458z" />
    <glyph glyph-name="uni25B6" unicode="&#x25b6;" horiz-adv-x="591" 
d="M94 -35v575l459 -288z" />
    <glyph glyph-name="uni25B8" unicode="&#x25b8;" horiz-adv-x="418" 
d="M381 234l-287 -287v575z" />
    <glyph glyph-name="uni25BA" unicode="&#x25ba;" horiz-adv-x="905" 
d="M864 234l-774 -287v575z" />
    <glyph glyph-name="uni25BC" unicode="&#x25bc;" horiz-adv-x="650" 
d="M38 480h574l-287 -458z" />
    <glyph glyph-name="uni25C0" unicode="&#x25c0;" horiz-adv-x="591" 
d="M497 -35l-459 287l459 288v-575z" />
    <glyph glyph-name="uni25C2" unicode="&#x25c2;" horiz-adv-x="418" 
d="M324 -53l-286 288l286 287v-575z" />
    <glyph glyph-name="uni25C4" unicode="&#x25c4;" horiz-adv-x="906" 
d="M814 -53l-774 286l774 289v-575z" />
    <glyph glyph-name="uni25CA" unicode="&#x25ca;" horiz-adv-x="582" 
d="M263 -11l-228 331l299 340l225 -340zM272 72l219 248l-166 251l-224 -251z" />
    <glyph glyph-name="uni2610" unicode="&#x2610;" horiz-adv-x="879" 
d="M101 0v651h677v-651h-677zM160 592v-534h560v534h-560z" />
    <glyph glyph-name="uni2611" unicode="&#x2611;" horiz-adv-x="879" 
d="M101 0v651h677v-651h-677zM160 592v-534h560v534h-560zM301 320l86 -147l199 384l87 -52l-286 -396l-162 140z" />
    <glyph glyph-name="uni261A" unicode="&#x261a;" horiz-adv-x="957" 
d="M875 394v-352h-154q-1 12 -2 24.5t-2 25.5q-103 -40 -150 -48t-75 -8q-34 0 -74 5l-40 5q-9 -2 -25 -2h-31q-28 0 -48.5 8.5t-20.5 37.5q0 16 15 31q-22 17 -22 40q0 17 11 28q-21 18 -21 40q0 11 6 21l-132 1q-34 0 -46.5 16.5t-12.5 34.5q0 21 13.5 36.5t45.5 15.5h168
q-2 4 -1.5 19t12.5 32q48 5 78 19.5t62 14.5q80 0 148.5 -26t138.5 -66q1 11 2.5 23t2.5 24h154z" />
    <glyph glyph-name="uni261B" unicode="&#x261b;" horiz-adv-x="957" 
d="M82 42v352h154l4 -47q70 40 138.5 66t149.5 26q32 0 62 -14.5t78 -19.5q12 -17 12 -32t-1 -19h168q31 0 45 -15.5t14 -36.5q0 -18 -12.5 -34.5t-46.5 -16.5l-132 -1q6 -10 6 -21q0 -22 -21 -40q11 -11 11 -28q0 -23 -22 -40q15 -15 15 -31q0 -29 -20 -37.5t-49 -8.5h-31
t-25 2l-40 -5t-74 -5q-29 0 -75.5 8t-149.5 48l-4 -50h-154z" />
    <glyph glyph-name="uni261C" unicode="&#x261c;" horiz-adv-x="927" 
d="M844 394v-352h-154q-2 12 -2.5 24.5t-1.5 25.5q-103 -40 -149.5 -48t-75.5 -8q-34 0 -74 5l-40 5q-9 -2 -25 -2h-31q-29 0 -49 8.5t-20 37.5q0 16 15 31q-22 17 -22 40q0 17 11 28q-21 18 -21 40q0 11 6 21l-102 1q-34 0 -46.5 16.5t-12.5 34.5q0 21 14 36.5t45 15.5h148
q-3 9 -3 19q0 14 7 30l7 16q38 15 74.5 21.5t71.5 6.5q80 0 149 -30.5t123 -65.5q1 11 1.5 22t2.5 21h154zM684 131q-3 51 -3 104q0 19 0.5 37.5t1.5 37.5q-62 36 -134.5 70.5t-145.5 34.5q-29 0 -58 -6.5t-57 -22.5l-0.5 -4.5t-0.5 -8.5q0 -9 19 -9q33 9 56 12t38 3
q23 0 33 -4.5t15 -7.5q16 -36 26.5 -57.5t36.5 -47.5q0 -18 -15 -31q-18 17 -39 40t-33 47h-318q-23 0 -23 -16q0 -15 23 -15l298 -2q27 -27 27 -55q0 -12 -3 -20t-7 -14l5 -12.5t5 -23.5q0 -21 -17 -41l2 -8.5t2 -14.5q0 -13 -4 -22l6 -1t41 -1q25 0 72.5 9t150.5 50z
M391 248h-148l-3 -7t-3 -12q0 -1 1.5 -9.5t4.5 -8.5l152 -4q0 5 -0.5 21t-3.5 20zM393 180h-140l-3.5 -7t-3.5 -12q0 -14 7 -18l142 -4v17q0 5 -0.5 14t-1.5 10zM379 112h-118l-3 -9t-3 -11q0 -15 36 -15h15t16 1q9 0 17.5 0.5t15.5 0.5h23q2 4 2 16v8t-1 9z" />
    <glyph glyph-name="uni261D" unicode="&#x261d;" horiz-adv-x="535" 
d="M72 -98v154l50 4q-40 103 -48 149.5t-8 75.5q0 34 5 74l5 40q-2 9 -2 25v31q0 29 8.5 49t37.5 20q16 0 31 -15q17 22 40 22q17 0 28 -11q18 21 40 21q11 0 21 -6l1 102q0 34 16.5 46.5t34.5 12.5q21 0 36.5 -14t15.5 -45v-148q9 3 19 3q14 0 30 -7l16 -7
q15 -38 21.5 -74.5t6.5 -71.5q0 -80 -30.5 -149.5t-65.5 -122.5l43 -4v-154h-352zM102 285q0 -26 9 -73t50 -150q22 1 44.5 1.5t44.5 0.5t45 -0.5t45 -1.5q36 62 70.5 135t34.5 146q0 29 -6.5 58t-22.5 57l-4.5 0.5t-8.5 0.5q-9 0 -9 -19q9 -33 12 -56t3 -38q0 -23 -4.5 -33
t-7.5 -15q-36 -16 -57.5 -26.5t-47.5 -36.5q-18 0 -31 15q17 18 40 39t47 33v318q0 23 -16 23q-15 0 -15 -23l-2 -298q-27 -27 -55 -27q-12 0 -20 3t-14 7l-12.5 -5t-23.5 -5q-21 0 -41 17l-8.5 -2t-14.5 -2q-13 0 -22 4l-1 -6t-1 -41zM278 355v148l-7 3t-12 3
q-1 0 -9.5 -1.5t-8.5 -4.5l-4 -152q5 0 21 0.5t20 3.5zM210 353v140l-7 3.5t-12 3.5q-14 0 -18 -7l-4 -142h17q5 0 14 0.5t10 1.5zM142 367v118l-9 3t-11 3q-15 0 -15 -36v-15t1 -16q0 -9 0.5 -17.5t0.5 -15.5v-23q4 -2 16 -2h8t9 1z" />
    <glyph glyph-name="uni261E" unicode="&#x261e;" horiz-adv-x="927" 
d="M83 42v352h154l4 -43q54 35 123 65.5t149 30.5q35 0 72 -6.5t74 -21.5l7 -16t7 -30q0 -10 -3 -19h148q32 0 45.5 -15.5t13.5 -36.5q0 -18 -12.5 -34.5t-46.5 -16.5l-102 -1q6 -10 6 -21q0 -22 -21 -40q11 -11 11 -28q0 -23 -22 -40q15 -15 15 -31q0 -29 -20.5 -37.5
t-48.5 -8.5h-31t-25 2l-40 -5t-74 -5q-29 0 -75.5 8t-149.5 48l-4 -50h-154zM524 415q-74 0 -146.5 -34.5t-134.5 -70.5q1 -22 1.5 -45t0.5 -45t-0.5 -44.5t-1.5 -44.5q102 -41 149.5 -50t73.5 -9q34 0 40.5 1l6.5 1q-4 9 -4 22q0 6 2 14.5l2 8.5q-17 20 -17 41q0 11 5 23.5
l5 12.5q-4 6 -7 14t-3 20q0 28 27 55l298 2q23 0 23 15q0 16 -23 16h-318q-12 -24 -33 -47t-39 -40q-15 13 -15 31q26 26 36.5 47.5t26.5 57.5q5 3 15 7.5t33 4.5q15 0 38 -3t56 -12q19 0 19 9q0 4 -0.5 8.5l-0.5 4.5q-28 16 -57 22.5t-58 6.5zM684 248h-148q-3 -4 -3.5 -20
t-0.5 -21l152 4q3 0 4.5 8.5t1.5 9.5q0 5 -3 12zM674 180h-140q-1 -1 -1.5 -10t-0.5 -14v-17l142 4q7 4 7 18q0 5 -3.5 12zM666 112h-118q-1 -2 -1 -9v-8q0 -12 2 -16h23q7 0 15.5 -0.5t17.5 -0.5q7 -1 15 -1h16q36 0 36 15q0 2 -3 11z" />
    <glyph glyph-name="uni261F" unicode="&#x261f;" horiz-adv-x="536" 
d="M72 696h352v-154q-10 -2 -21 -2.5t-22 -1.5q35 -54 65.5 -123t30.5 -149q0 -35 -6.5 -71.5t-21.5 -74.5l-16 -7t-30 -7q-10 0 -19 3v-148q0 -31 -15.5 -45t-36.5 -14q-18 0 -34.5 12.5t-16.5 46.5l-1 102q-10 -6 -21 -6q-22 0 -40 21q-11 -11 -28 -11q-23 0 -40 22
q-15 -15 -31 -15q-29 0 -37.5 20t-8.5 49v31t2 25l-5 40t-5 74q0 29 8 75.5t48 149.5q-13 1 -25.5 1.5t-24.5 2.5v154zM340 535q-19 -1 -37.5 -1.5t-37.5 -0.5q-53 0 -104 3q-41 -103 -50 -150.5t-9 -72.5q0 -35 1 -41l1 -6q9 4 22 4q6 0 14.5 -2l8.5 -2q20 17 41 17
q11 0 23.5 -5l12.5 -5q6 4 14 7t20 3q28 0 55 -27l2 -298q0 -23 15 -23q16 0 16 23v318q-24 12 -47 33t-40 39q13 15 31 15q26 -26 47.5 -36.5t57.5 -26.5q3 -5 7.5 -15t4.5 -33q0 -15 -3 -38t-12 -56q0 -19 9 -19q4 0 8.5 0.5l4.5 0.5q16 28 22.5 57t6.5 58
q0 73 -34.5 145.5t-70.5 134.5zM278 95v148q-4 3 -20 3.5t-21 0.5l4 -152q0 -3 8.5 -4.5t9.5 -1.5q5 0 12 3zM210 105v140q-1 1 -10 1.5t-14 0.5h-17l4 -142q4 -7 18 -7q5 0 12 3.5zM142 113v118q-2 1 -9 1h-8q-12 0 -16 -2v-23q0 -7 -0.5 -15.5t-0.5 -17.5q-1 -8 -1 -16
v-15q0 -36 15 -36q2 0 11 3z" />
    <glyph glyph-name="uni267E" unicode="&#x267e;" horiz-adv-x="612" 
d="M307 -7q-103 0 -170.5 70t-67.5 173q0 80 40.5 146.5t107.5 106.5t144 40q105 0 170.5 -71t65.5 -173q0 -81 -41 -147t-107 -105.5t-142 -39.5zM310 34q100 0 172.5 73t72.5 177q0 85 -53.5 144t-144.5 59q-103 0 -174.5 -73.5t-71.5 -174.5q0 -86 55 -145.5t144 -59.5z
M419 156q-37 0 -55.5 23.5t-30.5 52.5q-19 -29 -42 -52.5t-60 -23.5q-35 0 -57.5 25.5t-22.5 69.5q0 55 32 88t71 33q35 0 53.5 -24.5t31.5 -57.5q19 31 44 56.5t62 25.5q75 0 75 -94q0 -56 -30 -89t-71 -33zM439 336q-31 0 -51.5 -24t-37.5 -52q10 -26 25.5 -47.5
t44.5 -21.5q26 0 45.5 21t19.5 63q0 61 -46 61zM236 191q27 0 46 20.5t39 49.5q-13 29 -27 52t-43 23q-25 0 -45 -20.5t-20 -60.5q0 -64 50 -64z" />
    <glyph glyph-name="uni2713" unicode="&#x2713;" horiz-adv-x="641" 
d="M182 339l93 -158l215 415l94 -57l-310 -428l-175 152z" />
    <glyph glyph-name="uni301A" unicode="&#x301a;" horiz-adv-x="445" 
d="M33 -213l102 963h328l-6 -52h-112l-90 -859h112l-5 -52h-329zM189 698l-90 -859h96l90 859h-96z" />
    <glyph glyph-name="uni301B" unicode="&#x301b;" horiz-adv-x="444" 
d="M410 750l-102 -963h-328l6 52h112l90 859h-112l5 52h329zM344 698h-97l-90 -859h97z" />
    <glyph glyph-name="uniF8FF" unicode="&#xf8ff;" horiz-adv-x="1241" 
d="M671 338h-11v39h-19v-39h-11v70h11v-20h20v-10h10v-40zM611 338h-21v9h-10v30h-10v11h10v10h11v-10h20v-11h-20v-29h20v-10zM371 338h-21v9h-10v30h-10v11h10v10h11v-10h20v-11h-20v-29h20v-10zM1001 387h-10v-10h-11v11h10v10h11v-11zM951 377h-11v10h-10v11h11v-10h10
v-11zM261 377h-11v10h-10v11h11v-10h10v-11zM311 387h-10v-10h-11v11h10v10h11v-11zM431 347h-10v-9h-10v-10h-10v-10h-11v11h10v18h-10v41h11v-40h19v40h11v-41zM491 347h-10v-9h-20v-20h-11v70h31v-10h10v-31zM551 347h-10v-9h-21v9h-10v31h10v10h21v-10h10v-31zM731 338
h-31v9h-10v31h10v10h21v-10h10v-21h-30v-9h30v-10zM791 318h-11v20h-20v9h-10v31h10v10h31v-70zM851 338h-31v9h-10v41h11v-40h19v40h11v-50zM911 338h-31v9h-10v31h10v10h21v-10h10v-21h-30v-9h30v-10zM211 377h-11v11h11v-11zM171 377h-11v11h11v-11zM1041 377h-11v11h11
v-11zM1081 377h-11v11h11v-11zM291 357h-10v-10h-11v10h-10v11h10v10h11v-10h10v-11zM201 357h-10v-10h-11v10h-10v11h10v10h11v-10h10v-11zM131 357h-10v-10h-11v10h-10v11h10v10h11v-10h10v-11zM981 357h-10v-10h-11v10h-10v11h10v10h11v-10h10v-11zM1141 357h-10v-10h-11
v10h-10v11h10v10h11v-10h10v-11zM1071 357h-10v-10h-11v10h-10v11h10v10h11v-10h10v-11zM480 348v29h-19v-29h19zM540 348v29h-19v-29h19zM720 368v9h-19v-9h19zM780 348v29h-19v-29h19zM900 368v9h-19v-9h19zM211 338h-11v10h11v-10zM1081 338h-11v10h11v-10zM171 338h-11
v10h11v-10zM1041 338h-11v10h11v-10zM261 338h-10v-10h-11v10h10v10h11v-10zM1001 328h-11v10h-10v10h11v-10h10v-10zM311 328h-11v10h-10v10h11v-10h10v-10zM951 338h-10v-10h-11v10h10v10h11v-10z" />
    <glyph glyph-name="uni0030.zero" horiz-adv-x="566" 
d="M42 224q0 124 69.5 215t198.5 91q108 0 159 -66.5t51 -172.5q0 -132 -71 -216.5t-196 -84.5q-103 0 -157 62.5t-54 171.5zM118 232q0 -82 33 -129.5t109 -47.5q86 0 135 63t49 173q0 79 -32 126.5t-110 47.5q-90 0 -137 -63.5t-47 -169.5zM315 323l-12 -111h-55l12 111
h55z" />
    <glyph glyph-name="uni0069.TRK" horiz-adv-x="255" 
d="M125 560l9 91h74l-9 -91h-74zM36 426l21 19h126l-47 -388h75l-5 -40l-22 -17h-123l47 388h-77z" />
    <glyph glyph-name="uni00BF.cap" horiz-adv-x="437" 
d="M316 654l-10 -97h-87l10 97h87zM331 194l57 -5l-21 -120q-32 -30 -80 -52.5t-103 -22.5q-67 0 -117.5 33t-50.5 95q0 52 34.5 87.5t79 63t79 53.5t34.5 60q0 37 -48 37l5 50q66 4 92 -19.5t26 -58.5q0 -48 -34 -79.5t-78 -57t-78 -54t-34 -69.5q0 -76 104 -76
q60 0 110 39z" />
    <glyph glyph-name="uni003F.smcp" horiz-adv-x="373" 
d="M97 355l-52 4l21 120q65 50 148 50q63 0 103.5 -27t40.5 -75q0 -42 -28.5 -70.5t-65.5 -49.5t-65.5 -41t-28.5 -47q0 -28 39 -28l-4 -44q-59 -4 -83 15t-24 49q0 38 28 64t64 46.5t64 41.5t28 51q0 59 -80 59q-45 0 -83 -25zM102 0l9 92h85l-9 -92h-85z" />
    <glyph glyph-name="uni00BF.smcp" horiz-adv-x="382" 
d="M284 523l-9 -92h-85l9 92h85zM289 168l52 -4l-21 -120q-65 -50 -148 -50q-63 0 -103.5 27t-40.5 75q0 42 28.5 70.5t65.5 49.5t65.5 41t28.5 47q0 28 -39 28l4 44q59 4 83 -15t24 -49q0 -38 -28 -64t-64 -46.5t-64 -41.5t-28 -51q0 -59 80 -59q45 0 83 25z" />
    <glyph glyph-name="uni00A1.cap" horiz-adv-x="238" 
d="M200 654l-10 -97h-88l11 97h87zM49 4l63 458h53l-34 -458h-82z" />
    <glyph glyph-name="uni0021.smcp" horiz-adv-x="228" 
d="M179 521l-53 -364h-50l24 364h79zM45 0l10 92h84l-9 -92h-85z" />
    <glyph glyph-name="uni00A1.smcp" horiz-adv-x="229" 
d="M180 524l-10 -92h-84l9 92h85zM46 3l53 364h50l-24 -364h-79z" />
    <glyph glyph-name="uni203D.smcp" horiz-adv-x="551" 
d="M205 167l-46 -19l-109 350l76 25zM274 391l-49 15l32 89q48 27 109 27q67 0 117.5 -31.5t50.5 -89.5q0 -51 -36.5 -78.5t-86 -47.5t-91.5 -46t-52 -74l-45 14q7 53 43.5 81.5t81 47t77.5 39.5t33 59q0 40 -37.5 56t-64.5 16q-22 0 -50 -10zM161 0l9 92h85l-10 -92h-84z
" />
    <glyph glyph-name="uni002D.cap" horiz-adv-x="343" 
d="M67 368h228l-6 -61h-228z" />
    <glyph glyph-name="uni2013.cap" horiz-adv-x="611" 
d="M67 367h492l-5 -51h-492z" />
    <glyph glyph-name="uni2014.cap" horiz-adv-x="1056" 
d="M75 367h921l-6 -51h-921z" />
    <glyph glyph-name="uni002F.smcp" horiz-adv-x="303" 
d="M295 521l-226 -521h-64l227 521h63z" />
    <glyph glyph-name="uni005C.smcp" horiz-adv-x="392" 
d="M49 521h63l227 -521h-64z" />
    <glyph glyph-name="uni0028.cap" horiz-adv-x="263" 
d="M227 688h66q-97 -109 -143 -207t-46 -208q0 -178 112 -326h-68q-53 73 -79 158t-26 165q0 112 48 215t136 203z" />
    <glyph glyph-name="uni0029.cap" horiz-adv-x="263" 
d="M45 -53h-66q97 109 143 207t46 208q0 178 -112 326h68q53 -74 79 -159t26 -164q0 -113 -48 -215.5t-136 -202.5z" />
    <glyph glyph-name="uni005B.cap" horiz-adv-x="285" 
d="M49 -63l82 775h172l-6 -52h-112l-70 -671h112l-6 -52h-172z" />
    <glyph glyph-name="uni005D.cap" horiz-adv-x="284" 
d="M245 712l-82 -775h-172l6 52h112l70 671h-112l6 52h172z" />
    <glyph glyph-name="uni007B.cap" horiz-adv-x="289" 
d="M115 325q47 -7 67 -29t20 -48q0 -37 -24 -64.5t-48.5 -59t-24.5 -80.5q0 -54 55 -54h63l-4 -52h-63q-110 0 -110 100q0 56 24 90.5t48 61t24 58.5q0 37 -34 47t-56 10h-19l5 40h19q23 0 62.5 12.5t39.5 55.5q0 37 -27.5 71t-27.5 95t34.5 96.5t98.5 35.5h63l-6 -52h-63
q-69 0 -69 -77q0 -56 29 -89.5t29 -75.5q0 -29 -23.5 -56t-81.5 -36z" />
    <glyph glyph-name="uni007D.cap" horiz-adv-x="288" 
d="M183 324q-47 8 -67 30t-20 47q0 37 24 64.5t48.5 59t24.5 80.5q0 54 -55 54h-63l4 52h63q110 0 110 -100q0 -56 -24 -90.5t-48 -60.5t-24 -59q0 -37 34 -47t56 -10h19l-5 -40h-19q-23 0 -62.5 -12t-39.5 -56q0 -38 27.5 -71.5t27.5 -94.5q0 -62 -34.5 -97t-98.5 -35h-63
l6 52h63q69 0 69 77q0 55 -29 89t-29 76q0 29 23.5 56t81.5 36z" />
    <glyph glyph-name="uni301A.cap" horiz-adv-x="440" 
d="M49 -63l82 774h328l-5 -52h-112l-71 -670h112l-5 -52h-329zM185 659l-70 -670h96l70 670h-96z" />
    <glyph glyph-name="uni301B.cap" horiz-adv-x="440" 
d="M402 711l-82 -774h-328l5 52h112l71 670h-112l5 52h329zM336 659h-97l-70 -670h97z" />
    <glyph glyph-name="uni00B6.smcp" horiz-adv-x="523" 
d="M512 521l-7 -54h-61l-49 -467h-63l49 467h-48l-49 -467h-63l26 249h-46q-70 0 -116 28.5t-46 95.5q0 61 49.5 104.5t146.5 43.5h277z" />
    <glyph glyph-name="uni0023.pnum_lnum" horiz-adv-x="570" 
d="M530 651l-53 -178h81l-7 -57h-90l-49 -164h92l-6 -57h-102l-57 -195h-62l57 195h-173l-57 -195h-61l57 195h-74l6 57h84l48 164h-86l7 57h96l52 178h63l-53 -178h172l52 178h63zM178 252h172l48 164h-171z" />
    <glyph glyph-name="uni0025.pnum_lnum" horiz-adv-x="644" 
d="M180 345q-56 0 -90 34.5t-34 101.5q0 80 47.5 129.5t115.5 49.5q57 0 90.5 -35t33.5 -100q0 -76 -46 -128t-117 -52zM598 650l-239 -322l-233 -328h-74l263 349l210 301h73zM187 399q48 0 72 35.5t24 85.5q0 87 -71 87q-43 0 -69.5 -32.5t-26.5 -88.5q0 -87 71 -87z
M437 -10q-55 0 -90 34.5t-35 101.5q0 80 48 129.5t116 49.5q56 0 89.5 -35t33.5 -100q0 -76 -45.5 -128t-116.5 -52zM443 43q49 0 72.5 35.5t23.5 85.5q0 87 -70 87q-44 0 -70 -32.5t-26 -87.5q0 -88 70 -88z" />
    <glyph glyph-name="uni2030.pnum_lnum" horiz-adv-x="947" 
d="M180 345q-56 0 -90 34.5t-34 101.5q0 80 47.5 129.5t115.5 49.5q57 0 90.5 -35t33.5 -100q0 -76 -46 -128t-117 -52zM598 650l-239 -322l-233 -328h-74l263 349l210 301h73zM187 399q48 0 72 35.5t24 85.5q0 87 -71 87q-43 0 -69.5 -32.5t-26.5 -88.5q0 -87 71 -87z
M437 -10q-55 0 -90 34.5t-35 101.5q0 80 48 129.5t116 49.5q56 0 89.5 -35t33.5 -100q0 -76 -45.5 -128t-116.5 -52zM743 -10q-55 0 -89.5 34.5t-34.5 101.5q0 80 48 129.5t116 49.5q56 0 89.5 -35.5t33.5 -99.5q0 -76 -46 -128t-117 -52zM443 43q49 0 72.5 35.5t23.5 85.5
q0 87 -70 87q-44 0 -70 -32.5t-26 -87.5q0 -88 70 -88zM749 43q48 0 72 35.5t24 85.5q0 87 -69 87q-44 0 -70 -33t-26 -87q0 -88 69 -88z" />
    <glyph glyph-name="uni00AA.smcp" horiz-adv-x="410" 
d="M56 438h28l121 219h-43l5 41h112l83 -260h29l-4 -42h-121l4 42h38l-13 46h-136l-24 -46h41l-4 -42h-120zM244 647l-69 -131h110l-38 131h-3z" />
    <glyph glyph-name="uni201C.smcp" horiz-adv-x="369" 
d="M197 548l-74 -216h-68l74 216h68zM358 548l-74 -216h-68l74 216h68z" />
    <glyph glyph-name="uni201D.smcp" horiz-adv-x="369" 
d="M54 334l74 216h68l-74 -216h-68zM215 334l74 216h68l-74 -216h-68z" />
    <glyph glyph-name="uni2018.smcp" horiz-adv-x="208" 
d="M197 548l-74 -216h-68l74 216h68z" />
    <glyph glyph-name="uni2019.smcp" horiz-adv-x="208" 
d="M54 334l74 216h68l-74 -216h-68z" />
    <glyph glyph-name="uni203A.cap" horiz-adv-x="283" 
d="M87 85h-59l151 246l-100 240h59l111 -240z" />
    <glyph glyph-name="uni2039.cap" horiz-adv-x="281" 
d="M214 85h-59l-109 246l160 240h59l-152 -240z" />
    <glyph glyph-name="uni00AB.cap" horiz-adv-x="442" 
d="M214 85h-59l-109 246l160 240h59l-152 -240zM374 85h-59l-109 246l160 240h59l-151 -240z" />
    <glyph glyph-name="uni00BB.cap" horiz-adv-x="443" 
d="M247 85h-58l152 246l-101 240h58l111 -240zM87 85h-59l152 246l-101 240h59l110 -240z" />
    <glyph glyph-name="uni00B7.smcp" horiz-adv-x="224" 
d="M58 202l10 101h93l-10 -101h-93z" />
    <glyph glyph-name="uni0030.smcp_zero" horiz-adv-x="494" 
d="M40 214q0 80 22.5 152.5t74 117.5t137.5 45q105 0 140.5 -70t35.5 -156q0 -69 -20 -141t-71 -121t-142 -49q-96 0 -136.5 62t-40.5 160zM113 219q0 -77 22 -123t88 -46q84 0 119 74t35 180q0 73 -21.5 121t-88.5 48q-81 0 -117.5 -70.5t-36.5 -183.5zM277 313l-9 -89h-54
l9 89h54z" />
    <glyph glyph-name="uni0030.smcp" horiz-adv-x="494" 
d="M40 214q0 80 22.5 152.5t74 117.5t137.5 45q105 0 140.5 -70t35.5 -156q0 -69 -20 -141t-71 -121t-142 -49q-96 0 -136.5 62t-40.5 160zM113 219q0 -77 22 -123t88 -46q84 0 119 74t35 180q0 73 -21.5 121t-88.5 48q-81 0 -117.5 -70.5t-36.5 -183.5z" />
    <glyph glyph-name="uni0031.smcp" horiz-adv-x="326" 
d="M15 56h104l43 409h-104l6 56h173l-49 -465h100l-6 -56h-273z" />
    <glyph glyph-name="uni0032.smcp" horiz-adv-x="449" 
d="M106 372l-55 7l27 107q33 19 73 31t86 12q86 0 121 -40.5t35 -86.5q0 -66 -49.5 -132t-117.5 -122t-123 -92h220l20 88l59 -4l-24 -140h-363l-1 54q148 105 225.5 187t77.5 153q0 37 -21.5 58.5t-71.5 21.5q-29 0 -51 -7t-41 -18z" />
    <glyph glyph-name="uni0033.smcp" horiz-adv-x="441" 
d="M122 370l-51 7l25 109q25 16 63.5 29.5t83.5 13.5q62 0 104 -29.5t42 -85.5q0 -43 -27 -79.5t-92 -56.5v-4q63 -8 88.5 -41.5t25.5 -77.5q0 -72 -54 -118.5t-139 -46.5q-66 0 -106.5 27t-52.5 64l53 31q13 -31 37 -48.5t68 -17.5q70 0 95.5 36t25.5 74q0 44 -32 66.5
t-109 25.5l5 46q66 4 103.5 31.5t37.5 73.5q0 75 -88 75q-42 0 -80 -21z" />
    <glyph glyph-name="uni0034.smcp" horiz-adv-x="461" 
d="M250 0l14 133h-252l-1 55l222 333h140l-35 -333h85l-12 -55h-79l-14 -133h-68zM258 465l-181 -277h193l29 277h-41z" />
    <glyph glyph-name="uni0035.smcp" horiz-adv-x="435" 
d="M387 166q0 -83 -57.5 -128.5t-140.5 -45.5q-55 0 -100.5 19.5t-64.5 55.5l45 37q43 -55 118 -55q56 0 90.5 27.5t34.5 82.5q0 65 -45 86t-107 21q-34 0 -70 -3l-21 21l26 237h302l-8 -133l-56 -5l-1 82h-180l-15 -144h39q82 0 146.5 -32t64.5 -123z" />
    <glyph glyph-name="uni0036.smcp" horiz-adv-x="458" 
d="M401 182q0 -74 -47.5 -132t-146.5 -58q-95 0 -131 58t-36 154q0 82 22.5 156.5t73 121.5t132.5 47q57 0 93 -21.5t55 -47.5l-37 -41q-22 27 -47.5 41.5t-61.5 14.5q-79 0 -116 -66.5t-41 -173.5q13 33 50 61.5t89 28.5q74 0 111.5 -41t37.5 -102zM330 176q0 94 -96 94
q-61 0 -89.5 -38t-32.5 -73q2 -49 23 -79t78 -30q64 0 90.5 37t26.5 89z" />
    <glyph glyph-name="uni0037.smcp" horiz-adv-x="395" 
d="M54 521h344l6 -36l-251 -485h-70l245 466h-218l-9 -89h-62z" />
    <glyph glyph-name="uni0038.smcp" horiz-adv-x="461" 
d="M406 143q0 -70 -61 -110.5t-149 -40.5q-74 0 -121.5 31t-47.5 95q0 62 41.5 94t96.5 55q-39 20 -67 47.5t-28 72.5q0 61 50.5 101.5t135.5 40.5q72 0 115 -32.5t43 -87.5q0 -53 -36.5 -82t-85.5 -49q45 -22 79.5 -52t34.5 -83zM145 398q0 -36 29.5 -58t69.5 -40
q42 18 72 40.5t30 61.5q0 38 -27.5 56t-67.5 18q-48 0 -77 -22t-29 -56zM98 130q0 -41 29.5 -62.5t77.5 -21.5q53 0 89.5 24t36.5 64q0 42 -37.5 65.5t-83.5 44.5q-45 -19 -78.5 -44t-33.5 -70z" />
    <glyph glyph-name="uni0039.smcp" horiz-adv-x="458" 
d="M54 339q0 73 47 131.5t147 58.5q94 0 130 -58t36 -154q0 -83 -22.5 -157t-72.5 -121t-132 -47q-58 0 -93.5 21.5t-54.5 47.5l37 42q43 -57 108 -57q80 0 117 67t40 173q-12 -33 -49.5 -61.5t-89.5 -28.5q-74 0 -111 41t-37 102zM125 345q0 -94 96 -94q60 0 88.5 38.5
t32.5 72.5q-2 50 -23 80t-78 30q-64 0 -90 -37t-26 -90z" />
    <glyph glyph-name="uni0030.pnum_lnum_zero" horiz-adv-x="567" 
d="M48 262q0 102 27.5 193t88 148t160.5 57q81 0 125.5 -38.5t61.5 -102t17 -136.5q0 -168 -65.5 -280.5t-210.5 -112.5q-116 0 -160 77t-44 195zM124 271q0 -97 27 -156.5t109 -59.5q72 0 114 45.5t60.5 120t18.5 162.5q0 90 -25.5 151t-110.5 61q-101 0 -147 -90.5
t-46 -233.5zM324 391l-12 -111h-57l12 111h57z" />
    <glyph glyph-name="uni0030.pnum_lnum" horiz-adv-x="567" 
d="M48 262q0 102 27.5 193t88 148t160.5 57q81 0 125.5 -38.5t61.5 -102t17 -136.5q0 -168 -65.5 -280.5t-210.5 -112.5q-116 0 -160 77t-44 195zM124 271q0 -97 27 -156.5t109 -59.5q72 0 114 45.5t60.5 120t18.5 162.5q0 90 -25.5 151t-110.5 61q-101 0 -147 -90.5
t-46 -233.5z" />
    <glyph glyph-name="uni0031.pnum_lnum" horiz-adv-x="365" 
d="M15 64h123l55 522h-124l7 64h195l-62 -586h121l-6 -64h-316z" />
    <glyph glyph-name="uni0032.pnum_lnum" horiz-adv-x="507" 
d="M127 482l-56 7l31 117q65 54 174 54q91 0 135 -43t44 -110q0 -69 -38.5 -134.5t-95.5 -123t-115.5 -105t-97.5 -80.5h261l24 92l63 -7l-32 -149h-411l-1 57q78 67 163 140t143.5 148t58.5 147q0 46 -28.5 75.5t-91.5 29.5q-23 0 -51 -5.5t-51 -21.5z" />
    <glyph glyph-name="uni0033.pnum_lnum" horiz-adv-x="507" 
d="M153 492l-56 7l28 110q29 19 73 35.5t94 16.5q71 0 120.5 -36.5t49.5 -106.5q0 -52 -30 -99t-110 -71v-4q76 -14 105 -56t29 -89q0 -94 -63 -152t-167 -58q-91 0 -136.5 41t-51.5 100l58 20q10 -40 40 -69t92 -29q89 0 120 49t31 97q0 52 -38.5 81.5t-133.5 32.5l5 54
q104 5 138.5 50.5t34.5 87.5q0 94 -113 94q-46 0 -92 -24z" />
    <glyph glyph-name="uni0034.pnum_lnum" horiz-adv-x="526" 
d="M370 -1h-71l18 167h-303l-1 62l273 423h152l-44 -423h104l-15 -62h-95zM323 228l38 360h-50l-230 -360h242z" />
    <glyph glyph-name="uni0035.pnum_lnum" horiz-adv-x="496" 
d="M451 209q0 -99 -60.5 -159t-166.5 -60q-89 0 -134.5 40.5t-50.5 99.5l58 20q9 -44 39 -71t88 -27q75 0 112.5 42t37.5 107q0 85 -54.5 110t-132.5 25q-41 0 -83 -3l-22 24l32 294h354l-5 -138l-61 -6l-3 81h-225l-21 -191q12 1 25 1h24q100 0 174.5 -36.5t74.5 -152.5z
" />
    <glyph glyph-name="uni0036.pnum_lnum" horiz-adv-x="526" 
d="M472 229q0 -91 -54 -165t-173 -74q-112 0 -154 72t-42 193q0 99 26 192t86.5 153t164.5 60q111 0 173 -88l-48 -44q-48 69 -134 69q-91 0 -138 -81.5t-55 -224.5q18 41 64 76.5t123 35.5q88 0 124.5 -50t36.5 -124zM399 219q0 59 -25.5 90t-85.5 31q-81 0 -118.5 -47
t-46.5 -93q1 -63 28 -103.5t100 -40.5q79 0 113.5 47.5t34.5 115.5z" />
    <glyph glyph-name="uni0037.pnum_lnum" horiz-adv-x="450" 
d="M66 651h403l6 -42l-303 -609h-76l300 588h-272l-12 -111h-65z" />
    <glyph glyph-name="uni0038.pnum_lnum" horiz-adv-x="528" 
d="M229 -10q-86 0 -142 39t-56 118q0 78 52 118t119 67q-48 26 -83 60t-35 91q0 75 63 126t157 51q80 0 133 -40t53 -110q0 -67 -46 -103.5t-107 -62.5q54 -26 95.5 -63.5t41.5 -104.5q0 -85 -70.5 -135.5t-174.5 -50.5zM160 494q0 -47 38.5 -74.5t89.5 -51.5q52 22 90 52
t38 82q0 50 -34 73t-83 23q-59 0 -99 -28t-40 -76zM240 52q64 0 111.5 30.5t47.5 84.5t-46 84t-103 56q-57 -25 -101.5 -56.5t-44.5 -90.5q0 -53 38.5 -80.5t97.5 -27.5z" />
    <glyph glyph-name="uni0039.pnum_lnum" horiz-adv-x="526" 
d="M64 421q0 91 54 165t173 74q112 0 154 -72t42 -193q0 -99 -26 -192t-86.5 -153t-164.5 -60q-111 0 -173 88l48 44q48 -69 134 -69q91 0 138 81.5t55 224.5q-18 -41 -64 -76.5t-123 -35.5q-88 0 -124.5 50t-36.5 124zM137 431q0 -59 25.5 -90t85.5 -31q81 0 118.5 47
t46.5 93q-1 63 -28 103.5t-100 40.5q-79 0 -113.5 -47.5t-34.5 -115.5z" />
    <glyph glyph-name="uni0030.tnum_lnum_zero" horiz-adv-x="600" 
d="M64 262q0 102 27.5 193t88 148t160.5 57q81 0 125.5 -38.5t62 -102t17.5 -136.5q0 -168 -66 -280.5t-211 -112.5q-116 0 -160 77t-44 195zM140 271q0 -97 27 -156.5t109 -59.5q72 0 114 45.5t60.5 120t18.5 162.5q0 90 -25.5 151t-110.5 61q-101 0 -147 -90.5t-46 -233.5
zM339 391l-12 -111h-56l12 111h56z" />
    <glyph glyph-name="uni0030.tnum_lnum" horiz-adv-x="600" 
d="M64 262q0 102 27.5 193t88 148t160.5 57q81 0 125.5 -38.5t62 -102t17.5 -136.5q0 -168 -66 -280.5t-211 -112.5q-116 0 -160 77t-44 195zM140 271q0 -97 27 -156.5t109 -59.5q72 0 114 45.5t60.5 120t18.5 162.5q0 90 -25.5 151t-110.5 61q-101 0 -147 -90.5t-46 -233.5
z" />
    <glyph glyph-name="uni0031.tnum_lnum" horiz-adv-x="600" 
d="M132 64h123l55 522h-124l6 64h196l-62 -586h122l-7 -64h-317z" />
    <glyph glyph-name="uni0032.tnum_lnum" horiz-adv-x="600" 
d="M174 482l-56 7l30 117q67 54 175 54q91 0 135 -43t44 -110q0 -69 -38.5 -134.5t-95.5 -123t-115.5 -105t-97.5 -80.5h261l24 92l63 -7l-32 -149h-412l-1 57q79 67 164 140t143.5 148t58.5 147q0 46 -28.5 75.5t-92.5 29.5q-23 0 -50.5 -5.5t-50.5 -21.5z" />
    <glyph glyph-name="uni0033.tnum_lnum" horiz-adv-x="600" 
d="M200 492l-56 7l28 110q28 19 73 35.5t94 16.5q71 0 120.5 -36.5t49.5 -106.5q0 -52 -30 -99t-110 -71v-4q77 -14 105.5 -56t28.5 -89q0 -94 -63.5 -152t-166.5 -58q-91 0 -136.5 41t-51.5 100l58 20q11 -40 41 -69t91 -29q89 0 120 49t31 97q0 52 -38.5 81.5t-133.5 32.5
l5 54q103 5 138 50.5t35 87.5q0 94 -113 94q-46 0 -92 -24z" />
    <glyph glyph-name="uni0034.tnum_lnum" horiz-adv-x="600" 
d="M407 -1h-71l18 167h-303l-1 62l273 423h152l-44 -423h104l-15 -62h-95zM360 228l38 360h-50l-230 -360h242z" />
    <glyph glyph-name="uni0035.tnum_lnum" horiz-adv-x="600" 
d="M504 209q0 -99 -60 -159t-167 -60q-89 0 -134.5 40.5t-50.5 99.5l58 20q9 -44 39 -71t88 -27q75 0 112.5 42t37.5 107q0 85 -54.5 110t-132.5 25q-41 0 -83 -3l-22 24l32 294h354l-5 -138l-61 -6l-3 81h-225l-21 -191q12 1 25 1h24q100 0 174.5 -36.5t74.5 -152.5z" />
    <glyph glyph-name="uni0036.tnum_lnum" horiz-adv-x="600" 
d="M508 229q0 -91 -54 -165t-173 -74q-112 0 -154 72t-42 193q0 99 26 192t86.5 153t164.5 60q111 0 173 -88l-48 -44q-48 69 -134 69q-91 0 -138 -81.5t-55 -224.5q18 41 64 76.5t123 35.5q88 0 124.5 -50t36.5 -124zM435 219q0 59 -25.5 90t-85.5 31q-81 0 -118.5 -47
t-46.5 -93q1 -63 28 -103.5t100 -40.5q79 0 113.5 47.5t34.5 115.5z" />
    <glyph glyph-name="uni0037.tnum_lnum" horiz-adv-x="600" 
d="M141 651h403l6 -42l-303 -609h-76l300 588h-272l-12 -111h-65z" />
    <glyph glyph-name="uni0038.tnum_lnum" horiz-adv-x="600" 
d="M265 -10q-86 0 -142 39t-56 118q0 78 52 118t119 67q-48 26 -83 60t-35 91q0 75 63 126t157 51q80 0 133 -40t53 -110q0 -67 -46 -103.5t-107 -62.5q54 -26 95.5 -63.5t41.5 -104.5q0 -85 -70.5 -135.5t-174.5 -50.5zM196 494q0 -47 38.5 -74.5t89.5 -51.5q52 22 90 52
t38 82q0 50 -34 73t-83 23q-59 0 -99 -28t-40 -76zM276 52q64 0 111.5 30.5t47.5 84.5t-46 84t-103 56q-57 -25 -101.5 -56.5t-44.5 -90.5q0 -53 38.5 -80.5t97.5 -27.5z" />
    <glyph glyph-name="uni0039.tnum_lnum" horiz-adv-x="600" 
d="M101 421q0 91 54 165t173 74q112 0 154 -72t42 -193q0 -99 -26 -192t-86.5 -153t-164.5 -60q-111 0 -173 88l48 44q48 -69 134 -69q92 0 138.5 81.5t54.5 224.5q-18 -41 -64.5 -76.5t-122.5 -35.5q-88 0 -124.5 50t-36.5 124zM174 431q0 -59 25.5 -90t85.5 -31
q81 0 118.5 47t46.5 93q-2 63 -28 103.5t-100 40.5q-80 0 -114 -47.5t-34 -115.5z" />
    <glyph glyph-name="uni0030.tnum_onum_zero" horiz-adv-x="600" 
d="M58 224q0 124 69.5 215t198.5 91q108 0 159 -66.5t51 -172.5q0 -132 -71 -216.5t-196 -84.5q-103 0 -157 62.5t-54 171.5zM134 232q0 -82 33 -129.5t109 -47.5q86 0 135 63t49 173q0 79 -32 126.5t-110 47.5q-90 0 -137 -63.5t-47 -169.5zM333 321l-12 -111h-56l12 111
h56z" />
    <glyph glyph-name="uni0030.tnum_onum" horiz-adv-x="600" 
d="M58 224q0 124 69.5 215t198.5 91q108 0 159 -66.5t51 -172.5q0 -132 -71 -216.5t-196 -84.5q-103 0 -157 62.5t-54 171.5zM134 232q0 -82 33 -129.5t109 -47.5q86 0 135 63t49 173q0 79 -32 126.5t-110 47.5q-90 0 -137 -63.5t-47 -169.5z" />
    <glyph glyph-name="uni0031.tnum_onum" horiz-adv-x="600" 
d="M141 64h120l41 393h-119l6 64h191l-48 -457h115l-7 -64h-306z" />
    <glyph glyph-name="uni0032.tnum_onum" horiz-adv-x="600" 
d="M169 362l-56 7l29 118q38 21 88 32.5t94 11.5q89 0 125.5 -44.5t36.5 -96.5q0 -73 -56 -134.5t-131 -109.5t-134 -82h253l18 83l58 -5l-24 -142h-398l-1 57q156 101 246.5 172t90.5 150q0 89 -108 89q-20 0 -50 -6t-56 -17z" />
    <glyph glyph-name="uni0033.tnum_onum" horiz-adv-x="600" 
d="M187 362l-56 7l28 110q29 19 73 35.5t94 16.5q71 0 120.5 -36.5t49.5 -106.5q0 -52 -30 -99t-110 -71v-4q76 -14 105 -56t29 -89q0 -94 -63 -152t-167 -58q-91 0 -136.5 41t-51.5 100l58 20q10 -40 40 -69t92 -29q89 0 120 49t31 97q0 52 -38.5 81.5t-133.5 32.5l5 54
q104 5 138.5 50.5t34.5 87.5q0 94 -113 94q-46 0 -92 -24z" />
    <glyph glyph-name="uni0034.tnum_onum" horiz-adv-x="600" 
d="M395 -131h-71l18 167h-303l-1 62l273 423h152l-44 -423h104l-15 -62h-95zM348 98l38 360h-50l-230 -360h242z" />
    <glyph glyph-name="uni0035.tnum_onum" horiz-adv-x="600" 
d="M488 79q0 -99 -60 -159t-167 -60q-89 0 -134.5 40.5t-50.5 99.5l58 20q9 -44 39 -71t88 -27q75 0 112.5 42t37.5 107q0 85 -54.5 110t-132.5 25q-41 0 -83 -3l-22 24l32 294h354l-5 -138l-61 -6l-3 81h-225l-21 -191q12 1 25 1h24q100 0 174.5 -36.5t74.5 -152.5z" />
    <glyph glyph-name="uni0036.tnum_onum" horiz-adv-x="600" 
d="M508 229q0 -91 -54 -165t-173 -74q-112 0 -154 72t-42 193q0 99 26 192t86.5 153t164.5 60q111 0 173 -88l-48 -44q-48 69 -134 69q-91 0 -138 -81.5t-55 -224.5q18 41 64 76.5t123 35.5q88 0 124.5 -50t36.5 -124zM435 219q0 59 -25.5 90t-85.5 31q-81 0 -118.5 -47
t-46.5 -93q1 -63 28 -103.5t100 -40.5q79 0 113.5 47.5t34.5 115.5z" />
    <glyph glyph-name="uni0037.tnum_onum" horiz-adv-x="600" 
d="M127 521h403l6 -42l-303 -609h-76l300 588h-272l-12 -111h-65z" />
    <glyph glyph-name="uni0038.tnum_onum" horiz-adv-x="600" 
d="M265 -10q-86 0 -142 39t-56 118q0 78 52 118t119 67q-48 26 -83 60t-35 91q0 75 63 126t157 51q80 0 133 -40t53 -110q0 -67 -46 -103.5t-107 -62.5q54 -26 95.5 -63.5t41.5 -104.5q0 -85 -70.5 -135.5t-174.5 -50.5zM196 494q0 -47 38.5 -74.5t89.5 -51.5q52 22 90 52
t38 82q0 50 -34 73t-83 23q-59 0 -99 -28t-40 -76zM276 52q64 0 111.5 30.5t47.5 84.5t-46 84t-103 56q-57 -25 -101.5 -56.5t-44.5 -90.5q0 -53 38.5 -80.5t97.5 -27.5z" />
    <glyph glyph-name="uni0039.tnum_onum" horiz-adv-x="600" 
d="M87 291q0 91 54 165t173 74q112 0 154 -72t42 -193q0 -99 -26 -192t-86.5 -153t-164.5 -60q-111 0 -173 88l48 44q48 -69 134 -69q92 0 138.5 81.5t54.5 224.5q-18 -41 -64.5 -76.5t-122.5 -35.5q-88 0 -124.5 50t-36.5 124zM160 301q0 -59 25.5 -90t85.5 -31
q81 0 118.5 47t46.5 93q-2 63 -28 103.5t-100 40.5q-80 0 -114 -47.5t-34 -115.5z" />
    <glyph glyph-name="uni0030.numr" horiz-adv-x="373" 
d="M57 441q0 41 13.5 92.5t49.5 89t106 37.5q78 0 104 -49t26 -110q0 -80 -36.5 -148.5t-131.5 -68.5q-74 0 -102.5 45t-28.5 112zM118 446q0 -52 15 -83.5t59 -31.5q56 0 79.5 48.5t23.5 122.5q0 49 -14 80t-59 31q-55 0 -79.5 -46t-24.5 -121z" />
    <glyph glyph-name="uni0031.numr" horiz-adv-x="255" 
d="M41 333h72l29 274h-73l4 45h131l-34 -319h72l-5 -45h-202z" />
    <glyph glyph-name="uni0032.numr" horiz-adv-x="340" 
d="M113 542l-43 5l19 76q46 37 114 37q59 0 86.5 -27t27.5 -63q0 -48 -39.5 -94t-88.5 -83t-77 -58h154l12 53l48 -5l-18 -93h-268l-1 41q47 36 96.5 75.5t83.5 79.5t34 79q0 21 -14 35.5t-49 14.5q-32 0 -57 -17z" />
    <glyph glyph-name="uni0033.numr" horiz-adv-x="336" 
d="M120 548l-43 5l16 69q24 20 55.5 28.5t59.5 8.5q47 0 77.5 -22t30.5 -61q0 -28 -19 -53.5t-63 -38.5v-2q44 -7 61.5 -30.5t17.5 -53.5q0 -55 -42.5 -85t-100.5 -30q-52 0 -86 25t-36 72l43 12q2 -24 21.5 -44t57.5 -20q40 0 60.5 21.5t20.5 50.5q0 28 -21.5 43t-74.5 17
l4 38q50 2 72.5 21.5t22.5 46.5q0 48 -58 48q-30 0 -59 -16z" />
    <glyph glyph-name="uni0034.numr" horiz-adv-x="349" 
d="M206 288l10 94h-177l-1 44l151 226h111l-24 -228h62l-10 -42h-56l-10 -94h-56zM211 607l-122 -183h131l20 183h-29z" />
    <glyph glyph-name="uni0035.numr" horiz-adv-x="329" 
d="M309 403q0 -61 -41.5 -91.5t-99.5 -30.5q-56 0 -90 26t-35 71l43 12q2 -25 24 -44.5t60 -19.5q78 0 78 74q0 43 -29.5 56.5t-72.5 13.5q-13 0 -25.5 -1t-25.5 -2l-17 16l16 169h219v-1l1 1l-5 -90l-46 -5v50h-120l-10 -95h26q61 0 105.5 -22.5t44.5 -86.5z" />
    <glyph glyph-name="uni0036.numr" horiz-adv-x="343" 
d="M227 615q-59 0 -84 -44.5t-28 -109.5q12 23 37 40.5t65 17.5q47 0 74.5 -27.5t27.5 -73.5q0 -51 -34.5 -92.5t-104.5 -41.5q-62 0 -93 40.5t-31 109.5q0 88 41.5 157t126.5 69q25 0 54 -10t52 -39l-35 -34q-18 25 -35 31.5t-33 6.5zM201 475q-42 0 -61.5 -21.5
t-24.5 -44.5q2 -37 17.5 -57.5t52.5 -20.5q42 0 58 23.5t16 58.5q0 62 -58 62z" />
    <glyph glyph-name="uni0037.numr" horiz-adv-x="302" 
d="M66 652h251l4 -27l-176 -337h-57l170 319h-146l-7 -62h-49z" />
    <glyph glyph-name="uni0038.numr" horiz-adv-x="346" 
d="M170 284q-54 0 -88.5 21.5t-34.5 67.5q0 43 30.5 66t66.5 36q-28 15 -48 34t-20 49q0 44 38.5 73t98.5 29q51 0 83 -22.5t32 -61.5q0 -38 -26.5 -58t-61.5 -33q32 -16 57 -36.5t25 -57.5q0 -49 -44 -78t-108 -29zM138 566q0 -22 19.5 -36t46.5 -27q26 12 46 27t20 40
q0 24 -18 35.5t-44 11.5q-30 0 -50 -14.5t-20 -36.5zM177 327q35 0 58.5 16t23.5 42q0 27 -25 42.5t-57 30.5q-29 -13 -50 -29.5t-21 -45.5q0 -56 71 -56z" />
    <glyph glyph-name="uni0039.numr" horiz-adv-x="343" 
d="M158 329q58 0 83 44.5t29 109.5q-12 -23 -37 -40.5t-65 -17.5q-47 0 -74.5 27.5t-27.5 74.5q0 51 34 92t105 41q61 0 92.5 -40.5t31.5 -109.5q0 -88 -41 -157t-123 -69q-25 0 -56 10t-54 39l35 34q16 -23 34 -30.5t34 -7.5zM184 469q41 0 61.5 21.5t24.5 44.5
q-3 36 -18 57t-52 21q-42 0 -58 -23.5t-16 -58.5q0 -62 58 -62z" />
    <glyph glyph-name="uni00A9.pnum_lnum" horiz-adv-x="752" 
d="M739 356q0 -99 -51 -181.5t-133.5 -131.5t-177.5 -49q-129 0 -212.5 88.5t-83.5 215.5q0 99 51 181.5t133.5 131.5t177.5 49q129 0 212.5 -88.5t83.5 -215.5zM696 352q0 112 -72 189.5t-187 77.5q-85 0 -156.5 -43.5t-114.5 -115.5t-43 -158q0 -111 72.5 -189t186.5 -78
q82 0 153.5 42.5t116 114.5t44.5 160zM517 185q-22 -17 -53.5 -25t-61.5 -8q-78 0 -119 45.5t-41 115.5q0 83 54 143t139 60q71 0 115 -42l2 -69l-44 -4l-4 47q-30 24 -71 24q-66 0 -101.5 -43t-35.5 -114q0 -120 117 -120q32 0 65 16l14 46l42 -4z" />
    <glyph glyph-name="uni2117.pnum_lnum" horiz-adv-x="752" 
d="M377 -6q-129 0 -212.5 88.5t-83.5 215.5q0 99 51 181.5t133.5 131.5t177.5 49q129 0 212.5 -88.5t83.5 -215.5q0 -99 -51 -181.5t-133.5 -131.5t-177.5 -49zM382 35q82 0 153.5 42t116 114t44.5 161q0 112 -72 189.5t-187 77.5q-85 0 -156.5 -43.5t-114.5 -115.5
t-43 -158q0 -111 72.5 -189t186.5 -78zM251 161h51l33 317h-50l4 46h180q71 0 103 -33t32 -83q0 -68 -46.5 -105.5t-112.5 -37.5h-77l-11 -104h69l-5 -47h-175zM442 310q52 0 76.5 26t24.5 67q0 75 -84 75h-68l-18 -168h69z" />
    <glyph glyph-name="uni267E.pnum_lnum" horiz-adv-x="752" 
d="M377 -6q-129 0 -212.5 88.5t-83.5 215.5q0 99 51 181.5t133.5 131.5t177.5 49q129 0 212.5 -88.5t83.5 -215.5q0 -99 -51 -181.5t-133.5 -131.5t-177.5 -49zM382 35q82 0 153.5 42t116 114t44.5 161q0 112 -72 189.5t-187 77.5q-85 0 -156.5 -43.5t-114.5 -115.5
t-43 -158q0 -111 72.5 -189t186.5 -78zM501 219q-41 0 -61 24.5t-35 55.5q-20 -31 -46 -55.5t-65 -24.5t-63.5 26.5t-24.5 72.5q0 56 34 90t78 34q40 0 60 -27t33 -59q23 32 50 59t68 27q83 0 83 -98q0 -57 -33 -91t-78 -34zM520 403q-32 0 -55 -23.5t-42 -52.5
q11 -27 28.5 -49t48.5 -22q28 0 50 21t22 63q0 63 -52 63zM300 256q30 0 52 21.5t42 49.5q-14 30 -30 53t-48 23q-28 0 -49.5 -20.5t-21.5 -60.5q0 -66 55 -66z" />
    <glyph glyph-name="uni24CA.pnum_lnum" horiz-adv-x="752" 
d="M377 -6q-129 0 -212.5 88.5t-83.5 215.5q0 99 51 181.5t133.5 131.5t177.5 49q129 0 212.5 -88.5t83.5 -215.5q0 -99 -51 -181.5t-133.5 -131.5t-177.5 -49zM382 35q82 0 153.5 42t116 114t44.5 161q0 112 -72 189.5t-187 77.5q-85 0 -156.5 -43.5t-114.5 -115.5
t-43 -158q0 -111 72.5 -189t186.5 -78zM484 508h144l-3 -44h-40l-19 -192q-7 -65 -47.5 -118.5t-135.5 -53.5q-91 0 -120 50t-23 115l21 199h-40l4 44h148l-3 -44h-56l-20 -198q-13 -120 96 -120q58 0 88.5 34t36.5 92l19 192h-54z" />
    <glyph glyph-name="uni20AC.pnum_lnum" horiz-adv-x="673" 
d="M44 373l6 52h71q31 99 108 167t199 68q129 0 205 -76l5 -125l-62 -6l-8 95q-23 18 -58.5 32t-85.5 14q-88 0 -145 -46.5t-83 -122.5h243l-6 -52h-251q-7 -39 -7 -88v-15h219l-6 -54h-208q12 -74 58 -117t137 -43q33 0 70.5 6.5t68.5 22.5l29 96l61 -6l-30 -125
q-42 -32 -98.5 -46t-108.5 -14q-119 0 -183.5 63t-79.5 163h-76l6 54h65v12q0 43 8 91h-63z" />
    <glyph glyph-name="uni0024.pnum_lnum" horiz-adv-x="518" 
d="M465 194q0 -92 -56.5 -145t-159.5 -58l-7 -72h-45l7 72q-56 2 -106.5 15.5t-76.5 36.5l26 128l57 -6l-11 -82q25 -14 57 -21t61 -8l27 255q-61 14 -113.5 46.5t-52.5 118.5q0 93 63 136.5t140 48.5l8 80h45l-9 -80q47 -4 91 -18t67 -35l-7 -129l-60 -6v97
q-24 14 -49.5 19.5t-47.5 6.5l-24 -225q71 -17 123.5 -49t52.5 -126zM148 480q0 -48 27.5 -68.5t69.5 -31.5l23 213q-120 -13 -120 -113zM388 185q0 59 -31 81t-75 33l-26 -244q59 6 95.5 37t36.5 93z" />
    <glyph glyph-name="uni00A2.pnum_lnum" horiz-adv-x="451" 
d="M183 16l8 75q-70 7 -108 58t-38 137q0 56 19 115t61.5 102t113.5 50l8 76h45l-8 -76q71 -5 122 -44l6 -107l-59 -7l-9 76q-29 22 -66 25l-36 -348q75 10 107 115l55 -13q-14 -56 -53.5 -104t-114.5 -55l-8 -75h-45zM118 290q0 -58 18.5 -95t60.5 -46l36 345
q-63 -14 -89 -75t-26 -129z" />
    <glyph glyph-name="uni00A3.pnum_lnum" horiz-adv-x="562" 
d="M52 349h79l8 68q14 128 75.5 185.5t152.5 57.5q38 0 81.5 -11t69.5 -37l4 -124l-60 -7l-8 88q-36 25 -93 25q-61 0 -101 -38t-50 -138l-7 -69h217l-6 -53h-217l-5 -53q-4 -43 -24 -95t-71 -84h234q53 0 84 24t53 53l36 -37q-15 -26 -57.5 -65t-107.5 -39h-333l7 61
q59 27 80 76.5t27 105.5l6 53h-80z" />
    <glyph glyph-name="uni0192.pnum_lnum" horiz-adv-x="429" 
d="M54 336h98l22 139q29 185 202 185q35 0 77 -5l-6 -60q-23 3 -40.5 5t-35.5 2q-51 0 -83.5 -26.5t-44.5 -102.5l-22 -137h141l-6 -53h-143l-40 -261q-10 -61 -40.5 -111.5t-119.5 -50.5q-17 0 -51 5l6 57q32 -5 54 -5q39 0 55.5 26.5t26.5 90.5l39 249h-95z" />
    <glyph glyph-name="uni00A5.pnum_lnum" horiz-adv-x="655" 
d="M164 64h108l8 72h-164l6 49h163l7 64l-4 7h-159l6 49h129l-141 281h-63l7 64h229l-7 -64h-87l133 -270h5l182 270h-87l7 64h221l-6 -64h-63l-193 -281h126l-6 -49h-154l-4 -7l-7 -64h158l-6 -49h-157l-8 -72h111l-7 -64h-289z" />
    <glyph glyph-name="uni20B9.pnum_lnum" horiz-adv-x="570" 
d="M54 333h186q70 0 109 28.5t49 77.5h-332l6 51h329q-6 96 -141 96h-179l7 64h484l-7 -63h-118q30 -39 32 -97h61l-5 -51h-62q-14 -53 -55.5 -90.5t-99.5 -57.5l93 -227h82l-8 -64h-126l-110 272h-201z" />
    <glyph glyph-name="uni0061.smcp" horiz-adv-x="554" 
d="M-11 56h49l216 409h-85l7 56h157l145 -465h52l-6 -56h-195l6 56h68l-26 95h-221l-48 -95h73l-6 -56h-192zM295 428l-115 -228h183l-63 228h-5z" />
    <glyph glyph-name="uni0062.smcp" horiz-adv-x="517" 
d="M315 521q75 0 115 -31t40 -83q0 -46 -29.5 -79.5t-76.5 -42.5l-1 -4q54 -8 77.5 -41.5t23.5 -78.5q0 -65 -47.5 -113t-144.5 -48h-258l6 56h65l43 409h-66l7 56h246zM279 295q54 0 84 27t30 68q0 75 -97 75h-99l-18 -170h100zM261 56q59 0 94.5 26t35.5 78q0 83 -93 83
h-125l-19 -187h107z" />
    <glyph glyph-name="uni0063.smcp" horiz-adv-x="537" 
d="M451 38q-31 -21 -82 -33.5t-97 -12.5q-107 0 -170.5 67t-63.5 175q0 120 78.5 207.5t209.5 87.5q47 0 94.5 -12.5t73.5 -35.5l4 -120l-61 -6l-8 97q-22 12 -51 16t-50 4q-104 0 -160 -66.5t-56 -164.5q0 -91 46.5 -141t125.5 -50q57 0 108 21l29 96l58 -6z" />
    <glyph glyph-name="uni0064.smcp" horiz-adv-x="596" 
d="M308 521q122 0 185 -65t63 -166q0 -126 -81 -208t-218 -82h-243l6 55h65l43 410h-66l7 56h239zM258 55q107 0 166 63t59 169q0 82 -46.5 130t-135.5 48h-104l-43 -410h104z" />
    <glyph glyph-name="uni0065.smcp" horiz-adv-x="502" 
d="M413 0h-400l6 56h65l43 409h-66l7 56h400l3 -144l-60 -9l-8 97h-207l-18 -173h247l-6 -55h-247l-19 -181h207l28 98l60 -7z" />
    <glyph glyph-name="uni0066.smcp" horiz-adv-x="479" 
d="M458 370l-62 -6l-4 101h-196l-20 -195h241l-6 -57h-241l-17 -157h93l-6 -56h-227l6 56h66l43 409h-67l7 56h389z" />
    <glyph glyph-name="uni0067.smcp" horiz-adv-x="588" 
d="M434 68q-28 -33 -73 -54.5t-102 -21.5q-103 0 -162.5 70t-59.5 174q0 119 79 206t210 87q52 0 101 -14.5t74 -38.5l5 -118l-61 -6l-9 94q-46 26 -113 26q-107 0 -159 -67t-52 -163q0 -92 44 -142t121 -50q68 0 110.5 35.5t49.5 82.5l5 47h-125l5 55h233l-6 -55h-38
l-22 -215h-57z" />
    <glyph glyph-name="uni0068.smcp" horiz-adv-x="637" 
d="M19 56h66l43 409h-67l7 56h199l-6 -56h-64l-18 -172h284l18 172h-67l7 56h201l-7 -56h-65l-43 -409h66l-6 -56h-201l6 56h66l19 182h-284l-19 -182h64l-6 -56h-199z" />
    <glyph glyph-name="uni0069.smcp" horiz-adv-x="284" 
d="M19 56h66l43 409h-67l7 56h200l-6 -56h-65l-43 -409h65l-6 -56h-200z" />
    <glyph glyph-name="uni006A.smcp" horiz-adv-x="395" 
d="M154 521h231l-6 -56h-58l-35 -330q-8 -72 -50.5 -107.5t-108.5 -35.5q-56 0 -85.5 23t-42.5 58l53 35q14 -32 33 -44t45 -12q42 0 62 23t25 60l35 330h-104z" />
    <glyph glyph-name="uni006B.smcp" horiz-adv-x="549" 
d="M19 56h65l43 409h-66l7 56h195l-7 -56h-60l-18 -172h85l148 173h-61l6 56h195l-7 -56h-58l-174 -196l140 -214h59l-5 -56h-201l6 56h63l-118 182h-84l-19 -182h59l-6 -56h-193z" />
    <glyph glyph-name="uni006C.smcp" horiz-adv-x="467" 
d="M400 0h-387l6 56h66l43 409h-66l6 56h220l-6 -56h-86l-43 -409h193l31 117l60 -6z" />
    <glyph glyph-name="uni006D.smcp" horiz-adv-x="744" 
d="M19 56h66l43 409h-70l7 56h128l164 -395h3l238 395h133l-7 -56h-69l-43 -409h65l-5 -56h-196l7 56h60l34 320h-3l-210 -348h-35l-142 349h-3l-34 -321h62l-6 -56h-193z" />
    <glyph glyph-name="uni006E.smcp" horiz-adv-x="625" 
d="M24 56h61l43 409h-70l6 56h120l257 -390h3l36 334h-80l6 56h211l-6 -56h-66l-49 -465h-42l-263 399h-4l-37 -343h84l-6 -56h-210z" />
    <glyph glyph-name="uni006F.smcp" horiz-adv-x="616" 
d="M333 529q115 0 179 -71t64 -172q0 -119 -83.5 -206.5t-213.5 -87.5q-116 0 -179.5 71t-63.5 172q0 121 85 207.5t212 86.5zM287 50q97 0 156 68.5t59 163.5q0 85 -46 137.5t-129 52.5q-97 0 -157 -69t-60 -164q0 -79 45 -134t132 -55z" />
    <glyph glyph-name="uni0070.smcp" horiz-adv-x="494" 
d="M20 56h65l43 409h-66l7 56h229q91 0 132.5 -41t41.5 -104q0 -87 -59.5 -135t-144.5 -48h-100l-14 -137h90l-6 -56h-224zM264 248q67 0 100 33.5t33 89.5q0 43 -26 68.5t-85 25.5h-89l-23 -217h90z" />
    <glyph glyph-name="uni0071.smcp" horiz-adv-x="622" 
d="M333 529q115 0 179.5 -71t64.5 -172q0 -130 -95 -217l56 -62l-44 -39l-60 65q-71 -41 -155 -41q-116 0 -179.5 71t-63.5 172q0 121 85 207.5t212 86.5zM308 171l45 40l87 -97q63 68 63 168q0 85 -46.5 137.5t-129.5 52.5q-97 0 -156.5 -69t-59.5 -164q0 -79 44.5 -134
t131.5 -55q58 0 106 27z" />
    <glyph glyph-name="uni0072.smcp" horiz-adv-x="528" 
d="M20 56h65l43 409h-66l7 56h232q92 0 134 -38t42 -101q0 -70 -41.5 -106.5t-88.5 -48.5l75 -171h65l-6 -56h-112l-92 216h-106l-17 -160h70l-6 -56h-204zM266 269q75 0 105.5 31.5t30.5 79.5q0 45 -27 65t-90 20h-88l-21 -196h90z" />
    <glyph glyph-name="uni0073.smcp" horiz-adv-x="462" 
d="M405 159q0 -79 -54.5 -123t-146.5 -44q-57 0 -106.5 16t-74.5 34l23 114l59 -5l-10 -73q53 -28 115 -28q52 0 86.5 24t34.5 74t-34 67.5t-86 30.5q-61 14 -104.5 40t-43.5 87q0 79 57 117.5t136 38.5q98 0 159 -48l-5 -115l-59 -4l-1 84q-23 16 -47.5 21.5t-48.5 5.5
q-52 0 -84 -23t-32 -64q0 -42 30.5 -56.5t74.5 -24.5q35 -8 72.5 -21.5t63.5 -42.5t26 -82z" />
    <glyph glyph-name="uni0074.smcp" horiz-adv-x="533" 
d="M520 361l-63 -7l-6 111h-130l-43 -409h92l-6 -56h-252l6 56h91l43 409h-131l-30 -111l-61 7l36 160h451z" />
    <glyph glyph-name="uni0075.smcp" horiz-adv-x="606" 
d="M405 521h190l-6 -56h-52l-26 -251q-8 -82 -59.5 -152t-178.5 -70q-119 0 -159.5 64t-31.5 149l27 260h-53l5 56h196l-6 -56h-72l-27 -258q-8 -74 22 -115.5t106 -41.5q149 0 166 164l26 251h-73z" />
    <glyph glyph-name="uni0076.smcp" horiz-adv-x="552" 
d="M565 465h-49l-242 -465h-53l-145 465h-52l6 56h199l-6 -56h-72l109 -370h3l182 370h-72l6 56h192z" />
    <glyph glyph-name="uni0077.smcp" horiz-adv-x="789" 
d="M797 465h-44l-193 -465h-55l-93 408h-4l-177 -408h-55l-104 465h-46l6 56h190l-5 -56h-73l70 -361h4l158 361h-53l6 56h190l-6 -56h-54l83 -363h4l137 363h-75l7 56h189z" />
    <glyph glyph-name="uni0078.smcp" horiz-adv-x="544" 
d="M500 0h-193l6 56h62l-113 169l-140 -169h61l-6 -56h-192l6 56h55l187 212l-136 197h-54l7 56h188l-6 -56h-57l103 -152l129 152h-54l6 56h187l-6 -56h-57l-176 -195l149 -214h50z" />
    <glyph glyph-name="uni0079.smcp" horiz-adv-x="521" 
d="M531 465h-50l-194 -267l-15 -142h94l-6 -56h-254l7 56h90l15 146l-144 263h-51l6 56h199l-6 -56h-70l108 -206h5l145 206h-71l6 56h192z" />
    <glyph glyph-name="uni007A.smcp" horiz-adv-x="496" 
d="M422 0h-414l1 38l351 425v2h-221l-30 -105l-60 6l36 155h378l1 -34l-353 -429v-2h257l30 109l60 -6z" />
    <glyph glyph-name="uni00E6.smcp" horiz-adv-x="775" 
d="M689 0h-401l6 56h64l9 92h-207l-56 -92h69l-6 -56h-192l6 56h53l252 409h-80l6 56h532l2 -145l-60 -8l-8 97h-208l-18 -173h247l-5 -55h-248l-19 -181h208l28 98l59 -6zM373 200l28 265h-51l-160 -265h183z" />
    <glyph glyph-name="uni0153.smcp" horiz-adv-x="840" 
d="M753 0h-337l3 29q-61 -37 -140 -37q-113 0 -177.5 71t-64.5 175q0 118 81.5 204.5t214.5 86.5q43 0 76 -10t60 -27l2 29h337l3 -145l-61 -8l-8 97h-207l-19 -173h247l-5 -55h-247l-19 -181h207l28 98l61 -7zM426 98l35 326q-51 48 -132 48q-103 0 -160.5 -68.5
t-57.5 -160.5q0 -80 45 -136.5t134 -56.5q86 0 136 48z" />
    <glyph glyph-name="uni00F0.smcp" horiz-adv-x="597" 
d="M48 296h63l18 169h-66l7 56h239q122 0 185 -65t63 -166q0 -126 -81.5 -208t-217.5 -82h-243l6 55h65l20 188h-64zM259 55q107 0 166 63t59 169q0 82 -46.5 130t-135.5 48h-104l-18 -169h108l-5 -53h-108l-20 -188h104z" />
    <glyph glyph-name="uni00E1.smcp" horiz-adv-x="554" 
d="M457 673l-182 -104l-18 31l165 132zM-11 56h49l216 409h-85l7 56h157l145 -465h52l-6 -56h-195l6 56h68l-26 95h-221l-48 -95h73l-6 -56h-192zM295 428l-115 -228h183l-63 228h-5z" />
    <glyph glyph-name="uni0103.smcp" horiz-adv-x="554" 
d="M389 703h58q-13 -123 -133 -123t-106 123h58q-10 -75 54 -75q62 0 69 75zM-11 56h49l216 409h-85l7 56h157l145 -465h52l-6 -56h-195l6 56h68l-26 95h-221l-48 -95h73l-6 -56h-192zM295 428l-115 -228h183l-63 228h-5z" />
    <glyph glyph-name="uni00E2.smcp" horiz-adv-x="554" 
d="M332 720l106 -121l-29 -31l-97 86l-110 -86l-24 31l132 121h22zM-11 56h49l216 409h-85l7 56h157l145 -465h52l-6 -56h-195l6 56h68l-26 95h-221l-48 -95h73l-6 -56h-192zM295 428l-115 -228h183l-63 228h-5z" />
    <glyph glyph-name="uni00E4.smcp" horiz-adv-x="554" 
d="M355 607l8 85h80l-9 -85h-79zM187 607l9 85h78l-8 -85h-79zM-11 56h49l216 409h-85l7 56h157l145 -465h52l-6 -56h-195l6 56h68l-26 95h-221l-48 -95h73l-6 -56h-192zM295 428l-115 -228h183l-63 228h-5z" />
    <glyph glyph-name="uni00E0.smcp" horiz-adv-x="554" 
d="M344 570l-182 104l35 59l166 -132zM-11 56h49l216 409h-85l7 56h157l145 -465h52l-6 -56h-195l6 56h68l-26 95h-221l-48 -95h73l-6 -56h-192zM295 428l-115 -228h183l-63 228h-5z" />
    <glyph glyph-name="uni0101.smcp" horiz-adv-x="554" 
d="M194 672h240l-6 -57h-240zM-11 56h49l216 409h-85l7 56h157l145 -465h52l-6 -56h-195l6 56h68l-26 95h-221l-48 -95h73l-6 -56h-192zM295 428l-115 -228h183l-63 228h-5z" />
    <glyph glyph-name="uni0105.smcp" horiz-adv-x="553" 
d="M335 56h68l-26 95h-221l-48 -95h73l-6 -56h-192l6 56h49l216 409h-85l7 56h157l145 -465h52l-6 -56h-53q-41 -24 -56 -51t-15 -51q0 -47 50 -47q27 0 53 15l3 -48q-38 -19 -77 -19q-89 0 -89 80q0 39 23 70t57 51h-91zM295 428l-115 -228h183l-63 228h-5z" />
    <glyph glyph-name="uni00E5.smcp" horiz-adv-x="554" 
d="M308 556q-43 0 -64.5 22.5t-21.5 58.5q0 46 29 74.5t79 28.5q42 0 64.5 -22.5t22.5 -58.5q0 -41 -28 -72t-81 -31zM313 596q56 0 56 60q0 18 -9.5 31t-34.5 13q-54 0 -54 -60q0 -44 42 -44zM-11 56h49l216 409h-85l7 56h157l145 -465h52l-6 -56h-195l6 56h68l-26 95h-221
l-48 -95h73l-6 -56h-192zM295 428l-115 -228h183l-63 228h-5z" />
    <glyph glyph-name="uni00E3.smcp" horiz-adv-x="554" 
d="M202 600l-32 12q6 26 29 57t61 31q32 0 55 -18.5t58 -18.5q13 0 26 8t23 35l35 -9q-11 -41 -31 -67t-54 -26q-38 0 -63.5 19.5t-52.5 19.5q-14 0 -29 -9.5t-25 -33.5zM-11 56h49l216 409h-85l7 56h157l145 -465h52l-6 -56h-195l6 56h68l-26 95h-221l-48 -95h73l-6 -56
h-192zM295 428l-115 -228h183l-63 228h-5z" />
    <glyph glyph-name="uni0107.smcp" horiz-adv-x="552" 
d="M469 673l-182 -104l-18 31l165 132zM451 38q-31 -21 -82 -33.5t-97 -12.5q-107 0 -170.5 67t-63.5 175q0 120 78.5 207.5t209.5 87.5q47 0 94.5 -12.5t73.5 -35.5l4 -120l-61 -6l-8 97q-22 12 -51 16t-50 4q-104 0 -160 -66.5t-56 -164.5q0 -91 46.5 -141t125.5 -50
q57 0 108 21l29 96l58 -6z" />
    <glyph glyph-name="uni010D.smcp" horiz-adv-x="552" 
d="M320 570l-105 117l29 31l95 -82l111 85l23 -32l-131 -119h-22zM451 38q-31 -21 -82 -33.5t-97 -12.5q-107 0 -170.5 67t-63.5 175q0 120 78.5 207.5t209.5 87.5q47 0 94.5 -12.5t73.5 -35.5l4 -120l-61 -6l-8 97q-22 12 -51 16t-50 4q-104 0 -160 -66.5t-56 -164.5
q0 -91 46.5 -141t125.5 -50q57 0 108 21l29 96l58 -6z" />
    <glyph glyph-name="uni00E7.smcp" horiz-adv-x="552" 
d="M451 38q-29 -20 -77 -32t-93 -14l-5 -46h8q79 0 79 -72q0 -46 -35 -68t-81 -22q-59 0 -90 30l21 41q27 -23 70 -23q55 0 55 44q0 22 -14.5 29.5t-38.5 7.5h-29l10 82q-89 13 -141 77t-52 162q0 120 78.5 207.5t209.5 87.5q47 0 94.5 -12.5t73.5 -35.5l4 -120l-61 -6
l-8 97q-22 12 -51 16t-50 4q-104 0 -160 -66.5t-56 -164.5q0 -91 46.5 -141t125.5 -50q57 0 108 21l29 96l58 -6z" />
    <glyph glyph-name="uni0109.smcp" horiz-adv-x="552" 
d="M358 720l106 -121l-29 -31l-97 86l-110 -86l-24 31l132 121h22zM451 38q-31 -21 -82 -33.5t-97 -12.5q-107 0 -170.5 67t-63.5 175q0 120 78.5 207.5t209.5 87.5q47 0 94.5 -12.5t73.5 -35.5l4 -120l-61 -6l-8 97q-22 12 -51 16t-50 4q-104 0 -160 -66.5t-56 -164.5
q0 -91 46.5 -141t125.5 -50q57 0 108 21l29 96l58 -6z" />
    <glyph glyph-name="uni010B.smcp" horiz-adv-x="552" 
d="M299 604l9 91h74l-9 -91h-74zM451 38q-31 -21 -82 -33.5t-97 -12.5q-107 0 -170.5 67t-63.5 175q0 120 78.5 207.5t209.5 87.5q47 0 94.5 -12.5t73.5 -35.5l4 -120l-61 -6l-8 97q-22 12 -51 16t-50 4q-104 0 -160 -66.5t-56 -164.5q0 -91 46.5 -141t125.5 -50
q57 0 108 21l29 96l58 -6z" />
    <glyph glyph-name="uni010F.smcp" horiz-adv-x="595" 
d="M298 570l-105 117l29 31l95 -82l111 85l23 -32l-131 -119h-22zM308 521q122 0 185 -65t63 -166q0 -126 -81 -208t-218 -82h-243l6 55h65l43 410h-66l7 56h239zM258 55q107 0 166 63t59 169q0 82 -46.5 130t-135.5 48h-104l-43 -410h104z" />
    <glyph glyph-name="uni0111.smcp" horiz-adv-x="597" 
d="M48 296h63l18 169h-66l7 56h239q122 0 185 -65t63 -166q0 -126 -81.5 -208t-217.5 -82h-243l6 55h65l20 188h-64zM259 55q107 0 166 63t59 169q0 82 -46.5 130t-135.5 48h-104l-18 -169h108l-5 -53h-108l-20 -188h104z" />
    <glyph glyph-name="uni00E9.smcp" horiz-adv-x="502" 
d="M464 673l-182 -104l-18 31l165 132zM413 0h-400l6 56h65l43 409h-66l7 56h400l3 -144l-60 -9l-8 97h-207l-18 -173h247l-6 -55h-247l-19 -181h207l28 98l60 -7z" />
    </font>
</defs>
</svg>
