<?xml version="1.0" standalone="no"?>
<!DOCTYPE svg PUBLIC "-//W3C//DTD SVG 1.1//EN" "http://www.w3.org/Graphics/SVG/1.1/DTD/svg11.dtd" >
<svg xmlns="http://www.w3.org/2000/svg" xmlns:xlink="http://www.w3.org/1999/xlink" version="1.1">
<metadata>
Created by FontForge 20170731 at Wed Aug 23 12:59:56 2017
 By Aleksey,,,
Copyright 2017, The Mozilla Foundation
</metadata>
<defs>
<font id="ZillaSlab-SemiBold" horiz-adv-x="514" >
  <font-face 
    font-family="Zilla Slab SemiBold"
    font-weight="600"
    font-stretch="normal"
    units-per-em="1000"
    panose-1="0 0 0 0 0 0 0 0 0 0"
    ascent="787"
    descent="-213"
    x-height="449"
    cap-height="650"
    bbox="-148 -235 1354 897"
    underline-thickness="50"
    underline-position="-150"
    unicode-range="U+0020-FB04"
  />
<missing-glyph horiz-adv-x="712" 
d="M80 675v27h27v-27h-27zM155 675v27h27v-27h-27zM230 675v27h27v-27h-27zM305 675v27h27v-27h-27zM380 675v27h27v-27h-27zM455 675v27h27v-27h-27zM530 675v27h27v-27h-27zM605 675v27h27v-27h-27zM605 600v27h27v-27h-27zM80 600v27h27v-27h-27zM455 525v27h27v-27h-27z
M605 525v27h27v-27h-27zM230 525v27h27v-27h-27zM305 525v27h27v-27h-27zM380 525v27h27v-27h-27zM80 525v27h27v-27h-27zM455 450v27h27v-27h-27zM605 450v27h27v-27h-27zM80 450v27h27v-27h-27zM305 375v27h27v-27h-27zM605 375v27h27v-27h-27zM455 375v27h27v-27h-27z
M380 375v27h27v-27h-27zM80 375v27h27v-27h-27zM605 300v27h27v-27h-27zM305 300v27h27v-27h-27zM80 300v27h27v-27h-27zM605 225v27h27v-27h-27zM80 225v27h27v-27h-27zM605 150v27h27v-27h-27zM305 150v27h27v-27h-27zM80 150v27h27v-27h-27zM605 75v27h27v-27h-27zM80 75
v27h27v-27h-27zM230 0v27h27v-27h-27zM155 0v27h27v-27h-27zM80 0v27h27v-27h-27zM305 0v27h27v-27h-27zM380 0v27h27v-27h-27zM605 0v27h27v-27h-27zM455 0v27h27v-27h-27zM530 0v27h27v-27h-27z" />
    <glyph glyph-name="uniFB00" unicode="ff" horiz-adv-x="634" 
d="M393 82v284h-193v-284h85v-82h-258v82h67v284h-59v83h59v58q0 79 52.5 130t137.5 51q46 0 84 -14t65 -35q46 59 132 59q31 0 63 -7.5t61 -29.5l19 -115l-84 -10l-21 73q-20 7 -42 7q-61 0 -61 -78v-89h113v-83h-113v-284h85v-82h-258v82h66zM200 511v-62h193v74
q0 13 2 25t4 23q-46 36 -97 36q-44 0 -73 -23.5t-29 -72.5z" />
    <glyph glyph-name="uniFB01" unicode="fi" horiz-adv-x="586" 
d="M394 82v284h-194v-284h85v-82h-258v82h67v284h-59v83h59v71q0 76 56 127t154 51q40 0 84 -10t81 -32l19 -115l-84 -10l-18 68q-9 5 -31 11t-53 6q-56 0 -79 -26t-23 -68v-73h301v-367h66v-82h-240v82h67z" />
    <glyph glyph-name="uniFB02" unicode="fl" horiz-adv-x="587" 
d="M568 0h-240v82h66v501q-35 34 -94 34q-48 0 -74 -26.5t-26 -69.5v-72h102v-83h-102v-284h85v-82h-258v82h67v284h-59v83h59v68q0 79 49 130t132 51q34 0 63.5 -7.5t55.5 -27.5v25h107v-606h67v-82z" />
    <glyph glyph-name="uniFB03" unicode="ffi" horiz-adv-x="886" 
d="M394 82v284h-194v-284h85v-82h-258v82h67v284h-59v83h59v58q0 79 52.5 130t137.5 51q48 0 87.5 -16t66.5 -38q58 64 166 64q40 0 84 -10t82 -32l18 -115l-83 -10l-19 68q-9 5 -31 11t-53 6q-56 0 -78.5 -26t-22.5 -68v-73h300v-367h67v-82h-240v82h66v284h-193v-284h85
v-82h-259v82h67zM200 511v-62h194v71q0 28 7 50q-22 16 -46.5 26.5t-52.5 10.5q-44 0 -73 -23.5t-29 -72.5z" />
    <glyph glyph-name="uniFB04" unicode="ffl" horiz-adv-x="887" 
d="M394 82v284h-194v-284h85v-82h-258v82h67v284h-59v83h59v58q0 79 52.5 130t137.5 51q91 0 151 -50q51 60 138 60q35 0 65 -7.5t56 -28.5v26h107v-606h67v-82h-240v82h66v499q-37 36 -96 36q-40 0 -69 -23.5t-29 -72.5v-72h102v-83h-102v-284h85v-82h-258v82h67zM200 511
v-62h194v68q0 32 7 56q-44 34 -99 34q-44 0 -73 -23.5t-29 -72.5z" />
    <glyph glyph-name="uni00660068" unicode="fh" horiz-adv-x="885" 
d="M500 257v-175h67v-82h-240v82h67v501q-37 34 -94 34q-40 0 -70 -23.5t-30 -72.5v-72h102v-83h-102v-284h85v-82h-258v82h67v284h-59v83h59v68q0 79 50.5 130t131.5 51q33 0 62.5 -7t55.5 -27v24h106v-312q48 82 150 82q64 0 110 -39t46 -122v-215h66v-82h-240v82h67v176
q0 64 -23.5 90.5t-64.5 26.5q-53 0 -82 -34.5t-29 -83.5z" />
    <glyph glyph-name="uni00660062" unicode="fb" horiz-adv-x="875" 
d="M394 688h106v-327q20 39 57 68t98 29q85 0 139 -58.5t54 -164.5q0 -95 -50 -170t-154 -75q-106 0 -150 80q-3 -35 -9 -70h-107q6 33 11 67.5t5 67.5v448q-37 34 -95 34q-41 0 -70 -23.5t-29 -72.5v-72h102v-83h-102v-284h85v-82h-258v82h67v284h-59v83h59v68
q0 79 50.5 130t131.5 51q33 0 62.5 -7t55.5 -27v24zM732 226q0 71 -32 106.5t-80 35.5q-55 0 -87 -40t-33 -90v-32q1 -56 33.5 -91t81.5 -35q54 0 85.5 38.5t31.5 107.5z" />
    <glyph glyph-name="uni0066006A" unicode="fj" horiz-adv-x="562" 
d="M200 522v-73h300v-444q0 -127 -49.5 -183t-162.5 -45l-3 73q41 0 75 23.5t34 131.5v361h-194v-284h85v-82h-258v82h67v284h-59v83h59v71q0 76 56 127t154 51q40 0 84 -10t81 -32l19 -115l-84 -10l-18 68q-9 5 -31 11t-53 6q-56 0 -79 -26t-23 -68z" />
    <glyph glyph-name="uni0066006B" unicode="fk" horiz-adv-x="851" 
d="M327 82h67v501q-37 34 -94 34q-40 0 -70 -23.5t-30 -72.5v-72h102v-83h-102v-284h85v-82h-258v82h67v284h-59v83h59v68q0 79 50.5 130t131.5 51q33 0 62.5 -7t55.5 -27v24h106v-417h78l76 95h-57v83h219v-83h-59l-102 -124l135 -160h48v-82h-223v82h52l-95 112h-72v-112
h50v-82h-223v82z" />
    <glyph glyph-name="uni00660066006A" unicode="ffj" horiz-adv-x="863" 
d="M501 522v-73h300v-444q0 -127 -50 -183t-163 -45l-3 73q41 0 75 23.5t34 131.5v361h-193v-284h85v-82h-259v82h67v284h-194v-284h85v-82h-258v82h67v284h-59v83h59v58q0 79 52.5 130t137.5 51q48 0 87.5 -16t66.5 -38q58 64 166 64q40 0 84 -10t82 -32l18 -115l-83 -10
l-19 68q-9 5 -31 11t-53 6q-56 0 -78.5 -26t-22.5 -68zM200 511v-62h194v71q0 28 7 50q-22 16 -46.5 26.5t-52.5 10.5q-44 0 -73 -23.5t-29 -72.5z" />
    <glyph glyph-name="uni006600EC" unicode="f&#xec;" horiz-adv-x="586" 
d="M559 548l-38 -35l-154 140l62 60zM567 0h-240v82h67v284h-194v-284h85v-82h-258v82h67v284h-59v83h59v76q0 81 39 127t115 46q15 0 37.5 -4t38.5 -11v-81q-15 8 -31 10.5t-31 2.5q-62 0 -62 -75v-91h301v-367h66v-82z" />
    <glyph glyph-name="uni006600EF" unicode="f&#xef;" horiz-adv-x="586" 
d="M303 540v49q0 16 -14.5 21.5t-29.5 5.5q-59 0 -59 -80v-87h301v-367h66v-82h-240v82h67v284h-194v-284h85v-82h-258v82h67v284h-59v83h59v74q0 74 44 124.5t130 50.5q63 0 104.5 -27t41.5 -63v-68h-111zM469 540v101h111v-101h-111z" />
    <glyph glyph-name=".notdef" horiz-adv-x="712" 
d="M80 675v27h27v-27h-27zM155 675v27h27v-27h-27zM230 675v27h27v-27h-27zM305 675v27h27v-27h-27zM380 675v27h27v-27h-27zM455 675v27h27v-27h-27zM530 675v27h27v-27h-27zM605 675v27h27v-27h-27zM605 600v27h27v-27h-27zM80 600v27h27v-27h-27zM455 525v27h27v-27h-27z
M605 525v27h27v-27h-27zM230 525v27h27v-27h-27zM305 525v27h27v-27h-27zM380 525v27h27v-27h-27zM80 525v27h27v-27h-27zM455 450v27h27v-27h-27zM605 450v27h27v-27h-27zM80 450v27h27v-27h-27zM305 375v27h27v-27h-27zM605 375v27h27v-27h-27zM455 375v27h27v-27h-27z
M380 375v27h27v-27h-27zM80 375v27h27v-27h-27zM605 300v27h27v-27h-27zM305 300v27h27v-27h-27zM80 300v27h27v-27h-27zM605 225v27h27v-27h-27zM80 225v27h27v-27h-27zM605 150v27h27v-27h-27zM305 150v27h27v-27h-27zM80 150v27h27v-27h-27zM605 75v27h27v-27h-27zM80 75
v27h27v-27h-27zM230 0v27h27v-27h-27zM155 0v27h27v-27h-27zM80 0v27h27v-27h-27zM305 0v27h27v-27h-27zM380 0v27h27v-27h-27zM605 0v27h27v-27h-27zM455 0v27h27v-27h-27zM530 0v27h27v-27h-27z" />
    <glyph glyph-name=".null" horiz-adv-x="0" 
 />
    <glyph glyph-name="nonmarkingreturn" horiz-adv-x="333" 
 />
    <glyph glyph-name="uni0020" unicode=" " horiz-adv-x="202" 
 />
    <glyph glyph-name="uni0021" unicode="!" horiz-adv-x="253" 
d="M190 650l-25 -433h-78l-24 433h127zM64 0v127h128v-127h-128z" />
    <glyph glyph-name="uni0022" unicode="&#x22;" horiz-adv-x="381" 
d="M146 377h-91l-8 273h107zM326 377h-91l-8 273h107z" />
    <glyph glyph-name="uni0023" unicode="#" horiz-adv-x="580" 
d="M504 521l-21 -108h63v-82h-79l-26 -139h75v-82h-91l-21 -110h-93l21 110h-146l-21 -110h-93l21 110h-59v82h75l26 139h-71v82h87l21 108h93l-21 -108h146l21 108h93zM202 192h146l26 139h-146z" />
    <glyph glyph-name="uni0024" unicode="$" horiz-adv-x="483" 
d="M448 157q0 -73 -49 -114.5t-125 -48.5v-59h-56v58q-56 3 -102 18t-75 34l19 125l89 -7l-5 -65q33 -17 74 -20v154q-62 12 -117 37t-55 106q0 79 54 113.5t118 39.5v65h56v-65q47 -4 84.5 -17t63.5 -31l10 -123l-89 -7l-12 75q-25 13 -57 18v-129q31 -6 72 -20t71.5 -45.5
t30.5 -91.5zM161 387q0 -25 16 -39t41 -21v115q-57 -10 -57 -55zM334 145q0 30 -17 46.5t-43 26.5v-139q60 12 60 66z" />
    <glyph glyph-name="uni0025" unicode="%" horiz-adv-x="719" 
d="M181 242q-71 0 -110.5 39t-39.5 103q0 66 41.5 106.5t113.5 40.5q71 0 109.5 -39t38.5 -103q0 -65 -40 -106t-113 -41zM615 521l-207 -259l-197 -262h-112l233 286l171 235h112zM181 312q66 0 66 76q0 73 -63 73q-28 0 -47 -17.5t-19 -58.5q0 -73 63 -73zM535 -10
q-71 0 -110.5 39t-39.5 103q0 66 41.5 107t114.5 41q71 0 109.5 -39.5t38.5 -103.5q0 -65 -40 -106t-114 -41zM535 60q67 0 67 76q0 74 -63 74q-29 0 -48 -17.5t-19 -59.5q0 -73 63 -73z" />
    <glyph glyph-name="uni0026" unicode="&#x26;" horiz-adv-x="713" 
d="M433 376h261v-94h-79q-36 -89 -116 -167q49 -23 96 -23q35 0 70 16l23 -91q-47 -27 -110 -27q-44 0 -87 14t-85 39q-85 -53 -174 -53q-72 0 -136 39.5t-64 123.5q0 66 40 102.5t89 62.5q-39 84 -39 157t45.5 129t144.5 56q77 0 125.5 -38.5t48.5 -105.5q0 -70 -55.5 -112
t-146.5 -87q58 -99 149 -163q47 50 66 128h-66v94zM376 511q0 20 -13 43t-54 23q-47 0 -63 -31.5t-16 -61.5q0 -53 27 -115q119 68 119 142zM189 266q-50 -36 -50 -93q0 -51 36 -71.5t87 -20.5q41 0 74 11q-88 74 -147 174z" />
    <glyph glyph-name="uni0027" unicode="'" horiz-adv-x="202" 
d="M146 377h-91l-8 273h107z" />
    <glyph glyph-name="uni0028" unicode="(" horiz-adv-x="283" 
d="M190 718h96q-166 -211 -166 -448q0 -116 41.5 -233t124.5 -220h-98q-83 110 -121 224.5t-38 228.5q0 116 39.5 229t121.5 219z" />
    <glyph glyph-name="uni0029" unicode=")" horiz-adv-x="284" 
d="M93 -183h-96q166 211 166 448q0 116 -41.5 232.5t-124.5 220.5h98q83 -110 121 -224.5t38 -228.5q0 -115 -39 -228t-122 -220z" />
    <glyph glyph-name="uni002A" unicode="*" horiz-adv-x="416" 
d="M379 541l-111 -58l111 -58l-40 -63l-100 66l6 -110h-75l6 110l-99 -66l-41 63l112 58l-112 58l41 64l100 -68l-7 113h75l-7 -113l101 68z" />
    <glyph glyph-name="uni002B" unicode="+" horiz-adv-x="408" 
d="M31 244v74h139v137h74v-137h134v-74h-134v-136h-74v136h-139z" />
    <glyph glyph-name="uni002C" unicode="," horiz-adv-x="214" 
d="M11 -92l57 228h104l-57 -228h-104z" />
    <glyph glyph-name="uni002D" unicode="-" horiz-adv-x="331" 
d="M48 278h236v-90h-236v90z" />
    <glyph glyph-name="uni002E" unicode="." horiz-adv-x="222" 
d="M44 0v142h132v-142h-132z" />
    <glyph glyph-name="uni002F" unicode="/" horiz-adv-x="362" 
d="M344 688l-203 -688h-105l203 688h105z" />
    <glyph glyph-name="uni0030" unicode="0" horiz-adv-x="576" 
d="M539 256q0 -132 -68 -199t-186 -67q-119 0 -183.5 67t-64.5 197q0 122 64 199.5t188 77.5q129 0 189.5 -78.5t60.5 -196.5zM420 261q0 94 -34.5 133t-97.5 39q-64 0 -98 -40t-34 -132q0 -93 33.5 -133t97.5 -40q61 0 97 38t36 135z" />
    <glyph glyph-name="uni0031" unicode="1" horiz-adv-x="397" 
d="M379 0h-332v95h114v331h-114v95h225v-426h107v-95z" />
    <glyph glyph-name="uni0032" unicode="2" horiz-adv-x="529" 
d="M73 490q49 22 100 31.5t90 9.5q111 0 156 -48t45 -105q0 -67 -47 -118t-114.5 -90.5t-130.5 -74.5h230l8 67l90 -8l-14 -154h-436l-10 87q128 83 216.5 145.5t88.5 129.5q0 38 -27.5 56t-71.5 18q-20 0 -46 -4t-45 -14l-16 -74l-86 9z" />
    <glyph glyph-name="uni0033" unicode="3" horiz-adv-x="516" 
d="M69 487q47 22 98 33t91 11q86 0 142.5 -40t56.5 -120q0 -49 -26.5 -88.5t-90.5 -63.5v-4q77 -15 109.5 -59t32.5 -103q0 -95 -68 -144.5t-168 -49.5q-102 0 -153.5 45.5t-56.5 119.5l89 28q5 -37 32 -67.5t88 -30.5q66 0 91.5 34.5t25.5 76.5q0 101 -166 107v74
q91 2 116.5 39.5t25.5 67.5q0 83 -97 83q-19 0 -45 -4.5t-44 -13.5l-16 -77l-86 9z" />
    <glyph glyph-name="uni0034" unicode="4" horiz-adv-x="558" 
d="M435 -130h-111v161h-296l-12 92l212 398h207v-398h101l-10 -92h-91v-161zM324 123v303h-42l-159 -303h201z" />
    <glyph glyph-name="uni0035" unicode="5" horiz-adv-x="518" 
d="M487 68q0 -110 -67 -159.5t-168 -49.5t-153.5 45.5t-57.5 119.5l89 28q5 -38 33 -68t85 -30q63 0 91.5 33t28.5 80q0 75 -52.5 96.5t-120.5 21.5q-23 0 -45.5 -1.5t-44.5 -3.5l-36 35v306h385l15 -166l-93 -8l-16 79h-189v-151q11 1 21.5 1h20.5q71 0 133.5 -16.5
t101.5 -61.5t39 -130z" />
    <glyph glyph-name="uni0036" unicode="6" horiz-adv-x="534" 
d="M496 212q0 -96 -57.5 -159t-166.5 -63q-129 0 -182 90t-53 230q0 95 24.5 174.5t80.5 127.5t150 48q58 0 107 -20.5t84 -68.5l-64 -65q-46 59 -131 59q-72 0 -100 -53.5t-32 -165.5v-23q16 35 53 62.5t104 27.5q101 0 142 -62.5t41 -138.5zM382 207q0 54 -23.5 84.5
t-79.5 30.5q-61 0 -89 -34t-31 -75q7 -60 32 -92.5t83 -32.5t83 32t25 87z" />
    <glyph glyph-name="uni0037" unicode="7" horiz-adv-x="486" 
d="M477 466l-237 -596h-109l226 557h-232v-110h-97v204h435z" />
    <glyph glyph-name="uni0038" unicode="8" horiz-adv-x="539" 
d="M505 167q0 -83 -68.5 -130t-169.5 -47q-103 0 -167 43t-64 126q0 70 41.5 106t96.5 59q-50 27 -86.5 64.5t-36.5 99.5q0 76 60.5 124t157.5 48q94 0 154 -44t60 -118q0 -58 -37 -90.5t-86 -54.5q56 -29 100.5 -71t44.5 -115zM371 482q0 50 -30.5 68.5t-71.5 18.5
q-46 0 -73 -19.5t-27 -53.5q0 -40 38.5 -65.5t91.5 -48.5q33 19 52.5 42t19.5 58zM386 165q0 48 -47.5 76t-106.5 55q-36 -20 -60.5 -45.5t-24.5 -67.5q0 -47 32 -74.5t90 -27.5q53 0 85 23.5t32 60.5z" />
    <glyph glyph-name="uni0039" unicode="9" horiz-adv-x="534" 
d="M37 309q0 95 57.5 158.5t166.5 63.5q129 0 182 -90t53 -229q0 -95 -24 -175t-80 -128t-150 -48q-58 0 -107 20.5t-84 68.5l64 65q46 -59 130 -59q72 0 100 53.5t32 166.5q1 3 1 10.5v11.5q-16 -35 -53.5 -62.5t-103.5 -27.5q-101 0 -142.5 62.5t-41.5 138.5zM151 314
q0 -54 23.5 -84.5t80.5 -30.5q61 0 88.5 33.5t30.5 75.5q-7 60 -31.5 92.5t-83.5 32.5q-58 0 -83 -31.5t-25 -87.5z" />
    <glyph glyph-name="uni003A" unicode=":" horiz-adv-x="239" 
d="M61 307v142h119v-142h-119zM61 0v142h119v-142h-119z" />
    <glyph glyph-name="uni003B" unicode=";" horiz-adv-x="243" 
d="M68 307v142h119v-142h-119zM178 136l-58 -228h-104l57 228h105z" />
    <glyph glyph-name="uni003C" unicode="&#x3c;" horiz-adv-x="401" 
d="M346 14l-319 248v34l318 253v-102l-208 -166l209 -165v-102z" />
    <glyph glyph-name="uni003D" unicode="=" horiz-adv-x="558" 
d="M50 354v74h457v-74h-457zM50 132v75h457v-75h-457z" />
    <glyph glyph-name="uni003E" unicode="&#x3e;" horiz-adv-x="400" 
d="M373 262l-319 -248v102l209 165l-208 166v102l318 -253v-34z" />
    <glyph glyph-name="uni003F" unicode="?" horiz-adv-x="468" 
d="M125 458l-86 8l16 141q47 26 97 39t92 13q84 0 140.5 -37.5t56.5 -103.5q0 -51 -30 -82.5t-68.5 -52.5t-68.5 -40t-30 -46q0 -33 45 -33v-68q-161 -16 -161 89q0 47 29 73.5t67 44.5t67 39.5t29 57.5q0 62 -89 62q-23 0 -48.5 -6t-43.5 -18zM157 0v127h128v-127h-128z
" />
    <glyph glyph-name="uni0040" unicode="@" horiz-adv-x="898" 
d="M294 414q75 44 161 44q89 0 135.5 -41t46.5 -111v-195q0 -24 15.5 -36.5t36.5 -12.5q50 0 66.5 57t16.5 118q0 129 -44 202.5t-114.5 104t-151.5 30.5q-153 0 -246.5 -92t-93.5 -256q0 -121 50 -198t129 -113.5t167 -36.5q50 0 105.5 13t99.5 44l36 -65q-49 -32 -115 -52
t-140 -20q-116 0 -211.5 51t-152.5 144.5t-57 222.5q0 122 53.5 221.5t149 158t222.5 58.5q94 0 187.5 -37.5t155 -121t61.5 -221.5q0 -65 -18 -130.5t-61 -109.5t-117 -44q-53 0 -90 25t-44 68q-21 -36 -57.5 -64.5t-91.5 -28.5q-47 0 -94.5 28.5t-47.5 99.5q0 56 32.5 85
t81.5 39.5t101 10.5q40 0 74 -3v25q0 57 -17.5 81t-60.5 24q-17 0 -36.5 -4t-38.5 -15l-22 -72l-81 9zM530 195q-16 2 -34.5 4t-36.5 2q-41 0 -72.5 -14t-31.5 -57q0 -62 65 -62q39 0 73.5 29t36.5 85v13z" />
    <glyph glyph-name="uni0041" unicode="A" horiz-adv-x="672" 
d="M675 0h-249v95h66l-33 89h-243l-35 -89h73v-95h-246v95h60l196 460h-95v95h209l234 -555h63v-95zM429 265l-85 226h-6l-90 -226h181z" />
    <glyph glyph-name="uni0042" unicode="B" horiz-adv-x="615" 
d="M585 190q0 -78 -53.5 -134t-163.5 -56h-328v95h75v460h-75v95h324q92 0 144.5 -42t52.5 -112q0 -51 -31 -89t-85 -48v-4q70 -11 105 -56t35 -109zM442 468q0 51 -29.5 69t-75.5 18h-111v-178h104q57 0 84.5 25.5t27.5 65.5zM466 194q0 96 -110 96h-130v-195h115
q125 0 125 99z" />
    <glyph glyph-name="uni0043" unicode="C" horiz-adv-x="645" 
d="M587 62q-35 -33 -99.5 -52.5t-133.5 -19.5q-141 0 -232.5 91.5t-91.5 235.5q0 81 34 160t106 131t184 52q82 0 140 -23t92 -54l17 -141l-91 -9l-16 90q-60 39 -144 39q-92 0 -147.5 -64t-55.5 -175q0 -116 59 -175.5t155 -59.5q80 0 131 28l16 97l91 -9z" />
    <glyph glyph-name="uni0044" unicode="D" horiz-adv-x="701" 
d="M670 327q0 -146 -87 -236.5t-241 -90.5h-302v95h75v460h-75v95h296q164 0 249 -90t85 -233zM551 326q0 229 -218 229h-107v-460h107q218 0 218 231z" />
    <glyph glyph-name="uni0045" unicode="E" horiz-adv-x="591" 
d="M535 0h-495v95h75v460h-75v95h488l20 -188l-95 -8l-20 101h-207v-180h286v-95h-286v-185h214l20 101l95 -8z" />
    <glyph glyph-name="uni0046" unicode="F" horiz-adv-x="564" 
d="M542 455l-95 -9l-20 109h-201v-209h282v-94h-282v-157h109v-95h-295v95h75v460h-75v95h482z" />
    <glyph glyph-name="uni0047" unicode="G" horiz-adv-x="686" 
d="M660 255h-39v-255h-86l-11 76q-30 -38 -79 -62t-115 -24q-136 0 -217.5 95.5t-81.5 235.5q0 139 86 239t242 100q79 0 141 -22.5t96 -54.5l18 -134l-91 -9l-18 82q-58 40 -148 40q-91 0 -149 -62t-58 -177q0 -113 55 -174t144 -61q75 0 118 40.5t43 102.5v24h-138v95h288
v-95z" />
    <glyph glyph-name="uni0048" unicode="H" horiz-adv-x="759" 
d="M718 0h-260v95h75v188h-307v-188h74v-95h-260v95h75v460h-75v95h260v-95h-74v-178h307v178h-75v95h260v-95h-74v-460h74v-95z" />
    <glyph glyph-name="uni0049" unicode="I" horiz-adv-x="341" 
d="M300 0h-260v95h75v460h-75v95h260v-95h-74v-460h74v-95z" />
    <glyph glyph-name="uni004A" unicode="J" horiz-adv-x="475" 
d="M442 555h-64v-377q0 -94 -50.5 -141t-135.5 -47q-76 0 -118.5 33.5t-63.5 80.5l78 59q19 -43 42.5 -56.5t51.5 -13.5q45 0 65 23.5t20 60.5v378h-120v95h295v-95z" />
    <glyph glyph-name="uni004B" unicode="K" horiz-adv-x="662" 
d="M654 0h-265v95h67l-140 189h-90v-189h62v-95h-248v95h75v460h-75v95h251v-95h-65v-180h91l135 180h-64v95h254v-95h-73l-167 -215l182 -245h70v-95z" />
    <glyph glyph-name="uni004C" unicode="L" horiz-adv-x="553" 
d="M521 0h-481v95h75v460h-75v95h283v-95h-97v-460h200l20 135l95 -8z" />
    <glyph glyph-name="uni004D" unicode="M" horiz-adv-x="893" 
d="M859 555h-82v-460h74v-95h-249v95h64v311h-4l-189 -360h-50l-199 369h-4v-320h68v-95h-246v95h74v460h-82v95h176l240 -443h4l228 443h177v-95z" />
    <glyph glyph-name="uni004E" unicode="N" horiz-adv-x="752" 
d="M722 555h-75v-555l-64 -1l-360 451h-4v-355h95v-95h-271v95h72v460h-82v95h163l343 -430h4v335h-95v95h274v-95z" />
    <glyph glyph-name="uni004F" unicode="O" horiz-adv-x="718" 
d="M689 326q0 -138 -89 -237t-243 -99q-155 0 -241 99t-86 235q0 142 90 239t240 97q152 0 240.5 -98.5t88.5 -235.5zM569 323q0 109 -55.5 174t-154.5 65q-104 0 -156.5 -67.5t-52.5 -167.5q0 -97 51.5 -168t160.5 -71q103 0 155 66.5t52 168.5z" />
    <glyph glyph-name="uni0050" unicode="P" horiz-adv-x="589" 
d="M569 443q0 -107 -68.5 -161.5t-164.5 -54.5h-110v-132h104v-95h-290v95h75v460h-75v95h290q121 0 180 -58t59 -149zM450 441q0 54 -30.5 84t-102.5 30h-91v-234h91q71 0 102 32.5t31 87.5z" />
    <glyph glyph-name="uni0051" unicode="Q" horiz-adv-x="725" 
d="M689 326q0 -133 -82 -229l69 -71l-69 -69l-77 78q-77 -45 -173 -45q-155 0 -241 99t-86 235q0 142 90 239t240 97q152 0 240.5 -98.5t88.5 -235.5zM569 323q0 109 -55.5 174t-154.5 65q-104 0 -156.5 -67.5t-52.5 -167.5q0 -97 51.5 -168t160.5 -71q54 0 95 22l-106 109
l69 69l110 -112q39 58 39 147z" />
    <glyph glyph-name="uni0052" unicode="R" horiz-adv-x="630" 
d="M619 0h-152l-134 257h-107v-162h76v-95h-262v95h75v460h-75v95h289q121 0 181 -50.5t60 -141.5q0 -65 -34.5 -111.5t-95.5 -66.5l99 -185h80v-95zM452 455q0 55 -32 77.5t-109 22.5h-85v-209h84q80 0 111 28.5t31 80.5z" />
    <glyph glyph-name="uni0053" unicode="S" horiz-adv-x="548" 
d="M512 191q0 -97 -67.5 -149t-178.5 -52q-66 0 -127.5 16t-97.5 46l18 149l89 -9l-2 -80q33 -17 60.5 -21.5t51.5 -4.5q58 0 96.5 18.5t38.5 74.5q0 61 -44 81.5t-101 31.5q-46 9 -93 24t-78 50t-31 103q0 102 69.5 146.5t155.5 44.5q60 0 116.5 -18t88.5 -47l6 -137
l-89 -8l-9 84q-28 16 -56 22t-54 6q-47 0 -78 -19t-31 -61q0 -49 38.5 -66.5t86.5 -28.5q41 -9 93 -24t90.5 -53.5t38.5 -118.5z" />
    <glyph glyph-name="uni0054" unicode="T" horiz-adv-x="639" 
d="M618 438l-96 -8l-20 125h-127v-460h109v-95h-325v95h105v460h-128l-20 -125l-95 8l20 212h557z" />
    <glyph glyph-name="uni0055" unicode="U" horiz-adv-x="719" 
d="M688 555h-60v-287q0 -69 -25.5 -132.5t-85 -104.5t-161.5 -41q-147 0 -205 81t-58 186v298h-62v95h254v-95h-81v-295q0 -77 37 -124.5t121 -47.5q82 0 122 47.5t40 132.5v287h-83v95h247v-95z" />
    <glyph glyph-name="uni0056" unicode="V" horiz-adv-x="671" 
d="M668 555h-60l-232 -555h-80l-232 555h-62v95h256v-95h-72l154 -385h5l150 385h-73v95h246v-95z" />
    <glyph glyph-name="uni0057" unicode="W" horiz-adv-x="968" 
d="M959 555h-53l-177 -555h-82l-159 458h-5l-154 -458h-83l-188 555h-56v95h247v-95h-72l112 -372h5l129 372h-57v95h246v-95h-53l129 -377h5l102 377h-80v95h244v-95z" />
    <glyph glyph-name="uni0058" unicode="X" horiz-adv-x="653" 
d="M645 0h-250v95h59l-133 166l-124 -166h63v-95h-254v95h69l189 239l-183 221h-61v95h246v-95h-55l120 -149l113 149h-54v95h242v-95h-64l-180 -219l198 -241h59v-95z" />
    <glyph glyph-name="uni0059" unicode="Y" horiz-adv-x="633" 
d="M626 555h-59l-194 -303v-157h109v-95h-324v95h104v158l-201 302h-60v95h257v-95h-68l130 -204h6l127 204h-72v95h245v-95z" />
    <glyph glyph-name="uni005A" unicode="Z" horiz-adv-x="584" 
d="M536 0h-508l-3 59l351 494v2h-216l-23 -113l-94 9l22 199h471l2 -53l-354 -500v-2h257l23 127l95 -10z" />
    <glyph glyph-name="uni005B" unicode="[" horiz-adv-x="292" 
d="M74 -235v1007h205v-74h-114v-859h114v-74h-205z" />
    <glyph glyph-name="uni005C" unicode="\" horiz-adv-x="408" 
d="M72 688h105l203 -688h-105z" />
    <glyph glyph-name="uni005D" unicode="]" horiz-adv-x="293" 
d="M218 -235h-205v74h114v859h-114v74h205v-1007z" />
    <glyph glyph-name="uni005E" unicode="^" horiz-adv-x="463" 
d="M194 652h67l169 -283h-98l-104 179l-96 -179h-99z" />
    <glyph glyph-name="uni005F" unicode="_" 
d="M41 -70h432v-72h-432v72z" />
    <glyph glyph-name="uni0060" unicode="`" horiz-adv-x="440" 
d="M366 555l-30 -43l-186 97l57 84z" />
    <glyph glyph-name="uni0061" unicode="a" horiz-adv-x="497" 
d="M73 416q50 24 89 33t90 9q75 0 123.5 -38t48.5 -114v-202q0 -40 33 -40q9 0 23 4l1 -59q-33 -19 -72 -19q-85 0 -92 89v2q-20 -35 -56.5 -63t-90.5 -28q-47 0 -92.5 28.5t-45.5 99.5q0 83 66 109.5t143 26.5q19 0 39 -1t37 -3v25q0 40 -14 72t-70 32q-21 0 -39.5 -3
t-35.5 -12l-18 -69l-86 9zM317 178v16q-17 2 -35 4t-37 2q-40 0 -71.5 -14t-31.5 -56q0 -61 65 -61q38 0 72 27.5t38 81.5z" />
    <glyph glyph-name="uni0062" unicode="b" horiz-adv-x="544" 
d="M517 235q0 -95 -50 -170t-154 -75q-106 0 -149 80q-2 -12 -5 -35t-5 -35h-106q6 33 11 67.5t5 67.5v471h-67v82h173v-328q20 40 56.5 69t98.5 29q85 0 138.5 -58.5t53.5 -164.5zM406 226q0 71 -32 108.5t-82 37.5q-57 0 -89 -42t-33 -91v-32q0 -55 32.5 -93.5t85.5 -38.5
q56 0 87 41t31 110z" />
    <glyph glyph-name="uni0063" unicode="c" horiz-adv-x="467" 
d="M445 161q-7 -60 -53 -115.5t-148 -55.5q-96 0 -156.5 58t-60.5 169q0 109 62.5 175t163.5 66q40 0 80 -10t79 -33l18 -126l-86 -9l-15 74q-37 18 -78 18q-112 0 -112 -150q0 -146 115 -146q84 0 101 102z" />
    <glyph glyph-name="uni0064" unicode="d" horiz-adv-x="562" 
d="M548 0h-173v86q-20 -39 -57.5 -67.5t-98.5 -28.5q-88 0 -139.5 60t-51.5 165q0 96 48.5 169.5t152.5 73.5q53 0 89.5 -21.5t56.5 -57.5v227h-97v82h204v-606h66v-82zM375 216v34q-1 56 -34 89t-81 33q-54 0 -87.5 -40.5t-33.5 -110.5q0 -71 33.5 -108t80.5 -37
q55 0 88 45t34 95z" />
    <glyph glyph-name="uni0065" unicode="e" horiz-adv-x="478" 
d="M452 137q-6 -59 -58 -103t-143 -44q-98 0 -161 57.5t-63 169.5q0 103 57.5 172t160.5 69q93 0 147.5 -55.5t55.5 -140.5q0 -28 -6 -60h-303q9 -126 120 -126q52 0 74.5 25t29.5 53zM338 268q4 40 -18.5 75.5t-75.5 35.5q-48 0 -73 -32t-31 -79h198z" />
    <glyph glyph-name="uni0066" unicode="f" horiz-adv-x="334" 
d="M265 698q31 0 63 -7.5t61 -29.5l19 -115l-84 -10l-21 73q-20 7 -41 7q-62 0 -62 -78v-89h113v-79h-113v-288h85v-82h-258v82h67v288h-59v79h59v74q0 73 46 124t125 51z" />
    <glyph glyph-name="uni0067" unicode="g" horiz-adv-x="560" 
d="M546 366h-65v-349q0 -107 -59.5 -173t-177.5 -66q-70 0 -131 30t-86 103l83 45q42 -92 136 -92q56 0 92 40t36 114v67q-19 -36 -54.5 -61.5t-97.5 -25.5q-79 0 -136.5 55.5t-57.5 161.5q0 96 51.5 169.5t149.5 73.5q102 0 145 -79v70h172v-83zM374 214v36q0 56 -32 89
t-80 33q-56 0 -86 -40.5t-30 -109.5q0 -71 30 -104.5t76 -33.5q57 0 89.5 40t32.5 90z" />
    <glyph glyph-name="uni0068" unicode="h" horiz-adv-x="573" 
d="M562 0h-241v82h67v176q0 64 -24 90.5t-65 26.5q-49 0 -78 -32t-31 -78v-183h66v-82h-240v82h67v524h-67v82h174v-313q46 83 149 83q65 0 110.5 -39t45.5 -122v-215h67v-82z" />
    <glyph glyph-name="uni0069" unicode="i" horiz-adv-x="292" 
d="M94 542v118h109v-118h-109zM273 0h-240v82h67v284h-71v83h177v-367h67v-82z" />
    <glyph glyph-name="uni006A" unicode="j" horiz-adv-x="260" 
d="M89 542v118h109v-118h-109zM198 5q0 -127 -50 -183t-162 -45l-3 73q41 0 74.5 23.5t33.5 131.5v361h-81v83h188v-444z" />
    <glyph glyph-name="uni006B" unicode="k" horiz-adv-x="540" 
d="M528 0h-224v82h52l-94 112h-72v-112h50v-82h-224v82h67v524h-71v82h178v-417h77l79 95h-59v83h219v-83h-56l-106 -124l136 -160h48v-82z" />
    <glyph glyph-name="uni006C" unicode="l" horiz-adv-x="278" 
d="M259 0h-240v82h67v524h-71v82h177v-606h67v-82z" />
    <glyph glyph-name="uni006D" unicode="m" horiz-adv-x="871" 
d="M860 0h-198v82h25v176q0 64 -22.5 90.5t-63.5 26.5q-53 0 -77.5 -36t-25.5 -82v-175h67v-82h-198v82h24v176q0 64 -22.5 90.5t-62.5 26.5q-52 0 -77 -35.5t-26 -81.5v-176h84v-82h-258v82h67v284h-66v83h173v-74q21 37 56 60t85 23t90 -24.5t56 -76.5q20 46 58 73.5
t93 27.5q61 0 107 -39t46 -122v-215h66v-82z" />
    <glyph glyph-name="uni006E" unicode="n" horiz-adv-x="586" 
d="M575 0h-240v82h66v176q0 64 -23 90.5t-64 26.5q-51 0 -80.5 -33t-30.5 -81v-179h67v-82h-241v82h67v284h-70v83h177v-73q47 82 149 82q64 0 110 -39t46 -122v-215h67v-82z" />
    <glyph glyph-name="uni006F" unicode="o" horiz-adv-x="519" 
d="M493 224q0 -105 -66.5 -169.5t-172.5 -64.5q-103 0 -165.5 62t-62.5 168q0 98 59 168.5t175 70.5q117 0 175 -70t58 -165zM382 227q0 72 -34.5 110t-89.5 38q-57 0 -89 -40.5t-32 -108.5q0 -64 30.5 -108t90.5 -44q58 0 91 42.5t33 110.5z" />
    <glyph glyph-name="uni0070" unicode="p" horiz-adv-x="563" 
d="M535 236q0 -96 -50.5 -171t-155.5 -75q-97 0 -141 70v-189h89v-84h-263v84h67v496h-70v82h177v-89q19 40 55.5 69t98.5 29q86 0 139.5 -58.5t53.5 -163.5zM424 225q0 72 -33 109.5t-84 37.5q-54 0 -85 -41t-33 -96l-1 -35q0 -56 32.5 -90t83.5 -34q57 0 88.5 40t31.5 109
z" />
    <glyph glyph-name="uni0071" unicode="q" horiz-adv-x="545" 
d="M544 -213h-259v84h89v216q-20 -40 -56 -68.5t-98 -28.5q-85 0 -139 58.5t-54 163.5q0 96 50.5 171t153.5 75q108 0 151 -85q2 19 5 38t7 38h104q-8 -38 -12.5 -76t-4.5 -76v-426h63v-84zM374 216v33q0 56 -33 89.5t-83 33.5q-56 0 -87.5 -40.5t-31.5 -109.5
q0 -72 32 -109t80 -37q57 0 90 45t33 95z" />
    <glyph glyph-name="uni0072" unicode="r" horiz-adv-x="433" 
d="M303 456q45 0 84 -25l19 -140l-83 -10l-17 77q-20 10 -34 10q-28 0 -48.5 -23t-20.5 -64v-199h89v-82h-263v82h67v284h-70v83h169v-84q12 38 38.5 64.5t69.5 26.5z" />
    <glyph glyph-name="uni0073" unicode="s" horiz-adv-x="451" 
d="M421 134q0 -70 -57.5 -107t-146.5 -37q-48 0 -96.5 11t-87.5 33l16 116l84 -8l-1 -58q19 -8 40.5 -11t38.5 -3q41 0 71.5 14.5t30.5 43.5q0 28 -27.5 40t-68.5 18.5t-82 18t-68.5 38t-27.5 79.5q0 78 59.5 107t125.5 29q87 0 164 -41l11 -111l-84 -10l-9 67
q-39 15 -79 15q-31 0 -52.5 -12.5t-21.5 -39.5q0 -28 27 -39t67 -17.5t80 -18t67 -38t27 -79.5z" />
    <glyph glyph-name="uni0074" unicode="t" horiz-adv-x="388" 
d="M391 132q-19 -142 -158 -142q-72 0 -114.5 38t-42.5 106v236h-66v79h66v139h107v-139h167v-79h-167v-219q0 -71 62 -71q17 0 38 12.5t29 64.5z" />
    <glyph glyph-name="uni0075" unicode="u" horiz-adv-x="576" 
d="M561 0h-177v75q-44 -84 -148 -84q-64 0 -110.5 38.5t-46.5 122.5v215h-67v82h174v-258q0 -64 23 -90.5t65 -26.5q50 0 79.5 35t30.5 83v175h-80v82h187v-367h70v-82z" />
    <glyph glyph-name="uni0076" unicode="v" horiz-adv-x="520" 
d="M512 367h-49l-161 -367h-78l-170 367h-50v82h220v-82h-55l101 -228h6l84 228h-50v82h202v-82z" />
    <glyph glyph-name="uni0077" unicode="w" horiz-adv-x="762" 
d="M754 367h-45l-126 -367h-80l-124 296h-5l-117 -296h-76l-129 367h-44v82h228v-82h-70l69 -216h6l115 298h66l129 -295h6l54 213h-67v82h210v-82z" />
    <glyph glyph-name="uni0078" unicode="x" horiz-adv-x="528" 
d="M513 0h-215v82h43l-81 92l-80 -92h38v-82h-201v82h62l130 140l-138 145h-51v82h219v-82h-42l75 -90l80 90h-39v82h189v-82h-47l-129 -135l139 -150h48v-82z" />
    <glyph glyph-name="uni0079" unicode="y" horiz-adv-x="523" 
d="M515 367h-47l-150 -367l-50 -129h66v-84h-240v84h76l44 125l-159 371h-49v82h221v-82h-57l104 -243h6l84 243h-51v82h202v-82z" />
    <glyph glyph-name="uni007A" unicode="z" horiz-adv-x="472" 
d="M424 0h-387l-9 58l256 309h-163l-18 -77l-79 8l15 151h382l7 -59l-261 -308h176l22 78l85 -10z" />
    <glyph glyph-name="uni007B" unicode="{" horiz-adv-x="292" 
d="M116 267q62 -8 87 -34.5t25 -55.5q0 -33 -21.5 -80t-43 -98.5t-21.5 -95.5q0 -64 63 -64h64v-73h-64q-84 0 -118 41t-34 94q0 51 21.5 105.5t42.5 101t21 75.5q0 37 -37.5 48t-60.5 11h-19v50h19q22 0 60 10.5t38 47.5q0 28 -21 76t-42.5 103t-21.5 108q0 58 35.5 96.5
t116.5 38.5h64v-74h-64q-63 0 -63 -64q0 -44 21.5 -96.5t43 -101t21.5 -80.5q0 -28 -25 -55t-87 -34z" />
    <glyph glyph-name="uni007C" unicode="|" horiz-adv-x="240" 
d="M166 730v-810h-92v810h92z" />
    <glyph glyph-name="uni007D" unicode="}" horiz-adv-x="292" 
d="M176 271q-62 8 -87 34.5t-25 55.5q0 33 21.5 80t43 98.5t21.5 95.5q0 64 -63 64h-64v73h64q84 0 118 -41t34 -94q0 -51 -21.5 -105.5t-42.5 -101t-21 -75.5q0 -37 37.5 -48t60.5 -11h19v-50h-19q-22 0 -60 -10.5t-38 -47.5q0 -28 21 -76t42.5 -103t21.5 -108
q0 -58 -35.5 -96.5t-116.5 -38.5h-64v74h64q63 0 63 64q0 44 -21.5 96.5t-43 101t-21.5 80.5q0 28 25 55t87 34z" />
    <glyph glyph-name="uni007E" unicode="~" horiz-adv-x="584" 
d="M393 185q-43 0 -77 17t-66 34t-70 17q-21 0 -42.5 -11.5t-47.5 -51.5l-60 40q60 121 153 121q39 0 70 -17t63.5 -34t75.5 -17q29 0 50.5 14.5t47.5 57.5l67 -44q-29 -58 -69.5 -92t-94.5 -34z" />
    <glyph glyph-name="uni00A0" unicode="&#xa0;" horiz-adv-x="202" 
 />
    <glyph glyph-name="uni00A1" unicode="&#xa1;" horiz-adv-x="238" 
d="M54 324v127h127v-127h-127zM183 -201h-127l24 433h79z" />
    <glyph glyph-name="uni00A2" unicode="&#xa2;" horiz-adv-x="487" 
d="M452 161q-7 -55 -44.5 -107t-120.5 -62v-76h-60v75q-86 7 -139 65t-53 161q0 100 53 164t139 75v73h60v-72q34 -3 67 -13t65 -29l19 -126l-86 -9l-15 70q-13 5 -25 9.5t-25 6.5v-284q61 12 76 96zM150 222q0 -117 77 -138v280q-77 -22 -77 -142z" />
    <glyph glyph-name="uni00A3" unicode="&#xa3;" horiz-adv-x="500" 
d="M464 83q-9 -21 -46.5 -52t-98.5 -31h-277v80q39 21 49 54.5t10 86.5h-62v64h62v49q0 100 52.5 147t126.5 47q41 0 79.5 -10.5t65.5 -35.5l15 -116l-84 -8l-15 74q-15 8 -28.5 10.5t-25.5 2.5q-37 0 -58 -24.5t-21 -85.5v-50h155v-64h-155q-1 -44 -10.5 -79.5t-49.5 -59.5
h149q45 0 72 14t47 37z" />
    <glyph glyph-name="uni00A4" unicode="&#xa4;" horiz-adv-x="492" 
d="M95 266q0 43 22 79l-85 85l41 41l84 -83q40 29 89 29t89 -29l84 83l41 -41l-85 -85q22 -36 22 -79q0 -46 -25 -83l88 -87l-41 -41l-88 86q-37 -26 -85 -26t-86 26l-87 -86l-41 41l87 87q-24 38 -24 83zM187 266q0 -29 17.5 -48t42.5 -19q24 0 41 19t17 48t-17 48t-41 19
q-25 0 -42.5 -19t-17.5 -48z" />
    <glyph glyph-name="uni00A5" unicode="&#xa5;" horiz-adv-x="592" 
d="M254 439h-53l101 -151h6l98 151h-58v82h212v-82h-45l-115 -167h84v-58h-124l-7 -11v-27h131v-58h-131v-36h90v-82h-282v82h85v36h-132v58h132v27l-8 11h-124v58h83l-119 167h-47v82h223v-82z" />
    <glyph glyph-name="uni00A6" unicode="&#xa6;" horiz-adv-x="236" 
d="M164 730v-304h-92v304h92zM164 224v-304h-92v304h92z" />
    <glyph glyph-name="uni00A7" unicode="&#xa7;" horiz-adv-x="615" 
d="M521 146q0 -70 -56 -113t-151 -43q-47 0 -116.5 12t-119.5 37l16 126l84 -9l-4 -69q24 -11 66 -16t70 -5q46 0 75.5 19t29.5 54q0 41 -41 52t-100 18q-54 5 -109 16.5t-92.5 37t-37.5 74.5q0 39 23.5 63.5t55.5 39.5q-25 32 -25 74q0 69 56 107.5t151 38.5q50 0 100 -9.5
t98 -31.5l11 -128l-84 -9l-10 79q-46 23 -115 23q-40 0 -70.5 -14t-30.5 -48q0 -37 34.5 -54.5t84.5 -24.5q50 -8 114 -18t111 -37.5t47 -87.5q0 -40 -22 -66t-54 -44q11 -19 11 -44zM487 286q0 32 -36 47.5t-86 22t-91 12.5q-26 3 -53.5 10t-52.5 19q-35 -16 -35 -45
q0 -35 47.5 -45.5t133.5 -21.5q38 -5 76.5 -13t69.5 -24q27 14 27 38z" />
    <glyph glyph-name="uni00A8" unicode="&#xa8;" horiz-adv-x="406" 
d="M59 540v115h111v-115h-111zM239 540v115h110v-115h-110z" />
    <glyph glyph-name="uni00A9" unicode="&#xa9;" horiz-adv-x="607" 
d="M571 261q0 -113 -78.5 -190.5t-189.5 -77.5t-189.5 77.5t-78.5 189.5t78 190.5t191 78.5q112 0 189.5 -78.5t77.5 -189.5zM512 261q0 86 -56 148.5t-152 62.5t-152.5 -62.5t-56.5 -149.5q0 -88 57 -149.5t151 -61.5q91 0 150 62t59 150zM416 143q-17 -17 -48.5 -26
t-66.5 -9q-62 0 -105.5 38.5t-43.5 113.5q0 68 40.5 113.5t108.5 45.5q41 0 69.5 -10t45.5 -25l9 -70l-46 -5l-8 44q-24 18 -66 18q-90 0 -90 -108q0 -54 25.5 -80.5t67.5 -26.5q40 0 62 14l8 48l46 -5z" />
    <glyph glyph-name="uni00AA" unicode="&#xaa;" horiz-adv-x="376" 
d="M175 650q-23 0 -47 -11l-13 -48l-64 7l13 75q57 31 121 31q126 0 126 -100v-129q0 -25 20 -25q6 0 14 2l1 -40q-25 -14 -54 -14q-59 0 -64 60q-14 -23 -37.5 -41.5t-60.5 -18.5q-33 0 -64.5 19t-31.5 65q0 54 45.5 71t97.5 17q13 0 26 -0.5t24 -1.5v13q0 25 -7 47t-45 22
zM227 520v10q-11 2 -22 3t-23 1q-23 0 -41 -8.5t-18 -34.5q0 -37 40 -37q24 0 43 16.5t21 49.5z" />
    <glyph glyph-name="uni00AB" unicode="&#xab;" horiz-adv-x="464" 
d="M258 25h-89l-138 246l138 240h89l-121 -240zM426 25h-89l-138 246l138 240h89l-121 -240z" />
    <glyph glyph-name="uni00AC" unicode="&#xac;" horiz-adv-x="583" 
d="M456 84v160h-407v75h481v-235h-74z" />
    <glyph glyph-name="uni00AE" unicode="&#xae;" horiz-adv-x="572" 
d="M286 159q-104 0 -177 72.5t-73 177.5q0 104 73 177.5t178 73.5t177.5 -73.5t72.5 -177.5t-73.5 -177t-177.5 -73zM286 215q86 0 138.5 57.5t52.5 136.5t-51.5 137t-138.5 58q-88 0 -139.5 -58t-51.5 -137q0 -80 52 -137t138 -57zM171 324h30v183h-30v42h125
q103 0 103 -79q0 -53 -54 -73l40 -73h33v-42h-70l-55 104h-39v-62h31v-42h-114v42zM284 426q58 0 58 42q0 39 -57 39h-31v-81h30z" />
    <glyph glyph-name="uni00AF" unicode="&#xaf;" horiz-adv-x="335" 
d="M301 547h-259v82h259v-82z" />
    <glyph glyph-name="uni00B0" unicode="&#xb0;" horiz-adv-x="376" 
d="M187 342q-75 0 -117 45t-42 113t44 114t117 46q78 0 118 -46.5t40 -112.5q0 -67 -42 -113t-118 -46zM188 418q30 0 51 20t21 63t-20.5 63t-50.5 20q-31 0 -52 -20t-21 -64q0 -43 21 -62.5t51 -19.5z" />
    <glyph glyph-name="uni00B1" unicode="&#xb1;" horiz-adv-x="431" 
d="M42 253v75h139v136h75v-136h133v-75h-133v-136h-75v136h-139zM42 0v75h347v-75h-347z" />
    <glyph glyph-name="uni00B2" unicode="&#xb2;" horiz-adv-x="360" 
d="M101 659l-65 6l13 90q54 30 130 30q73 0 103.5 -31t30.5 -67q0 -43 -34 -83.5t-76.5 -73t-69.5 -51.5h125l11 54l68 -8l-10 -110h-291l-8 59q41 32 85.5 68t75.5 70.5t31 64.5q0 44 -57 44q-30 0 -51 -13z" />
    <glyph glyph-name="uni00B3" unicode="&#xb3;" horiz-adv-x="348" 
d="M106 664l-65 5l12 86q25 14 61 21.5t66 7.5q59 0 91.5 -26t32.5 -65q0 -58 -65 -83v-2q43 -9 61 -34.5t18 -56.5q0 -53 -43.5 -81t-109.5 -28q-52 0 -87.5 24t-44.5 74l61 20q7 -22 22.5 -37t46.5 -15t47 16t16 38q0 49 -88 52v48q32 2 53.5 12t21.5 39q0 41 -49 41
q-27 0 -48 -12z" />
    <glyph glyph-name="uni00B4" unicode="&#xb4;" horiz-adv-x="440" 
d="M389 609l-187 -97l-29 43l159 138z" />
    <glyph glyph-name="uni00B5" unicode="&#xb5;" horiz-adv-x="584" 
d="M85 -213v579h-67v83h174v-258q0 -64 23 -91t65 -27q50 0 79 33t31 79v181h-80v83h187v-367h71v-82h-178v74q-46 -83 -149 -83q-27 0 -49 6v-210h-107z" />
    <glyph glyph-name="uni00B6" unicode="&#xb6;" horiz-adv-x="642" 
d="M604 650v-91h-68v-559h-100v559h-49v-559h-100v310h-51q-88 0 -148.5 39.5t-60.5 134.5q0 68 54.5 117t160.5 49h362z" />
    <glyph glyph-name="uni00B7" unicode="&#xb7;" horiz-adv-x="226" 
d="M46 253v140h132v-140h-132z" />
    <glyph glyph-name="uni00B8" unicode="&#xb8;" horiz-adv-x="256" 
d="M285 -122q0 -49 -37.5 -68t-83.5 -19q-73 0 -109 30l21 59q12 -8 31 -15.5t45 -7.5q42 0 42 28q0 31 -46 31h-34v90h74v-49h8q49 0 69 -24.5t20 -54.5z" />
    <glyph glyph-name="uni00B9" unicode="&#xb9;" horiz-adv-x="274" 
d="M31 479h74v236h-74v64h159v-300h67v-64h-226v64z" />
    <glyph glyph-name="uni00BA" unicode="&#xba;" horiz-adv-x="376" 
d="M27 547q0 65 40 110.5t121 45.5t121 -45.5t40 -106.5q0 -69 -47 -111t-119 -42q-70 0 -113 40t-43 109zM117 552q0 -39 17 -64t52 -25q72 0 72 90q0 44 -20 65t-51 21q-70 0 -70 -87z" />
    <glyph glyph-name="uni00BB" unicode="&#xbb;" horiz-adv-x="464" 
d="M294 25h-89l122 246l-122 240h89l138 -240zM127 25h-90l122 246l-122 240h90l138 -240z" />
    <glyph glyph-name="uni00BC" unicode="&#xbc;" horiz-adv-x="730" 
d="M583 650l-191 -325l-181 -325h-75l198 337l174 313h75zM39 350h74v236h-74v64h159v-300h67v-64h-226v64zM559 0v74h-170l-9 62l115 228h149v-225h59l-6 -65h-53v-74h-85zM539 300l-84 -161h104v161h-20z" />
    <glyph glyph-name="uni00BD" unicode="&#xbd;" horiz-adv-x="770" 
d="M580 650l-191 -325l-181 -325h-75l198 337l174 313h75zM36 350h74v236h-74v64h159v-300h67v-64h-226v64zM513 244l-65 6l13 90q54 30 130 30q73 0 103.5 -31t30.5 -67q0 -44 -34 -84t-76.5 -72.5t-69.5 -51.5h125l11 54l68 -8l-10 -110h-291l-8 59q41 33 85.5 68.5
t75.5 70t31 64.5q0 44 -57 44q-30 0 -51 -13z" />
    <glyph glyph-name="uni00BE" unicode="&#xbe;" horiz-adv-x="760" 
d="M109 540l-65 5l12 86q25 14 61 21.5t66 7.5q59 0 91.5 -26t32.5 -65q0 -58 -65 -83v-2q44 -9 61.5 -34.5t17.5 -56.5q0 -53 -43.5 -81t-109.5 -28q-52 0 -87.5 24t-44.5 74l61 20q7 -22 22.5 -37t46.5 -15t47 16t16 38q0 49 -88 52v48q32 2 53.5 12t21.5 39q0 41 -49 41
q-27 0 -48 -12zM610 650l-191 -325l-181 -325h-75l198 337l174 313h75zM588 0v74h-170l-9 62l115 228h149v-225h59l-6 -65h-53v-74h-85zM568 300l-84 -161h104v161h-20z" />
    <glyph glyph-name="uni00BF" unicode="&#xbf;" horiz-adv-x="461" 
d="M308 451v-127h-128v127h128zM340 -7l86 -8l-16 -141q-47 -26 -97 -39t-92 -13q-84 0 -140.5 37.5t-56.5 103.5q0 51 30 82.5t68.5 52.5t68.5 40t30 46q0 33 -45 33v68q161 16 161 -89q0 -47 -29 -73.5t-67 -44.5t-67 -39.5t-29 -57.5q0 -62 89 -62q23 0 48.5 6t43.5 18z
" />
    <glyph glyph-name="uni00C0" unicode="&#xc0;" horiz-adv-x="672" 
d="M397 743l-13 -49l-209 33l25 99zM675 0h-249v95h66l-33 89h-243l-35 -89h73v-95h-246v95h60l196 460h-95v95h209l234 -555h63v-95zM429 265l-85 226h-6l-90 -226h181z" />
    <glyph glyph-name="uni00C1" unicode="&#xc1;" horiz-adv-x="672" 
d="M501 727l-209 -33l-14 49l198 83zM675 0h-249v95h66l-33 89h-243l-35 -89h73v-95h-246v95h60l196 460h-95v95h209l234 -555h63v-95zM429 265l-85 226h-6l-90 -226h181z" />
    <glyph glyph-name="uni00C2" unicode="&#xc2;" horiz-adv-x="672" 
d="M482 737l-25 -46l-129 61l-121 -61l-25 45l132 101h36zM675 0h-249v95h66l-33 89h-243l-35 -89h73v-95h-246v95h60l196 460h-95v95h209l234 -555h63v-95zM429 265l-85 226h-6l-90 -226h181z" />
    <glyph glyph-name="uni00C3" unicode="&#xc3;" horiz-adv-x="672" 
d="M469 812q-3 -43 -20 -75.5t-63 -32.5q-37 0 -64.5 16t-59.5 16q-35 0 -45 -35l-44 15q0 26 19.5 62.5t65.5 36.5q33 0 60 -16.5t56 -16.5q14 0 27 8t21 32zM675 0h-249v95h66l-33 89h-243l-35 -89h73v-95h-246v95h60l196 460h-95v95h209l234 -555h63v-95zM429 265
l-85 226h-6l-90 -226h181z" />
    <glyph glyph-name="uni00C4" unicode="&#xc4;" horiz-adv-x="672" 
d="M189 710v115h111v-115h-111zM369 710v115h111v-115h-111zM675 0h-249v95h66l-33 89h-243l-35 -89h73v-95h-246v95h60l196 460h-95v95h209l234 -555h63v-95zM429 265l-85 226h-6l-90 -226h181z" />
    <glyph glyph-name="uni00C5" unicode="&#xc5;" horiz-adv-x="672" 
d="M437 783q0 -41 -25.5 -67.5t-78.5 -26.5q-101 0 -101 92q0 41 26 66.5t78 25.5q53 0 77 -25.5t24 -64.5zM369 785q0 13 -6.5 24.5t-27.5 11.5q-35 0 -35 -40q0 -39 34 -39q35 0 35 43zM675 0h-249v95h66l-33 89h-243l-35 -89h73v-95h-246v95h60l196 460h-95v95h209
l234 -555h63v-95zM429 265l-85 226h-6l-90 -226h181z" />
    <glyph glyph-name="uni00C6" unicode="&#xc6;" horiz-adv-x="928" 
d="M870 0h-492v95h74v89h-233l-42 -89h69v-95h-246v95h64l231 460h-88v95h656l19 -187l-95 -9l-20 101h-204v-180h286v-95h-286v-185h212l20 101l94 -8zM452 265v290h-55l-139 -290h194z" />
    <glyph glyph-name="uni00C7" unicode="&#xc7;" horiz-adv-x="645" 
d="M469 -122q0 -49 -37.5 -68t-83.5 -19q-73 0 -109 30l21 59q12 -8 31 -15.5t45 -7.5q42 0 42 28q0 31 -46 31h-34v78q-119 18 -193.5 105.5t-74.5 217.5q0 81 34 160t106 131t184 52q82 0 140 -23t92 -54l17 -141l-91 -9l-16 90q-60 39 -144 39q-92 0 -147.5 -64
t-55.5 -175q0 -116 59 -175.5t155 -59.5q80 0 131 28l16 97l91 -9l-14 -142q-33 -31 -92 -50t-123 -21v-34h8q49 0 69 -24.5t20 -54.5z" />
    <glyph glyph-name="uni00C8" unicode="&#xc8;" horiz-adv-x="591" 
d="M407 743l-13 -49l-209 33l25 99zM535 0h-495v95h75v460h-75v95h488l20 -188l-95 -8l-20 101h-207v-180h286v-95h-286v-185h214l20 101l95 -8z" />
    <glyph glyph-name="uni00C9" unicode="&#xc9;" horiz-adv-x="591" 
d="M475 727l-209 -33l-14 49l198 83zM535 0h-495v95h75v460h-75v95h488l20 -188l-95 -8l-20 101h-207v-180h286v-95h-286v-185h214l20 101l95 -8z" />
    <glyph glyph-name="uni00CA" unicode="&#xca;" horiz-adv-x="591" 
d="M482 737l-25 -46l-129 61l-121 -61l-25 45l132 101h36zM535 0h-495v95h75v460h-75v95h488l20 -188l-95 -8l-20 101h-207v-180h286v-95h-286v-185h214l20 101l95 -8z" />
    <glyph glyph-name="uni00CB" unicode="&#xcb;" horiz-adv-x="591" 
d="M175 710v115h111v-115h-111zM355 710v115h111v-115h-111zM535 0h-495v95h75v460h-75v95h488l20 -188l-95 -8l-20 101h-207v-180h286v-95h-286v-185h214l20 101l95 -8z" />
    <glyph glyph-name="uni00CC" unicode="&#xcc;" horiz-adv-x="341" 
d="M260 743l-13 -49l-209 33l25 99zM300 0h-260v95h75v460h-75v95h260v-95h-74v-460h74v-95z" />
    <glyph glyph-name="uni00CD" unicode="&#xcd;" horiz-adv-x="341" 
d="M297 727l-209 -33l-14 49l198 83zM300 0h-260v95h75v460h-75v95h260v-95h-74v-460h74v-95z" />
    <glyph glyph-name="uni00CE" unicode="&#xce;" horiz-adv-x="341" 
d="M321 737l-25 -46l-129 61l-121 -61l-25 45l132 101h36zM300 0h-260v95h75v460h-75v95h260v-95h-74v-460h74v-95z" />
    <glyph glyph-name="uni00CF" unicode="&#xcf;" horiz-adv-x="341" 
d="M29 710v115h111v-115h-111zM209 710v115h111v-115h-111zM300 0h-260v95h75v460h-75v95h260v-95h-74v-460h74v-95z" />
    <glyph glyph-name="uni00D0" unicode="&#xd0;" horiz-adv-x="702" 
d="M671 327q0 -146 -87 -236.5t-241 -90.5h-302v95h75v200h-71v92h71v168h-75v95h296q163 0 248.5 -90t85.5 -233zM552 326q0 229 -218 229h-107v-168h126v-92h-126v-200h107q218 0 218 231z" />
    <glyph glyph-name="uni00D1" unicode="&#xd1;" horiz-adv-x="752" 
d="M519 812q-3 -43 -20 -75.5t-63 -32.5q-37 0 -64.5 16t-59.5 16q-35 0 -45 -35l-44 15q0 26 19.5 62.5t65.5 36.5q33 0 60 -16.5t56 -16.5q14 0 27 8t21 32zM722 555h-75v-555l-64 -1l-360 451h-4v-355h95v-95h-271v95h72v460h-82v95h163l343 -430h4v335h-95v95h274v-95z
" />
    <glyph glyph-name="uni00D2" unicode="&#xd2;" horiz-adv-x="718" 
d="M442 743l-13 -49l-209 33l25 99zM689 326q0 -138 -89 -237t-243 -99q-155 0 -241 99t-86 235q0 142 90 239t240 97q152 0 240.5 -98.5t88.5 -235.5zM569 323q0 109 -55.5 174t-154.5 65q-104 0 -156.5 -67.5t-52.5 -167.5q0 -97 51.5 -168t160.5 -71q103 0 155 66.5
t52 168.5z" />
    <glyph glyph-name="uni00D3" unicode="&#xd3;" horiz-adv-x="718" 
d="M521 727l-209 -33l-14 49l198 83zM689 326q0 -138 -89 -237t-243 -99q-155 0 -241 99t-86 235q0 142 90 239t240 97q152 0 240.5 -98.5t88.5 -235.5zM569 323q0 109 -55.5 174t-154.5 65q-104 0 -156.5 -67.5t-52.5 -167.5q0 -97 51.5 -168t160.5 -71q103 0 155 66.5
t52 168.5z" />
    <glyph glyph-name="uni00D4" unicode="&#xd4;" horiz-adv-x="718" 
d="M513 737l-25 -46l-129 61l-121 -61l-25 45l132 101h36zM689 326q0 -138 -89 -237t-243 -99q-155 0 -241 99t-86 235q0 142 90 239t240 97q152 0 240.5 -98.5t88.5 -235.5zM569 323q0 109 -55.5 174t-154.5 65q-104 0 -156.5 -67.5t-52.5 -167.5q0 -97 51.5 -168
t160.5 -71q103 0 155 66.5t52 168.5z" />
    <glyph glyph-name="uni00D5" unicode="&#xd5;" horiz-adv-x="718" 
d="M514 812q-3 -43 -20 -75.5t-63 -32.5q-37 0 -64.5 16t-59.5 16q-35 0 -45 -35l-44 15q0 26 19 62.5t66 36.5q33 0 60 -16.5t56 -16.5q14 0 27.5 8t20.5 32zM689 326q0 -138 -89 -237t-243 -99q-155 0 -241 99t-86 235q0 142 90 239t240 97q152 0 240.5 -98.5t88.5 -235.5
zM569 323q0 109 -55.5 174t-154.5 65q-104 0 -156.5 -67.5t-52.5 -167.5q0 -97 51.5 -168t160.5 -71q103 0 155 66.5t52 168.5z" />
    <glyph glyph-name="uni00D6" unicode="&#xd6;" horiz-adv-x="718" 
d="M219 710v115h111v-115h-111zM399 710v115h111v-115h-111zM689 326q0 -138 -89 -237t-243 -99q-155 0 -241 99t-86 235q0 142 90 239t240 97q152 0 240.5 -98.5t88.5 -235.5zM569 323q0 109 -55.5 174t-154.5 65q-104 0 -156.5 -67.5t-52.5 -167.5q0 -97 51.5 -168
t160.5 -71q103 0 155 66.5t52 168.5z" />
    <glyph glyph-name="uni00D7" unicode="&#xd7;" horiz-adv-x="378" 
d="M92 124l-53 53l98 98l-97 97l53 53l97 -97l94 95l53 -53l-95 -95l96 -95l-52 -54l-97 96z" />
    <glyph glyph-name="uni00D8" unicode="&#xd8;" horiz-adv-x="722" 
d="M691 326q0 -138 -89 -237t-243 -99q-109 0 -190 54l-38 -44h-99l81 95q-81 92 -81 229q0 142 90 239t240 97q54 0 101 -14t85 -39l36 43h108l-83 -96q82 -93 82 -228zM152 327q0 -85 35 -145l293 346q-49 34 -119 34q-104 0 -156.5 -67.5t-52.5 -167.5zM571 323
q0 85 -36 146l-296 -344q49 -37 125 -37q103 0 155 66.5t52 168.5z" />
    <glyph glyph-name="uni00D9" unicode="&#xd9;" horiz-adv-x="718" 
d="M465 743l-13 -49l-209 33l25 99zM688 555h-60v-287q0 -69 -25.5 -132.5t-85 -104.5t-161.5 -41q-147 0 -205 81t-58 186v298h-62v95h254v-95h-81v-295q0 -77 37 -124.5t121 -47.5q82 0 122 47.5t40 132.5v287h-83v95h247v-95z" />
    <glyph glyph-name="uni00DA" unicode="&#xda;" horiz-adv-x="718" 
d="M522 727l-209 -33l-14 49l198 83zM688 555h-60v-287q0 -69 -25.5 -132.5t-85 -104.5t-161.5 -41q-147 0 -205 81t-58 186v298h-62v95h254v-95h-81v-295q0 -77 37 -124.5t121 -47.5q82 0 122 47.5t40 132.5v287h-83v95h247v-95z" />
    <glyph glyph-name="uni00DB" unicode="&#xdb;" horiz-adv-x="718" 
d="M510 737l-25 -46l-129 61l-121 -61l-25 45l132 101h36zM688 555h-60v-287q0 -69 -25.5 -132.5t-85 -104.5t-161.5 -41q-147 0 -205 81t-58 186v298h-62v95h254v-95h-81v-295q0 -77 37 -124.5t121 -47.5q82 0 122 47.5t40 132.5v287h-83v95h247v-95z" />
    <glyph glyph-name="uni00DC" unicode="&#xdc;" horiz-adv-x="718" 
d="M220 710v115h111v-115h-111zM400 710v115h111v-115h-111zM688 555h-60v-287q0 -69 -25.5 -132.5t-85 -104.5t-161.5 -41q-147 0 -205 81t-58 186v298h-62v95h254v-95h-81v-295q0 -77 37 -124.5t121 -47.5q82 0 122 47.5t40 132.5v287h-83v95h247v-95z" />
    <glyph glyph-name="uni00DD" unicode="&#xdd;" horiz-adv-x="633" 
d="M465 727l-209 -33l-14 49l198 83zM626 555h-59l-194 -303v-157h109v-95h-324v95h104v158l-201 302h-60v95h257v-95h-68l130 -204h6l127 204h-72v95h245v-95z" />
    <glyph glyph-name="uni00DE" unicode="&#xde;" horiz-adv-x="592" 
d="M300 0h-260v95h75v460h-75v95h260v-95h-74v-35h112q120 0 179.5 -48.5t59.5 -134.5q0 -102 -68.5 -148.5t-164.5 -46.5h-118v-47h74v-95zM325 447h-99v-233h98q71 0 102.5 32t31.5 88q0 54 -31 83.5t-102 29.5z" />
    <glyph glyph-name="uni00DF" unicode="&#xdf;" horiz-adv-x="672" 
d="M663 133q0 -71 -57 -107t-149 -36q-49 0 -99 11t-89 33l16 116l84 -8l-1 -54q19 -9 42 -12t40 -3q45 0 75 13t30 42t-28 41.5t-68.5 19t-81.5 17.5t-69 36t-28 76q0 54 31 80.5t71.5 42.5t71.5 36t31 61q0 78 -131 78q-85 0 -119.5 -36t-34.5 -97v-483h-173v82h67v284
h-59v83h59v43q0 110 77 158t186 48q124 0 180 -46t56 -108q0 -52 -30 -80t-69 -46t-69 -37t-30 -52q0 -30 27 -42.5t67 -19t80 -17.5t67 -37.5t27 -79.5z" />
    <glyph glyph-name="uni00E0" unicode="&#xe0;" horiz-adv-x="497" 
d="M318 555l-30 -43l-186 97l57 84zM73 416q50 24 89 33t90 9q75 0 123.5 -38t48.5 -114v-202q0 -40 33 -40q9 0 23 4l1 -59q-33 -19 -72 -19q-85 0 -92 89v2q-20 -35 -56.5 -63t-90.5 -28q-47 0 -92.5 28.5t-45.5 99.5q0 83 66 109.5t143 26.5q19 0 39 -1t37 -3v25
q0 40 -14 72t-70 32q-21 0 -39.5 -3t-35.5 -12l-18 -69l-86 9zM317 178v16q-17 2 -35 4t-37 2q-40 0 -71.5 -14t-31.5 -56q0 -61 65 -61q38 0 72 27.5t38 81.5z" />
    <glyph glyph-name="uni00E1" unicode="&#xe1;" horiz-adv-x="497" 
d="M393 609l-187 -97l-29 43l159 138zM73 416q50 24 89 33t90 9q75 0 123.5 -38t48.5 -114v-202q0 -40 33 -40q9 0 23 4l1 -59q-33 -19 -72 -19q-85 0 -92 89v2q-20 -35 -56.5 -63t-90.5 -28q-47 0 -92.5 28.5t-45.5 99.5q0 83 66 109.5t143 26.5q19 0 39 -1t37 -3v25
q0 40 -14 72t-70 32q-21 0 -39.5 -3t-35.5 -12l-18 -69l-86 9zM317 178v16q-17 2 -35 4t-37 2q-40 0 -71.5 -14t-31.5 -56q0 -61 65 -61q38 0 72 27.5t38 81.5z" />
    <glyph glyph-name="uni00E2" unicode="&#xe2;" horiz-adv-x="497" 
d="M395 556l-31 -44l-126 74l-108 -74l-31 43l130 124h36zM73 416q50 24 89 33t90 9q75 0 123.5 -38t48.5 -114v-202q0 -40 33 -40q9 0 23 4l1 -59q-33 -19 -72 -19q-85 0 -92 89v2q-20 -35 -56.5 -63t-90.5 -28q-47 0 -92.5 28.5t-45.5 99.5q0 83 66 109.5t143 26.5
q19 0 39 -1t37 -3v25q0 40 -14 72t-70 32q-21 0 -39.5 -3t-35.5 -12l-18 -69l-86 9zM317 178v16q-17 2 -35 4t-37 2q-40 0 -71.5 -14t-31.5 -56q0 -61 65 -61q38 0 72 27.5t38 81.5z" />
    <glyph glyph-name="uni00E3" unicode="&#xe3;" horiz-adv-x="497" 
d="M393 647q-2 -43 -19.5 -79.5t-61.5 -36.5q-38 0 -66.5 20t-57.5 20q-34 0 -47 -43l-44 14q0 28 19.5 69.5t64.5 41.5q34 0 61.5 -19t56.5 -19q13 0 26 9t21 33zM73 416q50 24 89 33t90 9q75 0 123.5 -38t48.5 -114v-202q0 -40 33 -40q9 0 23 4l1 -59q-33 -19 -72 -19
q-85 0 -92 89v2q-20 -35 -56.5 -63t-90.5 -28q-47 0 -92.5 28.5t-45.5 99.5q0 83 66 109.5t143 26.5q19 0 39 -1t37 -3v25q0 40 -14 72t-70 32q-21 0 -39.5 -3t-35.5 -12l-18 -69l-86 9zM317 178v16q-17 2 -35 4t-37 2q-40 0 -71.5 -14t-31.5 -56q0 -61 65 -61q38 0 72 27.5
t38 81.5z" />
    <glyph glyph-name="uni00E4" unicode="&#xe4;" horiz-adv-x="497" 
d="M102 540v115h111v-115h-111zM282 540v115h110v-115h-110zM73 416q50 24 89 33t90 9q75 0 123.5 -38t48.5 -114v-202q0 -40 33 -40q9 0 23 4l1 -59q-33 -19 -72 -19q-85 0 -92 89v2q-20 -35 -56.5 -63t-90.5 -28q-47 0 -92.5 28.5t-45.5 99.5q0 83 66 109.5t143 26.5
q19 0 39 -1t37 -3v25q0 40 -14 72t-70 32q-21 0 -39.5 -3t-35.5 -12l-18 -69l-86 9zM317 178v16q-17 2 -35 4t-37 2q-40 0 -71.5 -14t-31.5 -56q0 -61 65 -61q38 0 72 27.5t38 81.5z" />
    <glyph glyph-name="uni00E5" unicode="&#xe5;" horiz-adv-x="497" 
d="M351 608q0 -41 -25.5 -67.5t-78.5 -26.5q-51 0 -76 25t-25 66q0 42 26 67.5t78 25.5q53 0 77 -25.5t24 -64.5zM283 609q0 14 -6.5 25.5t-27.5 11.5q-35 0 -35 -41q0 -39 34 -39q35 0 35 43zM73 416q50 24 89 33t90 9q75 0 123.5 -38t48.5 -114v-202q0 -40 33 -40
q9 0 23 4l1 -59q-33 -19 -72 -19q-85 0 -92 89v2q-20 -35 -56.5 -63t-90.5 -28q-47 0 -92.5 28.5t-45.5 99.5q0 83 66 109.5t143 26.5q19 0 39 -1t37 -3v25q0 40 -14 72t-70 32q-21 0 -39.5 -3t-35.5 -12l-18 -69l-86 9zM317 178v16q-17 2 -35 4t-37 2q-40 0 -71.5 -14
t-31.5 -56q0 -61 65 -61q38 0 72 27.5t38 81.5z" />
    <glyph glyph-name="uni00E6" unicode="&#xe6;" horiz-adv-x="768" 
d="M742 137q-6 -59 -58 -103t-143 -44q-134 0 -190 96q-24 -36 -66.5 -66t-106.5 -30q-53 0 -101 28.5t-48 99.5q0 83 68.5 109.5t144.5 26.5q19 0 38.5 -1t36.5 -3v25q0 39 -13.5 71.5t-68.5 32.5q-48 0 -77 -15l-18 -69l-85 9l18 112q51 24 89.5 33t93.5 9q88 0 133 -56
q58 56 146 56q93 0 147.5 -56.5t55.5 -140.5q0 -29 -6 -59h-300q9 -122 117 -122q52 0 74.5 23t28.5 51zM627 263q7 41 -15.5 76.5t-77.5 35.5q-49 0 -72.5 -31.5t-28.5 -80.5h194zM143 130q0 -61 64 -61q38 0 73.5 28t36.5 83v14q-17 2 -35 4t-36 2q-40 0 -71.5 -14
t-31.5 -56z" />
    <glyph glyph-name="uni00E7" unicode="&#xe7;" horiz-adv-x="467" 
d="M376 -123q0 -49 -37.5 -68t-83.5 -19q-73 0 -109 30l21 59q12 -8 31.5 -15.5t44.5 -7.5q42 0 42 28q0 31 -46 31h-34v78q-80 11 -129 67.5t-49 156.5q0 109 62.5 175t163.5 66q40 0 80 -10t79 -33l18 -126l-86 -9l-15 74q-37 18 -78 18q-112 0 -112 -150q0 -146 115 -146
q84 0 101 102l90 -17q-7 -55 -45 -107t-121 -62v-36h8q49 0 69 -24.5t20 -54.5z" />
    <glyph glyph-name="uni00E8" unicode="&#xe8;" horiz-adv-x="478" 
d="M316 555l-30 -43l-186 97l57 84zM452 137q-6 -59 -58 -103t-143 -44q-98 0 -161 57.5t-63 169.5q0 103 57.5 172t160.5 69q93 0 147.5 -55.5t55.5 -140.5q0 -28 -6 -60h-303q9 -126 120 -126q52 0 74.5 25t29.5 53zM338 268q4 40 -18.5 75.5t-75.5 35.5q-48 0 -73 -32
t-31 -79h198z" />
    <glyph glyph-name="uni00E9" unicode="&#xe9;" horiz-adv-x="478" 
d="M418 609l-187 -97l-29 43l159 138zM452 137q-6 -59 -58 -103t-143 -44q-98 0 -161 57.5t-63 169.5q0 103 57.5 172t160.5 69q93 0 147.5 -55.5t55.5 -140.5q0 -28 -6 -60h-303q9 -126 120 -126q52 0 74.5 25t29.5 53zM338 268q4 40 -18.5 75.5t-75.5 35.5q-48 0 -73 -32
t-31 -79h198z" />
    <glyph glyph-name="uni00EA" unicode="&#xea;" horiz-adv-x="478" 
d="M401 556l-31 -44l-126 74l-108 -74l-31 43l130 124h36zM452 137q-6 -59 -58 -103t-143 -44q-98 0 -161 57.5t-63 169.5q0 103 57.5 172t160.5 69q93 0 147.5 -55.5t55.5 -140.5q0 -28 -6 -60h-303q9 -126 120 -126q52 0 74.5 25t29.5 53zM338 268q4 40 -18.5 75.5
t-75.5 35.5q-48 0 -73 -32t-31 -79h198z" />
    <glyph glyph-name="uni00EB" unicode="&#xeb;" horiz-adv-x="478" 
d="M109 540v115h111v-115h-111zM289 540v115h110v-115h-110zM452 137q-6 -59 -58 -103t-143 -44q-98 0 -161 57.5t-63 169.5q0 103 57.5 172t160.5 69q93 0 147.5 -55.5t55.5 -140.5q0 -28 -6 -60h-303q9 -126 120 -126q52 0 74.5 25t29.5 53zM338 268q4 40 -18.5 75.5
t-75.5 35.5q-48 0 -73 -32t-31 -79h198z" />
    <glyph glyph-name="uni00EC" unicode="&#xec;" horiz-adv-x="292" 
d="M199 555l-30 -43l-186 97l57 84zM33 82h67v284h-71v83h177v-367h67v-82h-240v82z" />
    <glyph glyph-name="uni00ED" unicode="&#xed;" horiz-adv-x="292" 
d="M270 609l-187 -97l-29 43l159 138zM33 82h67v284h-71v83h177v-367h67v-82h-240v82z" />
    <glyph glyph-name="uni00EE" unicode="&#xee;" horiz-adv-x="292" 
d="M281 556l-31 -44l-126 74l-108 -74l-31 43l130 124h36zM33 82h67v284h-71v83h177v-367h67v-82h-240v82z" />
    <glyph glyph-name="uni00EF" unicode="&#xef;" horiz-adv-x="292" 
d="M-6 540v115h111v-115h-111zM174 540v115h110v-115h-110zM33 82h67v284h-71v83h177v-367h67v-82h-240v82z" />
    <glyph glyph-name="uni00F0" unicode="&#xf0;" horiz-adv-x="526" 
d="M132 516l48 67l-66 37l45 78q41 -19 75 -41l40 55l58 -36l-41 -57q85 -64 143 -154.5t58 -211.5v-29q0 -106 -66 -170t-172 -64q-103 0 -165.5 62t-62.5 166q0 106 63 173t159 67q50 0 89 -21q-35 61 -100 108l-48 -66zM258 368q-56 0 -86.5 -38t-30.5 -104
q0 -63 29 -104.5t88 -41.5q57 0 88.5 38.5t31.5 101.5v42q-2 44 -35.5 75t-84.5 31z" />
    <glyph glyph-name="uni00F1" unicode="&#xf1;" horiz-adv-x="586" 
d="M444 647q-2 -43 -19.5 -79.5t-61.5 -36.5q-38 0 -66.5 20t-57.5 20q-34 0 -47 -43l-44 14q0 28 19.5 69.5t64.5 41.5q34 0 61.5 -19t56.5 -19q14 0 27 9t20 33zM575 0h-240v82h66v176q0 64 -23 90.5t-64 26.5q-51 0 -80.5 -33t-30.5 -81v-179h67v-82h-241v82h67v284h-70
v83h177v-73q47 82 149 82q64 0 110 -39t46 -122v-215h67v-82z" />
    <glyph glyph-name="uni00F2" unicode="&#xf2;" horiz-adv-x="518" 
d="M330 555l-30 -43l-186 97l57 84zM493 224q0 -105 -66.5 -169.5t-172.5 -64.5q-103 0 -165.5 62t-62.5 168q0 98 59 168.5t175 70.5q117 0 175 -70t58 -165zM382 227q0 72 -34.5 110t-89.5 38q-57 0 -89 -40.5t-32 -108.5q0 -64 30.5 -108t90.5 -44q58 0 91 42.5t33 110.5
z" />
    <glyph glyph-name="uni00F3" unicode="&#xf3;" horiz-adv-x="518" 
d="M435 609l-187 -97l-29 43l159 138zM493 224q0 -105 -66.5 -169.5t-172.5 -64.5q-103 0 -165.5 62t-62.5 168q0 98 59 168.5t175 70.5q117 0 175 -70t58 -165zM382 227q0 72 -34.5 110t-89.5 38q-57 0 -89 -40.5t-32 -108.5q0 -64 30.5 -108t90.5 -44q58 0 91 42.5
t33 110.5z" />
    <glyph glyph-name="uni00F4" unicode="&#xf4;" horiz-adv-x="518" 
d="M415 556l-31 -44l-126 74l-108 -74l-31 43l130 124h36zM493 224q0 -105 -66.5 -169.5t-172.5 -64.5q-103 0 -165.5 62t-62.5 168q0 98 59 168.5t175 70.5q117 0 175 -70t58 -165zM382 227q0 72 -34.5 110t-89.5 38q-57 0 -89 -40.5t-32 -108.5q0 -64 30.5 -108t90.5 -44
q58 0 91 42.5t33 110.5z" />
    <glyph glyph-name="uni00F5" unicode="&#xf5;" horiz-adv-x="518" 
d="M408 647q-2 -43 -19.5 -79.5t-61.5 -36.5q-38 0 -66.5 20t-57.5 20q-34 0 -47 -43l-44 14q0 28 19.5 69.5t64.5 41.5q34 0 61.5 -19t56.5 -19q14 0 27 9t20 33zM493 224q0 -105 -66.5 -169.5t-172.5 -64.5q-103 0 -165.5 62t-62.5 168q0 98 59 168.5t175 70.5
q117 0 175 -70t58 -165zM382 227q0 72 -34.5 110t-89.5 38q-57 0 -89 -40.5t-32 -108.5q0 -64 30.5 -108t90.5 -44q58 0 91 42.5t33 110.5z" />
    <glyph glyph-name="uni00F6" unicode="&#xf6;" horiz-adv-x="518" 
d="M116 540v115h111v-115h-111zM296 540v115h110v-115h-110zM493 224q0 -105 -66.5 -169.5t-172.5 -64.5q-103 0 -165.5 62t-62.5 168q0 98 59 168.5t175 70.5q117 0 175 -70t58 -165zM382 227q0 72 -34.5 110t-89.5 38q-57 0 -89 -40.5t-32 -108.5q0 -64 30.5 -108
t90.5 -44q58 0 91 42.5t33 110.5z" />
    <glyph glyph-name="uni00F7" unicode="&#xf7;" horiz-adv-x="421" 
d="M144 366v140h132v-140h-132zM384 244h-347v74h347v-74zM144 57v140h132v-140h-132z" />
    <glyph glyph-name="uni00F8" unicode="&#xf8;" horiz-adv-x="521" 
d="M494 224q0 -106 -66 -170t-173 -64q-75 0 -131 34l-21 -24h-76l54 62q-53 61 -53 157q0 98 58.5 168.5t175.5 70.5q76 0 132 -35l23 26h77l-56 -64q56 -64 56 -161zM142 226q0 -47 14 -78l173 200q-29 20 -69 20q-57 0 -87.5 -38t-30.5 -104zM379 227q0 43 -14 74
l-174 -200q27 -21 68 -21q57 0 88.5 40t31.5 107z" />
    <glyph glyph-name="uni00F9" unicode="&#xf9;" horiz-adv-x="576" 
d="M322 555l-30 -43l-186 97l57 84zM561 0h-177v75q-44 -84 -148 -84q-64 0 -110.5 38.5t-46.5 122.5v215h-67v82h174v-258q0 -64 23 -90.5t65 -26.5q50 0 79.5 35t30.5 83v175h-80v82h187v-367h70v-82z" />
    <glyph glyph-name="uni00FA" unicode="&#xfa;" horiz-adv-x="576" 
d="M439 609l-187 -97l-29 43l159 138zM561 0h-177v75q-44 -84 -148 -84q-64 0 -110.5 38.5t-46.5 122.5v215h-67v82h174v-258q0 -64 23 -90.5t65 -26.5q50 0 79.5 35t30.5 83v175h-80v82h187v-367h70v-82z" />
    <glyph glyph-name="uni00FB" unicode="&#xfb;" horiz-adv-x="576" 
d="M423 556l-31 -44l-126 74l-108 -74l-31 43l130 124h36zM561 0h-177v75q-44 -84 -148 -84q-64 0 -110.5 38.5t-46.5 122.5v215h-67v82h174v-258q0 -64 23 -90.5t65 -26.5q50 0 79.5 35t30.5 83v175h-80v82h187v-367h70v-82z" />
    <glyph glyph-name="uni00FC" unicode="&#xfc;" horiz-adv-x="576" 
d="M119 540v115h111v-115h-111zM299 540v115h110v-115h-110zM561 0h-177v75q-44 -84 -148 -84q-64 0 -110.5 38.5t-46.5 122.5v215h-67v82h174v-258q0 -64 23 -90.5t65 -26.5q50 0 79.5 35t30.5 83v175h-80v82h187v-367h70v-82z" />
    <glyph glyph-name="uni00FD" unicode="&#xfd;" horiz-adv-x="522" 
d="M425 609l-187 -97l-29 43l159 138zM515 367h-47l-150 -367l-50 -129h66v-84h-240v84h76l44 125l-159 371h-49v82h221v-82h-57l104 -243h6l84 243h-51v82h202v-82z" />
    <glyph glyph-name="uni00FE" unicode="&#xfe;" horiz-adv-x="537" 
d="M-11 -131h67v737h-71v82h177v-329q19 40 56 69.5t99 29.5q85 0 138.5 -58.5t53.5 -163.5q0 -96 -50.5 -171t-154.5 -75q-98 0 -142 71v-192h89v-82h-262v82zM278 80q53 0 84.5 38t31.5 108q0 71 -31 106.5t-78 35.5q-55 0 -88 -42.5t-35 -91.5v-34q0 -56 33 -88t83 -32z
" />
    <glyph glyph-name="uni00FF" unicode="&#xff;" horiz-adv-x="522" 
d="M133 540v115h111v-115h-111zM313 540v115h110v-115h-110zM515 367h-47l-150 -367l-50 -129h66v-84h-240v84h76l44 125l-159 371h-49v82h221v-82h-57l104 -243h6l84 243h-51v82h202v-82z" />
    <glyph glyph-name="uni0100" unicode="&#x100;" horiz-adv-x="672" 
d="M481 726h-297v82h297v-82zM675 0h-249v95h66l-33 89h-243l-35 -89h73v-95h-246v95h60l196 460h-95v95h209l234 -555h63v-95zM429 265l-85 226h-6l-90 -226h181z" />
    <glyph glyph-name="uni0101" unicode="&#x101;" horiz-adv-x="497" 
d="M372 547h-259v82h259v-82zM73 416q50 24 89 33t90 9q75 0 123.5 -38t48.5 -114v-202q0 -40 33 -40q9 0 23 4l1 -59q-33 -19 -72 -19q-85 0 -92 89v2q-20 -35 -56.5 -63t-90.5 -28q-47 0 -92.5 28.5t-45.5 99.5q0 83 66 109.5t143 26.5q19 0 39 -1t37 -3v25q0 40 -14 72
t-70 32q-21 0 -39.5 -3t-35.5 -12l-18 -69l-86 9zM317 178v16q-17 2 -35 4t-37 2q-40 0 -71.5 -14t-31.5 -56q0 -61 65 -61q38 0 72 27.5t38 81.5z" />
    <glyph glyph-name="uni0102" unicode="&#x102;" horiz-adv-x="672" 
d="M474 827q0 -68 -35.5 -99.5t-97.5 -31.5q-132 0 -132 131h85q0 -65 47 -65q48 0 48 65h85zM675 0h-249v95h66l-33 89h-243l-35 -89h73v-95h-246v95h60l196 460h-95v95h209l234 -555h63v-95zM429 265l-85 226h-6l-90 -226h181z" />
    <glyph glyph-name="uni0103" unicode="&#x103;" horiz-adv-x="497" 
d="M376 654q0 -68 -36 -100t-98 -32q-131 0 -131 132h85q0 -66 47 -66q48 0 48 66h85zM73 416q50 24 89 33t90 9q75 0 123.5 -38t48.5 -114v-202q0 -40 33 -40q9 0 23 4l1 -59q-33 -19 -72 -19q-85 0 -92 89v2q-20 -35 -56.5 -63t-90.5 -28q-47 0 -92.5 28.5t-45.5 99.5
q0 83 66 109.5t143 26.5q19 0 39 -1t37 -3v25q0 40 -14 72t-70 32q-21 0 -39.5 -3t-35.5 -12l-18 -69l-86 9zM317 178v16q-17 2 -35 4t-37 2q-40 0 -71.5 -14t-31.5 -56q0 -61 65 -61q38 0 72 27.5t38 81.5z" />
    <glyph glyph-name="uni0104" unicode="&#x104;" horiz-adv-x="672" 
d="M674 -188q-37 -20 -85 -20t-80.5 22t-32.5 69q0 38 20.5 68t51.5 49h-122v95h66l-33 89h-243l-35 -89h73v-95h-246v95h60l196 460h-95v95h209l234 -555h63v-95h-56q-31 -20 -41 -42t-10 -42q0 -28 14 -38t34 -10q28 0 50 13zM429 265l-85 226h-6l-90 -226h181z" />
    <glyph glyph-name="uni0105" unicode="&#x105;" horiz-adv-x="497" 
d="M491 -188q-37 -20 -85 -20t-80.5 22t-32.5 69q0 37 20 67t51 49q-42 20 -47 80v2q-20 -35 -56.5 -63t-90.5 -28q-47 0 -92.5 28.5t-45.5 99.5q0 83 66 109.5t143 26.5q19 0 39 -1t37 -3v25q0 40 -14 72t-70 32q-21 0 -39.5 -3t-35.5 -12l-18 -69l-86 9l19 112
q50 24 89 33t90 9q75 0 123.5 -38t48.5 -114v-202q0 -40 33 -40q9 0 23 4l1 -59q-25 -15 -58 -18q-23 -18 -30.5 -38t-7.5 -37q0 -28 14 -38t34 -10q28 0 50 13zM317 178v16q-17 2 -35 4t-37 2q-40 0 -71.5 -14t-31.5 -56q0 -61 65 -61q38 0 72 27.5t38 81.5z" />
    <glyph glyph-name="uni0106" unicode="&#x106;" horiz-adv-x="645" 
d="M516 727l-209 -33l-14 49l198 83zM587 62q-35 -33 -99.5 -52.5t-133.5 -19.5q-141 0 -232.5 91.5t-91.5 235.5q0 81 34 160t106 131t184 52q82 0 140 -23t92 -54l17 -141l-91 -9l-16 90q-60 39 -144 39q-92 0 -147.5 -64t-55.5 -175q0 -116 59 -175.5t155 -59.5
q80 0 131 28l16 97l91 -9z" />
    <glyph glyph-name="uni0107" unicode="&#x107;" horiz-adv-x="467" 
d="M395 609l-187 -97l-29 43l159 138zM445 161q-7 -60 -53 -115.5t-148 -55.5q-96 0 -156.5 58t-60.5 169q0 109 62.5 175t163.5 66q40 0 80 -10t79 -33l18 -126l-86 -9l-15 74q-37 18 -78 18q-112 0 -112 -150q0 -146 115 -146q84 0 101 102z" />
    <glyph glyph-name="uni0108" unicode="&#x108;" horiz-adv-x="645" 
d="M510 737l-25 -46l-129 61l-121 -61l-25 45l132 101h36zM587 62q-35 -33 -99.5 -52.5t-133.5 -19.5q-141 0 -232.5 91.5t-91.5 235.5q0 81 34 160t106 131t184 52q82 0 140 -23t92 -54l17 -141l-91 -9l-16 90q-60 39 -144 39q-92 0 -147.5 -64t-55.5 -175
q0 -116 59 -175.5t155 -59.5q80 0 131 28l16 97l91 -9z" />
    <glyph glyph-name="uni0109" unicode="&#x109;" horiz-adv-x="467" 
d="M402 556l-31 -44l-126 74l-108 -74l-31 43l130 124h36zM445 161q-7 -60 -53 -115.5t-148 -55.5q-96 0 -156.5 58t-60.5 169q0 109 62.5 175t163.5 66q40 0 80 -10t79 -33l18 -126l-86 -9l-15 74q-37 18 -78 18q-112 0 -112 -150q0 -146 115 -146q84 0 101 102z" />
    <glyph glyph-name="uni010A" unicode="&#x10a;" horiz-adv-x="645" 
d="M300 710v115h111v-115h-111zM587 62q-35 -33 -99.5 -52.5t-133.5 -19.5q-141 0 -232.5 91.5t-91.5 235.5q0 81 34 160t106 131t184 52q82 0 140 -23t92 -54l17 -141l-91 -9l-16 90q-60 39 -144 39q-92 0 -147.5 -64t-55.5 -175q0 -116 59 -175.5t155 -59.5q80 0 131 28
l16 97l91 -9z" />
    <glyph glyph-name="uni010B" unicode="&#x10b;" horiz-adv-x="467" 
d="M196 539v118h109v-118h-109zM445 161q-7 -60 -53 -115.5t-148 -55.5q-96 0 -156.5 58t-60.5 169q0 109 62.5 175t163.5 66q40 0 80 -10t79 -33l18 -126l-86 -9l-15 74q-37 18 -78 18q-112 0 -112 -150q0 -146 115 -146q84 0 101 102z" />
    <glyph glyph-name="uni010C" unicode="&#x10c;" horiz-adv-x="645" 
d="M506 791l-132 -100h-36l-132 100l25 45l130 -60l119 61zM587 62q-35 -33 -99.5 -52.5t-133.5 -19.5q-141 0 -232.5 91.5t-91.5 235.5q0 81 34 160t106 131t184 52q82 0 140 -23t92 -54l17 -141l-91 -9l-16 90q-60 39 -144 39q-92 0 -147.5 -64t-55.5 -175
q0 -116 59 -175.5t155 -59.5q80 0 131 28l16 97l91 -9z" />
    <glyph glyph-name="uni010D" unicode="&#x10d;" horiz-adv-x="467" 
d="M392 635l-130 -123h-36l-130 123l31 43l125 -73l109 74zM445 161q-7 -60 -53 -115.5t-148 -55.5q-96 0 -156.5 58t-60.5 169q0 109 62.5 175t163.5 66q40 0 80 -10t79 -33l18 -126l-86 -9l-15 74q-37 18 -78 18q-112 0 -112 -150q0 -146 115 -146q84 0 101 102z" />
    <glyph glyph-name="uni010E" unicode="&#x10e;" horiz-adv-x="701" 
d="M451 791l-132 -100h-36l-132 100l25 45l130 -60l119 61zM670 327q0 -146 -87 -236.5t-241 -90.5h-302v95h75v460h-75v95h296q164 0 249 -90t85 -233zM551 326q0 229 -218 229h-107v-460h107q218 0 218 231z" />
    <glyph glyph-name="uni010F" unicode="&#x10f;" horiz-adv-x="572" 
d="M548 0h-173v86q-20 -39 -57.5 -67.5t-98.5 -28.5q-88 0 -139.5 60t-51.5 165q0 96 48.5 169.5t152.5 73.5q53 0 89.5 -21.5t56.5 -57.5v227h-97v82h204v-606h66v-82zM648 681l-31 -224h-82l13 224h100zM375 216v34q-1 56 -34 89t-81 33q-54 0 -87.5 -40.5t-33.5 -110.5
q0 -71 33.5 -108t80.5 -37q55 0 88 45t34 95z" />
    <glyph glyph-name="uni0110" unicode="&#x110;" horiz-adv-x="702" 
d="M671 327q0 -146 -87 -236.5t-241 -90.5h-302v95h75v200h-71v92h71v168h-75v95h296q163 0 248.5 -90t85.5 -233zM552 326q0 229 -218 229h-107v-168h126v-92h-126v-200h107q218 0 218 231z" />
    <glyph glyph-name="uni0111" unicode="&#x111;" horiz-adv-x="563" 
d="M548 0h-173v86q-20 -39 -57.5 -67.5t-98.5 -28.5q-88 0 -139.5 60t-51.5 165q0 96 48.5 169.5t152.5 73.5q53 0 89.5 -21.5t56.5 -57.5v120h-177v63h177v44h-97v82h204v-126h64v-63h-64v-417h66v-82zM375 216v34q-1 56 -34 89t-81 33q-54 0 -87.5 -40.5t-33.5 -110.5
q0 -71 33.5 -108t80.5 -37q55 0 88 45t34 95z" />
    <glyph glyph-name="uni0112" unicode="&#x112;" horiz-adv-x="591" 
d="M471 726h-297v82h297v-82zM535 0h-495v95h75v460h-75v95h488l20 -188l-95 -8l-20 101h-207v-180h286v-95h-286v-185h214l20 101l95 -8z" />
    <glyph glyph-name="uni0113" unicode="&#x113;" horiz-adv-x="478" 
d="M382 547h-259v82h259v-82zM452 137q-6 -59 -58 -103t-143 -44q-98 0 -161 57.5t-63 169.5q0 103 57.5 172t160.5 69q93 0 147.5 -55.5t55.5 -140.5q0 -28 -6 -60h-303q9 -126 120 -126q52 0 74.5 25t29.5 53zM338 268q4 40 -18.5 75.5t-75.5 35.5q-48 0 -73 -32t-31 -79
h198z" />
    <glyph glyph-name="uni0114" unicode="&#x114;" horiz-adv-x="591" 
d="M464 827q0 -68 -35.5 -99.5t-97.5 -31.5q-132 0 -132 131h85q0 -65 47 -65q48 0 48 65h85zM535 0h-495v95h75v460h-75v95h488l20 -188l-95 -8l-20 101h-207v-180h286v-95h-286v-185h214l20 101l95 -8z" />
    <glyph glyph-name="uni0115" unicode="&#x115;" horiz-adv-x="478" 
d="M383 654q0 -68 -36.5 -100t-97.5 -32q-131 0 -131 132h85q0 -66 47 -66q48 0 48 66h85zM452 137q-6 -59 -58 -103t-143 -44q-98 0 -161 57.5t-63 169.5q0 103 57.5 172t160.5 69q93 0 147.5 -55.5t55.5 -140.5q0 -28 -6 -60h-303q9 -126 120 -126q52 0 74.5 25t29.5 53z
M338 268q4 40 -18.5 75.5t-75.5 35.5q-48 0 -73 -32t-31 -79h198z" />
    <glyph glyph-name="uni0116" unicode="&#x116;" horiz-adv-x="591" 
d="M271 710v115h111v-115h-111zM535 0h-495v95h75v460h-75v95h488l20 -188l-95 -8l-20 101h-207v-180h286v-95h-286v-185h214l20 101l95 -8z" />
    <glyph glyph-name="uni0117" unicode="&#x117;" horiz-adv-x="478" 
d="M195 539v118h109v-118h-109zM452 137q-6 -59 -58 -103t-143 -44q-98 0 -161 57.5t-63 169.5q0 103 57.5 172t160.5 69q93 0 147.5 -55.5t55.5 -140.5q0 -28 -6 -60h-303q9 -126 120 -126q52 0 74.5 25t29.5 53zM338 268q4 40 -18.5 75.5t-75.5 35.5q-48 0 -73 -32
t-31 -79h198z" />
    <glyph glyph-name="uni0118" unicode="&#x118;" horiz-adv-x="590" 
d="M534 0h-30q-31 -20 -41 -42t-10 -42q0 -28 14 -38t34 -10q28 0 50 13l8 -69q-37 -20 -85 -20t-80.5 22t-32.5 69q0 38 20.5 68t51.5 49h-394v95h75v460h-75v95h488l20 -188l-95 -8l-20 101h-207v-180h286v-95h-286v-185h214l20 101l95 -8z" />
    <glyph glyph-name="uni0119" unicode="&#x119;" horiz-adv-x="478" 
d="M452 137q-5 -47 -39 -85.5t-94 -53.5q-29 -20 -38.5 -41t-9.5 -41q0 -28 14 -38t34 -10q28 0 50 13l8 -69q-37 -20 -85 -20t-80.5 22t-32.5 69q0 34 16.5 61t41.5 46q-93 4 -151.5 61.5t-58.5 165.5q0 103 57.5 172t160.5 69q93 0 147.5 -55.5t55.5 -140.5q0 -28 -6 -60
h-303q9 -126 120 -126q52 0 74.5 25t29.5 53zM338 268q4 40 -18.5 75.5t-75.5 35.5q-48 0 -73 -32t-31 -79h198z" />
    <glyph glyph-name="uni011A" unicode="&#x11a;" horiz-adv-x="591" 
d="M472 791l-132 -100h-36l-132 100l25 45l130 -60l119 61zM535 0h-495v95h75v460h-75v95h488l20 -188l-95 -8l-20 101h-207v-180h286v-95h-286v-185h214l20 101l95 -8z" />
    <glyph glyph-name="uni011B" unicode="&#x11b;" horiz-adv-x="478" 
d="M395 635l-130 -123h-36l-130 123l31 43l125 -73l109 74zM452 137q-6 -59 -58 -103t-143 -44q-98 0 -161 57.5t-63 169.5q0 103 57.5 172t160.5 69q93 0 147.5 -55.5t55.5 -140.5q0 -28 -6 -60h-303q9 -126 120 -126q52 0 74.5 25t29.5 53zM338 268q4 40 -18.5 75.5
t-75.5 35.5q-48 0 -73 -32t-31 -79h198z" />
    <glyph glyph-name="uni011C" unicode="&#x11c;" horiz-adv-x="686" 
d="M504 737l-25 -46l-129 61l-121 -61l-25 45l132 101h36zM660 255h-39v-255h-86l-11 76q-30 -38 -79 -62t-115 -24q-136 0 -217.5 95.5t-81.5 235.5q0 139 86 239t242 100q79 0 141 -22.5t96 -54.5l18 -134l-91 -9l-18 82q-58 40 -148 40q-91 0 -149 -62t-58 -177
q0 -113 55 -174t144 -61q75 0 118 40.5t43 102.5v24h-138v95h288v-95z" />
    <glyph glyph-name="uni011D" unicode="&#x11d;" horiz-adv-x="561" 
d="M414 556l-31 -44l-126 74l-108 -74l-31 43l130 124h36zM546 366h-65v-349q0 -107 -59.5 -173t-177.5 -66q-70 0 -131 30t-86 103l83 45q42 -92 136 -92q56 0 92 40t36 114v67q-19 -36 -54.5 -61.5t-97.5 -25.5q-79 0 -136.5 55.5t-57.5 161.5q0 96 51.5 169.5t149.5 73.5
q102 0 145 -79v70h172v-83zM374 214v36q0 56 -32 89t-80 33q-56 0 -86 -40.5t-30 -109.5q0 -71 30 -104.5t76 -33.5q57 0 89.5 40t32.5 90z" />
    <glyph glyph-name="uni011E" unicode="&#x11e;" horiz-adv-x="686" 
d="M495 827q0 -68 -35.5 -99.5t-97.5 -31.5q-132 0 -132 131h85q0 -65 47 -65q48 0 48 65h85zM660 255h-39v-255h-86l-11 76q-30 -38 -79 -62t-115 -24q-136 0 -217.5 95.5t-81.5 235.5q0 139 86 239t242 100q79 0 141 -22.5t96 -54.5l18 -134l-91 -9l-18 82q-58 40 -148 40
q-91 0 -149 -62t-58 -177q0 -113 55 -174t144 -61q75 0 118 40.5t43 102.5v24h-138v95h288v-95z" />
    <glyph glyph-name="uni011F" unicode="&#x11f;" horiz-adv-x="561" 
d="M394 654q0 -68 -36 -100t-98 -32q-131 0 -131 132h85q0 -66 47 -66q48 0 48 66h85zM546 366h-65v-349q0 -107 -59.5 -173t-177.5 -66q-70 0 -131 30t-86 103l83 45q42 -92 136 -92q56 0 92 40t36 114v67q-19 -36 -54.5 -61.5t-97.5 -25.5q-79 0 -136.5 55.5t-57.5 161.5
q0 96 51.5 169.5t149.5 73.5q102 0 145 -79v70h172v-83zM374 214v36q0 56 -32 89t-80 33q-56 0 -86 -40.5t-30 -109.5q0 -71 30 -104.5t76 -33.5q57 0 89.5 40t32.5 90z" />
    <glyph glyph-name="uni0120" unicode="&#x120;" horiz-adv-x="686" 
d="M304 710v115h111v-115h-111zM660 255h-39v-255h-86l-11 76q-30 -38 -79 -62t-115 -24q-136 0 -217.5 95.5t-81.5 235.5q0 139 86 239t242 100q79 0 141 -22.5t96 -54.5l18 -134l-91 -9l-18 82q-58 40 -148 40q-91 0 -149 -62t-58 -177q0 -113 55 -174t144 -61
q75 0 118 40.5t43 102.5v24h-138v95h288v-95z" />
    <glyph glyph-name="uni0121" unicode="&#x121;" horiz-adv-x="561" 
d="M214 539v118h109v-118h-109zM546 366h-65v-349q0 -107 -59.5 -173t-177.5 -66q-70 0 -131 30t-86 103l83 45q42 -92 136 -92q56 0 92 40t36 114v67q-19 -36 -54.5 -61.5t-97.5 -25.5q-79 0 -136.5 55.5t-57.5 161.5q0 96 51.5 169.5t149.5 73.5q102 0 145 -79v70h172v-83
zM374 214v36q0 56 -32 89t-80 33q-56 0 -86 -40.5t-30 -109.5q0 -71 30 -104.5t76 -33.5q57 0 89.5 40t32.5 90z" />
    <glyph glyph-name="uni0122" unicode="&#x122;" horiz-adv-x="686" 
d="M660 255h-39v-255h-86l-11 76q-30 -38 -79 -62t-115 -24q-136 0 -217.5 95.5t-81.5 235.5q0 139 86 239t242 100q79 0 141 -22.5t96 -54.5l18 -134l-91 -9l-18 82q-58 40 -148 40q-91 0 -149 -62t-58 -177q0 -113 55 -174t144 -61q75 0 118 40.5t43 102.5v24h-138v95h288
v-95zM400 -60l-23 -155h-83l5 155h101z" />
    <glyph glyph-name="uni0123" unicode="&#x123;" horiz-adv-x="561" 
d="M210 540l23 155h83l-5 -155h-101zM546 366h-65v-349q0 -107 -59.5 -173t-177.5 -66q-70 0 -131 30t-86 103l83 45q42 -92 136 -92q56 0 92 40t36 114v67q-19 -36 -54.5 -61.5t-97.5 -25.5q-79 0 -136.5 55.5t-57.5 161.5q0 96 51.5 169.5t149.5 73.5q102 0 145 -79v70
h172v-83zM374 214v36q0 56 -32 89t-80 33q-56 0 -86 -40.5t-30 -109.5q0 -71 30 -104.5t76 -33.5q57 0 89.5 40t32.5 90z" />
    <glyph glyph-name="uni0124" unicode="&#x124;" horiz-adv-x="759" 
d="M532 737l-25 -46l-129 61l-121 -61l-25 45l132 101h36zM718 0h-260v95h75v188h-307v-188h74v-95h-260v95h75v460h-75v95h260v-95h-74v-178h307v178h-75v95h260v-95h-74v-460h74v-95z" />
    <glyph glyph-name="uni0125" unicode="&#x125;" horiz-adv-x="574" 
d="M262 752l-31 -44l-126 74l-108 -74l-31 43l130 124h36zM562 0h-241v82h67v176q0 64 -24 90.5t-65 26.5q-49 0 -78 -32t-31 -78v-183h66v-82h-240v82h67v524h-67v82h174v-313q46 83 149 83q65 0 110.5 -39t45.5 -122v-215h67v-82z" />
    <glyph glyph-name="uni0126" unicode="&#x126;" horiz-adv-x="759" 
d="M42 438v68h73v49h-75v95h260v-95h-74v-49h307v49h-75v95h260v-95h-74v-49h69v-68h-69v-343h74v-95h-260v95h75v188h-307v-188h74v-95h-260v95h75v343h-73zM226 377h307v61h-307v-61z" />
    <glyph glyph-name="uni0127" unicode="&#x127;" horiz-adv-x="574" 
d="M562 0h-241v82h67v176q0 64 -24 90.5t-65 26.5q-49 0 -78 -32t-31 -78v-183h66v-82h-240v82h67v416h-63v64h63v44h-67v82h174v-126h177v-64h-177v-123q46 83 149 83q65 0 110.5 -39t45.5 -122v-215h67v-82z" />
    <glyph glyph-name="uni0128" unicode="&#x128;" horiz-adv-x="341" 
d="M323 812q-3 -43 -20 -75.5t-63 -32.5q-37 0 -64.5 16t-59.5 16q-35 0 -45 -35l-44 15q0 26 19.5 62.5t65.5 36.5q33 0 60 -16.5t56 -16.5q14 0 27 8t21 32zM300 0h-260v95h75v460h-75v95h260v-95h-74v-460h74v-95z" />
    <glyph glyph-name="uni0129" unicode="&#x129;" horiz-adv-x="292" 
d="M290 647q-2 -43 -19.5 -79.5t-61.5 -36.5q-38 0 -66.5 20t-57.5 20q-34 0 -47 -43l-44 14q0 28 19.5 69.5t64.5 41.5q34 0 61.5 -19t56.5 -19q14 0 27 9t20 33zM33 82h67v284h-71v83h177v-367h67v-82h-240v82z" />
    <glyph glyph-name="uni012A" unicode="&#x12a;" horiz-adv-x="341" 
d="M320 726h-297v82h297v-82zM300 0h-260v95h75v460h-75v95h260v-95h-74v-460h74v-95z" />
    <glyph glyph-name="uni012B" unicode="&#x12b;" horiz-adv-x="292" 
d="M268 547h-259v82h259v-82zM33 82h67v284h-71v83h177v-367h67v-82h-240v82z" />
    <glyph glyph-name="uni012C" unicode="&#x12c;" horiz-adv-x="341" 
d="M303 827q0 -68 -35.5 -99.5t-97.5 -31.5q-132 0 -132 131h85q0 -65 47 -65q48 0 48 65h85zM300 0h-260v95h75v460h-75v95h260v-95h-74v-460h74v-95z" />
    <glyph glyph-name="uni012D" unicode="&#x12d;" horiz-adv-x="292" 
d="M278 654q0 -68 -36 -100t-98 -32q-131 0 -131 132h85q0 -66 47 -66q48 0 48 66h85zM33 82h67v284h-71v83h177v-367h67v-82h-240v82z" />
    <glyph glyph-name="uni012E" unicode="&#x12e;" horiz-adv-x="340" 
d="M265 -188q-37 -20 -85 -20t-80.5 22t-32.5 69q0 38 20.5 68t51.5 49h-99v95h75v460h-75v95h260v-95h-74v-460h74v-95h-90q-31 -20 -41 -42t-10 -42q0 -28 14 -38t34 -10q28 0 50 13z" />
    <glyph glyph-name="uni012F" unicode="&#x12f;" horiz-adv-x="292" 
d="M94 542v118h109v-118h-109zM234 -119l9 -69q-38 -20 -86 -20t-80.5 22t-32.5 69q0 38 21 68t52 49h-84v82h67v284h-71v83h177v-367h67v-82h-85q-32 -20 -42 -42t-10 -42q0 -28 14 -38t35 -10q27 0 49 13z" />
    <glyph glyph-name="uni0130" unicode="&#x130;" horiz-adv-x="341" 
d="M114 710v115h111v-115h-111zM300 0h-260v95h75v460h-75v95h260v-95h-74v-460h74v-95z" />
    <glyph glyph-name="uni0131" unicode="&#x131;" horiz-adv-x="292" 
d="M33 82h67v284h-71v83h177v-367h67v-82h-240v82z" />
    <glyph glyph-name="uni0132" unicode="&#x132;" horiz-adv-x="815" 
d="M300 0h-260v95h75v460h-75v95h260v-95h-74v-460h74v-95zM782 555h-64v-377q0 -94 -50.5 -141t-135.5 -47q-76 0 -118.5 33.5t-63.5 80.5l78 59q19 -43 42.5 -56.5t51.5 -13.5q45 0 65 23.5t20 60.5v378h-120v95h295v-95z" />
    <glyph glyph-name="uni0133" unicode="&#x133;" horiz-adv-x="552" 
d="M94 542v118h109v-118h-109zM381 542v118h109v-118h-109zM273 0h-240v82h67v284h-71v83h177v-367h67v-82zM490 5q0 -127 -50 -183t-162 -45l-3 73q41 0 74.5 23.5t33.5 131.5v361h-81v83h188v-444z" />
    <glyph glyph-name="uni0134" unicode="&#x134;" horiz-adv-x="475" 
d="M453 737l-25 -46l-129 61l-121 -61l-25 45l132 101h36zM442 555h-64v-377q0 -94 -50.5 -141t-135.5 -47q-76 0 -118.5 33.5t-63.5 80.5l78 59q19 -43 42.5 -56.5t51.5 -13.5q45 0 65 23.5t20 60.5v378h-120v95h295v-95z" />
    <glyph glyph-name="uni0135" unicode="&#x135;" horiz-adv-x="260" 
d="M273 556l-31 -44l-126 74l-108 -74l-31 43l130 124h36zM10 449h188v-444q0 -127 -50 -183t-162 -45l-3 73q41 0 74.5 23.5t33.5 131.5v361h-81v83z" />
    <glyph glyph-name="uni0136" unicode="&#x136;" horiz-adv-x="661" 
d="M654 0h-265v95h67l-140 189h-90v-189h62v-95h-248v95h75v460h-75v95h251v-95h-65v-180h91l135 180h-64v95h254v-95h-73l-167 -215l182 -245h70v-95zM397 -60l-23 -155h-83l5 155h101z" />
    <glyph glyph-name="uni0137" unicode="&#x137;" horiz-adv-x="540" 
d="M528 0h-224v82h52l-94 112h-72v-112h50v-82h-224v82h67v524h-71v82h178v-417h77l79 95h-59v83h219v-83h-56l-106 -124l136 -160h48v-82zM322 -60l-23 -155h-83l5 155h101z" />
    <glyph glyph-name="uni0139" unicode="&#x139;" horiz-adv-x="553" 
d="M308 727l-209 -33l-14 49l198 83zM521 0h-481v95h75v460h-75v95h283v-95h-97v-460h200l20 135l95 -8z" />
    <glyph glyph-name="uni013A" unicode="&#x13a;" horiz-adv-x="278" 
d="M232 748l-209 -33l-14 49l198 83zM259 0h-240v82h67v524h-71v82h177v-606h67v-82z" />
    <glyph glyph-name="uni013B" unicode="&#x13b;" horiz-adv-x="553" 
d="M521 0h-481v95h75v460h-75v95h283v-95h-97v-460h200l20 135l95 -8zM360 -60l-23 -155h-83l5 155h101z" />
    <glyph glyph-name="uni013C" unicode="&#x13c;" horiz-adv-x="278" 
d="M259 0h-240v82h67v524h-71v82h177v-606h67v-82zM193 -60l-23 -155h-83l5 155h101z" />
    <glyph glyph-name="uni013D" unicode="&#x13d;" horiz-adv-x="553" 
d="M476 682l-31 -224h-82l13 224h100zM520 0h-481v95h75v460h-75v95h283v-95h-97v-460h200l20 135l95 -8z" />
    <glyph glyph-name="uni013E" unicode="&#x13e;" horiz-adv-x="288" 
d="M259 0h-240v82h67v524h-71v82h177v-606h67v-82zM355 681l-31 -224h-82l13 224h100z" />
    <glyph glyph-name="uni013F" unicode="&#x13f;" horiz-adv-x="553" 
d="M521 0h-481v95h75v460h-75v95h283v-95h-97v-460h200l20 135l95 -8zM320 286v118h109v-118h-109z" />
    <glyph glyph-name="uni0140" unicode="&#x140;" horiz-adv-x="315" 
d="M259 0h-240v82h67v524h-71v82h177v-606h67v-82zM239 279v118h109v-118h-109z" />
    <glyph glyph-name="uni0141" unicode="&#x141;" horiz-adv-x="555" 
d="M523 0h-481v95h75v165l-73 -25v84l73 25v211h-75v95h283v-95h-97v-173l151 52v-84l-151 -52v-203h200l20 135l95 -8z" />
    <glyph glyph-name="uni0142" unicode="&#x142;" horiz-adv-x="286" 
d="M13 232v84l77 35v255h-71v82h177v-288l74 34v-84l-74 -34v-234h67v-82h-240v82h67v185z" />
    <glyph glyph-name="uni0143" unicode="&#x143;" horiz-adv-x="752" 
d="M526 727l-209 -33l-14 49l198 83zM722 555h-75v-555l-64 -1l-360 451h-4v-355h95v-95h-271v95h72v460h-82v95h163l343 -430h4v335h-95v95h274v-95z" />
    <glyph glyph-name="uni0144" unicode="&#x144;" horiz-adv-x="586" 
d="M465 609l-187 -97l-29 43l159 138zM575 0h-240v82h66v176q0 64 -23 90.5t-64 26.5q-51 0 -80.5 -33t-30.5 -81v-179h67v-82h-241v82h67v284h-70v83h177v-73q47 82 149 82q64 0 110 -39t46 -122v-215h67v-82z" />
    <glyph glyph-name="uni0145" unicode="&#x145;" horiz-adv-x="752" 
d="M722 555h-75v-555l-64 -1l-360 451h-4v-355h95v-95h-271v95h72v460h-82v95h163l343 -430h4v335h-95v95h274v-95zM445 -60l-23 -155h-83l5 155h101z" />
    <glyph glyph-name="uni0146" unicode="&#x146;" horiz-adv-x="586" 
d="M575 0h-240v82h66v176q0 64 -23 90.5t-64 26.5q-51 0 -80.5 -33t-30.5 -81v-179h67v-82h-241v82h67v284h-70v83h177v-73q47 82 149 82q64 0 110 -39t46 -122v-215h67v-82zM355 -60l-23 -155h-83l5 155h101z" />
    <glyph glyph-name="uni0147" unicode="&#x147;" horiz-adv-x="752" 
d="M518 791l-132 -100h-36l-132 100l25 45l130 -60l119 61zM722 555h-75v-555l-64 -1l-360 451h-4v-355h95v-95h-271v95h72v460h-82v95h163l343 -430h4v335h-95v95h274v-95z" />
    <glyph glyph-name="uni0148" unicode="&#x148;" horiz-adv-x="586" 
d="M446 635l-130 -123h-36l-130 123l31 43l125 -73l109 74zM575 0h-240v82h66v176q0 64 -23 90.5t-64 26.5q-51 0 -80.5 -33t-30.5 -81v-179h67v-82h-241v82h67v284h-70v83h177v-73q47 82 149 82q64 0 110 -39t46 -122v-215h67v-82z" />
    <glyph glyph-name="uni0149" unicode="&#x149;" horiz-adv-x="586" 
d="M38 533l52 208h95l-52 -208h-95zM575 0h-240v82h66v176q0 64 -23 90.5t-64 26.5q-51 0 -80.5 -33t-30.5 -81v-179h67v-82h-241v82h67v284h-70v83h177v-73q47 82 149 82q64 0 110 -39t46 -122v-215h67v-82z" />
    <glyph glyph-name="uni014A" unicode="&#x14a;" horiz-adv-x="752" 
d="M722 555h-75v-566q0 -95 -50.5 -141.5t-134.5 -46.5q-76 0 -119 33t-64 81l79 59q18 -43 42 -56.5t51 -13.5q46 0 65.5 23t19.5 61v70l-313 392h-4v-355h95v-95h-271v95h72v460h-82v95h163l343 -430h4v335h-95v95h274v-95z" />
    <glyph glyph-name="uni014B" unicode="&#x14b;" horiz-adv-x="563" 
d="M29 82h67v284h-70v83h177v-74q46 83 149 83q64 0 110 -39t46 -122v-297q-1 -124 -51 -179t-161 -44l-3 73q41 0 74 23t34 127v258q0 64 -23 90.5t-64 26.5q-52 0 -81.5 -34t-29.5 -83v-176h67v-82h-241v82z" />
    <glyph glyph-name="uni014C" unicode="&#x14c;" horiz-adv-x="718" 
d="M519 726h-297v82h297v-82zM689 326q0 -138 -89 -237t-243 -99q-155 0 -241 99t-86 235q0 142 90 239t240 97q152 0 240.5 -98.5t88.5 -235.5zM569 323q0 109 -55.5 174t-154.5 65q-104 0 -156.5 -67.5t-52.5 -167.5q0 -97 51.5 -168t160.5 -71q103 0 155 66.5t52 168.5z
" />
    <glyph glyph-name="uni014D" unicode="&#x14d;" horiz-adv-x="518" 
d="M388 547h-259v82h259v-82zM493 224q0 -105 -66.5 -169.5t-172.5 -64.5q-103 0 -165.5 62t-62.5 168q0 98 59 168.5t175 70.5q117 0 175 -70t58 -165zM382 227q0 72 -34.5 110t-89.5 38q-57 0 -89 -40.5t-32 -108.5q0 -64 30.5 -108t90.5 -44q58 0 91 42.5t33 110.5z" />
    <glyph glyph-name="uni014E" unicode="&#x14e;" horiz-adv-x="718" 
d="M502 827q0 -68 -35.5 -99.5t-97.5 -31.5q-132 0 -132 131h85q0 -65 47 -65q48 0 48 65h85zM689 326q0 -138 -89 -237t-243 -99q-155 0 -241 99t-86 235q0 142 90 239t240 97q152 0 240.5 -98.5t88.5 -235.5zM569 323q0 109 -55.5 174t-154.5 65q-104 0 -156.5 -67.5
t-52.5 -167.5q0 -97 51.5 -168t160.5 -71q103 0 155 66.5t52 168.5z" />
    <glyph glyph-name="uni014F" unicode="&#x14f;" horiz-adv-x="518" 
d="M398 654q0 -68 -36 -100t-98 -32q-131 0 -131 132h85q0 -66 47 -66q48 0 48 66h85zM493 224q0 -105 -66.5 -169.5t-172.5 -64.5q-103 0 -165.5 62t-62.5 168q0 98 59 168.5t175 70.5q117 0 175 -70t58 -165zM382 227q0 72 -34.5 110t-89.5 38q-57 0 -89 -40.5t-32 -108.5
q0 -64 30.5 -108t90.5 -44q58 0 91 42.5t33 110.5z" />
    <glyph glyph-name="uni0150" unicode="&#x150;" horiz-adv-x="718" 
d="M458 825l-164 -132l-37 35l131 169zM611 727l-208 -33l-14 49l198 83zM689 326q0 -138 -89 -237t-243 -99q-155 0 -241 99t-86 235q0 142 90 239t240 97q152 0 240.5 -98.5t88.5 -235.5zM569 323q0 109 -55.5 174t-154.5 65q-104 0 -156.5 -67.5t-52.5 -167.5
q0 -97 51.5 -168t160.5 -71q103 0 155 66.5t52 168.5z" />
    <glyph glyph-name="uni0151" unicode="&#x151;" horiz-adv-x="518" 
d="M332 668l-141 -156l-42 30l101 185zM494 609l-187 -97l-29 43l159 138zM493 224q0 -105 -66.5 -169.5t-172.5 -64.5q-103 0 -165.5 62t-62.5 168q0 98 59 168.5t175 70.5q117 0 175 -70t58 -165zM382 227q0 72 -34.5 110t-89.5 38q-57 0 -89 -40.5t-32 -108.5
q0 -64 30.5 -108t90.5 -44q58 0 91 42.5t33 110.5z" />
    <glyph glyph-name="uni0152" unicode="&#x152;" horiz-adv-x="997" 
d="M946 0h-426v32q-32 -20 -71 -31t-89 -11q-152 0 -241.5 99t-89.5 235q0 142 93 239t238 97q50 0 88.5 -12t71.5 -32v34h418l20 -188l-95 -8l-20 101h-212v-180h286v-95h-286v-185h219l20 101l96 -8zM520 146v356q-65 60 -155 60q-103 0 -159.5 -67.5t-56.5 -166.5
q0 -92 53.5 -166t165.5 -74q100 0 152 58z" />
    <glyph glyph-name="uni0153" unicode="&#x153;" horiz-adv-x="829" 
d="M802 137q-6 -59 -58 -103t-143 -44q-111 0 -171 68q-68 -68 -176 -68q-103 0 -165.5 62t-62.5 168q0 98 59 168.5t175 70.5q58 0 101.5 -19t72.5 -51q61 69 161 69q93 0 147.5 -55.5t55.5 -140.5q0 -28 -6 -60h-300q0 -5 -2 -15q15 -111 119 -111q52 0 74.5 25t29.5 53z
M688 268q4 40 -18.5 75.5t-75.5 35.5q-48 0 -73 -32t-31 -79h198zM377 217q0 11 0.5 21.5t1.5 20.5q-7 56 -40 86t-81 30q-57 0 -89 -40.5t-32 -108.5q0 -64 30.5 -108t90.5 -44q48 0 79.5 30t40.5 81q-1 7 -1 15.5v16.5z" />
    <glyph glyph-name="uni0154" unicode="&#x154;" horiz-adv-x="629" 
d="M449 727l-209 -33l-14 49l198 83zM619 0h-152l-134 257h-107v-162h76v-95h-262v95h75v460h-75v95h289q121 0 181 -50.5t60 -141.5q0 -65 -34.5 -111.5t-95.5 -66.5l99 -185h80v-95zM452 455q0 55 -32 77.5t-109 22.5h-85v-209h84q80 0 111 28.5t31 80.5z" />
    <glyph glyph-name="uni0155" unicode="&#x155;" horiz-adv-x="433" 
d="M419 609l-187 -97l-29 43l159 138zM303 456q45 0 84 -25l19 -140l-83 -10l-17 77q-20 10 -34 10q-28 0 -48.5 -23t-20.5 -64v-199h89v-82h-263v82h67v284h-70v83h169v-84q12 38 38.5 64.5t69.5 26.5z" />
    <glyph glyph-name="uni0156" unicode="&#x156;" horiz-adv-x="629" 
d="M619 0h-152l-134 257h-107v-162h76v-95h-262v95h75v460h-75v95h289q121 0 181 -50.5t60 -141.5q0 -65 -34.5 -111.5t-95.5 -66.5l99 -185h80v-95zM452 455q0 55 -32 77.5t-109 22.5h-85v-209h84q80 0 111 28.5t31 80.5zM397 -60l-23 -155h-83l5 155h101z" />
    <glyph glyph-name="uni0157" unicode="&#x157;" horiz-adv-x="433" 
d="M303 456q45 0 84 -25l19 -140l-83 -10l-17 77q-20 10 -34 10q-28 0 -48.5 -23t-20.5 -64v-199h89v-82h-263v82h67v284h-70v83h169v-84q12 38 38.5 64.5t69.5 26.5zM199 -60l-23 -155h-83l5 155h101z" />
    <glyph glyph-name="uni0158" unicode="&#x158;" horiz-adv-x="629" 
d="M452 791l-132 -100h-36l-132 100l25 45l130 -60l119 61zM619 0h-152l-134 257h-107v-162h76v-95h-262v95h75v460h-75v95h289q121 0 181 -50.5t60 -141.5q0 -65 -34.5 -111.5t-95.5 -66.5l99 -185h80v-95zM452 455q0 55 -32 77.5t-109 22.5h-85v-209h84q80 0 111 28.5
t31 80.5z" />
    <glyph glyph-name="uni0159" unicode="&#x159;" horiz-adv-x="433" 
d="M388 635l-130 -123h-36l-130 123l31 43l125 -73l109 74zM303 456q45 0 84 -25l19 -140l-83 -10l-17 77q-20 10 -34 10q-28 0 -48.5 -23t-20.5 -64v-199h89v-82h-263v82h67v284h-70v83h169v-84q12 38 38.5 64.5t69.5 26.5z" />
    <glyph glyph-name="uni015A" unicode="&#x15a;" horiz-adv-x="548" 
d="M431 727l-209 -33l-14 49l198 83zM512 191q0 -97 -67.5 -149t-178.5 -52q-66 0 -127.5 16t-97.5 46l18 149l89 -9l-2 -80q33 -17 60.5 -21.5t51.5 -4.5q58 0 96.5 18.5t38.5 74.5q0 61 -44 81.5t-101 31.5q-46 9 -93 24t-78 50t-31 103q0 102 69.5 146.5t155.5 44.5
q60 0 116.5 -18t88.5 -47l6 -137l-89 -8l-9 84q-28 16 -56 22t-54 6q-47 0 -78 -19t-31 -61q0 -49 38.5 -66.5t86.5 -28.5q41 -9 93 -24t90.5 -53.5t38.5 -118.5z" />
    <glyph glyph-name="uni015B" unicode="&#x15b;" horiz-adv-x="451" 
d="M383 609l-187 -97l-29 43l159 138zM421 134q0 -70 -57.5 -107t-146.5 -37q-48 0 -96.5 11t-87.5 33l16 116l84 -8l-1 -58q19 -8 40.5 -11t38.5 -3q41 0 71.5 14.5t30.5 43.5q0 28 -27.5 40t-68.5 18.5t-82 18t-68.5 38t-27.5 79.5q0 78 59.5 107t125.5 29q87 0 164 -41
l11 -111l-84 -10l-9 67q-39 15 -79 15q-31 0 -52.5 -12.5t-21.5 -39.5q0 -28 27 -39t67 -17.5t80 -18t67 -38t27 -79.5z" />
    <glyph glyph-name="uni015C" unicode="&#x15c;" horiz-adv-x="548" 
d="M428 737l-25 -46l-129 61l-121 -61l-25 45l132 101h36zM512 191q0 -97 -67.5 -149t-178.5 -52q-66 0 -127.5 16t-97.5 46l18 149l89 -9l-2 -80q33 -17 60.5 -21.5t51.5 -4.5q58 0 96.5 18.5t38.5 74.5q0 61 -44 81.5t-101 31.5q-46 9 -93 24t-78 50t-31 103
q0 102 69.5 146.5t155.5 44.5q60 0 116.5 -18t88.5 -47l6 -137l-89 -8l-9 84q-28 16 -56 22t-54 6q-47 0 -78 -19t-31 -61q0 -49 38.5 -66.5t86.5 -28.5q41 -9 93 -24t90.5 -53.5t38.5 -118.5z" />
    <glyph glyph-name="uni015D" unicode="&#x15d;" horiz-adv-x="451" 
d="M381 556l-31 -44l-126 74l-108 -74l-31 43l130 124h36zM421 134q0 -70 -57.5 -107t-146.5 -37q-48 0 -96.5 11t-87.5 33l16 116l84 -8l-1 -58q19 -8 40.5 -11t38.5 -3q41 0 71.5 14.5t30.5 43.5q0 28 -27.5 40t-68.5 18.5t-82 18t-68.5 38t-27.5 79.5q0 78 59.5 107
t125.5 29q87 0 164 -41l11 -111l-84 -10l-9 67q-39 15 -79 15q-31 0 -52.5 -12.5t-21.5 -39.5q0 -28 27 -39t67 -17.5t80 -18t67 -38t27 -79.5z" />
    <glyph glyph-name="uni015E" unicode="&#x15e;" horiz-adv-x="548" 
d="M411 -122q0 -49 -37.5 -68t-83.5 -19q-73 0 -109 30l21 59q12 -8 31 -15.5t45 -7.5q42 0 42 28q0 31 -46 31h-34v75q-59 3 -113 18.5t-86 42.5l18 149l89 -9l-2 -80q33 -17 60.5 -21.5t51.5 -4.5q58 0 96.5 18.5t38.5 74.5q0 61 -44 81.5t-101 31.5q-46 9 -93 24t-78 50
t-31 103q0 102 69.5 146.5t155.5 44.5q60 0 116.5 -18t88.5 -47l6 -137l-89 -8l-9 84q-28 16 -56 22t-54 6q-47 0 -78 -19t-31 -61q0 -49 38.5 -66.5t86.5 -28.5q41 -9 93 -24t90.5 -53.5t38.5 -118.5q0 -87 -53.5 -137.5t-144.5 -60.5v-36h8q49 0 69 -24.5t20 -54.5z" />
    <glyph glyph-name="uni015F" unicode="&#x15f;" horiz-adv-x="451" 
d="M360 -122q0 -49 -37.5 -68t-83.5 -19q-73 0 -109 30l21 59q12 -8 31.5 -15.5t44.5 -7.5q42 0 42 28q0 31 -46 31h-34v75q-42 3 -82.5 13.5t-73.5 29.5l16 116l84 -8l-1 -58q19 -8 40.5 -11t38.5 -3q41 0 71.5 14.5t30.5 43.5q0 28 -27.5 40t-68.5 18.5t-82 18t-68.5 38
t-27.5 79.5q0 78 59.5 107t125.5 29q87 0 164 -41l11 -111l-84 -10l-9 67q-39 15 -79 15q-31 0 -52.5 -12.5t-21.5 -39.5q0 -28 27 -39t67 -17.5t80 -18t67 -38t27 -79.5q0 -62 -43.5 -97.5t-114.5 -43.5v-36h8q49 0 69 -24.5t20 -54.5z" />
    <glyph glyph-name="uni0160" unicode="&#x160;" horiz-adv-x="548" 
d="M418 791l-132 -100h-36l-132 100l25 45l130 -60l119 61zM512 191q0 -97 -67.5 -149t-178.5 -52q-66 0 -127.5 16t-97.5 46l18 149l89 -9l-2 -80q33 -17 60.5 -21.5t51.5 -4.5q58 0 96.5 18.5t38.5 74.5q0 61 -44 81.5t-101 31.5q-46 9 -93 24t-78 50t-31 103
q0 102 69.5 146.5t155.5 44.5q60 0 116.5 -18t88.5 -47l6 -137l-89 -8l-9 84q-28 16 -56 22t-54 6q-47 0 -78 -19t-31 -61q0 -49 38.5 -66.5t86.5 -28.5q41 -9 93 -24t90.5 -53.5t38.5 -118.5z" />
    <glyph glyph-name="uni0161" unicode="&#x161;" horiz-adv-x="451" 
d="M372 635l-130 -123h-36l-130 123l31 43l125 -73l109 74zM421 134q0 -70 -57.5 -107t-146.5 -37q-48 0 -96.5 11t-87.5 33l16 116l84 -8l-1 -58q19 -8 40.5 -11t38.5 -3q41 0 71.5 14.5t30.5 43.5q0 28 -27.5 40t-68.5 18.5t-82 18t-68.5 38t-27.5 79.5q0 78 59.5 107
t125.5 29q87 0 164 -41l11 -111l-84 -10l-9 67q-39 15 -79 15q-31 0 -52.5 -12.5t-21.5 -39.5q0 -28 27 -39t67 -17.5t80 -18t67 -38t27 -79.5z" />
    <glyph glyph-name="uni0162" unicode="&#x162;" horiz-adv-x="640" 
d="M618 438l-96 -8l-20 125h-127v-460h109v-95h-325v95h105v460h-128l-20 -125l-95 8l20 212h557zM370 -60l-23 -155h-83l5 155h101z" />
    <glyph glyph-name="uni0163" unicode="&#x163;" horiz-adv-x="388" 
d="M391 132q-19 -142 -158 -142q-72 0 -114.5 38t-42.5 106v236h-66v79h66v139h107v-139h167v-79h-167v-219q0 -71 62 -71q17 0 38 12.5t29 64.5zM288 -60l-23 -155h-83l5 155h101z" />
    <glyph glyph-name="uni0164" unicode="&#x164;" horiz-adv-x="640" 
d="M467 791l-132 -100h-36l-132 100l25 45l130 -60l119 61zM618 438l-96 -8l-20 125h-127v-460h109v-95h-325v95h105v460h-128l-20 -125l-95 8l20 212h557z" />
    <glyph glyph-name="uni0165" unicode="&#x165;" horiz-adv-x="388" 
d="M368 761l-31 -224h-82l13 224h100zM391 132q-19 -142 -158 -142q-72 0 -114.5 38t-42.5 106v236h-66v79h66v139h107v-139h167v-79h-167v-219q0 -71 62 -71q17 0 38 12.5t29 64.5z" />
    <glyph glyph-name="uni0166" unicode="&#x166;" horiz-adv-x="639" 
d="M618 438l-96 -8l-20 125h-127v-217h133v-68h-133v-175h109v-95h-325v95h105v175h-134v68h134v217h-128l-20 -125l-95 8l20 212h557z" />
    <glyph glyph-name="uni0167" unicode="&#x167;" horiz-adv-x="390" 
d="M20 220v73h58v77h-66v79h66v139h107v-139h167v-79h-167v-77h152v-73h-152v-69q0 -71 62 -71q17 0 38 12.5t29 64.5l79 -25q-19 -142 -158 -142q-72 0 -114.5 38t-42.5 106v86h-58z" />
    <glyph glyph-name="uni0168" unicode="&#x168;" horiz-adv-x="718" 
d="M518 812q-3 -43 -20 -75.5t-63 -32.5q-37 0 -64.5 16t-59.5 16q-35 0 -45 -35l-44 15q0 26 19 62.5t66 36.5q33 0 60 -16.5t56 -16.5q14 0 27.5 8t20.5 32zM688 555h-60v-287q0 -69 -25.5 -132.5t-85 -104.5t-161.5 -41q-147 0 -205 81t-58 186v298h-62v95h254v-95h-81
v-295q0 -77 37 -124.5t121 -47.5q82 0 122 47.5t40 132.5v287h-83v95h247v-95z" />
    <glyph glyph-name="uni0169" unicode="&#x169;" horiz-adv-x="576" 
d="M426 647q-2 -43 -19.5 -79.5t-61.5 -36.5q-38 0 -66.5 20t-57.5 20q-34 0 -47 -43l-44 14q0 28 19.5 69.5t64.5 41.5q34 0 61.5 -19t56.5 -19q14 0 27 9t20 33zM561 0h-177v75q-44 -84 -148 -84q-64 0 -110.5 38.5t-46.5 122.5v215h-67v82h174v-258q0 -64 23 -90.5
t65 -26.5q50 0 79.5 35t30.5 83v175h-80v82h187v-367h70v-82z" />
    <glyph glyph-name="uni016A" unicode="&#x16a;" horiz-adv-x="718" 
d="M519 726h-297v82h297v-82zM688 555h-60v-287q0 -69 -25.5 -132.5t-85 -104.5t-161.5 -41q-147 0 -205 81t-58 186v298h-62v95h254v-95h-81v-295q0 -77 37 -124.5t121 -47.5q82 0 122 47.5t40 132.5v287h-83v95h247v-95z" />
    <glyph glyph-name="uni016B" unicode="&#x16b;" horiz-adv-x="576" 
d="M404 547h-259v82h259v-82zM561 0h-177v75q-44 -84 -148 -84q-64 0 -110.5 38.5t-46.5 122.5v215h-67v82h174v-258q0 -64 23 -90.5t65 -26.5q50 0 79.5 35t30.5 83v175h-80v82h187v-367h70v-82z" />
    <glyph glyph-name="uni016C" unicode="&#x16c;" horiz-adv-x="718" 
d="M495 827q0 -68 -35.5 -99.5t-97.5 -31.5q-132 0 -132 131h85q0 -65 47 -65q48 0 48 65h85zM688 555h-60v-287q0 -69 -25.5 -132.5t-85 -104.5t-161.5 -41q-147 0 -205 81t-58 186v298h-62v95h254v-95h-81v-295q0 -77 37 -124.5t121 -47.5q82 0 122 47.5t40 132.5v287h-83
v95h247v-95z" />
    <glyph glyph-name="uni016D" unicode="&#x16d;" horiz-adv-x="576" 
d="M401 654q0 -68 -36.5 -100t-97.5 -32q-131 0 -131 132h85q0 -66 47 -66q48 0 48 66h85zM561 0h-177v75q-44 -84 -148 -84q-64 0 -110.5 38.5t-46.5 122.5v215h-67v82h174v-258q0 -64 23 -90.5t65 -26.5q50 0 79.5 35t30.5 83v175h-80v82h187v-367h70v-82z" />
    <glyph glyph-name="uni016E" unicode="&#x16e;" horiz-adv-x="718" 
d="M467 783q0 -41 -25.5 -67.5t-78.5 -26.5q-101 0 -101 92q0 41 26 66.5t78 25.5q53 0 77 -25.5t24 -64.5zM399 785q0 13 -6.5 24.5t-27.5 11.5q-35 0 -35 -40q0 -39 34 -39q35 0 35 43zM688 555h-60v-287q0 -69 -25.5 -132.5t-85 -104.5t-161.5 -41q-147 0 -205 81
t-58 186v298h-62v95h254v-95h-81v-295q0 -77 37 -124.5t121 -47.5q82 0 122 47.5t40 132.5v287h-83v95h247v-95z" />
    <glyph glyph-name="uni016F" unicode="&#x16f;" horiz-adv-x="576" 
d="M375 608q0 -41 -25.5 -67.5t-78.5 -26.5q-51 0 -76 25t-25 66q0 42 26 67.5t78 25.5q53 0 77 -25.5t24 -64.5zM307 609q0 14 -6.5 25.5t-27.5 11.5q-35 0 -35 -41q0 -39 34 -39q35 0 35 43zM561 0h-177v75q-44 -84 -148 -84q-64 0 -110.5 38.5t-46.5 122.5v215h-67v82
h174v-258q0 -64 23 -90.5t65 -26.5q50 0 79.5 35t30.5 83v175h-80v82h187v-367h70v-82z" />
    <glyph glyph-name="uni0170" unicode="&#x170;" horiz-adv-x="718" 
d="M436 825l-164 -132l-37 35l131 169zM589 727l-208 -33l-14 49l198 83zM688 555h-60v-287q0 -69 -25.5 -132.5t-85 -104.5t-161.5 -41q-147 0 -205 81t-58 186v298h-62v95h254v-95h-81v-295q0 -77 37 -124.5t121 -47.5q82 0 122 47.5t40 132.5v287h-83v95h247v-95z" />
    <glyph glyph-name="uni0171" unicode="&#x171;" horiz-adv-x="576" 
d="M335 668l-141 -156l-42 30l101 185zM497 609l-187 -97l-29 43l159 138zM561 0h-177v75q-44 -84 -148 -84q-64 0 -110.5 38.5t-46.5 122.5v215h-67v82h174v-258q0 -64 23 -90.5t65 -26.5q50 0 79.5 35t30.5 83v175h-80v82h187v-367h70v-82z" />
    <glyph glyph-name="uni0172" unicode="&#x172;" horiz-adv-x="719" 
d="M688 555h-60v-287q0 -90 -44 -169t-154 -102q-28 -19 -37.5 -40t-9.5 -41q0 -28 14 -38t34 -10q28 0 50 13l8 -69q-37 -20 -85 -20t-80.5 22t-32.5 69q0 34 16 61t41 46q-142 2 -198.5 83t-56.5 184v298h-62v95h254v-95h-81v-295q0 -77 37 -124.5t121 -47.5
q82 0 122 47.5t40 132.5v287h-83v95h247v-95z" />
    <glyph glyph-name="uni0173" unicode="&#x173;" horiz-adv-x="576" 
d="M561 0h-57q-31 -20 -41 -42t-10 -42q0 -28 14 -38t34 -10q28 0 50 13l8 -69q-37 -20 -85 -20t-80.5 22t-32.5 69q0 38 20.5 68t51.5 49h-49v75q-44 -84 -148 -84q-64 0 -110.5 38.5t-46.5 122.5v215h-67v82h174v-258q0 -64 23 -90.5t65 -26.5q50 0 79.5 35t30.5 83v175
h-80v82h187v-367h70v-82z" />
    <glyph glyph-name="uni0174" unicode="&#x174;" horiz-adv-x="968" 
d="M644 737l-25 -46l-129 61l-121 -61l-25 45l132 101h36zM959 555h-53l-177 -555h-82l-159 458h-5l-154 -458h-83l-188 555h-56v95h247v-95h-72l112 -372h5l129 372h-57v95h246v-95h-53l129 -377h5l102 377h-80v95h244v-95z" />
    <glyph glyph-name="uni0175" unicode="&#x175;" horiz-adv-x="762" 
d="M539 556l-31 -44l-126 74l-108 -74l-31 43l130 124h36zM754 367h-45l-126 -367h-80l-124 296h-5l-117 -296h-76l-129 367h-44v82h228v-82h-70l69 -216h6l115 298h66l129 -295h6l54 213h-67v82h210v-82z" />
    <glyph glyph-name="uni0176" unicode="&#x176;" horiz-adv-x="633" 
d="M473 737l-25 -46l-129 61l-121 -61l-25 45l132 101h36zM626 555h-59l-194 -303v-157h109v-95h-324v95h104v158l-201 302h-60v95h257v-95h-68l130 -204h6l127 204h-72v95h245v-95z" />
    <glyph glyph-name="uni0177" unicode="&#x177;" horiz-adv-x="522" 
d="M422 556l-31 -44l-126 74l-108 -74l-31 43l130 124h36zM515 367h-47l-150 -367l-50 -129h66v-84h-240v84h76l44 125l-159 371h-49v82h221v-82h-57l104 -243h6l84 243h-51v82h202v-82z" />
    <glyph glyph-name="uni0178" unicode="&#x178;" horiz-adv-x="633" 
d="M174 710v115h111v-115h-111zM354 710v115h111v-115h-111zM626 555h-59l-194 -303v-157h109v-95h-324v95h104v158l-201 302h-60v95h257v-95h-68l130 -204h6l127 204h-72v95h245v-95z" />
    <glyph glyph-name="uni0179" unicode="&#x179;" horiz-adv-x="584" 
d="M452 727l-209 -33l-14 49l198 83zM536 0h-508l-3 59l351 494v2h-216l-23 -113l-94 9l22 199h471l2 -53l-354 -500v-2h257l23 127l95 -10z" />
    <glyph glyph-name="uni017A" unicode="&#x17a;" horiz-adv-x="472" 
d="M387 609l-187 -97l-29 43l159 138zM424 0h-387l-9 58l256 309h-163l-18 -77l-79 8l15 151h382l7 -59l-261 -308h176l22 78l85 -10z" />
    <glyph glyph-name="uni017B" unicode="&#x17b;" horiz-adv-x="584" 
d="M250 710v115h111v-115h-111zM536 0h-508l-3 59l351 494v2h-216l-23 -113l-94 9l22 199h471l2 -53l-354 -500v-2h257l23 127l95 -10z" />
    <glyph glyph-name="uni017C" unicode="&#x17c;" horiz-adv-x="472" 
d="M183 539v118h109v-118h-109zM424 0h-387l-9 58l256 309h-163l-18 -77l-79 8l15 151h382l7 -59l-261 -308h176l22 78l85 -10z" />
    <glyph glyph-name="uni017D" unicode="&#x17d;" horiz-adv-x="584" 
d="M447 791l-132 -100h-36l-132 100l25 45l130 -60l119 61zM536 0h-508l-3 59l351 494v2h-216l-23 -113l-94 9l22 199h471l2 -53l-354 -500v-2h257l23 127l95 -10z" />
    <glyph glyph-name="uni017E" unicode="&#x17e;" horiz-adv-x="472" 
d="M390 635l-130 -123h-36l-130 123l31 43l125 -73l109 74zM424 0h-387l-9 58l256 309h-163l-18 -77l-79 8l15 151h382l7 -59l-261 -308h176l22 78l85 -10z" />
    <glyph glyph-name="uni018F" unicode="&#x18f;" horiz-adv-x="686" 
d="M139 436l-86 10l17 158q55 25 113.5 40.5t131.5 15.5q179 0 260 -97t81 -235q0 -137 -79 -237.5t-242 -100.5q-137 0 -218 76.5t-81 208.5v85h498q-12 102 -71 151t-147 49q-85 0 -162 -34zM536 280h-379v-4q0 -36 13 -80t52.5 -76t117.5 -32q104 0 147 57.5t49 134.5z
" />
    <glyph glyph-name="uni0192" unicode="&#x192;" horiz-adv-x="373" 
d="M40 282h71l6 99q5 73 52 110.5t120 37.5q12 0 31 -1t35 -3v-73q-19 2 -35 4t-29 2q-41 0 -54 -19.5t-15 -59.5l-6 -97h105v-64h-108l-11 -200q-3 -48 -34 -89t-117 -41q-16 0 -45 4v71q14 -3 21.5 -3.5t16.5 -0.5q26 0 38 13.5t15 65.5l10 180h-67v64z" />
    <glyph glyph-name="uni01C4" unicode="&#x1c4;" horiz-adv-x="1285" 
d="M1148 791l-132 -100h-36l-132 100l25 45l130 -60l119 61zM1236 0h-508l-3 59l351 494v2h-216l-23 -113l-94 9l22 199h471l2 -53l-354 -500v-2h257l23 127l95 -10zM670 327q0 -146 -87 -236.5t-241 -90.5h-302v95h75v460h-75v95h296q164 0 249 -90t85 -233zM551 326
q0 229 -218 229h-107v-460h107q218 0 218 231z" />
    <glyph glyph-name="uni01C5" unicode="&#x1c5;" horiz-adv-x="1173" 
d="M1091 635l-130 -123h-36l-130 123l31 43l125 -73l109 74zM670 327q0 -146 -87 -236.5t-241 -90.5h-302v95h75v460h-75v95h296q164 0 249 -90t85 -233zM551 326q0 229 -218 229h-107v-460h107q218 0 218 231zM1124 0h-387l-9 58l256 309h-163l-18 -77l-79 8l15 151h382
l7 -59l-261 -308h176l22 78l85 -10z" />
    <glyph glyph-name="uni01C6" unicode="&#x1c6;" horiz-adv-x="1034" 
d="M548 0h-173v86q-20 -39 -57.5 -67.5t-98.5 -28.5q-88 0 -139.5 60t-51.5 165q0 96 48.5 169.5t152.5 73.5q53 0 89.5 -21.5t56.5 -57.5v227h-97v82h204v-606h66v-82zM953 635l-130 -123h-36l-130 123l31 43l125 -73l109 74zM986 0h-387l-9 58l256 309h-163l-18 -77l-79 8
l15 151h382l7 -59l-261 -308h176l22 78l85 -10zM375 216v34q-1 56 -34 89t-81 33q-54 0 -87.5 -40.5t-33.5 -110.5q0 -71 33.5 -108t80.5 -37q55 0 88 45t34 95z" />
    <glyph glyph-name="uni01C7" unicode="&#x1c7;" horiz-adv-x="1027" 
d="M995 555h-64v-377q0 -94 -50.5 -141t-135.5 -47q-76 0 -118.5 33.5t-63.5 80.5l78 59q19 -43 42.5 -56.5t51.5 -13.5q45 0 65 23.5t20 60.5v378h-120v95h295v-95zM521 0h-481v95h75v460h-75v95h283v-95h-97v-460h200l20 135l95 -8z" />
    <glyph glyph-name="uni01C8" unicode="&#x1c8;" horiz-adv-x="799" 
d="M629 542v118h109v-118h-109zM521 0h-481v95h75v460h-75v95h283v-95h-97v-460h200l20 135l95 -8zM738 5q0 -127 -50 -183t-162 -45l-3 73q41 0 74.5 23.5t33.5 131.5v361h-81v83h188v-444z" />
    <glyph glyph-name="uni01C9" unicode="&#x1c9;" horiz-adv-x="538" 
d="M259 0h-240v82h67v524h-71v82h177v-606h67v-82zM367 542v118h109v-118h-109zM476 5q0 -127 -50 -183t-162 -45l-3 73q41 0 74.5 23.5t33.5 131.5v361h-81v83h188v-444z" />
    <glyph glyph-name="uni01CA" unicode="&#x1ca;" horiz-adv-x="1215" 
d="M1182 555h-64v-377q0 -94 -50.5 -141t-135.5 -47q-76 0 -118.5 33.5t-63.5 80.5l78 59q19 -43 42.5 -56.5t51.5 -13.5q45 0 65 23.5t20 60.5v378h-120v95h295v-95zM722 555h-75v-555l-64 -1l-360 451h-4v-355h95v-95h-271v95h72v460h-82v95h163l343 -430h4v335h-95v95
h274v-95z" />
    <glyph glyph-name="uni01CB" unicode="&#x1cb;" horiz-adv-x="994" 
d="M823 542v118h109v-118h-109zM722 555h-75v-555l-64 -1l-360 451h-4v-355h95v-95h-271v95h72v460h-82v95h163l343 -430h4v335h-95v95h274v-95zM932 5q0 -127 -50 -183t-162 -45l-3 73q41 0 74.5 23.5t33.5 131.5v361h-81v83h188v-444z" />
    <glyph glyph-name="uni01CC" unicode="&#x1cc;" horiz-adv-x="843" 
d="M672 542v118h109v-118h-109zM575 0h-240v82h66v176q0 64 -23 90.5t-64 26.5q-51 0 -80.5 -33t-30.5 -81v-179h67v-82h-241v82h67v284h-70v83h177v-73q47 82 149 82q64 0 110 -39t46 -122v-215h67v-82zM781 5q0 -127 -49.5 -183t-162.5 -45l-3 73q41 0 74.5 23.5
t33.5 131.5v361h-81v83h188v-444z" />
    <glyph glyph-name="uni01D3" unicode="&#x1d3;" horiz-adv-x="718" 
d="M514 791l-132 -100h-36l-132 100l25 45l130 -60l119 61zM688 555h-60v-287q0 -69 -25.5 -132.5t-85 -104.5t-161.5 -41q-147 0 -205 81t-58 186v298h-62v95h254v-95h-81v-295q0 -77 37 -124.5t121 -47.5q82 0 122 47.5t40 132.5v287h-83v95h247v-95z" />
    <glyph glyph-name="uni01D4" unicode="&#x1d4;" horiz-adv-x="576" 
d="M422 636l-130 -123h-36l-130 123l31 43l125 -73l109 74zM561 0h-177v75q-44 -84 -148 -84q-64 0 -110.5 38.5t-46.5 122.5v215h-67v82h174v-258q0 -64 23 -90.5t65 -26.5q50 0 79.5 35t30.5 83v175h-80v82h187v-367h70v-82z" />
    <glyph glyph-name="uni01E2" unicode="&#x1e2;" horiz-adv-x="929" 
d="M815 726h-297v82h297v-82zM870 0h-492v95h74v89h-233l-42 -89h69v-95h-246v95h64l231 460h-88v95h656l19 -187l-95 -9l-20 101h-204v-180h286v-95h-286v-185h212l20 101l94 -8zM452 265v290h-55l-139 -290h194z" />
    <glyph glyph-name="uni01E3" unicode="&#x1e3;" horiz-adv-x="768" 
d="M517 547h-259v82h259v-82zM742 137q-6 -59 -58 -103t-143 -44q-134 0 -190 96q-24 -36 -66.5 -66t-106.5 -30q-53 0 -101 28.5t-48 99.5q0 83 68.5 109.5t144.5 26.5q19 0 38.5 -1t36.5 -3v25q0 39 -13.5 71.5t-68.5 32.5q-48 0 -77 -15l-18 -69l-85 9l18 112
q51 24 89.5 33t93.5 9q88 0 133 -56q58 56 146 56q93 0 147.5 -56.5t55.5 -140.5q0 -29 -6 -59h-300q9 -122 117 -122q52 0 74.5 23t28.5 51zM627 263q7 41 -15.5 76.5t-77.5 35.5q-49 0 -72.5 -31.5t-28.5 -80.5h194zM143 130q0 -61 64 -61q38 0 73.5 28t36.5 83v14
q-17 2 -35 4t-36 2q-40 0 -71.5 -14t-31.5 -56z" />
    <glyph glyph-name="uni01F1" unicode="&#x1f1;" horiz-adv-x="1281" 
d="M1232 0h-508l-3 59l351 494v2h-216l-23 -113l-94 9l22 199h471l2 -53l-354 -500v-2h257l23 127l95 -10zM670 327q0 -146 -87 -236.5t-241 -90.5h-302v95h75v460h-75v95h296q164 0 249 -90t85 -233zM551 326q0 229 -218 229h-107v-460h107q218 0 218 231z" />
    <glyph glyph-name="uni01F2" unicode="&#x1f2;" horiz-adv-x="1173" 
d="M670 327q0 -146 -87 -236.5t-241 -90.5h-302v95h75v460h-75v95h296q164 0 249 -90t85 -233zM551 326q0 229 -218 229h-107v-460h107q218 0 218 231zM1124 0h-387l-9 58l256 309h-163l-18 -77l-79 8l15 151h382l7 -59l-261 -308h176l22 78l85 -10z" />
    <glyph glyph-name="uni01F3" unicode="&#x1f3;" horiz-adv-x="1034" 
d="M548 0h-173v86q-20 -39 -57.5 -67.5t-98.5 -28.5q-88 0 -139.5 60t-51.5 165q0 96 48.5 169.5t152.5 73.5q53 0 89.5 -21.5t56.5 -57.5v227h-97v82h204v-606h66v-82zM986 0h-387l-9 58l256 309h-163l-18 -77l-79 8l15 151h382l7 -59l-261 -308h176l22 78l85 -10zM375 216
v34q-1 56 -34 89t-81 33q-54 0 -87.5 -40.5t-33.5 -110.5q0 -71 33.5 -108t80.5 -37q55 0 88 45t34 95z" />
    <glyph glyph-name="uni01FC" unicode="&#x1fc;" horiz-adv-x="928" 
d="M823 727l-209 -33l-14 49l198 83zM870 0h-492v95h74v89h-233l-42 -89h69v-95h-246v95h64l231 460h-88v95h656l19 -187l-95 -9l-20 101h-204v-180h286v-95h-286v-185h212l20 101l94 -8zM452 265v290h-55l-139 -290h194z" />
    <glyph glyph-name="uni01FD" unicode="&#x1fd;" horiz-adv-x="768" 
d="M585 609l-187 -97l-29 43l159 138zM742 137q-6 -59 -58 -103t-143 -44q-134 0 -190 96q-24 -36 -66.5 -66t-106.5 -30q-53 0 -101 28.5t-48 99.5q0 83 68.5 109.5t144.5 26.5q19 0 38.5 -1t36.5 -3v25q0 39 -13.5 71.5t-68.5 32.5q-48 0 -77 -15l-18 -69l-85 9l18 112
q51 24 89.5 33t93.5 9q88 0 133 -56q58 56 146 56q93 0 147.5 -56.5t55.5 -140.5q0 -29 -6 -59h-300q9 -122 117 -122q52 0 74.5 23t28.5 51zM627 263q7 41 -15.5 76.5t-77.5 35.5q-49 0 -72.5 -31.5t-28.5 -80.5h194zM143 130q0 -61 64 -61q38 0 73.5 28t36.5 83v14
q-17 2 -35 4t-36 2q-40 0 -71.5 -14t-31.5 -56z" />
    <glyph glyph-name="uni01FE" unicode="&#x1fe;" horiz-adv-x="722" 
d="M535 727l-209 -33l-14 49l198 83zM691 326q0 -138 -89 -237t-243 -99q-109 0 -190 54l-38 -44h-99l81 95q-81 92 -81 229q0 142 90 239t240 97q54 0 101 -14t85 -39l36 43h108l-83 -96q82 -93 82 -228zM152 327q0 -85 35 -145l293 346q-49 34 -119 34
q-104 0 -156.5 -67.5t-52.5 -167.5zM571 323q0 85 -36 146l-296 -344q49 -37 125 -37q103 0 155 66.5t52 168.5z" />
    <glyph glyph-name="uni01FF" unicode="&#x1ff;" horiz-adv-x="521" 
d="M449 609l-187 -97l-29 43l159 138zM494 224q0 -106 -66 -170t-173 -64q-75 0 -131 34l-21 -24h-76l54 62q-53 61 -53 157q0 98 58.5 168.5t175.5 70.5q76 0 132 -35l23 26h77l-56 -64q56 -64 56 -161zM142 226q0 -47 14 -78l173 200q-29 20 -69 20q-57 0 -87.5 -38
t-30.5 -104zM379 227q0 43 -14 74l-174 -200q27 -21 68 -21q57 0 88.5 40t31.5 107z" />
    <glyph glyph-name="uni0218" unicode="&#x218;" horiz-adv-x="548" 
d="M512 191q0 -97 -67.5 -149t-178.5 -52q-66 0 -127.5 16t-97.5 46l18 149l89 -9l-2 -80q33 -17 60.5 -21.5t51.5 -4.5q58 0 96.5 18.5t38.5 74.5q0 61 -44 81.5t-101 31.5q-46 9 -93 24t-78 50t-31 103q0 102 69.5 146.5t155.5 44.5q60 0 116.5 -18t88.5 -47l6 -137
l-89 -8l-9 84q-28 16 -56 22t-54 6q-47 0 -78 -19t-31 -61q0 -49 38.5 -66.5t86.5 -28.5q41 -9 93 -24t90.5 -53.5t38.5 -118.5zM346 -60l-23 -155h-83l5 155h101z" />
    <glyph glyph-name="uni0219" unicode="&#x219;" horiz-adv-x="451" 
d="M421 134q0 -70 -57.5 -107t-146.5 -37q-48 0 -96.5 11t-87.5 33l16 116l84 -8l-1 -58q19 -8 40.5 -11t38.5 -3q41 0 71.5 14.5t30.5 43.5q0 28 -27.5 40t-68.5 18.5t-82 18t-68.5 38t-27.5 79.5q0 78 59.5 107t125.5 29q87 0 164 -41l11 -111l-84 -10l-9 67
q-39 15 -79 15q-31 0 -52.5 -12.5t-21.5 -39.5q0 -28 27 -39t67 -17.5t80 -18t67 -38t27 -79.5zM279 -60l-23 -155h-83l5 155h101z" />
    <glyph glyph-name="uni021A" unicode="&#x21a;" horiz-adv-x="640" 
d="M618 438l-96 -8l-20 125h-127v-460h109v-95h-325v95h105v460h-128l-20 -125l-95 8l20 212h557zM370 -60l-23 -155h-83l5 155h101z" />
    <glyph glyph-name="uni021B" unicode="&#x21b;" horiz-adv-x="388" 
d="M391 132q-19 -142 -158 -142q-72 0 -114.5 38t-42.5 106v236h-66v79h66v139h107v-139h167v-79h-167v-219q0 -71 62 -71q17 0 38 12.5t29 64.5zM288 -60l-23 -155h-83l5 155h101z" />
    <glyph glyph-name="uni0232" unicode="&#x232;" horiz-adv-x="633" 
d="M470 726h-297v82h297v-82zM626 555h-59l-194 -303v-157h109v-95h-324v95h104v158l-201 302h-60v95h257v-95h-68l130 -204h6l127 204h-72v95h245v-95z" />
    <glyph glyph-name="uni0233" unicode="&#x233;" horiz-adv-x="522" 
d="M400 547h-259v82h259v-82zM515 367h-47l-150 -367l-50 -129h66v-84h-240v84h76l44 125l-159 371h-49v82h221v-82h-57l104 -243h6l84 243h-51v82h202v-82z" />
    <glyph glyph-name="uni0237" unicode="&#x237;" horiz-adv-x="260" 
d="M10 449h188v-444q0 -127 -50 -183t-162 -45l-3 73q41 0 74.5 23.5t33.5 131.5v361h-81v83z" />
    <glyph glyph-name="uni0259" unicode="&#x259;" horiz-adv-x="478" 
d="M26 311q6 59 58 103t143 44q98 0 161 -57.5t63 -169.5q0 -103 -57.5 -172t-160.5 -69q-93 0 -147.5 55.5t-55.5 140.5q0 28 6 60h303q-9 126 -120 126q-52 0 -74.5 -25t-29.5 -53zM140 180q-4 -40 18.5 -75.5t75.5 -35.5q48 0 73 32t31 79h-198z" />
    <glyph glyph-name="uni02C6" unicode="&#x2c6;" horiz-adv-x="338" 
d="M346 556l-31 -44l-126 74l-108 -74l-31 43l130 124h36z" />
    <glyph glyph-name="uni02C7" unicode="&#x2c7;" horiz-adv-x="338" 
d="M346 635l-130 -123h-36l-130 123l31 43l125 -73l109 74z" />
    <glyph glyph-name="uni02D8" unicode="&#x2d8;" horiz-adv-x="399" 
d="M330 654q0 -68 -36 -100t-98 -32q-131 0 -131 132h85q0 -66 47 -66q48 0 48 66h85z" />
    <glyph glyph-name="uni02D9" unicode="&#x2d9;" horiz-adv-x="222" 
d="M49 539v118h109v-118h-109z" />
    <glyph glyph-name="uni02DA" unicode="&#x2da;" horiz-adv-x="260" 
d="M233 608q0 -41 -25.5 -67.5t-78.5 -26.5q-51 0 -76 25t-25 66q0 42 26 67.5t78 25.5q53 0 77 -25.5t24 -64.5zM165 609q0 14 -6.5 25.5t-27.5 11.5q-35 0 -35 -41q0 -39 34 -39q35 0 35 43z" />
    <glyph glyph-name="uni02DB" unicode="&#x2db;" horiz-adv-x="280" 
d="M234 -188q-37 -20 -85 -20t-80.5 22t-32.5 69q0 45 28.5 79t67.5 50l61 -4q-40 -21 -52.5 -45.5t-12.5 -46.5q0 -28 14 -38t34 -10q28 0 50 13z" />
    <glyph glyph-name="uni02DC" unicode="&#x2dc;" horiz-adv-x="374" 
d="M332 647q-2 -43 -19.5 -79.5t-61.5 -36.5q-38 0 -66.5 20t-57.5 20q-34 0 -47 -43l-44 14q0 28 19.5 69.5t64.5 41.5q34 0 61.5 -19t56.5 -19q14 0 27 9t20 33z" />
    <glyph glyph-name="uni02DD" unicode="&#x2dd;" horiz-adv-x="430" 
d="M234 668l-141 -156l-42 30l101 185zM396 609l-187 -97l-29 43l159 138z" />
    <glyph glyph-name="uni0323" unicode="&#x323;" horiz-adv-x="833" 
d="M78 -188v118h109v-118h-109z" />
    <glyph glyph-name="uni0394" unicode="&#x394;" horiz-adv-x="483" 
d="M-6 0l252 661l240 -661h-492zM114 82h252l-123 355z" />
    <glyph glyph-name="uni03A3" unicode="&#x3a3;" horiz-adv-x="550" 
d="M34 0v94l184 224l-184 237v95h488v-95h-358l168 -217v-33l-168 -211h358v-94h-488z" />
    <glyph glyph-name="uni03C0" unicode="&#x3c0;" horiz-adv-x="593" 
d="M30 82h67v284h-71v83h542v-83h-72v-284h67v-82h-241v82h67v284h-185v-284h66v-82h-240v82z" />
    <glyph glyph-name="uni1E46" unicode="&#x1e46;" horiz-adv-x="752" 
d="M722 555h-75v-555l-64 -1l-360 451h-4v-355h95v-95h-271v95h72v460h-82v95h163l343 -430h4v335h-95v95h274v-95zM331 -188v118h109v-118h-109z" />
    <glyph glyph-name="uni1E47" unicode="&#x1e47;" horiz-adv-x="586" 
d="M575 0h-240v82h66v176q0 64 -23 90.5t-64 26.5q-51 0 -80.5 -33t-30.5 -81v-179h67v-82h-241v82h67v284h-70v83h177v-73q47 82 149 82q64 0 110 -39t46 -122v-215h67v-82zM247 -188v118h109v-118h-109z" />
    <glyph glyph-name="uni1E62" unicode="&#x1e62;" horiz-adv-x="548" 
d="M512 191q0 -97 -67.5 -149t-178.5 -52q-66 0 -127.5 16t-97.5 46l18 149l89 -9l-2 -80q33 -17 60.5 -21.5t51.5 -4.5q58 0 96.5 18.5t38.5 74.5q0 61 -44 81.5t-101 31.5q-46 9 -93 24t-78 50t-31 103q0 102 69.5 146.5t155.5 44.5q60 0 116.5 -18t88.5 -47l6 -137
l-89 -8l-9 84q-28 16 -56 22t-54 6q-47 0 -78 -19t-31 -61q0 -49 38.5 -66.5t86.5 -28.5q41 -9 93 -24t90.5 -53.5t38.5 -118.5zM229 -188v118h109v-118h-109z" />
    <glyph glyph-name="uni1E63" unicode="&#x1e63;" horiz-adv-x="451" 
d="M421 134q0 -70 -57.5 -107t-146.5 -37q-48 0 -96.5 11t-87.5 33l16 116l84 -8l-1 -58q19 -8 40.5 -11t38.5 -3q41 0 71.5 14.5t30.5 43.5q0 28 -27.5 40t-68.5 18.5t-82 18t-68.5 38t-27.5 79.5q0 78 59.5 107t125.5 29q87 0 164 -41l11 -111l-84 -10l-9 67
q-39 15 -79 15q-31 0 -52.5 -12.5t-21.5 -39.5q0 -28 27 -39t67 -17.5t80 -18t67 -38t27 -79.5zM172 -188v118h109v-118h-109z" />
    <glyph glyph-name="uni1E80" unicode="&#x1e80;" horiz-adv-x="968" 
d="M580 743l-13 -49l-209 33l25 99zM959 555h-53l-177 -555h-82l-159 458h-5l-154 -458h-83l-188 555h-56v95h247v-95h-72l112 -372h5l129 372h-57v95h246v-95h-53l129 -377h5l102 377h-80v95h244v-95z" />
    <glyph glyph-name="uni1E81" unicode="&#x1e81;" horiz-adv-x="762" 
d="M440 555l-30 -43l-186 97l57 84zM754 367h-45l-126 -367h-80l-124 296h-5l-117 -296h-76l-129 367h-44v82h228v-82h-70l69 -216h6l115 298h66l129 -295h6l54 213h-67v82h210v-82z" />
    <glyph glyph-name="uni1E82" unicode="&#x1e82;" horiz-adv-x="968" 
d="M627 727l-209 -33l-14 49l198 83zM959 555h-53l-177 -555h-82l-159 458h-5l-154 -458h-83l-188 555h-56v95h247v-95h-72l112 -372h5l129 372h-57v95h246v-95h-53l129 -377h5l102 377h-80v95h244v-95z" />
    <glyph glyph-name="uni1E83" unicode="&#x1e83;" horiz-adv-x="762" 
d="M564 609l-187 -97l-29 43l159 138zM754 367h-45l-126 -367h-80l-124 296h-5l-117 -296h-76l-129 367h-44v82h228v-82h-70l69 -216h6l115 298h66l129 -295h6l54 213h-67v82h210v-82z" />
    <glyph glyph-name="uni1E84" unicode="&#x1e84;" horiz-adv-x="968" 
d="M346 710v115h111v-115h-111zM526 710v115h111v-115h-111zM959 555h-53l-177 -555h-82l-159 458h-5l-154 -458h-83l-188 555h-56v95h247v-95h-72l112 -372h5l129 372h-57v95h246v-95h-53l129 -377h5l102 377h-80v95h244v-95z" />
    <glyph glyph-name="uni1E85" unicode="&#x1e85;" horiz-adv-x="762" 
d="M248 540v115h111v-115h-111zM428 540v115h110v-115h-110zM754 367h-45l-126 -367h-80l-124 296h-5l-117 -296h-76l-129 367h-44v82h228v-82h-70l69 -216h6l115 298h66l129 -295h6l54 213h-67v82h210v-82z" />
    <glyph glyph-name="uni1EBC" unicode="&#x1ebc;" horiz-adv-x="591" 
d="M475 812q-3 -43 -20 -75.5t-63 -32.5q-37 0 -64.5 16t-59.5 16q-35 0 -45 -35l-44 15q0 26 19.5 62.5t65.5 36.5q33 0 60 -16.5t56 -16.5q14 0 27 8t21 32zM535 0h-495v95h75v460h-75v95h488l20 -188l-95 -8l-20 101h-207v-180h286v-95h-286v-185h214l20 101l95 -8z" />
    <glyph glyph-name="uni1EBD" unicode="&#x1ebd;" horiz-adv-x="478" 
d="M393 647q-2 -43 -19.5 -79.5t-61.5 -36.5q-38 0 -66.5 20t-57.5 20q-34 0 -47 -43l-44 14q0 28 19.5 69.5t64.5 41.5q34 0 61.5 -19t56.5 -19q13 0 26 9t21 33zM452 137q-6 -59 -58 -103t-143 -44q-98 0 -161 57.5t-63 169.5q0 103 57.5 172t160.5 69q93 0 147.5 -55.5
t55.5 -140.5q0 -28 -6 -60h-303q9 -126 120 -126q52 0 74.5 25t29.5 53zM338 268q4 40 -18.5 75.5t-75.5 35.5q-48 0 -73 -32t-31 -79h198z" />
    <glyph glyph-name="uni1EF2" unicode="&#x1ef2;" horiz-adv-x="633" 
d="M387 743l-13 -49l-209 33l25 99zM626 555h-59l-194 -303v-157h109v-95h-324v95h104v158l-201 302h-60v95h257v-95h-68l130 -204h6l127 204h-72v95h245v-95z" />
    <glyph glyph-name="uni1EF3" unicode="&#x1ef3;" horiz-adv-x="522" 
d="M340 555l-30 -43l-186 97l57 84zM515 367h-47l-150 -367l-50 -129h66v-84h-240v84h76l44 125l-159 371h-49v82h221v-82h-57l104 -243h6l84 243h-51v82h202v-82z" />
    <glyph glyph-name="uni2004" unicode="&#x2004;" horiz-adv-x="333" 
 />
    <glyph glyph-name="uni2007" unicode="&#x2007;" horiz-adv-x="600" 
 />
    <glyph glyph-name="uni2009" unicode="&#x2009;" horiz-adv-x="160" 
 />
    <glyph glyph-name="uni200A" unicode="&#x200a;" horiz-adv-x="80" 
 />
    <glyph glyph-name="uni200B" unicode="&#x200b;" horiz-adv-x="0" 
 />
    <glyph glyph-name="uni2012" unicode="&#x2012;" horiz-adv-x="347" 
d="M347 296v-90h-347v90h347z" />
    <glyph glyph-name="uni2013" unicode="&#x2013;" horiz-adv-x="603" 
d="M50 270h502v-72h-502v72z" />
    <glyph glyph-name="uni2014" unicode="&#x2014;" horiz-adv-x="1047" 
d="M55 270h940v-72h-940v72z" />
    <glyph glyph-name="uni2018" unicode="&#x2018;" horiz-adv-x="220" 
d="M195 646l-57 -228h-104l57 228h104z" />
    <glyph glyph-name="uni2019" unicode="&#x2019;" horiz-adv-x="214" 
d="M31 489l57 228h104l-57 -228h-104z" />
    <glyph glyph-name="uni201A" unicode="&#x201a;" horiz-adv-x="214" 
d="M11 -92l57 228h104l-57 -228h-104z" />
    <glyph glyph-name="uni201C" unicode="&#x201c;" horiz-adv-x="388" 
d="M195 669l-57 -228h-104l57 228h104zM367 669l-57 -228h-104l57 228h104z" />
    <glyph glyph-name="uni201D" unicode="&#x201d;" horiz-adv-x="383" 
d="M23 442l57 228h104l-57 -228h-104zM195 442l57 228h104l-57 -228h-104z" />
    <glyph glyph-name="uni201E" unicode="&#x201e;" horiz-adv-x="387" 
d="M11 -92l57 228h104l-57 -228h-104zM185 -92l57 228h104l-57 -228h-104z" />
    <glyph glyph-name="uni2020" unicode="&#x2020;" horiz-adv-x="463" 
d="M26 436h159v214h93v-214h158v-92h-158v-485h-93v485h-159v92z" />
    <glyph glyph-name="uni2021" unicode="&#x2021;" horiz-adv-x="494" 
d="M42 144h159v200h-159v92h159v214h92v-214h159v-92h-159v-200h159v-91h-159v-194h-92v194h-159v91z" />
    <glyph glyph-name="uni2022" unicode="&#x2022;" horiz-adv-x="353" 
d="M57 243q0 50 34.5 85.5t84.5 35.5q51 0 86 -35.5t35 -85.5t-35 -84.5t-86 -34.5q-50 0 -84.5 34.5t-34.5 84.5z" />
    <glyph glyph-name="uni2026" unicode="&#x2026;" horiz-adv-x="632" 
d="M44 0v142h132v-142h-132zM249 0v142h132v-142h-132zM454 0v142h132v-142h-132z" />
    <glyph glyph-name="uni2030" unicode="&#x2030;" horiz-adv-x="1035" 
d="M181 242q-71 0 -110.5 39t-39.5 103q0 66 41.5 106.5t113.5 40.5q71 0 109.5 -39t38.5 -103q0 -65 -40 -106t-113 -41zM615 521l-207 -259l-197 -262h-112l233 286l171 235h112zM181 312q66 0 66 76q0 73 -63 73q-28 0 -47 -17.5t-19 -58.5q0 -73 63 -73zM535 -10
q-71 0 -110.5 39t-39.5 103q0 66 41.5 107t114.5 41q71 0 109.5 -39.5t38.5 -103.5q0 -65 -40 -106t-114 -41zM854 -10q-70 0 -110.5 39t-40.5 103q0 66 42 107t114 41q71 0 109.5 -39.5t38.5 -103.5q0 -65 -39.5 -106t-113.5 -41zM535 60q67 0 67 76q0 74 -63 74
q-29 0 -48 -17.5t-19 -59.5q0 -73 63 -73zM854 60q66 0 66 76q0 74 -63 74q-29 0 -48 -17.5t-19 -59.5q0 -73 64 -73z" />
    <glyph glyph-name="uni2039" unicode="&#x2039;" horiz-adv-x="296" 
d="M258 25h-89l-138 246l138 240h89l-121 -240z" />
    <glyph glyph-name="uni203A" unicode="&#x203a;" horiz-adv-x="296" 
d="M127 25h-90l122 246l-122 240h90l138 -240z" />
    <glyph glyph-name="uni203D" unicode="&#x203d;" horiz-adv-x="698" 
d="M346 465l-80 21l33 136q62 30 139 30q88 0 159 -37.5t71 -121.5q0 -64 -39.5 -98t-93.5 -57t-99.5 -51.5t-56.5 -79.5l-70 25q4 58 40 91t81 54t79 44t34 63q0 45 -42 62t-72 17q-27 0 -53 -13zM287 228l-72 -32l-190 388l115 54zM239 0v127h127v-127h-127z" />
    <glyph glyph-name="uni2044" unicode="&#x2044;" horiz-adv-x="151" 
d="M299 650l-191 -325l-181 -325h-75l198 337l174 313h75z" />
    <glyph glyph-name="uni2070" unicode="&#x2070;" horiz-adv-x="386" 
d="M31 592q0 71 33.5 132t129.5 61q97 0 129 -61.5t32 -126.5q0 -78 -37.5 -133t-127.5 -55q-89 0 -124 54.5t-35 128.5zM122 600q0 -51 13 -88t56 -37q41 0 57 34.5t16 90.5q0 51 -14 85t-57 34t-57 -35t-14 -84z" />
    <glyph glyph-name="uni2071" unicode="&#x2071;" horiz-adv-x="215" 
d="M68 768v83h86v-83h-86zM29 473h41v175h-44v59h128v-234h40v-58h-165v58z" />
    <glyph glyph-name="uni2074" unicode="&#x2074;" horiz-adv-x="365" 
d="M196 415v74h-170l-9 62l115 228h149v-225h59l-6 -65h-53v-74h-85zM176 715l-84 -161h104v161h-20z" />
    <glyph glyph-name="uni2075" unicode="&#x2075;" horiz-adv-x="338" 
d="M314 527q0 -59 -43.5 -89t-108.5 -30q-52 0 -88 24t-45 74l62 20q7 -22 22.5 -37t45.5 -15q63 0 63 54q0 35 -25 45.5t-59 10.5q-15 0 -29.5 -1t-28.5 -2l-27 22v176h234v-1l1 1l8 -101l-70 -7l-6 44h-88v-71h21q64 0 112.5 -23t48.5 -94z" />
    <glyph glyph-name="uni2076" unicode="&#x2076;" horiz-adv-x="348" 
d="M196 721q-34 0 -53 -23.5t-22 -91.5q11 18 31.5 31t55.5 13q61 0 84.5 -36t23.5 -77q0 -56 -38 -92t-103 -36q-76 0 -110 50.5t-34 127.5q0 81 37.5 139.5t120.5 58.5q71 0 116 -48l-45 -48q-16 19 -31.5 25.5t-32.5 6.5zM180 589q-28 0 -42 -15t-15 -37q6 -62 55 -62
q52 0 52 58q0 56 -50 56z" />
    <glyph glyph-name="uni2077" unicode="&#x2077;" horiz-adv-x="316" 
d="M23 779h273l10 -35l-137 -330h-83l128 302h-117v-61h-74v124z" />
    <glyph glyph-name="uni2078" unicode="&#x2078;" horiz-adv-x="352" 
d="M171 409q-61 0 -100.5 24.5t-39.5 71.5q0 37 23.5 56t54.5 33q-29 15 -49.5 36t-20.5 55q0 45 37.5 72.5t99.5 27.5q59 0 95.5 -25t36.5 -66q0 -32 -20 -49t-48 -30q32 -16 57 -39t25 -63q0 -51 -43 -77.5t-108 -26.5zM130 692q0 -19 19 -31t45 -24q12 8 20.5 18.5
t8.5 26.5q0 26 -15.5 34.5t-31.5 8.5q-46 0 -46 -33zM175 469q55 0 55 38q0 24 -23.5 38.5t-54.5 28.5q-15 -10 -25.5 -22t-10.5 -31q0 -52 59 -52z" />
    <glyph glyph-name="uni2079" unicode="&#x2079;" horiz-adv-x="349" 
d="M153 473q37 0 53.5 23.5t18.5 89.5q-11 -17 -31 -29.5t-54 -12.5q-61 0 -84.5 36t-23.5 77q0 56 38 92t102 36q76 0 110.5 -50.5t34.5 -131.5q0 -85 -37 -139.5t-119 -54.5q-72 0 -119 48l46 48q16 -19 34 -25.5t31 -6.5zM168 605q53 0 56 48q-6 66 -54 66q-52 0 -52 -58
q0 -56 50 -56z" />
    <glyph glyph-name="uni207A" unicode="&#x207a;" horiz-adv-x="281" 
d="M25 571v53h89v87h57v-87h86v-53h-86v-86h-57v86h-89z" />
    <glyph glyph-name="uni207B" unicode="&#x207b;" horiz-adv-x="314" 
d="M41 571v53h232v-53h-232z" />
    <glyph glyph-name="uni207C" unicode="&#x207c;" horiz-adv-x="375" 
d="M42 635v53h290v-53h-290zM42 506v53h290v-53h-290z" />
    <glyph glyph-name="uni207D" unicode="&#x207d;" horiz-adv-x="224" 
d="M133 831h72q-102 -121 -102 -259q0 -143 102 -263h-73q-52 64 -75 130t-23 133t24 132.5t75 126.5z" />
    <glyph glyph-name="uni207E" unicode="&#x207e;" horiz-adv-x="224" 
d="M91 309h-72q103 123 103 260q0 143 -103 262h73q51 -64 74.5 -130t23.5 -132q0 -139 -99 -260z" />
    <glyph glyph-name="uni207F" unicode="&#x207f;" horiz-adv-x="415" 
d="M231 473h41v108q0 73 -53 73q-63 0 -66 -66v-115h40v-58h-165v58h41v175h-44v59h128v-45q30 51 97 51q43 0 74.5 -25t31.5 -78v-137h41v-58h-166v58z" />
    <glyph glyph-name="uni2080" unicode="&#x2080;" horiz-adv-x="386" 
d="M31 177q0 71 33.5 132t129.5 61q97 0 129 -61.5t32 -126.5q0 -78 -37.5 -133t-127.5 -55q-89 0 -124 54.5t-35 128.5zM122 185q0 -51 13 -88t56 -37q41 0 57 35t16 90q0 51 -14 85t-57 34t-57 -35t-14 -84z" />
    <glyph glyph-name="uni2081" unicode="&#x2081;" horiz-adv-x="274" 
d="M31 64h74v236h-74v64h159v-300h67v-64h-226v64z" />
    <glyph glyph-name="uni2082" unicode="&#x2082;" horiz-adv-x="360" 
d="M101 244l-65 6l13 90q54 30 130 30q73 0 103.5 -31t30.5 -67q0 -44 -34 -84t-76.5 -72.5t-69.5 -51.5h125l11 54l68 -8l-10 -110h-291l-8 59q41 33 85.5 68.5t75.5 70t31 64.5q0 44 -57 44q-30 0 -51 -13z" />
    <glyph glyph-name="uni2083" unicode="&#x2083;" horiz-adv-x="347" 
d="M105 249l-65 5l12 86q25 14 61 21.5t66 7.5q59 0 91.5 -26t32.5 -65q0 -58 -65 -83v-2q44 -9 61.5 -34.5t17.5 -56.5q0 -52 -43.5 -80.5t-109.5 -28.5q-52 0 -87.5 24t-44.5 74l61 20q7 -23 22.5 -37.5t46.5 -14.5t47 15.5t16 38.5q0 49 -88 52v48q32 2 53.5 12.5
t21.5 38.5q0 41 -49 41q-27 0 -48 -12z" />
    <glyph glyph-name="uni2084" unicode="&#x2084;" horiz-adv-x="365" 
d="M196 0v74h-170l-9 62l115 228h149v-225h59l-6 -65h-53v-74h-85zM176 300l-84 -161h104v161h-20z" />
    <glyph glyph-name="uni2085" unicode="&#x2085;" horiz-adv-x="338" 
d="M314 112q0 -58 -43.5 -88.5t-108.5 -30.5q-52 0 -88 24t-45 74l62 20q7 -23 22.5 -37.5t45.5 -14.5q63 0 63 54q0 35 -25 45.5t-59 10.5q-15 0 -29.5 -1t-28.5 -2l-27 22v176h234v-1l1 1l8 -101l-70 -7l-6 44h-88v-71h21q64 0 112.5 -23.5t48.5 -93.5z" />
    <glyph glyph-name="uni2086" unicode="&#x2086;" horiz-adv-x="348" 
d="M196 306q-34 0 -53 -24t-22 -91q11 18 31.5 31t55.5 13q61 0 84.5 -36.5t23.5 -76.5q0 -56 -38 -92t-103 -36q-76 0 -110 50.5t-34 127.5q0 81 37.5 139.5t120.5 58.5q71 0 116 -48l-45 -48q-16 20 -31.5 26t-32.5 6zM180 174q-28 0 -42 -15t-15 -37q6 -62 55 -62
q52 0 52 58q0 56 -50 56z" />
    <glyph glyph-name="uni2087" unicode="&#x2087;" horiz-adv-x="316" 
d="M23 364h273l10 -35l-137 -330h-83l128 302h-117v-61h-74v124z" />
    <glyph glyph-name="uni2088" unicode="&#x2088;" horiz-adv-x="351" 
d="M171 -6q-61 0 -100.5 24.5t-39.5 71.5q0 38 23.5 57t54.5 32q-29 15 -49.5 36t-20.5 55q0 45 37.5 72.5t99.5 27.5q59 0 95.5 -25t36.5 -66q0 -31 -20 -48.5t-48 -30.5q32 -16 57 -39t25 -63q0 -51 -43 -77.5t-108 -26.5zM130 277q0 -19 19 -31t45 -24q12 8 20.5 18.5
t8.5 26.5q0 25 -15.5 34t-31.5 9q-46 0 -46 -33zM175 54q55 0 55 38q0 24 -23.5 38.5t-54.5 28.5q-15 -10 -25.5 -22t-10.5 -31q0 -52 59 -52z" />
    <glyph glyph-name="uni2089" unicode="&#x2089;" horiz-adv-x="348" 
d="M153 58q37 0 53.5 23.5t18.5 89.5q-11 -17 -31 -29.5t-54 -12.5q-61 0 -84.5 36.5t-23.5 76.5q0 56 38 92t102 36q76 0 110.5 -50.5t34.5 -131.5q0 -85 -37 -139.5t-119 -54.5q-72 0 -119 48l46 48q16 -20 34 -26t31 -6zM168 190q53 0 56 48q-6 66 -54 66q-52 0 -52 -58
q0 -56 50 -56z" />
    <glyph glyph-name="uni208A" unicode="&#x208a;" horiz-adv-x="281" 
d="M25 156v53h89v87h57v-87h86v-53h-86v-86h-57v86h-89z" />
    <glyph glyph-name="uni208B" unicode="&#x208b;" horiz-adv-x="314" 
d="M41 156v53h232v-53h-232z" />
    <glyph glyph-name="uni208C" unicode="&#x208c;" horiz-adv-x="373" 
d="M41 220v53h290v-53h-290zM41 91v53h290v-53h-290z" />
    <glyph glyph-name="uni208D" unicode="&#x208d;" horiz-adv-x="222" 
d="M132 416h72q-102 -122 -102 -259q0 -143 102 -263h-73q-52 64 -75 130t-23 133t24 132t75 127z" />
    <glyph glyph-name="uni208E" unicode="&#x208e;" horiz-adv-x="224" 
d="M91 -107h-72q103 123 103 260q0 143 -103 262h73q51 -64 74.5 -130t23.5 -132q0 -139 -99 -260z" />
    <glyph glyph-name="uni2090" unicode="&#x2090;" horiz-adv-x="356" 
d="M165 245q-23 0 -47 -11l-12 -47l-65 7l12 73q55 31 122 31q127 0 127 -99v-129q0 -25 20 -25q8 0 14 3l1 -42q-26 -13 -54 -13q-58 0 -65 58q-14 -23 -37.5 -40.5t-60.5 -17.5q-32 0 -64 19t-32 65q0 54 46 71.5t98 17.5q13 0 26 -1t24 -2v15q0 26 -8 46.5t-45 20.5z
M154 49q24 0 43 16.5t21 51.5v8q-10 1 -22 2.5t-23 1.5q-23 0 -41 -8.5t-18 -34.5q0 -37 40 -37z" />
    <glyph glyph-name="uni2091" unicode="&#x2091;" horiz-adv-x="341" 
d="M185 57q35 0 47.5 15t15.5 31l70 -13q-3 -38 -39.5 -67.5t-100.5 -29.5q-67 0 -110.5 37.5t-43.5 110.5q0 67 39.5 112t110.5 45q74 0 113.5 -48.5t22.5 -119.5h-196q6 -73 71 -73zM174 240q-51 0 -59 -64h113q4 24 -9 44t-45 20z" />
    <glyph glyph-name="uni2092" unicode="&#x2092;" horiz-adv-x="368" 
d="M24 142q0 64 40 110t121 46t121 -45t40 -107q0 -69 -47 -111t-119 -42q-70 0 -113 40t-43 109zM114 147q0 -39 17 -64t52 -25q72 0 72 90q0 44 -20 65t-51 21q-70 0 -70 -87z" />
    <glyph glyph-name="uni2093" unicode="&#x2093;" horiz-adv-x="378" 
d="M208 58h28l-51 53l-49 -53h25v-58h-141v58h39l88 86l-93 89h-30v59h152v-59h-26l46 -49l48 49h-24v59h130v-59h-30l-84 -81l95 -94h28v-58h-151v58z" />
    <glyph glyph-name="uni2095" unicode="&#x2095;" horiz-adv-x="408" 
d="M223 58h41v108q0 73 -54 73q-64 0 -64 -72v-109h40v-58h-165v58h40v331h-40v58h125v-200q30 51 96 51q44 0 75.5 -25t31.5 -78v-137h41v-58h-167v58z" />
    <glyph glyph-name="uni2096" unicode="&#x2096;" horiz-adv-x="385" 
d="M216 58h32l-59 65h-43v-65h28v-58h-153v58h40v331h-43v58h128v-269h49l45 55h-36v59h152v-59h-38l-63 -74h1l87 -101h26v-58h-153v58z" />
    <glyph glyph-name="uni2097" unicode="&#x2097;" horiz-adv-x="207" 
d="M21 58h40v331h-43v58h128v-389h40v-58h-165v58z" />
    <glyph glyph-name="uni2098" unicode="&#x2098;" horiz-adv-x="605" 
d="M421 58h42v108q0 73 -53 73q-31 0 -45 -19.5t-15 -46.5v-115h41v-58h-165v58h40v108q0 73 -52 73q-32 0 -46 -20.5t-14 -51.5v-109h38v-58h-163v58h41v175h-44v59h128v-45q29 51 92 51q32 0 59.5 -15.5t38.5 -48.5q27 64 99 64q41 0 72.5 -25t31.5 -78v-137h41v-58h-167
v58z" />
    <glyph glyph-name="uni2099" unicode="&#x2099;" horiz-adv-x="416" 
d="M232 58h41v108q0 73 -53 73q-63 0 -66 -66v-115h40v-58h-165v58h41v175h-44v59h128v-45q30 51 97 51q43 0 74.5 -25t31.5 -78v-137h41v-58h-166v58z" />
    <glyph glyph-name="uni209A" unicode="&#x209a;" horiz-adv-x="402" 
d="M21 -80h41v313h-44v59h128v-55q13 25 37.5 43t64.5 18q57 0 93 -38t36 -106q0 -64 -34.5 -112.5t-103.5 -48.5q-65 0 -93 44v-117h55v-58h-180v58zM216 57q31 0 51 22t20 68q0 43 -18.5 65.5t-47.5 22.5q-33 0 -53 -25t-22 -57v-28q5 -68 70 -68z" />
    <glyph glyph-name="uni209B" unicode="&#x209b;" horiz-adv-x="325" 
d="M163 52q19 0 35 7.5t16 24.5q0 22 -27.5 29t-63.5 12.5t-63.5 22.5t-27.5 59q0 53 43.5 72t86.5 19q27 0 57.5 -6t58.5 -22l9 -64l-65 -7l-8 33q-17 7 -46 7q-45 0 -45 -27q0 -22 26.5 -29t61.5 -12.5t61.5 -22.5t26.5 -60q0 -47 -35.5 -71t-94.5 -24q-86 0 -142 36
l13 73l65 -7l-3 -31q8 -4 26 -8t35 -4z" />
    <glyph glyph-name="uni209C" unicode="&#x209c;" horiz-adv-x="293" 
d="M16 292h43v90h84v-90h109v-59h-109v-133q0 -42 37 -42q9 0 22.5 7.5t18.5 40.5l61 -18q-12 -95 -111 -95q-50 0 -81 24.5t-31 69.5v146h-43v59z" />
    <glyph glyph-name="uni20A1" unicode="&#x20a1;" horiz-adv-x="687" 
d="M575 689h76l-213 -594q38 8 60 21l16 97l91 -9l-15 -142q-28 -26 -80 -44t-108 -24l-23 -65h-76l22 62q-28 2 -51 7l-24 -69h-76l33 92q-77 37 -123 114.5t-46 185.5q0 145 85 242t224 97q23 0 44 -3.5t40 -8.5l15 41h76l-26 -73q22 -18 39 -39zM360 562
q-92 0 -148 -62.5t-56 -175.5q0 -75 23 -125t64 -77l156 436q-9 2 -19 3t-20 1zM465 529l-156 -435q12 -2 24.5 -4t26.5 -2l140 391q-11 29 -35 50z" />
    <glyph glyph-name="uni20A2" unicode="&#x20a2;" horiz-adv-x="663" 
d="M592 62q-35 -33 -99.5 -52.5t-133.5 -19.5q-141 0 -232.5 91.5t-91.5 235.5q0 81 34 160t105.5 131t184.5 52q83 0 140 -23t92 -54l17 -141l-91 -9l-16 90q-60 39 -144 39q-92 0 -147.5 -64t-55.5 -175q0 -91 36.5 -147.5t100.5 -76.5v194h-70v82h169v-77q10 35 34 59
t62 24q17 0 36 -4.5t37 -16.5l12 -112l-69 -8l-12 51q-18 8 -32 8q-26 0 -43 -19.5t-17 -50.5v-140q61 5 101 27l16 97l91 -9z" />
    <glyph glyph-name="uni20A3" unicode="&#x20a3;" horiz-adv-x="793" 
d="M226 555v-171h318v-84q12 38 38 64t70 26q20 0 41.5 -5t42.5 -19l19 -140l-82 -10l-18 77q-18 9 -35 9q-28 0 -48 -23t-20 -63v-134h89v-82h-263v82h67v208h-219v-195h103v-95h-288v95h74v460h-74v95h482l20 -195l-95 -9l-20 109h-202z" />
    <glyph glyph-name="uni20A4" unicode="&#x20a4;" horiz-adv-x="577" 
d="M542 104q-11 -26 -54 -65t-114 -39h-332v92q40 22 55 53.5t19 71.5h-72v67h74v63h-74v67h74v3q0 125 61 184t148 59q43 0 92 -12t82 -42l16 -141l-90 -9l-16 87q-19 11 -40.5 15t-42.5 4q-46 0 -73 -31.5t-27 -112.5v-4h199v-67h-199v-63h199v-67h-201
q-4 -34 -18.5 -66.5t-51.5 -55.5h196q53 0 84.5 18.5t53.5 47.5z" />
    <glyph glyph-name="uni20A5" unicode="&#x20a5;" horiz-adv-x="908" 
d="M881 0h-198v82h25v176q0 64 -23 90.5t-63 26.5q-25 0 -49 -12l-54 -124v-157h67v-82h-172l-57 -130h-75l130 296v92q0 64 -22.5 90.5t-62.5 26.5q-53 0 -77.5 -35.5t-25.5 -81.5v-176h84v-82h-258v82h67v284h-66v83h173v-74q21 37 56.5 60t84.5 23q45 0 82.5 -20.5
t56.5 -62.5l83 190h75l-50 -114q26 7 50 7q62 0 107.5 -39t45.5 -122v-215h66v-82z" />
    <glyph glyph-name="uni20A6" unicode="&#x20a6;" horiz-adv-x="777" 
d="M736 555h-75v-130h74v-67h-74v-60h74v-66h-74v-232l-64 -1l-186 233h-178v-137h95v-95h-271v95h72v137h-81v66h81v60h-81v67h81v130h-82v95h163l179 -225h168v130h-95v95h274v-95zM233 450v-25h24l-20 25h-4zM233 358v-60h125l-48 60h-77zM443 358l48 -60h66v60h-114z
M553 220h4v12h-14z" />
    <glyph glyph-name="uni20A7" unicode="&#x20a7;" horiz-adv-x="1389" 
d="M568 443q0 -107 -68.5 -161.5t-164.5 -54.5h-110v-132h104v-95h-290v95h75v460h-75v95h290q121 0 180 -58t59 -149zM958 132q-19 -142 -158 -142q-72 0 -114.5 38t-42.5 106v236h-66v79h66v139h107v-139h167v-79h-167v-219q0 -71 62 -71q17 0 38.5 12.5t28.5 64.5z
M449 441q0 54 -30.5 84t-102.5 30h-91v-234h91q70 0 101.5 32.5t31.5 87.5zM1354 134q0 -70 -57.5 -107t-146.5 -37q-48 0 -96.5 11t-87.5 33l16 116l84 -8l-1 -58q19 -8 41 -11t38 -3q40 0 71 14.5t31 43.5q0 28 -27.5 40t-68.5 18.5t-82 18t-68.5 38t-27.5 79.5
q0 78 59.5 107t125.5 29q87 0 164 -41l11 -111l-84 -10l-9 67q-39 15 -79 15q-32 0 -53 -12.5t-21 -39.5q0 -28 27 -39t67 -17.5t80 -18t67 -38t27 -79.5z" />
    <glyph glyph-name="uni20A8" unicode="&#x20a8;" horiz-adv-x="983" 
d="M756 375q-28 0 -50.5 -10.5t-22.5 -38.5q0 -36 40.5 -47t93 -19.5t93 -33.5t40.5 -88q0 -65 -54.5 -106.5t-169.5 -41.5q-112 0 -208.5 48t-147.5 148l-37 71h-107v-162h77v-95h-262v95h74v460h-74v95h289q120 0 180.5 -50.5t60.5 -137.5q0 -69 -35.5 -115.5t-94.5 -66.5
l36 -66q41 -79 119 -110.5t142 -31.5q46 0 75.5 13.5t29.5 43.5q0 29 -28 41t-68.5 18.5t-81.5 17t-69 36.5t-28 79q0 79 60 108t125 29q87 0 164 -41l11 -111l-84 -10l-9 62q-43 17 -79 17zM311 346q79 0 110 28.5t31 80.5q0 55 -32 77.5t-109 22.5h-85v-209h85z" />
    <glyph glyph-name="uni20A9" unicode="&#x20a9;" horiz-adv-x="1017" 
d="M987 555h-53l-27 -83h59v-75h-83l-19 -60h102v-74h-125l-84 -263h-82l-92 263h-138l-88 -263h-83l-89 263h-132v74h107l-21 60h-86v75h61l-28 83h-56v95h247v-95h-72l25 -83h192l29 83h-57v95h246v-95h-53l28 -83h185l23 83h-80v95h244v-95zM252 397l18 -60h105l21 60
h-144zM641 397l20 -60h103l16 60h-139zM490 397l-20 -60h88l-21 60h-47zM716 178h5l23 85h-57zM317 183h5l27 80h-56z" />
    <glyph glyph-name="uni20AA" unicode="&#x20aa;" horiz-adv-x="794" 
d="M78 0v650h238q98 0 149.5 -23.5t70 -81.5t18.5 -161v-140h-110v146q0 76 -8 112t-35 46.5t-86 10.5h-127v-559h-110zM370 91h145q83 0 97 47.5t14 137.5v374h110v-369q0 -103 -14.5 -164.5t-62 -89t-145.5 -27.5h-253v406h109v-315z" />
    <glyph glyph-name="uni20AB" unicode="&#x20ab;" horiz-adv-x="550" 
d="M202 636h152v52h98v-52h54v-65h-54v-363h60v-66h-158v72q-18 -33 -52 -56.5t-92 -23.5q-80 0 -127.5 49t-47.5 137q0 80 44.5 138t138.5 58q97 0 136 -65v120h-152v65zM247 444q-106 0 -106 -119q0 -61 28.5 -90t71.5 -29q51 0 81 34.5t32 75.5v33q-2 44 -31 69.5
t-76 25.5zM68 74h409v-74h-409v74z" />
    <glyph glyph-name="uni20AC" unicode="&#x20ac;" horiz-adv-x="596" 
d="M33 284v64h65q22 80 83 130.5t157 50.5q62 0 111 -17.5t75 -40.5l15 -121l-90 -8l-15 81q-18 13 -40 17.5t-45 4.5q-103 0 -136 -97h154v-64h-165q-1 -8 -1 -25v-16.5t1 -15.5h140v-64h-126q32 -87 137 -87q51 0 83 22l15 84l89 -7l-12 -123q-28 -26 -81 -43t-112 -17
q-91 0 -152 46t-84 125h-66v64h54q-1 7 -1 15v15q0 18 1 27h-54z" />
    <glyph glyph-name="uni20AD" unicode="&#x20ad;" horiz-adv-x="690" 
d="M63 284v91h56v180h-75v95h251v-95h-65v-180h91l135 180h-64v95h254v-95h-73l-140 -180h135v-91h-121l141 -189h70v-95h-265v95h67l-140 189h-90v-189h62v-95h-248v95h75v189h-56z" />
    <glyph glyph-name="uni20AE" unicode="&#x20ae;" horiz-adv-x="652" 
d="M625 438l-96 -8l-20 125h-127v-138l110 32v-77l-110 -32v-45l110 32v-77l-110 -32v-123h109v-95h-325v95h105v90l-104 -30v77l104 30v46l-104 -30v76l104 30v171h-128l-20 -125l-95 8l20 212h557z" />
    <glyph glyph-name="uni20B1" unicode="&#x20b1;" horiz-adv-x="662" 
d="M55 456v59h70v40h-75v95h290q95 0 151.5 -37t76.5 -98h64v-59h-53v-13q0 -7 -0.5 -12.5t-0.5 -11.5h54v-60h-68q-25 -66 -84 -99t-134 -33h-110v-132h104v-95h-290v95h75v264h-70v60h70v37h-70zM236 555v-40h203q-32 40 -112 40h-91zM460 441q0 10 -1 15h-223v-37h223
q1 7 1 22zM327 321q74 0 107 38h-198v-38h91z" />
    <glyph glyph-name="uni20B4" unicode="&#x20b4;" horiz-adv-x="603" 
d="M32 361v49h341q38 27 38 72q0 44 -30.5 62t-79.5 18q-23 0 -50.5 -4t-62.5 -17l-15 -91l-86 9l17 159q43 16 101 29t116 13q80 0 144.5 -36t64.5 -131q0 -49 -21 -83h59v-49h-110q-28 -17 -63.5 -28.5t-71.5 -22.5h245v-48h-348q-36 -31 -36 -82q0 -92 125 -92
q75 0 119 28l16 90l91 -9l-14 -135q-35 -33 -94 -52.5t-125 -19.5q-93 0 -165 43.5t-72 137.5q0 54 23 91h-56v48h105q25 17 56 28.5t62 22.5h-223z" />
    <glyph glyph-name="uni20B9" unicode="&#x20b9;" horiz-adv-x="537" 
d="M48 280h164q51 0 76.5 13t32.5 39h-273v62h274q-14 45 -108 45h-166v82h444v-82h-68q12 -25 15 -45h44v-62h-46q-18 -76 -103 -107l80 -143h64v-82h-136l-112 204h-182v76z" />
    <glyph glyph-name="uni20BA" unicode="&#x20ba;" horiz-adv-x="603" 
d="M54 240l76 32v54l-76 -32v68l76 33v160h-74v95h272v-95h-86v-112l177 77v-69l-177 -77v-54l177 77v-69l-177 -76v-157h36q93 0 141 56t48 183h109q0 -154 -72 -244t-225 -90h-223v95h74v109l-76 -32v68z" />
    <glyph glyph-name="uni20BD" unicode="&#x20bd;" horiz-adv-x="611" 
d="M54 95h75v47h-75v63h75v46h-75v94h75v210h-75v95h290q121 0 180 -52.5t59 -143.5q0 -107 -68.5 -155t-164.5 -48h-110v-46h244v-63h-244v-47h104v-95h-290v95zM331 345q71 0 102 24.5t31 79.5q0 53 -30.5 79.5t-102.5 26.5h-91v-210h91z" />
    <glyph glyph-name="uni2113" unicode="&#x2113;" horiz-adv-x="442" 
d="M62 187l-30 59q20 10 38 19.5t35 19.5v181q0 75 40.5 134.5t135.5 59.5q78 0 111 -40t33 -90q0 -74 -60 -138t-153 -122v-97q0 -55 17.5 -75t44.5 -20q42 0 89 30l15 -78q-48 -40 -122 -40q-70 0 -110.5 39.5t-40.5 123.5v56zM212 449v-97q111 80 111 158q0 60 -52 60
q-40 0 -49.5 -33.5t-9.5 -87.5z" />
    <glyph glyph-name="uni2116" unicode="&#x2116;" horiz-adv-x="1008" 
d="M644 372q0 64 40 110t121 46t121 -45t40 -107q0 -69 -47 -111t-119 -42q-70 0 -113 40t-43 109zM390 521h238v-82h-59v-439l-61 -1l-295 349h-4v-266h77v-82h-236v82h59v357h-68v82h145l279 -330h4v248h-79v82zM734 377q0 -39 17 -64t52 -25q72 0 72 90q0 44 -20 65
t-51 21q-70 0 -70 -87zM645 121v71h321v-71h-321z" />
    <glyph glyph-name="uni2117" unicode="&#x2117;" horiz-adv-x="607" 
d="M303 -7q-111 0 -189.5 77.5t-78.5 189.5t78 190.5t191 78.5q112 0 189.5 -78.5t77.5 -189.5q0 -113 -78.5 -190.5t-189.5 -77.5zM303 49q91 0 150 62t59 150q0 86 -56 148.5t-152 62.5t-152.5 -62.5t-56.5 -149.5q0 -88 57 -149.5t151 -61.5zM191 159h36v209h-36v48h146
q60 0 90.5 -28t30.5 -72q0 -52 -35 -78t-83 -26h-51v-53h50v-48h-148v48zM329 260q35 0 48.5 14.5t13.5 39.5q0 54 -61 54h-41v-108h40z" />
    <glyph glyph-name="uni2120" unicode="&#x2120;" horiz-adv-x="1001" 
d="M216 223q-44 0 -92.5 13t-73.5 33l13 103l62 -6l-3 -53q38 -19 84 -19q75 0 75 57q0 32 -25.5 45.5t-65.5 22.5q-43 9 -90 28t-47 87t49 96.5t105 28.5q42 0 82 -12.5t61 -32.5l5 -94l-64 -6l-6 56q-35 20 -73 20q-28 0 -46.5 -11t-18.5 -37q0 -28 22 -37t54 -17
q31 -8 66 -19t60.5 -37t25.5 -76q0 -67 -47 -100t-112 -33zM403 295h48v287h-54v68h127l155 -276h3l146 276h128v-68h-53v-287h47v-68h-174v68h40v182h-3l-116 -218h-38l-124 225h-3v-189h42v-68h-171v68z" />
    <glyph glyph-name="uni2122" unicode="&#x2122;" horiz-adv-x="1082" 
d="M1035 582h-53v-287h47v-68h-174v68h39v182h-3l-116 -218h-37l-125 225h-2v-189h42v-68h-171v68h47v287h-53v68h126l156 -276h3l146 276h128v-68zM464 503l-69 -5l-12 84h-83v-287h72v-68h-226v68h67v287h-84l-13 -84l-68 5l13 147h390z" />
    <glyph glyph-name="uni2126" unicode="&#x2126;" horiz-adv-x="698" 
d="M351 562q-103 0 -147.5 -54.5t-44.5 -143.5t37.5 -128t107.5 -42v-194h-265v90h174v40q-63 6 -118.5 68.5t-55.5 173.5q0 98 45.5 162t117 95t148.5 31t148 -31t116 -95t45 -164q0 -98 -46 -166t-125 -74v-40h171v-90h-255v194q77 -1 106 46t29 124q0 88 -42.5 143
t-145.5 55z" />
    <glyph glyph-name="uni212E" unicode="&#x212e;" horiz-adv-x="599" 
d="M572 235h-428q-4 0 -4 -3v-137q0 -9 6 -17q24 -29 65 -52t92 -23q56 0 104.5 23t80.5 61h24q-38 -43 -89.5 -71t-119.5 -28q-116 0 -191.5 74t-75.5 180t75.5 180t191.5 74t192.5 -74t76.5 -180v-7zM467 255v137q0 13 -5 18q-20 26 -64.5 48.5t-94.5 22.5t-94.5 -24.5
t-61.5 -49.5q-7 -11 -7 -19v-133q0 -4 4 -4h322q1 0 1 4z" />
    <glyph glyph-name="uni2153" unicode="&#x2153;" horiz-adv-x="769" 
d="M582 650l-191 -325l-181 -325h-75l198 337l174 313h75zM37 350h74v236h-74v64h159v-300h67v-64h-226v64zM529 249l-65 5l12 86q25 14 61 21.5t66 7.5q59 0 91.5 -26t32.5 -65q0 -58 -65 -83v-2q44 -9 61.5 -34.5t17.5 -56.5q0 -52 -43.5 -80.5t-109.5 -28.5
q-52 0 -87.5 24t-44.5 74l61 20q7 -23 22.5 -37.5t46.5 -14.5t47 15.5t16 38.5q0 49 -88 52v48q32 2 53.5 12.5t21.5 38.5q0 41 -49 41q-27 0 -48 -12z" />
    <glyph glyph-name="uni2154" unicode="&#x2154;" horiz-adv-x="824" 
d="M106 534l-65 6l13 90q54 30 130 30q73 0 103.5 -31t30.5 -67q0 -44 -34 -84t-77 -72.5t-69 -51.5h125l11 54l68 -8l-10 -110h-291l-8 59q41 33 85.5 68.5t75.5 70t31 64.5q0 44 -57 44q-30 0 -51 -13zM643 650l-191 -325l-181 -325h-75l198 337l174 313h75zM583 249
l-65 5l12 86q25 14 61 21.5t66 7.5q59 0 91.5 -26t32.5 -65q0 -58 -65 -83v-2q44 -9 61.5 -34.5t17.5 -56.5q0 -52 -43.5 -80.5t-109.5 -28.5q-52 0 -87.5 24t-44.5 74l61 20q7 -23 22.5 -37.5t46.5 -14.5t47 15.5t16 38.5q0 49 -88 52v48q32 2 53.5 12.5t21.5 38.5
q0 41 -49 41q-27 0 -48 -12z" />
    <glyph glyph-name="uni215B" unicode="&#x215b;" horiz-adv-x="750" 
d="M587 650l-191 -325l-181 -325h-75l198 337l174 313h75zM37 350h74v236h-74v64h159v-300h67v-64h-226v64zM570 -6q-62 0 -101 24.5t-39 71.5q0 38 23.5 57t54.5 32q-28 15 -49 36t-21 55q0 45 38 72.5t99 27.5q59 0 95.5 -25t36.5 -66q0 -31 -20 -48.5t-48 -30.5
q32 -16 57 -39t25 -63q0 -51 -43 -77.5t-108 -26.5zM529 277q0 -19 19 -31t45 -24q12 8 20.5 18.5t8.5 26.5q0 25 -15 34t-32 9q-46 0 -46 -33zM574 54q55 0 55 38q0 24 -23.5 38.5t-54.5 28.5q-15 -10 -25.5 -22t-10.5 -31q0 -52 59 -52z" />
    <glyph glyph-name="uni2190" unicode="&#x2190;" horiz-adv-x="765" 
d="M307 23l-271 211v33l270 215v-95l-91 -91h550v-90h-550l92 -88v-95z" />
    <glyph glyph-name="uni2191" unicode="&#x2191;" horiz-adv-x="529" 
d="M283 709l211 -271h-94l-89 92v-550h-90v550l-91 -91h-94l214 270h33z" />
    <glyph glyph-name="uni2192" unicode="&#x2192;" horiz-adv-x="765" 
d="M730 234l-271 -211v95l91 88h-550v90h550l-90 91v95l270 -215v-33z" />
    <glyph glyph-name="uni2193" unicode="&#x2193;" horiz-adv-x="529" 
d="M494 250l-212 -270h-33l-213 270h94l90 -91v550h91v-550l89 91h94z" />
    <glyph glyph-name="uni2196" unicode="&#x2196;" horiz-adv-x="630" 
d="M58 605l341 -42l-66 -67l-128 2l390 -389l-65 -63l-389 387v-127l-67 -67l-38 343z" />
    <glyph glyph-name="uni2197" unicode="&#x2197;" horiz-adv-x="630" 
d="M231 563l341 42l23 -23l-39 -343l-67 67v128l-389 -388l-64 63l389 389l-127 -2z" />
    <glyph glyph-name="uni2198" unicode="&#x2198;" horiz-adv-x="630" 
d="M572 46l-341 42l67 67l127 -3l-389 390l64 63l389 -388v128l67 67l39 -344z" />
    <glyph glyph-name="uni2199" unicode="&#x2199;" horiz-adv-x="630" 
d="M399 88l-341 -42l-22 22l38 344l67 -67v-128l389 388l65 -63l-390 -390l128 3z" />
    <glyph glyph-name="uni2202" unicode="&#x2202;" horiz-adv-x="460" 
d="M78 321q0 43 22 79l-85 85l41 41l84 -83q40 29 89 29t89 -29l84 83l41 -41l-85 -85q22 -36 22 -79q0 -45 -25 -83l88 -87l-41 -41l-88 86q-37 -26 -85 -26t-86 26l-87 -86l-41 41l87 87q-24 38 -24 83zM170 321q0 -29 17 -48t43 -19q24 0 41 19t17 48t-17 48t-41 19
q-25 0 -42.5 -19t-17.5 -48z" />
    <glyph glyph-name="uni2206" unicode="&#x2206;" horiz-adv-x="536" 
d="M22 0l252 661l240 -661h-492zM142 82h252l-123 355z" />
    <glyph glyph-name="uni220F" unicode="&#x220f;" horiz-adv-x="684" 
d="M38 95h75v460h-75v95h607v-95h-75v-460h75v-95h-260v95h75v460h-236v-460h74v-95h-260v95z" />
    <glyph glyph-name="uni2211" unicode="&#x2211;" horiz-adv-x="559" 
d="M31 -140v94l240 299l-240 302v95h494v-95h-365l224 -281v-34l-224 -286h365v-94h-494z" />
    <glyph glyph-name="uni2212" unicode="&#x2212;" horiz-adv-x="448" 
d="M50 244v74h347v-74h-347z" />
    <glyph glyph-name="uni221A" unicode="&#x221a;" horiz-adv-x="584" 
d="M253 0l-121 360h-118v81h184l100 -295l205 551h88l-265 -697h-73z" />
    <glyph glyph-name="uni221E" unicode="&#x221e;" horiz-adv-x="714" 
d="M516 79q-64 0 -99 36.5t-61 82.5q-25 -46 -59 -82.5t-98 -36.5q-77 0 -121 52t-44 122q0 76 47.5 127.5t120.5 51.5q64 0 97.5 -38.5t56.5 -86.5q28 48 65 86.5t101 38.5q74 0 115.5 -51t41.5 -124q0 -76 -44.5 -127t-118.5 -51zM498 158q40 0 65 26t25 73q0 37 -18.5 66
t-64.5 29q-47 0 -74 -30t-49 -71q20 -37 46 -65t70 -28zM208 158q42 0 69 28.5t50 67.5q-22 39 -47.5 68.5t-68.5 29.5t-65 -29.5t-22 -69.5q0 -42 22 -68.5t62 -26.5z" />
    <glyph glyph-name="uni222B" unicode="&#x222b;" horiz-adv-x="372" 
d="M4 -140v89h42q54 0 72 22t18 88v436q0 96 37.5 145t149.5 49h47v-90h-55q-50 0 -69 -20.5t-19 -86.5v-438q0 -96 -41.5 -145t-144.5 -49h-37z" />
    <glyph glyph-name="uni2248" unicode="&#x2248;" horiz-adv-x="605" 
d="M404 300q-44 0 -78 17t-66 34t-69 17q-21 0 -43 -11t-48 -52l-60 41q62 120 154 120q38 0 69 -17t63.5 -34t75.5 -17q29 0 50.5 14t47.5 58l67 -44q-29 -58 -69 -92t-94 -34zM404 93q-44 0 -78 17t-66 34t-69 17q-21 0 -43 -11.5t-48 -51.5l-60 41q62 120 154 120
q38 0 69 -17t63.5 -34t75.5 -17q29 0 50.5 14.5t47.5 58.5l67 -45q-29 -57 -69 -91.5t-94 -34.5z" />
    <glyph glyph-name="uni2260" unicode="&#x2260;" horiz-adv-x="550" 
d="M47 354v74h278l47 72h91l-46 -72h87v-74h-133l-93 -147h226v-75h-273l-45 -72h-99l46 72h-86v75h135l95 147h-230z" />
    <glyph glyph-name="uni2264" unicode="&#x2264;" horiz-adv-x="409" 
d="M356 96l-319 188v50l318 193v-94l-203 -120l204 -123v-94zM37 0v75h319v-75h-319z" />
    <glyph glyph-name="uni2265" unicode="&#x2265;" horiz-adv-x="409" 
d="M53 96v94l204 123l-203 120v94l318 -193v-50zM372 0h-319v75h319v-75z" />
    <glyph glyph-name="uni24CA" unicode="&#x24ca;" horiz-adv-x="607" 
d="M303 -7q-111 0 -189.5 77.5t-78.5 189.5t78 190.5t191 78.5q112 0 189.5 -78.5t77.5 -189.5q0 -113 -78.5 -190.5t-189.5 -77.5zM303 49q91 0 150 62t59 150q0 86 -56 148.5t-152 62.5t-152.5 -62.5t-56.5 -149.5q0 -88 57 -149.5t151 -61.5zM338 394h121v-46h-28v-118
q0 -48 -27 -88.5t-100 -40.5q-70 0 -97 37.5t-27 85.5v124h-28v46h124v-46h-37v-122q0 -34 14.5 -55.5t52.5 -21.5q70 0 70 81v118h-38v46z" />
    <glyph glyph-name="uni25B2" unicode="&#x25b2;" horiz-adv-x="650" 
d="M612 23h-574l287 458z" />
    <glyph glyph-name="uni25B6" unicode="&#x25b6;" horiz-adv-x="591" 
d="M94 -35v575l459 -288z" />
    <glyph glyph-name="uni25B8" unicode="&#x25b8;" horiz-adv-x="418" 
d="M381 234l-287 -287v575z" />
    <glyph glyph-name="uni25BA" unicode="&#x25ba;" horiz-adv-x="905" 
d="M864 234l-774 -287v575z" />
    <glyph glyph-name="uni25BC" unicode="&#x25bc;" horiz-adv-x="650" 
d="M38 480h574l-287 -458z" />
    <glyph glyph-name="uni25C0" unicode="&#x25c0;" horiz-adv-x="591" 
d="M497 -35l-459 287l459 288v-575z" />
    <glyph glyph-name="uni25C2" unicode="&#x25c2;" horiz-adv-x="418" 
d="M324 -53l-286 288l286 287v-575z" />
    <glyph glyph-name="uni25C4" unicode="&#x25c4;" horiz-adv-x="906" 
d="M814 -53l-774 286l774 289v-575z" />
    <glyph glyph-name="uni25CA" unicode="&#x25ca;" horiz-adv-x="584" 
d="M293 -11l-268 331l268 340l267 -340zM293 112l164 208l-164 208l-165 -208z" />
    <glyph glyph-name="uni2610" unicode="&#x2610;" horiz-adv-x="879" 
d="M101 0v651h677v-651h-677zM185 567v-484h510v484h-510z" />
    <glyph glyph-name="uni2611" unicode="&#x2611;" horiz-adv-x="879" 
d="M101 0v651h677v-651h-677zM185 567v-484h510v484h-510zM318 325l70 -124l175 343l98 -60l-272 -363l-157 124z" />
    <glyph glyph-name="uni261A" unicode="&#x261a;" horiz-adv-x="957" 
d="M875 394v-352h-154q-1 12 -2 24.5t-2 25.5q-103 -40 -150 -48t-75 -8q-34 0 -74 5l-40 5q-9 -2 -25 -2h-31q-28 0 -48.5 8.5t-20.5 37.5q0 16 15 31q-22 17 -22 40q0 17 11 28q-21 18 -21 40q0 11 6 21l-132 1q-34 0 -46.5 16.5t-12.5 34.5q0 21 13.5 36.5t45.5 15.5h168
q-2 4 -1.5 19t12.5 32q48 5 78 19.5t62 14.5q80 0 148.5 -26t138.5 -66q1 11 2.5 23t2.5 24h154z" />
    <glyph glyph-name="uni261B" unicode="&#x261b;" horiz-adv-x="957" 
d="M82 42v352h154l4 -47q70 40 138.5 66t149.5 26q32 0 62 -14.5t78 -19.5q12 -17 12 -32t-1 -19h168q31 0 45 -15.5t14 -36.5q0 -18 -12.5 -34.5t-46.5 -16.5l-132 -1q6 -10 6 -21q0 -22 -21 -40q11 -11 11 -28q0 -23 -22 -40q15 -15 15 -31q0 -29 -20 -37.5t-49 -8.5h-31
t-25 2l-40 -5t-74 -5q-29 0 -75.5 8t-149.5 48l-4 -50h-154z" />
    <glyph glyph-name="uni261C" unicode="&#x261c;" horiz-adv-x="927" 
d="M844 394v-352h-154q-2 12 -2.5 24.5t-1.5 25.5q-103 -40 -149.5 -48t-75.5 -8q-34 0 -74 5l-40 5q-9 -2 -25 -2h-31q-29 0 -49 8.5t-20 37.5q0 16 15 31q-22 17 -22 40q0 17 11 28q-21 18 -21 40q0 11 6 21l-102 1q-34 0 -46.5 16.5t-12.5 34.5q0 21 14 36.5t45 15.5h148
q-3 9 -3 19q0 14 7 30l7 16q38 15 74.5 21.5t71.5 6.5q80 0 149 -30.5t123 -65.5q1 11 1.5 22t2.5 21h154zM684 131q-3 51 -3 104q0 19 0.5 37.5t1.5 37.5q-62 36 -134.5 70.5t-145.5 34.5q-29 0 -58 -6.5t-57 -22.5l-0.5 -4.5t-0.5 -8.5q0 -9 19 -9q33 9 56 12t38 3
q23 0 33 -4.5t15 -7.5q16 -36 26.5 -57.5t36.5 -47.5q0 -18 -15 -31q-18 17 -39 40t-33 47h-318q-23 0 -23 -16q0 -15 23 -15l298 -2q27 -27 27 -55q0 -12 -3 -20t-7 -14l5 -12.5t5 -23.5q0 -21 -17 -41l2 -8.5t2 -14.5q0 -13 -4 -22l6 -1t41 -1q25 0 72.5 9t150.5 50z
M391 248h-148l-3 -7t-3 -12q0 -1 1.5 -9.5t4.5 -8.5l152 -4q0 5 -0.5 21t-3.5 20zM393 180h-140l-3.5 -7t-3.5 -12q0 -14 7 -18l142 -4v17q0 5 -0.5 14t-1.5 10zM379 112h-118l-3 -9t-3 -11q0 -15 36 -15h15t16 1q9 0 17.5 0.5t15.5 0.5h23q2 4 2 16v8t-1 9z" />
    <glyph glyph-name="uni261D" unicode="&#x261d;" horiz-adv-x="535" 
d="M72 -98v154l50 4q-40 103 -48 149.5t-8 75.5q0 34 5 74l5 40q-2 9 -2 25v31q0 29 8.5 49t37.5 20q16 0 31 -15q17 22 40 22q17 0 28 -11q18 21 40 21q11 0 21 -6l1 102q0 34 16.5 46.5t34.5 12.5q21 0 36.5 -14t15.5 -45v-148q9 3 19 3q14 0 30 -7l16 -7
q15 -38 21.5 -74.5t6.5 -71.5q0 -80 -30.5 -149.5t-65.5 -122.5l43 -4v-154h-352zM102 285q0 -26 9 -73t50 -150q22 1 44.5 1.5t44.5 0.5t45 -0.5t45 -1.5q36 62 70.5 135t34.5 146q0 29 -6.5 58t-22.5 57l-4.5 0.5t-8.5 0.5q-9 0 -9 -19q9 -33 12 -56t3 -38q0 -23 -4.5 -33
t-7.5 -15q-36 -16 -57.5 -26.5t-47.5 -36.5q-18 0 -31 15q17 18 40 39t47 33v318q0 23 -16 23q-15 0 -15 -23l-2 -298q-27 -27 -55 -27q-12 0 -20 3t-14 7l-12.5 -5t-23.5 -5q-21 0 -41 17l-8.5 -2t-14.5 -2q-13 0 -22 4l-1 -6t-1 -41zM278 355v148l-7 3t-12 3
q-1 0 -9.5 -1.5t-8.5 -4.5l-4 -152q5 0 21 0.5t20 3.5zM210 353v140l-7 3.5t-12 3.5q-14 0 -18 -7l-4 -142h17q5 0 14 0.5t10 1.5zM142 367v118l-9 3t-11 3q-15 0 -15 -36v-15t1 -16q0 -9 0.5 -17.5t0.5 -15.5v-23q4 -2 16 -2h8t9 1z" />
    <glyph glyph-name="uni261E" unicode="&#x261e;" horiz-adv-x="927" 
d="M83 42v352h154l4 -43q54 35 123 65.5t149 30.5q35 0 72 -6.5t74 -21.5l7 -16t7 -30q0 -10 -3 -19h148q32 0 45.5 -15.5t13.5 -36.5q0 -18 -12.5 -34.5t-46.5 -16.5l-102 -1q6 -10 6 -21q0 -22 -21 -40q11 -11 11 -28q0 -23 -22 -40q15 -15 15 -31q0 -29 -20.5 -37.5
t-48.5 -8.5h-31t-25 2l-40 -5t-74 -5q-29 0 -75.5 8t-149.5 48l-4 -50h-154zM524 415q-74 0 -146.5 -34.5t-134.5 -70.5q1 -22 1.5 -45t0.5 -45t-0.5 -44.5t-1.5 -44.5q102 -41 149.5 -50t73.5 -9q34 0 40.5 1l6.5 1q-4 9 -4 22q0 6 2 14.5l2 8.5q-17 20 -17 41q0 11 5 23.5
l5 12.5q-4 6 -7 14t-3 20q0 28 27 55l298 2q23 0 23 15q0 16 -23 16h-318q-12 -24 -33 -47t-39 -40q-15 13 -15 31q26 26 36.5 47.5t26.5 57.5q5 3 15 7.5t33 4.5q15 0 38 -3t56 -12q19 0 19 9q0 4 -0.5 8.5l-0.5 4.5q-28 16 -57 22.5t-58 6.5zM684 248h-148q-3 -4 -3.5 -20
t-0.5 -21l152 4q3 0 4.5 8.5t1.5 9.5q0 5 -3 12zM674 180h-140q-1 -1 -1.5 -10t-0.5 -14v-17l142 4q7 4 7 18q0 5 -3.5 12zM666 112h-118q-1 -2 -1 -9v-8q0 -12 2 -16h23q7 0 15.5 -0.5t17.5 -0.5q7 -1 15 -1h16q36 0 36 15q0 2 -3 11z" />
    <glyph glyph-name="uni261F" unicode="&#x261f;" horiz-adv-x="536" 
d="M72 696h352v-154q-10 -2 -21 -2.5t-22 -1.5q35 -54 65.5 -123t30.5 -149q0 -35 -6.5 -71.5t-21.5 -74.5l-16 -7t-30 -7q-10 0 -19 3v-148q0 -31 -15.5 -45t-36.5 -14q-18 0 -34.5 12.5t-16.5 46.5l-1 102q-10 -6 -21 -6q-22 0 -40 21q-11 -11 -28 -11q-23 0 -40 22
q-15 -15 -31 -15q-29 0 -37.5 20t-8.5 49v31t2 25l-5 40t-5 74q0 29 8 75.5t48 149.5q-13 1 -25.5 1.5t-24.5 2.5v154zM340 535q-19 -1 -37.5 -1.5t-37.5 -0.5q-53 0 -104 3q-41 -103 -50 -150.5t-9 -72.5q0 -35 1 -41l1 -6q9 4 22 4q6 0 14.5 -2l8.5 -2q20 17 41 17
q11 0 23.5 -5l12.5 -5q6 4 14 7t20 3q28 0 55 -27l2 -298q0 -23 15 -23q16 0 16 23v318q-24 12 -47 33t-40 39q13 15 31 15q26 -26 47.5 -36.5t57.5 -26.5q3 -5 7.5 -15t4.5 -33q0 -15 -3 -38t-12 -56q0 -19 9 -19q4 0 8.5 0.5l4.5 0.5q16 28 22.5 57t6.5 58
q0 73 -34.5 145.5t-70.5 134.5zM278 95v148q-4 3 -20 3.5t-21 0.5l4 -152q0 -3 8.5 -4.5t9.5 -1.5q5 0 12 3zM210 105v140q-1 1 -10 1.5t-14 0.5h-17l4 -142q4 -7 18 -7q5 0 12 3.5zM142 113v118q-2 1 -9 1h-8q-12 0 -16 -2v-23q0 -7 -0.5 -15.5t-0.5 -17.5q-1 -8 -1 -16
v-15q0 -36 15 -36q2 0 11 3z" />
    <glyph glyph-name="uni267E" unicode="&#x267e;" horiz-adv-x="607" 
d="M303 -7q-111 0 -189.5 77.5t-78.5 189.5t78 190.5t191 78.5q112 0 189.5 -78.5t77.5 -189.5q0 -113 -78.5 -190.5t-189.5 -77.5zM303 49q91 0 150 62t59 150q0 86 -56 148.5t-152 62.5t-152.5 -62.5t-56.5 -149.5q0 -88 57 -149.5t151 -61.5zM390 157q-35 0 -54.5 21
t-32.5 49q-13 -28 -31.5 -49t-52.5 -21q-41 0 -64.5 31t-23.5 76q0 47 25.5 78t63.5 31q34 0 52.5 -23t30.5 -52q15 29 35 52t54 23q40 0 62 -30.5t22 -76.5q0 -49 -23.5 -79t-62.5 -30zM385 323q-26 0 -41 -19t-26 -43q10 -23 24.5 -39t38.5 -16q48 0 48 60q0 23 -10 40
t-34 17zM223 206q23 0 37 17t26 40q-11 24 -25 42t-37 18q-47 0 -47 -60q0 -57 46 -57z" />
    <glyph glyph-name="uni2713" unicode="&#x2713;" horiz-adv-x="683" 
d="M200 348l81 -144l204 398l114 -70l-317 -421l-182 144z" />
    <glyph glyph-name="uni301A" unicode="&#x301a;" horiz-adv-x="468" 
d="M74 -235v1007h371v-74h-114v-859h114v-74h-371zM165 698v-859h75v859h-75z" />
    <glyph glyph-name="uni301B" unicode="&#x301b;" horiz-adv-x="468" 
d="M394 -235h-371v74h114v859h-114v74h371v-1007zM303 -161v859h-75v-859h75z" />
    <glyph glyph-name="uniF8FF" unicode="&#xf8ff;" horiz-adv-x="1241" 
d="M671 338h-11v39h-19v-39h-11v70h11v-20h20v-10h10v-40zM611 338h-21v9h-10v30h-10v11h10v10h11v-10h20v-11h-20v-29h20v-10zM371 338h-21v9h-10v30h-10v11h10v10h11v-10h20v-11h-20v-29h20v-10zM1001 387h-10v-10h-11v11h10v10h11v-11zM951 377h-11v10h-10v11h11v-10h10
v-11zM261 377h-11v10h-10v11h11v-10h10v-11zM311 387h-10v-10h-11v11h10v10h11v-11zM431 347h-10v-9h-10v-10h-10v-10h-11v11h10v18h-10v41h11v-40h19v40h11v-41zM491 347h-10v-9h-20v-20h-11v70h31v-10h10v-31zM551 347h-10v-9h-21v9h-10v31h10v10h21v-10h10v-31zM731 338
h-31v9h-10v31h10v10h21v-10h10v-21h-30v-9h30v-10zM791 318h-11v20h-20v9h-10v31h10v10h31v-70zM851 338h-31v9h-10v41h11v-40h19v40h11v-50zM911 338h-31v9h-10v31h10v10h21v-10h10v-21h-30v-9h30v-10zM211 377h-11v11h11v-11zM171 377h-11v11h11v-11zM1041 377h-11v11h11
v-11zM1081 377h-11v11h11v-11zM291 357h-10v-10h-11v10h-10v11h10v10h11v-10h10v-11zM201 357h-10v-10h-11v10h-10v11h10v10h11v-10h10v-11zM131 357h-10v-10h-11v10h-10v11h10v10h11v-10h10v-11zM981 357h-10v-10h-11v10h-10v11h10v10h11v-10h10v-11zM1141 357h-10v-10h-11
v10h-10v11h10v10h11v-10h10v-11zM1071 357h-10v-10h-11v10h-10v11h10v10h11v-10h10v-11zM480 348v29h-19v-29h19zM540 348v29h-19v-29h19zM720 368v9h-19v-9h19zM780 348v29h-19v-29h19zM900 368v9h-19v-9h19zM211 338h-11v10h11v-10zM1081 338h-11v10h11v-10zM171 338h-11
v10h11v-10zM1041 338h-11v10h11v-10zM261 338h-10v-10h-11v10h10v10h11v-10zM1001 328h-11v10h-10v10h11v-10h10v-10zM311 328h-11v10h-10v10h11v-10h10v-10zM951 338h-10v-10h-11v10h10v10h11v-10z" />
    <glyph glyph-name="CR" horiz-adv-x="202" 
 />
    <glyph glyph-name="uni0030.zero" horiz-adv-x="576" 
d="M539 256q0 -132 -68 -199t-186 -67q-119 0 -183.5 67t-64.5 197q0 122 64 199.5t188 77.5q129 0 189.5 -78.5t60.5 -196.5zM420 261q0 94 -34.5 133t-97.5 39q-64 0 -98 -40t-34 -132q0 -93 33.5 -133t97.5 -40q61 0 97 38t36 135zM330 210h-84v110h84v-110z" />
    <glyph glyph-name="uni0069.TRK" horiz-adv-x="292" 
d="M94 542v118h109v-118h-109zM273 0h-240v82h67v284h-71v83h177v-367h67v-82z" />
    <glyph glyph-name="uni00BF.cap" horiz-adv-x="468" 
d="M310 654v-127h-128v127h128zM342 196l86 -8l-16 -141q-47 -26 -97 -39t-92 -13q-84 0 -140.5 37.5t-56.5 103.5q0 51 30 82.5t68.5 52.5t68.5 40t30 46q0 33 -45 33v68q161 16 161 -89q0 -47 -29 -73.5t-67 -44.5t-67 -39.5t-29 -57.5q0 -62 89 -62q23 0 48.5 6t43.5 18z
" />
    <glyph glyph-name="uni003F.smcp" horiz-adv-x="407" 
d="M112 359l-76 5l14 122q40 22 82.5 32.5t79.5 10.5q74 0 122 -30.5t48 -85.5q0 -41 -24.5 -65t-57 -40t-57 -30.5t-24.5 -34.5q0 -25 35 -25v-58q-147 -16 -147 72q0 38 24 58.5t55 34.5t55 29.5t24 43.5q0 47 -71 47q-39 0 -69 -17zM134 0v112h117v-112h-117z" />
    <glyph glyph-name="uni00BF.smcp" horiz-adv-x="408" 
d="M273 524v-112h-117v112h117zM295 165l76 -5l-14 -122q-41 -22 -83 -32.5t-79 -10.5q-74 0 -122 30.5t-48 85.5q0 41 24.5 65t57 40t57 30.5t24.5 34.5q0 25 -35 25v58q147 16 147 -72q0 -38 -24 -58.5t-55 -34.5t-55 -29.5t-24 -43.5q0 -47 71 -47q39 0 69 17z" />
    <glyph glyph-name="uni00A1.cap" horiz-adv-x="254" 
d="M61 528v127h127v-127h-127zM190 3h-127l24 433h79z" />
    <glyph glyph-name="uni0021.smcp" horiz-adv-x="245" 
d="M183 521l-23 -343h-76l-23 343h122zM67 0v112h117v-112h-117z" />
    <glyph glyph-name="uni00A1.smcp" horiz-adv-x="245" 
d="M67 411v112h117v-112h-117zM183 2h-122l23 343h76z" />
    <glyph glyph-name="uni203D.smcp" horiz-adv-x="613" 
d="M313 380l-74 20l34 108q22 8 50 13t59 5q76 0 138.5 -32.5t62.5 -101.5q0 -50 -32 -76.5t-75.5 -45t-81.5 -40.5t-50 -61l-66 22q4 45 33 70t64.5 42t62.5 35t27 48q0 35 -34 46.5t-53 11.5q-20 0 -41 -7zM259 187l-67 -28l-170 304l110 47zM216 0v112h117v-112h-117z
" />
    <glyph glyph-name="uni002D.cap" horiz-adv-x="331" 
d="M48 384h236v-90h-236v90z" />
    <glyph glyph-name="uni2013.cap" horiz-adv-x="600" 
d="M49 380h502v-72h-502v72z" />
    <glyph glyph-name="uni2014.cap" horiz-adv-x="1045" 
d="M52 380h940v-72h-940v72z" />
    <glyph glyph-name="uni002F.smcp" horiz-adv-x="325" 
d="M298 520l-175 -520h-96l175 520h96z" />
    <glyph glyph-name="uni005C.smcp" horiz-adv-x="325" 
d="M27 520h96l175 -520h-96z" />
    <glyph glyph-name="uni0028.cap" horiz-adv-x="273" 
d="M175 688h96q-76 -94 -113 -184t-37 -188q0 -196 150 -369h-98q-72 85 -107.5 178t-35.5 186q0 98 37.5 193.5t107.5 183.5z" />
    <glyph glyph-name="uni0029.cap" horiz-adv-x="273" 
d="M98 -53h-96q76 95 113 184.5t37 187.5q0 196 -150 369h98q72 -86 107.5 -178.5t35.5 -185.5q0 -98 -37.5 -193.5t-107.5 -183.5z" />
    <glyph glyph-name="uni005B.cap" horiz-adv-x="298" 
d="M74 -84v817h205v-74h-114v-669h114v-74h-205z" />
    <glyph glyph-name="uni005D.cap" horiz-adv-x="298" 
d="M224 -84h-205v74h114v669h-114v74h205v-817z" />
    <glyph glyph-name="uni007B.cap" horiz-adv-x="299" 
d="M116 326q62 -8 87 -34.5t25 -55.5q0 -32 -20.5 -57t-41 -53.5t-20.5 -72.5q0 -64 63 -64h64v-73h-64q-84 0 -118.5 40.5t-34.5 93.5q0 52 20.5 84t41 56t20.5 52q0 38 -37.5 48.5t-60.5 10.5h-19v51h19q22 0 60 10t38 48q0 28 -20.5 51t-41 54t-20.5 83q0 58 36 96.5
t117 38.5h64v-74h-64q-63 0 -63 -64q0 -44 20.5 -71.5t41 -51.5t20.5 -56q0 -28 -25 -55t-87 -35z" />
    <glyph glyph-name="uni007D.cap" horiz-adv-x="300" 
d="M183 323q-62 8 -87 34.5t-25 55.5q0 32 20.5 56.5t41 53.5t20.5 73q0 64 -63 64h-64v73h64q84 0 118.5 -40.5t34.5 -93.5q0 -51 -20.5 -83.5t-41 -56.5t-20.5 -52q0 -38 37.5 -48.5t60.5 -10.5h19v-51h-19q-23 0 -60.5 -10.5t-37.5 -47.5q0 -27 20.5 -50.5t41 -54.5
t20.5 -83q0 -58 -36 -96.5t-117 -38.5h-64v74h64q63 0 63 64q0 44 -20.5 72t-41 51.5t-20.5 55.5q0 29 25 55.5t87 34.5z" />
    <glyph glyph-name="uni301A.cap" horiz-adv-x="464" 
d="M74 -85v818h371v-74h-114v-670h114v-74h-371zM165 659v-670h75v670h-75z" />
    <glyph glyph-name="uni301B.cap" horiz-adv-x="464" 
d="M390 -85h-371v74h114v670h-114v74h371v-818zM299 -11v670h-75v-670h75z" />
    <glyph glyph-name="uni00B6.smcp" horiz-adv-x="556" 
d="M203 521h317v-78h-55v-443h-96v443h-36v-443h-95v249h-40q-73 0 -123.5 31.5t-50.5 107.5q0 55 46 94t133 39z" />
    <glyph glyph-name="uni0023.pnum_lnum" horiz-adv-x="575" 
d="M512 652l-33 -168h65v-83h-81l-26 -138h77v-83h-93l-35 -180h-92l34 180h-146l-34 -180h-93l34 180h-57v83h73l27 138h-70v83h86l32 168h92l-32 -168h147l32 168h93zM198 263h146l27 138h-147z" />
    <glyph glyph-name="uni0025.pnum_lnum" horiz-adv-x="686" 
d="M182 344q-71 0 -112 43.5t-41 113.5q0 69 44 114t113 45q75 0 114 -44t39 -110q0 -70 -43.5 -116t-113.5 -46zM597 651l-208 -322l-194 -329h-112l233 354l171 297h110zM182 420q67 0 67 84q0 80 -63 80q-67 0 -67 -84q0 -80 63 -80zM501 -10q-71 0 -112.5 43t-41.5 113
q0 69 44.5 114.5t113.5 45.5q75 0 113.5 -44t38.5 -111q0 -69 -43 -115t-113 -46zM501 66q67 0 67 83q0 81 -63 81q-30 0 -49 -19.5t-19 -64.5q0 -80 64 -80z" />
    <glyph glyph-name="uni2030.pnum_lnum" horiz-adv-x="1011" 
d="M182 344q-71 0 -112 43.5t-41 113.5q0 69 44 114t113 45q75 0 114 -44t39 -110q0 -70 -43.5 -116t-113.5 -46zM597 651l-208 -322l-194 -329h-112l233 354l171 297h110zM182 420q67 0 67 84q0 80 -63 80q-67 0 -67 -84q0 -80 63 -80zM501 -10q-71 0 -112.5 43t-41.5 113
q0 69 44.5 114.5t113.5 45.5q75 0 113.5 -44t38.5 -111q0 -69 -43 -115t-113 -46zM828 -10q-72 0 -113 43t-41 113q0 69 44 114.5t113 45.5q75 0 114 -44t39 -111q0 -69 -43 -115t-113 -46zM501 66q67 0 67 83q0 81 -63 81q-30 0 -49 -19.5t-19 -64.5q0 -80 64 -80zM828 66
q66 0 66 83q0 81 -63 81q-29 0 -48 -19.5t-19 -64.5q0 -80 64 -80z" />
    <glyph glyph-name="uni00AA.smcp" horiz-adv-x="423" 
d="M256 455h27l-14 32h-117l-14 -32h30v-58h-136v58h33l91 185h-45v57h136l112 -242h35v-58h-138v58zM210 620l-40 -91h81l-39 91h-2z" />
    <glyph glyph-name="uni201C.smcp" horiz-adv-x="397" 
d="M199 549l-57 -228h-104l57 228h104zM370 549l-57 -228h-104l57 228h104z" />
    <glyph glyph-name="uni201D.smcp" horiz-adv-x="396" 
d="M36 322l57 228h104l-57 -228h-104zM208 322l57 228h104l-57 -228h-104z" />
    <glyph glyph-name="uni2018.smcp" horiz-adv-x="226" 
d="M199 549l-57 -228h-104l57 228h104z" />
    <glyph glyph-name="uni2019.smcp" horiz-adv-x="224" 
d="M36 322l57 228h104l-57 -228h-104z" />
    <glyph glyph-name="uni203A.cap" horiz-adv-x="297" 
d="M128 85h-90l122 246l-122 240h90l138 -240z" />
    <glyph glyph-name="uni2039.cap" horiz-adv-x="297" 
d="M258 85h-89l-138 246l138 240h89l-121 -240z" />
    <glyph glyph-name="uni00AB.cap" horiz-adv-x="464" 
d="M258 85h-89l-138 246l138 240h89l-121 -240zM426 85h-89l-138 246l138 240h89l-121 -240z" />
    <glyph glyph-name="uni00BB.cap" horiz-adv-x="464" 
d="M296 85h-90l122 246l-122 240h90l138 -240zM128 85h-90l122 246l-122 240h90l138 -240z" />
    <glyph glyph-name="uni00B7.smcp" horiz-adv-x="238" 
d="M52 195v140h132v-140h-132z" />
    <glyph glyph-name="uni0030.smcp_zero" horiz-adv-x="512" 
d="M35 255q0 67 19 130t67.5 103.5t136.5 40.5t136 -40.5t66 -102.5t18 -125q0 -113 -50.5 -191t-174.5 -78t-171 78t-47 185zM150 264q0 -77 19.5 -132t84.5 -55q63 0 86 52.5t23 134.5q0 76 -21.5 128.5t-86.5 52.5q-67 0 -86 -53.5t-19 -127.5zM296 310v-89h-80v89h80z
" />
    <glyph glyph-name="uni0030.smcp" horiz-adv-x="512" 
d="M35 255q0 67 19 130t67.5 103.5t136.5 40.5t136 -40.5t66 -102.5t18 -125q0 -113 -50.5 -191t-174.5 -78t-171 78t-47 185zM150 264q0 -77 19.5 -132t84.5 -55q63 0 86 52.5t23 134.5q0 76 -21.5 128.5t-86.5 52.5q-67 0 -86 -53.5t-19 -127.5z" />
    <glyph glyph-name="uni0031.smcp" horiz-adv-x="352" 
d="M33 82h104v357h-104v82h211v-439h96v-82h-307v82z" />
    <glyph glyph-name="uni0032.smcp" horiz-adv-x="476" 
d="M122 357l-86 8l18 127q35 16 82 27t96 11q100 0 143 -44.5t43 -97.5q0 -60 -44 -117t-103 -105.5t-106 -81.5h182l13 79l92 -8l-18 -155h-395l-9 77q67 53 129 105.5t101.5 101t39.5 90.5q0 72 -86 72q-16 0 -39 -4.5t-39 -13.5z" />
    <glyph glyph-name="uni0033.smcp" horiz-adv-x="460" 
d="M135 356l-84 8l17 126q32 16 78 28t90 12q64 0 117.5 -32t53.5 -98q0 -37 -21.5 -69t-74.5 -52v-3q116 -20 116 -131q0 -82 -64 -118t-139 -36q-81 0 -126.5 36.5t-53.5 92.5l90 29q6 -30 24.5 -53t67.5 -23q50 0 68 26t18 57q0 79 -132 83v64q45 3 78.5 18.5t33.5 60.5
q0 66 -75 66q-37 0 -67 -17z" />
    <glyph glyph-name="uni0034.smcp" horiz-adv-x="484" 
d="M375 0h-107v111h-243l-12 80l170 330h192v-330h83l-8 -80h-75v-111zM268 191v248h-32l-128 -248h160z" />
    <glyph glyph-name="uni0035.smcp" horiz-adv-x="448" 
d="M422 160q0 -81 -61.5 -124.5t-140.5 -43.5q-63 0 -116.5 31t-66.5 92l86 31q10 -28 29.5 -50.5t64.5 -22.5q47 0 68 25.5t21 59.5q0 57 -36.5 73.5t-90.5 16.5q-18 0 -38 -1t-39 -3l-35 30v247h326v-1l2 1l10 -148l-84 -7l-13 73h-142v-113q5 1 16.5 1h15.5
q89 0 156.5 -33t67.5 -134z" />
    <glyph glyph-name="uni0036.smcp" horiz-adv-x="465" 
d="M429 172q0 -78 -51 -129t-142 -51q-108 0 -154.5 72t-46.5 183q0 127 54.5 205t160.5 78q52 0 94 -19t68 -51l-46 -58q-45 47 -106 47q-54 0 -79 -38t-30 -129q0 -3 -0.5 -7t-0.5 -7q14 26 44 46t82 20q85 0 119 -51.5t34 -110.5zM319 167q0 41 -17.5 64.5t-60.5 23.5
q-47 0 -67 -25.5t-21 -58.5q5 -46 24 -70.5t62 -24.5q80 0 80 91z" />
    <glyph glyph-name="uni0037.smcp" horiz-adv-x="415" 
d="M23 521h374l13 -47l-195 -474h-105l185 440h-184v-88h-88v169z" />
    <glyph glyph-name="uni0038.smcp" horiz-adv-x="469" 
d="M229 -8q-85 0 -140 34t-55 102q0 54 34.5 82.5t79.5 47.5q-41 22 -71 52t-30 80q0 62 51.5 100.5t136.5 38.5q80 0 131.5 -35t51.5 -95q0 -46 -29 -71.5t-70 -43.5q46 -22 81.5 -55.5t35.5 -90.5q0 -71 -59 -108.5t-148 -37.5zM162 397q0 -29 29 -48.5t69 -37.5
q22 13 36.5 31t14.5 43q0 38 -24.5 52.5t-52.5 14.5q-72 0 -72 -55zM235 70q41 0 63.5 18t22.5 44q0 36 -35.5 58t-81.5 42q-26 -15 -44 -34t-18 -49q0 -35 23.5 -57t69.5 -22z" />
    <glyph glyph-name="uni0039.smcp" horiz-adv-x="465" 
d="M430 275q0 -125 -53.5 -204t-159.5 -79q-105 0 -161 69l46 59q42 -47 103 -47q54 0 79.5 39t29.5 134q1 2 1 8q-14 -26 -43.5 -46t-81.5 -20q-86 0 -120 51t-34 111q0 78 51 129t143 51q107 0 153.5 -72t46.5 -183zM313 349q-5 46 -24 71.5t-63 25.5q-80 0 -80 -91
q0 -41 17.5 -65t60.5 -24q45 0 66 25t23 58z" />
    <glyph glyph-name="uni0030.pnum_lnum_zero" horiz-adv-x="586" 
d="M37 318q0 85 22 163.5t78 128.5t159 50t158 -50.5t75.5 -127.5t20.5 -156q0 -142 -57.5 -239t-202.5 -97q-97 0 -152 44.5t-78 119t-23 164.5zM156 328q0 -99 25.5 -169.5t110.5 -70.5q82 0 110.5 68t28.5 175q0 95 -26.5 163t-112.5 68t-111 -69.5t-25 -164.5zM331 387
v-111h-82v111h82z" />
    <glyph glyph-name="uni0030.pnum_lnum" horiz-adv-x="586" 
d="M37 318q0 85 22 163.5t78 128.5t159 50t158 -50.5t75.5 -127.5t20.5 -156q0 -142 -57.5 -239t-202.5 -97q-97 0 -152 44.5t-78 119t-23 164.5zM156 328q0 -99 25.5 -169.5t110.5 -70.5q82 0 110.5 68t28.5 175q0 95 -26.5 163t-112.5 68t-111 -69.5t-25 -164.5z" />
    <glyph glyph-name="uni0031.pnum_lnum" horiz-adv-x="398" 
d="M34 95h125v460h-125v95h236v-555h117v-95h-353v95z" />
    <glyph glyph-name="uni0032.pnum_lnum" horiz-adv-x="539" 
d="M136 463l-89 10l19 139q37 20 87.5 34t110.5 14q86 0 148 -41t62 -126q0 -82 -52 -155t-123 -134.5t-129 -108.5h234l20 93l91 -9l-19 -179h-456l-10 87q70 61 144.5 128t126 133t51.5 126q0 41 -28 66t-77 25q-25 0 -51 -4.5t-44 -15.5z" />
    <glyph glyph-name="uni0033.pnum_lnum" 
d="M67 617q47 22 98 33t91 11q86 0 142.5 -40t56.5 -120q0 -49 -26.5 -88.5t-90.5 -63.5v-4q77 -15 109.5 -59t32.5 -103q0 -95 -68 -144.5t-168 -49.5q-102 0 -153.5 45.5t-56.5 119.5l89 28q5 -37 32 -67.5t88 -30.5q66 0 91.5 34.5t25.5 76.5q0 101 -166 107v74
q91 2 116.5 39.5t25.5 67.5q0 83 -97 83q-19 0 -45 -4.5t-44 -13.5l-16 -77l-86 9z" />
    <glyph glyph-name="uni0034.pnum_lnum" horiz-adv-x="553" 
d="M530 253l-9 -92h-91v-161h-111v161h-296l-12 92l212 398h207v-398h100zM319 253v303h-42l-159 -303h201z" />
    <glyph glyph-name="uni0035.pnum_lnum" horiz-adv-x="511" 
d="M485 198q0 -110 -67 -159.5t-168 -49.5t-153.5 45.5t-57.5 119.5l89 28q5 -38 33 -68t85 -30q63 0 91.5 33t28.5 80q0 75 -52.5 96.5t-120.5 21.5q-23 0 -45.5 -1.5t-44.5 -3.5l-36 35v306h385l15 -166l-93 -8l-16 79h-189v-151q11 1 21.5 1h20.5q71 0 133.5 -16.5
t101.5 -61.5t39 -130z" />
    <glyph glyph-name="uni0036.pnum_lnum" horiz-adv-x="534" 
d="M496 212q0 -96 -57.5 -159t-166.5 -63q-129 0 -182 90t-53 230q0 95 24.5 174.5t80.5 127.5t150 48q58 0 107 -20.5t84 -68.5l-64 -65q-46 59 -131 59q-72 0 -100 -53.5t-32 -165.5v-23q16 35 53 62.5t104 27.5q101 0 142 -62.5t41 -138.5zM382 207q0 54 -23.5 84.5
t-79.5 30.5q-61 0 -89 -34t-31 -75q7 -60 32 -92.5t83 -32.5t83 32t25 87z" />
    <glyph glyph-name="uni0037.pnum_lnum" horiz-adv-x="476" 
d="M472 596l-237 -596h-109l226 557h-232v-110h-97v204h435z" />
    <glyph glyph-name="uni0038.pnum_lnum" horiz-adv-x="539" 
d="M505 167q0 -83 -68.5 -130t-169.5 -47q-103 0 -167 43t-64 126q0 70 41.5 106t96.5 59q-50 27 -86.5 64.5t-36.5 99.5q0 76 60.5 124t157.5 48q94 0 154 -44t60 -118q0 -58 -37 -90.5t-86 -54.5q56 -29 100.5 -71t44.5 -115zM371 482q0 50 -30.5 68.5t-71.5 18.5
q-46 0 -73 -19.5t-27 -53.5q0 -40 38.5 -65.5t91.5 -48.5q33 19 52.5 42t19.5 58zM386 165q0 48 -47.5 76t-106.5 55q-36 -20 -60.5 -45.5t-24.5 -67.5q0 -47 32 -74.5t90 -27.5q53 0 85 23.5t32 60.5z" />
    <glyph glyph-name="uni0039.pnum_lnum" horiz-adv-x="534" 
d="M38 438q0 95 57.5 158.5t166.5 63.5q129 0 182 -90t53 -230q0 -95 -24.5 -174.5t-80.5 -127.5t-150 -48q-58 0 -107 20.5t-83 68.5l64 65q44 -60 130 -60q72 0 100 54t32 166v22q-16 -34 -53 -62t-104 -28q-101 0 -142 63t-41 139zM152 442q0 -53 23.5 -83.5t79.5 -30.5
q61 0 89 33.5t31 74.5q-7 61 -32 93.5t-83 32.5t-83 -32t-25 -88z" />
    <glyph glyph-name="uni0030.tnum_lnum_zero" horiz-adv-x="600" 
d="M44 318q0 85 22 163.5t78 128.5t158 50q104 0 158.5 -50.5t75 -127.5t20.5 -156q0 -142 -57 -239t-202 -97q-97 0 -152 44.5t-78 119t-23 164.5zM163 328q0 -99 25.5 -169.5t110.5 -70.5q82 0 110.5 68t28.5 175q0 95 -26.5 163t-112.5 68t-111 -69.5t-25 -164.5z
M341 387v-111h-83v111h83z" />
    <glyph glyph-name="uni0030.tnum_lnum" horiz-adv-x="600" 
d="M44 318q0 85 22 163.5t78 128.5t158 50q104 0 158.5 -50.5t75 -127.5t20.5 -156q0 -142 -57 -239t-202 -97q-97 0 -152 44.5t-78 119t-23 164.5zM163 328q0 -99 25.5 -169.5t110.5 -70.5q82 0 110.5 68t28.5 175q0 95 -26.5 163t-112.5 68t-111 -69.5t-25 -164.5z" />
    <glyph glyph-name="uni0031.tnum_lnum" horiz-adv-x="600" 
d="M135 95h125v460h-125v95h235v-555h117v-95h-352v95z" />
    <glyph glyph-name="uni0032.tnum_lnum" horiz-adv-x="600" 
d="M157 463l-89 10l20 139q36 20 86.5 34t110.5 14q85 0 147.5 -41t62.5 -126q0 -82 -52 -155t-122.5 -134.5t-128.5 -108.5h234l19 93l92 -9l-20 -179h-455l-10 87q70 61 144.5 128t126 133t51.5 126q0 41 -28 66t-78 25q-24 0 -50 -4.5t-44 -15.5z" />
    <glyph glyph-name="uni0033.tnum_lnum" horiz-adv-x="600" 
d="M104 617q46 22 97.5 33t91.5 11q85 0 142 -40t57 -120q0 -49 -26 -88.5t-91 -63.5v-4q77 -15 109.5 -59t32.5 -103q0 -95 -67.5 -144.5t-168.5 -49.5q-102 0 -153.5 45.5t-56.5 119.5l89 28q5 -37 32 -67.5t88 -30.5q66 0 91.5 34.5t25.5 76.5q0 101 -166 107v74
q91 2 116.5 39.5t25.5 67.5q0 83 -97 83q-19 0 -45 -4.5t-44 -13.5l-16 -77l-86 9z" />
    <glyph glyph-name="uni0034.tnum_lnum" horiz-adv-x="600" 
d="M452 0h-111v161h-296l-12 92l212 398h207v-398h101l-10 -92h-91v-161zM341 253v303h-42l-159 -303h201z" />
    <glyph glyph-name="uni0035.tnum_lnum" horiz-adv-x="600" 
d="M529 198q0 -110 -67 -159.5t-168 -49.5t-153.5 45.5t-57.5 119.5l89 28q5 -38 33 -68t85 -30q63 0 91.5 33t28.5 80q0 75 -52.5 96.5t-120.5 21.5q-23 0 -45.5 -1.5t-44.5 -3.5l-36 35v306h385l15 -166l-93 -8l-16 79h-189v-151q11 1 21.5 1h20.5q71 0 133.5 -16.5
t101.5 -61.5t39 -130z" />
    <glyph glyph-name="uni0036.tnum_lnum" horiz-adv-x="600" 
d="M529 212q0 -96 -57.5 -159t-166.5 -63q-129 0 -182 90t-53 230q0 95 24.5 174.5t80 127.5t150.5 48q58 0 107 -20.5t84 -68.5l-64 -65q-46 59 -131 59q-72 0 -100 -53.5t-32 -165.5v-23q17 35 53.5 62.5t103.5 27.5q100 0 141.5 -62.5t41.5 -138.5zM415 207
q0 54 -23.5 84.5t-79.5 30.5q-62 0 -89.5 -34t-30.5 -75q7 -60 32 -92.5t83 -32.5q59 0 83.5 32t24.5 87z" />
    <glyph glyph-name="uni0037.tnum_lnum" horiz-adv-x="600" 
d="M535 596l-237 -596h-109l226 557h-232v-110h-97v204h435z" />
    <glyph glyph-name="uni0038.tnum_lnum" horiz-adv-x="600" 
d="M535 167q0 -83 -68.5 -130t-169.5 -47q-103 0 -167 43t-64 126q0 70 41.5 106t96.5 59q-50 27 -86.5 64.5t-36.5 99.5q0 76 60.5 124t157.5 48q94 0 154 -44t60 -118q0 -58 -37 -90.5t-86 -54.5q56 -29 100.5 -71t44.5 -115zM401 482q0 50 -30.5 68.5t-71.5 18.5
q-46 0 -73 -19.5t-27 -53.5q0 -40 38.5 -65.5t91.5 -48.5q33 19 52.5 42t19.5 58zM416 165q0 48 -47.5 76t-106.5 55q-36 -20 -60.5 -45.5t-24.5 -67.5q0 -47 32 -74.5t90 -27.5q53 0 85 23.5t32 60.5z" />
    <glyph glyph-name="uni0039.tnum_lnum" horiz-adv-x="600" 
d="M71 438q0 96 57.5 159t166.5 63q129 0 182 -90t53 -230q0 -95 -24.5 -174.5t-80 -127.5t-150.5 -48q-58 0 -107 20.5t-84 68.5l64 65q46 -59 131 -59q72 0 100 53.5t32 165.5v23q-17 -35 -53.5 -62.5t-103.5 -27.5q-100 0 -141.5 62.5t-41.5 138.5zM185 443
q0 -54 23.5 -84.5t79.5 -30.5q62 0 89.5 34t30.5 75q-7 60 -32 92.5t-83 32.5q-59 0 -83.5 -32t-24.5 -87z" />
    <glyph glyph-name="uni0030.tnum_onum_zero" horiz-adv-x="600" 
d="M551 256q0 -132 -68 -199t-186 -67q-119 0 -183.5 67t-64.5 197q0 122 64 199.5t188 77.5q129 0 189.5 -78.5t60.5 -196.5zM432 261q0 94 -34.5 133t-97.5 39q-64 0 -98 -40t-34 -132q0 -93 33.5 -133t97.5 -40q61 0 97 38t36 135zM342 320v-111h-82v111h82z" />
    <glyph glyph-name="uni0030.tnum_onum" horiz-adv-x="600" 
d="M551 256q0 -132 -68 -199t-186 -67q-119 0 -183.5 67t-64.5 197q0 122 64 199.5t188 77.5q129 0 189.5 -78.5t60.5 -196.5zM432 261q0 94 -34.5 133t-97.5 39q-64 0 -98 -40t-34 -132q0 -93 33.5 -133t97.5 -40q61 0 97 38t36 135z" />
    <glyph glyph-name="uni0031.tnum_onum" horiz-adv-x="600" 
d="M480 0h-332v95h114v331h-114v95h225v-426h107v-95z" />
    <glyph glyph-name="uni0032.tnum_onum" horiz-adv-x="600" 
d="M109 490q49 22 100 31.5t90 9.5q111 0 156 -48t45 -105q0 -67 -47 -118t-114.5 -90.5t-130.5 -74.5h230l8 67l90 -8l-14 -154h-436l-10 87q128 83 216.5 145.5t88.5 129.5q0 38 -27.5 56t-71.5 18q-20 0 -46 -4t-45 -14l-16 -74l-86 9z" />
    <glyph glyph-name="uni0033.tnum_onum" horiz-adv-x="600" 
d="M105 487q47 22 98 33t91 11q86 0 142.5 -40t56.5 -120q0 -49 -26.5 -88.5t-90.5 -63.5v-4q77 -15 109.5 -59t32.5 -103q0 -95 -68 -144.5t-168 -49.5q-102 0 -153.5 45.5t-56.5 119.5l89 28q5 -37 32 -67.5t88 -30.5q66 0 91.5 34.5t25.5 76.5q0 101 -166 107v74
q91 2 116.5 39.5t25.5 67.5q0 83 -97 83q-19 0 -45 -4.5t-44 -13.5l-16 -77l-86 9z" />
    <glyph glyph-name="uni0034.tnum_onum" horiz-adv-x="600" 
d="M456 -130h-111v161h-296l-12 92l212 398h207v-398h101l-10 -92h-91v-161zM345 123v303h-42l-159 -303h201z" />
    <glyph glyph-name="uni0035.tnum_onum" horiz-adv-x="600" 
d="M528 68q0 -110 -67 -159.5t-168 -49.5t-153.5 45.5t-57.5 119.5l89 28q5 -38 33 -68t85 -30q63 0 91.5 33t28.5 80q0 75 -52.5 96.5t-120.5 21.5q-22 0 -45 -1.5t-45 -3.5l-36 35v306h385l15 -166l-93 -8l-16 79h-189v-151q10 1 21 1h21q70 0 133 -16.5t102 -61.5
t39 -130z" />
    <glyph glyph-name="uni0036.tnum_onum" horiz-adv-x="600" 
d="M529 212q0 -96 -57.5 -159t-166.5 -63q-129 0 -182 90t-53 230q0 95 24.5 174.5t80 127.5t150.5 48q58 0 107 -20.5t84 -68.5l-64 -65q-46 59 -131 59q-72 0 -100 -53.5t-32 -165.5v-23q17 35 53.5 62.5t103.5 27.5q100 0 141.5 -62.5t41.5 -138.5zM415 207
q0 54 -23.5 84.5t-79.5 30.5q-62 0 -89.5 -34t-30.5 -75q7 -60 32 -92.5t83 -32.5q59 0 83.5 32t24.5 87z" />
    <glyph glyph-name="uni0037.tnum_onum" horiz-adv-x="600" 
d="M533 466l-237 -596h-109l226 557h-232v-110h-97v204h435z" />
    <glyph glyph-name="uni0038.tnum_onum" horiz-adv-x="600" 
d="M535 167q0 -83 -68.5 -130t-169.5 -47q-103 0 -167 43t-64 126q0 70 41.5 106t96.5 59q-50 27 -86.5 64.5t-36.5 99.5q0 76 60.5 124t157.5 48q94 0 154 -44t60 -118q0 -58 -37 -90.5t-86 -54.5q56 -29 100.5 -71t44.5 -115zM401 482q0 50 -30.5 68.5t-71.5 18.5
q-46 0 -73 -19.5t-27 -53.5q0 -40 38.5 -65.5t91.5 -48.5q33 19 52.5 42t19.5 58zM416 165q0 48 -47.5 76t-106.5 55q-36 -20 -60.5 -45.5t-24.5 -67.5q0 -47 32 -74.5t90 -27.5q53 0 85 23.5t32 60.5z" />
    <glyph glyph-name="uni0039.tnum_onum" horiz-adv-x="600" 
d="M71 308q0 96 57.5 159t166.5 63q129 0 182 -90t53 -230q0 -95 -24.5 -174.5t-80 -127.5t-150.5 -48q-58 0 -107 20.5t-84 68.5l64 65q46 -59 131 -59q72 0 100 53.5t32 165.5v23q-17 -35 -53.5 -62.5t-103.5 -27.5q-100 0 -141.5 62.5t-41.5 138.5zM185 313
q0 -54 23.5 -84.5t79.5 -30.5q62 0 89.5 34t30.5 75q-7 60 -32 92.5t-83 32.5q-59 0 -83.5 -32t-24.5 -87z" />
    <glyph glyph-name="uni0030.numr" horiz-adv-x="386" 
d="M31 467q0 71 33.5 132t129.5 61q97 0 129 -61.5t32 -126.5q0 -78 -37.5 -133t-127.5 -55q-89 0 -124 54.5t-35 128.5zM122 475q0 -51 13 -88t56 -37q41 0 57 35t16 90q0 51 -14 85t-57 34t-57 -35t-14 -84z" />
    <glyph glyph-name="uni0031.numr" horiz-adv-x="273" 
d="M30 351h74v236h-74v64h159v-300h67v-64h-226v64z" />
    <glyph glyph-name="uni0032.numr" horiz-adv-x="361" 
d="M100 534l-65 6l13 90q54 30 130 30q73 0 103.5 -31t30.5 -67q0 -44 -34 -84t-77 -72.5t-69 -51.5h125l11 54l68 -8l-10 -110h-291l-8 59q41 33 85.5 68.5t75.5 70t31 64.5q0 44 -57 44q-30 0 -51 -13z" />
    <glyph glyph-name="uni0033.numr" horiz-adv-x="347" 
d="M105 539l-65 5l12 86q25 14 61 21.5t66 7.5q59 0 91.5 -26t32.5 -65q0 -58 -65 -83v-2q44 -9 61.5 -34.5t17.5 -56.5q0 -52 -43.5 -80.5t-109.5 -28.5q-52 0 -87.5 24t-44.5 74l61 20q7 -23 22.5 -37.5t46.5 -14.5t47 15.5t16 38.5q0 49 -88 52v48q32 2 53.5 12.5
t21.5 38.5q0 41 -49 41q-27 0 -48 -12z" />
    <glyph glyph-name="uni0034.numr" horiz-adv-x="364" 
d="M195 287v74h-170l-9 62l115 228h149v-225h59l-6 -65h-53v-74h-85zM175 587l-84 -161h104v161h-20z" />
    <glyph glyph-name="uni0035.numr" horiz-adv-x="336" 
d="M313 399q0 -59 -43.5 -89t-108.5 -30q-53 0 -88.5 24t-44.5 74l62 20q7 -22 22.5 -37t45.5 -15q63 0 63 54q0 35 -25 45.5t-59 10.5q-15 0 -30 -1t-28 -2l-27 22v176h234v-1l1 1l8 -101l-70 -7l-6 44h-88v-71h21q64 0 112.5 -23t48.5 -94z" />
    <glyph glyph-name="uni0036.numr" horiz-adv-x="348" 
d="M196 596q-34 0 -53 -24t-22 -91q11 18 31.5 31t55.5 13q61 0 84.5 -36.5t23.5 -76.5q0 -56 -38 -92t-103 -36q-76 0 -110 50.5t-34 127.5q0 81 37.5 139.5t120.5 58.5q71 0 116 -48l-45 -48q-16 20 -31.5 26t-32.5 6zM180 464q-28 0 -42 -15t-15 -37q6 -62 55 -62
q52 0 52 58q0 56 -50 56z" />
    <glyph glyph-name="uni0037.numr" horiz-adv-x="315" 
d="M22 651h273l10 -35l-137 -330h-83l128 302h-117v-61h-74v124z" />
    <glyph glyph-name="uni0038.numr" horiz-adv-x="352" 
d="M171 284q-61 0 -100.5 24.5t-39.5 71.5q0 38 23.5 57t54.5 32q-29 15 -49.5 36t-20.5 55q0 45 37.5 72.5t99.5 27.5q59 0 95.5 -25t36.5 -66q0 -31 -20 -48.5t-48 -30.5q32 -16 57 -39t25 -63q0 -51 -43 -77.5t-108 -26.5zM130 567q0 -19 19 -31t45 -24q12 8 20.5 18.5
t8.5 26.5q0 25 -15.5 34t-31.5 9q-46 0 -46 -33zM175 344q55 0 55 38q0 24 -23.5 38.5t-54.5 28.5q-15 -10 -25.5 -22t-10.5 -31q0 -52 59 -52z" />
    <glyph glyph-name="uni0039.numr" horiz-adv-x="349" 
d="M153 348q37 0 53.5 23.5t18.5 89.5q-11 -17 -31 -29.5t-54 -12.5q-61 0 -84.5 36.5t-23.5 76.5q0 56 38 92t102 36q76 0 110.5 -50.5t34.5 -131.5q0 -85 -37 -139.5t-119 -54.5q-72 0 -119 48l46 48q16 -20 34 -26t31 -6zM168 480q53 0 56 48q-6 66 -54 66q-52 0 -52 -58
q0 -56 50 -56z" />
    <glyph glyph-name="uni00A9.pnum_lnum" horiz-adv-x="767" 
d="M717 327q0 -92 -45 -167.5t-120.5 -120.5t-168.5 -45q-92 0 -167.5 45t-120.5 120.5t-45 167.5t45 167.5t120.5 120.5t167.5 45q93 0 168.5 -45t120.5 -120.5t45 -167.5zM657 325q0 116 -78.5 197.5t-196.5 81.5q-121 0 -196.5 -82t-75.5 -194q0 -114 80 -196t195 -82
q112 0 192 78t80 197zM521 186q-19 -21 -58 -33t-83 -12q-86 0 -136.5 53t-50.5 135t52 137.5t138 55.5q48 0 81.5 -14t53.5 -32l11 -83l-60 -5l-9 47q-34 25 -77 25q-107 0 -107 -130q0 -69 32 -97.5t81 -28.5q24 0 40.5 5t31.5 12l9 50l60 -5z" />
    <glyph glyph-name="uni2117.pnum_lnum" horiz-adv-x="767" 
d="M383 -6q-92 0 -167.5 45t-120.5 120.5t-45 167.5t45 167.5t120.5 120.5t167.5 45q93 0 168.5 -45t120.5 -120.5t45 -167.5t-45 -167.5t-120.5 -120.5t-168.5 -45zM383 50q114 0 194 78t80 199q0 113 -78 195t-196 82q-121 0 -197 -82t-76 -195q0 -75 37 -138t99 -101
t137 -38zM239 184h45v271h-45v64h187q76 0 115 -36t39 -93q0 -67 -45 -100t-106 -33h-64v-73h63v-64h-189v64zM415 319q43 0 60 18.5t17 50.5q0 67 -76 67h-51v-136h50z" />
    <glyph glyph-name="uni267E.pnum_lnum" horiz-adv-x="767" 
d="M383 -6q-92 0 -167.5 45t-120.5 120.5t-45 167.5t45 167.5t120.5 120.5t167.5 45q93 0 168.5 -45t120.5 -120.5t45 -167.5t-45 -167.5t-120.5 -120.5t-168.5 -45zM383 50q114 0 194 78t80 199q0 113 -78 195t-196 82q-121 0 -197 -82t-76 -195q0 -75 37 -138t99 -101
t137 -38zM489 216q-42 0 -65.5 23t-39.5 51q-15 -28 -37.5 -51t-64.5 -23q-50 0 -78 33t-28 79q0 50 30.5 82.5t78.5 32.5q41 0 62.5 -24t36.5 -55q18 31 42 55t66 24q48 0 75 -32t27 -81q0 -50 -29 -82t-76 -32zM482 390q-31 0 -48.5 -19t-31.5 -45q13 -23 30 -40.5
t46 -17.5q57 0 57 63q0 24 -12.5 41.5t-40.5 17.5zM288 268q27 0 45 17.5t32 42.5q-13 25 -30 43.5t-45 18.5q-56 0 -56 -62q0 -60 54 -60z" />
    <glyph glyph-name="uni24CA.pnum_lnum" horiz-adv-x="767" 
d="M383 -6q-92 0 -167.5 45t-120.5 120.5t-45 167.5t45 167.5t120.5 120.5t167.5 45q93 0 168.5 -45t120.5 -120.5t45 -167.5t-45 -167.5t-120.5 -120.5t-168.5 -45zM383 50q114 0 194 78t80 199q0 113 -78 195t-196 82q-121 0 -197 -82t-76 -195q0 -75 37 -138t99 -101
t137 -38zM428 497h155v-60h-35v-164q0 -62 -37 -113.5t-131 -51.5q-90 0 -126 48t-36 110v171h-37v60h160v-60h-46v-169q0 -44 20.5 -70.5t68.5 -26.5q90 0 90 102v164h-46v60z" />
    <glyph glyph-name="uni20AC.pnum_lnum" horiz-adv-x="683" 
d="M31 358v74h76q23 91 90 159.5t197 68.5q82 0 135 -23t88 -54l17 -141l-92 -9l-16 90q-28 18 -60.5 28.5t-73.5 10.5q-131 0 -167 -130h203v-74h-215q-1 -8 -1 -17v-17q0 -12 0.5 -23t1.5 -21h184v-74h-170q39 -118 174 -118q40 0 69.5 7.5t53.5 20.5l15 97l92 -9
l-15 -142q-75 -72 -224 -72q-111 0 -184.5 58.5t-100.5 157.5h-77v74h65q-1 10 -1.5 20t-0.5 20v18.5t1 19.5h-64z" />
    <glyph glyph-name="uni0024.pnum_lnum" horiz-adv-x="544" 
d="M510 191q0 -89 -56 -140t-151 -59v-73h-60v72q-61 2 -116 17.5t-88 43.5l18 149l89 -9l-2 -80q28 -15 52.5 -20t46.5 -6v206q-47 9 -92.5 24.5t-76 50.5t-30.5 102q0 94 60 139t139 51v80h60v-81q51 -4 97.5 -21t73.5 -42l6 -137l-89 -8l-9 84q-38 21 -79 26v-176
q41 -9 89.5 -25.5t83 -54.5t34.5 -113zM163 482q0 -38 23 -56t57 -28v162q-80 -10 -80 -78zM391 179q0 45 -25.5 67t-62.5 33v-190q39 5 63.5 25.5t24.5 64.5z" />
    <glyph glyph-name="uni00A2.pnum_lnum" horiz-adv-x="487" 
d="M452 261q-7 -55 -44.5 -107t-120.5 -62v-76h-60v75q-86 7 -139 64.5t-53 161.5q0 100 53 164t139 75v73h60v-72q71 -6 132 -43l19 -125l-86 -10l-15 71q-13 5 -25 9.5t-25 6.5v-285q61 12 76 97zM150 322q0 -118 77 -139v281q-77 -22 -77 -142z" />
    <glyph glyph-name="uni00A3.pnum_lnum" horiz-adv-x="573" 
d="M540 104q-12 -26 -55 -65t-114 -39h-332v92q50 27 63 72.5t13 114.5h-76v75h76v63q0 125 61 184t148 59q44 0 92.5 -12t81.5 -42l16 -141l-90 -9l-15 87q-19 11 -41 15t-42 4q-47 0 -73.5 -31.5t-26.5 -112.5v-64h196v-75h-196q0 -58 -12 -105.5t-61 -78.5h196
q53 0 84.5 18.5t54.5 47.5z" />
    <glyph glyph-name="uni0192.pnum_lnum" horiz-adv-x="434" 
d="M46 349h90l7 126q5 91 59 138t140 47q37 0 79 -5v-85q-23 3 -42 5t-35 2q-50 0 -70 -25t-23 -79l-7 -124h130v-75h-134l-13 -252q-3 -60 -36.5 -111t-132.5 -51q-19 0 -53 5v82q16 -2 26.5 -3.5t20.5 -1.5q34 0 48.5 19t17.5 84l13 229h-85v75z" />
    <glyph glyph-name="uni00A5.pnum_lnum" horiz-adv-x="680" 
d="M652 555h-59l-143 -223h108v-67h-151l-8 -13v-40h159v-67h-159v-50h109v-95h-324v95h104v50h-160v67h160v41l-8 12h-152v67h107l-148 223h-60v95h257v-95h-68l130 -204h6l127 204h-72v95h245v-95z" />
    <glyph glyph-name="uni20B9.pnum_lnum" horiz-adv-x="593" 
d="M41 346h191q64 0 96.5 19t41.5 54h-329v72h329q-18 64 -137 64h-192v95h518v-95h-89q15 -26 20 -64h57v-72h-58q-20 -102 -126 -138l99 -186h79v-95h-152l-133 257h-215v89z" />
    <glyph glyph-name="uni0061.smcp" horiz-adv-x="580" 
d="M13 82h48l162 357h-79v82h184l198 -439h51v-82h-215v82h50l-25 63h-193l-25 -63h56v-82h-212v82zM290 384l-68 -169h138l-66 169h-4z" />
    <glyph glyph-name="uni0062.smcp" horiz-adv-x="536" 
d="M320 521q76 0 121 -33.5t45 -88.5q0 -42 -25.5 -72.5t-72.5 -37.5v-4q61 -9 89.5 -46t28.5 -86q0 -63 -44 -108t-139 -45h-283v82h60v357h-60v82h280zM285 304q47 0 66.5 19.5t19.5 49.5q0 40 -22.5 53t-55.5 13h-87v-135h79zM296 82q95 0 95 75q0 72 -86 72h-99v-147h90
z" />
    <glyph glyph-name="uni0063.smcp" horiz-adv-x="550" 
d="M498 52q-29 -26 -87 -43t-117 -17q-115 0 -189.5 73.5t-74.5 191.5q0 114 73 193t195 79q62 0 115.5 -17.5t80.5 -40.5l14 -121l-90 -8l-14 81q-36 22 -96 22q-73 0 -118 -48.5t-45 -137.5q0 -92 47.5 -137.5t116.5 -45.5q55 0 97 22l14 84l90 -7z" />
    <glyph glyph-name="uni0064.smcp" horiz-adv-x="602" 
d="M290 521q140 0 210.5 -71.5t70.5 -187.5q0 -117 -73 -189.5t-202 -72.5h-256v82h60v357h-60v82h250zM287 82q169 0 169 180q0 177 -169 177h-81v-357h81z" />
    <glyph glyph-name="uni0065.smcp" 
d="M462 0h-422v82h60v357h-60v82h424l17 -148l-91 -10l-13 76h-171v-136h234v-81h-234v-140h170l13 77l93 -9z" />
    <glyph glyph-name="uni0066.smcp" horiz-adv-x="490" 
d="M466 365l-94 -9l-12 83h-154v-159h232v-82h-232v-116h90v-82h-256v82h60v357h-60v82h407z" />
    <glyph glyph-name="uni0067.smcp" horiz-adv-x="590" 
d="M439 57q-24 -29 -64 -47t-94 -18q-115 0 -183 76t-68 188q0 115 73.5 194t196.5 79q61 0 117 -17t83 -42l15 -121l-91 -8l-15 79q-42 25 -100 25q-79 0 -121.5 -48t-42.5 -135q0 -92 44 -139t113 -47q56 0 89 29t34 77v20h-110v81h246v-81h-29v-202h-83z" />
    <glyph glyph-name="uni0068.smcp" horiz-adv-x="652" 
d="M40 82h60v357h-60v82h226v-82h-60v-133h239v133h-60v82h227v-82h-60v-357h60v-82h-227v82h60v142h-239v-142h60v-82h-226v82z" />
    <glyph glyph-name="uni0069.smcp" horiz-adv-x="306" 
d="M40 82h60v357h-60v82h226v-82h-60v-357h60v-82h-226v82z" />
    <glyph glyph-name="uni006A.smcp" horiz-adv-x="418" 
d="M131 521h255v-82h-52v-294q0 -77 -46.5 -115t-119.5 -38q-69 0 -104 28t-53 66l75 51q15 -35 35 -45.5t41 -10.5q65 0 65 63v295h-96v82z" />
    <glyph glyph-name="uni006B.smcp" horiz-adv-x="578" 
d="M329 82h55l-111 142h-67v-142h48v-82h-214v82h60v357h-60v82h216v-82h-50v-136h70l106 136h-52v82h223v-82h-58l-138 -167l150 -190h55v-82h-233v82z" />
    <glyph glyph-name="uni006C.smcp" horiz-adv-x="482" 
d="M447 0h-407v82h60v357h-60v82h244v-82h-78v-357h152l15 105l94 -8z" />
    <glyph glyph-name="uni006D.smcp" horiz-adv-x="767" 
d="M41 82h60v357h-68v82h157l200 -338h3l182 338h159v-82h-68v-357h60v-82h-217v82h51v229h-4l-148 -272h-46l-158 275h-3v-232h54v-82h-214v82z" />
    <glyph glyph-name="uni006E.smcp" horiz-adv-x="651" 
d="M382 521h238v-82h-59v-439l-61 -1l-295 349h-4v-266h77v-82h-236v82h59v357h-68v82h145l279 -330h4v248h-79v82z" />
    <glyph glyph-name="uni006F.smcp" horiz-adv-x="616" 
d="M309 529q130 0 203.5 -78.5t73.5 -188.5q0 -111 -74 -190.5t-206 -79.5q-133 0 -204.5 79t-71.5 189q0 114 75.5 191.5t203.5 77.5zM310 76q80 0 120 51t40 131q0 86 -43.5 136.5t-118.5 50.5q-80 0 -121.5 -52t-41.5 -131q0 -75 40.5 -130.5t124.5 -55.5z" />
    <glyph glyph-name="uni0070.smcp" horiz-adv-x="515" 
d="M40 82h60v357h-60v82h248q101 0 153 -46t52 -121q0 -87 -59.5 -130.5t-140.5 -43.5h-87v-98h85v-82h-251v82zM274 261q58 0 81.5 24.5t23.5 65.5q0 43 -23 65.5t-81 22.5h-69v-178h68z" />
    <glyph glyph-name="uni0071.smcp" horiz-adv-x="620" 
d="M309 529q130 0 203.5 -78.5t73.5 -188.5q0 -114 -73 -190l59 -57l-60 -59l-69 66q-62 -30 -137 -30q-133 0 -204.5 79t-71.5 189q0 114 75.5 191.5t203.5 77.5zM294 168l60 60l87 -85q29 46 29 115q0 86 -43.5 136.5t-118.5 50.5q-80 0 -121.5 -52t-41.5 -131
q0 -75 40.5 -130.5t124.5 -55.5q38 0 66 12z" />
    <glyph glyph-name="uni0072.smcp" horiz-adv-x="546" 
d="M40 82h60v357h-60v82h245q102 0 155.5 -40.5t53.5 -111.5q0 -59 -30.5 -94t-76.5 -52l80 -141h64v-82h-136l-112 204h-77v-122h61v-82h-227v82zM265 280q65 0 89.5 22t24.5 62q0 42 -25 58.5t-87 16.5h-61v-159h59z" />
    <glyph glyph-name="uni0073.smcp" horiz-adv-x="483" 
d="M448 157q0 -80 -59.5 -122.5t-150.5 -42.5q-62 0 -114 16t-84 37l19 125l90 -7l-6 -65q23 -10 49 -15.5t47 -5.5q94 0 94 68q0 45 -36 62t-80 25q-61 12 -116 37t-55 106q0 89 65.5 121.5t134.5 32.5q58 0 101.5 -14t73.5 -35l11 -123l-90 -7l-12 75q-22 12 -44 16t-41 4
q-35 0 -60 -13.5t-25 -44.5q0 -35 30 -48t67 -21q28 -6 73.5 -18.5t81.5 -45t36 -97.5z" />
    <glyph glyph-name="uni0074.smcp" horiz-adv-x="557" 
d="M542 344l-94 -9l-16 104h-100v-357h90v-82h-282v82h85v357h-100l-15 -104l-95 9l20 177h487z" />
    <glyph glyph-name="uni0075.smcp" horiz-adv-x="617" 
d="M372 521h215v-82h-49v-224q0 -83 -51 -153t-182 -70q-124 0 -174.5 65t-50.5 149v233h-49v82h221v-82h-65v-229q0 -60 28.5 -97t95.5 -37q66 0 96.5 37.5t30.5 101.5v224h-66v82z" />
    <glyph glyph-name="uni0076.smcp" horiz-adv-x="577" 
d="M228 439h-55l120 -292h5l116 292h-56v82h212v-82h-49l-195 -439h-75l-195 439h-50v82h222v-82z" />
    <glyph glyph-name="uni0077.smcp" horiz-adv-x="832" 
d="M819 439h-42l-151 -439h-77l-130 355h-4l-125 -355h-78l-160 439h-46v82h215v-82h-57l88 -279h6l103 279h-47v82h214v-82h-43l103 -283h5l77 283h-63v82h212v-82z" />
    <glyph glyph-name="uni0078.smcp" horiz-adv-x="572" 
d="M558 0h-219v82h44l-102 120l-93 -120h49v-82h-224v82h57l158 185l-153 172h-50v82h216v-82h-41l92 -106l85 106h-43v82h212v-82h-50l-150 -170l165 -187h47v-82z" />
    <glyph glyph-name="uni0079.smcp" horiz-adv-x="542" 
d="M532 439h-45l-162 -236v-121h90v-82h-282v82h85v121l-168 236h-47v82h223v-82h-53l101 -151h6l98 151h-58v82h212v-82z" />
    <glyph glyph-name="uni007A.smcp" horiz-adv-x="511" 
d="M463 0h-433l-3 51l280 387v1h-164l-15 -94l-94 9l20 167h409l1 -45l-282 -393v-1h192l16 100l93 -8z" />
    <glyph glyph-name="uni00E6.smcp" horiz-adv-x="796" 
d="M747 0h-425v82h60v63h-185l-30 -63h51v-82h-212v82h51l188 357h-73v82h575l17 -148l-91 -10l-13 76h-172v-136h234v-81h-234v-140h171l13 77l93 -9zM382 215v224h-39l-111 -224h150z" />
    <glyph glyph-name="uni0153.smcp" horiz-adv-x="855" 
d="M809 0h-369v23q-26 -14 -58 -22.5t-73 -8.5q-131 0 -205.5 79t-74.5 189q0 114 78.5 191.5t201.5 77.5q41 0 73 -9t58 -23v24h370l17 -148l-91 -10l-13 76h-176v-136h233v-81h-233v-140h175l13 77l93 -9zM440 122v275q-53 48 -126 48q-82 0 -126 -52.5t-44 -129.5
q0 -71 41 -129t132 -58q84 0 123 46z" />
    <glyph glyph-name="uni00F0.smcp" horiz-adv-x="604" 
d="M46 307h56v132h-60v82h250q140 0 210.5 -71.5t70.5 -187.5q0 -117 -73 -189.5t-202 -72.5h-256v82h60v146h-56v79zM289 82q169 0 169 180q0 177 -169 177h-81v-132h105v-79h-105v-146h81z" />
    <glyph glyph-name="uni00E1.smcp" horiz-adv-x="580" 
d="M476 658l-187 -97l-29 43l159 138zM13 82h48l162 357h-79v82h184l198 -439h51v-82h-215v82h50l-25 63h-193l-25 -63h56v-82h-212v82zM290 384l-68 -169h138l-66 169h-4z" />
    <glyph glyph-name="uni0103.smcp" horiz-adv-x="580" 
d="M426 702q0 -68 -36 -100t-98 -32q-131 0 -131 132h85q0 -66 47 -66q48 0 48 66h85zM13 82h48l162 357h-79v82h184l198 -439h51v-82h-215v82h50l-25 63h-193l-25 -63h56v-82h-212v82zM290 384l-68 -169h138l-66 169h-4z" />
    <glyph glyph-name="uni00E2.smcp" horiz-adv-x="580" 
d="M443 605l-31 -44l-126 74l-108 -74l-31 43l130 124h36zM13 82h48l162 357h-79v82h184l198 -439h51v-82h-215v82h50l-25 63h-193l-25 -63h56v-82h-212v82zM290 384l-68 -169h138l-66 169h-4z" />
    <glyph glyph-name="uni00E4.smcp" horiz-adv-x="580" 
d="M140 592v115h111v-115h-111zM320 592v115h110v-115h-110zM362 82h50l-25 63h-193l-25 -63h56v-82h-212v82h48l162 357h-79v82h184l198 -439h51v-82h-215v82zM290 384l-68 -169h138l-66 169h-4z" />
    <glyph glyph-name="uni00E0.smcp" horiz-adv-x="580" 
d="M338 606l-30 -43l-186 97l57 84zM13 82h48l162 357h-79v82h184l198 -439h51v-82h-215v82h50l-25 63h-193l-25 -63h56v-82h-212v82zM290 384l-68 -169h138l-66 169h-4z" />
    <glyph glyph-name="uni0101.smcp" horiz-adv-x="580" 
d="M412 598h-259v82h259v-82zM13 82h48l162 357h-79v82h184l198 -439h51v-82h-215v82h50l-25 63h-193l-25 -63h56v-82h-212v82zM290 384l-68 -169h138l-66 169h-4z" />
    <glyph glyph-name="uni0105.smcp" horiz-adv-x="580" 
d="M13 82h48l162 357h-79v82h184l198 -439h51v-82h-49q-32 -20 -41.5 -42t-9.5 -41q0 -46 46 -46q28 0 48 13l8 -67q-16 -8 -36.5 -13.5t-45.5 -5.5q-46 0 -77 21.5t-31 66.5q0 38 20.5 67t51.5 47h-99v82h50l-25 63h-193l-25 -63h56v-82h-212v82zM290 384l-68 -169h138
l-66 169h-4z" />
    <glyph glyph-name="uni00E5.smcp" horiz-adv-x="580" 
d="M396 650q0 -41 -25.5 -67.5t-78.5 -26.5q-51 0 -76 25t-25 66q0 42 26 67.5t78 25.5q53 0 77 -25.5t24 -64.5zM328 651q0 14 -6.5 25.5t-27.5 11.5q-35 0 -35 -41q0 -39 34 -39q35 0 35 43zM13 82h48l162 357h-79v82h184l198 -439h51v-82h-215v82h50l-25 63h-193l-25 -63
h56v-82h-212v82zM290 384l-68 -169h138l-66 169h-4z" />
    <glyph glyph-name="uni00E3.smcp" horiz-adv-x="580" 
d="M432 698q-2 -43 -19.5 -79.5t-61.5 -36.5q-38 0 -66.5 20t-57.5 20q-34 0 -47 -43l-44 14q0 28 19.5 69.5t64.5 41.5q34 0 61.5 -19t56.5 -19q14 0 27 9t20 33zM13 82h48l162 357h-79v82h184l198 -439h51v-82h-215v82h50l-25 63h-193l-25 -63h56v-82h-212v82zM290 384
l-68 -169h138l-66 169h-4z" />
    <glyph glyph-name="uni0107.smcp" horiz-adv-x="557" 
d="M443 658l-187 -97l-29 43l159 138zM498 52q-29 -26 -87 -43t-117 -17q-115 0 -189.5 73.5t-74.5 191.5q0 114 73 193t195 79q62 0 115.5 -17.5t80.5 -40.5l14 -121l-90 -8l-14 81q-36 22 -96 22q-73 0 -118 -48.5t-45 -137.5q0 -92 47.5 -137.5t116.5 -45.5q55 0 97 22
l14 84l90 -7z" />
    <glyph glyph-name="uni010D.smcp" horiz-adv-x="557" 
d="M446 686l-130 -123h-36l-130 123l31 43l125 -73l109 74zM498 52q-29 -26 -87 -43t-117 -17q-115 0 -189.5 73.5t-74.5 191.5q0 114 73 193t195 79q62 0 115.5 -17.5t80.5 -40.5l14 -121l-90 -8l-14 81q-36 22 -96 22q-73 0 -118 -48.5t-45 -137.5q0 -92 47.5 -137.5
t116.5 -45.5q55 0 97 22l14 84l90 -7z" />
    <glyph glyph-name="uni00E7.smcp" horiz-adv-x="556" 
d="M435 -129q0 -49 -37.5 -68t-83.5 -19q-73 0 -109 30l21 59q12 -8 31 -15.5t45 -7.5q42 0 42 28q0 31 -46 31h-34v85q-103 10 -168.5 81.5t-65.5 181.5q0 114 73 193t195 79q62 0 115.5 -17.5t80.5 -40.5l14 -121l-90 -8l-14 81q-36 22 -96 22q-73 0 -118 -48.5
t-45 -137.5q0 -92 47.5 -137.5t116.5 -45.5q55 0 97 22l14 84l90 -7l-12 -123q-24 -21 -67.5 -36.5t-92.5 -20.5v-45h8q49 0 69 -24.5t20 -54.5z" />
    <glyph glyph-name="uni0109.smcp" horiz-adv-x="557" 
d="M452 605l-31 -44l-126 74l-108 -74l-31 43l130 124h36zM498 52q-29 -26 -87 -43t-117 -17q-115 0 -189.5 73.5t-74.5 191.5q0 114 73 193t195 79q62 0 115.5 -17.5t80.5 -40.5l14 -121l-90 -8l-14 81q-36 22 -96 22q-73 0 -118 -48.5t-45 -137.5q0 -92 47.5 -137.5
t116.5 -45.5q55 0 97 22l14 84l90 -7z" />
    <glyph glyph-name="uni010B.smcp" horiz-adv-x="557" 
d="M248 590v118h109v-118h-109zM498 52q-29 -26 -87 -43t-117 -17q-115 0 -189.5 73.5t-74.5 191.5q0 114 73 193t195 79q62 0 115.5 -17.5t80.5 -40.5l14 -121l-90 -8l-14 81q-36 22 -96 22q-73 0 -118 -48.5t-45 -137.5q0 -92 47.5 -137.5t116.5 -45.5q55 0 97 22l14 84
l90 -7z" />
    <glyph glyph-name="uni010F.smcp" horiz-adv-x="602" 
d="M431 686l-130 -123h-36l-130 123l31 43l125 -73l109 74zM290 521q140 0 210.5 -71.5t70.5 -187.5q0 -117 -73 -189.5t-202 -72.5h-256v82h60v357h-60v82h250zM287 82q169 0 169 180q0 177 -169 177h-81v-357h81z" />
    <glyph glyph-name="uni0111.smcp" horiz-adv-x="604" 
d="M46 307h56v132h-60v82h250q140 0 210.5 -71.5t70.5 -187.5q0 -117 -73 -189.5t-202 -72.5h-256v82h60v146h-56v79zM289 82q169 0 169 180q0 177 -169 177h-81v-132h105v-79h-105v-146h81z" />
    <glyph glyph-name="uni00E9.smcp" 
d="M441 658l-187 -97l-29 43l159 138zM462 0h-422v82h60v357h-60v82h424l17 -148l-91 -10l-13 76h-171v-136h234v-81h-234v-140h170l13 77l93 -9z" />
    <glyph glyph-name="uni0115.smcp" 
d="M422 702q0 -68 -36 -100t-98 -32q-131 0 -131 132h85q0 -66 47 -66q48 0 48 66h85zM462 0h-422v82h60v357h-60v82h424l17 -148l-91 -10l-13 76h-171v-136h234v-81h-234v-140h170l13 77l93 -9z" />
    <glyph glyph-name="uni011B.smcp" 
d="M434 686l-130 -123h-36l-130 123l31 43l125 -73l109 74zM462 0h-422v82h60v357h-60v82h424l17 -148l-91 -10l-13 76h-171v-136h234v-81h-234v-140h170l13 77l93 -9z" />
    <glyph glyph-name="uni00EA.smcp" 
d="M437 605l-31 -44l-126 74l-108 -74l-31 43l130 124h36zM462 0h-422v82h60v357h-60v82h424l17 -148l-91 -10l-13 76h-171v-136h234v-81h-234v-140h170l13 77l93 -9z" />
    <glyph glyph-name="uni00EB.smcp" 
d="M145 592v115h111v-115h-111zM325 592v115h110v-115h-110zM462 0h-422v82h60v357h-60v82h424l17 -148l-91 -10l-13 76h-171v-136h234v-81h-234v-140h170l13 77l93 -9z" />
    <glyph glyph-name="uni0117.smcp" 
d="M238 590v118h109v-118h-109zM462 0h-422v82h60v357h-60v82h424l17 -148l-91 -10l-13 76h-171v-136h234v-81h-234v-140h170l13 77l93 -9z" />
    <glyph glyph-name="uni00E8.smcp" 
d="M364 604l-30 -43l-186 97l57 84zM462 0h-422v82h60v357h-60v82h424l17 -148l-91 -10l-13 76h-171v-136h234v-81h-234v-140h170l13 77l93 -9z" />
    <glyph glyph-name="uni0113.smcp" 
d="M416 598h-259v82h259v-82zM462 0h-422v82h60v357h-60v82h424l17 -148l-91 -10l-13 76h-171v-136h234v-81h-234v-140h170l13 77l93 -9z" />
    <glyph glyph-name="uni0119.smcp" 
d="M471 -182q-16 -8 -36.5 -13.5t-45.5 -5.5q-46 0 -77 21.5t-31 66.5q0 37 20 66t51 47h-313v82h60v357h-60v82h424l17 -148l-91 -10l-13 76h-171v-136h234v-81h-234v-140h170l13 77l93 -9l-20 -150h-43q-30 -19 -39.5 -40.5t-9.5 -41.5q0 -46 46 -46q28 0 48 13z" />
    <glyph glyph-name="uni1EBD.smcp" 
d="M428 697q-2 -43 -19.5 -79.5t-61.5 -36.5q-38 0 -66.5 20t-57.5 20q-34 0 -47 -43l-44 14q0 28 19.5 69.5t64.5 41.5q34 0 61.5 -19t56.5 -19q14 0 27 9t20 33zM462 0h-422v82h60v357h-60v82h424l17 -148l-91 -10l-13 76h-171v-136h234v-81h-234v-140h170l13 77l93 -9z
" />
    <glyph glyph-name="uni011F.smcp" horiz-adv-x="589" 
d="M448 704q0 -68 -36 -100t-98 -32q-131 0 -131 132h85q0 -66 47 -66q48 0 48 66h85zM439 57q-24 -29 -64 -47t-94 -18q-115 0 -183 76t-68 188q0 115 73.5 194t196.5 79q61 0 117 -17t83 -42l15 -121l-91 -8l-15 79q-42 25 -100 25q-79 0 -121.5 -48t-42.5 -135
q0 -92 44 -139t113 -47q56 0 89 29t34 77v20h-110v81h246v-81h-29v-202h-83z" />
    <glyph glyph-name="uni011D.smcp" horiz-adv-x="589" 
d="M455 605l-31 -44l-126 74l-108 -74l-31 43l130 124h36zM439 57q-24 -29 -64 -47t-94 -18q-115 0 -183 76t-68 188q0 115 73.5 194t196.5 79q61 0 117 -17t83 -42l15 -121l-91 -8l-15 79q-42 25 -100 25q-79 0 -121.5 -48t-42.5 -135q0 -92 44 -139t113 -47q56 0 89 29
t34 77v20h-110v81h246v-81h-29v-202h-83z" />
    <glyph glyph-name="uni0123.smcp" horiz-adv-x="589" 
d="M439 57q-24 -29 -64 -47t-94 -18q-115 0 -183 76t-68 188q0 115 73.5 194t196.5 79q61 0 117 -17t83 -42l15 -121l-91 -8l-15 79q-42 25 -100 25q-79 0 -121.5 -48t-42.5 -135q0 -92 44 -139t113 -47q56 0 89 29t34 77v20h-110v81h246v-81h-29v-202h-83zM357 -60
l-23 -155h-83l5 155h101z" />
    <glyph glyph-name="uni0121.smcp" horiz-adv-x="589" 
d="M260 590v118h109v-118h-109zM439 57q-24 -29 -64 -47t-94 -18q-115 0 -183 76t-68 188q0 115 73.5 194t196.5 79q61 0 117 -17t83 -42l15 -121l-91 -8l-15 79q-42 25 -100 25q-79 0 -121.5 -48t-42.5 -135q0 -92 44 -139t113 -47q56 0 89 29t34 77v20h-110v81h246v-81
h-29v-202h-83z" />
    <glyph glyph-name="uni0127.smcp" horiz-adv-x="652" 
d="M385 82h60v142h-239v-142h60v-82h-226v82h60v265h-61v57h61v35h-60v82h226v-82h-60v-35h239v35h-60v82h227v-82h-60v-35h57v-57h-57v-265h60v-82h-227v82zM206 306h239v41h-239v-41z" />
    <glyph glyph-name="uni0125.smcp" horiz-adv-x="651" 
d="M482 605l-31 -44l-126 74l-108 -74l-31 43l130 124h36zM40 82h60v357h-60v82h226v-82h-60v-133h239v133h-60v82h227v-82h-60v-357h60v-82h-227v82h60v142h-239v-142h60v-82h-226v82z" />
    <glyph glyph-name="uni00ED.smcp" horiz-adv-x="306" 
d="M301 658l-187 -97l-29 43l159 138zM40 82h60v357h-60v82h226v-82h-60v-357h60v-82h-226v82z" />
    <glyph glyph-name="uni012D.smcp" horiz-adv-x="306" 
d="M287 702q0 -68 -36.5 -100t-97.5 -32q-131 0 -131 132h85q0 -66 47 -66q48 0 48 66h85zM40 82h60v357h-60v82h226v-82h-60v-357h60v-82h-226v82z" />
    <glyph glyph-name="uni00EE.smcp" horiz-adv-x="306" 
d="M302 605l-31 -44l-126 74l-108 -74l-31 43l130 124h36zM40 82h60v357h-60v82h226v-82h-60v-357h60v-82h-226v82z" />
    <glyph glyph-name="uni00EF.smcp" horiz-adv-x="306" 
d="M10 592v115h111v-115h-111zM190 592v115h110v-115h-110zM40 82h60v357h-60v82h226v-82h-60v-357h60v-82h-226v82z" />
    <glyph glyph-name="idotaccent.smcp" horiz-adv-x="306" 
d="M97 590v118h109v-118h-109zM40 82h60v357h-60v82h226v-82h-60v-357h60v-82h-226v82z" />
    <glyph glyph-name="uni00EC.smcp" horiz-adv-x="306" 
d="M229 604l-30 -43l-186 97l57 84zM40 82h60v357h-60v82h226v-82h-60v-357h60v-82h-226v82z" />
    <glyph glyph-name="uni012B.smcp" horiz-adv-x="306" 
d="M283 598h-259v82h259v-82zM40 82h60v357h-60v82h226v-82h-60v-357h60v-82h-226v82z" />
    <glyph glyph-name="uni012F.smcp" horiz-adv-x="305" 
d="M40 82h60v357h-60v82h226v-82h-60v-357h60v-82h-74q-32 -20 -41.5 -42t-9.5 -41q0 -46 46 -46q28 0 48 13l8 -67q-16 -8 -36.5 -13.5t-45.5 -5.5q-46 0 -77 21.5t-31 66.5q0 38 20.5 67t51.5 47h-85v82z" />
    <glyph glyph-name="uni0129.smcp" horiz-adv-x="306" 
d="M304 697q-2 -43 -19.5 -79.5t-61.5 -36.5q-38 0 -66.5 20t-57.5 20q-34 0 -47 -43l-44 14q0 28 19.5 69.5t64.5 41.5q34 0 61.5 -19t56.5 -19q14 0 27 9t20 33zM40 82h60v357h-60v82h226v-82h-60v-357h60v-82h-226v82z" />
    <glyph glyph-name="uni0133.smcp" horiz-adv-x="724" 
d="M437 521h255v-82h-52v-294q0 -77 -46.5 -115t-119.5 -38q-69 0 -104 28t-53 66l75 51q15 -35 35 -45.5t41 -10.5q65 0 65 63v295h-96v82zM40 82h60v357h-60v82h226v-82h-60v-357h60v-82h-226v82z" />
    <glyph glyph-name="uni0135.smcp" horiz-adv-x="418" 
d="M416 604l-31 -44l-126 74l-108 -74l-31 43l130 124h36zM131 521h255v-82h-52v-294q0 -77 -46.5 -115t-119.5 -38q-69 0 -104 28t-53 66l75 51q15 -35 35 -45.5t41 -10.5q65 0 65 63v295h-96v82z" />
    <glyph glyph-name="uni0137.smcp" horiz-adv-x="578" 
d="M329 82h55l-111 142h-67v-142h48v-82h-214v82h60v357h-60v82h216v-82h-50v-136h70l106 136h-52v82h223v-82h-58l-138 -167l150 -190h55v-82h-233v82zM347 -60l-23 -155h-83l5 155h101z" />
    <glyph glyph-name="uni013A.smcp" horiz-adv-x="482" 
d="M303 658l-187 -97l-29 43l159 138zM447 0h-407v82h60v357h-60v82h244v-82h-78v-357h152l15 105l94 -8z" />
    <glyph glyph-name="uni013E.smcp" horiz-adv-x="483" 
d="M424 548l-28 -202h-74l12 202h90zM446 0h-407v82h60v357h-60v82h244v-82h-78v-357h152l15 105l94 -8z" />
    <glyph glyph-name="uni013C.smcp" horiz-adv-x="482" 
d="M447 0h-407v82h60v357h-60v82h244v-82h-78v-357h152l15 105l94 -8zM346 -60l-23 -155h-83l5 155h101z" />
    <glyph glyph-name="uni0140.smcp" horiz-adv-x="488" 
d="M447 0h-407v82h60v357h-60v82h244v-82h-78v-357h152l15 105l94 -8zM292 224v122h115v-122h-115z" />
    <glyph glyph-name="uni0142.smcp" horiz-adv-x="484" 
d="M449 0h-407v82h60v124l-57 -18v73l57 18v160h-60v82h244v-82h-78v-127l128 40v-73l-128 -40v-157h152l15 105l94 -8z" />
    <glyph glyph-name="uni0144.smcp" horiz-adv-x="651" 
d="M476 658l-187 -97l-29 43l159 138zM382 521h238v-82h-59v-439l-61 -1l-295 349h-4v-266h77v-82h-236v82h59v357h-68v82h145l279 -330h4v248h-79v82z" />
    <glyph glyph-name="uni0149.smcp" horiz-adv-x="651" 
d="M33 570l49 194h88l-48 -194h-89zM42 82h59v357h-68v82h145l279 -330h4v248h-79v82h238v-82h-59v-439l-61 -1l-295 349h-4v-266h77v-82h-236v82z" />
    <glyph glyph-name="uni0148.smcp" horiz-adv-x="651" 
d="M474 686l-130 -123h-36l-130 123l31 43l125 -73l109 74zM382 521h238v-82h-59v-439l-61 -1l-295 349h-4v-266h77v-82h-236v82h59v357h-68v82h145l279 -330h4v248h-79v82z" />
    <glyph glyph-name="uni0146.smcp" horiz-adv-x="651" 
d="M382 521h238v-82h-59v-439l-61 -1l-295 349h-4v-266h77v-82h-236v82h59v357h-68v82h145l279 -330h4v248h-79v82zM404 -60l-23 -155h-83l5 155h101z" />
    <glyph glyph-name="uni00F1.smcp" horiz-adv-x="651" 
d="M475 697q-2 -43 -19.5 -79.5t-61.5 -36.5q-38 0 -66.5 20t-57.5 20q-34 0 -47 -43l-44 14q0 28 19.5 69.5t64.5 41.5q34 0 61.5 -19t56.5 -19q13 0 26 9t21 33zM42 82h59v357h-68v82h145l279 -330h4v248h-79v82h238v-82h-59v-439l-61 -1l-295 349h-4v-266h77v-82h-236v82
z" />
    <glyph glyph-name="uni1E47.smcp" horiz-adv-x="651" 
d="M382 521h238v-82h-59v-439l-61 -1l-295 349h-4v-266h77v-82h-236v82h59v357h-68v82h145l279 -330h4v248h-79v82zM277 -188v118h109v-118h-109z" />
    <glyph glyph-name="uni014B.smcp" horiz-adv-x="650" 
d="M42 82h59v357h-68v82h145l279 -330h4v248h-79v82h238v-82h-59v-439h-1v-35q0 -77 -45 -115t-118 -38q-68 0 -105.5 28t-54.5 67l75 50q15 -35 34.5 -45.5t40.5 -10.5q35 0 51 18t16 46v88l-249 295h-4v-266h77v-82h-236v82z" />
    <glyph glyph-name="uni00F3.smcp" horiz-adv-x="615" 
d="M472 660l-187 -97l-29 43l159 138zM309 529q130 0 203.5 -78.5t73.5 -188.5q0 -111 -74 -190.5t-206 -79.5q-133 0 -204.5 79t-71.5 189q0 114 75.5 191.5t203.5 77.5zM310 76q80 0 120 51t40 131q0 86 -43.5 136.5t-118.5 50.5q-80 0 -121.5 -52t-41.5 -131
q0 -75 40.5 -130.5t124.5 -55.5z" />
    <glyph glyph-name="uni014F.smcp" horiz-adv-x="615" 
d="M440 702q0 -68 -36 -100t-98 -32q-131 0 -131 132h85q0 -66 47 -66q48 0 48 66h85zM309 529q130 0 203.5 -78.5t73.5 -188.5q0 -111 -74 -190.5t-206 -79.5q-133 0 -204.5 79t-71.5 189q0 114 75.5 191.5t203.5 77.5zM310 76q80 0 120 51t40 131q0 86 -43.5 136.5
t-118.5 50.5q-80 0 -121.5 -52t-41.5 -131q0 -75 40.5 -130.5t124.5 -55.5z" />
    <glyph glyph-name="uni00F4.smcp" horiz-adv-x="615" 
d="M460 605l-31 -44l-126 74l-108 -74l-31 43l130 124h36zM309 529q130 0 203.5 -78.5t73.5 -188.5q0 -111 -74 -190.5t-206 -79.5q-133 0 -204.5 79t-71.5 189q0 114 75.5 191.5t203.5 77.5zM310 76q80 0 120 51t40 131q0 86 -43.5 136.5t-118.5 50.5q-80 0 -121.5 -52
t-41.5 -131q0 -75 40.5 -130.5t124.5 -55.5z" />
    <glyph glyph-name="uni00F6.smcp" horiz-adv-x="615" 
d="M165 592v115h111v-115h-111zM345 592v115h110v-115h-110zM309 529q130 0 203.5 -78.5t73.5 -188.5q0 -111 -74 -190.5t-206 -79.5q-133 0 -204.5 79t-71.5 189q0 114 75.5 191.5t203.5 77.5zM310 76q80 0 120 51t40 131q0 86 -43.5 136.5t-118.5 50.5q-80 0 -121.5 -52
t-41.5 -131q0 -75 40.5 -130.5t124.5 -55.5z" />
    <glyph glyph-name="uni00F2.smcp" horiz-adv-x="615" 
d="M382 604l-30 -43l-186 97l57 84zM309 529q130 0 203.5 -78.5t73.5 -188.5q0 -111 -74 -190.5t-206 -79.5q-133 0 -204.5 79t-71.5 189q0 114 75.5 191.5t203.5 77.5zM310 76q80 0 120 51t40 131q0 86 -43.5 136.5t-118.5 50.5q-80 0 -121.5 -52t-41.5 -131
q0 -75 40.5 -130.5t124.5 -55.5z" />
    <glyph glyph-name="uni00F5.smcp" horiz-adv-x="615" 
d="M458 697q-2 -43 -19.5 -79.5t-61.5 -36.5q-38 0 -66.5 20t-57.5 20q-34 0 -47 -43l-44 14q0 28 19.5 69.5t64.5 41.5q34 0 61.5 -19t56.5 -19q14 0 27 9t20 33zM309 529q130 0 203.5 -78.5t73.5 -188.5q0 -111 -74 -190.5t-206 -79.5q-133 0 -204.5 79t-71.5 189
q0 114 75.5 191.5t203.5 77.5zM310 76q80 0 120 51t40 131q0 86 -43.5 136.5t-118.5 50.5q-80 0 -121.5 -52t-41.5 -131q0 -75 40.5 -130.5t124.5 -55.5z" />
    <glyph glyph-name="uni0151.smcp" horiz-adv-x="615" 
d="M381 718l-141 -156l-42 30l101 185zM543 659l-187 -97l-29 43l159 138zM309 529q130 0 203.5 -78.5t73.5 -188.5q0 -111 -74 -190.5t-206 -79.5q-133 0 -204.5 79t-71.5 189q0 114 75.5 191.5t203.5 77.5zM310 76q80 0 120 51t40 131q0 86 -43.5 136.5t-118.5 50.5
q-80 0 -121.5 -52t-41.5 -131q0 -75 40.5 -130.5t124.5 -55.5z" />
    <glyph glyph-name="uni00F8.smcp" horiz-adv-x="618" 
d="M310 529q87 0 151 -39l27 31h100l-69 -77q68 -74 68 -182q0 -111 -74 -190.5t-206 -79.5q-91 0 -155 39l-28 -31h-92l66 76q-67 73 -67 184q0 114 75.5 191.5t203.5 77.5zM146 262q0 -62 23 -105l230 262q-38 26 -90 26q-79 0 -121 -52t-42 -131zM311 76q79 0 119.5 51
t40.5 131q0 61 -23 105l-232 -260q40 -27 95 -27z" />
    </font>
</defs>
</svg>
